<svg width="20" height="20" viewBox="0 0 20 20" fill="none" xmlns="http://www.w3.org/2000/svg">
<path d="M10 6.35582L8.95582 7.40002L10.8058 9.25005L6.25005 9.25005L6.25005 10.75L10.8058 10.75L8.95582 12.6L10 13.6442L13.6442 10L10 6.35582ZM9.99835 0.500047C11.3123 0.500047 12.5473 0.749381 13.7035 1.24805C14.8596 1.74672 15.8653 2.42346 16.7205 3.2783C17.5757 4.13315 18.2528 5.13839 18.7517 6.29402C19.2506 7.44964 19.5 8.68442 19.5 9.99835C19.5 11.3123 19.2507 12.5473 18.752 13.7034C18.2533 14.8596 17.5766 15.8653 16.7218 16.7205C15.8669 17.5757 14.8617 18.2528 13.706 18.7517C12.5504 19.2506 11.3156 19.5 10.0017 19.5C8.68777 19.5 7.45273 19.2507 6.2966 18.752C5.14045 18.2533 4.13477 17.5766 3.27955 16.7217C2.42431 15.8669 1.74726 14.8617 1.24837 13.706C0.749489 12.5504 0.500048 11.3156 0.500049 10.0017C0.500049 8.68776 0.749383 7.45273 1.24805 6.2966C1.74672 5.14045 2.42347 4.13476 3.2783 3.27955C4.13315 2.42431 5.13839 1.74726 6.29403 1.24837C7.44964 0.749488 8.68442 0.500047 9.99835 0.500047ZM10 2.00002C7.76669 2.00002 5.87502 2.77502 4.32502 4.32502C2.77502 5.87502 2.00002 7.76669 2.00002 10C2.00002 12.2334 2.77502 14.125 4.32502 15.675C5.87502 17.225 7.76669 18 10 18C12.2334 18 14.125 17.225 15.675 15.675C17.225 14.125 18 12.2334 18 10C18 7.76669 17.225 5.87502 15.675 4.32502C14.125 2.77502 12.2334 2.00002 10 2.00002Z" fill="#F0F6FF"/>
</svg>
