<svg width="21" height="19" viewBox="0 0 21 19" fill="none" xmlns="http://www.w3.org/2000/svg">
<path d="M0.5 5.05768V2.30655C0.5 1.80218 0.675 1.375 1.025 1.025C1.375 0.675 1.80257 0.5 2.3077 0.5H17.6923C18.1974 0.5 18.625 0.675 18.975 1.025C19.325 1.375 19.5 1.80257 19.5 2.3077V7.99998H18V2.3077C18 2.23077 17.9679 2.16024 17.9038 2.09613C17.8397 2.03203 17.7692 1.99998 17.6923 1.99998H2.3077C2.23077 1.99998 2.16024 2.03203 2.09612 2.09613C2.03202 2.16024 1.99998 2.23077 1.99998 2.3077V5.05768H0.5ZM2.3077 15.5C1.80257 15.5 1.375 15.325 1.025 14.975C0.675 14.625 0.5 14.1978 0.5 13.6934V10.9423H1.99998V13.6923C1.99998 13.7692 2.03202 13.8397 2.09612 13.9038C2.16024 13.9679 2.23077 14 2.3077 14H8.99035V15.5H2.3077ZM16 18.0769L14.6865 16.9596C13.2583 15.7352 12.3413 14.8663 11.9356 14.3529C11.5298 13.8394 11.3269 13.3151 11.3269 12.7799C11.3269 12.1109 11.5619 11.5348 12.0318 11.0517C12.5017 10.5685 13.0745 10.3269 13.75 10.3269C14.1171 10.3269 14.4666 10.4109 14.7984 10.5789C15.1302 10.7468 15.4346 10.9936 15.7115 11.3192L16 11.5789L16.2692 11.3288C16.5359 11.0032 16.8378 10.7548 17.175 10.5837C17.5122 10.4125 17.8705 10.3269 18.25 10.3269C18.9108 10.3269 19.4799 10.5685 19.9571 11.0517C20.4344 11.5348 20.673 12.1109 20.673 12.7799C20.673 13.3151 20.466 13.8394 20.0519 14.3529C19.6378 14.8663 18.7166 15.7352 17.2884 16.9596L16 18.0769ZM16 16.0808L16.7385 15.4673C17.7423 14.6096 18.399 14.0118 18.7087 13.674C19.0183 13.3362 19.1731 13.0378 19.1731 12.7788C19.1731 12.525 19.0808 12.3029 18.8961 12.1125C18.7115 11.9221 18.4961 11.8269 18.25 11.8269C18.0922 11.8269 17.9493 11.8593 17.8211 11.924C17.6929 11.9888 17.5474 12.0974 17.3846 12.25L16 13.5692L14.5904 12.25C14.4275 12.0974 14.2815 11.9888 14.1524 11.924C14.0232 11.8593 13.8891 11.8269 13.75 11.8269C13.4884 11.8269 13.2692 11.9221 13.0923 12.1125C12.9153 12.3029 12.8269 12.525 12.8269 12.7788C12.8269 13.0342 12.9871 13.3397 13.3077 13.6954C13.6282 14.051 14.2807 14.6481 15.2654 15.4865L16 16.0808ZM4.99997 12.75C4.84486 12.75 4.70897 12.7169 4.5923 12.6509C4.47563 12.5849 4.38525 12.4827 4.32115 12.3442L2.52883 8.74995H0.5V7.25H2.99997C3.13698 7.25 3.26462 7.28776 3.38292 7.36328C3.50124 7.43879 3.59153 7.53949 3.6538 7.66538L4.99997 10.3327L8.32115 3.66538C8.38402 3.54358 8.47833 3.45223 8.60408 3.39133C8.72983 3.33044 8.86186 3.3 9.00017 3.3C9.13849 3.3 9.26919 3.33044 9.39227 3.39133C9.51534 3.45223 9.60765 3.54358 9.6692 3.66538L11.4461 7.25H14.75V8.74995H11C10.8449 8.74995 10.709 8.71694 10.5923 8.65093C10.4756 8.58489 10.3853 8.48265 10.3211 8.3442L8.99035 5.69225L5.6538 12.3442C5.5897 12.4827 5.49878 12.5849 5.38105 12.6509C5.26332 12.7169 5.13629 12.75 4.99997 12.75Z" fill="#1C4188"/>
</svg>
