<svg width="19" height="22" viewBox="0 0 19 22" fill="none" xmlns="http://www.w3.org/2000/svg">
<path d="M7.99995 21.5096C5.4833 19.3288 3.59613 17.2993 2.33843 15.4211C1.08075 13.5429 0.451904 11.8186 0.451904 10.248C0.451904 7.94038 1.19838 6.07213 2.69133 4.64328C4.18426 3.21443 5.9538 2.5 7.99995 2.5H8.4038C8.5384 2.5 8.67301 2.51026 8.80763 2.53078V4.04613C8.67301 4.02561 8.54176 4.01118 8.41388 4.00285C8.286 3.99452 8.14802 3.99035 7.99995 3.99035C6.28457 3.99035 4.84771 4.57753 3.68938 5.7519C2.53105 6.92627 1.95188 8.42498 1.95188 10.248C1.95188 11.457 2.47079 12.8657 3.5086 14.474C4.54644 16.0824 6.04355 17.7622 7.99995 19.5135C9.94354 17.775 11.4326 16.1096 12.4673 14.5173C13.5019 12.925 14.0288 11.5243 14.048 10.3154V10.1923H15.548V10.3154C15.5288 11.8795 14.8919 13.5942 13.6374 15.4596C12.3829 17.325 10.5038 19.3416 7.99995 21.5096ZM8.00165 11.8654C8.49924 11.8654 8.92463 11.6882 9.27783 11.3339C9.63103 10.9795 9.80763 10.5536 9.80763 10.056C9.80763 9.55839 9.63046 9.133 9.27613 8.7798C8.9218 8.4266 8.49584 8.25 7.99825 8.25C7.50067 8.25 7.07528 8.42717 6.72208 8.7815C6.36888 9.13583 6.19228 9.56179 6.19228 10.0594C6.19228 10.557 6.36945 10.9824 6.72378 11.3356C7.07811 11.6888 7.50407 11.8654 8.00165 11.8654ZM14 7.99998H15.4999V4.99998H18.4999V3.5H15.4999V0.5H14V3.5H11V4.99998H14V7.99998Z" fill="#1C4188"/>
</svg>
