<svg width="16" height="20" viewBox="0 0 16 20" fill="none" xmlns="http://www.w3.org/2000/svg">
<path d="M7.99997 19.4808C5.83716 18.8911 4.04646 17.618 2.62787 15.6616C1.20929 13.7052 0.5 11.518 0.5 9.10007V3.34625L7.99997 0.538574L15.5 3.34625V9.10007C15.5 10.3693 15.2919 11.6004 14.8759 12.7933C14.4599 13.9863 13.8435 15.0795 13.0269 16.0731L9.88457 12.9308C9.61022 13.1206 9.31183 13.2629 8.9894 13.3577C8.66697 13.4526 8.33716 13.5 7.99997 13.5C7.03749 13.5 6.21354 13.1573 5.52813 12.4719C4.84271 11.7865 4.5 10.9626 4.5 10.0001C4.5 9.03759 4.84271 8.21364 5.52813 7.52822C6.21354 6.84281 7.03749 6.5001 7.99997 6.5001C8.96246 6.5001 9.78641 6.84281 10.4718 7.52822C11.1572 8.21364 11.5 9.03759 11.5 10.0001C11.5 10.3376 11.4541 10.6637 11.3625 10.9783C11.2708 11.2928 11.1397 11.5924 10.9692 11.877L12.8346 13.7424C13.1936 13.0398 13.4775 12.3023 13.6865 11.5299C13.8955 10.7574 14 9.94751 14 9.10007V4.37507L7.99997 2.1347L1.99997 4.37507V9.10007C1.99997 11.1167 2.56664 12.9501 3.69997 14.6001C4.83331 16.2501 6.26664 17.3501 7.99997 17.9001C8.43331 17.7667 8.84581 17.5959 9.23748 17.3876C9.62914 17.1792 10.0166 16.9334 10.4 16.6501L11.4153 17.7231C10.891 18.1283 10.3512 18.4767 9.79613 18.7683C9.24099 19.06 8.64227 19.2975 7.99997 19.4808ZM7.99997 12.0001C8.54997 12.0001 9.02081 11.8042 9.41247 11.4126C9.80414 11.0209 9.99998 10.5501 9.99998 10.0001C9.99998 9.45008 9.80414 8.97924 9.41247 8.58757C9.02081 8.19591 8.54997 8.00007 7.99997 8.00007C7.44997 8.00007 6.97914 8.19591 6.58747 8.58757C6.19581 8.97924 5.99997 9.45008 5.99997 10.0001C5.99997 10.5501 6.19581 11.0209 6.58747 11.4126C6.97914 11.8042 7.44997 12.0001 7.99997 12.0001Z" fill="#1C4188"/>
</svg>
