<svg width="18" height="18" viewBox="0 0 18 18" fill="none" xmlns="http://www.w3.org/2000/svg">
<path d="M1.99995 17.5C1.36212 17.5 0.90876 17.2153 0.639877 16.6461C0.370977 16.0769 0.435885 15.5474 0.834602 15.0577L6.49998 8.17308V1.99998H5.30768C5.09518 1.99998 4.91705 1.92807 4.7733 1.78425C4.62955 1.64045 4.55768 1.46225 4.55768 1.24965C4.55768 1.03707 4.62955 0.858984 4.7733 0.715401C4.91705 0.571801 5.09518 0.5 5.30768 0.5H12.6922C12.9047 0.5 13.0829 0.571909 13.2266 0.715726C13.3704 0.859542 13.4422 1.03774 13.4422 1.25033C13.4422 1.46293 13.3704 1.64102 13.2266 1.7846C13.0829 1.92818 12.9047 1.99998 12.6922 1.99998H11.4999V8.17308L17.1653 15.0577C17.564 15.5474 17.6289 16.0769 17.36 16.6461C17.0911 17.2153 16.6378 17.5 16 17.5H1.99995ZM1.99995 16H16L9.99995 8.69998V1.99998H7.99995V8.69998L1.99995 16Z" fill="#1C4188"/>
</svg>
