<svg width="45" height="45" viewBox="0 0 45 45" fill="none" xmlns="http://www.w3.org/2000/svg">
<mask id="mask0_159_1646" style="mask-type:alpha" maskUnits="userSpaceOnUse" x="0" y="0" width="45" height="45">
<rect width="45" height="45" fill="#D9D9D9"/>
</mask>
<g mask="url(#mask0_159_1646)">
<path d="M7.5 22.5H37.5V15H7.5V22.5ZM35.625 41.25V35.625H30V31.875H35.625V26.25H39.375V31.875H45V35.625H39.375V41.25H35.625ZM7.5 37.5C6.46875 37.5 5.58594 37.1328 4.85156 36.3984C4.11719 35.6641 3.75 34.7812 3.75 33.75V11.25C3.75 10.2188 4.11719 9.33594 4.85156 8.60156C5.58594 7.86719 6.46875 7.5 7.5 7.5H37.5C38.5312 7.5 39.4141 7.86719 40.1484 8.60156C40.8828 9.33594 41.25 10.2188 41.25 11.25V22.5H35.625C33.0312 22.5 30.8203 23.4141 28.9922 25.2422C27.1641 27.0703 26.25 29.2812 26.25 31.875V37.5H7.5Z" fill="#1C4188"/>
</g>
</svg>
