<svg width="23" height="39" viewBox="0 0 23 39" fill="none" xmlns="http://www.w3.org/2000/svg">
<path d="M11.5 38.25C8.1875 38.25 5.48438 37.7266 3.39063 36.6797C1.29688 35.6328 0.25 34.2812 0.25 32.625C0.25 31.5312 0.703125 30.5781 1.60938 29.7656C2.51562 28.9531 3.76563 28.3125 5.35938 27.8438L6.4375 31.4062C5.90625 31.5625 5.42188 31.7578 4.98438 31.9922C4.54688 32.2266 4.25 32.4375 4.09375 32.625C4.5 33.125 5.4375 33.5625 6.90625 33.9375C8.375 34.3125 9.90625 34.5 11.5 34.5C13.0938 34.5 14.6328 34.3125 16.1172 33.9375C17.6016 33.5625 18.5469 33.125 18.9531 32.625C18.7969 32.4375 18.5 32.2266 18.0625 31.9922C17.625 31.7578 17.1406 31.5625 16.6094 31.4062L17.6875 27.8438C19.2812 28.3125 20.5234 28.9531 21.4141 29.7656C22.3047 30.5781 22.75 31.5312 22.75 32.625C22.75 34.2812 21.7031 35.6328 19.6094 36.6797C17.5156 37.7266 14.8125 38.25 11.5 38.25ZM11.5 32.625C11.1562 32.625 10.8438 32.5234 10.5625 32.3203C10.2812 32.1172 10.0781 31.8438 9.95312 31.5C9.23438 29.2812 8.32812 27.4219 7.23438 25.9219C6.14062 24.4219 5.07812 22.9844 4.04688 21.6094C3.04688 20.2344 2.17969 18.8125 1.44531 17.3438C0.710937 15.875 0.34375 14.0625 0.34375 11.9063C0.34375 8.78125 1.42188 6.14062 3.57812 3.98438C5.73438 1.82813 8.375 0.75 11.5 0.75C14.625 0.75 17.2656 1.82813 19.4219 3.98438C21.5781 6.14062 22.6562 8.78125 22.6562 11.9063C22.6562 14.0625 22.2969 15.875 21.5781 17.3438C20.8594 18.8125 19.9844 20.2344 18.9531 21.6094C17.9531 22.9844 16.8984 24.4219 15.7891 25.9219C14.6797 27.4219 13.7656 29.2812 13.0469 31.5C12.9219 31.8438 12.7188 32.1172 12.4375 32.3203C12.1562 32.5234 11.8438 32.625 11.5 32.625ZM11.5 15.8906C12.5938 15.8906 13.5312 15.5 14.3125 14.7188C15.0938 13.9375 15.4844 13 15.4844 11.9063C15.4844 10.8125 15.0938 9.875 14.3125 9.09375C13.5312 8.3125 12.5938 7.92188 11.5 7.92188C10.4062 7.92188 9.46875 8.3125 8.6875 9.09375C7.90625 9.875 7.51562 10.8125 7.51562 11.9063C7.51562 13 7.90625 13.9375 8.6875 14.7188C9.46875 15.5 10.4062 15.8906 11.5 15.8906Z" fill="#1C4188"/>
</svg>
