<svg width="30" height="30" viewBox="0 0 30 30" fill="none" xmlns="http://www.w3.org/2000/svg">
<path d="M21.6982 13.7612V8.9428H16.8798V5.73052H21.6982V0.912109H24.9105V5.73052H29.7289V8.9428H24.9105V13.7612H21.6982ZM28.0424 29.8226C24.6963 29.8226 21.3904 29.0931 18.1245 27.6342C14.8587 26.1753 11.8874 24.1074 9.21048 21.4305C6.53359 18.7536 4.46568 15.7823 3.00678 12.5165C1.54787 9.25064 0.818413 5.94467 0.818413 2.59855C0.818413 2.11671 0.979027 1.71518 1.30025 1.39395C1.62148 1.07272 2.02302 0.912109 2.50486 0.912109H9.00971C9.38448 0.912109 9.71909 1.03926 10.0135 1.29357C10.308 1.54787 10.482 1.84902 10.5355 2.19702L11.5795 7.8185C11.6331 8.2468 11.6197 8.60818 11.5394 8.90264C11.4591 9.1971 11.3118 9.45141 11.0977 9.66556L7.20281 13.6006C7.73819 14.591 8.37395 15.548 9.1101 16.4716C9.84624 17.3951 10.656 18.2852 11.5394 19.1418C12.3692 19.9716 13.2392 20.7412 14.1494 21.4506C15.0595 22.16 16.0232 22.8091 17.0404 23.398L20.8148 19.6236C21.0557 19.3827 21.3703 19.202 21.7584 19.0815C22.1466 18.9611 22.528 18.9276 22.9028 18.9812L28.444 20.1055C28.8187 20.2125 29.1266 20.4066 29.3675 20.6877C29.6084 20.9688 29.7289 21.2833 29.7289 21.6313V28.1361C29.7289 28.618 29.5683 29.0195 29.247 29.3407C28.9258 29.662 28.5243 29.8226 28.0424 29.8226ZM5.67698 10.5489L8.32711 7.89881L7.6445 4.12438H4.07084C4.20469 5.22191 4.39207 6.30605 4.63299 7.37681C4.87391 8.44757 5.22191 9.50494 5.67698 10.5489ZM20.0519 24.9239C21.0959 25.3789 22.16 25.7403 23.2441 26.008C24.3282 26.2757 25.4191 26.4497 26.5166 26.53V22.9965L22.7422 22.2336L20.0519 24.9239Z" fill="#F0F6FF"/>
</svg>
