<svg width="198" height="195" viewBox="0 0 198 195" fill="none" xmlns="http://www.w3.org/2000/svg">
<path d="M98.9901 58.2857H77.9421C77.5109 56.0439 76.6291 53.9135 75.3505 52.0241L82.9796 44.3777C83.2817 44.0802 83.5221 43.7257 83.6869 43.3346C83.8516 42.9435 83.9374 42.5235 83.9393 42.099C83.9412 41.6744 83.8591 41.2537 83.6979 40.8612C83.5367 40.4686 83.2995 40.1119 83 39.8117C82.7004 39.5115 82.3446 39.2738 81.9529 39.1122C81.5612 38.9506 81.1414 38.8684 80.7179 38.8703C80.2943 38.8722 79.8753 38.9582 79.4851 39.1233C79.0948 39.2883 78.7411 39.5293 78.4443 39.8322L70.8152 47.4785C68.9299 46.1973 66.8043 45.3135 64.5677 44.881V23.7858C64.5677 22.9333 64.2299 22.1157 63.6284 21.5129C63.027 20.9101 62.2112 20.5715 61.3607 20.5715C60.5101 20.5715 59.6944 20.9101 59.0929 21.5129C58.4915 22.1157 58.1536 22.9333 58.1536 23.7858V44.8814C55.917 45.314 53.7915 46.1977 51.9061 47.4789L44.2771 39.8326C43.9802 39.5297 43.6265 39.2888 43.2363 39.1237C42.846 38.9586 42.427 38.8726 42.0035 38.8707C41.5799 38.8688 41.1601 38.951 40.7684 39.1126C40.3768 39.2742 40.0209 39.5119 39.7214 39.8121C39.4218 40.1123 39.1846 40.469 39.0234 40.8616C38.8622 41.2542 38.7802 41.6749 38.7821 42.0994C38.784 42.5239 38.8697 42.9439 39.0345 43.335C39.1992 43.7261 39.4396 44.0806 39.7418 44.3781L47.3708 52.0245C46.0922 53.9139 45.2104 56.0443 44.7792 58.2861H23.7321C22.8815 58.2861 22.0658 58.6247 21.4643 59.2275C20.8629 59.8303 20.525 60.6479 20.525 61.5004C20.525 62.3529 20.8629 63.1705 21.4643 63.7733C22.0658 64.3761 22.8815 64.7147 23.7321 64.7147H44.78C45.2113 66.9565 46.093 69.0869 47.3717 70.9763L39.7426 78.6227C39.1412 79.2255 38.8033 80.043 38.8033 80.8955C38.8033 81.7479 39.1412 82.5655 39.7426 83.1683C40.3686 83.7961 41.1894 84.1098 42.0102 84.1098C42.8311 84.1098 43.6519 83.7961 44.2779 83.1683L51.907 75.5219C53.7923 76.8031 55.9178 77.6869 58.1544 78.1194V99.215C58.1544 100.067 58.4923 100.885 59.0937 101.488C59.6952 102.091 60.5109 102.429 61.3615 102.429C62.212 102.429 63.0278 102.091 63.6292 101.488C64.2307 100.885 64.5686 100.067 64.5686 99.215V78.1194C66.8051 77.6868 68.9306 76.8031 70.816 75.5219L78.4451 83.1683C79.0711 83.7961 79.8919 84.1098 80.7127 84.1098C81.5335 84.1098 82.3544 83.7961 82.9804 83.1683C83.5818 82.5655 83.9196 81.7479 83.9196 80.8955C83.9196 80.043 83.5818 79.2255 82.9804 78.6227L75.3513 70.9763C76.63 69.0869 77.5117 66.9565 77.943 64.7147H98.9901C99.8406 64.7147 100.656 64.3761 101.258 63.7733C101.859 63.1705 102.197 62.3529 102.197 61.5004C102.197 60.6479 101.859 59.8303 101.258 59.2274C100.656 58.6245 99.8407 58.2858 98.9901 58.2857ZM61.3611 72C55.5848 72 50.8848 67.2894 50.8848 61.5C50.8848 55.7106 55.5848 51 61.3611 51C67.1374 51 71.8373 55.7106 71.8373 61.5C71.8373 67.2894 67.1378 72 61.3611 72ZM191.352 157.714H173.646C173.32 156.38 172.792 155.105 172.081 153.932L179.937 146.058C180.239 145.76 180.48 145.406 180.644 145.015C180.809 144.624 180.895 144.204 180.897 143.779C180.899 143.355 180.817 142.934 180.655 142.541C180.494 142.149 180.257 141.792 179.958 141.492C179.658 141.192 179.302 140.954 178.91 140.792C178.519 140.631 178.099 140.549 177.675 140.55C177.252 140.552 176.833 140.638 176.443 140.803C176.052 140.969 175.699 141.209 175.402 141.512L167.546 149.386C166.375 148.673 165.103 148.144 163.772 147.818V130.071C163.772 129.218 163.434 128.401 162.833 127.798C162.231 127.195 161.416 126.856 160.565 126.856C159.715 126.856 158.899 127.195 158.297 127.798C157.696 128.401 157.358 129.218 157.358 130.071V147.818C156.028 148.144 154.755 148.673 153.584 149.386L145.728 141.512C145.432 141.209 145.078 140.968 144.688 140.803C144.297 140.638 143.878 140.552 143.455 140.55C143.031 140.548 142.611 140.63 142.22 140.792C141.828 140.954 141.472 141.191 141.173 141.491C140.873 141.792 140.636 142.148 140.475 142.541C140.313 142.934 140.231 143.354 140.233 143.779C140.235 144.203 140.321 144.623 140.486 145.014C140.65 145.405 140.891 145.76 141.193 146.057L149.049 153.931C148.338 155.104 147.81 156.38 147.485 157.713H129.777C128.926 157.713 128.111 158.052 127.509 158.655C126.908 159.258 126.57 160.075 126.57 160.928C126.57 161.78 126.908 162.598 127.509 163.201C128.111 163.803 128.926 164.142 129.777 164.142H147.483C147.809 165.476 148.336 166.751 149.048 167.924L141.192 175.798C140.743 176.248 140.438 176.82 140.314 177.444C140.19 178.067 140.254 178.714 140.497 179.301C140.739 179.888 141.15 180.39 141.678 180.743C142.205 181.097 142.825 181.285 143.459 181.285C143.881 181.286 144.298 181.203 144.687 181.041C145.076 180.88 145.43 180.643 145.727 180.344L153.583 172.47C154.754 173.183 156.026 173.712 157.357 174.038V191.786C157.357 192.638 157.695 193.456 158.296 194.059C158.898 194.661 159.713 195 160.564 195C161.414 195 162.23 194.661 162.832 194.059C163.433 193.456 163.771 192.638 163.771 191.786V174.039C165.101 173.713 166.374 173.184 167.545 172.471L175.401 180.345C176.027 180.972 176.847 181.286 177.668 181.286C178.489 181.286 179.31 180.973 179.936 180.345C180.537 179.742 180.875 178.925 180.875 178.072C180.875 177.22 180.537 176.402 179.936 175.799L172.08 167.926C172.791 166.752 173.319 165.477 173.644 164.143H191.352C192.203 164.143 193.018 163.805 193.62 163.202C194.222 162.599 194.559 161.781 194.559 160.929C194.559 160.076 194.222 159.258 193.62 158.655C193.018 158.053 192.203 157.714 191.352 157.714ZM160.565 167.999C156.675 167.999 153.509 164.827 153.509 160.928C153.509 157.029 156.675 153.857 160.565 153.857C164.455 153.857 167.62 157.029 167.62 160.928C167.62 164.827 164.455 167.999 160.565 167.999ZM146.881 54.4284H153.937V61.4996C153.937 62.3521 154.274 63.1697 154.876 63.7725C155.477 64.3753 156.293 64.7139 157.144 64.7139C157.994 64.7139 158.81 64.3753 159.411 63.7725C160.013 63.1697 160.351 62.3521 160.351 61.4996V54.4284H167.406C168.257 54.4284 169.072 54.0897 169.674 53.4869C170.275 52.8841 170.613 52.0665 170.613 51.2141C170.613 50.3616 170.275 49.544 169.674 48.9412C169.072 48.3384 168.257 47.9997 167.406 47.9997H160.351V40.9285C160.351 40.076 160.013 39.2584 159.411 38.6556C158.81 38.0528 157.994 37.7142 157.144 37.7142C156.293 37.7142 155.477 38.0528 154.876 38.6556C154.274 39.2584 153.937 40.076 153.937 40.9285V47.9997H146.881C146.031 47.9997 145.215 48.3384 144.614 48.9412C144.012 49.544 143.674 50.3616 143.674 51.2141C143.674 52.0665 144.012 52.8841 144.614 53.4869C145.215 54.0897 146.031 54.4284 146.881 54.4284ZM194.177 97.4998L197.04 94.6298C197.342 94.3323 197.583 93.9778 197.748 93.5867C197.912 93.1955 197.998 92.7756 198 92.3511C198.002 91.9265 197.92 91.5058 197.759 91.1132C197.597 90.7207 197.36 90.364 197.061 90.0638C196.761 89.7636 196.405 89.5258 196.014 89.3643C195.622 89.2027 195.202 89.1205 194.779 89.1224C194.355 89.1243 193.936 89.2102 193.546 89.3753C193.156 89.5404 192.802 89.7814 192.505 90.0842L189.641 92.9542L186.778 90.0842C186.481 89.7814 186.127 89.5404 185.737 89.3753C185.347 89.2102 184.928 89.1243 184.504 89.1224C184.081 89.1205 183.661 89.2027 183.269 89.3643C182.878 89.5258 182.522 89.7636 182.222 90.0638C181.923 90.364 181.686 90.7207 181.524 91.1132C181.363 91.5058 181.281 91.9265 181.283 92.3511C181.285 92.7756 181.371 93.1955 181.535 93.5867C181.7 93.9778 181.94 94.3323 182.243 94.6298L185.106 97.4998L182.243 100.37C181.641 100.973 181.303 101.79 181.303 102.643C181.303 103.495 181.641 104.313 182.243 104.915C182.54 105.214 182.894 105.451 183.283 105.613C183.672 105.775 184.089 105.858 184.51 105.857C184.932 105.857 185.349 105.775 185.738 105.613C186.127 105.451 186.481 105.214 186.778 104.915L189.641 102.045L192.505 104.915C192.802 105.214 193.156 105.451 193.545 105.613C193.934 105.775 194.351 105.858 194.773 105.857C195.407 105.857 196.027 105.668 196.554 105.315C197.082 104.962 197.493 104.46 197.735 103.873C197.978 103.285 198.042 102.639 197.918 102.016C197.794 101.392 197.489 100.819 197.04 100.37L194.177 97.4998ZM46.5247 148.37C45.9233 147.767 45.1076 147.429 44.2571 147.429C43.4066 147.429 42.5909 147.767 41.9894 148.37L39.1259 151.24L36.2624 148.37C35.9656 148.067 35.6119 147.826 35.2217 147.661C34.8314 147.496 34.4124 147.41 33.9888 147.408C33.5653 147.406 33.1455 147.488 32.7538 147.65C32.3621 147.812 32.0063 148.049 31.7067 148.349C31.4072 148.65 31.17 149.006 31.0088 149.399C30.8476 149.791 30.7655 150.212 30.7674 150.637C30.7693 151.061 30.8551 151.481 31.0198 151.872C31.1846 152.263 31.425 152.618 31.7271 152.915L34.5902 155.785L31.7267 158.655C31.1253 159.258 30.7875 160.076 30.7875 160.928C30.7875 161.781 31.1253 162.598 31.7267 163.201C32.3527 163.829 33.1736 164.143 33.9944 164.143C34.8152 164.143 35.636 163.829 36.262 163.201L39.1255 160.331L41.989 163.201C42.615 163.829 43.4359 164.143 44.2567 164.143C45.0775 164.143 45.8983 163.829 46.5243 163.201C47.1257 162.598 47.4636 161.781 47.4636 160.928C47.4636 160.076 47.1257 159.258 46.5243 158.655L43.6612 155.785L46.5247 152.915C47.1261 152.313 47.464 151.495 47.464 150.643C47.464 149.79 47.1261 148.973 46.5247 148.37ZM16.8904 95.9999H13.2558V92.357C13.2558 91.9349 13.1729 91.5169 13.0117 91.127C12.8505 90.737 12.6143 90.3826 12.3165 90.0841C12.0187 89.7857 11.6651 89.5489 11.276 89.3874C10.8869 89.2258 10.4699 89.1427 10.0487 89.1427C9.62758 89.1427 9.21055 89.2258 8.82145 89.3874C8.43235 89.5489 8.0788 89.7857 7.781 90.0841C7.4832 90.3826 7.24696 90.737 7.08579 91.127C6.92462 91.5169 6.84167 91.9349 6.84167 92.357V95.9999H3.20707C2.3565 95.9999 1.54077 96.3385 0.939329 96.9413C0.337887 97.5441 0 98.3617 0 99.2142C0 100.067 0.337887 100.884 0.939329 101.487C1.54077 102.09 2.3565 102.429 3.20707 102.429H6.84167V106.071C6.84167 106.493 6.92462 106.911 7.08579 107.301C7.24696 107.691 7.4832 108.046 7.781 108.344C8.0788 108.643 8.43235 108.879 8.82145 109.041C9.21055 109.203 9.62758 109.286 10.0487 109.286C10.4699 109.286 10.8869 109.203 11.276 109.041C11.6651 108.879 12.0187 108.643 12.3165 108.344C12.6143 108.046 12.8505 107.691 13.0117 107.301C13.1729 106.911 13.2558 106.493 13.2558 106.071V102.429H16.8904C17.741 102.429 18.5567 102.09 19.1582 101.487C19.7596 100.884 20.0975 100.067 20.0975 99.2142C20.0975 98.3617 19.7596 97.5441 19.1582 96.9413C18.5567 96.3385 17.741 95.9999 16.8904 95.9999ZM85.0931 147.214V140.143H92.1484C92.9989 140.143 93.8147 139.804 94.4161 139.201C95.0176 138.598 95.3555 137.781 95.3555 136.928C95.3555 136.076 95.0176 135.258 94.4161 134.656C93.8147 134.053 92.9989 133.714 92.1484 133.714H85.0931V126.643C85.0931 125.79 84.7553 124.973 84.1538 124.37C83.5524 123.767 82.7366 123.429 81.8861 123.429C81.0355 123.429 80.2198 123.767 79.6183 124.37C79.0169 124.973 78.679 125.79 78.679 126.643V133.714H71.6238C70.7732 133.714 69.9575 134.053 69.356 134.656C68.7546 135.258 68.4167 136.076 68.4167 136.928C68.4167 137.781 68.7546 138.598 69.356 139.201C69.9575 139.804 70.7732 140.143 71.6238 140.143H78.679V147.214C78.679 148.066 79.0169 148.884 79.6183 149.487C80.2198 150.09 81.0355 150.428 81.8861 150.428C82.7366 150.428 83.5524 150.09 84.1538 149.487C84.7553 148.884 85.0931 148.066 85.0931 147.214ZM139.826 102.643C139.826 97.0893 135.319 92.5711 129.777 92.5711C124.236 92.5711 119.729 97.0889 119.729 102.643C119.729 108.196 124.236 112.714 129.777 112.714C135.319 112.714 139.826 108.196 139.826 102.643ZM126.143 102.643C126.143 100.634 127.773 98.9997 129.777 98.9997C131.781 98.9997 133.412 100.634 133.412 102.643C133.412 104.651 131.781 106.285 129.777 106.285C127.773 106.285 126.143 104.651 126.143 102.643ZM109.252 0C103.712 0 99.2036 4.51779 99.2036 10.0715C99.2036 15.6252 103.711 20.143 109.252 20.143C114.793 20.143 119.301 15.6252 119.301 10.0715C119.301 4.51779 114.793 0 109.252 0ZM109.252 13.7143C107.248 13.7143 105.618 12.08 105.618 10.0715C105.618 8.06299 107.248 6.42867 109.252 6.42867C111.257 6.42867 112.887 8.06299 112.887 10.0715C112.887 12.08 111.257 13.7143 109.252 13.7143ZM92.1484 174.857C86.6076 174.857 82.0996 179.374 82.0996 184.928C82.0996 190.481 86.6072 195 92.1484 195C97.6891 195 102.197 190.482 102.197 184.928C102.197 179.374 97.6891 174.857 92.1484 174.857ZM92.1484 188.571C90.1444 188.571 88.5138 186.937 88.5138 184.928C88.5138 182.919 90.1444 181.285 92.1484 181.285C94.1527 181.285 95.783 182.92 95.783 184.928C95.783 186.937 94.1527 188.571 92.1484 188.571Z" fill="black"/>
</svg>
