<svg width="196" height="206" viewBox="0 0 196 206" fill="none" xmlns="http://www.w3.org/2000/svg">
<path d="M190.746 175.6H190.327C190.233 175.6 190.187 175.6 190.187 175.6C190.094 175.786 190.047 175.972 190.047 176.158C189.907 177.832 189.628 179.506 189.069 181.04C188.37 183.412 187.113 185.365 185.436 186.76C183.666 188.248 181.756 188.759 179.707 188.294C176.773 187.736 173.698 184.946 172.022 181.459C169.646 176.855 168.808 171.554 167.83 166.532V166.114C166.432 157.465 165.873 148.955 165.734 141.841C165.314 129.983 165.873 117.707 167.55 105.292C167.69 103.897 167.969 102.502 168.249 101.107C168.808 98.1773 169.367 95.2478 169.227 92.3183C168.948 86.8778 166.293 83.2508 161.961 82.1348C162.054 82.4138 162.101 82.6463 162.101 82.8323C166.013 83.9483 168.389 87.4358 168.528 92.3183C168.668 95.1083 168.109 98.1773 167.55 100.967C167.271 102.362 166.991 103.897 166.852 105.292C165.175 117.707 164.616 129.983 165.035 141.841C165.314 149.095 165.734 157.604 167.131 166.253L167.271 166.672C168.109 171.694 168.948 176.995 171.323 181.738C172.86 184.667 175.794 188.155 179.567 188.992C180.033 189.085 180.499 189.131 180.965 189.131C182.735 189.131 184.365 188.48 185.855 187.178C187.672 185.783 188.929 183.691 189.768 181.18C190.187 179.645 190.466 177.971 190.746 176.158C190.746 175.972 190.746 175.786 190.746 175.6Z" fill="#684A5B"/>
<path d="M193.399 165.556H187.67C186.832 165.556 186.133 165.974 185.574 166.532C186.133 167.648 186.785 168.625 187.53 169.462C188.089 168.346 189.207 167.648 190.465 167.648C192.281 167.648 193.818 169.043 193.818 170.857C193.818 171.694 193.539 172.531 192.98 173.089C193.912 173.368 194.89 173.6 195.914 173.786C195.914 173.786 195.914 173.74 195.914 173.647V168.206C195.914 166.811 194.797 165.556 193.399 165.556Z" fill="#F4E9F2"/>
<path d="M193.819 170.857C193.819 169.043 192.282 167.648 190.465 167.648C189.208 167.648 188.09 168.346 187.531 169.462C186.786 168.625 186.133 167.648 185.575 166.532C185.295 166.951 185.016 167.509 185.016 168.206V173.647C185.016 175.042 186.273 176.158 187.671 176.158H190.046C190.046 175.972 190.093 175.786 190.186 175.6C189.627 175.46 189.208 175.042 189.208 174.484V173.368C188.369 172.949 187.671 171.973 187.671 170.857C187.671 169.322 188.928 168.067 190.465 168.067C192.002 168.067 193.26 169.322 193.26 170.857C193.26 171.973 192.701 172.949 191.723 173.368V174.484C191.723 175.042 191.304 175.46 190.745 175.6C190.745 175.786 190.745 175.972 190.745 176.158H193.4C194.797 176.158 195.775 175.181 195.915 173.786C194.89 173.6 193.912 173.368 192.98 173.089C193.539 172.531 193.819 171.694 193.819 170.857Z" fill="#D6C8D3"/>
<path d="M190.323 170.298H190.742C191.301 170.298 191.72 170.717 191.72 171.414V173.367C192.698 172.949 193.257 171.972 193.257 170.856C193.257 169.322 192 168.066 190.463 168.066C188.926 168.066 187.668 169.322 187.668 170.856C187.668 171.972 188.367 172.949 189.205 173.367V171.414C189.205 170.717 189.764 170.298 190.323 170.298Z" fill="#4B3C4F"/>
<path d="M190.744 175.6C191.303 175.46 191.722 175.042 191.722 174.484V173.368V171.415C191.722 170.717 191.303 170.299 190.744 170.299H190.325C189.766 170.299 189.207 170.717 189.207 171.415V173.368V174.484C189.207 175.042 189.626 175.46 190.185 175.6C190.185 175.6 190.232 175.6 190.325 175.6H190.744Z" fill="#604C66"/>
<path d="M162.098 39.0293C162.098 40.1453 162.238 41.4008 162.378 42.5168C162.657 45.8648 162.937 49.2128 161.819 52.0028C161.12 53.6768 160.282 55.0718 159.443 56.6063C157.906 59.5358 156.369 62.1863 156.09 65.6738H156.509C156.789 62.3258 158.326 59.6753 159.863 56.8853C160.701 55.3508 161.539 53.8163 162.238 52.2818C163.496 49.3523 163.076 45.8648 162.797 42.5168C162.657 41.4008 162.657 40.1453 162.518 39.0293C162.518 39.1223 162.471 39.1688 162.378 39.1688C162.285 39.1688 162.192 39.1223 162.098 39.0293Z" fill="#EFB3AB"/>
<path d="M91.8124 113.522C97.1222 113.103 102.153 113.661 107.043 115.754C115.148 119.381 124.37 127.751 133.872 123.008C137.645 121.194 139.88 117.149 140.3 112.964C140.859 107.802 138.623 103.199 135.968 98.8745C133.034 94.271 130.239 89.807 130.239 84.227C130.239 81.2975 130.798 78.368 132.055 75.7175C133.313 73.2065 134.85 70.9745 136.247 68.603C138.623 63.9995 139.741 58.6985 139.601 53.537C139.461 50.8865 138.902 48.236 138.064 45.8645C137.365 43.493 135.828 41.54 135.409 39.1685C135.409 39.2615 135.316 39.308 135.129 39.308C135.129 39.308 135.083 39.308 134.99 39.308C135.269 40.8425 135.968 42.098 136.667 43.6325C137.645 46.004 138.483 48.3755 138.763 50.8865C139.461 55.769 138.902 60.791 137.086 65.3945C135.269 70.1375 131.636 74.0435 130.379 79.0655C129.261 83.5295 129.68 88.2725 131.636 92.4575C133.732 96.9215 137.226 100.827 138.902 105.431C140.579 110.592 140.3 116.591 136.247 120.636C132.475 124.542 126.606 124.403 121.855 122.729C116.825 121.055 112.493 117.707 107.742 115.614C103.131 113.382 98.2401 112.545 93.2097 112.824C88.4588 113.103 83.7079 114.08 78.957 114.638L79.0967 115.196C83.2887 114.638 87.6204 113.801 91.8124 113.522Z" fill="#F99780"/>
<path d="M40.253 194.711C40.1599 194.711 40.1133 194.711 40.1133 194.711V195.966C42.2093 196.385 44.0258 197.78 45.1437 199.593L45.8423 194.711C45.7492 194.711 45.7026 194.711 45.7026 194.711H40.253Z" fill="#593D4E"/>
<path d="M12.1662 193.456C12.073 193.456 11.9799 193.456 11.8867 193.456L12.0264 194.432C14.4019 195.269 16.2184 197.083 17.3363 199.315L17.8952 193.456C17.802 193.456 17.7089 193.456 17.6157 193.456H12.1662Z" fill="#593D4E"/>
<path d="M117.663 199.594C120.178 199.454 122.134 199.036 122.553 197.92C122.553 197.92 122.134 194.99 118.501 194.293C118.501 194.293 118.454 194.246 118.361 194.153C117.802 195.13 117.104 196.943 117.663 199.594Z" fill="#EDE2EC"/>
<path d="M110.816 199.314C107.044 198.896 103.69 198.198 103.55 197.64C103.364 197.268 103.271 196.896 103.271 196.524C102.712 197.222 102.153 198.338 102.712 199.314C103.55 200.988 113.611 202.244 118.083 201.407C122.414 200.709 123.532 200.291 122.554 197.919C122.135 199.035 120.179 199.454 117.663 199.593C117.104 196.943 117.803 195.129 118.362 194.153C118.641 193.734 118.921 193.595 118.921 193.595C118.921 193.595 116.685 192.758 113.332 191.502C112.959 191.688 112.68 191.874 112.493 192.06C110.118 194.432 110.677 198.338 110.816 199.314Z" fill="#4B3C4F"/>
<path d="M12.7249 110.314C13.0975 109.477 13.4236 108.64 13.703 107.803C12.8646 106.966 12.4455 106.408 12.4455 106.408C12.4455 106.408 18.7334 87.1567 23.6241 84.9247C21.5281 83.5297 18.1745 81.0187 17.3361 79.9027C17.0566 79.3447 16.4977 78.5078 15.9388 77.5312H10.6289C10.6289 77.5312 11.8865 95.6663 12.7249 110.314Z" fill="#525289"/>
<path d="M25.2998 112.406C25.1135 112.406 24.9738 112.406 24.8806 112.406C23.2038 117.568 20.6886 123.148 17.1953 124.264H30.1904C28.6534 119.8 27.1163 115.475 25.719 111.29C25.6259 111.662 25.4861 112.034 25.2998 112.406Z" fill="#525289"/>
<path d="M41.2297 80.7397C41.6023 80.7397 41.975 80.6932 42.3476 80.6002C45.1422 80.3212 46.5396 80.1818 47.378 80.3213C47.7971 80.3213 49.0548 79.9028 51.011 80.3213C49.4739 78.6473 47.3779 77.5312 45.1422 77.5312H39.2734C39.5529 78.2288 39.9721 78.9263 40.3913 79.6238C40.6708 79.9958 40.9503 80.3677 41.2297 80.7397Z" fill="#525289"/>
<path d="M31.1703 83.2506C31.2635 83.1576 31.4032 83.1111 31.5895 83.1111C31.1237 82.4601 30.6579 81.8556 30.1922 81.2976C29.5401 80.4606 28.9346 79.7631 28.3757 79.2051C28.003 79.2981 27.6304 79.3911 27.2578 79.4841C29.0743 81.7161 29.4935 82.8321 29.6332 83.3901C30.099 83.2971 30.6114 83.2506 31.1703 83.2506Z" fill="#525289"/>
<path d="M9.92969 190.526V191.224C9.92969 192.34 10.7681 193.316 11.886 193.456C11.9791 193.456 12.0723 193.456 12.1654 193.456H17.615C17.7081 193.456 17.8013 193.456 17.8945 193.456C19.0123 193.316 19.8507 192.34 19.8507 191.224V190.945L11.1873 190.666C10.7215 190.666 10.3023 190.619 9.92969 190.526Z" fill="#684A5B"/>
<path d="M44.3036 191.363L38.0156 191.503V192.479C38.0156 193.595 38.854 194.572 40.1116 194.711C40.1116 194.711 40.1582 194.711 40.2514 194.711H45.7009C45.7009 194.711 45.7475 194.711 45.8407 194.711C46.9585 194.572 47.7969 193.595 47.7969 192.479V191.363C46.5859 191.363 45.4215 191.363 44.3036 191.363Z" fill="#684A5B"/>
<path d="M102.992 186.62V186.899C105.228 188.294 107.883 188.852 110.538 188.713L110.398 185.923C107.044 186.899 104.529 186.899 102.992 186.62Z" fill="#EFE4EE"/>
<path fill-rule="evenodd" clip-rule="evenodd" d="M110.538 188.712L110.677 190.526C111.236 191.084 111.795 191.642 112.494 192.06C110.119 194.432 110.677 198.338 110.817 199.314C107.044 198.896 103.691 198.198 103.551 197.64C103.365 197.268 103.272 196.896 103.272 196.524C102.992 195.408 103.132 194.153 103.272 192.897C103.458 192.06 103.644 191.363 103.831 190.805L102.992 186.899C105.228 188.294 107.883 188.852 110.538 188.712ZM106.066 191.642C105.973 191.456 105.88 191.316 105.787 191.223C105.694 190.944 105.647 190.665 105.647 190.386C105.554 190.2 105.554 189.968 105.647 189.689C105.647 189.41 105.694 189.084 105.787 188.712C105.414 188.898 105.135 189.131 104.948 189.41C104.809 189.689 104.669 190.107 104.669 190.526C104.809 190.944 104.948 191.363 105.228 191.642C105.414 191.735 105.554 191.828 105.647 191.921C105.833 192.014 106.02 192.06 106.206 192.06C106.113 191.874 106.066 191.735 106.066 191.642Z" fill="#EDE2EC"/>
<path d="M89.5778 123.985L60.793 123.845C60.8861 124.403 60.9793 124.961 61.0724 125.519C66.1028 125.519 75.1854 125.659 83.7091 125.938C86.7832 126.077 89.7176 126.217 92.3725 126.356L92.7917 124.124C92.7917 124.031 92.7917 123.985 92.7917 123.985H89.5778Z" fill="#6868A0"/>
<path d="M92.7903 124.124L92.3711 126.356C95.7247 126.635 98.5194 126.914 100.476 127.193L100.615 126.496C99.3578 126.356 97.9604 126.217 97.2617 126.077C96.4233 125.938 94.4671 124.961 92.7903 124.124Z" fill="#525289"/>
<path d="M82.1715 188.294C80.7741 188.015 80.3549 187.597 80.3549 187.597C80.3549 187.597 80.0755 186.62 79.6563 185.086C79.5631 185.086 79.47 185.039 79.3768 184.946C79.47 185.039 79.5165 185.086 79.5165 185.086C78.5384 181.459 76.7219 174.763 75.1848 167.927C73.6478 161.65 72.3902 155.372 72.3902 152.024C72.3902 150.629 72.3902 149.281 72.3902 147.979C63.7268 148.118 54.5044 148.258 53.2468 148.258V148.118L54.7839 140.725L57.0196 129.565L57.4388 127.891V127.751C57.4388 127.565 57.4388 127.379 57.4388 127.193H48.6356L46.2602 140.585L37.457 191.503H38.016L44.3039 191.363C45.4218 191.363 46.5862 191.363 47.7972 191.363C58.4169 191.224 74.3464 191.084 82.7304 190.945L82.4509 189.689L82.1715 188.294Z" fill="#525289"/>
<path d="M93.0707 148.955C92.9775 146.537 93.0707 144.305 93.3501 142.259H92.372L89.8568 142.538L88.8787 147.839C88.8787 147.839 88.4595 147.839 87.6211 147.839C89.0184 156.628 89.9966 167.369 90.5555 175.46C90.5555 176.018 90.6021 176.53 90.6952 176.995C91.6734 170.578 92.7912 162.905 93.9091 155.791C93.3501 153.14 93.0707 150.769 93.0707 148.955Z" fill="#525289"/>
<path d="M72.669 146.026C64.8439 147.281 56.0407 147.979 53.2461 148.118V148.258C54.5037 148.258 63.7261 148.118 72.3895 147.979C72.4826 147.328 72.5758 146.677 72.669 146.026Z" fill="#6868A0"/>
<path d="M86.7812 142.678C87.0607 144.352 87.3402 146.072 87.6197 147.839C88.458 147.839 88.8772 147.839 88.8772 147.839L89.8554 142.538L86.7812 142.678Z" fill="#6868A0"/>
<path d="M89.5761 123.985H92.79C91.1132 123.148 89.5761 122.171 89.5761 122.171C89.5761 122.171 65.6818 123.008 60.7912 122.45C60.698 122.45 60.6049 122.45 60.5117 122.45C60.6049 122.915 60.698 123.38 60.7912 123.845L89.5761 123.985Z" fill="#513647"/>
<path d="M56.3203 106.408C56.7395 108.361 57.4382 110.593 57.8574 112.964C57.9505 113.15 57.9971 113.336 57.9971 113.522C59.3944 110.732 61.4904 108.361 64.1453 106.966L63.5864 103.757C62.3288 104.455 59.5342 105.85 56.3203 106.408Z" fill="#C17D76"/>
<path d="M79.0992 115.336L78.1211 115.475C78.1211 115.475 78.1211 115.522 78.1211 115.615L79.6582 115.475C79.9376 115.475 80.1705 115.429 80.3568 115.336C79.9842 115.336 79.565 115.289 79.0992 115.196V115.336Z" fill="#EA4B71"/>
<path fill-rule="evenodd" clip-rule="evenodd" d="M79.7943 116.033C80.5396 115.847 81.2382 115.708 81.8903 115.615C84.9644 116.173 87.6194 116.731 89.4359 117.289C90.2743 116.591 92.2306 114.917 94.7457 116.033C96.9815 117.149 99.4966 116.312 99.4966 116.312C99.4966 116.312 100.195 117.428 97.8199 118.265C97.3541 118.451 96.8883 118.684 96.4226 118.963C96.6089 118.963 96.7486 119.009 96.8417 119.102C96.7486 119.102 96.6089 119.056 96.4226 118.963C95.3047 119.381 94.0471 120.079 93.0689 120.358C93.7676 122.45 95.8636 123.148 97.5404 123.845C99.4966 124.822 97.9596 119.381 97.9596 119.381C99.0774 119.381 101.593 118.823 103.13 118.684C104.806 118.684 104.946 119.381 104.946 119.381C104.946 119.381 101.872 120.497 99.7761 121.195C100.056 121.288 100.288 121.334 100.475 121.334C101.453 121.753 104.248 121.753 105.924 122.032C107.601 122.311 107.601 123.008 107.601 123.008C107.601 123.008 105.924 123.287 104.248 123.427C104.62 123.52 104.946 123.566 105.226 123.566C106.902 123.985 106.902 124.682 106.902 124.682C106.902 124.682 103.13 124.961 101.034 124.961C101.593 125.147 102.058 125.333 102.431 125.519C104.108 126.077 103.968 126.775 103.968 126.775C103.968 126.775 102.291 126.635 100.615 126.496C99.3569 126.356 97.9596 126.217 97.2609 126.077C96.4225 125.938 94.4663 124.961 92.7895 124.124C92.7895 124.031 92.7895 123.985 92.7895 123.985C91.1127 123.148 89.5756 122.171 89.5756 122.171C89.5756 122.171 65.6814 123.008 60.7907 122.45C60.6976 122.45 60.6044 122.45 60.5113 122.45C59.9523 119.66 58.9742 116.452 57.9961 113.522C59.3934 110.732 61.4894 108.361 64.1443 106.966L65.5416 113.662C67.3582 113.801 70.1528 114.08 73.2269 114.499C73.0872 114.499 73.5064 117.986 73.7859 118.544C74.0653 118.963 77.9778 119.102 78.2573 118.405C78.3505 118.219 78.397 117.986 78.397 117.707C78.397 117.149 78.397 116.731 78.2573 116.312L79.7943 116.173V116.033ZM65.5416 113.522C64.9827 113.522 64.284 113.801 63.8648 114.22C63.3059 114.638 62.8867 115.196 62.6073 115.754L62.4675 116.312C62.4675 116.405 62.4675 116.545 62.4675 116.731C62.3278 117.01 62.3278 117.428 62.3278 117.707C62.3278 117.986 62.3744 118.312 62.4675 118.684C62.4675 118.963 62.5607 119.242 62.747 119.521C62.8401 119.242 62.8867 118.963 62.8867 118.684C62.9799 118.312 63.073 117.986 63.1662 117.707C63.1662 117.568 63.1662 117.289 63.3059 117.01C63.3991 116.824 63.4457 116.684 63.4457 116.591L63.5854 116.173C63.7717 115.708 64.0511 115.243 64.4238 114.778C64.7032 114.313 65.0759 113.894 65.5416 113.522Z" fill="#EA4B71"/>
<path d="M83.707 125.938C84.6852 132.215 87.899 137.934 92.3704 142.259H93.3486C93.0691 144.305 92.9759 146.537 93.0691 148.955C93.0691 150.768 93.3486 153.14 93.9075 155.79C95.4446 165.137 99.0776 178.529 100.475 183.83C101.5 183.923 102.524 183.97 103.549 183.97C104.481 183.97 105.412 183.923 106.344 183.83C107.368 183.737 108.347 183.597 109.278 183.411C110.116 183.272 111.095 182.993 111.933 182.714C111.374 171.972 108.719 133.75 103.968 128.449C103.875 128.356 103.829 128.309 103.829 128.309C103.735 128.216 103.689 128.169 103.689 128.169C103.596 128.076 103.456 127.984 103.27 127.891C102.711 127.612 101.733 127.333 100.475 127.193C98.5187 126.914 95.724 126.635 92.3704 126.356C89.7155 126.217 86.7811 126.077 83.707 125.938Z" fill="#B6CBFF"/>
<path d="M61.0718 125.519C60.0936 126.496 58.836 127.333 57.4387 127.891L57.0195 129.565C68.1981 129.844 80.3549 130.402 82.5906 131.657C82.6837 131.75 82.7769 131.797 82.8701 131.797C84.4071 132.773 85.6647 136.958 86.7826 142.678L89.8567 142.538L92.3719 142.259C87.9004 137.935 84.6866 132.215 83.7085 125.938C75.1848 125.659 66.1021 125.519 61.0718 125.519Z" fill="#91A3D8"/>
<path d="M110.817 183.412C110.398 183.691 109.978 183.97 109.419 184.109C108.488 184.481 107.51 184.714 106.485 184.807C105.46 184.9 104.436 184.853 103.411 184.667C102.433 184.528 101.455 184.249 100.477 183.83C100.896 185.225 101.175 186.062 101.175 186.062C101.175 186.062 101.734 186.341 102.992 186.62C104.529 186.899 107.044 186.899 110.398 185.923C110.957 185.83 111.562 185.69 112.214 185.504C112.214 185.504 112.074 184.388 111.935 182.714C111.841 182.807 111.702 182.947 111.515 183.133C111.329 183.226 111.096 183.319 110.817 183.412Z" fill="#B6CBFF"/>
<path d="M53.5273 95.666C54.3657 99.014 55.0644 101.804 55.2042 102.781C55.5768 103.804 55.9494 105.013 56.322 106.408C59.5358 105.85 62.3305 104.455 63.5881 103.757C64.147 103.478 64.4265 103.339 64.4265 103.339C63.9607 101.014 63.4484 98.8745 62.8894 96.9215C59.6756 97.7585 56.4617 97.2005 53.5273 95.666Z" fill="#D6C4D3"/>
<path d="M47.3789 80.3213C47.9378 80.4608 48.357 80.6002 48.6365 80.8792C49.7544 81.9952 51.9901 89.6678 53.5271 95.6663C56.4615 97.2008 59.6754 97.7587 62.8892 96.9217C59.3959 84.3667 54.3655 81.0188 51.012 80.3213C49.0557 79.9028 47.7981 80.3213 47.3789 80.3213Z" fill="#EDDFEA"/>
<path d="M52.1312 119.521C49.8954 121.381 47.5666 122.962 45.1445 124.264H48.7776H57.7205C58.4191 124.264 58.8383 124.682 58.8383 125.24V126.217C58.8383 126.775 58.4191 127.193 57.7205 127.193H57.441C57.441 127.379 57.441 127.565 57.441 127.751V127.891C58.8383 127.333 60.0959 126.496 61.074 125.519C60.9809 124.961 60.8878 124.403 60.7946 123.845C60.7014 123.38 60.6083 122.915 60.5151 122.45C59.9562 119.66 58.9781 116.452 57.9999 113.522C57.9999 113.336 57.9534 113.15 57.8602 112.964C56.3231 115.336 54.3669 117.568 52.1312 119.521Z" fill="#EDDFEA"/>
<path d="M25.7188 111.29C27.1161 115.475 28.6531 119.8 30.1902 124.264H45.1416C47.5636 122.962 49.8925 121.381 52.1282 119.521C54.3639 117.568 56.3202 115.336 57.8572 112.964C57.438 110.593 56.7394 108.361 56.3202 106.408C55.9476 105.013 55.575 103.804 55.2023 102.781C55.0626 101.804 54.3639 99.0143 53.5255 95.6663C51.9885 89.6678 49.7527 81.9953 48.6349 80.8793C48.3554 80.6003 47.9362 80.4608 47.3773 80.3213C46.5389 80.1818 45.1416 80.3213 42.3469 80.6003C43.0456 81.2978 43.6045 82.1348 43.884 83.1113C43.9771 83.5763 44.0237 84.0878 44.0237 84.6458C43.9306 85.1108 43.7908 85.6223 43.6045 86.1803C43.325 86.6453 42.999 87.0173 42.6264 87.2963C42.2538 87.6683 41.8345 87.9938 41.3688 88.2728L41.0893 88.5518L40.8099 88.6913C40.5304 88.7843 40.2975 88.8773 40.1112 88.9703C39.8317 89.0633 39.5988 89.1563 39.4125 89.2493C39.1331 89.3423 38.9002 89.4353 38.7139 89.5283C37.7357 89.6678 36.7576 89.8073 35.6398 89.8073C35.174 89.7143 34.6616 89.6213 34.1027 89.5283C33.6369 89.3423 33.2177 89.0633 32.8451 88.6913C32.0067 87.9938 31.4478 87.0173 31.3081 86.0408C31.0286 85.1108 30.982 84.1808 31.1683 83.2508C30.6094 83.2508 30.097 83.2973 29.6312 83.3903C29.7244 83.5763 29.7244 83.6693 29.6312 83.6693C29.212 87.1568 28.6531 90.6443 27.9545 94.1318C28.3737 99.0143 27.8147 105.013 25.7188 111.29Z" fill="white"/>
<path d="M35.0805 87.2961C34.3818 87.1566 33.8229 86.7381 33.4037 86.1801C32.705 85.2036 32.1461 84.0876 31.5871 83.1111C31.4008 83.1111 31.2611 83.1576 31.168 83.2506C31.168 84.1806 31.3543 85.0641 31.7269 85.9011C32.1461 86.7381 32.5653 87.5751 33.264 87.9936C33.9626 88.5516 34.801 88.8306 35.7791 88.8306C36.6175 88.8306 37.5025 88.6911 38.4341 88.4121C38.6204 88.4121 38.8067 88.3656 38.993 88.2726C39.2725 88.1796 39.5054 88.0866 39.6917 87.9936C39.878 87.9006 40.0643 87.8076 40.2506 87.7146L40.6698 87.5751L40.9492 87.4356C41.6479 87.0171 42.3466 86.4591 42.9055 85.7616C43.3247 84.9246 43.4645 84.0876 43.3247 83.2506C43.185 82.2741 42.9055 81.4371 42.3466 80.6001C41.974 80.6931 41.6014 80.7396 41.2287 80.7396C41.3219 80.7396 41.3684 80.7396 41.3684 80.7396C43.4644 83.5296 40.1108 88.4121 35.0805 87.2961Z" fill="white"/>
<path d="M34.3835 78.7868C32.7067 79.4843 31.0299 79.4843 29.3531 78.9263C29.26 78.9263 29.1202 78.8798 28.9339 78.7868C28.7476 78.9728 28.5613 79.1123 28.375 79.2053C28.9339 79.7633 29.5394 80.4608 30.1915 81.2978C33.5451 82.2743 37.4576 81.5768 40.392 79.6238C39.9728 78.9263 39.5536 78.2288 39.2741 77.5313C39.0878 77.2523 38.9015 76.9733 38.7152 76.6943C37.0384 77.9498 35.7808 78.3683 34.3835 78.7868Z" fill="#B06B5E"/>
<path d="M82.8714 131.796C82.7783 131.796 82.6851 131.75 82.5919 131.657C80.3562 130.401 68.1995 129.843 57.0209 129.564L54.7852 140.724C57.1606 142.677 62.3307 145.049 72.6709 146.025C72.5778 146.676 72.4846 147.327 72.3915 147.978C72.3915 149.28 72.3915 150.629 72.3915 152.024C72.3915 155.372 73.6491 161.649 75.1861 167.927C77.2821 170.577 80.0767 172.67 83.2906 173.786C85.7126 174.53 88.1347 175.088 90.5567 175.46C89.9978 167.369 89.0196 156.627 87.6223 147.839C87.3428 146.072 87.0634 144.351 86.7839 142.677C85.666 136.958 84.4085 132.773 82.8714 131.796Z" fill="#B6CBFF"/>
<path d="M33.4053 86.18C33.8245 86.738 34.3834 87.1565 35.082 87.296C40.1124 88.412 43.466 83.5295 41.37 80.7395C41.37 80.7395 41.3235 80.7395 41.2303 80.7395C40.9508 80.3675 40.6714 79.9955 40.3919 79.6235C37.4575 81.5765 33.545 82.274 30.1914 81.2975C30.6572 81.8555 31.123 82.46 31.5887 83.111C32.1477 84.0875 32.7066 85.2035 33.4053 86.18Z" fill="#CE8B81"/>
<path d="M17.4737 68.8823C18.5915 70.5563 19.9889 73.4858 20.6875 74.3228C20.8738 74.4158 21.0601 74.5553 21.2464 74.7413C21.1533 74.0903 21.1067 73.3928 21.1067 72.6488C20.8272 70.5563 20.6875 68.6033 20.6875 68.6033C20.6875 68.6033 21.5259 68.4638 22.2246 70.2773C22.9232 71.9513 23.3424 74.8808 24.0411 75.9968C24.4137 75.9038 24.7864 75.8573 25.159 75.8573C25.2521 75.3923 25.2521 74.9273 25.159 74.4623C24.6 71.8118 22.7835 69.5798 23.6219 66.9293C24.3206 64.5578 26.8357 64.2788 28.2331 62.4653C28.792 61.6283 29.2112 60.9308 29.6304 60.0938C27.3947 58.8383 25.2987 58.4198 23.3424 59.1173C19.0107 60.7913 16.4955 64.1393 15.7969 67.6268C16.0763 67.6268 16.775 67.7663 17.4737 68.8823Z" fill="#BF7E77"/>
<path d="M16.0789 70.4164C16.3584 70.6954 16.5913 71.0209 16.7776 71.3929C16.6844 70.9279 16.5447 70.4629 16.3584 69.9979L15.7995 68.1844C15.7063 68.0914 15.6597 68.0449 15.6597 68.0449C15.5666 68.6029 15.5666 69.1609 15.6597 69.7189C15.7529 69.9049 15.8926 70.1374 16.0789 70.4164Z" fill="#BF7E77"/>
<path fill-rule="evenodd" clip-rule="evenodd" d="M28.2349 62.4652C28.7939 61.6282 29.2131 60.9308 29.6323 60.0938C31.0296 60.9308 32.4269 62.0467 33.8242 63.4417C33.6379 63.4417 33.4982 63.4883 33.4051 63.5812C33.2187 63.6742 33.079 63.8137 32.9858 63.9997C32.8927 64.1857 32.7995 64.4182 32.7064 64.6972C32.9859 64.6972 33.2187 64.6507 33.4051 64.5577C33.5914 64.5577 33.7311 64.5112 33.8242 64.4182C34.0105 64.3252 34.1503 64.1857 34.2435 63.9997C34.3366 63.9997 34.3832 63.9532 34.3832 63.8602C34.7558 64.2322 35.0818 64.6042 35.3613 64.9762C34.8024 65.2552 34.2435 65.6737 34.1037 66.3713C33.6379 66.0922 33.1722 65.8132 32.7064 65.5342C33.1722 66.0922 33.6845 66.6037 34.2435 67.0687C34.8024 67.5338 35.4079 67.9987 36.06 68.4637C36.3394 68.7428 36.6189 68.9753 36.8984 69.1613C36.8984 69.2542 36.945 69.3007 37.0381 69.3007C37.1313 69.3937 37.1778 69.4402 37.1778 69.4402L37.3175 69.5797C37.3175 69.5797 37.271 69.6262 37.1778 69.7192C37.0381 69.9982 36.7586 70.2773 36.4791 70.5562C36.2928 70.8352 36.0599 71.1142 35.7805 71.3932C36.0599 71.2072 36.386 70.9747 36.7586 70.6957C37.0381 70.5562 37.3176 70.2772 37.597 69.9982C37.597 69.9052 37.6436 69.8122 37.7368 69.7192C37.7368 69.6262 37.7368 69.5332 37.7368 69.4402C37.7368 69.3472 37.6902 69.3007 37.597 69.3007V69.1613C37.5039 69.0682 37.4107 69.0217 37.3175 69.0217C37.3175 68.9287 37.271 68.8357 37.1778 68.7427C36.8983 68.5567 36.6189 68.3242 36.3394 68.0452C35.9668 67.7662 35.5942 67.4872 35.2216 67.2082C35.501 67.2082 35.6408 66.7898 35.3613 66.3713C35.2681 66.0922 35.175 65.9062 35.0818 65.8132C35.2681 65.5342 35.4545 65.3017 35.6408 65.1157C38.156 67.9057 40.5314 71.1142 42.0684 73.4857C40.8109 75.0202 39.693 75.9967 38.7149 76.6942C37.0381 77.9497 35.7805 78.3682 34.3832 78.7867C32.7064 79.4842 31.0296 79.4842 29.3528 78.9263C29.2597 78.9263 29.1199 78.8797 28.9336 78.7867C28.7473 78.9727 28.561 79.1122 28.3747 79.2052C28.0021 79.2982 27.6295 79.3912 27.2568 79.4842C26.7911 78.8332 26.1389 78.0892 25.3005 77.2522C25.58 77.2522 25.8595 77.2522 26.1389 77.2522C26.4184 77.1592 26.7445 77.1127 27.1171 77.1127C26.8376 76.9267 26.5116 76.7872 26.1389 76.6942C25.8595 76.6942 25.5335 76.6942 25.1608 76.6942C25.0677 76.7872 24.9745 76.8337 24.8814 76.8337C24.6951 76.6477 24.4622 76.4152 24.1827 76.1362C24.1827 76.1362 24.1361 76.0897 24.043 75.9967C24.4156 75.9037 24.7882 75.8572 25.1608 75.8572C25.254 75.3922 25.254 74.9272 25.1608 74.4622C24.6019 71.8117 22.7854 69.5797 23.6238 66.9292C24.3224 64.5577 26.8376 64.2787 28.2349 62.4652ZM35.9202 74.3227C35.9202 74.3227 36.6189 72.6487 38.8546 71.5327C38.0162 71.3932 37.7367 71.1142 37.1778 72.0907C36.1997 72.2302 35.9202 73.2067 35.9202 74.3227ZM37.4573 73.0672C37.3641 73.1602 37.3175 73.2533 37.3175 73.3462C37.2244 73.5322 37.2244 73.6717 37.3175 73.7647C37.4573 73.6252 37.7367 73.4858 37.8765 73.3462L38.0162 73.2067C38.1094 73.1137 38.2025 73.0207 38.2957 72.9277C38.0162 72.7882 37.7368 72.7882 37.4573 73.0672ZM32.0077 69.0217C30.7501 69.1612 29.4926 70.2772 30.0515 71.9513C30.0515 71.6722 30.098 71.3932 30.1912 71.1142C30.2843 71.2072 30.3309 71.2537 30.3309 71.2537C30.4707 71.6722 30.8899 71.9512 31.1693 71.8117C31.4488 71.6722 31.4488 71.2537 31.3091 70.6957C31.2159 70.5097 31.0762 70.3702 30.8898 70.2772C31.4488 69.5797 32.0077 69.0217 32.0077 69.0217ZM29.0733 67.6267C28.6076 67.9057 28.1884 68.2312 27.8158 68.6032C27.3966 69.0217 26.9773 69.4402 26.8376 69.9982C26.6513 70.3702 26.6047 70.6957 26.6979 70.9747C26.791 71.2537 26.8842 71.5327 26.9773 71.8117C27.1171 71.2537 27.1171 70.6957 27.3965 70.4167C27.676 70.0447 28.0021 69.6727 28.3747 69.3007C28.7473 68.9287 29.1199 68.5567 29.4925 68.1847C29.8651 67.8127 30.2378 67.3942 30.6104 66.9292C30.0515 67.0687 29.4925 67.3477 29.0733 67.6267Z" fill="#CE8B81"/>
<path d="M26.8387 69.9982C26.6524 70.3702 26.6058 70.6957 26.6989 70.9747C26.7921 71.2537 26.8852 71.5327 26.9784 71.8117C27.1181 71.2537 27.1181 70.6957 27.3976 70.4167C27.677 70.0447 28.0031 69.6727 28.3757 69.3007C28.7483 68.9287 29.121 68.5567 29.4936 68.1847C29.8662 67.8127 30.2388 67.3942 30.6115 66.9292C30.0525 67.0687 29.4936 67.3477 29.0744 67.6267C28.6086 67.9057 28.1894 68.2312 27.8168 68.6032C27.3976 69.0217 26.9784 69.4402 26.8387 69.9982Z" fill="#4B3C4F"/>
<path d="M32.9865 63.9996C32.8933 64.1856 32.8002 64.4181 32.707 64.6971C32.9865 64.6971 33.2194 64.6506 33.4057 64.5576C33.592 64.5576 33.7317 64.5111 33.8249 64.4181C34.0112 64.3251 34.1509 64.1856 34.2441 63.9996C34.3373 63.9996 34.3838 63.9531 34.3838 63.8601C34.477 63.7671 34.5701 63.6741 34.6633 63.5811C34.3838 63.4416 34.2441 63.3021 33.9646 63.4416C33.9646 63.4416 33.918 63.4416 33.8249 63.4416C33.6386 63.4416 33.4988 63.4881 33.4057 63.5811C33.2194 63.6741 33.0796 63.8136 32.9865 63.9996Z" fill="#4B3C4F"/>
<path d="M27.1185 77.1128C26.8391 76.9268 26.513 76.7873 26.1404 76.6943C25.8609 76.6943 25.5349 76.6943 25.1623 76.6943C25.0691 76.7873 24.976 76.8338 24.8828 76.8338C25.0691 77.0198 25.2088 77.1593 25.302 77.2523C25.5815 77.2523 25.8609 77.2523 26.1404 77.2523C26.4199 77.1593 26.7459 77.1128 27.1185 77.1128Z" fill="#F2BBAA"/>
<path d="M46.2603 140.585C40.2052 140.771 34.1967 139.981 28.2348 138.214C24.462 137.098 21.2482 135.424 18.0343 132.913C14.4013 130.309 11.1874 127.333 8.39278 123.985H8.53248C6.57622 121.753 4.80629 119.381 3.22266 116.87L3.78158 123.845H3.64184L7.83381 187.597C7.97355 188.992 8.81194 190.108 9.9298 190.526C10.3024 190.619 10.7217 190.666 11.1874 190.666L19.8508 190.945L37.4571 191.503L46.2603 140.585Z" fill="#7373BC"/>
<path d="M8.39299 123.985C11.1876 127.333 14.4015 130.309 18.0345 132.913C21.2484 135.424 24.4622 137.098 28.235 138.214C34.1969 139.981 40.2054 140.771 46.2605 140.585L48.636 127.193H48.4962H13.8426C13.2836 127.193 12.7247 126.775 12.7247 126.217V125.24C12.7247 124.682 13.1439 124.403 13.5631 124.264C11.0479 123.427 9.23136 120.358 10.0698 117.707C10.7684 115.475 11.7465 112.964 12.7247 110.314C11.8863 95.6661 10.6287 77.5311 10.6287 77.5311L4.75994 77.3916C2.52422 77.3916 0.707668 79.3446 0.847401 81.5766L3.22287 116.87C4.80651 119.381 6.57644 121.753 8.53269 123.985H8.39299Z" fill="#6868A0"/>
<path d="M72.669 146.026C62.3287 145.049 57.1586 142.678 54.7832 140.725L53.2461 148.118C56.0407 147.979 64.8439 147.281 72.669 146.026Z" fill="#91A3D8"/>
<path d="M106.345 183.83C105.414 183.923 104.482 183.97 103.551 183.97C102.526 183.97 101.501 183.923 100.477 183.83C101.455 184.249 102.433 184.528 103.411 184.667C104.436 184.853 105.46 184.9 106.485 184.807C107.51 184.714 108.488 184.481 109.419 184.109C109.978 183.97 110.398 183.691 110.817 183.412C111.096 183.319 111.329 183.226 111.515 183.133C111.702 182.947 111.841 182.807 111.935 182.714C111.096 182.993 110.118 183.272 109.28 183.412C108.348 183.598 107.37 183.737 106.345 183.83Z" fill="#91A3D8"/>
<path d="M97.2641 203.5C99.7793 203.36 101.736 202.802 102.155 201.826C102.155 201.826 101.736 198.896 98.1025 198.059C98.1025 198.059 98.0559 198.059 97.9627 198.059C97.4038 199.036 96.7051 200.849 97.2641 203.5Z" fill="#EDE2EC"/>
<path d="M42.9079 85.7616C42.349 86.4591 41.6503 87.0171 40.9517 87.4356L40.6722 87.5751L40.253 87.7146C40.0667 87.8076 39.8804 87.9006 39.6941 87.9936C39.5078 88.0866 39.2749 88.1796 38.9954 88.2726C38.8091 88.3656 38.6228 88.4121 38.4365 88.4121C37.5049 88.6911 36.6199 88.8306 35.7815 88.8306C34.8034 88.8306 33.965 88.5516 33.2664 87.9936C32.5677 87.5751 32.1485 86.7381 31.7293 85.9011C31.3567 85.0641 31.1704 84.1806 31.1704 83.2506C30.9841 84.1806 31.0307 85.1106 31.3101 86.0406C31.4499 87.0171 32.0088 87.9936 32.8472 88.6911C33.2198 89.0631 33.639 89.3421 34.1048 89.5281C34.6637 89.6211 35.1761 89.7141 35.6418 89.8071C36.7597 89.8071 37.7378 89.6676 38.7159 89.5281C38.9022 89.4351 39.1351 89.3421 39.4146 89.2491C39.6009 89.1561 39.8338 89.0631 40.1133 88.9701C40.2996 88.8771 40.5325 88.7841 40.8119 88.6911L41.0914 88.5516L41.3708 88.2726C41.8366 87.9936 42.2558 87.6681 42.6285 87.2961C43.0011 87.0171 43.3271 86.6451 43.6066 86.1801C43.7929 85.6221 43.9326 85.1106 44.0258 84.6456C44.0258 84.0876 43.9792 83.5761 43.886 83.1111C43.6066 82.1346 43.0476 81.2976 42.349 80.6001C42.9079 81.4371 43.1874 82.2741 43.3271 83.2506C43.4669 84.0876 43.3271 84.9246 42.9079 85.7616Z" fill="#EDDFEA"/>
<path d="M82.1719 188.294L82.4514 189.689C84.6871 191.084 87.342 191.782 89.9969 191.642L89.8572 188.015C85.9447 188.573 83.5692 188.573 82.1719 188.294Z" fill="#EFE4EE"/>
<path fill-rule="evenodd" clip-rule="evenodd" d="M89.9987 191.642L90.1384 194.153C90.6973 194.85 91.396 195.548 92.0947 195.966C89.7192 198.338 90.2781 202.104 90.4179 203.22C86.6451 202.802 83.2915 202.104 83.1518 201.546C82.9655 201.174 82.8257 200.756 82.7326 200.291C82.5928 199.175 82.7326 198.059 82.8723 196.664C83.0586 195.827 83.2449 195.129 83.4312 194.571L82.7326 190.944L82.4531 189.689C84.6888 191.084 87.3438 191.781 89.9987 191.642ZM85.108 193.595C85.2012 193.316 85.2943 192.99 85.3875 192.618C85.0149 192.711 84.7354 192.944 84.5491 193.316C84.4094 193.595 84.2696 194.013 84.2696 194.432C84.4094 194.85 84.5491 195.269 84.8286 195.408C85.0149 195.594 85.1546 195.734 85.2478 195.827C85.4341 195.92 85.6204 195.966 85.8067 195.966C85.7135 195.78 85.6204 195.641 85.5272 195.548C85.5272 195.362 85.4806 195.222 85.3875 195.129C85.2943 194.85 85.2012 194.571 85.108 194.292C85.108 194.106 85.108 193.874 85.108 193.595Z" fill="#EDE2EC"/>
<path d="M83.2881 173.786C80.0742 172.67 77.2796 170.578 75.1836 167.927C76.7207 174.763 78.5372 181.459 79.5153 185.086C80.54 185.179 81.4716 185.272 82.31 185.365C83.3347 185.458 84.3128 185.458 85.2444 185.365C86.2691 185.365 87.2472 185.272 88.1787 185.086C89.1568 184.946 90.135 184.667 91.1131 184.528C90.9268 184.621 90.6939 184.76 90.4144 184.946C90.2281 185.039 89.9952 185.132 89.7158 185.225C89.2966 185.504 88.8774 185.644 88.3184 185.783C87.3869 186.062 86.4088 186.248 85.3841 186.341C84.3593 186.434 83.3347 186.341 82.31 186.062C81.3318 185.923 80.3537 185.644 79.6551 185.086C80.0743 186.62 80.3537 187.597 80.3537 187.597C80.3537 187.597 80.7729 188.015 82.1702 188.294C83.5675 188.573 85.943 188.573 89.8555 188.015C90.3213 188.015 90.8336 187.969 91.3926 187.876C91.3926 187.876 91.1131 183.412 90.6939 176.995C90.6008 176.53 90.5542 176.018 90.5542 175.46C88.1321 175.088 85.7101 174.53 83.2881 173.786Z" fill="#91A3D8"/>
<path d="M79.6584 185.086C80.3571 185.644 81.3352 185.923 82.3133 186.062C83.338 186.341 84.3627 186.434 85.3874 186.341C86.4121 186.248 87.3902 186.062 88.3218 185.783C88.8807 185.644 89.2999 185.504 89.7191 185.225C89.9986 185.132 90.2315 185.039 90.4178 184.946C90.6972 184.76 90.9301 184.621 91.1164 184.528C90.1383 184.667 89.1602 184.946 88.182 185.086C87.2505 185.272 86.2724 185.365 85.2477 185.365C84.3161 185.458 83.338 185.458 82.3133 185.365C81.4749 185.272 80.5434 185.179 79.5186 185.086C79.5186 185.086 79.4721 185.039 79.3789 184.946C79.4721 185.039 79.5652 185.086 79.6584 185.086Z" fill="#B6CBFF"/>
<path d="M12.0273 194.432L12.5863 202.244H17.0577L17.3372 199.315C16.2193 197.083 14.4028 195.269 12.0273 194.432Z" fill="#684A5B"/>
<path d="M40.1133 195.967L40.8119 202.105H44.8642L45.1437 199.594C44.0258 197.78 42.2093 196.385 40.1133 195.967Z" fill="#684A5B"/>
<path d="M90.4145 203.221C86.6417 202.802 83.2882 202.105 83.1484 201.547C82.9621 201.175 82.8224 200.756 82.7292 200.291C82.1703 201.128 81.7511 202.244 82.1703 203.221C83.1484 204.895 93.2092 206.15 97.6806 205.313C102.012 204.616 103.13 204.197 102.152 201.826C101.733 202.802 99.7766 203.36 97.2614 203.5C96.7025 200.849 97.4011 199.036 97.9601 198.059C98.2395 197.641 98.3793 197.362 98.3793 197.362C98.3793 197.362 96.2833 196.525 92.79 195.269C92.5105 195.548 92.2776 195.781 92.0913 195.967C89.7159 198.338 90.2748 202.105 90.4145 203.221Z" fill="#4B3C4F"/>
<path d="M85.3874 192.619C85.0148 192.712 84.7353 192.944 84.549 193.316C84.4093 193.595 84.2695 194.014 84.2695 194.432C84.4093 194.851 84.549 195.269 84.8285 195.409C85.0148 195.595 85.1545 195.734 85.2477 195.827C85.434 195.92 85.6203 195.967 85.8066 195.967C85.7134 195.781 85.6203 195.641 85.5271 195.548C85.5271 195.362 85.4805 195.223 85.3874 195.13C85.2942 194.851 85.2011 194.572 85.1079 194.293C85.1079 194.107 85.1079 193.874 85.1079 193.595C85.2011 193.316 85.2942 192.991 85.3874 192.619Z" fill="#DBC8D8"/>
<path d="M105.646 190.387C105.553 190.201 105.553 189.968 105.646 189.689C105.646 189.41 105.693 189.085 105.786 188.713C105.413 188.899 105.134 189.131 104.947 189.41C104.808 189.689 104.668 190.108 104.668 190.526C104.808 190.945 104.947 191.363 105.227 191.642C105.413 191.735 105.553 191.828 105.646 191.921C105.832 192.014 106.019 192.061 106.205 192.061C106.112 191.875 106.065 191.735 106.065 191.642C105.972 191.456 105.879 191.317 105.786 191.224C105.693 190.945 105.646 190.666 105.646 190.387Z" fill="#DBC8D8"/>
<path d="M30.0506 71.951C30.0506 71.672 30.0971 71.393 30.1903 71.114C30.2834 71.207 30.33 71.2535 30.33 71.2535C30.4697 71.672 30.8889 71.951 31.1684 71.8115C31.4479 71.672 31.4479 71.2535 31.3082 70.6955C31.215 70.5095 31.0752 70.37 30.8889 70.277C31.4479 69.5795 32.0068 69.0215 32.0068 69.0215C30.7492 69.161 29.4916 70.277 30.0506 71.951Z" fill="#4B3C4F"/>
<path d="M34.1055 66.3709C34.1986 66.4639 34.2918 66.5569 34.3849 66.6499C34.3849 66.6499 34.4315 66.6499 34.5246 66.6499C34.5246 66.7429 34.5246 66.7894 34.5246 66.7894C34.8041 66.9754 35.037 67.1149 35.2233 67.2079C35.5028 67.2079 35.6425 66.7894 35.3631 66.3709C35.2699 66.0919 35.1767 65.9059 35.0836 65.8129C35.2699 65.5339 35.4562 65.3014 35.6425 65.1154C35.8288 64.9294 35.922 64.8364 35.922 64.8364C35.7357 64.8364 35.5494 64.8829 35.3631 64.9759C34.8041 65.2549 34.2452 65.6734 34.1055 66.3709Z" fill="#4B3C4F"/>
<path fill-rule="evenodd" clip-rule="evenodd" d="M34.5235 66.6502C34.5235 66.6502 34.477 66.6502 34.3838 66.6502C34.2906 66.5572 34.1975 66.4642 34.1044 66.3712C33.6386 66.0922 33.1728 65.8132 32.707 65.5342C33.1728 66.0922 33.6852 66.6037 34.2441 67.0687C34.803 67.5337 35.4085 67.9987 36.0606 68.4637C36.3401 68.7427 36.6195 68.9752 36.899 69.1612C36.899 69.2542 36.9456 69.3007 37.0387 69.3007C37.1319 69.3937 37.1784 69.4402 37.1784 69.4402L37.3182 69.5797C37.3182 69.5797 37.2716 69.6262 37.1784 69.7192C37.0387 69.9982 36.7593 70.2772 36.4798 70.5562C36.2935 70.8352 36.0606 71.1142 35.7811 71.3932C36.0606 71.2072 36.3866 70.9747 36.7593 70.6957C37.0387 70.5562 37.3182 70.2772 37.5977 69.9982C37.5977 69.9052 37.6443 69.8122 37.7374 69.7192C37.7374 69.6262 37.7374 69.5332 37.7374 69.4402C37.7374 69.3472 37.6908 69.3007 37.5977 69.3007V69.1612C37.5045 69.0682 37.4113 69.0217 37.3182 69.0217C37.3182 68.9287 37.2716 68.8357 37.1784 68.7427C36.899 68.5567 36.6196 68.3242 36.3401 68.0452C35.9675 67.7662 35.5948 67.4872 35.2222 67.2082C35.0359 67.1152 34.803 66.9757 34.5235 66.7897C34.5235 66.7897 34.5235 66.7432 34.5235 66.6502Z" fill="#B06B5E"/>
<path d="M38.8563 71.5327C38.0179 71.3932 37.7384 71.1142 37.1795 72.0907C36.2013 72.2302 35.9219 73.2067 35.9219 74.3227C35.9219 74.3227 36.6205 72.6487 38.8563 71.5327Z" fill="#F2BBAA"/>
<path d="M37.4557 73.0671C37.3625 73.1601 37.316 73.2531 37.316 73.3461C37.2228 73.5321 37.2228 73.6716 37.316 73.7646C37.4557 73.6251 37.7351 73.4856 37.8749 73.3461L38.0146 73.2066C38.1078 73.1136 38.201 73.0206 38.2941 72.9276C38.0146 72.7881 37.7352 72.7881 37.4557 73.0671Z" fill="#B06B5E"/>
<path d="M93.0703 120.358C93.769 122.45 95.865 123.148 97.5418 123.845C99.498 124.822 97.961 119.381 97.961 119.381C97.8212 119.381 97.402 119.242 96.8431 119.102C96.75 119.102 96.6102 119.056 96.4239 118.963C95.3061 119.381 94.0484 120.079 93.0703 120.358Z" fill="#C17D76"/>
<path d="M48.7776 124.264H45.1445H30.1931H17.198C16.6391 124.45 16.0336 124.496 15.3815 124.403C14.7294 124.496 14.1239 124.45 13.565 124.264C13.1458 124.403 12.7266 124.682 12.7266 125.24V126.217C12.7266 126.775 13.2855 127.193 13.8444 127.193H48.4981C48.0789 126.217 48.0789 124.961 48.7776 124.264Z" fill="#684A5B"/>
<path d="M58.8372 126.217V125.24C58.8372 124.682 58.418 124.264 57.7194 124.264H48.7765C48.0778 124.961 48.0778 126.217 48.497 127.193H48.6368H57.4399H57.7194C58.418 127.193 58.8372 126.775 58.8372 126.217Z" fill="#513647"/>
<path d="M17.1954 124.264C20.6887 123.148 23.2039 117.568 24.8807 112.406C24.4149 112.406 23.9492 112.36 23.4834 112.267C22.9244 114.22 22.5053 115.894 22.2258 117.01C21.3874 120.776 19.2914 123.427 15.9378 124.264C15.7515 124.264 15.5652 124.31 15.3789 124.403C16.031 124.496 16.6365 124.45 17.1954 124.264Z" fill="#915951"/>
<path d="M23.9034 85.2038C23.8102 85.1108 23.7171 85.0178 23.6239 84.9248C18.7333 87.1568 12.4453 106.408 12.4453 106.408C12.4453 106.408 12.8645 106.966 13.7029 107.803C17.4757 98.5958 22.2266 88.6913 23.9034 85.2038Z" fill="#EDDFEA"/>
<path d="M24.8817 112.406C24.9749 112.406 25.1146 112.406 25.3009 112.406C25.4872 112.034 25.6269 111.662 25.7201 111.29C27.8161 105.013 28.375 99.0143 27.9558 94.1318C26.4188 101.246 24.6022 107.803 23.4844 112.267C23.9502 112.36 24.4159 112.406 24.8817 112.406Z" fill="#EDDFEA"/>
<path d="M14.9604 71.1143L14.2617 69.3008C14.2617 69.5798 14.5412 70.2773 14.9604 71.1143Z" fill="#B06B5E"/>
<path d="M15.5193 70.4168C15.2398 69.3008 14.2617 69.3008 14.2617 69.3008L14.9604 71.1143C14.9604 71.1143 15.659 70.9748 15.5193 70.4168Z" fill="#91554D"/>
<path fill-rule="evenodd" clip-rule="evenodd" d="M17.3364 79.9025C17.057 79.3445 16.498 78.5075 15.9391 77.531C15.3802 76.694 14.8212 75.857 14.402 75.02C14.402 75.02 14.9609 74.741 14.8212 74.3225C14.2623 73.2065 13.4239 73.346 13.4239 73.346L14.402 75.02C13.8431 74.0435 13.4239 73.2065 13.4239 73.2065C13.4239 73.2065 14.1225 72.788 15.5199 74.183C15.7993 74.462 16.1254 74.834 16.498 75.299C16.6843 75.578 16.824 75.9035 16.9172 76.2755C17.0104 76.5545 17.1501 76.8335 17.3364 77.1125C17.4296 77.2055 17.4762 77.2985 17.4762 77.3915L17.6159 77.531C17.709 77.624 17.8022 77.7635 17.8953 77.9495C18.3611 78.4145 18.8735 78.833 19.4324 79.205L18.1748 77.6705L17.8953 77.252L17.7556 77.1125C17.7556 77.1125 17.709 77.066 17.6159 76.973C17.5227 76.694 17.383 76.415 17.1967 76.136C17.0104 75.578 16.7775 74.9735 16.498 74.3225C16.2186 73.7645 15.9391 73.2065 15.6596 72.6485C15.8459 73.1135 16.0322 73.625 16.2185 74.183C15.7993 73.067 15.2404 72.0905 14.961 71.114C14.961 71.114 15.6596 70.9745 15.5199 70.4165C15.2404 69.3005 14.2623 69.3005 14.2623 69.3005C14.1691 69.2075 14.1225 69.161 14.1225 69.161C14.1225 69.161 14.6815 69.0215 15.6596 69.719C15.7528 69.905 15.8925 70.1375 16.0788 70.4165C16.3583 70.6955 16.5912 71.021 16.7775 71.393C16.6843 70.928 16.5446 70.463 16.3583 69.998C16.3583 69.998 17.1967 69.719 17.0569 69.3005C16.7775 68.1845 15.9391 68.1845 15.7994 68.1845C15.7062 68.0915 15.6596 68.045 15.6596 68.045C15.5665 67.766 15.5199 67.6265 15.5199 67.6265C15.5199 67.6265 15.613 67.6265 15.7994 67.6265C16.0788 67.6265 16.7775 67.766 17.4762 68.882C18.594 70.556 19.9913 73.4855 20.69 74.3225C20.8763 74.4155 21.0626 74.555 21.2489 74.741C21.2489 75.02 21.2955 75.299 21.3887 75.578C21.4818 76.043 21.6681 76.508 21.9476 76.973C22.1339 77.438 22.4134 77.81 22.786 78.089C22.5065 77.717 22.2736 77.2985 22.0873 76.8335C21.9942 76.4615 21.8545 76.043 21.6681 75.578C21.575 75.02 21.4818 74.5085 21.3887 74.0435C21.2955 73.5785 21.2023 73.1135 21.1092 72.6485C20.8297 70.556 20.69 68.603 20.69 68.603C20.69 68.603 21.5284 68.4635 22.2271 70.277C22.9257 71.951 23.3449 74.8805 24.0436 75.9965C24.1367 76.0895 24.1833 76.136 24.1833 76.136C24.4628 76.415 24.6957 76.6475 24.882 76.8335C25.0683 77.0195 25.208 77.159 25.3012 77.252C26.1395 78.089 26.7917 78.833 27.2574 79.484C29.074 81.716 29.4931 82.832 29.6329 83.39C29.726 83.576 29.726 83.669 29.6329 83.669C29.2137 87.1565 28.6548 90.644 27.9561 94.1315C26.419 101.246 24.6025 107.802 23.4846 112.266C22.9257 114.219 22.5065 115.893 22.2271 117.009C21.3887 120.776 19.2927 123.426 15.9391 124.263C15.7528 124.263 15.5665 124.31 15.3802 124.403C14.7281 124.496 14.1226 124.449 13.5636 124.263C11.0484 123.426 9.23192 120.357 10.0703 117.707C10.769 115.475 11.7471 112.964 12.7252 110.313C13.0978 109.476 13.4239 108.639 13.7034 107.802C17.4761 98.5955 22.227 88.691 23.9038 85.2035C23.8107 85.1105 23.7175 85.0175 23.6244 84.9245C21.5284 83.5295 18.1748 81.0185 17.3364 79.9025ZM21.8078 70.4165C21.8078 69.161 20.8297 69.0215 20.8297 69.0215L20.9695 70.9745C20.9695 70.9745 21.8078 70.9745 21.8078 70.4165ZM16.9172 71.672C17.2898 72.881 17.7091 74.0435 18.1748 75.1595C18.268 75.5315 18.4077 75.857 18.594 76.136C18.594 76.136 18.6406 76.1825 18.7337 76.2755L18.8735 76.5545C18.9666 76.6475 19.0598 76.7405 19.1529 76.8335C19.6187 77.2985 20.0845 77.717 20.5503 78.089L19.4324 76.694L19.1529 76.2755L19.0132 76.136C18.92 76.043 18.8735 75.95 18.8735 75.857C18.6872 75.671 18.5474 75.392 18.4543 75.02C18.1748 74.462 17.8953 73.904 17.6159 73.346C17.4296 72.788 17.1967 72.23 16.9172 71.672Z" fill="#B06B5E"/>
<path d="M14.8192 74.3229C14.2603 73.2069 13.4219 73.3464 13.4219 73.3464L14.4 75.0204C14.4 75.0204 14.9589 74.7414 14.8192 74.3229Z" fill="#91554D"/>
<path d="M16.3558 69.9981C16.3558 69.9981 17.1942 69.7191 17.0545 69.3006C16.775 68.1846 15.9366 68.1846 15.7969 68.1846L16.3558 69.9981Z" fill="#91554D"/>
<path d="M20.8281 69.0215L20.9679 70.9745C20.9679 70.9745 21.8062 70.9745 21.8062 70.4165C21.8062 69.161 20.8281 69.0215 20.8281 69.0215Z" fill="#91554D"/>
<path d="M18.1756 75.1599C18.2688 75.5319 18.4085 75.8574 18.5948 76.1364C18.5948 76.1364 18.6414 76.1829 18.7345 76.2759L18.8743 76.5549C18.9674 76.6479 19.0605 76.7409 19.1537 76.8339C19.6195 77.2989 20.0852 77.7174 20.551 78.0894L19.4332 76.6944L19.1537 76.2759L19.014 76.1364C18.9208 76.0434 18.8743 75.9504 18.8743 75.8574C18.6879 75.6714 18.5482 75.3924 18.455 75.0204C18.1756 74.4624 17.8961 73.9044 17.6166 73.3464C17.4303 72.7884 17.1974 72.2304 16.918 71.6724C17.2906 72.8814 17.7098 74.0439 18.1756 75.1599Z" fill="#8E5047"/>
<path d="M17.337 77.1124C17.4301 77.2054 17.4767 77.2984 17.4767 77.3914L17.6164 77.5309C17.7096 77.6239 17.8027 77.7634 17.8959 77.9494C18.3617 78.4144 18.874 78.8329 19.433 79.2049L18.1754 77.6704L17.8959 77.2519L17.7561 77.1124C17.7561 77.1124 17.7096 77.0659 17.6164 76.9729C17.5232 76.6939 17.3835 76.4149 17.1972 76.1359C17.0109 75.5779 16.778 74.9734 16.4986 74.3224C16.2191 73.7644 15.9396 73.2064 15.6602 72.6484C15.8465 73.1134 16.0328 73.6249 16.2191 74.1829C16.3122 74.5549 16.4054 74.9269 16.4986 75.2989C16.6849 75.5779 16.8246 75.9034 16.9177 76.2754C17.0109 76.5544 17.1507 76.8334 17.337 77.1124Z" fill="#8E5047"/>
<path d="M21.3889 75.5779C21.482 76.0429 21.6683 76.5079 21.9478 76.9729C22.1341 77.4379 22.4136 77.8099 22.7862 78.0889C22.5067 77.7169 22.2738 77.2984 22.0875 76.8334C21.9944 76.4614 21.8546 76.0429 21.6683 75.5779C21.5752 75.0199 21.482 74.5084 21.3889 74.0434C21.2957 73.5784 21.2025 73.1134 21.1094 72.6484C21.1094 73.3924 21.156 74.0899 21.2491 74.7409C21.2491 75.0199 21.2957 75.2989 21.3889 75.5779Z" fill="#8E5047"/>
<path d="M63.7255 114.219C63.3063 114.638 62.8871 115.196 62.6076 115.893L62.4679 116.312C62.4679 116.498 62.4213 116.637 62.3281 116.73C62.3281 117.149 62.3281 117.428 62.3281 117.707C62.3281 117.986 62.3281 118.311 62.3281 118.683C62.4213 118.962 62.561 119.241 62.7473 119.52C62.7473 119.241 62.7939 118.962 62.8871 118.683C62.9802 118.404 63.0268 118.125 63.0268 117.846C63.1665 117.567 63.1665 117.288 63.3063 117.009C63.3063 116.916 63.3529 116.777 63.446 116.591L63.5858 116.172C63.7721 115.707 64.0049 115.242 64.2844 114.777C64.657 114.405 65.0762 113.987 65.542 113.522C64.8433 113.522 64.2844 113.94 63.7255 114.219Z" fill="#C17D76"/>
<path d="M138.064 189.968C138.25 190.34 138.343 190.712 138.343 191.084C138.343 192.061 137.645 192.758 136.667 192.758C135.689 192.758 134.99 192.061 134.99 191.084C134.99 190.619 135.083 190.247 135.269 189.968L134.99 189.131C134.431 189.55 134.012 190.247 134.012 191.084C134.012 192.479 135.269 193.595 136.667 193.595C138.064 193.595 139.322 192.479 139.322 191.084C139.322 190.387 138.902 189.689 138.483 189.131L138.343 189.55L138.064 189.968Z" fill="#4B3C4F"/>
<path d="M135.691 190.945L135.272 189.968C135.085 190.247 134.992 190.619 134.992 191.084C134.992 192.061 135.691 192.758 136.669 192.758C137.647 192.758 138.346 192.061 138.346 191.084C138.346 190.712 138.253 190.34 138.066 189.968L137.507 191.084C137.228 191.782 136.11 191.782 135.691 190.945Z" fill="#BA9DB6"/>
<path d="M135.69 190.945C136.109 191.782 137.227 191.782 137.506 191.084L138.065 189.968L138.345 189.55C136.948 189.55 135.55 188.713 134.991 187.457C134.572 187.736 134.432 188.155 134.712 188.573L134.991 189.131L135.271 189.968L135.69 190.945Z" fill="#D8C5D7"/>
<path d="M150.221 189.968C150.501 190.34 150.64 190.712 150.64 191.084C150.64 192.061 149.802 192.758 148.824 192.758C147.846 192.758 147.147 192.061 147.147 191.084C147.147 190.619 147.24 190.247 147.426 189.968L147.147 189.131C146.588 189.55 146.309 190.247 146.309 191.084C146.309 192.479 147.426 193.595 148.824 193.595C150.221 193.595 151.479 192.479 151.479 191.084C151.479 190.387 151.199 189.689 150.64 189.131L150.501 189.55L150.221 189.968Z" fill="#4B3C4F"/>
<path d="M147.987 190.945L147.428 189.968C147.242 190.247 147.148 190.619 147.148 191.084C147.148 192.061 147.847 192.758 148.825 192.758C149.803 192.758 150.642 192.061 150.642 191.084C150.642 190.712 150.502 190.34 150.223 189.968L149.803 191.084C149.384 191.782 148.266 191.782 147.987 190.945Z" fill="#BA9DB6"/>
<path d="M147.985 190.945C148.265 191.782 149.383 191.782 149.802 191.084L150.221 189.968L150.5 189.55C149.103 189.55 147.706 188.713 147.147 187.457C146.867 187.736 146.728 188.155 146.867 188.573L147.147 189.131L147.426 189.968L147.985 190.945Z" fill="#D8C5D7"/>
<path d="M162.377 189.968C162.657 190.34 162.797 190.712 162.797 191.084C162.797 192.061 161.958 192.758 160.98 192.758C160.002 192.758 159.303 192.061 159.303 191.084C159.303 190.619 159.443 190.247 159.722 189.968L159.303 189.131C158.744 189.55 158.465 190.247 158.465 191.084C158.465 192.479 159.583 193.595 160.98 193.595C162.517 193.595 163.635 192.479 163.635 191.084C163.635 190.387 163.355 189.689 162.797 189.131L162.657 189.55L162.377 189.968Z" fill="#4B3C4F"/>
<path d="M160.143 190.945L159.724 189.968C159.444 190.247 159.305 190.619 159.305 191.084C159.305 192.061 160.003 192.758 160.981 192.758C161.96 192.758 162.798 192.061 162.798 191.084C162.798 190.712 162.658 190.34 162.379 189.968L161.96 191.084C161.54 191.782 160.423 191.782 160.143 190.945Z" fill="#BA9DB6"/>
<path d="M160.141 190.945C160.421 191.782 161.539 191.782 161.958 191.084L162.377 189.968L162.657 189.55C161.259 189.55 159.862 188.713 159.303 187.457C159.024 187.736 158.884 188.155 159.024 188.573L159.303 189.131L159.722 189.968L160.141 190.945Z" fill="#D8C5D7"/>
<path d="M149.661 1.50365C149.661 1.08515 149.382 0.806152 148.962 0.806152H148.683C148.404 0.806152 147.984 1.08515 147.984 1.50365V10.2922H149.661V1.50365Z" fill="#EFE4EF"/>
<path d="M147.987 181.598C147.708 181.598 147.428 181.877 147.428 182.156V182.993H147.289C146.73 182.993 146.311 183.412 146.311 183.97V184.807H140.162C138.346 184.807 136.809 185.783 136.25 187.178H135.551C135.365 187.178 135.178 187.271 134.992 187.457C135.551 188.713 136.948 189.55 138.346 189.55L138.486 189.131L138.765 188.573C139.044 187.876 138.625 187.178 137.787 187.178H137.507C137.927 186.481 138.905 185.923 140.162 185.923H147.987V187.178H147.708C147.522 187.178 147.335 187.271 147.149 187.457C147.708 188.713 149.105 189.55 150.503 189.55L150.642 189.131L150.922 188.573C151.201 187.876 150.782 187.178 150.083 187.178H149.664V185.923H157.629C158.886 185.923 159.865 186.481 160.284 187.178H160.004C159.725 187.178 159.492 187.271 159.306 187.457C159.865 188.713 161.262 189.55 162.659 189.55L162.799 189.131L163.078 188.573C163.498 187.876 162.939 187.178 162.24 187.178H161.541C160.982 185.783 159.445 184.807 157.629 184.807H151.481V183.97C151.481 183.412 151.061 182.993 150.503 182.993H150.363V182.156C150.363 181.877 150.083 181.598 149.804 181.598H149.664V129.007C149.105 129.379 148.546 129.704 147.987 129.983V181.598Z" fill="#EFE4EF"/>
<path d="M149.521 93.8525H148.264C148.171 93.8525 148.078 93.8525 147.984 93.8525V129.425C148.543 129.146 149.102 128.821 149.661 128.449V93.8525C149.568 93.8525 149.521 93.8525 149.521 93.8525Z" fill="#EFE4EF"/>
<path d="M148.264 63.9999H149.521C149.521 63.9999 149.568 63.9999 149.661 63.9999V11.5479H147.984V63.9999C148.078 63.9999 148.171 63.9999 148.264 63.9999Z" fill="#EFE4EF"/>
<path d="M165.451 4.85161V1.92211C165.451 1.50361 165.032 1.22461 164.753 1.22461C164.334 1.22461 164.054 1.50361 164.054 1.92211V4.85161C164.054 5.40961 163.775 5.82811 163.355 6.24661H165.032C165.219 5.78161 165.358 5.31661 165.451 4.85161Z" fill="#D5C1D6"/>
<path d="M160.702 4.85161V1.92211C160.702 1.50361 160.423 1.22461 160.003 1.22461C159.724 1.22461 159.305 1.50361 159.305 1.92211V4.85161C159.398 5.31661 159.538 5.78161 159.724 6.24661H161.401C160.981 5.82811 160.702 5.40961 160.702 4.85161Z" fill="#D5C1D6"/>
<path d="M163.355 7.64184C163.215 7.22334 162.796 6.94434 162.377 6.94434C161.957 6.94434 161.538 7.22334 161.398 7.64184C161.678 7.82784 162.004 7.92083 162.377 7.92083C162.749 7.92083 163.075 7.82784 163.355 7.64184Z" fill="#D5C1D6"/>
<path d="M161.401 35.5417C161.261 35.5417 161.121 35.8207 161.121 35.9602C161.121 36.4252 161.168 36.8437 161.261 37.2157L161.82 38.7502C161.913 38.8432 162.006 38.9362 162.099 39.0292C162.192 39.1222 162.286 39.1687 162.379 39.1687C162.472 39.1687 162.518 39.1222 162.518 39.0292C162.612 38.9362 162.705 38.8432 162.798 38.7502L163.357 37.2157C163.45 36.8437 163.497 36.4252 163.497 35.9602C163.497 35.8207 163.357 35.5417 163.217 35.5417V34.8442H161.401V35.5417Z" fill="#513647"/>
<path d="M161.678 8.75758C161.399 8.57158 161.259 8.33908 161.259 8.06008C161.259 7.96708 161.306 7.82758 161.399 7.64158C161.539 7.22308 161.958 6.94408 162.377 6.94408C162.796 6.94408 163.215 7.22308 163.355 7.64158C163.448 7.82758 163.495 7.96708 163.495 8.06008C163.495 8.47858 163.215 8.75758 162.936 8.89708C162.517 10.4316 161.119 11.5476 159.443 11.5476H154.133V19.3596V31.7751C154.133 32.8911 154.971 33.8676 156.089 33.8676H158.744V34.0071C158.744 34.4256 159.023 34.8441 159.582 34.8441H161.399H163.215H165.032C165.591 34.8441 165.87 34.4256 165.87 34.0071V33.8676H168.665C169.783 33.8676 170.621 32.8911 170.621 31.7751V26.7531C170.155 26.7531 169.643 26.7531 169.084 26.7531V30.7986C169.084 31.6356 168.386 32.3331 167.687 32.3331H157.067C156.229 32.3331 155.67 31.6356 155.67 30.7986V23.1261V20.8941V15.1746V13.2216C155.67 12.3846 156.229 11.6871 157.067 11.6871H167.687C168.386 11.6871 169.084 12.3846 169.084 13.2216V15.1746V17.4066V26.7531C169.643 26.7531 170.155 26.7531 170.621 26.7531V8.19958C170.621 7.08358 169.783 6.24658 168.665 6.24658H165.032H163.355H161.399H159.722H156.089C154.971 6.24658 154.133 7.08358 154.133 8.19958V10.2921H159.443C160.421 10.2921 161.259 9.59458 161.678 8.75758Z" fill="#EFE4EF"/>
<path d="M169.086 13.2215C169.086 12.3845 168.388 11.687 167.689 11.687H157.069C156.231 11.687 155.672 12.3845 155.672 13.2215V15.1745H169.086V13.2215Z" fill="white"/>
<path d="M169.086 15.1748H155.672V20.8943C159.305 24.3818 164.196 26.4743 169.086 26.7533V17.4068V15.1748Z" fill="#FFC5BB"/>
<path d="M155.672 20.894V23.126V30.7985C155.672 31.6355 156.231 32.333 157.069 32.333H167.689C168.388 32.333 169.086 31.6355 169.086 30.7985V26.753C164.196 26.474 159.305 24.3815 155.672 20.894Z" fill="#EFB3AB"/>
<path d="M147.987 11.5474H149.664H154.135H159.445C161.122 11.5474 162.519 10.4314 162.938 8.89691C163.032 8.61791 163.078 8.29241 163.078 7.92041H161.821C161.821 8.19941 161.774 8.47841 161.681 8.75741C161.262 9.59441 160.423 10.2919 159.445 10.2919H154.135H149.664H147.987H143.516V11.5474H147.987Z" fill="#D5C1D6"/>
<path d="M135.968 6.38623H134.57C134.757 6.47923 134.99 6.52573 135.269 6.52573C135.548 6.52573 135.781 6.47923 135.968 6.38623Z" fill="#EFE4EF"/>
<path d="M141.976 13.3613C141.976 12.6638 141.277 11.9663 140.439 11.9663H129.959C129.121 11.9663 128.422 12.6638 128.422 13.3613V15.4538H141.976V13.3613Z" fill="white"/>
<path d="M141.976 17.5461V15.4536H128.422V21.1731C132.195 24.5211 136.946 26.6136 141.976 26.8926V17.5461Z" fill="#FF947B"/>
<path d="M128.422 21.1733V23.4053V31.0778C128.422 31.9148 129.121 32.6123 129.959 32.6123H140.439C141.277 32.6123 141.976 31.9148 141.976 31.0778V26.8928C136.946 26.6138 132.195 24.5213 128.422 21.1733Z" fill="#F99780"/>
<path d="M137.926 34.9837C138.345 34.9837 138.764 34.7047 138.764 34.1467V34.0072H141.559C142.676 34.0072 143.515 33.0307 143.515 32.0542V26.8927C142.956 26.9857 142.444 26.9857 141.978 26.8927V31.0777C141.978 31.9147 141.279 32.6122 140.441 32.6122H129.961C129.122 32.6122 128.424 31.9147 128.424 31.0777V23.4052V21.1732V15.4537V13.3612C128.424 12.6637 129.122 11.9662 129.961 11.9662H140.441C141.279 11.9662 141.978 12.6637 141.978 13.3612V15.4537V17.5462V26.8927C142.444 26.9857 142.956 26.9857 143.515 26.8927V11.5477V10.2922V8.33923C143.515 7.22323 142.676 6.38623 141.559 6.38623H137.786C137.506 7.08373 136.808 7.50223 136.109 7.78123C136.202 7.87423 136.249 8.01373 136.249 8.19973C136.249 8.47873 136.202 8.71123 136.109 8.89723C135.83 9.17623 135.55 9.31573 135.271 9.31573C135.084 9.31573 134.945 9.26923 134.851 9.17623C134.432 9.03673 134.153 8.75773 134.153 8.19973C134.153 8.01373 134.199 7.82773 134.293 7.64173C133.594 7.50223 133.035 6.94423 132.616 6.38623H128.983C127.865 6.38623 126.887 7.22323 126.887 8.33923V19.4992V32.0542C126.887 33.0307 127.865 34.0072 128.983 34.0072H131.498V34.1467C131.498 34.7047 131.917 34.9837 132.336 34.9837H134.293H135.969H137.926Z" fill="#EFE4EF"/>
<path d="M135.408 39.1689C135.501 39.1689 135.594 39.1224 135.688 39.0294L136.107 37.4949C136.293 37.0299 136.386 36.6114 136.386 36.2394V36.0999C136.386 35.9604 136.247 35.8209 135.967 35.6814V34.9839H134.29V35.6814C134.011 35.8209 133.871 35.9604 133.871 36.0999C133.871 36.5649 133.964 37.0299 134.151 37.4949L134.709 39.0294C134.709 39.1224 134.803 39.2154 134.989 39.3084C135.082 39.3084 135.129 39.3084 135.129 39.3084C135.315 39.3084 135.408 39.2619 135.408 39.1689Z" fill="#513647"/>
<path d="M134.291 7.64161C134.384 7.73461 134.478 7.78111 134.571 7.78111V7.92061C134.571 8.38561 134.664 8.80411 134.85 9.17611C134.943 9.26911 135.083 9.31561 135.269 9.31561C135.549 9.31561 135.828 9.17611 136.108 8.89711C135.922 8.61811 135.828 8.29261 135.828 7.92061V7.78111C135.922 7.78111 136.015 7.78111 136.108 7.78111C136.807 7.50211 137.505 7.08361 137.785 6.38611C138.064 5.92111 138.204 5.40961 138.204 4.85161V1.92211C138.204 1.50361 137.924 1.22461 137.645 1.22461C137.226 1.22461 136.946 1.50361 136.946 1.92211V4.85161C136.946 5.54911 136.527 6.10711 135.968 6.38611C135.782 6.47911 135.549 6.52561 135.269 6.52561C134.99 6.52561 134.757 6.47911 134.571 6.38611C134.012 6.10711 133.593 5.54911 133.593 4.85161V1.92211C133.593 1.50361 133.313 1.22461 132.894 1.22461C132.615 1.22461 132.195 1.50361 132.195 1.92211V4.85161C132.195 5.40961 132.335 5.92111 132.615 6.38611C133.034 6.94411 133.593 7.50211 134.291 7.64161Z" fill="#D5C1D6"/>
<path d="M78.1193 115.475L79.0974 115.336V115.196L78.9577 114.638L77.8398 114.778C77.933 114.964 78.0262 115.196 78.1193 115.475Z" fill="#513647"/>
<path d="M73.7859 118.544C74.0654 118.963 77.9779 119.102 78.2574 118.405C78.3505 118.219 78.3971 117.986 78.3971 117.707C78.3971 117.893 78.3971 118.079 78.3971 118.265C78.3971 117.149 76.1613 115.894 74.3448 115.336C75.7421 115.615 78.1176 115.475 78.1176 115.475C78.0245 115.196 77.9313 114.964 77.8381 114.778C77.8381 114.685 77.8381 114.638 77.8381 114.638C76.4408 114.22 73.6462 114.359 73.227 114.499C73.0872 114.499 73.5064 117.986 73.7859 118.544Z" fill="white"/>
<path d="M147.986 90.365C148.684 90.2255 149.523 90.644 150.082 91.202V89.249C149.243 89.342 148.405 89.3885 147.566 89.3885V90.5045C147.66 90.4115 147.799 90.365 147.986 90.365Z" fill="#56404E"/>
<path d="M149.523 93.8524C149.523 93.8524 149.569 93.8524 149.662 93.8524C149.942 93.7129 150.082 93.4339 150.082 93.1549V91.2019C149.523 90.6439 148.684 90.2254 147.986 90.3649C147.799 90.3649 147.66 90.4114 147.566 90.5044V93.1549C147.566 93.4339 147.846 93.7129 147.986 93.8524C148.079 93.8524 148.172 93.8524 148.265 93.8524H149.523Z" fill="#684A5B"/>
<path d="M149.802 67.4874C148.964 67.6269 148.125 67.2084 147.566 66.6504V68.6034H150.082V67.3479C149.988 67.4409 149.895 67.4874 149.802 67.4874Z" fill="#56404E"/>
<path d="M148.265 63.9995C148.172 63.9995 148.079 63.9995 147.986 63.9995C147.846 64.139 147.566 64.418 147.566 64.5575V66.65C148.125 67.208 148.964 67.6265 149.802 67.487C149.895 67.487 149.988 67.4405 150.082 67.3475V64.5575C150.082 64.418 149.942 64.139 149.662 63.9995C149.569 63.9995 149.523 63.9995 149.523 63.9995H148.265Z" fill="#684A5B"/>
<path d="M155.391 67.3477V68.6032H156.928V67.7662C156.835 67.7662 156.788 67.7662 156.788 67.7662C156.229 67.9057 155.81 67.6267 155.391 67.3477Z" fill="#56404E"/>
<path d="M155.81 65.6738C155.67 65.6738 155.391 65.8133 155.391 66.0923V67.3478C155.81 67.6268 156.229 67.9058 156.788 67.7663C156.788 67.7663 156.835 67.7663 156.928 67.7663V66.0923C156.928 65.8133 156.788 65.6738 156.648 65.6738H156.509H156.089H155.81Z" fill="#684A5B"/>
<path d="M157.348 102.223C157.767 104.176 158.326 106.268 158.605 108.5C159.444 116.312 155.81 124.124 149.662 128.449C149.103 128.821 148.544 129.146 147.985 129.425C147.147 129.89 146.309 130.309 145.47 130.681C139.322 132.773 131.916 131.518 123.672 126.635C113.052 120.497 106.345 117.289 100.197 115.754C94.0487 114.22 88.0402 114.08 80.3549 115.336C80.1686 115.429 79.9357 115.475 79.6562 115.475L79.7959 116.033C80.5412 115.847 81.2399 115.708 81.8919 115.615C88.8786 114.638 94.3281 114.778 100.057 116.173C106.066 117.847 112.913 120.916 123.393 127.054C129.261 130.495 134.571 132.215 139.322 132.215C141.558 132.215 143.654 131.843 145.61 131.099C146.448 130.82 147.24 130.448 147.985 129.983C148.544 129.704 149.103 129.379 149.662 129.007C156.09 124.682 160.002 116.591 159.024 108.361C158.745 106.268 158.326 104.176 157.906 102.083C157.068 98.5956 156.23 95.1081 156.509 91.6206H156.09C155.81 95.2476 156.509 98.7351 157.348 102.223Z" fill="#EFB3AB"/>
<path d="M155.531 89.9466C155.811 89.6676 156.37 89.3886 156.929 89.5281C156.929 89.5281 156.975 89.5281 157.068 89.5281V88.8306C156.603 88.8306 156.09 88.8771 155.531 88.9701V89.9466Z" fill="#56404E"/>
<path d="M155.531 89.9468V91.2023C155.531 91.4813 155.671 91.6208 155.95 91.6208H156.09H156.509H156.649C156.929 91.6208 157.068 91.4813 157.068 91.2023V89.5283C156.975 89.5283 156.929 89.5283 156.929 89.5283C156.37 89.3888 155.811 89.6678 155.531 89.9468Z" fill="#684A5B"/>
<path fill-rule="evenodd" clip-rule="evenodd" d="M161.958 82.1345C162.052 82.4135 162.098 82.646 162.098 82.832C162.285 83.762 162.378 84.5525 162.378 85.2035C162.378 86.738 161.4 88.133 159.862 88.412C159.024 88.505 158.093 88.6445 157.068 88.8305C156.602 88.8305 156.09 88.877 155.531 88.97C153.854 89.1095 152.037 89.249 150.081 89.249C149.243 89.342 148.404 89.3885 147.566 89.3885C143.653 89.3885 139.881 89.1095 137.505 88.412C136.248 87.9935 135.409 86.8775 135.27 85.4825C135.27 82.1345 136.387 77.3915 136.387 77.3915L136.946 70.6955C137.086 69.5795 138.064 68.603 139.322 68.603H158.186C159.443 68.603 160.421 69.5795 160.561 70.6955L161.12 77.252C161.539 79.205 161.819 80.879 161.958 82.1345ZM139.741 81.716C140.16 81.716 140.44 81.5765 140.579 81.2975C140.673 81.2045 140.719 81.065 140.719 80.879C140.719 80.321 140.3 79.9025 139.741 79.9025C139.648 79.9025 139.508 79.949 139.322 80.042C139.042 80.1815 138.903 80.6 138.903 80.879C138.903 81.2975 139.322 81.716 139.741 81.716ZM142.955 82.4135C143.374 82.4135 143.653 82.1345 143.793 81.8555C143.886 81.7625 143.933 81.623 143.933 81.437C143.933 81.0185 143.514 80.6 142.955 80.6C142.769 80.6 142.629 80.6465 142.536 80.7395C142.256 80.879 142.116 81.158 142.116 81.437C142.116 81.995 142.536 82.4135 142.955 82.4135ZM146.169 82.6925C146.448 82.6925 146.867 82.4135 147.007 82.1345C147.007 82.0415 147.007 81.902 147.007 81.716C147.007 81.2975 146.728 80.879 146.169 80.879C145.982 80.879 145.843 80.9255 145.749 81.0185C145.47 81.158 145.191 81.437 145.191 81.716C145.191 82.274 145.61 82.6925 146.169 82.6925ZM149.383 82.6925C149.662 82.6925 149.941 82.553 150.081 82.274C150.174 82.088 150.221 81.9485 150.221 81.8555C150.221 81.2975 149.802 80.879 149.383 80.879C149.196 80.879 149.01 80.9255 148.824 81.0185C148.684 81.158 148.404 81.437 148.404 81.8555C148.404 82.274 148.824 82.6925 149.383 82.6925ZM152.596 82.553C152.876 82.553 153.155 82.4135 153.295 82.1345C153.388 81.9485 153.435 81.7625 153.435 81.5765C153.435 81.158 153.016 80.7395 152.596 80.7395C152.41 80.7395 152.224 80.786 152.037 80.879C151.758 81.0185 151.618 81.2975 151.618 81.5765C151.618 82.1345 152.037 82.553 152.596 82.553ZM155.67 82.1345C156.09 82.1345 156.369 81.995 156.509 81.716C156.602 81.53 156.649 81.3905 156.649 81.2975C156.649 80.7395 156.229 80.321 155.67 80.321C155.484 80.321 155.344 80.3675 155.251 80.4605C154.972 80.6 154.832 80.879 154.832 81.2975C154.832 81.716 155.251 82.1345 155.67 82.1345ZM159.862 80.7395C159.862 80.1815 159.443 79.763 158.884 79.763C158.698 79.763 158.558 79.8095 158.465 79.9025C158.186 80.042 158.046 80.4605 158.046 80.7395C158.046 81.158 158.465 81.5765 158.884 81.5765C159.304 81.5765 159.583 81.437 159.723 81.158C159.816 81.065 159.862 80.9255 159.862 80.7395ZM141.977 75.578C141.977 75.9965 142.256 76.415 142.815 76.415H154.972C155.391 76.415 155.81 75.9965 155.81 75.578V71.672C155.81 71.114 155.391 70.6955 154.972 70.6955H142.815C142.256 70.6955 141.977 71.114 141.977 71.672V75.578ZM140.719 84.0875C140.719 83.5295 140.3 83.111 139.741 83.111C139.555 83.111 139.415 83.1575 139.322 83.2505C139.042 83.39 138.903 83.669 138.903 84.0875C138.903 84.506 139.322 84.9245 139.741 84.9245C140.16 84.9245 140.44 84.785 140.579 84.506C140.673 84.413 140.719 84.2735 140.719 84.0875ZM143.793 84.6455C143.793 84.227 143.514 83.8085 142.955 83.8085C142.769 83.8085 142.629 83.855 142.536 83.948C142.256 84.0875 141.977 84.3665 141.977 84.6455C141.977 85.2035 142.396 85.622 142.955 85.622C143.234 85.622 143.653 85.343 143.793 85.064C143.793 84.971 143.793 84.8315 143.793 84.6455ZM147.007 84.9245C147.007 84.506 146.588 84.0875 146.169 84.0875C145.982 84.0875 145.796 84.134 145.61 84.227C145.47 84.3665 145.191 84.6455 145.191 84.9245C145.191 85.4825 145.61 85.901 146.169 85.901C146.448 85.901 146.728 85.622 146.867 85.343C146.96 85.25 147.007 85.1105 147.007 84.9245ZM150.221 84.9245C150.221 84.506 149.802 84.0875 149.383 84.0875C149.196 84.0875 149.01 84.134 148.824 84.227C148.544 84.3665 148.404 84.6455 148.404 84.9245C148.404 85.4825 148.824 85.901 149.383 85.901C149.662 85.901 149.941 85.7615 150.081 85.4825C150.174 85.2965 150.221 85.1105 150.221 84.9245ZM153.435 84.785C153.435 84.3665 153.016 83.948 152.457 83.948C152.363 83.948 152.224 83.9945 152.037 84.0875C151.758 84.227 151.618 84.506 151.618 84.785C151.618 85.343 152.037 85.7615 152.457 85.7615C152.876 85.7615 153.155 85.622 153.295 85.2035C153.388 85.1105 153.435 84.971 153.435 84.785ZM155.67 85.343C156.09 85.343 156.369 85.2035 156.509 84.9245C156.602 84.7385 156.649 84.599 156.649 84.506C156.649 83.948 156.229 83.5295 155.67 83.5295C155.484 83.5295 155.344 83.576 155.251 83.669C154.972 83.8085 154.832 84.0875 154.832 84.506C154.832 84.9245 155.251 85.343 155.67 85.343ZM159.723 83.948C159.723 83.39 159.443 82.9715 158.884 82.9715C158.698 82.9715 158.558 83.018 158.465 83.111C158.186 83.2505 157.906 83.5295 157.906 83.948C157.906 84.3665 158.325 84.785 158.884 84.785C159.164 84.785 159.583 84.6455 159.723 84.3665C159.723 84.2735 159.723 84.134 159.723 83.948Z" fill="#EFE4EF"/>
<path fill-rule="evenodd" clip-rule="evenodd" d="M141.977 75.5783V71.6723C141.977 71.1143 142.256 70.6958 142.815 70.6958H154.972C155.391 70.6958 155.81 71.1143 155.81 71.6723V75.5783C155.81 75.9968 155.391 76.4153 154.972 76.4153H142.815C142.256 76.4153 141.977 75.9968 141.977 75.5783ZM142.536 75.1598C142.536 75.5783 142.955 75.8573 143.374 75.8573H154.273C154.832 75.8573 155.111 75.5783 155.111 75.1598V71.9513C155.111 71.5328 154.832 71.2538 154.273 71.2538H143.374C142.955 71.2538 142.536 71.5328 142.536 71.9513V75.1598Z" fill="#CAB6CC"/>
<path d="M155.111 73.9039V71.9509C155.111 71.5324 154.832 71.2534 154.273 71.2534H143.793C146.588 74.0434 151.199 74.7409 155.111 73.9039Z" fill="#684A5B"/>
<path d="M143.374 75.8569H154.273C154.832 75.8569 155.111 75.5779 155.111 75.1594V73.9039C151.199 74.7409 146.587 74.0434 143.793 71.2534H143.374C142.954 71.2534 142.535 71.5324 142.535 71.9509V75.1594C142.535 75.5779 142.954 75.8569 143.374 75.8569Z" fill="#56404E"/>
<path d="M139.324 80.4608C139.417 80.2748 139.557 80.1818 139.743 80.1818C140.163 80.1818 140.442 80.4608 140.442 80.8793C140.442 80.9723 140.396 81.1118 140.302 81.2978C140.396 81.2978 140.489 81.2978 140.582 81.2978C140.675 81.2048 140.722 81.0653 140.722 80.8793C140.722 80.3213 140.302 79.9028 139.743 79.9028C139.65 79.9028 139.511 79.9493 139.324 80.0423C139.324 80.2283 139.324 80.3678 139.324 80.4608Z" fill="#A893AA"/>
<path d="M140.579 81.2975C140.486 81.2975 140.393 81.2975 140.3 81.2975C140.207 81.3905 140.02 81.437 139.741 81.437C139.461 81.437 139.182 81.158 139.182 80.879C139.182 80.693 139.228 80.5535 139.322 80.4605C139.322 80.3675 139.322 80.228 139.322 80.042C139.042 80.1815 138.902 80.6 138.902 80.879C138.902 81.2975 139.322 81.716 139.741 81.716C140.16 81.716 140.439 81.5765 140.579 81.2975Z" fill="#927C96"/>
<path d="M139.743 80.1816C139.557 80.1816 139.417 80.2746 139.324 80.4606C139.324 80.8791 139.743 81.1581 140.302 81.2976C140.396 81.1116 140.442 80.9721 140.442 80.8791C140.442 80.4606 140.163 80.1816 139.743 80.1816Z" fill="white"/>
<path d="M139.323 80.4604C139.23 80.5534 139.184 80.6929 139.184 80.8789C139.184 81.1579 139.463 81.4369 139.743 81.4369C140.022 81.4369 140.208 81.3904 140.301 81.2974C139.743 81.1579 139.323 80.8789 139.323 80.4604Z" fill="#EFE4EF"/>
<path d="M142.535 81.0186C142.628 80.9256 142.768 80.8791 142.954 80.8791C143.374 80.8791 143.653 81.1581 143.653 81.4371C143.653 81.6231 143.606 81.7626 143.513 81.8556C143.606 81.8556 143.7 81.8556 143.793 81.8556C143.886 81.7626 143.932 81.6231 143.932 81.4371C143.932 81.0186 143.513 80.6001 142.954 80.6001C142.768 80.6001 142.628 80.6466 142.535 80.7396C142.535 80.8326 142.535 80.9256 142.535 81.0186Z" fill="#A893AA"/>
<path d="M143.794 81.8558C143.701 81.8558 143.608 81.8558 143.515 81.8558C143.328 82.0418 143.142 82.1347 142.956 82.1347C142.676 82.1347 142.397 81.8557 142.397 81.4372C142.397 81.2512 142.443 81.1118 142.536 81.0188C142.536 80.9258 142.536 80.8327 142.536 80.7397C142.257 80.8792 142.117 81.1582 142.117 81.4372C142.117 81.9952 142.536 82.4138 142.956 82.4138C143.375 82.4138 143.654 82.1348 143.794 81.8558Z" fill="#927C96"/>
<path d="M142.954 80.8789C142.768 80.8789 142.628 80.9254 142.535 81.0184C142.535 81.4369 142.954 81.7159 143.513 81.8554C143.606 81.7624 143.653 81.6229 143.653 81.4369C143.653 81.1579 143.374 80.8789 142.954 80.8789Z" fill="white"/>
<path d="M142.538 81.0186C142.445 81.1116 142.398 81.251 142.398 81.437C142.398 81.8555 142.678 82.1345 142.957 82.1345C143.144 82.1345 143.33 82.0416 143.516 81.8556C142.957 81.7161 142.538 81.4371 142.538 81.0186Z" fill="#EFE4EF"/>
<path d="M145.75 81.2974C145.843 81.2044 145.982 81.1579 146.169 81.1579C146.448 81.1579 146.728 81.4369 146.728 81.7159C146.728 81.9019 146.728 82.0414 146.728 82.1344C146.821 82.1344 146.914 82.1344 147.007 82.1344C147.007 82.0414 147.007 81.9019 147.007 81.7159C147.007 81.2974 146.728 80.8789 146.169 80.8789C145.982 80.8789 145.843 80.9254 145.75 81.0184C145.656 81.1114 145.656 81.2044 145.75 81.2974Z" fill="#A893AA"/>
<path d="M146.17 82.6926C146.449 82.6926 146.868 82.4135 147.008 82.1345C146.915 82.1345 146.822 82.1345 146.728 82.1345C146.542 82.3205 146.356 82.4136 146.17 82.4136C145.75 82.4136 145.471 82.1346 145.471 81.7161C145.471 81.5301 145.564 81.3906 145.75 81.2976C145.657 81.2046 145.657 81.1116 145.75 81.0186C145.471 81.1581 145.191 81.4371 145.191 81.7161C145.191 82.2741 145.611 82.6926 146.17 82.6926Z" fill="#927C96"/>
<path d="M146.169 81.1582C145.983 81.1582 145.843 81.2047 145.75 81.2977C145.75 81.7162 146.169 81.9952 146.728 82.1347C146.728 82.0417 146.728 81.9022 146.728 81.7162C146.728 81.4372 146.449 81.1582 146.169 81.1582Z" fill="white"/>
<path d="M145.748 81.2979C145.562 81.3909 145.469 81.5304 145.469 81.7164C145.469 82.1349 145.748 82.4139 146.167 82.4139C146.354 82.4139 146.54 82.3208 146.726 82.1348C146.167 81.9953 145.748 81.7164 145.748 81.2979Z" fill="#EFE4EF"/>
<path d="M158.884 79.7632C158.697 79.7632 158.558 79.8097 158.464 79.9027C158.371 80.0887 158.371 80.2282 158.464 80.3212C158.558 80.1352 158.697 80.0422 158.884 80.0422C159.303 80.0422 159.582 80.3212 159.582 80.7397C159.582 80.8327 159.536 80.9722 159.442 81.1582C159.536 81.1582 159.629 81.1582 159.722 81.1582C159.815 81.0652 159.862 80.9257 159.862 80.7397C159.862 80.1817 159.443 79.7632 158.884 79.7632Z" fill="#A893AA"/>
<path d="M159.444 81.1583C159.258 81.2513 159.072 81.2978 158.885 81.2978C158.606 81.2978 158.326 81.0188 158.326 80.7398C158.326 80.5538 158.373 80.4143 158.466 80.3213C158.373 80.2283 158.373 80.0888 158.466 79.9028C158.187 80.0423 158.047 80.4608 158.047 80.7398C158.047 81.1583 158.466 81.5768 158.885 81.5768C159.304 81.5768 159.584 81.4373 159.724 81.1583C159.631 81.1583 159.537 81.1583 159.444 81.1583Z" fill="#927C96"/>
<path d="M159.443 81.158C159.536 80.972 159.583 80.8325 159.583 80.7395C159.583 80.321 159.303 80.042 158.884 80.042C158.698 80.042 158.558 80.135 158.465 80.321C158.465 80.7395 158.884 81.0185 159.443 81.158Z" fill="white"/>
<path d="M158.464 80.3213C158.371 80.4143 158.324 80.5538 158.324 80.7398C158.324 81.0188 158.604 81.2978 158.883 81.2978C159.069 81.2978 159.256 81.2513 159.442 81.1583C158.883 81.0188 158.464 80.7398 158.464 80.3213Z" fill="#EFE4EF"/>
<path d="M155.25 80.8793C155.343 80.6933 155.483 80.6003 155.669 80.6003C156.088 80.6003 156.368 80.8793 156.368 81.2978C156.368 81.3908 156.321 81.5303 156.228 81.7163C156.321 81.7163 156.414 81.7163 156.508 81.7163C156.601 81.5303 156.647 81.3908 156.647 81.2978C156.647 80.7398 156.228 80.3213 155.669 80.3213C155.483 80.3213 155.343 80.3678 155.25 80.4608C155.25 80.6468 155.25 80.7863 155.25 80.8793Z" fill="#A893AA"/>
<path d="M156.509 81.716C156.416 81.716 156.323 81.716 156.229 81.716C156.136 81.809 155.95 81.8554 155.67 81.8554C155.391 81.8554 155.112 81.5764 155.112 81.2974C155.112 81.1114 155.158 80.9719 155.251 80.8789C155.251 80.7859 155.251 80.6464 155.251 80.4604C154.972 80.5999 154.832 80.8789 154.832 81.2974C154.832 81.7159 155.251 82.1344 155.67 82.1344C156.09 82.1344 156.369 81.995 156.509 81.716Z" fill="#927C96"/>
<path d="M155.669 80.6001C155.483 80.6001 155.343 80.6931 155.25 80.8791C155.25 81.2976 155.669 81.5766 156.228 81.7161C156.321 81.5301 156.368 81.3906 156.368 81.2976C156.368 80.8791 156.088 80.6001 155.669 80.6001Z" fill="white"/>
<path d="M155.253 80.8789C155.16 80.9719 155.113 81.1114 155.113 81.2974C155.113 81.5764 155.393 81.8554 155.672 81.8554C155.952 81.8554 156.138 81.8089 156.231 81.7159C155.672 81.5764 155.253 81.2974 155.253 80.8789Z" fill="#EFE4EF"/>
<path d="M152.039 81.2977C152.132 81.1117 152.319 81.0188 152.598 81.0188C152.877 81.0188 153.157 81.2977 153.157 81.5767C153.157 81.7627 153.11 81.9022 153.017 81.9952C153.11 81.9952 153.203 82.0417 153.297 82.1347C153.39 81.9487 153.436 81.7627 153.436 81.5767C153.436 81.1582 153.017 80.7397 152.598 80.7397C152.412 80.7397 152.225 80.7862 152.039 80.8792C152.039 80.9722 152.039 81.1117 152.039 81.2977Z" fill="#A893AA"/>
<path d="M152.595 82.5529C152.875 82.5529 153.154 82.4134 153.294 82.1344C153.201 82.0414 153.108 81.9949 153.015 81.9949C152.921 82.1809 152.782 82.2739 152.595 82.2739C152.176 82.2739 151.897 81.9949 151.897 81.5764C151.897 81.4834 151.943 81.3904 152.036 81.2974C152.036 81.1114 152.036 80.9719 152.036 80.8789C151.757 81.0184 151.617 81.2974 151.617 81.5764C151.617 82.1344 152.036 82.5529 152.595 82.5529Z" fill="#927C96"/>
<path d="M152.598 81.0186C152.319 81.0186 152.132 81.1116 152.039 81.2976C152.179 81.7161 152.598 81.8556 153.017 81.9951C153.11 81.9021 153.157 81.7625 153.157 81.5765C153.157 81.2975 152.877 81.0186 152.598 81.0186Z" fill="white"/>
<path d="M152.038 81.2979C151.945 81.3909 151.898 81.4838 151.898 81.5768C151.898 81.9953 152.178 82.2743 152.597 82.2743C152.783 82.2743 152.923 82.1814 153.016 81.9954C152.597 81.8559 152.178 81.7164 152.038 81.2979Z" fill="#EFE4EF"/>
<path d="M148.824 81.4369C149.011 81.2509 149.197 81.1579 149.383 81.1579C149.663 81.1579 149.942 81.4369 149.942 81.8554C149.942 81.9484 149.895 82.0414 149.802 82.1344C149.895 82.1344 149.989 82.1809 150.082 82.2739C150.175 82.0879 150.222 81.9484 150.222 81.8554C150.222 81.2974 149.802 80.8789 149.383 80.8789C149.197 80.8789 149.011 80.9254 148.824 81.0184C148.824 81.1114 148.824 81.2509 148.824 81.4369Z" fill="#A893AA"/>
<path d="M149.384 82.6926C149.664 82.6926 149.943 82.553 150.083 82.274C149.99 82.181 149.897 82.1345 149.804 82.1345C149.71 82.3205 149.571 82.4136 149.384 82.4136C148.965 82.4136 148.686 82.1346 148.686 81.8556C148.686 81.6696 148.732 81.53 148.825 81.437C148.825 81.251 148.825 81.1116 148.825 81.0186C148.686 81.1581 148.406 81.4371 148.406 81.8556C148.406 82.2741 148.825 82.6926 149.384 82.6926Z" fill="#927C96"/>
<path d="M149.383 81.1582C149.197 81.1582 149.011 81.2512 148.824 81.4372C148.964 81.8557 149.383 82.1347 149.802 82.1347C149.895 82.0417 149.942 81.9487 149.942 81.8557C149.942 81.4372 149.663 81.1582 149.383 81.1582Z" fill="white"/>
<path d="M148.823 81.437C148.73 81.53 148.684 81.6695 148.684 81.8555C148.684 82.1345 148.963 82.4135 149.382 82.4135C149.569 82.4135 149.708 82.3205 149.801 82.1345C149.382 82.1345 148.963 81.8555 148.823 81.437Z" fill="#EFE4EF"/>
<path d="M139.743 83.1113C139.557 83.1113 139.417 83.1578 139.324 83.2508C139.324 83.4368 139.324 83.5763 139.324 83.6693C139.417 83.4833 139.557 83.3903 139.743 83.3903C140.163 83.3903 140.442 83.6693 140.442 84.0878C140.442 84.1808 140.396 84.2738 140.302 84.3668C140.396 84.4598 140.489 84.5063 140.582 84.5063C140.675 84.3203 140.722 84.1808 140.722 84.0878C140.722 83.5298 140.302 83.1113 139.743 83.1113Z" fill="#A893AA"/>
<path d="M140.3 84.3665C140.113 84.5525 139.927 84.6455 139.741 84.6455C139.461 84.6455 139.182 84.3665 139.182 84.0875C139.182 83.9015 139.228 83.762 139.322 83.669C139.322 83.576 139.322 83.4365 139.322 83.2505C139.042 83.39 138.902 83.669 138.902 84.0875C138.902 84.506 139.322 84.9245 139.741 84.9245C140.16 84.9245 140.439 84.785 140.579 84.506C140.486 84.506 140.393 84.4595 140.3 84.3665Z" fill="#927C96"/>
<path d="M140.302 84.3666C140.396 84.2736 140.442 84.1806 140.442 84.0876C140.442 83.6691 140.163 83.3901 139.743 83.3901C139.557 83.3901 139.417 83.4831 139.324 83.6691C139.324 84.0876 139.743 84.3666 140.302 84.3666Z" fill="white"/>
<path d="M139.323 83.6689C139.23 83.7619 139.184 83.9014 139.184 84.0874C139.184 84.3664 139.463 84.6455 139.743 84.6455C139.929 84.6455 140.115 84.5524 140.301 84.3664C139.743 84.3664 139.323 84.0874 139.323 83.6689Z" fill="#EFE4EF"/>
<path d="M142.954 83.6689C142.768 83.6689 142.628 83.7155 142.535 83.8085C142.442 83.9945 142.442 84.1339 142.535 84.2269C142.628 84.0409 142.768 83.948 142.954 83.948C143.233 83.948 143.513 84.227 143.513 84.6455C143.513 84.7385 143.513 84.8779 143.513 85.0639C143.606 85.0639 143.699 85.0639 143.792 85.0639C143.792 84.9709 143.792 84.8315 143.792 84.6455C143.792 84.0875 143.513 83.6689 142.954 83.6689Z" fill="#A893AA"/>
<path d="M143.514 85.0641C143.327 85.1571 143.141 85.2036 142.955 85.2036C142.536 85.2036 142.256 84.9246 142.256 84.6456C142.256 84.4596 142.349 84.3201 142.536 84.2271C142.442 84.1341 142.442 83.9946 142.536 83.8086C142.256 84.0876 141.977 84.3666 141.977 84.6456C141.977 85.0641 142.396 85.4826 142.955 85.4826C143.234 85.4826 143.653 85.3431 143.793 85.0641C143.7 85.0641 143.607 85.0641 143.514 85.0641Z" fill="#927C96"/>
<path d="M143.513 85.0642C143.513 84.8782 143.513 84.7387 143.513 84.6457C143.513 84.2272 143.234 83.9482 142.954 83.9482C142.768 83.9482 142.628 84.0412 142.535 84.2272C142.535 84.6457 142.954 84.9247 143.513 85.0642Z" fill="white"/>
<path d="M142.537 84.2271C142.351 84.3201 142.258 84.4596 142.258 84.6456C142.258 84.9246 142.537 85.2036 142.956 85.2036C143.143 85.2036 143.329 85.157 143.515 85.064C142.956 84.9245 142.537 84.6456 142.537 84.2271Z" fill="#EFE4EF"/>
<path d="M146.168 83.9482C145.982 84.0412 145.796 84.0877 145.609 84.0877C145.609 84.2737 145.609 84.4132 145.609 84.5062C145.796 84.4132 145.982 84.3202 146.168 84.2272C146.448 84.2272 146.727 84.5062 146.727 84.9247C146.727 85.1107 146.681 85.2502 146.588 85.3432C146.681 85.3432 146.774 85.3432 146.867 85.3432C146.96 85.2502 147.007 85.1107 147.007 84.9247C147.007 84.3667 146.587 83.9482 146.168 83.9482Z" fill="#A893AA"/>
<path d="M146.589 85.3434C146.496 85.4364 146.356 85.4829 146.17 85.4829C145.75 85.4829 145.471 85.2039 145.471 84.9249C145.471 84.7389 145.517 84.5994 145.611 84.5064C145.611 84.4134 145.611 84.2739 145.611 84.0879C145.471 84.3669 145.191 84.6459 145.191 84.9249C145.191 85.4829 145.611 85.7619 146.17 85.7619C146.449 85.7619 146.728 85.6224 146.868 85.3434C146.775 85.3434 146.682 85.3434 146.589 85.3434Z" fill="#927C96"/>
<path d="M146.588 85.3431C146.681 85.2501 146.727 85.1106 146.727 84.9246C146.727 84.5061 146.448 84.2271 146.168 84.2271C145.982 84.3201 145.796 84.4131 145.609 84.5061C145.749 84.9246 146.168 85.2036 146.588 85.3431Z" fill="white"/>
<path d="M145.608 84.5063C145.515 84.5993 145.469 84.7388 145.469 84.9248C145.469 85.2038 145.748 85.4828 146.167 85.4828C146.354 85.4828 146.493 85.4363 146.587 85.3433C146.167 85.2038 145.748 84.9248 145.608 84.5063Z" fill="#EFE4EF"/>
<path d="M158.883 82.9717C158.697 82.9717 158.557 83.0182 158.464 83.1112C158.371 83.2972 158.324 83.4367 158.324 83.5297C158.511 83.3437 158.697 83.2507 158.883 83.2507C159.163 83.2507 159.442 83.5297 159.442 83.9482C159.442 84.0412 159.396 84.1342 159.302 84.2272C159.489 84.3202 159.628 84.3667 159.722 84.3667C159.722 84.1807 159.722 84.0412 159.722 83.9482C159.722 83.3902 159.442 82.9717 158.883 82.9717Z" fill="#A893AA"/>
<path d="M159.304 84.2273C159.21 84.4133 159.071 84.5063 158.884 84.5063C158.465 84.5063 158.186 84.2273 158.186 83.9483C158.186 83.7623 158.232 83.6228 158.325 83.5298C158.325 83.4368 158.372 83.2973 158.465 83.1113C158.186 83.2508 157.906 83.5298 157.906 83.9483C157.906 84.3668 158.325 84.7853 158.884 84.7853C159.164 84.7853 159.583 84.6458 159.723 84.3668C159.63 84.3668 159.49 84.3203 159.304 84.2273Z" fill="#927C96"/>
<path d="M159.302 84.227C159.396 84.134 159.442 84.041 159.442 83.948C159.442 83.5295 159.163 83.2505 158.883 83.2505C158.697 83.2505 158.511 83.3435 158.324 83.5295C158.464 83.948 158.883 84.227 159.302 84.227Z" fill="white"/>
<path d="M158.327 83.5298C158.234 83.6228 158.188 83.7623 158.188 83.9483C158.188 84.2273 158.467 84.5063 158.886 84.5063C159.072 84.5063 159.212 84.4133 159.305 84.2273C158.886 84.2273 158.467 83.9483 158.327 83.5298Z" fill="#EFE4EF"/>
<path d="M155.253 84.0878C155.347 83.9018 155.486 83.8088 155.673 83.8088C156.092 83.8088 156.371 84.0878 156.371 84.5063C156.371 84.5993 156.325 84.6923 156.232 84.7853C156.325 84.8783 156.418 84.9248 156.511 84.9248C156.604 84.7388 156.651 84.5993 156.651 84.5063C156.651 83.9483 156.232 83.5298 155.673 83.5298C155.486 83.5298 155.347 83.5763 155.253 83.6693C155.16 83.8553 155.16 83.9948 155.253 84.0878Z" fill="#A893AA"/>
<path d="M156.509 84.9244C156.416 84.9244 156.323 84.8779 156.229 84.7849C156.043 84.9709 155.857 85.0639 155.67 85.0639C155.391 85.0639 155.112 84.785 155.112 84.506C155.112 84.32 155.158 84.1804 155.251 84.0874C155.158 83.9944 155.158 83.8549 155.251 83.6689C154.972 83.8084 154.832 84.0875 154.832 84.506C154.832 84.9245 155.251 85.343 155.67 85.343C156.09 85.343 156.369 85.2034 156.509 84.9244Z" fill="#927C96"/>
<path d="M155.669 83.8086C155.483 83.8086 155.343 83.9016 155.25 84.0876C155.25 84.5061 155.669 84.7851 156.228 84.7851C156.321 84.6921 156.368 84.5991 156.368 84.5061C156.368 84.0876 156.088 83.8086 155.669 83.8086Z" fill="white"/>
<path d="M155.253 84.0879C155.16 84.1809 155.113 84.3204 155.113 84.5064C155.113 84.7854 155.393 85.0644 155.672 85.0644C155.859 85.0644 156.045 84.9714 156.231 84.7854C155.672 84.7854 155.253 84.5064 155.253 84.0879Z" fill="#EFE4EF"/>
<path d="M152.458 83.9482C152.365 83.9482 152.225 83.9947 152.039 84.0877C152.039 84.1807 152.039 84.2737 152.039 84.3667C152.132 84.2737 152.272 84.2272 152.458 84.2272C152.877 84.2272 153.157 84.5062 153.157 84.7852C153.157 84.9712 153.11 85.1107 153.017 85.2037C153.11 85.2037 153.203 85.2037 153.297 85.2037C153.39 85.1107 153.436 84.9712 153.436 84.7852C153.436 84.3667 153.017 83.9482 152.458 83.9482Z" fill="#A893AA"/>
<path d="M153.015 85.2039C152.921 85.3899 152.735 85.4829 152.456 85.4829C152.176 85.4829 151.897 85.2039 151.897 84.7854C151.897 84.6924 151.943 84.5529 152.036 84.3669C152.036 84.2739 152.036 84.1809 152.036 84.0879C151.757 84.2274 151.617 84.5064 151.617 84.7854C151.617 85.3434 152.036 85.7619 152.456 85.7619C152.875 85.7619 153.154 85.4829 153.294 85.2039C153.201 85.2039 153.108 85.2039 153.015 85.2039Z" fill="#927C96"/>
<path d="M153.017 85.2036C153.11 85.1106 153.157 84.9711 153.157 84.7851C153.157 84.5061 152.877 84.2271 152.458 84.2271C152.272 84.2271 152.132 84.2735 152.039 84.3665C152.039 84.785 152.458 85.0641 153.017 85.2036Z" fill="white"/>
<path d="M152.038 84.3667C151.945 84.5527 151.898 84.6922 151.898 84.7852C151.898 85.2037 152.178 85.4827 152.457 85.4827C152.737 85.4827 152.923 85.3897 153.016 85.2037C152.457 85.0642 152.038 84.7852 152.038 84.3667Z" fill="#EFE4EF"/>
<path d="M149.383 84.0879C149.197 84.0879 149.011 84.1344 148.824 84.2274C148.824 84.3204 148.824 84.4134 148.824 84.5064C148.917 84.4134 149.104 84.3669 149.383 84.3669C149.663 84.3669 149.942 84.6459 149.942 84.9249C149.942 85.1109 149.895 85.2504 149.802 85.3434C149.895 85.3434 149.989 85.3434 150.082 85.3434C150.175 85.2504 150.222 85.1109 150.222 84.9249C150.222 84.5064 149.802 84.0879 149.383 84.0879Z" fill="#A893AA"/>
<path d="M149.804 85.3431C149.71 85.5291 149.571 85.6221 149.384 85.6221C148.965 85.6221 148.686 85.3431 148.686 84.9246C148.686 84.8316 148.732 84.6921 148.825 84.5061C148.825 84.4131 148.825 84.3201 148.825 84.2271C148.546 84.3666 148.406 84.6456 148.406 84.9246C148.406 85.4826 148.825 85.9011 149.384 85.9011C149.664 85.9011 149.943 85.6221 150.083 85.3431C149.99 85.3431 149.897 85.3431 149.804 85.3431Z" fill="#927C96"/>
<path d="M149.802 85.3432C149.895 85.2502 149.942 85.1107 149.942 84.9247C149.942 84.6457 149.663 84.3667 149.383 84.3667C149.104 84.3667 148.917 84.4132 148.824 84.5062C148.964 85.0642 149.383 85.2037 149.802 85.3432Z" fill="white"/>
<path d="M148.823 84.5063C148.73 84.6923 148.684 84.8318 148.684 84.9248C148.684 85.3433 148.963 85.6223 149.382 85.6223C149.569 85.6223 149.708 85.5293 149.801 85.3433C149.382 85.2038 148.963 85.0643 148.823 84.5063Z" fill="#EFE4EF"/>
<path d="M78.1211 115.615C78.2142 115.801 78.2608 116.033 78.2608 116.312L79.7979 116.173V116.033L79.6582 115.475L78.1211 115.615Z" fill="#513647"/>
<path d="M78.1205 115.614C78.1205 115.521 78.1205 115.475 78.1205 115.475C78.1205 115.475 75.745 115.614 74.3477 115.335C76.1642 115.893 78.3999 117.149 78.3999 118.265C78.3999 118.079 78.3999 117.893 78.3999 117.707C78.3999 117.149 78.3999 116.73 78.2602 116.312C78.2602 116.033 78.2136 115.8 78.1205 115.614Z" fill="#DAC8DB"/>
</svg>
