<svg width="391" height="249" viewBox="0 0 391 249" fill="none" xmlns="http://www.w3.org/2000/svg">
<path fill-rule="evenodd" clip-rule="evenodd" d="M245.922 104.464H300.138V113.392C300.138 114.368 299.3 115.205 298.182 115.205H247.738C246.76 115.205 245.922 114.368 245.922 113.392V104.464ZM284.348 110.602C284.348 112.276 285.746 113.81 287.422 113.81H294.409C296.226 113.81 297.623 112.276 297.623 110.602V109.207C297.623 107.393 296.226 105.998 294.409 105.998H287.422C285.746 105.998 284.348 107.393 284.348 109.207V110.602ZM266.323 110.602C266.323 112.276 267.72 113.81 269.537 113.81H276.384C278.2 113.81 279.597 112.276 279.597 110.602V109.207C279.597 107.393 278.2 105.998 276.384 105.998H269.537C267.72 105.998 266.323 107.393 266.323 109.207V110.602ZM248.297 110.602C248.297 112.276 249.695 113.671 251.511 113.671H258.358C260.175 113.671 261.572 112.276 261.572 110.602V109.067C261.572 107.393 260.175 105.859 258.358 105.859H251.511C249.695 105.859 248.297 107.393 248.297 109.067V110.602Z" fill="#EEE7F2"/>
<path d="M304.607 102.232H303.768V99.7207H301.533V102.232H300.694V99.7207H298.598V102.232H297.76V99.7207H295.664V102.232H294.686V99.7207H292.59V102.232H291.751V99.7207H289.655V102.232H288.817V99.7207H286.581V102.232H285.743V99.7207H283.647V102.232H282.808V99.7207H280.573V102.232H279.734V99.7207H277.638V102.232H276.8V99.7207H274.564V102.232H273.726V99.7207H271.63V102.232H270.791V99.7207H268.556V102.232H267.717V99.7207H265.621V102.232H264.783V99.7207H262.547V102.232H261.709V99.7207H259.613V102.232H258.774V99.7207H258.635H256.539V102.232H255.7V99.7207H253.604V102.232H252.766V99.7207H250.53V102.232H249.692V99.7207H247.596V102.232H246.757V99.7207H244.522V102.232H243.683V99.7207H241.587V102.232H240.749V99.7207H239.352V104.464H245.919H300.135H306.563V99.7207H304.607V102.232Z" fill="#4B3C4F"/>
<path d="M240.75 102.232H241.588V99.7207H240.75V102.232Z" fill="#78627F"/>
<path d="M243.684 102.232H244.522V99.7207H243.684V102.232Z" fill="#78627F"/>
<path d="M246.758 102.232H247.596V99.7207H246.758V102.232Z" fill="#78627F"/>
<path d="M249.691 102.232H250.53V99.7207H249.691V102.232Z" fill="#78627F"/>
<path d="M252.766 102.232H253.604V99.7207H252.766V102.232Z" fill="#78627F"/>
<path d="M255.703 102.232H256.542V99.7207H255.703V102.232Z" fill="#78627F"/>
<path d="M259.616 102.232V99.7207H258.777V102.232H259.616Z" fill="#78627F"/>
<path d="M262.549 102.232V99.7207H261.711V102.232H262.549Z" fill="#78627F"/>
<path d="M265.624 102.232V99.7207H264.785V102.232H265.624Z" fill="#78627F"/>
<path d="M268.557 102.232V99.7207H267.719V102.232H268.557Z" fill="#78627F"/>
<path d="M271.631 102.232V99.7207H270.793V102.232H271.631Z" fill="#78627F"/>
<path d="M274.565 102.232V99.7207H273.727V102.232H274.565Z" fill="#78627F"/>
<path d="M277.639 102.232V99.7207H276.801V102.232H277.639Z" fill="#78627F"/>
<path d="M280.573 102.232V99.7207H279.734V102.232H280.573Z" fill="#78627F"/>
<path d="M283.647 102.232V99.7207H282.809V102.232H283.647Z" fill="#78627F"/>
<path d="M286.581 102.232V99.7207H285.742V102.232H286.581Z" fill="#78627F"/>
<path d="M289.655 102.232V99.7207H288.816V102.232H289.655Z" fill="#78627F"/>
<path d="M292.592 102.232V99.7207H291.754V102.232H292.592Z" fill="#78627F"/>
<path d="M295.666 102.232V99.7207H294.688V102.232H295.666Z" fill="#78627F"/>
<path d="M298.6 102.232V99.7207H297.762V102.232H298.6Z" fill="#78627F"/>
<path d="M301.534 102.232V99.7207H300.695V102.232H301.534Z" fill="#78627F"/>
<path d="M304.608 102.232V99.7207H303.77V102.232H304.608Z" fill="#78627F"/>
<path d="M47.5 240.197V9.04557C47.5 4.58157 51.1331 0.95459 55.6045 0.95459H9.35304C4.4624 0.95459 0.410156 5.00008 0.410156 9.88258V239.36C0.410156 244.243 4.4624 248.149 9.35304 248.149H55.6045C51.1331 248.149 47.5 244.661 47.5 240.197Z" fill="#42A5F5"/>
<path d="M186.952 126.365C186.952 127.016 186.906 127.667 186.812 128.318C186.812 129.155 186.812 129.992 186.812 130.829C186.812 129.341 186.859 127.853 186.952 126.365Z" fill="#A9C6FF"/>
<path d="M190.726 68.8911C197.014 85.4916 200.367 104.603 200.367 124.552C200.367 152.591 193.66 179.096 181.643 198.905C169.487 218.854 153.278 229.874 135.951 229.874C133.342 229.874 130.781 229.642 128.265 229.177C95.9872 222.899 71.534 177.841 71.534 124.552C71.534 99.8601 76.8438 76.0056 86.4854 57.0336C91.935 46.4316 98.5024 37.7826 105.908 31.3656C113.733 24.6696 121.977 20.7636 130.781 19.5081C132.457 19.3221 134.181 19.2291 135.951 19.2291C145.592 19.2291 154.815 22.5771 163.199 28.9941H165.015H202.324V28.8546C202.324 22.5771 207.075 17.2761 213.223 16.7181V9.04557C213.223 4.58157 209.73 0.95459 205.258 0.95459H187.372H55.6045C51.1331 0.95459 47.5 4.58157 47.5 9.04557V240.197C47.5 244.661 51.1331 248.149 55.6045 248.149H187.372H205.258C209.73 248.149 213.223 244.661 213.223 240.197V68.8911H190.726Z" fill="#A9C6FF"/>
<path d="M132.875 20.6239C138.744 22.1584 144.473 24.9484 149.783 28.9939H160.822C153.276 23.5534 144.752 20.4844 135.949 20.4844C134.924 20.4844 133.9 20.5309 132.875 20.6239Z" fill="#C9BCCE"/>
<path d="M186.955 126.365C186.862 127.853 186.815 129.341 186.815 130.829C186.722 131.666 186.676 132.457 186.676 133.201C186.676 133.294 186.676 133.34 186.676 133.34C186.676 134.084 186.629 134.875 186.536 135.712C186.443 136.549 186.396 137.339 186.396 138.083C186.396 138.083 186.396 138.13 186.396 138.223C186.303 138.967 186.21 139.757 186.117 140.594C186.023 141.338 185.93 142.129 185.837 142.966C185.744 143.803 185.651 144.593 185.558 145.337C185.464 146.081 185.371 146.872 185.278 147.709C185.185 148.453 185.092 149.243 184.999 150.08C182.344 167.099 177.174 182.444 170.187 194.999C170.094 194.999 170.047 194.999 170.047 194.999C169.768 195.557 169.488 196.069 169.209 196.534C169.209 196.627 169.162 196.72 169.069 196.813C168.79 197.278 168.51 197.743 168.231 198.208C168.231 198.301 168.184 198.394 168.091 198.487C167.812 198.859 167.532 199.277 167.253 199.742C167.16 199.835 167.113 199.975 167.113 200.161C166.833 200.533 166.554 200.905 166.275 201.277C166.181 201.463 166.088 201.602 165.995 201.695C165.716 202.067 165.483 202.439 165.296 202.811C165.203 202.997 165.064 203.137 164.877 203.23C164.691 203.602 164.458 203.974 164.179 204.346C164.085 204.532 163.992 204.671 163.899 204.764C163.62 205.136 163.34 205.462 163.061 205.741C162.968 205.927 162.874 206.113 162.781 206.299C162.502 206.578 162.222 206.903 161.943 207.275C161.85 207.368 161.71 207.508 161.524 207.694C161.337 207.973 161.104 208.298 160.825 208.67C160.732 208.856 160.592 208.996 160.406 209.089C160.126 209.368 159.893 209.647 159.707 209.926C159.521 210.112 159.381 210.298 159.288 210.484C159.008 210.763 158.729 211.042 158.45 211.321C158.356 211.507 158.217 211.693 158.03 211.879C157.751 212.065 157.518 212.297 157.332 212.576C157.145 212.762 156.959 212.948 156.773 213.134C156.586 213.32 156.354 213.553 156.074 213.832C155.888 214.018 155.701 214.204 155.515 214.39C155.329 214.576 155.096 214.762 154.816 214.948C154.63 215.134 154.444 215.32 154.258 215.506C154.071 215.692 153.838 215.924 153.559 216.203C153.373 216.389 153.186 216.529 153 216.622C152.814 216.901 152.581 217.133 152.301 217.319C152.115 217.412 151.929 217.552 151.742 217.738C151.556 217.924 151.323 218.11 151.044 218.296C150.857 218.482 150.671 218.668 150.485 218.854C150.205 219.04 149.972 219.226 149.786 219.412C149.507 219.505 149.274 219.644 149.087 219.83C148.901 220.016 148.668 220.202 148.389 220.388C148.202 220.481 148.016 220.621 147.83 220.807C147.55 220.9 147.318 221.039 147.131 221.225C146.852 221.411 146.619 221.551 146.433 221.644C146.153 221.83 145.92 221.969 145.734 222.062C145.548 222.248 145.315 222.388 145.035 222.481C144.849 222.667 144.616 222.806 144.337 222.899C144.15 223.085 143.917 223.225 143.638 223.318C143.452 223.411 143.219 223.55 142.939 223.736C142.753 223.829 142.52 223.922 142.241 224.015C142.054 224.201 141.821 224.341 141.542 224.434C141.356 224.527 141.123 224.62 140.843 224.713C140.657 224.899 140.424 225.038 140.145 225.131C139.865 225.224 139.632 225.317 139.446 225.41C139.166 225.503 138.934 225.596 138.747 225.689C138.468 225.782 138.188 225.875 137.909 225.968C137.723 226.061 137.49 226.154 137.21 226.247C137.024 226.34 136.791 226.433 136.512 226.526C136.325 226.619 136.092 226.712 135.813 226.805C135.533 226.898 135.254 226.991 134.974 227.084C134.788 227.084 134.602 227.131 134.416 227.224C134.136 227.317 133.857 227.41 133.577 227.503C133.298 227.503 133.065 227.549 132.878 227.642C132.599 227.735 132.32 227.828 132.04 227.921C131.761 227.921 131.528 227.921 131.341 227.921C131.062 228.014 130.736 228.107 130.363 228.2C132.226 228.479 134.089 228.619 135.953 228.619C170.746 228.619 199.112 181.886 199.112 124.552C199.112 104.045 195.479 85.0731 189.191 68.8911H177.313C183.462 84.9336 186.955 103.906 186.955 124.133C186.955 124.877 186.955 125.621 186.955 126.365Z" fill="#C9BCCE"/>
<path d="M135.391 68.891C135.018 68.891 134.646 68.891 134.273 68.891C133.901 68.891 133.528 68.891 133.155 68.891C126.448 68.891 120.999 59.963 120.999 48.9425C120.999 37.922 126.448 28.994 133.155 28.994C133.528 28.994 133.901 28.994 134.273 28.994C134.646 28.994 135.018 28.994 135.391 28.994C135.484 28.994 135.531 28.994 135.531 28.994H149.783C144.474 24.9485 138.745 22.1585 132.876 20.624C132.224 20.717 131.572 20.81 130.92 20.903C122.396 22.019 114.291 25.925 106.886 32.342C99.4797 38.6195 93.1918 47.129 87.7422 57.5915C106.187 62.0555 123.793 67.496 140.421 78.2375C160.543 91.6295 174.935 109.067 186.813 128.318C186.906 127.667 186.952 127.016 186.952 126.365C186.952 125.621 186.952 124.877 186.952 124.133C186.952 103.906 183.459 84.9335 177.311 68.891H141.539H135.531C135.531 68.891 135.484 68.891 135.391 68.891Z" fill="#DED3E2"/>
<path fill-rule="evenodd" clip-rule="evenodd" d="M87.7413 57.7313C87.7413 57.6383 87.7413 57.5918 87.7413 57.5918C106.186 62.0558 123.792 67.4963 140.421 78.2378C160.542 91.6298 174.934 109.067 186.812 128.318C186.812 129.155 186.812 129.992 186.812 130.829C186.719 131.666 186.672 132.457 186.672 133.201C186.672 133.294 186.672 133.34 186.672 133.34C186.672 134.084 186.625 134.875 186.532 135.712C186.439 136.549 186.393 137.339 186.393 138.083C186.393 138.083 186.393 138.13 186.393 138.223C186.299 138.967 186.206 139.757 186.113 140.594C186.02 141.338 185.927 142.129 185.834 142.966C185.74 143.803 185.647 144.593 185.554 145.337C185.461 146.081 185.368 146.872 185.275 147.709C185.182 148.453 185.088 149.243 184.995 150.08C182.34 167.099 177.17 182.444 170.184 194.999C170.09 194.999 170.044 194.999 170.044 194.999C169.764 195.557 169.485 196.069 169.205 196.534C169.205 196.627 169.159 196.72 169.066 196.813C168.786 197.278 168.507 197.743 168.227 198.208C168.227 198.301 168.181 198.394 168.088 198.487C167.808 198.859 167.529 199.277 167.249 199.742C167.156 199.835 167.109 199.975 167.109 200.161C166.83 200.533 166.551 200.905 166.271 201.277C166.178 201.463 166.085 201.602 165.992 201.695C165.712 202.067 165.479 202.439 165.293 202.811C165.2 202.997 165.06 203.137 164.874 203.23C164.687 203.602 164.455 203.974 164.175 204.346C164.082 204.532 163.989 204.671 163.896 204.764C163.616 205.136 163.337 205.462 163.057 205.741C162.964 205.927 162.871 206.113 162.778 206.299C162.498 206.578 162.219 206.903 161.939 207.275C161.846 207.368 161.706 207.508 161.52 207.694C161.334 207.973 161.101 208.298 160.821 208.67C160.728 208.856 160.589 208.996 160.402 209.089C160.123 209.368 159.89 209.647 159.704 209.926C159.517 210.112 159.378 210.298 159.284 210.484C159.005 210.763 158.725 211.042 158.446 211.321C158.353 211.507 158.213 211.693 158.027 211.879C157.747 212.065 157.514 212.297 157.328 212.576C157.142 212.762 156.956 212.948 156.769 213.134C156.583 213.32 156.35 213.553 156.071 213.832C155.884 214.018 155.698 214.204 155.512 214.39C155.325 214.576 155.092 214.762 154.813 214.948C154.627 215.134 154.44 215.32 154.254 215.506C154.068 215.692 153.835 215.924 153.555 216.203C153.369 216.389 153.183 216.529 152.996 216.622C152.81 216.901 152.577 217.133 152.298 217.319C152.111 217.412 151.925 217.552 151.739 217.738C151.553 217.924 151.32 218.11 151.04 218.296C150.854 218.482 150.668 218.668 150.481 218.854C150.202 219.04 149.969 219.226 149.783 219.412C149.503 219.505 149.27 219.644 149.084 219.83C148.898 220.016 148.665 220.202 148.385 220.388C148.199 220.481 148.013 220.621 147.826 220.807C147.547 220.9 147.314 221.039 147.128 221.225C146.848 221.411 146.615 221.551 146.429 221.644C146.15 221.83 145.917 221.969 145.73 222.062C145.544 222.248 145.311 222.388 145.032 222.481C144.845 222.667 144.612 222.806 144.333 222.899C144.147 223.085 143.914 223.225 143.634 223.318C143.448 223.411 143.215 223.55 142.936 223.736C142.749 223.829 142.516 223.922 142.237 224.015C142.051 224.201 141.818 224.341 141.538 224.434C141.352 224.527 141.119 224.62 140.84 224.713C140.653 224.899 140.421 225.038 140.141 225.131C139.862 225.224 139.629 225.317 139.442 225.41C139.163 225.503 138.93 225.596 138.744 225.689C138.464 225.782 138.185 225.875 137.905 225.968C137.719 226.061 137.486 226.154 137.207 226.247C137.02 226.34 136.787 226.433 136.508 226.526C136.322 226.619 136.089 226.712 135.809 226.805C135.53 226.898 135.25 226.991 134.971 227.084C134.785 227.084 134.598 227.131 134.412 227.224C134.133 227.317 133.853 227.41 133.574 227.503C133.294 227.503 133.061 227.549 132.875 227.642C132.595 227.735 132.316 227.828 132.037 227.921C131.757 227.921 131.524 227.921 131.338 227.921C131.058 228.014 130.732 228.107 130.36 228.2C129.708 228.107 129.102 228.014 128.543 227.921C113.312 224.852 99.3391 212.855 88.9989 194.023C78.6587 174.911 72.9297 150.22 72.9297 124.552C72.9297 100.139 78.2395 76.4243 87.7413 57.7313ZM111.915 126.226C111.915 147.43 122.954 164.728 136.368 164.728C136.648 164.728 136.927 164.728 137.207 164.728C137.393 164.728 137.626 164.728 137.905 164.728C151.459 164.728 162.359 147.43 162.359 126.226C162.359 104.882 151.459 87.5843 137.905 87.5843C137.626 87.5843 137.393 87.5843 137.207 87.5843C136.927 87.5843 136.648 87.5843 136.368 87.5843C122.954 87.5843 111.915 104.882 111.915 126.226Z" fill="white"/>
<path d="M199.111 124.552C199.111 181.886 170.745 228.618 135.952 228.618C134.089 228.618 132.226 228.479 130.363 228.2C129.71 228.107 129.105 228.014 128.546 227.921C113.315 224.852 99.3419 212.855 89.0017 194.023C78.6615 174.911 72.9325 150.22 72.9325 124.552C72.9325 100.139 78.2423 76.424 87.7441 57.731C87.7441 57.638 87.7441 57.5915 87.7441 57.5915C93.1937 47.129 99.4817 38.6195 106.888 32.342C114.293 25.925 122.398 22.019 130.921 20.903C131.574 20.81 132.226 20.717 132.878 20.624C133.902 20.531 134.927 20.4845 135.952 20.4845C144.755 20.4845 153.279 23.5535 160.824 28.994H163.2C154.816 22.577 145.593 19.229 135.952 19.229C134.182 19.229 132.459 19.322 130.782 19.508C121.979 20.7635 113.734 24.6695 105.909 31.3655C98.5035 37.7825 91.9361 46.4315 86.4865 57.0335C76.845 76.0055 71.5352 99.86 71.5352 124.552C71.5352 177.841 95.9883 222.899 128.267 229.177C130.782 229.642 133.344 229.874 135.952 229.874C153.279 229.874 169.488 218.854 181.644 198.905C193.661 179.096 200.369 152.591 200.369 124.552C200.369 104.603 197.015 85.4915 190.727 68.891H189.19C195.478 85.073 199.111 104.045 199.111 124.552Z" fill="#7B9FD6"/>
<path d="M136.371 164.727C136.651 164.727 136.93 164.727 137.21 164.727C123.935 164.03 113.455 147.011 113.455 126.225C113.455 105.3 123.935 88.2815 137.21 87.584C136.93 87.584 136.651 87.584 136.371 87.584C122.957 87.584 111.918 104.882 111.918 126.225C111.918 147.429 122.957 164.727 136.371 164.727Z" fill="#B2B2CC"/>
<path fill-rule="evenodd" clip-rule="evenodd" d="M137.208 87.584C137.394 87.584 137.627 87.584 137.906 87.584C151.46 87.584 162.36 104.882 162.36 126.225C162.36 147.429 151.46 164.727 137.906 164.727C137.627 164.727 137.394 164.727 137.208 164.727C123.933 164.03 113.453 147.011 113.453 126.225C113.453 105.3 123.933 88.2815 137.208 87.584ZM117.645 126.225C117.645 143.663 126.728 157.892 137.906 157.892C149.085 157.892 158.168 143.663 158.168 126.225C158.168 108.648 149.085 94.4195 137.906 94.4195C126.728 94.4195 117.645 108.648 117.645 126.225Z" fill="#D1D1E5"/>
<path fill-rule="evenodd" clip-rule="evenodd" d="M124.634 103.906C126.31 101.534 128.127 99.5811 130.083 98.1861L131.341 102.929L132.459 102.232L131.201 97.4886C133.157 96.2331 135.113 95.6751 137.349 95.5356V100.837H138.467V95.5356C140.842 95.6751 143.078 96.3727 145.034 97.7677L143.777 102.65L144.755 103.348L146.152 98.4652C147.969 99.8602 149.785 101.813 151.183 104.185L148.807 107.951L149.646 109.207L152.021 105.44C153.418 107.951 154.676 110.741 155.514 113.81L152.44 115.763L152.859 117.577L155.934 115.624C156.632 118.553 157.051 121.901 157.051 125.249H153.838V127.063H157.051C157.051 130.55 156.632 133.898 155.794 137.107L152.999 135.154L152.58 136.828L155.375 138.781C154.536 141.85 153.418 144.64 152.021 147.011L149.785 143.524L148.947 144.779L151.183 148.406C149.506 150.778 147.689 152.731 145.733 154.126L144.476 149.104L143.358 149.801L144.615 154.823C142.659 155.939 140.563 156.637 138.467 156.776V151.475H137.349V156.776C135.113 156.637 133.017 155.939 130.921 154.684L132.179 150.08L131.201 149.243L129.943 153.986C127.987 152.591 126.31 150.778 124.773 148.546L127.009 145.058L126.171 143.663L123.935 147.151C122.398 144.64 121.14 141.571 120.302 138.362L123.096 136.549L122.677 134.735L119.743 136.549C119.184 133.619 118.765 130.411 118.625 127.063H121.699V125.249H118.625C118.765 121.622 119.184 118.135 120.022 115.066L122.957 117.019L123.516 115.345L120.442 113.252C121.28 110.323 122.398 107.672 123.795 105.301L126.171 109.067L127.009 107.672L124.634 103.906ZM129.105 124.552C129.105 133.201 133.437 140.315 138.607 140.315C143.917 140.315 148.248 133.201 148.248 124.552C148.248 115.903 143.917 108.928 138.607 108.928C133.437 108.928 129.105 115.903 129.105 124.552Z" fill="#D1D1E5"/>
<path fill-rule="evenodd" clip-rule="evenodd" d="M117.645 126.226C117.645 108.649 126.727 94.4199 137.906 94.4199C149.084 94.4199 158.167 108.649 158.167 126.226C158.167 143.663 149.084 157.892 137.906 157.892C126.727 157.892 117.645 143.663 117.645 126.226ZM124.631 103.906L127.007 107.672L126.168 109.067L123.793 105.301C122.395 107.672 121.278 110.323 120.439 113.252L123.513 115.345L122.954 117.019L120.02 115.066C119.182 118.135 118.762 121.622 118.623 125.249H121.697V127.063H118.623C118.762 130.411 119.182 133.619 119.741 136.549L122.675 134.735L123.094 136.549L120.299 138.362C121.138 141.571 122.395 144.64 123.932 147.151L126.168 143.663L127.007 145.058L124.771 148.546C126.308 150.778 127.985 152.591 129.941 153.986L131.199 149.243L132.177 150.08L130.919 154.684C133.015 155.939 135.111 156.637 137.347 156.776V151.475H138.465V156.776C140.561 156.637 142.657 155.939 144.613 154.823L143.355 149.801L144.473 149.104L145.731 154.126C147.687 152.731 149.504 150.778 151.18 148.406L148.945 144.779L149.783 143.524L152.019 147.011C153.416 144.64 154.534 141.85 155.372 138.781L152.578 136.828L152.997 135.154L155.792 137.107C156.63 133.898 157.049 130.55 157.049 127.063H153.835V125.249H157.049C157.049 121.901 156.63 118.553 155.931 115.624L152.857 117.577L152.438 115.763L155.512 113.81C154.674 110.741 153.416 107.951 152.019 105.44L149.643 109.207L148.805 107.951L151.18 104.185C149.783 101.813 147.966 99.8604 146.15 98.4654L144.753 103.348L143.775 102.65L145.032 97.7679C143.076 96.3729 140.84 95.6754 138.465 95.5359V100.837H137.347V95.5359C135.111 95.6754 133.155 96.2334 131.199 97.4889L132.456 102.232L131.338 102.929L130.081 98.1864C128.124 99.5814 126.308 101.534 124.631 103.906Z" fill="#8E8EAF"/>
<path fill-rule="evenodd" clip-rule="evenodd" d="M129.105 124.552C129.105 115.903 133.437 108.928 138.607 108.928C143.917 108.928 148.249 115.903 148.249 124.552C148.249 133.201 143.917 140.315 138.607 140.315C133.437 140.315 129.105 133.201 129.105 124.552ZM134.555 130.411H143.358V118.693H134.555V130.411Z" fill="#4B3C4F"/>
<path d="M142.1 126.923C142.473 127.016 142.892 127.062 143.358 127.062V118.692H134.555V121.901C136.092 124.551 139.026 126.365 142.1 126.923Z" fill="#FF5F5F"/>
<path d="M143.358 127.063C142.892 127.063 142.473 127.016 142.1 126.923C139.026 126.365 136.092 124.552 134.555 121.901V130.411H143.358V127.063Z" fill="#E84949"/>
<path d="M121 48.9426C121 59.9631 126.45 68.8911 133.157 68.8911C133.529 68.8911 133.902 68.8911 134.275 68.8911C128.126 67.9146 123.236 59.4051 123.236 48.9426C123.236 38.4801 128.126 29.9706 134.275 28.9941C133.902 28.9941 133.529 28.9941 133.157 28.9941C126.45 28.9941 121 37.9221 121 48.9426Z" fill="#75617C"/>
<path d="M160.822 28.9941H149.784H135.531C135.531 28.9941 135.484 28.9941 135.391 28.9941C135.018 28.9941 134.646 28.9941 134.273 28.9941C128.125 29.9706 123.234 38.4801 123.234 48.9426C123.234 59.4051 128.125 67.9146 134.273 68.8911C134.646 68.8911 135.018 68.8911 135.391 68.8911C135.484 68.8911 135.531 68.8911 135.531 68.8911H141.539C141.632 67.3102 141.726 65.7291 141.819 64.1481H136.509C135.671 64.1481 134.972 63.7297 134.553 63.0322C134.134 62.3347 134.134 61.4976 134.553 60.8001L136.649 57.3126L140.561 50.6166C140.98 49.9191 141.679 49.5006 142.378 49.5006C143.216 49.5006 143.915 49.9191 144.334 50.6166L145.033 51.8722C149.085 42.2467 156.211 34.4346 165.014 28.9941H163.198H160.822Z" fill="#EEE7F2"/>
<path d="M205.537 57.7311C203.86 55.9176 202.742 53.8251 202.462 51.7326H202.043C201.624 51.7326 201.345 51.4536 201.345 51.0351V49.7797C201.345 49.3612 201.624 49.0822 202.043 49.0822H202.323V28.9941H165.014C156.211 34.4346 149.085 42.2467 145.032 51.8722L150.342 60.8001C150.529 61.1721 150.622 61.5441 150.622 61.9161C150.622 62.2881 150.529 62.6602 150.342 63.0322C149.923 63.7297 149.224 64.1481 148.386 64.1481H141.819C141.725 65.7291 141.632 67.3102 141.539 68.8911H177.311H189.188H190.725H213.222H216.156L205.537 57.7311Z" fill="white"/>
<path d="M249.834 60.6604C260.175 74.4709 278.06 76.8424 294.13 78.5164C301.955 79.2139 309.78 79.0744 317.465 78.2374L338.006 57.7309C339.822 55.9174 340.8 53.8249 341.219 51.7324H245.922C246.621 54.9409 247.878 58.0099 249.834 60.6604Z" fill="#C9BCCE"/>
<path d="M294.129 78.5164C278.06 76.8424 260.174 74.4709 249.834 60.6604C247.878 58.0099 246.62 54.9409 245.922 51.7324H202.465C202.744 53.8249 203.862 55.9174 205.539 57.7309L216.159 68.8909L219.931 72.9364C223.564 76.7029 227.896 79.6324 232.787 81.5854H279.737H313.273C314.67 80.7484 315.974 79.7254 317.185 78.5164L317.465 78.2374C309.779 79.0744 301.954 79.2139 294.129 78.5164Z" fill="#B8A9BF"/>
<path fill-rule="evenodd" clip-rule="evenodd" d="M269.676 16.7178H329.202C335.909 16.7178 341.359 22.1583 341.359 28.8543V49.0818H252.349C251.79 42.6648 252.628 36.2478 255.703 30.6678C259.056 24.6693 263.947 20.0658 269.676 16.7178ZM300.976 38.0613C300.696 38.7588 300.696 39.5958 300.976 40.2933C301.395 40.9908 302.094 41.4093 302.932 41.4093H314.809C315.648 41.4093 316.347 40.9908 316.766 40.2933C316.952 39.9213 317.045 39.5028 317.045 39.0378C317.045 38.6658 316.952 38.3403 316.766 38.0613L310.757 27.7383C310.338 27.0408 309.639 26.6223 308.941 26.6223C308.102 26.6223 307.404 27.0408 306.984 27.7383L303.072 34.4343L300.976 38.0613Z" fill="#DED3E2"/>
<path d="M202.324 28.8543V28.9938V49.0818H252.348C251.79 42.6648 252.628 36.2478 255.702 30.6678C259.056 24.6693 263.946 20.0658 269.675 16.7178H214.341C213.969 16.7178 213.596 16.7178 213.223 16.7178C207.075 17.2758 202.324 22.5768 202.324 28.8543Z" fill="#C9BCCE"/>
<path fill-rule="evenodd" clip-rule="evenodd" d="M279.736 81.5859H313.272V96.3729C313.272 98.1864 311.735 99.7209 309.919 99.7209H258.637C260.174 95.5359 262.689 91.7694 266.322 88.5609C270.374 85.2129 274.846 82.9809 279.736 81.5859ZM295.945 95.1175C295.945 94.9315 295.852 94.699 295.666 94.42L291.474 87.1659C291.194 86.6079 290.635 86.3289 290.077 86.3289C289.518 86.3289 289.098 86.6079 288.819 87.1659L286.024 91.9089L284.487 94.42C284.208 94.978 284.208 95.536 284.487 95.9545C284.767 96.5125 285.326 96.7914 285.885 96.7914H294.269C294.967 96.7914 295.386 96.5125 295.666 95.9545C295.852 95.6755 295.945 95.3965 295.945 95.1175Z" fill="#EEE7F2"/>
<path d="M241.588 99.7209H243.684H244.523H246.758H247.597H249.693H250.531H252.767H253.605H255.701H256.54H258.636C260.173 95.5359 262.688 91.7694 266.321 88.5609C270.373 85.2129 274.845 82.9809 279.735 81.5859H232.785V96.3729C232.785 98.1864 234.322 99.7209 236.139 99.7209H239.353H240.75H241.588Z" fill="#DED3E2"/>
<path d="M341.775 49.082H341.356H252.346H202.322H202.042C201.623 49.082 201.344 49.361 201.344 49.7795V51.035C201.344 51.4535 201.623 51.7325 202.042 51.7325H202.462H245.918H341.216H341.775C342.054 51.7325 342.474 51.4535 342.474 51.035V49.7795C342.474 49.361 342.054 49.082 341.775 49.082Z" fill="#64496D"/>
<path fill-rule="evenodd" clip-rule="evenodd" d="M307.824 37.9219C306.426 37.2709 305.169 36.4339 304.051 35.4109L307.963 28.4359C308.243 28.0174 308.522 27.8779 308.941 27.8779C309.221 27.8779 309.64 28.0174 309.78 28.4359L315.649 38.6194C315.742 38.8054 315.788 38.9914 315.788 39.1774C313.972 39.3169 312.295 39.1774 310.478 38.7589C310.572 38.7589 310.618 38.7589 310.618 38.7589L309.64 36.9454C309.454 37.0384 309.221 37.0849 308.941 37.0849C308.662 37.0849 308.429 37.0384 308.243 36.9454L307.824 37.9219ZM309.64 35.8294C309.64 35.5504 309.361 35.1319 308.941 35.1319C308.522 35.1319 308.243 35.5504 308.243 35.8294C308.243 36.2479 308.522 36.6664 308.941 36.6664C309.361 36.6664 309.64 36.2479 309.64 35.8294ZM309.64 34.7134C309.92 34.9924 310.199 35.4109 310.199 35.8294C310.199 35.9224 310.199 35.9689 310.199 35.9689L312.295 36.1084C312.295 36.0154 312.295 35.9224 312.295 35.8294C312.295 34.7134 311.596 33.5974 310.618 33.0394L309.64 34.7134ZM305.588 35.8294C305.588 35.9224 305.588 36.0619 305.588 36.2479L307.684 35.9689C307.684 35.8759 307.684 35.8294 307.684 35.8294C307.684 35.2714 307.963 34.8529 308.243 34.5739L307.404 32.7604C306.286 33.3184 305.588 34.4344 305.588 35.8294Z" fill="#FFDE80"/>
<path d="M310.477 38.7591C310.011 39.0381 309.499 39.1776 308.94 39.1776C308.288 39.1776 307.729 39.0381 307.263 38.7591L307.822 37.9221C306.425 37.2711 305.167 36.4341 304.049 35.4111L302.093 38.6196C301.953 39.0381 301.953 39.3171 302.093 39.5961C302.233 40.0146 302.652 40.1541 302.931 40.1541H314.809C315.228 40.1541 315.507 40.0146 315.647 39.5961C315.74 39.5031 315.787 39.3636 315.787 39.1776C313.97 39.3171 312.294 39.1776 310.477 38.7591Z" fill="#FFCC4D"/>
<path d="M300.975 40.2936C301.394 40.9911 302.093 41.4096 302.931 41.4096H314.809C315.647 41.4096 316.346 40.9911 316.765 40.2936C316.951 39.9216 317.044 39.5031 317.044 39.0381C316.672 39.1311 316.253 39.1776 315.787 39.1776C315.787 39.3636 315.74 39.5031 315.647 39.5961C315.507 40.0146 315.228 40.1541 314.809 40.1541H302.931C302.652 40.1541 302.233 40.0146 302.093 39.5961C301.953 39.3171 301.953 39.0381 302.093 38.6196L304.049 35.4111C303.677 35.1321 303.351 34.8066 303.071 34.4346L300.975 38.0616C300.696 38.7591 300.696 39.5961 300.975 40.2936Z" fill="#3E3242"/>
<path d="M304.048 35.4111L307.961 28.4361C308.24 28.0176 308.52 27.8781 308.939 27.8781C309.219 27.8781 309.638 28.0176 309.777 28.4361L315.646 38.6196C315.739 38.8056 315.786 38.9916 315.786 39.1776C316.252 39.1776 316.671 39.1311 317.044 39.038C317.044 38.666 316.95 38.3406 316.764 38.0616L310.756 27.7386C310.336 27.0411 309.638 26.6226 308.939 26.6226C308.101 26.6226 307.402 27.0411 306.983 27.7386L303.07 34.4346C303.35 34.8066 303.676 35.1321 304.048 35.4111Z" fill="#4B3C4F"/>
<path d="M307.541 35.9694C307.541 35.9694 307.541 35.9229 307.541 35.8299C307.541 35.4114 307.821 34.8534 308.24 34.7139L307.262 32.9004C306.284 33.4584 305.445 34.5744 305.445 35.8299C305.445 36.0159 305.492 36.1554 305.585 36.2484L307.541 35.9694Z" fill="#4B3C4F"/>
<path d="M310.199 35.8299L312.295 35.9694C312.295 35.9694 312.295 35.9229 312.295 35.8299C312.295 34.5744 311.596 33.4584 310.618 32.9004L309.5 34.7139C309.919 34.9929 310.199 35.4114 310.199 35.8299Z" fill="#4B3C4F"/>
<path d="M309.637 36.9453C309.451 37.0383 309.218 37.0848 308.939 37.0848C308.659 37.0848 308.426 37.0383 308.24 36.9453L307.821 37.9218L307.262 38.7588C307.727 39.0378 308.286 39.1773 308.939 39.1773C309.497 39.1773 310.01 39.0378 310.476 38.7588C310.569 38.7588 310.615 38.7588 310.615 38.7588L309.637 36.9453Z" fill="#4B3C4F"/>
<path d="M309.64 35.8293C309.64 35.4108 309.22 35.1318 308.941 35.1318C308.522 35.1318 308.242 35.4108 308.242 35.8293C308.242 36.2478 308.522 36.5268 308.941 36.5268C309.22 36.5268 309.64 36.2478 309.64 35.8293Z" fill="#4B3C4F"/>
<path fill-rule="evenodd" clip-rule="evenodd" d="M289.377 94.2802C288.352 93.9082 287.42 93.3037 286.582 92.4667L289.516 87.5842C289.61 87.3982 289.796 87.3052 290.075 87.3052C290.355 87.3052 290.588 87.3982 290.774 87.5842L294.966 94.8382C295.059 94.9312 295.106 95.0707 295.106 95.2567C293.802 95.3497 292.544 95.2567 291.333 94.9777C291.333 94.9777 291.333 94.9312 291.333 94.8382L290.634 93.5827C290.541 93.7687 290.355 93.8617 290.075 93.8617C289.889 93.8617 289.749 93.8152 289.656 93.7222L289.377 94.2802ZM290.634 92.7457C290.634 92.4667 290.495 92.3272 290.215 92.3272C289.936 92.3272 289.656 92.4667 289.656 92.7457C289.656 93.0247 289.936 93.3037 290.215 93.3037C290.495 93.3037 290.634 93.0247 290.634 92.7457ZM290.634 92.0482C290.914 92.1877 291.053 92.4667 291.053 92.7457L292.591 92.8852C292.591 92.8852 292.591 92.8387 292.591 92.7457C292.591 91.9087 292.032 91.0717 291.333 90.6532L290.634 92.0482ZM287.84 92.8852C287.84 92.9782 287.84 93.0712 287.84 93.1642L289.237 93.0247C289.237 93.0247 289.237 92.9782 289.237 92.8852C289.237 92.6062 289.377 92.1877 289.656 92.0482L289.097 90.7927C288.259 91.2112 287.84 92.0482 287.84 92.8852Z" fill="#FFDE80"/>
<path d="M285.323 95.5358C285.416 95.8148 285.603 95.9543 285.882 95.9543H294.266C294.546 95.9543 294.779 95.8148 294.965 95.5358C295.058 95.4428 295.105 95.3498 295.105 95.2568C293.8 95.3498 292.543 95.2568 291.332 94.9778C290.959 95.1638 290.54 95.2568 290.074 95.2568C289.702 95.2568 289.329 95.1638 288.956 94.9778L289.376 94.2803C288.351 93.9083 287.419 93.3038 286.581 92.4668V92.6063L285.323 94.8383C285.137 95.1173 285.137 95.3498 285.323 95.5358Z" fill="#FFCC4D"/>
<path d="M295.107 95.2567C295.107 95.3497 295.06 95.4427 294.967 95.5357C294.781 95.8147 294.548 95.9542 294.268 95.9542H285.884C285.605 95.9542 285.418 95.8147 285.325 95.5357C285.139 95.3497 285.139 95.1172 285.325 94.8382L286.583 92.6062C286.397 92.3272 286.21 92.0947 286.024 91.9087L284.487 94.4197C284.207 94.9777 284.207 95.5357 284.487 95.9542C284.766 96.5122 285.325 96.7912 285.884 96.7912H294.268C294.967 96.7912 295.386 96.5122 295.666 95.9542C295.852 95.6752 295.945 95.3962 295.945 95.1172C295.666 95.2102 295.386 95.2567 295.107 95.2567Z" fill="#3E3242"/>
<path d="M291.473 87.1656C291.194 86.6076 290.635 86.3286 290.076 86.3286C289.517 86.3286 289.098 86.6076 288.818 87.1656L286.023 91.9086C286.21 92.0946 286.396 92.3271 286.582 92.6061V92.4666L289.517 87.5841C289.61 87.3981 289.796 87.3051 290.076 87.3051C290.355 87.3051 290.588 87.3981 290.774 87.5841L294.966 94.8381C295.06 94.9311 295.106 95.0706 295.106 95.2566C295.386 95.2566 295.665 95.2101 295.944 95.1171C295.944 94.9311 295.851 94.6986 295.665 94.4196L291.473 87.1656Z" fill="#4B3C4F"/>
<path d="M289.236 93.0245C289.236 92.9315 289.236 92.885 289.236 92.885C289.236 92.4665 289.376 92.1875 289.655 92.048L288.957 90.7925C288.258 91.211 287.699 91.9085 287.699 92.885C287.699 92.978 287.699 93.071 287.699 93.164L289.236 93.0245Z" fill="#4B3C4F"/>
<path d="M291.052 92.885L292.449 93.0245C292.449 92.9315 292.449 92.885 292.449 92.885C292.449 92.048 292.03 91.211 291.331 90.7925L290.633 92.048C290.912 92.1875 291.052 92.4665 291.052 92.885Z" fill="#4B3C4F"/>
<path d="M290.634 93.5825C290.541 93.7685 290.354 93.8615 290.075 93.8615C289.889 93.8615 289.749 93.815 289.656 93.722L289.376 94.28L288.957 94.9775C289.33 95.1635 289.702 95.2565 290.075 95.2565C290.541 95.2565 290.96 95.1635 291.333 94.9775C291.333 94.9775 291.333 94.931 291.333 94.838L290.634 93.5825Z" fill="#4B3C4F"/>
<path d="M290.634 92.8851C290.634 92.6061 290.355 92.3271 290.075 92.3271C289.796 92.3271 289.656 92.6061 289.656 92.8851C289.656 93.1641 289.796 93.4431 290.075 93.4431C290.355 93.4431 290.634 93.1641 290.634 92.8851Z" fill="#4B3C4F"/>
<path fill-rule="evenodd" clip-rule="evenodd" d="M141.261 60.6603C139.864 60.1023 138.606 59.2654 137.488 58.1494L141.541 51.1744C141.68 50.8954 142.099 50.7559 142.379 50.7559C142.798 50.7559 143.078 50.8954 143.357 51.1744L149.226 61.4974C149.319 61.6834 149.366 61.8229 149.366 61.9159C147.549 62.0554 145.732 62.0554 144.056 61.6369C144.149 61.5439 144.195 61.4974 144.195 61.4974L143.217 59.6839C142.938 59.8699 142.658 59.9628 142.379 59.9628C142.193 59.9628 142.006 59.9164 141.82 59.8234L141.261 60.6603ZM143.078 58.5678C143.078 58.1493 142.658 57.8703 142.379 57.8703C141.96 57.8703 141.541 58.1493 141.541 58.5678C141.541 58.9863 141.96 59.2653 142.379 59.2653C142.658 59.2653 143.078 58.9863 143.078 58.5678ZM144.056 55.6384L142.938 57.4519C143.357 57.7309 143.637 58.1493 143.637 58.5678L145.732 58.7074C145.732 58.6144 145.732 58.5678 145.732 58.5678C145.732 57.3123 145.034 56.1964 144.056 55.6384ZM138.886 58.5678C138.886 58.7538 138.932 58.8934 139.025 58.9864L140.982 58.7074C140.982 58.7074 140.982 58.6608 140.982 58.5678C140.982 58.0098 141.261 57.5914 141.68 57.4519L140.702 55.6384C139.724 56.1964 138.886 57.3123 138.886 58.5678Z" fill="#FFDE80"/>
<path d="M135.671 62.4739C135.81 62.7529 136.09 63.0319 136.509 63.0319H148.386C148.666 63.0319 149.085 62.7529 149.225 62.4739C149.318 62.2879 149.364 62.1019 149.364 61.9159C147.548 62.0554 145.731 62.0554 144.054 61.6369C143.589 61.9159 143.03 62.0554 142.378 62.0554C141.819 62.0554 141.306 61.9159 140.841 61.6369L141.26 60.6604C139.863 60.1024 138.605 59.2654 137.487 58.1494L135.671 61.4974C135.391 61.7764 135.391 62.1949 135.671 62.4739Z" fill="#FFCC4D"/>
<path d="M149.364 61.916C149.364 62.102 149.318 62.288 149.225 62.474C149.085 62.753 148.666 63.032 148.386 63.032H136.509C136.09 63.032 135.81 62.753 135.671 62.474C135.391 62.195 135.391 61.7765 135.671 61.4975L137.487 58.1495C137.208 57.8705 136.928 57.5915 136.649 57.3125L134.553 60.8C134.133 61.4975 134.133 62.3345 134.553 63.032C134.972 63.7295 135.671 64.148 136.509 64.148H141.819H148.386C149.225 64.148 149.923 63.7295 150.342 63.032C150.529 62.66 150.622 62.288 150.622 61.916C150.156 61.916 149.737 61.916 149.364 61.916Z" fill="#3E3242"/>
<path d="M142.377 49.5005C141.679 49.5005 140.98 49.919 140.561 50.6165L136.648 57.3125C136.928 57.5915 137.207 57.8705 137.487 58.1495L141.539 51.1745C141.679 50.8955 142.098 50.756 142.377 50.756C142.797 50.756 143.076 50.8955 143.356 51.1745L149.224 61.4975C149.318 61.6835 149.364 61.823 149.364 61.916C149.737 61.916 150.156 61.916 150.622 61.916C150.622 61.544 150.529 61.172 150.342 60.8L145.032 51.872L144.334 50.6165C143.915 49.919 143.216 49.5005 142.377 49.5005Z" fill="#4B3C4F"/>
<path d="M141.119 58.8472C141.119 58.7542 141.119 58.7077 141.119 58.7077C141.119 58.1497 141.399 57.7312 141.818 57.4522L140.84 55.6387C139.722 56.1967 139.023 57.3127 139.023 58.7077C139.023 58.8007 139.023 58.9402 139.023 59.1262L141.119 58.8472Z" fill="#4B3C4F"/>
<path d="M143.215 59.6841C142.936 59.8701 142.656 59.9631 142.377 59.9631C142.191 59.9631 142.004 59.9166 141.818 59.8236L141.259 60.6606L140.84 61.6371C141.306 61.9161 141.818 62.0556 142.377 62.0556C143.029 62.0556 143.588 61.9161 144.054 61.6371C144.147 61.5441 144.193 61.4976 144.193 61.4976L143.215 59.6841Z" fill="#4B3C4F"/>
<path d="M143.078 57.5918C143.497 57.7313 143.777 58.1498 143.777 58.7078L145.873 58.8473C145.873 58.7543 145.873 58.7078 145.873 58.7078C145.873 57.4523 145.174 56.3363 144.196 55.7783L143.078 57.5918Z" fill="#4B3C4F"/>
<path d="M143.217 58.7076C143.217 58.2891 142.798 57.8706 142.378 57.8706C142.099 57.8706 141.68 58.2891 141.68 58.7076C141.68 58.9866 142.099 59.4051 142.378 59.4051C142.798 59.4051 143.217 58.9866 143.217 58.7076Z" fill="#4B3C4F"/>
<g opacity="0.2">
<path d="M154.534 124.551C154.534 133.758 149.643 141.291 143.495 141.291C137.347 141.291 132.316 133.758 132.316 124.551C132.316 115.205 137.347 107.672 143.495 107.672C149.643 107.672 154.534 115.205 154.534 124.551Z" fill="#FF5555"/>
</g>
<g opacity="0.2">
<path d="M146.292 124.552C146.292 130.271 143.358 134.875 139.585 134.875C135.812 134.875 132.738 130.271 132.738 124.552C132.738 118.972 135.812 114.368 139.585 114.368C143.358 114.368 146.292 118.972 146.292 124.552Z" fill="#FF5555"/>
</g>
<path d="M267.718 242.15C267.252 242.15 266.833 242.057 266.46 241.871H264.364C261.15 241.871 258.355 244.522 258.355 247.87V248.149H291.612C298.459 244.522 306.982 242.987 315.227 242.15H267.718Z" fill="#B8A9BF"/>
<path d="M315.228 242.15C306.984 242.987 298.46 244.522 291.613 248.149H387.19V247.87C387.19 244.522 384.535 241.871 381.182 241.871H379.226C378.853 242.057 378.48 242.15 378.108 242.15H315.228Z" fill="#C9BCCE"/>
<path d="M261.848 205.322C249.133 202.951 236.277 200.579 223.841 196.813C211.684 193.186 203.72 189.419 201.065 186.49C197.292 182.305 210.147 183.7 211.125 183.839C231.526 185.653 252.067 187.187 272.608 187.606C280.247 187.699 287.885 187.792 295.524 187.885C301.113 188.024 306.703 187.745 312.152 189.28C314.248 189.838 316.903 190.954 319.139 192.349C326.125 189.373 332.879 185.885 339.4 181.886C343.592 179.282 347.691 176.446 351.696 173.377H269.673C268.416 177.562 264.364 180.631 259.752 180.631H192.401C187.79 180.631 183.878 177.562 182.48 173.377H167.249C167.249 173.377 163.616 185.095 199.108 196.813C209.169 200.161 220.068 203.23 230.688 206.299C241.028 206.159 251.368 205.741 261.848 205.322Z" fill="#DED3E2"/>
<path d="M351.696 173.377C347.69 176.446 343.591 179.282 339.399 181.886C332.879 185.885 326.125 189.373 319.138 192.349C322.771 194.86 325.566 198.487 323.889 202.951C321.653 209.089 312.291 209.507 306.842 209.926C297.759 210.484 288.677 209.507 279.734 208.252C276.473 207.694 273.166 207.182 269.813 206.717C267.204 206.252 264.549 205.787 261.848 205.322C251.368 205.741 241.028 206.159 230.688 206.299C241.726 209.368 252.206 212.437 261.009 215.645H364.132C355.329 204.067 351.556 188.024 377.407 173.377H351.696Z" fill="#C9BCCE"/>
<path d="M182.063 170.168C182.063 169.796 182.063 169.424 182.063 169.052H157.749C157.656 169.145 157.609 169.284 157.609 169.47V172.121C157.609 172.818 158.168 173.376 158.867 173.376H167.251H182.482C182.202 172.353 182.063 171.284 182.063 170.168Z" fill="white"/>
<path d="M183.737 164.449C183.271 164.356 182.852 164.216 182.479 164.03C178.427 162.635 174.515 160.682 170.882 158.45H165.152C161.519 158.45 158.445 161.519 158.445 165.146V165.983H182.899C183.178 165.425 183.457 164.914 183.737 164.449Z" fill="#7878FF"/>
<path d="M183.738 164.449C185.555 161.659 188.769 159.845 192.402 159.845H193.659H210.287C209.17 159.706 207.912 159.287 206.654 158.45H170.883C174.516 160.682 178.428 162.635 182.481 164.03C182.853 164.216 183.272 164.356 183.738 164.449Z" fill="#6161E2"/>
<path d="M231.246 158.729C231.246 158.636 231.246 158.543 231.246 158.45H231.106H218.251C217.133 159.148 216.155 159.148 215.456 158.729C214.478 159.287 213.36 159.706 212.242 159.845H231.246C231.246 159.473 231.246 159.101 231.246 158.729Z" fill="#6161E2"/>
<path d="M374.055 158.59C373.776 159.427 373.357 160.124 372.518 160.403C371.96 160.543 371.121 160.403 370.562 160.124C369.724 159.566 368.047 159.427 366.65 159.427C363.715 160.264 344.432 165.286 336.887 164.728C329.481 164.17 324.311 161.938 321.376 160.403L319.42 160.822L315.228 161.798C315.228 161.798 310.757 163.472 302.792 164.867C303.071 164.96 303.211 165.007 303.211 165.007C303.211 165.007 302.932 165.565 301.395 165.565C300.836 165.565 300.137 165.425 299.438 165.286C298.507 165.472 297.529 165.611 296.504 165.704C296.69 165.797 296.877 165.89 297.063 165.983H372.379C373.869 165.239 375.313 164.309 376.71 163.193C378.108 162.217 379.086 160.264 378.946 158.45H374.335C374.242 158.543 374.149 158.59 374.055 158.59Z" fill="#6161E2"/>
<path d="M376.711 163.193C375.313 164.309 373.869 165.239 372.379 165.983H388.588V165.146C388.588 161.519 385.514 158.45 381.881 158.45H378.946C379.086 160.264 378.108 162.217 376.711 163.193Z" fill="#7878FF"/>
<path d="M390.122 165.983H388.585H372.376H297.06C298.597 166.82 300.274 167.797 300.274 167.797C300.274 167.797 299.855 168.355 298.318 167.936C296.781 167.518 294.266 166.402 293.288 166.262C288.816 166.96 287.279 166.681 286.72 166.402C283.786 166.96 277.498 167.657 269.812 167.657C269.999 168.122 270.092 168.587 270.092 169.052H389.144H390.122C390.541 169.052 390.961 168.634 390.961 168.076V166.82C390.961 166.402 390.541 165.983 390.122 165.983Z" fill="#C9BCCE"/>
<path d="M182.9 165.983H158.447H157.189C156.63 165.983 156.211 166.401 156.211 166.82V168.075C156.211 168.633 156.63 169.052 157.189 169.052H157.748H182.061C182.248 167.936 182.527 166.913 182.9 165.983Z" fill="#C9BCCE"/>
<path d="M314.247 147.848C314.806 147.941 315.319 148.034 315.784 148.127C316.53 148.313 317.182 148.453 317.741 148.546C318.439 148.127 319.138 147.848 319.976 147.709C321.374 147.569 323.05 148.546 324.028 149.243L330.875 150.22L335.906 150.778L345.967 152.173C345.873 152.173 345.78 152.126 345.687 152.033C337.443 148.825 329.199 147.011 320.815 145.895C320.256 145.802 319.697 145.709 319.138 145.616C318.952 145.616 318.765 145.616 318.579 145.616C317.834 145.523 317.135 145.384 316.483 145.198C314.713 145.012 312.99 144.826 311.313 144.64C311.22 145.477 311.033 146.36 310.754 147.29L314.247 147.848Z" fill="#EAB1A0"/>
<path d="M311.314 144.639C312.991 144.825 314.714 145.011 316.484 145.197C317.136 145.383 317.835 145.523 318.58 145.616C318.766 145.616 318.953 145.616 319.139 145.616C319.698 145.709 320.257 145.802 320.816 145.895C329.2 147.011 337.444 148.824 345.688 152.033C345.781 152.126 345.875 152.172 345.968 152.172L363.015 154.404C365.67 153.009 369.163 150.08 371.679 147.429C372.377 145.058 374.613 142.407 373.495 137.804C372.237 135.851 371.259 136.409 370.98 138.083C370.84 139.757 366.508 147.15 359.801 148.406L335.069 142.826L323.75 140.175C322.772 139.338 321.375 138.362 319.977 138.362C319.139 138.362 318.301 138.641 317.742 138.92C317.183 138.734 316.577 138.548 315.925 138.362C314.248 137.804 312.152 137.106 310.336 136.827C310.615 137.664 311.733 140.733 311.314 144.639Z" fill="#FFCDBB"/>
<path d="M267.995 134.875C266.877 134.782 265.806 134.735 264.781 134.735C265.992 134.828 267.157 135.014 268.275 135.293C268.181 135.107 268.088 134.968 267.995 134.875Z" fill="#543D5E"/>
<path d="M285.882 142.686C286.068 142.965 286.301 143.198 286.58 143.384C287.325 143.663 288.117 143.942 288.956 144.221C289.095 144.36 289.095 144.5 289.095 144.5C289.095 144.593 289.095 144.639 289.095 144.639L304.326 146.592C304.047 146.313 303.767 146.081 303.488 145.895C303.488 145.755 303.348 145.616 303.488 145.476C303.628 145.476 303.767 145.476 303.767 145.476C304.233 145.848 304.652 146.22 305.025 146.592L310.754 147.29C311.033 146.36 311.22 145.476 311.313 144.639C311.732 140.733 310.614 137.664 310.335 136.827C310.242 136.641 310.195 136.548 310.195 136.548C307.54 135.851 303.069 135.014 296.781 134.735C299.575 137.804 300.553 141.291 299.855 145.616C299.855 145.802 299.762 145.895 299.575 145.895C299.436 145.895 299.296 145.755 299.296 145.616C300.134 141.431 299.156 137.943 296.361 135.014C296.268 134.921 296.268 134.828 296.361 134.735C292.589 134.595 288.257 134.735 283.366 135.293C277.777 135.153 272.747 135.014 268.555 134.874C268.741 135.06 268.881 135.246 268.974 135.432C277.078 136.967 283.925 139.757 285.882 142.686Z" fill="#543D5E"/>
<path d="M319.419 160.822L321.375 160.403C324.31 161.938 329.48 164.17 336.886 164.728C344.431 165.286 363.714 160.264 366.649 159.427C368.046 159.427 369.723 159.566 370.561 160.124C371.12 160.403 371.958 160.543 372.517 160.403C373.356 160.124 373.775 159.427 374.054 158.59C371.399 157.613 368.465 157.474 364.972 158.032C358.358 159.055 351.884 159.566 345.549 159.566C339.121 159.566 332.833 159.008 326.685 158.032C323.751 157.474 320.677 157.195 317.742 157.055C318.208 158.357 318.767 159.613 319.419 160.822Z" fill="#DDA092"/>
<path d="M315.227 161.798L319.419 160.822C318.766 159.613 318.208 158.357 317.742 157.055C316.996 157.055 316.298 157.055 315.646 157.055C315.646 159.985 315.227 161.798 315.227 161.798Z" fill="#C6867B"/>
<path d="M315.787 148.127C315.321 148.034 314.809 147.941 314.25 147.848C315.368 151.057 315.647 154.126 315.647 156.637C316.299 156.637 316.905 156.637 317.464 156.637C316.486 153.847 315.927 151.057 315.787 148.127Z" fill="#C6867B"/>
<path d="M363.015 154.404L345.967 152.172L335.907 150.777C335.907 150.777 327.662 150.638 324.588 154.265C325.846 151.475 324.029 149.243 324.029 149.243C323.051 148.545 321.374 147.569 319.977 147.708C319.139 147.848 318.44 148.127 317.741 148.545C317.182 148.452 316.53 148.313 315.785 148.127C315.925 151.056 316.484 153.846 317.462 156.636C320.536 156.776 323.75 156.915 326.684 157.473C339.12 159.705 351.557 159.705 364.831 157.613C368.464 156.915 371.399 157.194 374.193 158.171C374.613 156.776 374.613 155.241 374.752 153.846C375.032 150.917 378.805 148.406 378.106 142.826C376.988 140.594 376.01 141.012 375.591 142.826C375.311 143.523 373.774 145.476 371.678 147.429C369.163 150.08 365.67 153.009 363.015 154.404Z" fill="#DDA092"/>
<path d="M296.222 165.007C296.036 165.007 295.803 165.053 295.523 165.146C295.896 165.332 296.222 165.518 296.502 165.704C297.526 165.611 298.504 165.472 299.436 165.286C298.039 165.146 296.781 165.007 296.222 165.007Z" fill="#64496D"/>
<path d="M293.709 160.124C294.687 160.124 296.923 160.403 298.46 160.543C299.159 160.682 299.857 160.822 299.997 160.822C300.09 160.822 300.137 160.822 300.137 160.822C300.137 160.822 300.137 161.519 298.6 161.798C298.227 161.798 297.808 161.798 297.342 161.798C297.528 161.891 297.668 161.938 297.761 161.938C297.575 161.938 297.389 161.938 297.202 161.938C298.32 162.217 299.857 162.496 300.975 162.775C301.953 163.054 302.652 163.333 302.652 163.333C302.652 163.333 302.512 164.03 300.975 164.03C300.696 164.03 300.37 163.984 299.997 163.891C300.37 164.077 300.742 164.216 301.115 164.309L302.652 164.728C302.652 164.821 302.698 164.867 302.792 164.867C310.756 163.472 315.228 161.798 315.228 161.798C315.228 161.798 315.647 159.985 315.647 157.055C313.225 157.055 310.803 157.102 308.381 157.195C308.241 159.706 307.682 162.077 307.263 163.751C307.263 163.937 307.17 164.03 306.984 164.03C306.844 163.891 306.704 163.751 306.844 163.751C307.263 161.938 307.682 159.706 307.822 157.195C306.611 157.288 305.353 157.334 304.049 157.334C300.276 157.613 296.364 157.753 292.591 157.753C285.744 157.613 279.317 156.916 273.448 155.66C273.261 157.241 272.982 158.822 272.609 160.403C278.618 160.822 285.325 161.938 286.722 162.077C288.679 161.38 292.451 160.124 293.709 160.124Z" fill="#64496D"/>
<path d="M264.223 159.984C264.316 160.077 264.409 160.124 264.502 160.124H264.642L264.223 159.984Z" fill="#64496D"/>
<path d="M285.884 142.687C283.928 139.757 277.081 136.967 268.977 135.433C270.001 136.828 270.886 138.409 271.631 140.176C272.004 140.269 272.33 140.315 272.61 140.315C277.081 141.013 281.832 141.85 286.583 143.384C286.303 143.198 286.071 142.966 285.884 142.687Z" fill="#64496D"/>
<path d="M289.096 144.639C289.003 144.732 288.91 144.732 288.817 144.639C283.228 142.547 277.778 141.57 272.608 140.873C272.328 140.78 272.049 140.733 271.77 140.733C272.608 143.058 273.12 145.755 273.307 148.824C273.446 150.777 273.586 153.009 273.446 155.241C279.315 156.497 285.743 157.194 292.59 157.194C296.362 157.194 300.275 157.055 304.048 156.915C305.352 156.822 306.61 156.776 307.821 156.776C307.96 153.149 307.122 149.243 304.327 146.592L289.096 144.639Z" fill="#64496D"/>
<path d="M314.25 147.848L310.756 147.29L305.027 146.593C307.682 149.383 308.381 153.149 308.381 156.776C310.803 156.59 313.225 156.544 315.647 156.637C315.647 154.126 315.368 151.057 314.25 147.848Z" fill="#64496D"/>
<path d="M233.345 145.756C233.345 145.57 233.345 145.384 233.345 145.198C233.252 145.105 233.205 145.012 233.205 144.919C233.112 144.919 233.066 144.919 233.066 144.919C232.972 144.826 232.926 144.779 232.926 144.779C232.553 144.407 232.274 143.942 232.087 143.384C231.994 143.198 231.948 142.966 231.948 142.687C231.948 142.408 231.948 142.175 231.948 141.989C231.948 140.501 231.994 139.013 232.087 137.525C232.087 137.525 232.087 137.572 232.087 137.665C231.528 137.804 230.97 137.944 230.55 138.223C230.97 137.804 231.389 137.525 231.948 137.386C231.948 137.293 231.994 137.246 232.087 137.246C232.553 137.06 233.019 136.874 233.485 136.688C234.509 136.409 235.534 136.13 236.559 135.851C237.584 135.665 238.608 135.526 239.633 135.433C240.192 134.596 240.751 133.852 241.31 133.201C240.099 133.015 238.981 132.875 237.956 132.782C234.323 132.085 230.83 134.735 230.411 138.502C230.131 140.734 229.852 142.826 229.572 143.663C229.386 144.128 229.246 144.64 229.153 145.198C228.78 145.291 228.408 145.337 228.035 145.337C228.128 146.174 228.175 146.965 228.175 147.709C229.759 147.43 231.482 146.779 233.345 145.756Z" fill="#FFCDBB"/>
<path d="M220.766 151.894C220.905 152.312 221.045 152.87 220.905 153.707C222.862 153.568 225.377 153.568 227.613 153.847C228.078 151.987 228.265 150.127 228.171 148.267C227.706 148.267 227.193 148.267 226.634 148.267C225.889 148.267 225.144 148.174 224.399 147.988C224.259 147.988 224.119 147.848 224.259 147.709C224.259 147.569 224.399 147.569 224.538 147.569C225.656 147.848 226.867 147.895 228.171 147.709C228.171 146.965 228.125 146.174 228.032 145.337C226.914 145.477 225.656 145.337 224.818 145.058C224.259 147.848 223.001 150.499 220.766 151.894Z" fill="#EAB1A0"/>
<path d="M231.807 157.195C232.087 156.823 232.46 156.497 232.925 156.218C232.925 156.218 232.972 156.218 233.065 156.218C232.972 155.66 232.879 155.149 232.786 154.684C232.04 154.777 231.295 154.916 230.55 155.102C230.457 155.102 230.41 155.056 230.41 154.963C230.69 156.079 230.923 157.241 231.109 158.45C231.295 157.985 231.528 157.567 231.807 157.195Z" fill="#FFCDBB"/>
<path d="M230.408 154.684C230.408 154.591 230.408 154.544 230.408 154.544C231.246 154.451 232.038 154.312 232.783 154.126C232.69 153.661 232.597 153.149 232.504 152.591C232.411 151.661 232.318 150.731 232.224 149.801L232.085 149.104C232.085 149.011 232.085 148.871 232.085 148.685C232.085 148.592 232.085 148.453 232.085 148.267C232.178 147.988 232.318 147.755 232.504 147.569C232.504 147.476 232.551 147.383 232.644 147.29C232.783 147.151 232.923 147.011 232.923 147.011C233.109 146.825 233.203 146.639 233.203 146.453C231.433 147.383 229.756 147.988 228.172 148.267C228.265 150.127 228.079 151.987 227.613 153.847C228.545 154.033 229.43 154.265 230.268 154.544C230.268 154.544 230.315 154.591 230.408 154.684Z" fill="#FFCDBB"/>
<path d="M235.717 155.381C236.649 155.288 237.581 155.335 238.512 155.521C238.978 155.614 239.444 155.753 239.909 155.939C240.282 156.032 240.655 156.125 241.027 156.218C241.027 155.66 240.888 154.823 240.888 153.847L240.608 151.057C240.422 151.15 240.235 151.289 240.049 151.475C238.279 152.87 235.95 153.893 233.062 154.544C233.156 155.102 233.202 155.614 233.202 156.079C233.901 155.66 234.879 155.381 235.717 155.381Z" fill="#FFCDBB"/>
<path d="M235.161 136.827C234.602 136.92 234.09 137.013 233.624 137.106C233.158 137.292 232.692 137.432 232.227 137.525C232.227 139.013 232.273 140.501 232.366 141.989C232.366 142.175 232.366 142.407 232.366 142.686C232.366 142.872 232.413 143.058 232.506 143.244C232.692 143.709 232.925 144.081 233.205 144.36L233.344 144.5C233.438 144.593 233.484 144.639 233.484 144.639C233.577 144.732 233.67 144.872 233.764 145.058C233.857 145.244 233.903 145.383 233.903 145.476C234.555 145.197 235.161 144.872 235.72 144.5C237.117 143.663 238.515 142.826 240.052 142.128L239.493 135.99L236.698 136.548C236.139 136.641 235.627 136.734 235.161 136.827Z" fill="#FFCDBB"/>
<path d="M233.343 147.29C233.203 147.429 233.203 147.429 233.064 147.569C232.971 147.662 232.924 147.755 232.924 147.848C232.738 148.034 232.645 148.22 232.645 148.406C232.645 148.499 232.645 148.592 232.645 148.685C232.645 148.778 232.645 148.917 232.645 149.103V149.801C232.738 150.731 232.831 151.661 232.924 152.591C233.017 153.056 233.064 153.567 233.064 154.125C235.858 153.474 238.094 152.451 239.771 151.056C240.05 150.87 240.33 150.684 240.609 150.498L240.05 142.547C238.653 143.244 237.395 144.081 235.998 144.918C235.346 145.29 234.694 145.662 234.042 146.034C233.949 146.034 233.902 146.034 233.902 146.034C233.762 146.592 233.623 147.011 233.343 147.29Z" fill="#FFCDBB"/>
<path d="M233.902 145.477C233.902 145.384 233.855 145.244 233.762 145.058C233.669 144.872 233.576 144.733 233.482 144.64C233.482 144.64 233.436 144.593 233.343 144.5L233.203 144.361C232.923 144.082 232.691 143.71 232.504 143.245C232.411 143.059 232.364 142.873 232.364 142.687C232.364 142.408 232.364 142.175 232.364 141.989C232.271 140.501 232.225 139.013 232.225 137.525C232.132 137.525 232.085 137.525 232.085 137.525C231.992 139.013 231.945 140.501 231.945 141.989C231.945 142.175 231.945 142.408 231.945 142.687C231.945 142.966 231.992 143.198 232.085 143.384C232.271 143.942 232.551 144.407 232.923 144.779C232.923 144.779 232.97 144.826 233.063 144.919C233.063 144.919 233.11 144.919 233.203 144.919C233.203 145.012 233.249 145.105 233.343 145.198C233.343 145.384 233.343 145.57 233.343 145.756C233.529 145.756 233.669 145.709 233.762 145.616C233.855 145.616 233.902 145.57 233.902 145.477Z" fill="#EAB1A0"/>
<path d="M233.204 156.078C233.204 155.613 233.158 155.102 233.065 154.544C232.971 154.637 232.878 154.683 232.785 154.683C232.878 155.148 232.971 155.66 233.065 156.218C233.065 156.125 233.111 156.078 233.204 156.078Z" fill="#EAB1A0"/>
<path d="M232.924 147.011C232.924 147.011 232.785 147.151 232.645 147.29C232.552 147.383 232.505 147.476 232.505 147.569C232.319 147.755 232.179 147.988 232.086 148.267C232.086 148.453 232.086 148.592 232.086 148.685C232.086 148.871 232.086 149.011 232.086 149.104L232.226 149.801C232.319 150.731 232.412 151.661 232.505 152.591C232.598 153.149 232.691 153.661 232.785 154.126C232.878 154.126 232.971 154.126 233.064 154.126C233.064 153.568 233.017 153.056 232.924 152.591C232.831 151.661 232.738 150.731 232.645 149.801V149.104C232.645 148.918 232.645 148.778 232.645 148.685C232.645 148.592 232.645 148.499 232.645 148.406C232.645 148.22 232.738 148.034 232.924 147.848C232.924 147.755 232.971 147.662 233.064 147.569C233.204 147.43 233.204 147.43 233.344 147.29C233.623 147.011 233.763 146.593 233.902 146.035C233.716 146.221 233.483 146.36 233.204 146.453C233.204 146.639 233.111 146.825 232.924 147.011Z" fill="#EAB1A0"/>
<path d="M233.621 137.107C234.087 137.014 234.599 136.921 235.158 136.828C235.624 136.735 236.136 136.642 236.695 136.549L239.49 135.991V135.712C239.583 135.619 239.629 135.526 239.629 135.433C238.605 135.526 237.58 135.665 236.555 135.851C235.531 136.13 234.506 136.409 233.481 136.688C233.015 136.874 232.55 137.06 232.084 137.246C231.991 137.246 231.944 137.293 231.944 137.386C231.385 137.525 230.966 137.804 230.547 138.223C230.966 137.944 231.525 137.804 232.084 137.665C232.084 137.572 232.084 137.525 232.084 137.525C232.084 137.525 232.131 137.525 232.224 137.525C232.689 137.432 233.155 137.293 233.621 137.107Z" fill="#785684"/>
<path d="M268.276 160.124C269.487 160.124 270.791 160.17 272.188 160.263C272.607 158.729 272.747 157.194 272.887 155.52C267.996 154.544 263.245 153.009 259.193 151.196C257.796 150.545 256.445 149.987 255.141 149.522C257.237 155.799 263.804 158.729 268.276 160.124Z" fill="#64496D"/>
<path d="M249.553 152.73C249.553 151.196 249.553 149.661 249.273 148.266C246.618 148.127 244.103 148.685 241.309 150.638C242.566 151.614 246.059 153.707 249.553 152.73Z" fill="#64496D"/>
<path d="M249.415 146.453C249.601 146.825 249.694 147.244 249.694 147.709C251.231 147.848 252.908 148.267 254.445 148.825C254.538 148.639 254.631 148.453 254.724 148.267C254.818 148.453 254.864 148.685 254.864 148.964C256.355 149.429 257.845 150.034 259.336 150.778C263.388 152.591 267.999 153.986 272.89 155.102C273.029 152.87 273.029 150.778 272.89 148.825C272.61 145.756 272.051 143.012 271.213 140.594C266.462 139.897 260.873 139.339 255.004 139.339C252.209 139.432 249.554 139.711 247.039 140.176C247.319 141.292 247.738 142.268 248.297 143.384C248.716 144.361 249.135 145.337 249.415 146.453Z" fill="#64496D"/>
<path d="M246.758 136.27C246.758 136.967 246.619 137.804 246.758 138.641C246.758 139.013 246.805 139.385 246.898 139.757C249.413 139.199 252.115 138.92 255.003 138.92C260.732 138.781 266.181 139.478 271.072 140.176C270.327 138.316 269.395 136.688 268.277 135.293C267.159 135.014 265.995 134.828 264.784 134.735C261.989 134.317 259.195 134.177 256.26 134.177C256.26 134.177 256.214 134.177 256.121 134.177L252.348 134.317C252.348 134.317 249.274 130.829 245.641 130.969C246.898 132.364 246.898 134.317 246.758 136.27Z" fill="#64496D"/>
<path d="M254.164 149.243C252.673 148.685 251.229 148.36 249.832 148.267C250.111 149.662 250.112 151.196 250.112 152.591C251.509 152.173 252.906 151.057 254.164 149.243Z" fill="#64496D"/>
<path d="M240.749 150.499C240.749 150.406 240.703 150.313 240.61 150.22C240.61 150.22 240.703 150.266 240.889 150.359C243.824 148.267 246.478 147.569 249.273 147.709C249.18 147.337 249.087 146.965 248.994 146.593C248.714 145.477 248.155 144.5 247.736 143.524C247.317 142.547 246.898 141.431 246.478 140.315C245.64 140.501 244.848 140.687 244.103 140.873C242.706 141.431 241.308 141.989 240.051 142.547L240.61 150.499C240.61 150.499 240.656 150.499 240.749 150.499Z" fill="#64496D"/>
<path d="M240.749 151.057C240.749 151.057 240.703 151.057 240.609 151.057L240.889 153.847C240.796 153.01 240.749 152.08 240.749 151.057Z" fill="#64496D"/>
<path d="M239.492 135.712V135.991L240.051 142.129C241.262 141.478 242.566 140.92 243.964 140.455C244.802 140.269 245.64 140.083 246.479 139.897C246.386 139.432 246.293 139.013 246.199 138.641C246.199 137.804 246.199 136.967 246.199 136.13C246.339 134.317 246.479 132.503 245.221 131.248C245.221 131.155 245.221 131.062 245.221 130.969C243.964 131.248 242.566 131.806 241.309 133.201C240.75 133.852 240.191 134.596 239.632 135.433C239.632 135.526 239.585 135.619 239.492 135.712Z" fill="#64496D"/>
<path d="M241.029 156.218C241.123 156.311 241.216 156.358 241.309 156.358C241.216 156.358 241.123 156.358 241.029 156.358H244.104C244.104 156.358 246.339 156.497 249.693 156.916C249.6 155.893 249.553 154.87 249.553 153.847C249.553 153.475 249.553 153.103 249.553 152.731C246.06 153.707 242.567 151.615 241.309 150.638C241.123 150.731 240.936 150.871 240.75 151.057C240.75 152.08 240.797 153.01 240.89 153.847C240.89 154.823 241.029 155.66 241.029 156.218Z" fill="#543D5E"/>
<path d="M240.749 150.499C240.749 150.406 240.796 150.359 240.889 150.359C240.703 150.266 240.609 150.22 240.609 150.22C240.703 150.313 240.749 150.406 240.749 150.499Z" fill="#543D5E"/>
<path d="M254.441 148.825C254.628 148.825 254.767 148.871 254.861 148.964C254.861 148.685 254.814 148.453 254.721 148.267C254.628 148.453 254.535 148.639 254.441 148.825Z" fill="#543D5E"/>
<path d="M264.222 159.985L264.642 160.124C265.62 159.985 266.877 159.985 268.275 160.124C263.803 158.729 257.236 155.8 255.14 149.522C254.767 149.429 254.441 149.336 254.162 149.243C252.904 151.057 251.507 152.173 250.109 152.591C250.109 152.963 250.109 153.382 250.109 153.847C250.109 154.87 250.109 155.939 250.109 157.055C254.162 157.613 259.611 158.45 264.222 159.985Z" fill="#543D5E"/>
<path d="M330.878 150.22L324.031 149.243C324.031 149.243 325.848 151.475 324.59 154.265C327.664 150.638 335.909 150.778 335.909 150.778L330.878 150.22Z" fill="#C6867B"/>
<path d="M221.188 143.244C221.327 143.105 221.327 142.826 221.327 142.407C221.327 142.5 221.281 142.547 221.188 142.547C221.281 142.826 221.281 143.058 221.188 143.244Z" fill="#FFCDBB"/>
<path fill-rule="evenodd" clip-rule="evenodd" d="M201.766 148.266C201.905 146.871 202.325 145.476 203.163 144.081C203.256 143.895 203.349 143.709 203.442 143.523C204.7 141.291 206.656 140.733 207.215 140.594C208.193 140.315 209.591 140.315 211.687 140.873C212.385 141.012 212.944 141.012 213.224 141.012C214.761 140.594 215.879 139.896 217.276 138.222C217.555 137.804 217.975 137.943 218.114 138.362C218.394 139.059 218.534 140.175 218.534 140.175C218.534 140.175 219.232 140.036 219.651 139.896C219.651 140.594 221.188 143.523 221.188 143.523C221.188 143.523 221.188 143.477 221.188 143.384L222.865 140.315C222.958 140.408 223.005 140.454 223.005 140.454C223.424 140.594 223.424 140.454 224.263 140.454C224.822 140.454 225.241 141.012 225.241 141.57C225.241 142.779 225.101 143.942 224.822 145.058C224.263 147.848 223.005 150.498 220.769 151.893C220.909 152.312 221.049 152.87 220.909 153.707C220.909 153.8 220.909 153.846 220.909 153.846C220.723 154.683 220.49 155.381 220.21 155.939C220.21 155.939 220.164 155.939 220.071 155.939C218.673 156.776 217.555 157.055 216.857 157.055C216.857 156.869 216.903 156.683 216.996 156.497C217.09 156.125 217.229 155.799 217.416 155.52C217.602 155.148 217.788 154.823 217.975 154.544C218.161 154.265 218.347 153.939 218.534 153.567C218.068 153.66 217.695 153.846 217.416 154.125C217.136 154.404 216.903 154.73 216.717 155.102C216.531 155.474 216.391 155.892 216.298 156.357C216.298 156.636 216.344 156.915 216.438 157.194C215.739 157.194 215.18 156.915 215.18 156.915C215.18 156.729 215.227 156.497 215.32 156.218C215.413 156.032 215.506 155.892 215.599 155.799C215.692 155.334 215.832 154.962 216.018 154.683C210.709 154.962 205.259 153.009 201.766 148.266ZM214.062 143.244C214.062 143.523 214.155 143.756 214.342 143.942C214.435 144.035 214.481 144.174 214.481 144.36C214.574 144.546 214.668 144.825 214.761 145.197C214.761 145.616 214.761 146.034 215.04 146.453C215.18 146.034 215.32 145.616 215.32 145.337C215.413 145.151 215.459 144.918 215.459 144.639C215.459 144.453 215.413 144.221 215.32 143.942C215.04 143.523 214.761 143.244 214.621 143.105C214.481 142.826 214.481 142.407 214.481 142.128C214.295 142.221 214.155 142.361 214.062 142.547C213.969 142.733 213.969 142.965 214.062 143.244ZM213.363 147.569C213.363 147.569 212.525 146.732 212.106 145.616C211.687 144.5 212.246 142.547 212.246 142.268C212.246 141.849 211.407 141.71 211.267 142.547C210.988 145.755 212.385 147.15 213.363 147.569Z" fill="#FFCDBB"/>
<path d="M213.363 147.569C213.363 147.569 212.524 146.732 212.105 145.616C211.686 144.5 212.245 142.547 212.245 142.268C212.245 141.85 211.406 141.71 211.267 142.547C210.987 145.756 212.385 147.151 213.363 147.569Z" fill="#584263"/>
<path d="M221.185 143.524C221.185 143.524 221.185 143.477 221.185 143.384L222.862 140.315C222.862 139.757 221.744 139.478 221.465 140.315C221.465 140.734 221.325 141.71 221.325 142.408C221.325 142.826 221.325 143.105 221.185 143.245C221.279 143.059 221.279 142.826 221.185 142.547C221.185 141.85 221.185 140.873 220.906 140.455C220.487 139.478 219.648 139.199 219.648 139.897C219.648 140.594 221.185 143.524 221.185 143.524Z" fill="#C6867B"/>
<path d="M214.342 143.942C214.435 144.035 214.481 144.175 214.481 144.361C214.574 144.547 214.668 144.826 214.761 145.198C214.761 145.616 214.761 146.035 215.04 146.453C215.18 146.035 215.32 145.616 215.32 145.337C215.413 145.151 215.459 144.919 215.459 144.64C215.459 144.454 215.413 144.221 215.32 143.942C215.04 143.524 214.761 143.245 214.621 143.105C214.481 142.826 214.481 142.408 214.481 142.129C214.295 142.222 214.155 142.361 214.062 142.547C213.969 142.733 213.969 142.966 214.062 143.245C214.062 143.524 214.155 143.756 214.342 143.942Z" fill="#584263"/>
<path d="M202.185 150.917C202.185 151.057 208.333 156.916 215.599 155.8C215.692 155.335 215.832 154.963 216.018 154.684C210.708 154.963 205.259 153.01 201.765 148.267C201.672 149.197 201.719 150.08 201.905 150.917C201.998 150.917 202.091 150.917 202.185 150.917Z" fill="#EAB1A0"/>
<path d="M212.243 159.845C213.36 159.706 214.478 159.287 215.456 158.729C215.456 158.729 215.41 158.683 215.317 158.59C215.037 158.311 215.037 157.892 215.037 157.474C214.944 157.381 214.897 157.334 214.897 157.334C214.758 157.334 214.758 157.195 214.758 157.055C214.897 156.916 215.037 156.916 215.177 156.916C215.177 156.73 215.224 156.497 215.317 156.218C214.758 156.311 214.199 156.358 213.64 156.358C207.631 156.358 202.741 152.312 201.902 151.475C202.322 153.986 203.579 156.079 204.697 157.195C205.349 157.66 206.001 158.078 206.653 158.45C207.911 159.287 209.168 159.706 210.286 159.845H212.243Z" fill="#EAB1A0"/>
<path fill-rule="evenodd" clip-rule="evenodd" d="M245.221 130.969C245.221 130.969 245.221 130.922 245.221 130.829C245.361 130.829 245.5 130.829 245.64 130.829C245.64 130.922 245.64 130.969 245.64 130.969C246.898 132.364 246.898 134.317 246.758 136.27C246.758 136.967 246.618 137.804 246.758 138.641C246.758 139.013 246.805 139.385 246.898 139.757C249.413 139.199 252.114 138.92 255.002 138.92C260.731 138.781 266.181 139.478 271.071 140.176C270.326 138.316 269.395 136.688 268.277 135.293C268.184 135.107 268.09 134.968 267.997 134.875C267.858 134.735 267.858 134.596 267.997 134.456C268.137 134.456 268.277 134.456 268.416 134.456C268.51 134.642 268.556 134.782 268.556 134.875C268.743 135.061 268.882 135.247 268.975 135.433C270 136.828 270.885 138.409 271.63 140.176C272.003 140.269 272.329 140.315 272.608 140.315C277.08 141.013 281.831 141.85 286.582 143.384C287.327 143.663 288.119 143.942 288.957 144.221C289.097 144.361 289.097 144.5 289.097 144.5C289.097 144.593 289.097 144.64 289.097 144.64C289.004 144.733 288.911 144.733 288.817 144.64C283.228 142.547 277.779 141.571 272.608 140.873C272.329 140.78 272.05 140.734 271.77 140.734C272.608 143.059 273.121 145.756 273.307 148.825C273.447 150.778 273.587 153.01 273.447 155.242C279.316 156.497 285.743 157.195 292.59 157.195C296.363 157.195 300.276 157.055 304.048 156.916C305.352 156.823 306.61 156.776 307.821 156.776C307.961 153.149 307.122 149.243 304.328 146.593C304.048 146.314 303.769 146.081 303.489 145.895C303.489 145.756 303.35 145.616 303.489 145.477C303.629 145.477 303.769 145.477 303.769 145.477C304.235 145.849 304.654 146.221 305.026 146.593C307.681 149.383 308.38 153.149 308.38 156.776C310.802 156.59 313.224 156.544 315.646 156.637C316.298 156.637 316.904 156.637 317.463 156.637C320.537 156.776 323.751 156.916 326.685 157.474C339.121 159.706 351.557 159.706 364.832 157.613C368.465 156.916 371.399 157.195 374.194 158.171C374.287 158.264 374.334 158.357 374.334 158.45C374.241 158.543 374.147 158.59 374.054 158.59C371.399 157.613 368.465 157.474 364.972 158.032C358.358 159.055 351.883 159.566 345.549 159.566C339.121 159.566 332.833 159.008 326.685 158.032C323.751 157.474 320.676 157.195 317.742 157.055C316.997 157.055 316.298 157.055 315.646 157.055C313.224 157.055 310.802 157.102 308.38 157.195C308.24 159.706 307.681 162.077 307.262 163.751C307.262 163.937 307.169 164.03 306.983 164.03C306.843 163.891 306.703 163.751 306.843 163.751C307.262 161.938 307.681 159.706 307.821 157.195C306.61 157.288 305.352 157.334 304.048 157.334C300.276 157.613 296.363 157.753 292.59 157.753C285.743 157.613 279.316 156.916 273.447 155.66C273.261 157.241 272.981 158.822 272.608 160.403C272.422 160.31 272.282 160.264 272.189 160.264C272.608 158.729 272.748 157.195 272.888 155.521C267.997 154.544 263.246 153.01 259.194 151.196C257.797 150.545 256.446 149.987 255.142 149.522C254.769 149.429 254.443 149.336 254.164 149.243C252.673 148.685 251.229 148.36 249.832 148.267C250.112 149.662 250.112 151.196 250.112 152.591C250.112 152.963 250.112 153.382 250.112 153.847C250.112 154.87 250.112 155.939 250.112 157.055C249.925 157.055 249.785 157.009 249.692 156.916C249.599 155.893 249.553 154.87 249.553 153.847C249.553 153.475 249.553 153.103 249.553 152.731C249.553 151.196 249.553 149.662 249.273 148.267C246.618 148.127 244.103 148.685 241.308 150.638C241.122 150.731 240.936 150.871 240.749 151.057C240.749 151.057 240.703 151.057 240.61 151.057C240.423 151.15 240.237 151.289 240.051 151.475C238.281 152.87 235.952 153.893 233.064 154.544C232.971 154.637 232.878 154.684 232.785 154.684C232.039 154.777 231.294 154.916 230.549 155.102C230.456 155.102 230.409 155.056 230.409 154.963C230.316 154.963 230.269 154.916 230.269 154.823C230.269 154.73 230.316 154.684 230.409 154.684C230.409 154.591 230.409 154.544 230.409 154.544C231.248 154.451 232.039 154.312 232.785 154.126C232.878 154.126 232.971 154.126 233.064 154.126C235.859 153.475 238.095 152.452 239.771 151.057C240.051 150.871 240.33 150.685 240.61 150.499C240.61 150.499 240.656 150.499 240.749 150.499C240.749 150.406 240.796 150.359 240.889 150.359C243.824 148.267 246.478 147.569 249.273 147.709C249.18 147.337 249.087 146.965 248.994 146.593C248.714 145.477 248.155 144.5 247.736 143.524C247.317 142.547 246.898 141.431 246.478 140.315C245.64 140.501 244.848 140.687 244.103 140.873C242.706 141.431 241.308 141.989 240.051 142.547C238.653 143.245 237.396 144.082 235.999 144.919C235.346 145.291 234.694 145.663 234.042 146.035C233.949 146.035 233.903 146.035 233.903 146.035C233.716 146.221 233.483 146.36 233.204 146.453C231.434 147.383 229.757 147.988 228.174 148.267C227.708 148.267 227.195 148.267 226.636 148.267C225.891 148.267 225.146 148.174 224.401 147.988C224.261 147.988 224.121 147.848 224.261 147.709C224.261 147.569 224.401 147.569 224.54 147.569C225.658 147.848 226.869 147.895 228.174 147.709C229.757 147.43 231.481 146.779 233.344 145.756C233.53 145.756 233.67 145.709 233.763 145.616C233.856 145.616 233.903 145.57 233.903 145.477C234.555 145.198 235.16 144.872 235.719 144.5C237.116 143.663 238.514 142.826 240.051 142.129C241.262 141.478 242.566 140.92 243.963 140.455C244.802 140.269 245.64 140.083 246.478 139.897C246.385 139.432 246.292 139.013 246.199 138.641C246.199 137.804 246.199 136.967 246.199 136.13C246.339 134.317 246.478 132.503 245.221 131.248C245.221 131.155 245.221 131.062 245.221 130.969ZM247.037 140.176C247.317 141.292 247.736 142.268 248.295 143.384C248.714 144.361 249.133 145.337 249.413 146.453C249.599 146.825 249.692 147.244 249.692 147.709C251.229 147.848 252.906 148.267 254.443 148.825C254.63 148.825 254.769 148.871 254.862 148.964C256.353 149.429 257.843 150.034 259.334 150.778C263.386 152.591 267.997 153.986 272.888 155.102C273.028 152.87 273.028 150.778 272.888 148.825C272.608 145.756 272.05 143.012 271.211 140.594C266.46 139.897 260.871 139.339 255.002 139.339C252.208 139.432 249.553 139.711 247.037 140.176Z" fill="#FF6666"/>
<path d="M296.363 135.014C299.157 137.944 300.136 141.431 299.297 145.616C299.297 145.755 299.437 145.895 299.577 145.895C299.763 145.895 299.856 145.802 299.856 145.616C300.555 141.291 299.577 137.804 296.782 134.735C296.689 134.735 296.642 134.735 296.642 134.735C296.642 134.595 296.503 134.595 296.363 134.735C296.27 134.828 296.27 134.921 296.363 135.014Z" fill="#FF6666"/>
<path d="M300.975 162.774C300.975 162.774 300.836 163.332 301.255 163.472C302.233 163.89 302.513 163.193 302.513 163.193L300.975 162.774Z" fill="#43384C"/>
<path d="M298.457 160.542L299.994 160.821C299.854 160.821 299.156 160.682 298.457 160.542Z" fill="#FFCDBB"/>
<path d="M299.997 160.821L298.46 160.542C298.46 160.542 298.32 161.1 298.739 161.24C299.857 161.379 299.997 160.821 299.997 160.821Z" fill="#43384C"/>
<path d="M301.112 164.309C301.112 164.309 300.972 164.728 301.392 164.867C302.09 165.146 302.51 164.867 302.649 164.728L301.112 164.309Z" fill="#43384C"/>
<path fill-rule="evenodd" clip-rule="evenodd" d="M296.504 165.704C296.691 165.797 296.877 165.89 297.063 165.983C298.6 166.82 300.277 167.796 300.277 167.796C300.277 167.796 299.858 168.354 298.321 167.936C296.784 167.517 294.268 166.401 293.29 166.262C288.819 166.959 287.282 166.68 286.723 166.401C283.789 166.959 277.501 167.657 269.815 167.657C269.396 165.564 268.138 163.751 266.601 162.356C266.508 161.984 266.322 161.658 266.043 161.379C265.763 161.1 265.484 160.821 265.064 160.821C265.251 161.007 265.39 161.24 265.484 161.519C263.807 160.403 261.851 159.845 259.755 159.845H231.249C231.249 159.473 231.249 159.101 231.249 158.729C231.249 158.636 231.249 158.543 231.249 158.45C231.249 158.45 231.203 158.45 231.109 158.45C231.389 158.078 231.668 157.752 231.948 157.473C232.32 157.101 232.693 156.822 233.066 156.636C233.531 156.45 233.951 156.311 234.323 156.218C234.789 156.125 235.255 156.032 235.721 155.939C236.652 155.846 237.584 155.846 238.515 155.939C238.981 156.032 239.447 156.125 239.913 156.218C240.285 156.218 240.658 156.264 241.03 156.357H244.105C244.105 156.357 246.34 156.497 249.694 156.915C249.787 157.008 249.927 157.055 250.113 157.055C254.165 157.613 259.615 158.45 264.226 159.984C264.319 160.077 264.412 160.124 264.505 160.124H264.645C265.623 159.984 266.881 159.984 268.278 160.124C269.489 160.124 270.793 160.17 272.191 160.263C272.284 160.263 272.424 160.31 272.61 160.403C278.618 160.821 285.326 161.937 286.723 162.077C288.679 161.379 292.452 160.124 293.71 160.124C294.688 160.124 296.923 160.403 298.46 160.542C298.46 160.542 298.321 161.1 298.74 161.24C299.858 161.379 299.998 160.821 299.998 160.821C300.091 160.821 300.137 160.821 300.137 160.821C300.137 160.821 300.137 161.519 298.6 161.798C298.228 161.798 297.808 161.798 297.343 161.798C296.691 161.612 295.992 161.426 295.247 161.24C294.967 161.147 294.688 161.1 294.408 161.1C294.222 161.193 294.036 161.24 293.849 161.24C293.384 161.426 292.918 161.565 292.452 161.658C292.918 161.658 293.384 161.612 293.849 161.519C294.129 161.519 294.268 161.379 294.548 161.379C294.734 161.379 294.921 161.426 295.107 161.519C295.759 161.705 296.458 161.844 297.203 161.937C298.321 162.216 299.858 162.495 300.976 162.774C300.976 162.774 300.836 163.332 301.255 163.472C302.233 163.89 302.513 163.332 302.513 163.193C302.606 163.286 302.652 163.332 302.652 163.332C302.652 163.332 302.513 164.03 300.976 164.03C300.696 164.03 300.37 163.983 299.998 163.89C300.37 164.076 300.743 164.216 301.115 164.309C301.115 164.309 300.976 164.727 301.395 164.867C302.093 165.146 302.513 164.867 302.652 164.727C302.652 164.82 302.699 164.867 302.792 164.867C303.072 164.96 303.211 165.006 303.211 165.006C303.211 165.006 302.932 165.564 301.395 165.564C300.836 165.564 300.137 165.425 299.439 165.285C298.041 165.146 296.784 165.006 296.225 165.006C296.038 165.006 295.806 165.053 295.526 165.146C295.34 165.053 295.153 164.96 294.967 164.867C294.781 164.774 294.548 164.727 294.269 164.727C294.175 164.634 294.082 164.588 293.989 164.588C293.896 164.588 293.756 164.634 293.57 164.727C293.197 164.727 292.778 164.774 292.312 164.867C292.778 164.867 293.197 164.867 293.57 164.867C293.849 164.867 294.082 164.867 294.269 164.867C294.455 164.96 294.641 165.053 294.827 165.146C295.666 165.518 296.504 165.89 297.343 166.262C297.063 165.983 296.784 165.797 296.504 165.704ZM302.513 163.193L300.976 162.774C301.674 163.053 302.233 163.193 302.513 163.193ZM298.6 163.472C297.762 163.193 296.877 162.914 295.945 162.635C295.759 162.635 295.526 162.635 295.247 162.635C295.153 162.635 295.06 162.635 294.967 162.635C294.874 162.728 294.781 162.774 294.688 162.774C294.222 162.867 293.756 163.007 293.29 163.193C293.756 163.193 294.222 163.146 294.688 163.053C294.874 162.96 295.107 162.914 295.386 162.914C295.573 162.914 295.759 162.914 295.945 162.914C296.784 163.193 297.669 163.379 298.6 163.472ZM286.863 166.401C286.583 166.215 286.35 166.029 286.164 165.843C286.071 165.564 285.978 165.332 285.885 165.146C285.791 164.867 285.698 164.588 285.605 164.309C285.512 163.937 285.419 163.611 285.326 163.332C285.232 163.611 285.186 163.937 285.186 164.309C285.093 164.681 285.139 165.006 285.326 165.285C285.419 165.657 285.605 165.936 285.885 166.122C286.164 166.401 286.583 166.541 286.863 166.401ZM298.46 167.378C299.299 167.936 299.858 167.517 299.858 167.517L298.321 166.68C298.321 166.68 298.041 167.099 298.46 167.378Z" fill="#FFCDBB"/>
<path d="M298.46 167.378C299.298 167.936 299.857 167.518 299.857 167.518L298.32 166.82C298.32 166.82 298.18 167.239 298.46 167.378Z" fill="#43384C"/>
<path d="M297.34 161.798C296.688 161.612 295.989 161.426 295.244 161.24C294.964 161.147 294.685 161.101 294.405 161.101C294.219 161.194 294.033 161.24 293.847 161.24C293.381 161.426 292.915 161.566 292.449 161.659C292.915 161.659 293.381 161.612 293.847 161.519C294.126 161.519 294.266 161.38 294.545 161.38C294.732 161.38 294.918 161.426 295.104 161.519C295.756 161.705 296.455 161.845 297.2 161.938C297.386 161.938 297.573 161.938 297.759 161.938C297.666 161.938 297.526 161.891 297.34 161.798Z" fill="#DDA092"/>
<path d="M295.386 162.635C295.2 162.635 295.06 162.635 294.967 162.635C294.874 162.728 294.78 162.774 294.687 162.774C294.221 162.867 293.802 163.007 293.43 163.193C293.802 163.193 294.221 163.146 294.687 163.053C294.874 162.96 295.106 162.914 295.386 162.914C295.572 162.914 295.759 162.914 295.945 162.914C296.783 163.193 297.668 163.379 298.6 163.472C297.761 163.193 296.923 162.914 296.085 162.635C295.805 162.635 295.572 162.635 295.386 162.635Z" fill="#DDA092"/>
<path d="M294.964 164.867C294.777 164.774 294.544 164.727 294.265 164.727C294.172 164.634 294.079 164.588 293.985 164.588C293.892 164.588 293.753 164.634 293.566 164.727C293.194 164.727 292.774 164.774 292.309 164.867C292.774 164.867 293.194 164.867 293.566 164.867C293.846 164.867 294.079 164.867 294.265 164.867C294.451 164.96 294.637 165.053 294.824 165.146C295.662 165.518 296.501 165.89 297.339 166.262C297.06 165.983 296.78 165.797 296.501 165.704C296.221 165.518 295.895 165.332 295.522 165.146C295.336 165.053 295.15 164.96 294.964 164.867Z" fill="#DDA092"/>
<path d="M265.062 160.822C265.249 161.008 265.389 161.24 265.482 161.519C265.854 161.798 266.227 162.077 266.6 162.356C266.506 161.984 266.32 161.659 266.041 161.38C265.761 161.101 265.482 160.822 265.062 160.822Z" fill="#DDA092"/>
<path d="M286.301 165.844C286.115 165.658 285.975 165.425 285.882 165.146C285.789 164.867 285.696 164.588 285.603 164.309C285.51 164.03 285.416 163.705 285.323 163.333C285.23 163.612 285.184 163.937 285.184 164.309C285.184 164.681 285.23 165.007 285.323 165.286C285.416 165.658 285.603 165.937 285.882 166.123C286.162 166.402 286.581 166.541 286.86 166.402C286.581 166.216 286.395 166.03 286.301 165.844Z" fill="#DDA092"/>
<path d="M241.31 156.357C241.217 156.357 241.124 156.311 241.03 156.218C240.658 156.125 240.285 156.032 239.913 155.939C239.447 155.753 238.981 155.613 238.515 155.52C237.584 155.334 236.652 155.288 235.721 155.381C234.882 155.381 233.904 155.66 233.205 156.078C233.112 156.078 233.066 156.125 233.066 156.218C232.972 156.218 232.926 156.218 232.926 156.218C232.46 156.497 232.088 156.822 231.808 157.194C231.529 157.566 231.296 157.985 231.109 158.45C231.389 158.078 231.668 157.752 231.948 157.473C232.32 157.101 232.693 156.823 233.066 156.637C233.531 156.451 233.951 156.311 234.323 156.218C234.789 156.125 235.255 156.032 235.721 155.939C236.652 155.846 237.584 155.846 238.515 155.939C238.981 156.032 239.447 156.125 239.913 156.218C240.285 156.218 240.658 156.264 241.03 156.357C241.124 156.357 241.217 156.357 241.31 156.357Z" fill="#785684"/>
<path d="M215.319 156.218C215.412 156.032 215.505 155.892 215.598 155.799C208.332 156.915 202.184 151.056 202.184 150.917C202.091 150.917 201.998 150.917 201.905 150.917C201.812 150.917 201.765 150.964 201.765 151.057C201.625 151.057 201.625 151.196 201.765 151.335C201.765 151.335 201.812 151.382 201.905 151.475C202.743 152.312 207.634 156.357 213.642 156.357C214.201 156.357 214.76 156.311 215.319 156.218Z" fill="#FF6666"/>
<path d="M218.253 158.45C218.812 158.032 219.511 157.474 219.93 156.497C218.532 157.474 217.275 157.613 216.436 157.613C215.738 157.613 215.319 157.474 215.039 157.474C215.039 157.892 215.039 158.311 215.319 158.59C215.412 158.683 215.458 158.729 215.458 158.729C216.157 159.148 217.135 159.148 218.253 158.45Z" fill="#FFCDBB"/>
<path d="M216.996 156.497C217.089 156.125 217.228 155.799 217.415 155.52C217.601 155.148 217.787 154.823 217.974 154.544C218.16 154.265 218.346 153.939 218.533 153.567C218.067 153.66 217.694 153.846 217.415 154.125C217.135 154.404 216.902 154.73 216.716 155.102C216.53 155.474 216.39 155.892 216.297 156.357C216.297 156.636 216.343 156.915 216.437 157.194C216.53 157.194 216.67 157.148 216.856 157.055C216.856 156.869 216.902 156.683 216.996 156.497Z" fill="#DDA092"/>
<path d="M219.928 156.497C220.021 156.497 220.114 156.451 220.207 156.358C220.347 156.358 220.487 156.079 220.347 156.079C220.347 155.986 220.301 155.939 220.207 155.939C220.207 155.939 220.161 155.939 220.068 155.939C218.67 156.776 217.552 157.055 216.854 157.055C216.667 157.148 216.528 157.195 216.435 157.195C215.736 157.195 215.177 156.916 215.177 156.916C215.037 156.916 214.898 156.916 214.758 157.055C214.758 157.195 214.758 157.334 214.898 157.334C214.898 157.334 214.944 157.381 215.037 157.474C215.317 157.474 215.736 157.613 216.435 157.613C217.273 157.613 218.531 157.474 219.928 156.497Z" fill="#FF6666"/>
<path d="M269.814 167.657C269.395 165.564 268.138 163.751 266.601 162.356C266.228 162.077 265.855 161.798 265.483 161.519C263.806 160.403 261.85 159.845 259.754 159.845H231.248H212.245H210.288H193.66C194.778 161.379 196.315 162.635 197.852 163.751H259.055C262.548 163.751 265.343 166.68 265.343 170.168C265.343 170.447 265.343 170.726 265.343 171.005C266.927 170.819 268.557 170.54 270.234 170.168C270.234 171.284 270.047 172.353 269.675 173.376H351.698H377.409H388.028C388.727 173.376 389.286 172.818 389.286 172.121V169.47C389.193 169.284 389.146 169.145 389.146 169.052H270.094C270.094 168.587 270.001 168.122 269.814 167.657Z" fill="white"/>
<path d="M183.739 164.448C183.46 164.913 183.18 165.425 182.901 165.983C182.528 166.913 182.249 167.936 182.062 169.052C182.062 169.424 182.062 169.796 182.062 170.168C182.062 171.284 182.202 172.353 182.482 173.376C183.879 177.561 187.792 180.63 192.403 180.63H259.754C264.365 180.63 268.417 177.561 269.675 173.376C270.047 172.353 270.234 171.284 270.234 170.168C268.557 170.54 266.927 170.819 265.343 171.005C265.25 171.842 265.017 172.586 264.644 173.237C263.527 175.19 261.431 176.585 259.055 176.585H193.241C189.608 176.585 186.813 173.795 186.813 170.168C186.813 166.68 189.608 163.751 193.241 163.751H195.197H197.852C196.315 162.635 194.778 161.379 193.66 159.845H192.403C188.77 159.845 185.556 161.658 183.739 164.448Z" fill="#E6E1F4"/>
<path d="M220.488 172.121C211.545 171.423 202.602 168.912 195.196 163.751H193.24C189.607 163.751 186.812 166.68 186.812 170.168C186.812 173.795 189.607 176.585 193.24 176.585H259.054C261.43 176.585 263.526 175.19 264.644 173.237C250.111 174.911 235.3 173.516 220.488 172.121Z" fill="#757596"/>
<path d="M220.487 172.121C235.299 173.516 250.11 174.911 264.642 173.237C265.015 172.586 265.248 171.842 265.341 171.005C265.341 170.726 265.341 170.447 265.341 170.168C265.341 166.68 262.546 163.751 259.053 163.751H197.85H195.195C202.601 168.912 211.544 171.423 220.487 172.121Z" fill="#8C8CAA"/>
<path d="M260.872 215.645C259.755 215.645 258.916 216.482 258.637 217.459C263.947 218.854 278.479 220.807 318.163 220.667C350.162 220.388 365.812 219.272 373.497 218.156V218.017C373.497 216.761 372.519 215.645 371.261 215.645H364.135H261.012H260.872Z" fill="#64496D"/>
<path d="M318.163 220.667C278.479 220.807 263.947 218.853 258.637 217.458C258.637 217.644 258.637 217.831 258.637 218.017V218.853C258.637 220.109 259.615 221.086 260.872 221.086H261.99C262.177 220.993 262.363 220.946 262.549 220.946H371.96C372.798 220.667 373.497 219.83 373.497 218.853V218.156C365.812 219.272 350.162 220.388 318.163 220.667Z" fill="#543D5E"/>
<path d="M262.548 220.946C262.362 220.946 262.176 220.993 261.989 221.086C261.151 221.365 260.592 221.923 260.312 222.76C265.622 224.155 280.155 226.108 319.839 225.829C351.837 225.689 367.627 224.434 375.173 223.457V223.178C375.173 221.923 374.195 220.946 372.937 220.946H371.959H262.548Z" fill="#64496D"/>
<path d="M319.839 225.829C280.155 226.108 265.622 224.155 260.312 222.76C260.312 222.946 260.312 223.085 260.312 223.178V224.015C260.312 225.271 261.291 226.387 262.548 226.387H263.666C263.852 226.294 264.039 226.247 264.225 226.247H373.636C374.474 225.968 375.173 225.131 375.173 224.015V223.457C367.627 224.434 351.837 225.689 319.839 225.829Z" fill="#543D5E"/>
<path d="M264.224 226.247C264.038 226.247 263.851 226.294 263.665 226.387C262.827 226.526 262.268 227.224 261.988 228.061C267.298 229.456 281.83 231.409 321.514 231.13C353.513 230.99 369.303 229.735 376.848 228.758V228.479C376.848 227.224 375.87 226.247 374.613 226.247H373.635H264.224Z" fill="#64496D"/>
<path d="M321.514 231.13C281.83 231.409 267.298 229.456 261.988 228.061C261.988 228.154 261.988 228.293 261.988 228.479V229.316C261.988 230.572 262.966 231.548 264.224 231.548H265.342C265.528 231.548 265.714 231.548 265.901 231.548H375.311C376.29 231.269 376.848 230.293 376.848 229.316V228.758C369.303 229.735 353.513 230.99 321.514 231.13Z" fill="#543D5E"/>
<path d="M265.901 231.548C265.714 231.548 265.528 231.548 265.342 231.548C264.503 231.827 263.944 232.524 263.805 233.222C269.115 234.617 283.647 236.709 323.191 236.43C355.33 236.151 370.98 235.035 378.665 233.919V233.78C378.665 232.524 377.547 231.548 376.289 231.548H375.311H265.901Z" fill="#64496D"/>
<path d="M263.804 233.222C263.711 233.408 263.664 233.594 263.664 233.78V234.617C263.664 235.873 264.782 236.849 265.9 236.849H267.018C267.204 236.756 267.437 236.71 267.716 236.71H376.987C377.965 236.431 378.664 235.594 378.664 234.617V233.92C370.979 235.036 355.329 236.152 323.19 236.431C283.646 236.71 269.114 234.617 263.804 233.222Z" fill="#543D5E"/>
<path d="M267.018 236.849C266.179 237.128 265.62 237.686 265.48 238.523C270.79 239.918 285.322 241.871 324.867 241.731C357.005 241.452 372.655 240.336 380.341 239.22V239.081C380.341 237.825 379.223 236.709 378.105 236.709H376.987H267.716C267.437 236.709 267.204 236.756 267.018 236.849Z" fill="#64496D"/>
<path d="M265.483 238.523C265.39 238.709 265.344 238.895 265.344 239.081V239.918C265.344 240.755 265.903 241.453 266.462 241.871C266.834 242.057 267.253 242.15 267.719 242.15H315.228H378.108C378.481 242.15 378.853 242.057 379.226 241.871C379.785 241.453 380.344 240.755 380.344 239.918V239.221C372.658 240.337 357.008 241.453 324.87 241.732C285.326 241.871 270.793 239.918 265.483 238.523Z" fill="#543D5E"/>
</svg>
