<svg width="219" height="162" viewBox="0 0 219 162" fill="none" xmlns="http://www.w3.org/2000/svg">
<path d="M56.5481 38.1582C56.5481 36.2052 56.2686 33.4151 55.57 30.7646C54.6384 32.3456 53.7535 33.8802 52.9151 35.3682C52.3562 36.3912 51.7972 37.4141 51.2383 38.4371C52.3561 38.9951 53.474 39.5531 54.3124 39.9716C55.0577 39.1346 55.8029 38.5302 56.5481 38.1582Z" fill="#64EBB6"/>
<path d="M47.6067 51.2709C48.0259 50.1549 48.7246 48.8994 49.4233 47.5044C48.7712 46.6674 48.0725 45.7374 47.3273 44.7144C45.7902 47.0859 44.1134 49.4574 42.2969 51.5499C43.6942 50.9919 45.6504 50.9919 47.6067 51.2709Z" fill="#64EBB6"/>
<path d="M38.6619 78.7527C41.5963 77.4972 43.9717 76.3812 46.2074 74.9862C44.6704 73.3122 44.2512 70.1037 44.6704 68.2902C44.6704 67.8252 44.717 67.4067 44.8101 67.0347C40.7579 67.1742 36.8454 67.4532 34.0508 68.5692C35.3084 72.8937 36.5659 76.5207 37.6838 79.1712C37.9633 78.9852 38.2893 78.8457 38.6619 78.7527Z" fill="#64EBB6"/>
<path d="M78.2082 15.1405C78.348 15.1405 78.6275 15.1405 78.7672 15.001C78.4877 15.001 78.1617 15.001 77.7891 15.001C77.7891 15.094 77.8356 15.1405 77.9288 15.1405C78.0219 15.1405 78.1151 15.1405 78.2082 15.1405Z" fill="#64EBB6"/>
<path d="M78.7669 15.4195C78.6738 15.5125 78.534 15.6055 78.3477 15.6985C78.3477 15.7915 78.3477 15.838 78.3477 15.838C80.3039 18.7675 81.841 21.976 82.9589 24.3475C81.1424 26.0215 79.745 26.998 78.4874 27.556C78.3477 28.2535 78.3477 29.509 78.4874 30.625C78.4874 30.718 78.4874 30.811 78.4874 30.904C81.4218 27.6955 88.2687 20.9995 94.1375 21.2785C88.2687 23.5105 88.4084 30.346 88.4084 30.346C88.4084 30.346 91.6223 26.8585 98.4692 27.4165C94.8361 28.8115 92.8799 32.9965 92.1812 36.6235C96.7924 38.995 99.8665 44.4355 101.404 47.7835C102.242 49.4575 102.661 50.713 102.661 50.713L100.286 51.829L100.705 53.224C105.456 55.8745 112.582 55.0375 112.582 55.0375C112.582 55.0375 109.788 59.641 101.962 59.083L102.801 62.2915C102.894 62.3845 103.034 62.4775 103.22 62.5705C103.313 62.6635 103.406 62.7565 103.5 62.8495L121.106 62.71C121.385 62.71 121.711 62.7565 122.084 62.8495C124.04 50.2945 124.459 34.252 117.892 20.9995C116.914 19.0465 114.958 17.6515 112.862 17.233C103.5 15.559 91.0634 15.001 78.9066 15.001C78.9066 15.187 78.8601 15.3265 78.7669 15.4195Z" fill="#64EBB6"/>
<path d="M65.6306 33.5545C65.9101 34.252 66.469 34.531 67.1676 34.81L69.1239 34.252C68.9842 32.02 68.7047 29.6485 68.565 28.393C68.565 28.3 68.565 28.207 68.565 28.114C68.565 28.021 68.5184 27.9745 68.4253 27.9745C66.1895 29.3695 62.4168 29.0905 61.7181 27.556C61.2989 26.719 61.9975 26.0215 62.9757 25.603C62.0441 25.138 61.2057 24.673 60.4605 24.208C59.9947 24.394 59.5756 24.6265 59.2029 24.9055C58.7372 25.5565 58.3179 26.2075 57.9453 26.8585C61.2989 28.672 64.0935 31.0435 65.6306 33.5545Z" fill="#64EBB6"/>
<path d="M121.245 67.8715C117.192 67.0345 112.022 66.895 107.551 67.174C110.485 70.6615 114.118 75.6835 117.891 80.845C118.729 78.4735 120.127 73.7305 121.245 67.8715Z" fill="#64EBB6"/>
<path d="M47.045 44.2961C44.6696 40.6691 42.7133 36.3446 42.7133 32.4386C43.5517 34.2521 47.3245 36.4841 50.678 38.1581C51.237 37.1351 51.8425 36.1121 52.4945 35.0891C53.4261 33.4151 54.3576 31.7411 55.2892 30.0671C54.5905 27.9746 53.4727 26.0216 51.7959 24.7661C53.7521 25.1846 55.5687 25.7426 57.3852 26.5796C57.851 25.9286 58.3167 25.2776 58.7825 24.6266V24.4871C59.1551 24.2081 59.5278 23.9756 59.9004 23.7896C59.1552 23.2316 58.5496 22.6271 58.0838 21.9761C56.6865 20.0231 56.5469 17.7911 57.1058 15.5591C52.0754 15.8381 47.7437 15.9776 44.5299 16.2566C40.4776 16.5356 36.9843 19.0466 35.5869 22.8131C30.836 35.2286 30.5566 47.3651 31.9539 57.5486C34.5623 57.3626 36.7513 56.3861 38.5213 54.6191C42.0146 51.5501 44.6696 47.9231 47.045 44.2961Z" fill="#64EBB6"/>
<path d="M45.9303 62.9892C46.1166 62.3382 46.3029 61.6407 46.4892 60.8967C46.6755 60.2457 46.8618 59.6412 47.0481 59.0832C44.8124 56.9907 42.2972 54.7587 40.2012 53.7822C39.8286 54.2472 39.4094 54.6657 38.9437 55.0377C37.0806 56.8977 34.7517 57.9207 31.957 58.1067C32.2365 59.9667 32.5625 61.7337 32.9351 63.4077C34.1461 63.1287 35.3572 62.9892 36.5682 62.9892H45.9303Z" fill="#64EBB6"/>
<path d="M55.2902 30.0671C55.9423 28.9511 56.6409 27.7886 57.3862 26.5796C55.5697 25.7426 53.7531 25.1846 51.7969 24.7661C53.4737 26.0216 54.5915 27.9746 55.2902 30.0671Z" fill="#64EBB6"/>
<path d="M50.8175 44.9935C51.9354 43.0405 53.193 41.227 54.3108 39.9715C53.4725 39.553 52.3546 38.995 51.2367 38.437C50.0257 40.576 48.7215 42.6685 47.3242 44.7145C48.0695 45.7375 48.7681 46.6675 49.4202 47.5045C49.886 46.6675 50.3518 45.8305 50.8175 44.9935Z" fill="#64EBB6"/>
<path d="M82.9597 34.9495L89.1079 35.7865C90.2258 35.8795 91.2505 36.1585 92.1821 36.6235C92.8807 32.9965 94.837 28.8115 98.47 27.4165C91.6231 26.8585 88.4093 30.346 88.4093 30.346C88.4093 30.346 88.2696 23.5105 94.1383 21.2785C88.2696 20.9995 81.4227 27.6955 78.4883 30.904C78.628 31.741 78.7677 33.5545 78.9075 34.531L82.9597 34.9495Z" fill="#64EBB6"/>
<path d="M57.8061 37.7394L65.2119 35.5074L67.1681 34.8099C66.4694 34.5309 65.9105 34.2519 65.6311 33.5544C64.094 31.0434 61.2994 28.6719 57.9458 26.8584C57.1074 28.1604 56.3156 29.4624 55.5703 30.7644C56.269 33.4149 56.5485 36.2049 56.5485 38.1579C56.9211 37.9719 57.3403 37.8324 57.8061 37.7394Z" fill="#64EBB6"/>
<path d="M61.0201 56.9907L59.9023 58.8042L58.6446 61.0362C58.5515 61.0362 58.272 60.8967 57.8063 60.6177L57.5268 61.4547L56.8281 62.9892H60.1817C60.8337 62.3382 61.4859 61.7337 62.1379 61.1757C61.579 59.7807 61.2996 58.2462 61.0201 56.9907Z" fill="#64EBB6"/>
<path d="M46.3475 53.9216C46.3475 53.9216 46.7666 52.8057 47.605 51.2712C45.6488 50.9922 43.6925 50.9922 42.2952 51.5502C41.6431 52.3872 40.9445 53.1311 40.1992 53.7821C42.2952 54.7586 44.8104 56.9907 47.0461 59.0832C47.4188 57.6882 47.8379 56.2932 48.3037 54.8982C47.6516 54.6192 46.9996 54.2936 46.3475 53.9216Z" fill="#64EBB6"/>
<path d="M42.7148 32.4385C42.7148 36.3445 44.6712 40.669 47.0466 44.296C48.3508 42.25 49.5618 40.204 50.6796 38.158C47.326 36.484 43.5532 34.252 42.7148 32.4385Z" fill="#64EBB6"/>
<path d="M101.961 59.0831C109.786 59.6411 112.58 55.0376 112.58 55.0376C112.58 55.0376 105.454 55.8746 100.703 53.2241L100.843 54.0611L101.961 59.0831Z" fill="#64EBB6"/>
<path d="M68.5645 28.3931C68.7042 29.6486 68.9837 32.0201 69.1234 34.2521L67.1671 34.8101L65.2109 35.5076C65.9562 36.3446 66.7014 37.1351 67.4466 37.8791C68.1919 37.8791 68.9372 37.8326 69.6824 37.7396C70.8934 37.6466 72.0579 37.6001 73.1757 37.6001H73.3154L73.4551 37.7396C73.7346 37.8791 74.0141 38.1581 74.2936 38.2976C74.573 38.4836 74.8991 38.5766 75.2717 38.5766H75.4114C75.5046 38.5766 75.5977 38.5766 75.6909 38.5766L75.9704 38.4371H76.1101C76.2032 38.3441 76.2498 38.2976 76.2498 38.2976H76.3895L76.5292 38.1581C76.7156 37.9721 76.8553 37.8326 76.9484 37.7396L77.0882 37.6001H77.2279C77.6937 37.6001 78.2061 37.6001 78.765 37.6001C79.2308 37.6001 79.7431 37.6001 80.302 37.6001C80.861 37.6001 81.4199 37.6001 81.9788 37.6001C82.3515 36.7631 82.6775 35.8796 82.957 34.9496L78.9047 34.5311C78.765 33.5546 78.6253 31.7411 78.4855 30.9041C78.4855 30.8111 78.4855 30.7181 78.4855 30.6251C74.8525 31.0436 71.2194 30.6251 68.5645 28.3931Z" fill="#FAD4C8"/>
<path d="M78.7645 38.1578C78.2988 38.1578 77.833 38.1578 77.3672 38.1578C77.1809 38.3438 77.0411 38.4833 76.948 38.5763L76.6686 38.7158L76.5288 38.8553C76.5288 38.8553 76.4822 38.8553 76.3891 38.8553C76.1096 39.1343 75.6904 39.2738 75.1314 39.2738C74.7588 39.1808 74.3862 39.0413 74.0136 38.8553C73.641 38.6693 73.3149 38.4368 73.0355 38.1578C71.9176 38.1578 70.7998 38.1578 69.6819 38.1578C69.0298 38.1578 68.3312 38.1578 67.5859 38.1578C70.7998 41.6453 74.1533 44.8538 77.2274 48.4808C78.7645 44.9933 80.4413 41.3663 81.8386 37.7393C81.2797 37.8323 80.7673 37.9253 80.3016 38.0183C79.7426 38.0183 79.2303 38.0648 78.7645 38.1578Z" fill="#FAD4C8"/>
<path d="M67.589 38.1581C68.3342 38.1581 69.0329 38.1581 69.685 38.1581C70.8029 38.1581 71.9207 38.1581 73.0385 38.1581C73.318 38.4371 73.644 38.6696 74.0167 38.8556C74.3893 39.0416 74.7619 39.1811 75.1345 39.2741C75.6934 39.2741 76.1127 39.1346 76.3921 38.8556C76.4853 38.8556 76.5318 38.8556 76.5318 38.8556L76.6716 38.7161L76.951 38.5766C77.0442 38.4836 77.184 38.3441 77.3703 38.1581C77.8361 38.1581 78.3018 38.1581 78.7676 38.1581C79.2334 38.0651 79.7457 38.0186 80.3046 38.0186C80.7704 37.9256 81.2827 37.8326 81.8417 37.7396C81.9348 37.7396 81.9814 37.6931 81.9814 37.6001C81.4225 37.6001 80.8636 37.6001 80.3046 37.6001C79.7457 37.6001 79.2334 37.6001 78.7676 37.6001C78.2087 37.6001 77.6963 37.6001 77.2305 37.6001H77.0908L76.951 37.7396C76.8579 37.8326 76.7181 37.9721 76.5318 38.1581L76.3921 38.2976H76.2524C76.2524 38.2976 76.2058 38.3441 76.1127 38.4371H75.973L75.6935 38.5766C75.6003 38.5766 75.5071 38.5766 75.414 38.5766H75.2743C74.9017 38.5766 74.5756 38.4836 74.2961 38.2976C74.0167 38.1581 73.7372 37.8791 73.4577 37.7396L73.318 37.6001H73.1783C72.0604 37.6001 70.896 37.6466 69.685 37.7396C68.9398 37.8326 68.1945 37.8791 67.4492 37.8791C67.5424 37.9721 67.589 38.0651 67.589 38.1581Z" fill="#DDA697"/>
<path d="M95.5352 58.525C98.3298 59.5015 100.845 60.757 102.801 62.2915L101.963 59.083L100.845 54.061C98.749 55.177 97.0722 56.7115 95.5352 58.525Z" fill="#FAD4C8"/>
<path d="M91.3438 56.2931V57.2696C92.8342 57.6416 94.2316 58.0601 95.5357 58.5251C97.0728 56.7116 98.7496 55.1771 100.846 54.0611L100.706 53.2241L100.287 51.8291L91.3438 56.2931Z" fill="#E2A89F"/>
<path d="M90.7826 48.2022L91.3415 55.5957C89.3853 54.7587 87.4289 54.2007 85.3329 54.0612C77.6477 53.5032 70.1021 55.1772 62.5566 54.2007L61.0195 56.9907C61.299 58.2462 61.5784 59.7807 62.1374 61.1757C64.932 58.8042 68.0061 56.8512 72.3378 56.2932C78.4861 55.3167 85.333 55.7352 91.3415 57.2697V56.2932L100.284 51.8292L102.66 50.7132C102.66 50.7132 102.241 49.4577 101.402 47.7837C100.377 48.1557 99.3062 48.4812 98.1884 48.7602C95.6732 49.3182 93.0183 49.1787 90.7826 48.2022Z" fill="#D9D3ED"/>
<path fill-rule="evenodd" clip-rule="evenodd" d="M89.107 35.7867L82.9588 34.9497C82.6793 35.8797 82.3533 36.7632 81.9807 37.6002C81.9807 37.6932 81.934 37.7397 81.8409 37.7397C80.4436 41.3667 78.7668 44.9937 77.2297 48.4812C74.1556 44.8542 70.8021 41.6457 67.5882 38.1582C67.5882 38.0652 67.5416 37.9722 67.4484 37.8792C66.7032 37.1352 65.958 36.3447 65.2128 35.5077L57.8069 37.7397C57.3412 37.8327 56.9219 37.9722 56.5493 38.1582C55.8041 38.5302 55.0589 39.1347 54.3136 39.9717C53.1958 41.2272 51.9382 43.0407 50.8203 44.9937C52.0779 49.3182 53.7546 53.5032 56.9685 56.7117C57.8069 57.5487 58.7851 58.2462 59.9029 58.8042L61.0208 56.9907L62.5578 54.2007C70.1034 55.1772 77.6489 53.5032 85.3342 54.0612C87.4302 54.2007 89.3865 54.7587 91.3428 55.5957L90.7838 48.2022C93.0195 49.1787 95.6744 49.3182 98.1896 48.7602C99.3075 48.4812 100.379 48.1557 101.403 47.7837C99.8664 44.4357 96.7923 38.9952 92.1811 36.6237C91.2496 36.1587 90.2248 35.8797 89.107 35.7867Z" fill="#F3EEFF"/>
<path d="M78.4875 30.6251C78.3477 29.5091 78.3477 28.2537 78.4875 27.5562C76.8107 28.3932 75.4133 28.5326 74.016 28.8116C72.3392 29.2301 70.3829 28.9511 68.8459 28.1141C68.7527 28.1141 68.6596 28.1141 68.5664 28.1141C68.5664 28.2071 68.5664 28.3002 68.5664 28.3932C71.2213 30.6252 74.8544 31.0436 78.4875 30.6251Z" fill="#E2A89F"/>
<path fill-rule="evenodd" clip-rule="evenodd" d="M57.107 15.559C58.2248 11.7925 61.7181 8.305 66.0498 7.189C69.6828 6.352 73.1762 9.0025 76.1106 12.6295C75.9242 12.6295 75.7845 12.6295 75.6914 12.6295C75.4119 12.7225 75.179 12.862 74.9927 13.048C74.853 13.1875 74.7132 13.4665 74.7132 13.7455C74.9927 13.8385 75.2256 13.885 75.4119 13.885C75.5982 13.885 75.7379 13.885 75.8311 13.885C76.0174 13.792 76.2037 13.699 76.39 13.606C76.4832 13.606 76.5764 13.5595 76.6695 13.4665C77.0421 13.9315 77.4147 14.443 77.7874 15.001C77.7874 15.094 77.8339 15.1405 77.9271 15.1405C77.7407 15.2335 77.5545 15.28 77.3682 15.28C77.0887 15.28 76.8092 15.4195 76.5297 15.6985C76.2503 15.9775 76.2503 16.396 76.2503 16.675C76.5297 16.396 76.7626 16.2565 76.9489 16.2565C77.1352 16.1635 77.3216 16.117 77.5079 16.117C77.7873 16.024 78.0668 15.931 78.3462 15.838C80.3025 18.7675 81.8396 21.976 82.9575 24.3475C81.141 26.0215 79.7436 26.998 78.486 27.556C76.8092 28.393 75.4119 28.5325 74.0146 28.8115C72.3378 29.23 70.3815 28.951 68.8444 28.114C68.7513 28.114 68.6581 28.114 68.565 28.114C68.565 28.021 68.5184 27.9745 68.4253 27.9745C66.1895 29.3695 62.4168 29.0905 61.7181 27.556C61.2989 26.719 61.9975 26.0215 62.9757 25.603C62.0441 25.138 61.2057 24.673 60.4605 24.208C62.8359 23.092 65.3512 23.2315 68.0061 23.65C68.0061 23.836 68.0061 24.0685 68.0061 24.3475C68.0061 24.487 68.1458 24.766 68.4253 24.766C70.2418 25.4635 73.3159 25.045 74.4337 24.9055C74.7132 24.766 74.8529 24.6265 74.8529 24.3475C74.8529 24.3475 74.8529 24.301 74.8529 24.208C75.8311 24.0685 76.6695 23.7895 77.2284 23.2315C76.8092 23.7895 76.39 24.208 76.39 24.208C76.39 24.208 79.1847 22.813 80.1628 21.697C80.4423 21.418 80.3025 20.9995 80.023 20.86C80.023 20.86 79.1846 20.4415 79.0449 21.139C78.6257 21.139 78.3463 21.418 78.0668 21.8365C78.16 21.4645 78.1134 21.0925 77.9271 20.7205C78.0202 20.7205 78.1134 20.674 78.2065 20.581C78.486 20.302 78.7655 20.023 78.9052 19.6045C78.9052 19.5115 78.9517 19.4185 79.0449 19.3255C79.0449 19.2325 79.0449 19.1395 79.0449 19.0465C79.0449 19.0465 79.0449 18.907 78.9052 18.7675C78.7655 18.628 78.6257 18.628 78.6257 18.628L78.486 18.4885C78.3929 18.4885 78.2997 18.4885 78.2065 18.4885C77.9271 18.3025 77.6476 18.1165 77.3682 17.9305C76.8092 17.5585 76.2968 17.14 75.8311 16.675C75.3653 16.21 74.8995 15.6985 74.4337 15.1405C74.6201 15.8845 74.9461 16.5355 75.4119 17.0935C75.7845 17.7445 76.2968 18.256 76.9489 18.628C77.2284 18.814 77.5544 19 77.9271 19.186C78.0202 19.186 78.1134 19.186 78.2065 19.186L78.3462 19.3255C78.3462 19.3255 78.3462 19.372 78.3462 19.465C78.2531 19.744 78.1134 20.023 77.9271 20.302C77.8339 20.488 77.6942 20.6275 77.5079 20.7205H77.3682C77.3682 20.8135 77.3682 20.86 77.3682 20.86C77.3682 20.953 77.3216 20.9995 77.2284 20.9995C77.3216 20.9995 77.4147 20.9995 77.5079 20.9995C77.601 21.5575 77.5079 22.069 77.2284 22.534C76.6695 23.092 75.8311 23.5105 74.8529 23.65C74.8529 23.464 74.8529 23.3245 74.8529 23.2315C74.8529 22.9525 74.4337 22.6735 74.1543 22.813C71.9185 23.2315 69.6829 23.092 68.7047 22.9525C68.5184 22.9525 68.3321 22.999 68.1458 23.092C65.3511 22.6735 62.5565 22.3945 59.9016 23.7895C59.1564 23.2315 58.5508 22.627 58.085 21.976C56.6877 20.023 56.548 17.791 57.107 15.559ZM65.4909 26.3005C65.9567 26.2075 66.469 26.1145 67.0279 26.0215C67.4937 26.0215 68.0527 26.0215 68.7047 26.0215C68.239 25.6495 67.68 25.3705 67.0279 25.1845C66.469 25.0915 65.8635 25.138 65.2114 25.324C64.5593 25.51 64.0469 25.789 63.6743 26.161C63.1154 26.719 62.836 27.1375 62.6963 27.835C63.162 27.463 63.6278 27.1375 64.0936 26.8585C64.5594 26.6725 65.0251 26.4865 65.4909 26.3005ZM80.1628 22.9525C79.9765 22.8595 79.7902 22.813 79.6039 22.813C79.4176 22.813 79.2778 22.906 79.1847 23.092C78.9984 23.185 78.9052 23.3245 78.9052 23.5105C78.812 23.6965 78.812 23.8825 78.9052 24.0685C78.9984 23.9755 79.1381 23.8825 79.3244 23.7895C79.4175 23.6965 79.5107 23.6035 79.6039 23.5105C79.697 23.4175 79.7902 23.3245 79.8833 23.2315C79.9765 23.1385 80.0697 23.0455 80.1628 22.9525ZM69.5431 18.7675C69.8226 18.4885 70.1021 18.163 70.3816 17.791C70.5679 17.512 70.8007 17.1865 71.0802 16.8145C71.3597 16.5355 71.6391 16.117 71.7789 15.559C71.2199 15.559 70.8007 15.6985 70.3816 15.9775C69.9158 16.1635 69.4965 16.4425 69.1239 16.8145C68.8445 17.2795 68.6116 17.791 68.4253 18.349C68.4253 18.7675 68.4252 19.465 68.8444 19.8835C69.1239 19.3255 69.2636 19.0465 69.5431 18.7675ZM73.7351 17.791C73.5488 17.884 73.3159 18.07 73.0364 18.349C72.9433 18.535 72.8501 18.7675 72.7569 19.0465C72.6638 19.2325 72.6172 19.4185 72.6172 19.6045C72.4309 19.9765 72.198 20.2555 71.9186 20.4415C71.7323 20.5345 71.4994 20.6275 71.2199 20.7205C71.0802 20.86 70.8007 20.9995 70.6609 21.2785C71.2199 21.139 71.6391 21.139 72.1981 20.9995C72.6173 20.86 73.0364 20.4415 73.3159 19.8835C73.4556 19.3255 73.4557 18.907 73.5954 18.628C73.7351 18.349 74.1543 18.07 74.4337 17.6515C74.2474 17.6515 74.0145 17.698 73.7351 17.791Z" fill="#FAD4C8"/>
<path d="M80.1634 21.6969C80.4429 21.4179 80.3031 20.9994 80.0236 20.8599C80.0236 20.8599 79.1852 20.4414 79.0455 21.1389C78.6263 21.1389 78.3469 21.4179 78.0674 21.8364C77.9743 22.2084 77.8345 22.5339 77.6482 22.8129C77.555 22.9989 77.4153 23.1384 77.229 23.2314C76.8098 23.7894 76.3906 24.2079 76.3906 24.2079C76.3906 24.2079 79.1853 22.8129 80.1634 21.6969Z" fill="#E2A89F"/>
<path d="M71.0807 16.8146C71.3602 16.5356 71.6397 16.1171 71.7794 15.5591C71.2205 15.5591 70.8013 15.6986 70.3821 15.9776C69.9163 16.1636 69.4971 16.4426 69.1244 16.8146C68.845 17.2796 68.6121 17.7911 68.4258 18.3491C68.4258 18.7676 68.4258 19.4651 68.845 19.8836C69.1244 19.3256 69.2642 19.0466 69.5436 18.7676C69.8231 18.4886 70.1026 18.1631 70.3821 17.7911C70.5684 17.5121 70.8013 17.1866 71.0807 16.8146Z" fill="#64496D"/>
<path d="M75.693 12.6294C75.4135 12.7224 75.1806 12.8619 74.9943 13.0479C74.8546 13.1874 74.7148 13.4664 74.7148 13.7454C74.9943 13.8384 75.2272 13.8849 75.4135 13.8849C75.5998 13.8849 75.7395 13.8849 75.8327 13.8849C76.019 13.7919 76.2053 13.6989 76.3917 13.6059C76.4848 13.6059 76.578 13.5594 76.6711 13.4664C76.7643 13.3734 76.8574 13.3269 76.9505 13.3269C76.8108 13.0479 76.5314 12.9084 76.3917 12.7689C76.2985 12.7689 76.2053 12.7224 76.1122 12.6294C75.9259 12.6294 75.7861 12.6294 75.693 12.6294Z" fill="#64496D"/>
<path d="M67.027 26.0217C67.4928 26.0217 68.0517 26.0217 68.7038 26.0217C68.238 25.6497 67.6791 25.3707 67.027 25.1847C66.4681 25.0917 65.8626 25.1382 65.2105 25.3242C64.5584 25.5102 64.046 25.7892 63.6734 26.1612C63.1144 26.7192 62.835 27.1377 62.6953 27.8352C63.1611 27.4632 63.6269 27.1377 64.0926 26.8587C64.5584 26.6727 65.0242 26.4867 65.49 26.3007C65.9557 26.2077 66.4681 26.1147 67.027 26.0217Z" fill="#EFB9A8"/>
<path d="M48.5846 60.7572C47.9325 60.7572 47.2338 60.8037 46.4886 60.8967C46.3023 61.6407 46.116 62.3382 45.9297 62.9892H56.8288L57.5275 61.4547C54.5931 60.8967 51.6587 60.6177 48.5846 60.7572Z" fill="#FAD4C8"/>
<path d="M57.5272 61.4544L57.8067 60.6174C56.2696 59.6409 52.2173 57.1299 48.3048 54.8979C47.839 56.2929 47.4199 57.6879 47.0472 59.0829C46.8609 59.6409 46.6746 60.2454 46.4883 60.8964C47.2335 60.8034 47.9322 60.7569 48.5843 60.7569C51.6584 60.6174 54.5928 60.8964 57.5272 61.4544Z" fill="#E2A89F"/>
<path d="M56.9673 56.7116C53.7534 53.5031 52.0767 49.3182 50.8191 44.9937C50.3533 45.8307 49.8876 46.6676 49.4218 47.5046C48.7231 48.8996 48.0244 50.1552 47.6052 51.2712C46.7668 52.8057 46.3477 53.9216 46.3477 53.9216C46.9997 54.2936 47.6518 54.6192 48.3039 54.8982C52.2164 57.1301 56.2687 59.6411 57.8057 60.6176C58.2715 60.8966 58.551 61.0362 58.6441 61.0362L59.9017 58.8041C58.7839 58.2461 57.8057 57.5486 56.9673 56.7116Z" fill="#D9D3ED"/>
<path d="M117.89 80.8448C114.117 75.6833 110.484 70.6613 107.55 67.1738C105.873 67.1738 104.336 67.3133 103.079 67.4528C100.843 67.5923 99.725 70.2428 100.983 72.3353C103.218 76.2413 106.851 82.1003 110.904 87.6803L123.2 87.5408C121.384 85.3088 119.707 83.0768 117.89 80.8448Z" fill="#497272"/>
<path d="M102.798 62.2914C100.842 60.7569 98.3267 59.5014 95.5321 58.5249C94.2279 58.0599 92.8306 57.6414 91.3401 57.2694C85.3316 55.7349 78.4847 55.3164 72.3364 56.2929C68.0047 56.8509 64.9306 58.8039 62.136 61.1754C61.4839 61.7334 60.8318 62.3379 60.1797 62.9889L71.0789 62.8494C72.3365 61.7334 73.7338 60.4779 74.4324 60.0594C75.2708 59.6409 77.2271 58.9434 78.7642 58.3854C79.6026 57.9669 80.3012 57.8274 80.3012 57.8274C80.3012 57.8274 80.5807 58.5249 79.3231 59.3619C78.9504 59.5479 78.5778 59.7804 78.2052 60.0594C78.5778 59.9664 78.9039 59.9199 79.1834 59.9199C80.0218 59.6409 80.9998 59.5014 81.8382 59.3619C82.6766 59.0829 83.3753 58.9434 83.3753 58.9434C83.3753 58.9434 83.6548 59.6409 82.2575 60.3384C81.978 60.5244 81.652 60.6639 81.2794 60.7569C81.7451 60.6639 82.1643 60.6174 82.5369 60.6174L84.074 60.3384C84.3535 60.3384 84.4932 60.3384 84.4932 60.3384C84.4932 60.3384 84.6329 61.0359 83.2356 61.5939C82.2574 62.0124 80.9999 62.4309 79.882 62.8494H103.497C103.404 62.7564 103.311 62.6634 103.217 62.5704C103.031 62.4774 102.891 62.3844 102.798 62.2914Z" fill="#497272"/>
<path d="M56.1307 73.8701C53.4292 74.7071 51.24 75.3581 49.5632 75.8231C48.1659 76.2416 47.048 75.8231 46.2096 74.9861C43.9739 76.3811 41.5985 77.4971 38.6641 78.7526C38.2915 78.8456 37.9654 78.9851 37.686 79.1711C32.3761 81.4031 27.9047 84.8906 23.9922 88.6571L46.7686 88.3781C47.4207 87.4481 48.0728 86.5181 48.7249 85.5881C51.5195 81.4031 54.1744 77.0786 56.1307 73.8701Z" fill="#497272"/>
<path d="M105.595 87.6805L95.3948 72.3355C94.5565 71.2195 93.1592 70.522 91.7618 70.522C86.1725 70.6615 72.1993 70.6615 66.61 70.801C65.2126 70.801 63.9551 71.4985 63.1167 72.6145L53.1956 87.541L52.6367 88.2385L105.595 87.6805Z" fill="#497272"/>
<path d="M73.0356 18.3489C72.9425 18.5349 72.8493 18.7674 72.7561 19.0464C72.663 19.2324 72.6164 19.4184 72.6164 19.6044C72.4301 19.9764 72.1972 20.2554 71.9178 20.4414C71.7315 20.5344 71.4986 20.6274 71.2191 20.7204C71.0794 20.8599 70.7999 20.9994 70.6602 21.2784C71.2191 21.1389 71.6383 21.1389 72.1973 20.9994C72.6165 20.8599 73.0356 20.4414 73.3151 19.8834C73.4548 19.3254 73.4549 18.9069 73.5946 18.6279C73.7343 18.3489 74.1535 18.0699 74.433 17.6514C74.2466 17.6514 74.0138 17.6979 73.7343 17.7909C73.548 17.8839 73.3151 18.0699 73.0356 18.3489Z" fill="#4B3C4F"/>
<path d="M79.6045 22.813C79.4182 22.813 79.2784 22.906 79.1853 23.092C78.999 23.185 78.9058 23.3245 78.9058 23.5105C78.8126 23.6965 78.8126 23.8825 78.9058 24.0685C78.999 23.9755 79.1387 23.8825 79.325 23.7895C79.4181 23.6965 79.5113 23.6035 79.6045 23.5105C79.6976 23.4175 79.7908 23.3245 79.8839 23.2315C79.9771 23.1385 80.0703 23.0455 80.1634 22.9525C79.9771 22.8595 79.7908 22.813 79.6045 22.813Z" fill="#DDA697"/>
<path d="M77.9268 15.1403C77.7405 15.2333 77.5542 15.2798 77.3679 15.2798C77.0885 15.2798 76.8089 15.4193 76.5295 15.6983C76.25 15.9773 76.25 16.3958 76.25 16.6748C76.5295 16.3958 76.7624 16.2563 76.9487 16.2563C77.135 16.1633 77.3213 16.1168 77.5076 16.1168C77.7871 16.0238 78.0665 15.9308 78.346 15.8378C78.346 15.8378 78.346 15.7913 78.346 15.6983C78.5323 15.6053 78.6721 15.5123 78.7653 15.4193C78.8584 15.3263 78.905 15.1868 78.905 15.0008C78.905 15.0008 78.905 14.9543 78.905 14.8613C78.905 14.9543 78.8584 15.0008 78.7653 15.0008C78.6255 15.1403 78.346 15.1403 78.2063 15.1403C78.1131 15.1403 78.02 15.1403 77.9268 15.1403Z" fill="#4B3C4F"/>
<path d="M40.1983 53.7822C40.9436 53.1312 41.6422 52.3872 42.2943 51.5502C44.1108 49.4577 45.7877 47.0862 47.3247 44.7147C48.7221 42.6687 50.0262 40.5762 51.2372 38.4372C51.7962 37.4142 52.3551 36.3912 52.914 35.3682C53.7524 33.8802 54.6374 32.3457 55.5689 30.7647C56.3141 29.4627 57.106 28.1607 57.9444 26.8587C58.317 26.2077 58.7362 25.5567 59.202 24.9057C59.5746 24.6267 59.9938 24.3942 60.4595 24.2082C62.835 23.0922 65.3502 23.2317 68.0051 23.6502C68.0051 23.8362 68.0051 24.0687 68.0051 24.3477C68.0051 24.4872 68.1449 24.7662 68.4243 24.7662C70.2408 25.4637 73.3149 25.0452 74.4328 24.9057C74.7123 24.7662 74.852 24.6267 74.852 24.3477C74.852 24.3477 74.852 24.3012 74.852 24.2082C75.8301 24.0687 76.6685 23.7897 77.2275 23.2317C77.4138 23.1387 77.5535 22.9992 77.6466 22.8132C77.8329 22.5342 77.9727 22.2087 78.0659 21.8367C78.1591 21.4647 78.1124 21.0927 77.9261 20.7207C77.833 20.8137 77.6932 20.9067 77.5069 20.9997C77.6001 21.5577 77.5069 22.0692 77.2275 22.5342C76.6685 23.0922 75.8301 23.5107 74.852 23.6502C74.852 23.4642 74.852 23.3247 74.852 23.2317C74.852 22.9527 74.4328 22.6737 74.1533 22.8132C71.9176 23.2317 69.6819 23.0922 68.7038 22.9527C68.5175 22.9527 68.3311 22.9992 68.1448 23.0922C65.3502 22.6737 62.5556 22.3947 59.9007 23.7897C59.528 23.9757 59.1554 24.2082 58.7827 24.4872V24.6267C58.317 25.2777 57.8512 25.9287 57.3854 26.5797C56.6402 27.7887 55.9415 28.9512 55.2894 30.0672C54.3579 31.7412 53.4263 33.4152 52.4948 35.0892C51.8427 36.1122 51.2372 37.1352 50.6783 38.1582C49.5604 40.2042 48.3494 42.2502 47.0453 44.2962C44.6698 47.9232 42.0148 51.5502 38.5215 54.6192C36.7516 56.3862 34.5625 57.3627 31.9542 57.5487C31.3952 57.5487 30.8828 57.5022 30.417 57.4092L30.2773 58.1067C30.65 58.1067 31.0226 58.1067 31.3952 58.1067C31.5815 58.1067 31.7678 58.1067 31.9542 58.1067C34.7488 57.9207 37.0777 56.8977 38.9408 55.0377C39.4066 54.6657 39.8257 54.2472 40.1983 53.7822Z" fill="white"/>
<path d="M77.3672 20.7207C77.3672 20.8137 77.3672 20.8602 77.3672 20.8602C77.4603 20.8602 77.5069 20.8137 77.5069 20.7207H77.3672Z" fill="white"/>
<path fill-rule="evenodd" clip-rule="evenodd" d="M78.2064 20.5811C78.1132 20.6741 78.0201 20.7206 77.9269 20.7206C77.8338 20.8136 77.694 20.9066 77.5077 20.9996C77.4146 20.9996 77.3214 20.9996 77.2282 20.9996C77.3214 20.9996 77.368 20.9531 77.368 20.8601C77.4612 20.8601 77.5077 20.8136 77.5077 20.7206C77.694 20.6276 77.8338 20.4881 77.9269 20.3021C78.1132 20.0231 78.2529 19.7441 78.3461 19.4651C78.3461 19.3721 78.3461 19.3256 78.3461 19.3256L78.2064 19.1861C78.1132 19.1861 78.0201 19.1861 77.9269 19.1861C77.5543 19.0001 77.2282 18.8141 76.9488 18.6281C76.2967 18.2561 75.7844 17.7446 75.4117 17.0936C74.946 16.5356 74.6199 15.8846 74.4336 15.1406C74.8994 15.6986 75.3651 16.2101 75.8309 16.6751C76.2967 17.1401 76.8091 17.5586 77.368 17.9306C77.6475 18.1166 77.9269 18.3026 78.2064 18.4886C78.2995 18.4886 78.3927 18.4886 78.4859 18.4886L78.6256 18.6281C78.6256 18.6281 78.7653 18.6281 78.9051 18.7676C79.0448 18.9071 79.0448 19.0466 79.0448 19.0466C79.0448 19.1396 79.0448 19.2326 79.0448 19.3256C78.9516 19.4186 78.9051 19.5116 78.9051 19.6046C78.7653 20.0231 78.4859 20.3021 78.2064 20.5811Z" fill="#DDA697"/>
<path fill-rule="evenodd" clip-rule="evenodd" d="M83.2387 61.5941C82.2606 62.0126 81.003 62.4311 79.8852 62.8496H71.082C72.3396 61.7336 73.7369 60.4781 74.4356 60.0596C75.274 59.6411 77.2303 58.9436 78.7673 58.3856C78.7673 58.3856 78.907 58.8041 79.1865 58.8041C80.1646 58.5251 80.1646 57.8276 80.1646 57.8276L78.7673 58.3856C79.6057 57.9671 80.3043 57.8276 80.3043 57.8276C80.3043 57.8276 80.5838 58.5251 79.3262 59.3621C78.9536 59.5481 78.581 59.7806 78.2084 60.0596C77.9289 60.1526 77.6495 60.1991 77.37 60.1991C77.1837 60.2921 76.9508 60.3851 76.6713 60.4781C76.5782 60.4781 76.485 60.4781 76.3919 60.4781L76.2521 60.6176C76.1589 60.7106 76.0658 60.7571 75.9727 60.7571C75.5069 61.0361 75.0877 61.3616 74.715 61.7336L76.1124 61.0361C76.2521 60.8966 76.5316 60.7571 76.6713 60.7571C76.9508 60.6641 77.2302 60.5711 77.5097 60.4781C77.9755 60.3851 78.4412 60.2456 78.907 60.0596C79.466 59.9666 79.9783 59.8736 80.444 59.7806C80.0714 59.7806 79.6523 59.8271 79.1865 59.9201C80.0249 59.6411 81.003 59.5016 81.8414 59.3621C81.8414 59.3621 81.8414 59.9201 82.2606 59.9201C83.2388 59.7806 83.3785 58.9436 83.3785 58.9436C83.3785 58.9436 83.658 59.6411 82.2606 60.3386C81.9812 60.5246 81.6551 60.6641 81.2825 60.7571C81.7483 60.6641 82.1674 60.6176 82.54 60.6176C82.54 60.6176 82.5401 61.3151 82.9593 61.3151C83.9374 61.1756 83.9374 60.4781 84.0771 60.3386C84.3566 60.3386 84.4963 60.3386 84.4963 60.3386C84.4963 60.3386 84.636 61.0361 83.2387 61.5941ZM83.2387 58.9436L81.8414 59.3621C82.54 59.0831 83.099 59.0831 83.2387 58.9436ZM83.3785 58.9436C83.2853 58.9436 83.2387 58.9436 83.2387 58.9436H83.3785ZM76.811 62.1521C77.0905 62.0126 77.37 61.8731 77.5097 61.7336C77.7892 61.7336 78.022 61.6871 78.2084 61.5941C78.7673 61.5011 79.2796 61.3616 79.7454 61.1756C80.2112 61.0826 80.7236 60.9431 81.2825 60.7571C80.2578 60.9431 79.2331 61.1291 78.2084 61.3151C77.9289 61.4081 77.696 61.5011 77.5097 61.5941C77.4165 61.5941 77.3234 61.5941 77.2302 61.5941L77.0905 61.7336C76.9974 61.7336 76.9042 61.7801 76.811 61.8731C76.3453 62.1521 75.926 62.4776 75.5534 62.8496L76.811 62.1521Z" fill="#FAD4C8"/>
<path d="M82.2591 59.9199C83.2372 59.7804 83.377 58.9434 83.377 58.9434L81.8398 59.3619C81.8398 59.3619 81.8399 59.9199 82.2591 59.9199Z" fill="#E2A89F"/>
<path d="M79.1848 58.8041C80.1629 58.5251 80.163 57.8276 80.163 57.8276L78.7656 58.3856C78.7656 58.3856 78.9053 58.8041 79.1848 58.8041Z" fill="#E2A89F"/>
<path d="M82.9583 61.3149C83.9365 61.1754 83.9364 60.4779 84.0762 60.3384L82.5391 60.6174C82.5391 60.6174 82.5391 61.3149 82.9583 61.3149Z" fill="#E2A89F"/>
<path d="M46.2096 74.9862C47.048 75.8232 48.1659 76.2417 49.5633 75.8232C51.2401 75.3582 53.4292 74.7072 56.1307 73.8702C56.5033 73.3122 56.8294 72.8007 57.1089 72.3357C58.3664 70.2432 57.1089 67.5927 55.0129 67.4532C53.895 67.3602 52.7306 67.2672 51.5196 67.1742C49.8428 67.4532 48.1659 67.7322 46.4891 68.1507C47.607 67.6857 48.6783 67.3602 49.703 67.1742C48.1193 67.0812 46.4891 67.0347 44.8123 67.0347C44.7192 67.4067 44.6726 67.8252 44.6726 68.2902C44.2534 70.1037 44.6726 73.3122 46.2096 74.9862Z" fill="#FAD4C8"/>
<path d="M46.4883 68.1503C48.1651 67.7318 49.8419 67.4528 51.5187 67.1738C50.9598 67.1738 50.3542 67.1738 49.7021 67.1738C48.6774 67.3598 47.6061 67.6853 46.4883 68.1503Z" fill="#E2A89F"/>
<path d="M78.069 61.5938C78.6279 61.4078 79.1403 61.2683 79.606 61.1753C80.165 61.0823 80.6773 60.9428 81.1431 60.7568C80.1184 60.9428 79.0937 61.1288 78.069 61.3148C77.7896 61.4078 77.5567 61.5008 77.3704 61.5938C77.2772 61.5938 77.184 61.5938 77.0909 61.5938L76.9511 61.7333C76.8579 61.7333 76.7648 61.7798 76.6717 61.8728C76.2059 62.1518 75.7867 62.4773 75.4141 62.8493L76.8114 62.1518C76.9511 62.0123 77.2306 61.8728 77.3704 61.7333C77.6498 61.7333 77.8827 61.6868 78.069 61.5938Z" fill="#E2A89F"/>
<path d="M76.6711 60.4778C76.578 60.4778 76.4848 60.4778 76.3917 60.4778L76.2519 60.6173C76.1587 60.7103 76.0656 60.7568 75.9725 60.7568C75.5067 61.0358 75.0875 61.3613 74.7148 61.7333L76.1122 61.0358C76.2519 60.8963 76.5314 60.7568 76.6711 60.7568C76.9506 60.6638 77.23 60.5708 77.5095 60.4778C77.9753 60.3848 78.441 60.2453 78.9068 60.0593C79.4658 59.9663 79.9781 59.8733 80.4438 59.7803C80.0712 59.7803 79.6521 59.8268 79.1863 59.9198C78.9068 59.9198 78.5808 59.9663 78.2082 60.0593C77.9287 60.1523 77.6493 60.1988 77.3698 60.1988C77.1835 60.2918 76.9506 60.3848 76.6711 60.4778Z" fill="#E2A89F"/>
<path d="M15.6069 130.507L13.3711 152.548H17.9823L20.9167 135.529C19.6591 133.297 17.8426 131.623 15.6069 130.507Z" fill="#F3EEFF"/>
<path d="M13.0922 152.548L10.9962 159.523C10.7167 160.36 11.4153 161.197 12.2537 161.197H16.5855C17.2841 161.197 17.843 160.639 17.843 159.941L18.1225 152.548H17.9828H13.3716H13.0922Z" fill="#4B3D60"/>
<path d="M135.078 135.808L138.152 152.827H142.624L140.528 130.786C138.292 131.763 136.475 133.576 135.078 135.808Z" fill="#F3EEFF"/>
<path d="M138.012 152.827L138.152 160.221C138.291 160.779 138.71 161.337 139.409 161.337L143.881 161.476C144.719 161.476 145.418 160.639 145.138 159.802L142.902 152.827H142.623H138.152H138.012Z" fill="#4B3D60"/>
<path d="M6.52344 118.649V125.345H16.0252L15.6061 130.507C17.8418 131.623 19.6583 133.297 20.9159 135.529L22.7324 125.345H133.261L135.077 135.808C136.475 133.576 138.291 131.762 140.527 130.786L139.968 125.345H148.352V118.649H6.52344Z" fill="#C5C5D8"/>
<path d="M12.8124 95.0741C10.1109 93.5861 7.54913 91.8656 5.1271 89.9126C3.59005 90.7496 2.61187 92.1446 2.89133 93.5396L5.1271 107.211H8.48063L12.8124 95.0741Z" fill="#64EBB6"/>
<path d="M17.2852 97.864C16.5865 99.6775 17.5646 101.77 19.3812 102.188C22.1758 102.746 26.3677 103.304 31.1186 102.467C26.3677 101.212 21.7566 99.6775 17.4249 97.585C17.4249 97.678 17.3783 97.771 17.2852 97.864Z" fill="#64EBB6"/>
<path d="M149.889 107.211C150.075 107.211 150.308 107.257 150.587 107.35L152.544 94.0977C153.103 90.4707 148.631 87.2622 142.902 87.2622H141.645L148.212 107.211H149.889Z" fill="#64EBB6"/>
<path d="M15.1858 88.6572L9.31698 88.7967C7.64019 88.7967 6.24286 89.2152 5.125 89.9127C7.54703 91.8657 10.1088 93.5862 12.8103 95.0742L15.1858 88.6572Z" fill="#64EBB6"/>
<path d="M21.0549 88.6569C19.5178 92.0049 18.2603 95.2134 17.4219 97.5849C21.7536 99.6774 26.3647 101.212 31.1157 102.467C31.5814 102.467 32.0472 102.421 32.513 102.328C36.2858 101.63 41.7353 95.3529 46.7657 88.3779L23.9893 88.6569H21.0549Z" fill="#64EBB6"/>
<path d="M52.6359 88.2387L47.885 95.4927C46.0685 98.1432 48.0247 101.631 51.3783 101.631L107.691 102.328C111.044 102.468 113.14 98.8407 111.324 96.1902L108.669 92.1447L105.595 87.6807L52.6359 88.2387Z" fill="#64EBB6"/>
<path d="M110.906 87.6804C111.745 88.8894 112.63 90.0984 113.561 91.3074C117.893 97.0269 122.364 101.63 125.578 102.328C130.888 103.304 135.639 102.746 138.713 102.188C140.39 101.77 141.508 99.6774 140.809 97.8639C139.691 95.2134 138.294 91.4469 136.477 87.4014L123.203 87.5409L110.906 87.6804Z" fill="#64EBB6"/>
<path d="M32.5157 69.406C32.9815 69.127 33.4939 68.848 34.0528 68.569C36.8475 67.453 40.7599 67.174 44.8122 67.0345C46.489 67.0345 48.1192 67.081 49.7028 67.174C50.3549 67.174 50.9605 67.174 51.5194 67.174C52.7304 67.267 53.8949 67.36 55.0127 67.453C57.1087 67.5925 58.3663 70.243 57.1087 72.3355C56.8293 72.8005 56.5032 73.312 56.1306 73.87C54.1743 77.0785 51.5194 81.403 48.7248 85.588C50.2153 86.239 51.7057 86.89 53.1961 87.541L63.1172 72.6145C63.9556 71.4985 65.2132 70.801 66.6105 70.801C72.1998 70.6615 86.1731 70.6615 91.7624 70.522C93.1597 70.522 94.557 71.2195 95.3954 72.3355L105.596 87.6805L108.67 92.1445C110.347 91.8655 111.977 91.5865 113.561 91.3075C112.629 90.0985 111.744 88.8895 110.906 87.6805C106.854 82.1005 103.22 76.2415 100.985 72.3355C99.7271 70.243 100.845 67.5925 103.081 67.453C104.338 67.3135 105.875 67.174 107.552 67.174C112.024 66.895 117.194 67.0345 121.246 67.8715C122.923 68.1505 124.46 68.7085 125.578 69.406C128.792 71.359 132.704 78.892 135.918 86.146C137.501 85.588 139.085 84.9835 140.669 84.3325L137.455 74.5675C135.219 67.8715 129.071 63.268 122.084 62.8495C121.712 62.7565 121.386 62.71 121.106 62.71L103.5 62.8495H79.8851H71.082L60.1828 62.989H56.8292H45.9301H36.568C35.357 62.989 34.1459 63.1285 32.9349 63.4075C30.28 63.9655 27.7648 65.221 25.8086 66.7555C27.0196 68.5225 28.4169 70.1965 30.0006 71.7775C30.839 70.6615 31.6773 69.8245 32.5157 69.406Z" fill="#F3EEFF"/>
<path d="M8.48047 107.21H148.213L141.646 87.2619L140.668 84.3324C139.084 84.9834 137.5 85.5879 135.917 86.1459C136.103 86.5179 136.289 86.9364 136.476 87.4014C138.292 91.4469 139.689 95.2134 140.807 97.8639C141.506 99.6774 140.388 101.77 138.711 102.188C135.637 102.746 130.886 103.304 125.576 102.328C122.363 101.63 117.891 97.0269 113.559 91.3074C111.976 91.5864 110.346 91.8654 108.669 92.1444L111.324 96.1899C113.14 98.8404 111.044 102.467 107.691 102.328L51.3784 101.63C48.0248 101.63 46.0686 98.1429 47.8851 95.4924L52.636 88.2384L53.1949 87.5409C51.7044 86.8899 50.214 86.2389 48.7235 85.5879C48.0714 86.5179 47.4193 87.4479 46.7672 88.3779C41.7369 95.3529 36.2873 101.63 32.5145 102.328C32.0487 102.421 31.5829 102.467 31.1172 102.467C26.3663 103.304 22.1743 102.746 19.3797 102.188C17.5632 101.77 16.585 99.6774 17.2837 97.8639C17.3768 97.7709 17.4234 97.6779 17.4234 97.5849C18.2618 95.2134 19.5193 92.0049 21.0564 88.6569C23.7113 82.5189 26.9252 75.6834 29.9993 71.7774C28.4157 70.1964 27.0184 68.5224 25.8073 66.7554C23.4319 68.7084 21.6154 71.2194 20.4975 74.2884L15.1877 88.6569L12.8122 95.0739L8.48047 107.21Z" fill="#DBD6ED"/>
<path d="M152.266 115.859C152.359 115.859 152.453 115.906 152.546 115.999C152.732 115.627 152.825 115.255 152.825 114.883V110.14C152.825 108.745 151.847 107.629 150.589 107.35C150.31 107.257 150.077 107.21 149.891 107.21H148.214H8.48143H5.12789H4.98811C3.31132 107.21 1.91406 108.605 1.91406 110.14V114.883C1.91406 115.255 2.00715 115.58 2.19346 115.859H152.266Z" fill="#C5C5D8"/>
<path d="M152.545 115.999C152.451 115.906 152.358 115.859 152.265 115.859H2.19235H1.91295C1.07456 115.859 0.515625 116.557 0.515625 117.254C0.515625 117.952 1.07456 118.649 1.91295 118.649H6.52411H148.353H152.265C152.964 118.649 153.662 117.952 153.662 117.254C153.662 116.557 153.243 115.999 152.545 115.999Z" fill="#F3EEFF"/>
<path d="M166.24 29.5091V29.3696H162.747H161.07V29.5091H162.468H166.24Z" fill="#F3EEFF"/>
<path d="M159.115 41.5059H159.255V39.1344H159.115C158.836 39.1344 158.556 38.8554 158.556 38.4369V36.9024H168.757V38.4369C168.757 38.7159 168.477 38.9949 168.198 38.9949V41.5059C168.291 41.5059 168.338 41.5524 168.338 41.6454H169.735V41.5059C169.735 41.0874 169.316 40.8084 169.036 40.8084H168.757V39.8319H169.036C169.316 39.8319 169.735 39.4134 169.735 39.1344V33.1359C169.735 32.8569 169.595 32.5779 169.316 32.4384L166.242 30.3459V30.0669H161.211H161.071V30.2064L157.997 32.4384C157.718 32.5779 157.578 32.8569 157.578 33.1359V39.1344C157.578 39.1344 157.625 39.1809 157.718 39.2739C157.718 39.5529 157.997 39.8319 158.277 39.8319H158.556V40.8084H158.277C157.997 40.8084 157.578 41.0874 157.578 41.5059V41.6454H158.975C158.975 41.5524 159.022 41.5059 159.115 41.5059Z" fill="#F3EEFF"/>
<path d="M168.056 53.2241H158.555V53.5031V55.3166C158.555 55.5956 158.834 55.8746 159.114 55.8746H159.253V58.3856H159.114C158.834 58.3856 158.555 58.5251 158.555 58.9436V59.7806C162.327 58.3856 165.402 56.1536 168.056 53.2241Z" fill="#BEB6EF"/>
<path d="M158.555 59.7806V63.6866C158.555 63.7796 158.601 63.8726 158.694 63.9656L165.122 64.2446H168.196C168.476 64.2446 168.755 63.9656 168.755 63.6866V58.9436C168.755 58.6646 168.476 58.3856 168.196 58.3856V55.8746C168.476 55.8746 168.755 55.5956 168.755 55.3166V53.2241H168.056C165.402 56.1536 162.327 58.3856 158.555 59.7806Z" fill="#AAA5E5"/>
<path d="M168.196 38.9948C168.476 38.9948 168.755 38.7158 168.755 38.4368V36.9023H158.555V38.4368C158.555 38.8553 158.834 39.1343 159.114 39.1343H159.253V41.5058H159.114C159.02 41.5058 158.974 41.5523 158.974 41.6453H168.336C168.336 41.5523 168.289 41.5058 168.196 41.5058V38.9948Z" fill="#BEB6EF"/>
<path d="M162.746 29.3696H166.239H166.659V27.1376C166.659 26.8586 166.519 26.5796 166.239 26.5796H165.401C164.842 27.8351 164.004 28.6721 162.746 29.3696Z" fill="#E25D5D"/>
<path d="M165.402 26.5796H161.071C160.791 26.5796 160.512 26.8586 160.512 27.1376V29.3696H161.071H162.747C164.005 28.6721 164.843 27.8351 165.402 26.5796Z" fill="#FF7B7B"/>
<path d="M161.211 30.0668H166.241H166.66V29.5088H166.241H162.468C162.096 29.6948 161.677 29.8808 161.211 30.0668Z" fill="#E25D5D"/>
<path d="M162.468 29.5088H161.071H160.512V30.0668H161.071H161.21C161.676 29.8808 162.095 29.6948 162.468 29.5088Z" fill="#FF7B7B"/>
<path d="M168.058 53.2239H168.757H169.735V49.8759V47.5044V42.4824C166.521 45.9699 162.189 47.9229 157.578 48.8994V49.8759V53.2239H158.556H168.058Z" fill="#E25D5D"/>
<path d="M169.735 42.4825V41.6455H168.338H158.975H157.578V47.5045V48.8995C162.189 47.923 166.521 45.97 169.735 42.4825Z" fill="#FF7B7B"/>
<path d="M200.755 22.813C200.569 23.743 200.243 24.673 199.777 25.603L205.367 34.6705C206.019 34.2055 206.764 33.9265 207.602 33.8335L200.755 22.813Z" fill="#5A4760"/>
<path d="M192.652 9.56055C192.745 10.2115 192.791 10.816 192.791 11.374C192.791 12.118 192.698 12.862 192.512 13.606L199.778 25.603C200.244 24.673 200.57 23.743 200.756 22.813L192.652 9.56055Z" fill="#46364C"/>
<path d="M205.646 54.3398C204.714 54.9908 203.736 55.5953 202.711 56.1533L200.336 63.6863L202.711 63.8258L205.646 54.3398Z" fill="#5A4760"/>
<path fill-rule="evenodd" clip-rule="evenodd" d="M205.645 54.3399C204.714 54.9909 203.736 55.5954 202.711 56.1534L206.763 42.7613C204.947 42.2033 203.41 40.3899 203.549 38.2974C203.549 36.7629 204.248 35.3679 205.366 34.6704C206.018 34.2054 206.763 33.9264 207.602 33.8334C207.788 33.7404 207.974 33.6938 208.161 33.6938C210.676 33.8333 212.772 35.9258 212.772 38.4368C212.632 40.5293 211.235 42.3428 209.278 42.7613L205.645 54.3399ZM208.021 41.5059C209.698 41.5059 211.095 40.1108 211.235 38.4368C211.235 36.6233 209.837 35.2284 208.161 35.2284C206.344 35.2284 204.947 36.6234 204.947 38.2974C204.947 39.9714 206.344 41.3664 208.021 41.5059Z" fill="#46364C"/>
<path d="M211.233 38.437C211.233 36.6235 209.836 35.2285 208.159 35.2285C206.482 35.2285 205.085 36.6235 204.945 38.2975C204.945 39.9715 206.343 41.3665 208.019 41.506C209.836 41.506 211.233 40.111 211.233 38.437Z" fill="#5A4760"/>
<path d="M213.331 66.0579C213.191 64.8024 212.213 63.9654 210.955 63.8259H202.711L200.336 63.6864L190.275 63.5469C189.297 63.5469 188.319 64.2444 188.039 65.0814L213.331 66.0579Z" fill="#46364C"/>
<path d="M189.158 18.9073C189.158 18.8143 189.158 18.7678 189.158 18.7678C189.158 18.7678 189.158 18.7213 189.158 18.6283C189.158 18.6283 189.158 18.5818 189.158 18.4888C189.158 18.3958 189.158 18.3493 189.158 18.3493C189.251 18.2563 189.297 18.2098 189.297 18.2098C189.297 18.2098 189.297 18.1633 189.297 18.0703C189.297 18.0703 189.297 18.0238 189.297 17.9308C189.297 17.8378 189.297 17.7448 189.297 17.6518C189.297 17.6518 189.251 17.6518 189.158 17.6518C189.158 17.5588 189.158 17.5123 189.158 17.5123C189.158 17.4193 189.158 17.3728 189.158 17.3728C189.158 17.2798 189.158 17.2333 189.158 17.2333C189.158 17.1403 189.158 17.0938 189.158 17.0938C189.158 17.0008 189.158 16.9543 189.158 16.9543C189.158 16.8613 189.111 16.8148 189.018 16.8148C189.018 16.7218 189.018 16.6753 189.018 16.6753C189.018 16.5823 189.018 16.5358 189.018 16.5358C189.018 16.4428 188.971 16.3963 188.878 16.3963C188.878 16.3033 188.878 16.2568 188.878 16.2568C188.878 16.1638 188.878 16.1173 188.878 16.1173C188.878 16.0243 188.832 15.9778 188.739 15.9778C188.739 15.8848 188.739 15.7918 188.739 15.6988C188.645 15.6058 188.599 15.5128 188.599 15.4198C188.506 15.3268 188.459 15.2338 188.459 15.1408C188.459 15.1408 188.412 15.0943 188.319 15.0013C188.226 14.8153 188.133 14.6293 188.04 14.4433C187.947 14.2573 187.807 14.0248 187.621 13.7458C187.434 13.5598 187.295 13.3273 187.201 13.0483C187.201 13.0483 187.155 13.0483 187.062 13.0483C186.969 12.8623 186.875 12.6763 186.782 12.4903C186.503 13.4668 185.944 14.3038 185.245 14.8618C183.289 16.3963 180.494 16.2568 178.957 14.3038C177.28 12.3508 177.56 9.56076 179.516 8.02626C179.889 7.65426 180.261 7.42176 180.634 7.32876C177.56 5.51526 174.905 4.95726 173.787 6.21276C173.694 6.30576 173.647 6.35226 173.647 6.35226C173.554 6.53826 173.461 6.72426 173.368 6.91026C172.669 9.00276 174.765 12.7693 178.398 15.9778C181.053 18.2098 183.708 19.7443 185.804 20.0233C186.782 20.3023 187.76 20.0233 188.599 19.4653C188.692 19.3723 188.832 19.2793 189.018 19.1863C189.018 19.0933 189.018 19.0003 189.018 18.9073C189.018 18.9073 189.065 18.9073 189.158 18.9073Z" fill="#FFCE6C"/>
<path d="M183.987 9.70011C182.869 8.77011 181.751 7.97961 180.633 7.32861C180.261 7.42161 179.888 7.65411 179.515 8.02611C177.559 9.56061 177.28 12.3506 178.956 14.3036C180.494 16.2566 183.288 16.3961 185.244 14.8616C185.943 14.3036 186.502 13.4666 186.782 12.4901C185.943 11.5601 185.012 10.6301 183.987 9.70011Z" fill="white"/>
<path d="M180.631 7.32861C181.749 7.97961 182.867 8.77011 183.985 9.70011C185.009 10.6301 185.941 11.5601 186.779 12.4901C186.873 12.6761 186.966 12.8621 187.059 13.0481C187.152 13.0481 187.199 13.0481 187.199 13.0481C187.292 13.3271 187.431 13.5596 187.618 13.7456C187.804 14.0246 187.944 14.2571 188.037 14.4431C188.13 14.6291 188.223 14.8151 188.316 15.0011C188.316 15.0011 188.363 15.0476 188.456 15.1406C188.456 14.8616 188.456 14.6291 188.456 14.4431C188.875 10.3976 188.456 6.35211 186.36 2.72511C186.081 2.26011 185.801 1.84161 185.522 1.46961C185.522 1.46961 185.475 1.46961 185.382 1.46961C184.544 1.19061 183.659 1.05111 182.727 1.05111C178.815 0.911612 175.321 3.14361 173.645 6.35211C173.645 6.35211 173.691 6.30561 173.784 6.21261C174.902 4.95711 177.557 5.51511 180.631 7.32861Z" fill="#5A4760"/>
<path d="M188.736 2.58552C189.109 2.86452 189.435 3.14352 189.714 3.42252C190.273 3.88752 190.739 4.49202 191.112 5.23602C191.578 5.88702 191.904 6.58452 192.09 7.32852C192.509 6.63102 192.928 5.79402 192.928 4.81752C192.928 2.44602 190.972 0.353516 188.457 0.353516C187.339 0.353516 186.221 0.772015 185.383 1.46951C186.221 1.46951 187.06 1.74852 187.758 2.02752C188.038 2.16702 188.457 2.44602 188.736 2.58552Z" fill="#5A4760"/>
<path d="M192.65 9.56073C192.557 8.81673 192.37 8.07273 192.091 7.32873C191.718 6.67773 191.299 6.02673 190.833 5.37573C190.367 4.81773 189.855 4.25973 189.296 3.70173C188.83 3.23673 188.225 2.77173 187.48 2.30673C186.921 2.02773 186.222 1.74873 185.523 1.46973C185.803 1.84173 186.082 2.26023 186.362 2.72523C188.458 6.35223 188.877 10.3977 188.458 14.4432C188.458 14.6292 188.458 14.8617 188.458 15.1407C188.458 15.2337 188.504 15.3267 188.598 15.4197C188.598 15.5127 188.644 15.6057 188.737 15.6987C188.737 15.7917 188.737 15.8847 188.737 15.9777C188.83 15.9777 188.877 16.0242 188.877 16.1172C188.877 16.1172 188.877 16.1637 188.877 16.2567C188.877 16.2567 188.877 16.3032 188.877 16.3962C188.97 16.3962 189.017 16.4427 189.017 16.5357C189.017 16.5357 189.017 16.5822 189.017 16.6752C189.017 16.6752 189.017 16.7217 189.017 16.8147C189.11 16.8147 189.157 16.8612 189.157 16.9542C189.157 16.9542 189.157 17.0007 189.157 17.0937C189.157 17.0937 189.157 17.1402 189.157 17.2332C189.157 17.2332 189.157 17.2797 189.157 17.3727C189.157 17.3727 189.157 17.4192 189.157 17.5122C189.157 17.5122 189.157 17.5587 189.157 17.6517C189.25 17.6517 189.296 17.6517 189.296 17.6517C189.296 17.7447 189.296 17.8377 189.296 17.9307C189.296 18.0237 189.296 18.0702 189.296 18.0702C189.296 18.1632 189.296 18.2097 189.296 18.2097C189.296 18.2097 189.25 18.2562 189.157 18.3492C189.157 18.3492 189.157 18.3957 189.157 18.4887C189.157 18.5817 189.157 18.6282 189.157 18.6282C189.157 18.7212 189.157 18.7677 189.157 18.7677C189.157 18.7677 189.157 18.8142 189.157 18.9072C189.063 18.9072 189.017 18.9072 189.017 18.9072C189.017 19.0002 189.017 19.0932 189.017 19.1862C190.694 17.7912 191.951 15.8382 192.51 13.6062C192.696 12.8622 192.79 12.1182 192.79 11.3742C192.79 10.8162 192.743 10.2117 192.65 9.56073Z" fill="#49384F"/>
<path d="M185.523 1.46973C186.221 1.74873 186.92 2.02773 187.479 2.30673C188.224 2.77173 188.83 3.23673 189.295 3.70173C189.854 4.25973 190.367 4.81773 190.832 5.37573C191.298 6.02673 191.717 6.67773 192.09 7.32873C191.904 6.58473 191.578 5.88723 191.112 5.23623C190.739 4.49223 190.273 3.88773 189.714 3.42273C189.435 3.14373 189.109 2.86473 188.736 2.58573C188.457 2.44623 188.038 2.16723 187.758 2.02773C187.06 1.74873 186.221 1.46973 185.383 1.46973C185.476 1.46973 185.523 1.46973 185.523 1.46973Z" fill="#725C7A"/>
<path d="M186.082 60.3384C184.685 62.4309 182.17 63.8259 179.375 63.8259C176.581 63.8259 174.205 62.4309 172.668 60.3384V64.5234L186.082 65.0814V60.3384Z" fill="#EA6A6A"/>
<path fill-rule="evenodd" clip-rule="evenodd" d="M172.667 60.3386C171.828 58.9436 171.27 57.409 171.27 55.735C171.27 51.271 174.903 47.644 179.374 47.644C183.846 47.644 187.479 51.271 187.479 55.735C187.479 57.409 187.059 58.9436 186.081 60.3386C184.684 62.4311 182.169 63.8261 179.374 63.8261C176.579 63.8261 174.204 62.4311 172.667 60.3386ZM172.527 55.735C172.527 59.641 175.601 62.71 179.374 62.71C182.169 62.71 184.404 61.1755 185.662 58.804C186.128 57.874 186.361 56.851 186.361 55.735C186.361 51.9685 183.287 48.8995 179.374 48.8995C176.579 48.8995 174.204 50.5735 173.086 52.945C172.714 53.782 172.527 54.712 172.527 55.735Z" fill="#FF8383"/>
<path d="M179.374 62.7098C182.169 62.7098 184.405 61.1753 185.662 58.8038C182.728 59.0828 179.793 58.3853 177.139 56.5718C175.555 55.4558 174.204 54.2468 173.086 52.9448C172.714 53.7818 172.527 54.7118 172.527 55.7348C172.527 59.6408 175.601 62.7098 179.374 62.7098Z" fill="#E3D9E8"/>
<path fill-rule="evenodd" clip-rule="evenodd" d="M173.086 52.9449C174.204 50.5734 176.579 48.8994 179.374 48.8994C183.286 48.8994 186.361 51.9684 186.361 55.7349C186.361 56.8509 186.128 57.8739 185.662 58.8039C182.727 59.0829 179.793 58.3854 177.138 56.5719C175.554 55.4559 174.204 54.2469 173.086 52.9449ZM179.094 56.0139L178.675 56.5719L179.514 57.2694L183.147 52.5264L182.308 51.8289L181.051 53.5029C179.793 52.5264 179.653 49.7364 179.653 49.7364H179.094V56.0139Z" fill="white"/>
<path d="M181.054 53.5028C179.796 52.5263 179.656 49.7363 179.656 49.7363V55.1768L181.054 53.5028Z" fill="#E3D9E8"/>
<path d="M179.514 57.2693L183.147 52.5263L182.309 51.8288L181.051 53.5028L179.654 55.1768V49.7363H179.095V56.0138L178.676 56.5718L179.514 57.2693Z" fill="#916FA3"/>
<path d="M161.07 146.549C161.49 150.874 162.048 158.407 162.328 161.336H165.961L166.101 153.245C166.008 152.594 165.868 151.943 165.681 151.292C165.123 149.479 163.306 146.968 161.07 146.549Z" fill="#72618E"/>
<path d="M161.069 146.549C163.305 146.968 165.122 149.479 165.681 151.292C165.867 151.943 166.007 152.594 166.1 153.245L166.519 144.317H160.93C160.93 144.875 160.976 145.619 161.069 146.549Z" fill="#5F4D77"/>
<path d="M199.914 146.829C200.194 151.293 200.892 158.826 201.172 161.616H204.665L204.944 153.664C204.851 153.013 204.712 152.362 204.525 151.711C203.827 149.758 202.15 147.387 199.914 146.829Z" fill="#72618E"/>
<path d="M199.916 146.829C202.152 147.387 203.829 149.758 204.527 151.711C204.714 152.362 204.853 153.013 204.947 153.664L205.226 144.039H199.637C199.637 144.597 199.776 145.573 199.916 146.829Z" fill="#5F4D77"/>
<path d="M166.52 81.1242C162.887 79.1712 159.534 75.5442 159.114 71.2197H157.438L158.975 89.9127L211.514 89.7732L211.793 87.5412C196.423 89.7732 180.633 88.5177 166.52 81.1242Z" fill="#F3EEFF"/>
<path fill-rule="evenodd" clip-rule="evenodd" d="M159.113 71.2197L213.33 73.3122L211.792 87.5412C196.422 89.7732 180.632 88.5177 166.519 81.1242C162.886 79.1712 159.532 75.5442 159.113 71.2197ZM176.44 81.5427C176.44 81.5427 194.046 86.9832 195.444 81.5427V79.7292H176.44V81.5427Z" fill="white"/>
<path fill-rule="evenodd" clip-rule="evenodd" d="M159.395 93.3999L210.816 93.6789L208.022 131.902C194.188 134.831 179.097 135.529 168.058 125.624C164.565 122.555 162.189 118.649 160.792 114.325L159.395 93.3999ZM164.565 116.836C164.565 116.836 166.661 119.347 168.477 117.394C168.85 117.115 169.083 116.743 169.176 116.278C170.713 111.256 166.381 97.8639 166.381 97.8639H164.565V116.836Z" fill="white"/>
<path d="M168.055 125.625C164.562 122.556 162.186 118.65 160.789 114.325L162.326 139.714L207.46 139.435L208.019 131.902C194.185 134.832 179.094 135.529 168.055 125.625Z" fill="#F3EEFF"/>
<path d="M195.445 81.5425H176.441C176.441 81.5425 194.048 86.983 195.445 81.5425Z" fill="#DBD6ED"/>
<path d="M195.445 79.729H176.441V81.5425H195.445V79.729Z" fill="#5F4D77"/>
<path d="M168.475 117.394C168.848 117.022 169.081 116.603 169.174 116.138C170.711 111.256 166.379 97.8638 166.379 97.8638V116.696H164.562C164.562 116.696 166.658 119.207 168.475 117.394Z" fill="#DBD6ED"/>
<path d="M166.379 97.8638H164.562V116.696H166.379V97.8638Z" fill="#5F4D77"/>
<path fill-rule="evenodd" clip-rule="evenodd" d="M216.824 70.5222V71.3592H216.684L210.536 143.899L205.226 144.039H199.637L166.52 144.318H160.931H158.695C158.975 143.481 154.503 78.4737 153.805 68.8482V68.0112L216.824 70.5222ZM210.816 93.6792L159.394 93.4002L160.791 114.325L162.328 139.714L207.462 139.435L208.021 131.902L210.816 93.6792ZM213.331 73.3122L159.115 71.3592L157.438 71.2197L158.975 89.9127L211.514 89.7732L211.654 87.6807L213.331 73.3122Z" fill="#DBD6ED"/>
<path d="M213.33 66.0581L188.038 65.0816H186.082L172.668 64.5236L169.733 64.3841C169.733 64.3841 169.733 64.3376 169.733 64.2446V58.2461C169.733 57.9671 169.314 57.5486 169.035 57.5486H168.755V56.5721H169.035C169.314 56.5721 169.733 56.2931 169.733 55.8746V53.2241H168.755V55.3166C168.755 55.5956 168.476 55.8746 168.196 55.8746V58.3856C168.476 58.3856 168.755 58.6646 168.755 58.9436V63.6866C168.755 63.9656 168.476 64.2446 168.196 64.2446H165.122L158.695 63.9656C158.601 63.8726 158.555 63.7796 158.555 63.6866V59.7806V58.9436C158.555 58.5251 158.834 58.3856 159.114 58.3856H159.253V55.8746H159.114C158.834 55.8746 158.555 55.5956 158.555 55.3166V53.5031V53.2241H157.577V55.8746C157.577 56.2931 157.996 56.5721 158.275 56.5721H158.555V57.5486H158.275C157.996 57.5486 157.577 57.9671 157.577 58.2461V63.9656L151.848 63.8261V65.9186C151.848 67.0346 152.686 67.8716 153.804 68.0111L216.823 70.5221H216.963C217.941 70.6616 218.64 69.8246 218.64 68.9876L218.78 66.1976L213.33 66.0581Z" fill="#F3EEFF"/>
</svg>
