<svg width="62" height="77" viewBox="0 0 62 77" fill="none" xmlns="http://www.w3.org/2000/svg">
<path d="M60.8 35.2998C60.7334 35.4998 60.7 35.6665 60.7 35.7998C60.6333 35.9998 60.5667 36.1665 60.5 36.2998C60.3667 36.6332 60.2667 36.9665 60.2 37.2998C60.0667 37.4998 59.9667 37.7332 59.9 37.9998C59.8334 38.1332 59.7667 38.2665 59.7 38.3998C59.5667 38.6665 59.4334 38.9332 59.3 39.1998C52.6 51.4998 58.8 55.1998 52.1 67.4998C52.1 67.8998 49 72.0998 49 72.1998C48.8667 72.3332 48.7 72.4999 48.5 72.6999C48.2333 73.0999 47.9667 73.4332 47.7 73.6999C47.4333 74.0332 47.2 74.3332 47 74.5998C46.7333 74.8665 46.5 75.0998 46.3 75.2998C44.9 76.5998 44.1 76.8998 43.7 76.2998C43.5667 76.2332 43.5 76.1332 43.5 75.9998C43.4333 75.9332 43.4 75.8665 43.4 75.7998C43.2667 75.5332 43.2 75.1665 43.2 74.6999C43.2 74.6332 43.1667 74.5332 43.1 74.3998C43 73.0998 43.1 71.2998 43.2 69.2998C43.3 65.6998 43.4 61.2998 42.6 57.2998C42.5333 56.8332 42.4334 56.3332 42.3 55.7998C42.1 55.0665 41.8333 54.3665 41.5 53.6998C41.3 53.2998 41.1 52.8665 40.9 52.3998C40.5667 51.7998 40.1667 51.2332 39.7 50.6998C39.5667 50.4998 39.4 50.3332 39.2 50.1998C37.4 48.2998 34.8 47.0998 31.1 47.0998C25.6 46.9998 20.1 48.9998 18.7 58.4998C18.2 61.3998 18.1 64.6998 18.5 74.8998C18.6 75.4998 18.1 75.9998 17.6 76.2998C17 76.4998 16.3 76.3998 15.8 75.8998C11 70.9998 7 64.7998 6.5 58.1998C6.36667 57.0665 6.36667 55.9332 6.5 54.7998C6.56667 54.1998 6.60001 53.6665 6.60001 53.1998C7.10001 44.7999 4.1 41.4998 2 37.3998C0.9 35.1998 0 32.6998 0 29.1998C0 28.1332 0.100018 26.9332 0.300018 25.5998C1.20002 20.2998 3.80001 12.6998 8.70001 10.5998C15.3 7.79984 21 8.49985 25.8 11.6998C26.2667 12.0332 26.7667 12.3332 27.3 12.5998C27.5 12.6665 27.7 12.7332 27.9 12.7998C27.9 12.7998 27.9333 12.7998 28 12.7998C28.9333 13.1332 29.9 13.2665 30.9 13.1998H31.1C32.8 13.1998 34.4 12.6998 35.8 11.6998C36.0667 11.5665 36.3333 11.3998 36.6 11.1998C37.5333 10.5998 38.5333 10.0998 39.6 9.69985C39.6 9.69985 39.6333 9.69985 39.7 9.69985C40.1 9.49985 40.5 9.33318 40.9 9.19985C43.1 8.49985 45.4 8.29984 47.8 8.59984C49.1 8.89984 50.5 9.29984 51.8 9.99984C52.1334 10.1998 52.4667 10.3998 52.8 10.5998C57.2 13.4998 59.9 18.6998 61 24.2998C61.7 27.9998 61.7 31.8998 60.8 35.2998Z" fill="#CAD9E0"/>
<g style="mix-blend-mode:multiply">
<path d="M60.7983 35.2999C60.7316 35.4999 60.6983 35.6666 60.6983 35.7999C60.6316 35.9999 60.5649 36.1666 60.4983 36.2999C60.3649 36.6333 60.2649 36.9666 60.1983 37.2999C60.0649 37.4999 59.965 37.7333 59.8983 37.9999C59.8316 38.1333 59.7649 38.2666 59.6983 38.3999C59.5649 38.6666 59.4316 38.9333 59.2983 39.1999C52.5983 51.4999 58.7983 55.1999 52.0983 67.4999C52.0983 67.8999 48.9983 72.0999 48.9983 72.1999C48.8649 72.3333 48.6983 72.4999 48.4983 72.6999C48.2316 73.0999 47.9649 73.4333 47.6983 73.6999C47.4316 74.0333 47.1983 74.3333 46.9983 74.5999C46.7316 74.8666 46.4983 75.0999 46.2983 75.2999C44.8983 76.5999 44.0983 76.8999 43.6983 76.2999C43.5649 76.2333 43.4983 76.1333 43.4983 75.9999C43.4316 75.9333 43.3983 75.8666 43.3983 75.7999C43.265 75.5333 43.1983 75.1666 43.1983 74.6999C43.1983 74.6333 43.1649 74.5333 43.0983 74.3999C42.9983 73.0999 43.0983 71.2999 43.1983 69.2999C43.2983 65.6999 43.3983 61.2999 42.5983 57.2999C42.5316 56.8333 42.4316 56.3333 42.2983 55.7999C42.0983 55.0666 41.8316 54.3666 41.4983 53.6999C41.2983 53.2999 41.0983 52.8666 40.8983 52.3999C40.565 51.7999 40.1649 51.2333 39.6983 50.6999C39.5649 50.4999 39.3983 50.3333 39.1983 50.1999C37.3983 48.2999 34.7983 47.0999 31.0983 47.0999C25.5983 46.9999 20.0983 48.9999 18.6983 58.4999C18.1983 61.3999 18.0983 64.6999 18.4983 74.8999C18.5983 75.4999 18.0983 75.9999 17.5983 76.2999C15.9983 69.1999 14.6983 61.8999 15.8983 54.7999C17.2983 46.3999 22.9983 38.5999 31.6983 36.6999C39.9983 34.8999 47.2983 29.7999 48.0983 20.5999C48.1649 19.9999 48.1983 19.4333 48.1983 18.8999C48.4983 16.0999 50.0983 13.0999 53.3983 14.4999C55.2983 15.1999 56.4983 16.9999 57.5983 18.5999C58.7983 20.4999 59.8983 22.2999 60.9983 24.2999C61.6983 27.9999 61.6983 31.8999 60.7983 35.2999Z" fill="#DCE8EF"/>
</g>
<g style="mix-blend-mode:overlay">
<path d="M11.0008 40.8999C11.4008 43.4999 11.4008 45.9999 9.60078 48.3999C8.00078 37.9999 -0.899215 29.6999 5.20079 18.6999C8.20079 13.0999 15.6008 9.79989 21.4008 12.3999C26.0008 14.4999 28.8008 17.2999 34.1008 16.2999C35.1008 16.0999 36.0008 15.8999 37.0008 16.1999C37.9008 16.4999 38.7008 17.3999 38.5008 18.2999C38.0008 20.0999 34.1008 21.0999 32.7008 21.4999C31.3008 21.8999 29.9008 22.2999 28.4008 22.5999C25.3008 23.2999 22.0008 23.3999 19.0008 24.4999C15.7008 25.7999 13.0008 28.2999 11.5008 31.3999C9.60077 34.9999 10.4008 37.1999 11.0008 40.8999Z" fill="#CCCDCE"/>
</g>
<path d="M58.4 36.2L53.9 27.4L51.1 22C45.5 35.7 46.5 31.8 42.7 41.2C40.6 34.5 39.7 31.5 37.2 22.9C34.8 31.4 31.8 35 27.4 50.1C21.9 16.4 23.3 30.9 21.5 19.3C20.9 21.4 18.4 30.8 15.6 40.9C15.4667 40.6333 15.3667 40.4 15.3 40.2C13.9 36.1 15.2 40 13.4 34.7C12.7 32.8 11.7 29.9 10 25L7.90002 30.5L5 38.3L9.5 13.5C9.5 13.5 10.9 18 15.2 32.1C17.5 20.9 17 23.2 22.2 0C25.9 20.2 26.3 15.6 29.1 31.3C32.2 20.5 32.5 22.7 37.3 7C43.1 29.7 40.5 19.5 43.3 30.9C46.6 23 51.7 10.6 51.7 10.6L58.4 36.2Z" fill="#FECC3D"/>
<path d="M9.49841 22C9.49841 22 10.4984 25.2 13.3984 34.7C12.6984 32.8 11.6984 29.9 9.99841 25L7.89844 30.5L9.49841 22Z" fill="#EF7A2B"/>
<path d="M53.9008 27.4L51.1008 22C45.5008 35.7 46.5008 31.8 42.7008 41.2C40.6008 34.5 39.7008 31.5 37.2008 22.9C34.8008 31.4 31.8008 35 27.4008 50.1C21.9008 16.4 23.3008 30.9 21.5008 19.3C20.9008 21.4 18.4008 30.8 15.6008 40.9C15.4674 40.6333 15.3674 40.4 15.3008 40.2C17.5008 29.5 17.1008 31.4 22.2008 8.5C25.9008 28.7 26.3008 24.1 29.1008 39.8C32.2008 29 32.5008 31.2 37.3008 15.5C43.1008 38.2 40.5008 28 43.3008 39.4C46.6008 31.5 51.7008 19.1 51.7008 19.1L53.9008 27.4Z" fill="#EF7A2B"/>
</svg>
