<svg width="20" height="33" viewBox="0 0 20 33" fill="none" xmlns="http://www.w3.org/2000/svg">
<path d="M10.2735 32.3356C7.43603 32.3356 5.12052 31.8873 3.327 30.9905C1.53348 30.0937 0.636719 28.936 0.636719 27.5172C0.636719 26.5803 1.02487 25.7639 1.80117 25.0679C2.57747 24.3719 3.64823 23.8231 5.01344 23.4216L5.93697 26.4732C5.4819 26.6071 5.06698 26.7744 4.69222 26.9752C4.31745 27.1759 4.06315 27.3566 3.9293 27.5172C4.2773 27.9455 5.08037 28.3203 6.33851 28.6415C7.59665 28.9627 8.90833 29.1234 10.2735 29.1234C11.6388 29.1234 12.9571 28.9627 14.2287 28.6415C15.5002 28.3203 16.3099 27.9455 16.6579 27.5172C16.5241 27.3566 16.2698 27.1759 15.895 26.9752C15.5203 26.7744 15.1053 26.6071 14.6503 26.4732L15.5738 23.4216C16.939 23.8231 18.0031 24.3719 18.766 25.0679C19.5289 25.7639 19.9104 26.5803 19.9104 27.5172C19.9104 28.936 19.0136 30.0937 17.2201 30.9905C15.4266 31.8873 13.1111 32.3356 10.2735 32.3356ZM10.2735 21.6147C10.7554 20.7313 11.264 19.9215 11.7994 19.1854C12.3348 18.4492 12.8567 17.7466 13.3654 17.0773C14.3558 15.7924 15.1455 14.6347 15.7344 13.6041C16.3233 12.5735 16.6178 11.2952 16.6178 9.76941C16.6178 8.00266 16.0021 6.50359 14.7707 5.27222C13.5394 4.04085 12.0403 3.42517 10.2735 3.42517C8.50679 3.42517 7.00773 4.04085 5.77636 5.27222C4.54499 6.50359 3.9293 8.00266 3.9293 9.76941C3.9293 11.2952 4.22376 12.5735 4.81268 13.6041C5.40159 14.6347 6.19128 15.7924 7.18173 17.0773C7.69034 17.7466 8.21233 18.4492 8.74771 19.1854C9.28309 19.9215 9.7917 20.7313 10.2735 21.6147ZM10.2735 27.5172C9.97908 27.5172 9.7114 27.4302 9.47047 27.2562C9.22955 27.0822 9.05556 26.848 8.94848 26.5535C8.33279 24.6529 7.55649 23.0602 6.61958 21.7753C5.68267 20.4904 4.77252 19.259 3.88915 18.0812C3.03254 16.9033 2.2897 15.6853 1.66063 14.4272C1.03156 13.1691 0.717026 11.6165 0.717026 9.76941C0.717026 7.09251 1.64055 4.83054 3.48761 2.98348C5.33467 1.13642 7.59665 0.212891 10.2735 0.212891C12.9504 0.212891 15.2124 1.13642 17.0595 2.98348C18.9065 4.83054 19.8301 7.09251 19.8301 9.76941C19.8301 11.6165 19.5222 13.1691 18.9065 14.4272C18.2908 15.6853 17.5413 16.9033 16.6579 18.0812C15.8013 19.259 14.8979 20.4904 13.9476 21.7753C12.9973 23.0602 12.2143 24.6529 11.5986 26.5535C11.4915 26.848 11.3175 27.0822 11.0766 27.2562C10.8357 27.4302 10.568 27.5172 10.2735 27.5172ZM10.2735 13.1824C11.2105 13.1824 12.0135 12.8478 12.6827 12.1786C13.352 11.5094 13.6866 10.7063 13.6866 9.76941C13.6866 8.83249 13.352 8.02943 12.6827 7.3602C12.0135 6.69098 11.2105 6.35637 10.2735 6.35637C9.33663 6.35637 8.53356 6.69098 7.86434 7.3602C7.19511 8.02943 6.8605 8.83249 6.8605 9.76941C6.8605 10.7063 7.19511 11.5094 7.86434 12.1786C8.53356 12.8478 9.33663 13.1824 10.2735 13.1824Z" fill="#F0F6FF"/>
</svg>
