<svg width="33" height="33" viewBox="0 0 33 33" fill="none" xmlns="http://www.w3.org/2000/svg">
<path d="M16.2735 0.152344L30.8091 8.82549C31.2909 9.11994 31.6657 9.52148 31.9334 10.0301C32.2011 10.5387 32.3349 11.0741 32.3349 11.6362V29.0628C32.3349 29.9462 32.0204 30.7024 31.3913 31.3315C30.7622 31.9606 30.006 32.2751 29.1226 32.2751H3.42443C2.54106 32.2751 1.78483 31.9606 1.15576 31.3315C0.526693 30.7024 0.212158 29.9462 0.212158 29.0628V11.6362C0.212158 11.0741 0.346003 10.5387 0.613693 10.0301C0.881382 9.52148 1.25615 9.11994 1.73799 8.82549L16.2735 0.152344ZM16.2735 18.8638L28.8014 11.3953L16.2735 3.92677L3.74566 11.3953L16.2735 18.8638ZM16.2735 22.6383L3.42443 14.9288V29.0628H29.1226V14.9288L16.2735 22.6383Z" fill="#F0F6FF"/>
</svg>
