<svg id="Layer_1" data-name="Layer 1" xmlns="http://www.w3.org/2000/svg" viewBox="0 0 1489.53247 757.69929"><defs><style>.cls-1{fill:none;}.cls-2{fill:#0795ff;}.cls-3{fill:#fff;}.cls-4{fill:#6ebe0a;}</style></defs><path class="cls-1" d="M490.24188,256.29476q-15.82906,13.78661-15.82907,37.27491,0,14.98337,9.53149,24.84994,9.52616,9.87722,25.02014,17.02051a263.93012,263.93012,0,0,0,33.38322,12.486,152.44248,152.44248,0,0,1,22.58483-102.448,111.21935,111.21935,0,0,0-26.52257-2.96994Q506.06563,242.50815,490.24188,256.29476Z" transform="translate(-234.46753 -151.95905)"/><path class="cls-2" d="M542.34766,347.92609a263.93012,263.93012,0,0,1-33.38322-12.486q-15.494-7.14861-25.02014-17.02051-9.53415-9.86923-9.53149-24.84994,0-23.48829,15.82907-37.27491t48.168-13.78661a111.21935,111.21935,0,0,1,26.52257,2.96994,152.76893,152.76893,0,0,1,89.27714-65.24472,228.0644,228.0644,0,0,0-31.7184-14.1473,233.87824,233.87824,0,0,0-41.01942-10.55272,271.95864,271.95864,0,0,0-44.42353-3.5743q-40.84921,0-72.50736,12.425-31.65814,12.43029-53.4444,33.19a140.58649,140.58649,0,0,0-33.01979,47.317,138.53691,138.53691,0,0,0-11.23353,54.46563q0,34.72184,9.53148,58.38034,9.52617,23.66382,25.02015,39.48758a127.792,127.792,0,0,0,35.23245,25.53076A296.09343,296.09343,0,0,0,477.13609,439.095q20.7597,6.638,40.50881,12.08456a230.98841,230.98841,0,0,1,35.23245,12.59517q15.486,7.14863,25.02015,18.04174,9.52617,10.89844,9.53148,28.25405,0,29.95875-17.36091,43.7427-17.36093,13.78662-48.67866,13.78661-23.15321,0-40.1684-6.46779a190.22709,190.22709,0,0,1-30.1263-14.29723q-13.10844-7.82677-23.4883-14.29722-10.38783-6.46248-20.59481-6.4678a29.90119,29.90119,0,0,0-14.63764,3.74452,27.69412,27.69412,0,0,0-10.55271,9.87189l-34.041,53.78481a179.04547,179.04547,0,0,0,34.38143,26.552,268.99106,268.99106,0,0,0,42.21086,20.59481,279.82062,279.82062,0,0,0,46.466,13.4462,241.789,241.789,0,0,0,47.14681,4.76575q42.20555,0,75.40085-12.76538,33.19-12.76539,55.82727-35.06225a150.66382,150.66382,0,0,0,34.55163-52.253,164.0092,164.0092,0,0,0,6.272-19.11525l-104.44866-104.345A151.73369,151.73369,0,0,1,542.34766,347.92609Z" transform="translate(-234.46753 -151.95905)"/><path class="cls-2" d="M1601.83664,176.46858q-14.29722,0-24.50953,7.489-10.2123,7.49169-12.93559,17.36092l-68.082,258.71172q-3.06369,11.91968-5.95718,25.53076-2.89614,13.61907-5.61677,28.59446-3.06369-15.31846-7.14861-28.76466-4.08492-13.44354-7.82943-25.36056l-79.656-258.71172a34.16676,34.16676,0,0,0-13.4462-18.21194q-9.7017-6.638-24.67974-6.638h-34.041q-14.29722,0-24.33932,7.65923-10.04477,7.65922-13.10579,17.19071l-80.3368,258.71172q-3.74984,12.59784-7.82943,26.7222-4.08493,14.12969-7.489,30.1263a243.78129,243.78129,0,0,0-5.10615-29.9561q-3.40675-14.29722-6.8082-26.8924l-68.082-258.71172a31.20214,31.20214,0,0,0-13.10579-18.04174q-10.04475-6.80555-25.02014-6.8082H970.03538l.16755.54253a152.57679,152.57679,0,0,1,83.03074,258.39383l-2.46474,2.46108,72.451,234.58016h104.16551l94.634-307.39037q2.37755-7.14863,4.93594-15.65887,2.55309-8.50494,4.936-18.04174,2.37756,9.53415,4.936,18.04174,2.55307,8.51292,4.93595,15.65887l93.27238,307.39037h104.16551l153.18457-495.9776Z" transform="translate(-234.46753 -151.95905)"/><path class="cls-3" d="M856.54416,346.6336a5.57,5.57,0,0,0-5.57-5.57H787.84779a5.56993,5.56993,0,0,0-5.56989,5.57v38.29348h74.26626Z" transform="translate(-234.46753 -151.95905)"/><path class="cls-3" d="M782.2779,497.48691a5.56986,5.56986,0,0,0,5.56989,5.5699h63.12639a5.56988,5.56988,0,0,0,5.57-5.5699V459.19334H782.2779Z" transform="translate(-234.46753 -151.95905)"/><path class="cls-3" d="M743.98433,384.92708a5.57,5.57,0,0,0-5.57,5.57v63.12631a5.56994,5.56994,0,0,0,5.57,5.57H782.2779V384.92708Z" transform="translate(-234.46753 -151.95905)"/><path class="cls-3" d="M894.83764,384.92708H856.54416v74.26626h38.29348a5.56993,5.56993,0,0,0,5.57-5.57V390.49706A5.56994,5.56994,0,0,0,894.83764,384.92708Z" transform="translate(-234.46753 -151.95905)"/><rect class="cls-3" x="547.81036" y="232.96804" width="74.26626" height="74.26626"/><path class="cls-4" d="M1012.059,238.00118a125.7873,125.7873,0,0,0-177.89011-.02957l-.02956.02957-14.82667,15.01794-15.01795-14.92229A125.63913,125.63913,0,0,0,626.56636,415.72955l192.74633,192.555L1012.059,415.82522A125.7873,125.7873,0,0,0,1012.059,238.00118Z" transform="translate(-234.46753 -151.95905)"/><rect class="cls-3" x="554.35049" y="175.70741" width="60.98933" height="133.03293" rx="4.57419"/><rect class="cls-3" x="518.32869" y="211.72921" width="133.03293" height="60.98933" rx="4.57419"/><path class="cls-4" d="M1005.05658,471.07043c-26.27458,0-47.661,19.88325-47.661,44.34378,0,21.35728,16.66868,39.31072,38.04813,43.42894v34.02233c0,40.02185-38.95846,72.57011-81.95023,72.57011-42.99188,0-81.95024-32.54826-81.95024-72.57011V533.16394H810.16727v59.70154c0,51.20968,44.75654,92.91246,99.76531,92.91246,55.06426,0,99.76531-41.69958,99.76531-92.91241V558.23545c28.5049-5.03306,39.17037-22.37555,39.17037-42.818C1048.86476,490.95368,1031.33107,471.07043,1005.05658,471.07043Zm0,68.34851c-14.20219,0-25.78478-10.7805-25.78478-24.00473,0-13.22428,11.5792-24.00473,25.78478-24.00473,14.2576,0,25.78459,10.78045,25.78459,24.00473C1030.84117,528.63844,1019.31418,539.41894,1005.05658,539.41894Z" transform="translate(-234.46753 -151.95905)"/><path class="cls-2" d="M324.74873,793.90562a12.48207,12.48207,0,0,1-3.0973,3.54069,6.92946,6.92946,0,0,1-4.17936,1.1797,10.20318,10.20318,0,0,1-4.86925-1.4262q-2.6075-1.4238-5.90009-3.19495a49.00659,49.00659,0,0,0-7.52316-3.19654,30.15082,30.15082,0,0,0-9.63766-1.4262q-9.34473,0-13.91625,3.98247a13.55139,13.55139,0,0,0-4.57313,10.76934,9.91412,9.91412,0,0,0,2.75316,7.179,23.68024,23.68024,0,0,0,7.22864,4.91727,77.30211,77.30211,0,0,0,10.22831,3.78559q5.75281,1.72392,11.75214,3.83681a105.5029,105.5029,0,0,1,11.75215,4.96529,39.28632,39.28632,0,0,1,10.2283,7.27827,34.01172,34.01172,0,0,1,7.22865,10.76933,38.31826,38.31826,0,0,1,2.75315,15.29283,49.80547,49.80547,0,0,1-3.44305,18.58543,43.51194,43.51194,0,0,1-9.9818,15.09435,46.30751,46.30751,0,0,1-16.12838,10.13226,60.33807,60.33807,0,0,1-21.78357,3.688,69.73545,69.73545,0,0,1-13.62013-1.37978,80.76118,80.76118,0,0,1-13.42485-3.88323,77.41619,77.41619,0,0,1-12.19393-5.9513,51.64291,51.64291,0,0,1-9.93379-7.67043l9.83454-15.53614a7.97566,7.97566,0,0,1,3.04929-2.8524,8.64273,8.64273,0,0,1,4.229-1.08206,11.20179,11.20179,0,0,1,5.9497,1.86959q2.99886,1.868,6.78526,4.12974a55.14887,55.14887,0,0,0,8.70446,4.12974,32.63209,32.63209,0,0,0,11.60488,1.86958q9.047,0,14.06192-3.98247,5.01572-3.98568,5.01651-12.63732a11.95627,11.95627,0,0,0-2.75316-8.16344,21.314,21.314,0,0,0-7.22864-5.21179,66.68877,66.68877,0,0,0-10.17868-3.63833q-5.7048-1.57266-11.70413-3.49107a85.4558,85.4558,0,0,1-11.70252-4.722,36.887,36.887,0,0,1-10.17869-7.3759,34.45331,34.45331,0,0,1-7.22864-11.408q-2.754-6.83328-2.75316-16.8663A40.04,40.04,0,0,1,243.22,790.07041a40.61822,40.61822,0,0,1,9.54-13.66976,46.94455,46.94455,0,0,1,15.4401-9.58963,57.06225,57.06225,0,0,1,20.948-3.58871,78.60092,78.60092,0,0,1,12.8342,1.03243,67.55037,67.55037,0,0,1,11.84978,3.04929,65.1932,65.1932,0,0,1,10.47481,4.818,48.38385,48.38385,0,0,1,8.70287,6.34347Z" transform="translate(-234.46753 -151.95905)"/><path class="cls-2" d="M387.8857,908.08327H354.44763V764.79577H387.8857Z" transform="translate(-234.46753 -151.95905)"/><path class="cls-2" d="M403.61872,764.79577h27.93016a12.59663,12.59663,0,0,1,7.22864,1.96723,9.01425,9.01425,0,0,1,3.78719,5.21179l19.66908,74.74186q.982,3.63993,1.96563,7.76967a70.30162,70.30162,0,0,1,1.47582,8.65484q.982-4.622,2.16411-8.70446,1.17889-4.07933,2.26175-7.72005l23.20977-74.74186a10.29584,10.29584,0,0,1,3.78559-4.96689,11.26034,11.26034,0,0,1,7.03176-2.21213h9.83454a12.35076,12.35076,0,0,1,7.1294,1.91761,9.8659,9.8659,0,0,1,3.88483,5.26141l23.01289,74.74186q1.08285,3.44544,2.26175,7.32788,1.1813,3.88483,2.06647,8.3091.78513-4.32663,1.62148-8.26108.83556-3.93045,1.72233-7.3759L575.331,771.97479a9.35343,9.35343,0,0,1,3.736-5.01491,11.649,11.649,0,0,1,7.08138-2.16411h26.15981l-44.25543,143.2875H537.95846L511.01272,819.2795q-.6891-2.06487-1.4262-4.52511-.73712-2.45622-1.4262-5.21179-.6891,2.754-1.4262,5.21179-.73712,2.46105-1.4262,4.52511l-27.33951,88.80377H447.87415Z" transform="translate(-234.46753 -151.95905)"/><path class="cls-2" d="M744.68226,908.08327H718.91461a11.907,11.907,0,0,1-7.1294-2.01685,10.40458,10.40458,0,0,1-3.88643-5.16377l-8.45636-24.97691H644.95869l-8.458,24.97691a11.38766,11.38766,0,0,1-10.81735,7.18062H599.72045L655.187,764.79577h34.02712Zm-92.05154-54.77665H691.772l-13.17835-39.24051q-1.27974-3.736-2.99966-8.80211-1.72152-5.06373-3.39343-10.96461-1.57506,6.00012-3.24456,11.11347-1.67351,5.11416-3.14693,8.85013Z" transform="translate(-234.46753 -151.95905)"/><path class="cls-2" d="M777.42884,764.99265a9.33257,9.33257,0,0,1,2.65712.73791,8.89026,8.89026,0,0,1,2.26015,1.52384,26.17873,26.17873,0,0,1,2.45863,2.65552L852.859,855.96214q-.39377-4.13214-.589-8.01618-.19687-3.88243-.19528-7.32628V764.79577h29.30514v143.2875H864.0733a15.94114,15.94114,0,0,1-6.49233-1.1813,13.83867,13.83867,0,0,1-5.11255-4.325L784.904,817.213q.29293,3.74077.493,7.32788.19209,3.58951.19528,6.73564v76.80672H756.28394V764.79577h17.50817A28.16467,28.16467,0,0,1,777.42884,764.99265Z" transform="translate(-234.46753 -151.95905)"/><path class="cls-4" d="M1034.99643,836.3907a75.13843,75.13843,0,0,1-5.35905,28.66807,67.02511,67.02511,0,0,1-15.09755,22.71515,68.4276,68.4276,0,0,1-23.45307,14.9503,83.0206,83.0206,0,0,1-30.43841,5.35905h-55.665V764.79577h55.665a82.36375,82.36375,0,0,1,30.43841,5.40868,69.45869,69.45869,0,0,1,23.45307,14.94869,66.5216,66.5216,0,0,1,15.09755,22.66874A74.88072,74.88072,0,0,1,1034.99643,836.3907Zm-34.02712,0a62.4794,62.4794,0,0,0-2.75315-19.17767,41.02661,41.02661,0,0,0-7.91694-14.5053,34.38241,34.38241,0,0,0-12.63891-9.14625,42.93134,42.93134,0,0,0-17.012-3.19655h-22.227v92.14918h22.227a42.93159,42.93159,0,0,0,17.012-3.19494,34.38252,34.38252,0,0,0,12.63891-9.14625,41.00633,41.00633,0,0,0,7.91694-14.50691A62.81105,62.81105,0,0,0,1000.96931,836.3907Z" transform="translate(-234.46753 -151.95905)"/><path class="cls-4" d="M1192.34906,836.3907a77.01278,77.01278,0,0,1-5.35906,28.91457,68.33871,68.33871,0,0,1-38.55382,38.7443,85.52841,85.52841,0,0,1-60.92484,0,68.39907,68.39907,0,0,1-38.69789-38.7443,80.67885,80.67885,0,0,1,0-57.82754A68.768,68.768,0,0,1,1063.959,784.268a70.02976,70.02976,0,0,1,23.55232-15.44009,80.13009,80.13009,0,0,1,30.48643-5.60556,79.15719,79.15719,0,0,1,30.43841,5.65518,70.26291,70.26291,0,0,1,23.45627,15.48812A69.19565,69.19565,0,0,1,1186.99,807.57537,76.75971,76.75971,0,0,1,1192.34906,836.3907Zm-34.02712,0a61.90829,61.90829,0,0,0-2.75636-19.12805,40.51447,40.51447,0,0,0-7.91373-14.40766,34.19551,34.19551,0,0,0-12.63892-9.047,43.49341,43.49341,0,0,0-17.01516-3.14692,44.11655,44.11655,0,0,0-17.15923,3.14692,34.05879,34.05879,0,0,0-12.68693,9.047,40.51965,40.51965,0,0,0-7.91694,14.40766,68.169,68.169,0,0,0,0,38.35534,40.506,40.506,0,0,0,7.91694,14.40767,33.585,33.585,0,0,0,12.68693,8.99578,44.689,44.689,0,0,0,17.15923,3.09891,44.05654,44.05654,0,0,0,17.01516-3.09891,33.715,33.715,0,0,0,12.63892-8.99578,40.50082,40.50082,0,0,0,7.91373-14.40767A62.24934,62.24934,0,0,0,1158.32194,836.3907Z" transform="translate(-234.46753 -151.95905)"/><path class="cls-4" d="M1304.55628,871.00847a6.67061,6.67061,0,0,1,2.36259.44339,6.42092,6.42092,0,0,1,2.26015,1.52224l13.17995,13.865a54.716,54.716,0,0,1-21.68593,17.06318q-13.03267,5.75283-30.83217,5.756a73.44584,73.44584,0,0,1-29.25711-5.55753,63.31182,63.31182,0,0,1-21.93243-15.34086,67.5541,67.5541,0,0,1-13.817-23.20977,85.74047,85.74047,0,0,1-4.818-29.15947,76.86869,76.86869,0,0,1,5.50632-29.454,68.71825,68.71825,0,0,1,15.39208-23.16014,69.42522,69.42522,0,0,1,23.65155-15.14558,82.45588,82.45588,0,0,1,30.39039-5.40867,77.40119,77.40119,0,0,1,15.1936,1.4262,74.36019,74.36019,0,0,1,13.324,3.93285,62.84613,62.84613,0,0,1,11.4096,5.99933,55.26013,55.26013,0,0,1,9.2455,7.72005L1312.915,797.34867a14.16079,14.16079,0,0,1-2.55468,2.50665,6.64675,6.64675,0,0,1-4.12974,1.13168,7.34732,7.34732,0,0,1-3.3454-.78753,35.92479,35.92479,0,0,1-3.34221-1.91761q-1.77195-1.12847-3.88644-2.45863a30.03482,30.03482,0,0,0-5.01651-2.45864,41.62207,41.62207,0,0,0-6.78365-1.9176,46.44025,46.44025,0,0,0-9.09823-.78593A41.6273,41.6273,0,0,0,1258.236,793.856a36.27222,36.27222,0,0,0-12.8342,9.14625,42.41123,42.41123,0,0,0-8.35871,14.40766,56.50594,56.50594,0,0,0-2.99967,18.98079,58.97747,58.97747,0,0,0,2.99967,19.57144,42.95952,42.95952,0,0,0,8.16343,14.40766,34.57938,34.57938,0,0,0,12.04667,8.89815,36.00143,36.00143,0,0,0,14.75181,3.05088,69.96657,69.96657,0,0,0,8.25948-.445,33.89767,33.89767,0,0,0,6.93411-1.52384,32.13756,32.13756,0,0,0,6.09857-2.80118,40.64176,40.64176,0,0,0,5.85206-4.2802,11.67077,11.67077,0,0,1,2.55468-1.62148A6.73531,6.73531,0,0,1,1304.55628,871.00847Z" transform="translate(-234.46753 -151.95905)"/><path class="cls-4" d="M1441.55153,764.79577v26.35669h-40.321V908.08327H1367.991V791.15246H1327.6668V764.79577Z" transform="translate(-234.46753 -151.95905)"/><path class="cls-4" d="M1590.84,836.3907a77.01259,77.01259,0,0,1-5.35906,28.91457,68.33871,68.33871,0,0,1-38.55382,38.7443,85.52841,85.52841,0,0,1-60.92484,0,68.39915,68.39915,0,0,1-38.69789-38.7443,80.679,80.679,0,0,1,0-57.82754,68.768,68.768,0,0,1,15.14558-23.20977,70.02972,70.02972,0,0,1,23.55231-15.44009,80.13009,80.13009,0,0,1,30.48643-5.60556,79.15719,79.15719,0,0,1,30.43841,5.65518,70.26271,70.26271,0,0,1,23.45627,15.48812,69.19565,69.19565,0,0,1,15.09755,23.20976A76.75951,76.75951,0,0,1,1590.84,836.3907Zm-34.02712,0a61.90829,61.90829,0,0,0-2.75636-19.12805,40.51416,40.51416,0,0,0-7.91373-14.40766,34.19543,34.19543,0,0,0-12.63892-9.047,43.49337,43.49337,0,0,0-17.01516-3.14692,44.1165,44.1165,0,0,0-17.15922,3.14692,34.0589,34.0589,0,0,0-12.68694,9.047,40.51948,40.51948,0,0,0-7.91693,14.40766,68.169,68.169,0,0,0,0,38.35534,40.50582,40.50582,0,0,0,7.91693,14.40767,33.58513,33.58513,0,0,0,12.68694,8.99578,44.68894,44.68894,0,0,0,17.15922,3.09891,44.0565,44.0565,0,0,0,17.01516-3.09891,33.71491,33.71491,0,0,0,12.63892-8.99578,40.50051,40.50051,0,0,0,7.91373-14.40767A62.24934,62.24934,0,0,0,1556.81284,836.3907Z" transform="translate(-234.46753 -151.95905)"/><path class="cls-4" d="M1640.01265,855.077v53.00631h-33.24279V764.79577h46.618q15.53454,0,26.504,3.19655,10.963,3.19574,17.89873,8.89974a33.71355,33.71355,0,0,1,10.081,13.47287,44.66334,44.66334,0,0,1,3.14693,16.91592,45.42127,45.42127,0,0,1-1.86959,13.17835,39.90192,39.90192,0,0,1-5.55754,11.45762,43.00638,43.00638,0,0,1-9.047,9.39115,48.00563,48.00563,0,0,1-12.34119,6.78686,31.35651,31.35651,0,0,1,6.24263,4.12973,24.53752,24.53752,0,0,1,5.06453,5.99933L1724,908.08327h-30.09587q-8.36031,0-11.99865-6.29385l-23.79881-41.5983a10.03915,10.03915,0,0,0-3.688-3.93446,12.34652,12.34652,0,0,0-5.94811-1.1797Zm0-22.91524h13.37523a34.178,34.178,0,0,0,11.55367-1.72072,20.90558,20.90558,0,0,0,7.82089-4.77,18.1915,18.1915,0,0,0,4.42426-7.1294,27.42517,27.42517,0,0,0,1.37658-8.80211q0-9.44076-6.14659-14.7518t-19.02881-5.311h-13.37523Z" transform="translate(-234.46753 -151.95905)"/></svg>