<svg width="518" height="345" viewBox="0 0 518 345" fill="none" xmlns="http://www.w3.org/2000/svg">
<path d="M481.878 130.065C481.878 130.065 409.012 50.5078 297.746 23.4253C186.48 -3.65723 170.076 84.9733 138.444 119.922C106.811 154.87 49.2096 150.972 20.9614 193.855C-7.2869 236.739 23.7931 312.328 162.168 331.545C300.578 350.727 292.083 276.793 377.932 290.352C463.782 303.876 562.651 231.081 481.878 130.065Z" fill="#42A5F5"/>
<path d="M193.904 12.2822V328.44" stroke="#263238" stroke-width="2" stroke-linecap="round" stroke-linejoin="round"/>
<path d="M406.871 167.256H312.043V36.8462H406.871V167.256Z" fill="#263238" stroke="#64EBB6" stroke-width="2" stroke-linecap="round" stroke-linejoin="round"/>
<path d="M402.347 161.426H316.566V42.6768H402.347V161.426Z" fill="white" stroke="#64EBB6" stroke-width="2" stroke-linecap="round" stroke-linejoin="round"/>
<path d="M368.505 61.0654L347.336 82.1794" stroke="#64EBB6" stroke-width="2" stroke-linecap="round" stroke-linejoin="round"/>
<path d="M379.555 50.0254L370.611 58.9264" stroke="#64EBB6" stroke-width="2" stroke-linecap="round" stroke-linejoin="round"/>
<path d="M354.173 67.8618L341.465 80.5578" stroke="#64EBB6" stroke-width="2" stroke-linecap="round" stroke-linejoin="round"/>
<path d="M351.1 151.249L347.336 155.009" stroke="#64EBB6" stroke-width="2" stroke-linecap="round" stroke-linejoin="round"/>
<path d="M379.555 122.82L353.206 149.144" stroke="#64EBB6" stroke-width="2" stroke-linecap="round" stroke-linejoin="round"/>
<path d="M354.173 140.691L341.465 153.353" stroke="#64EBB6" stroke-width="2" stroke-linecap="round" stroke-linejoin="round"/>
<path d="M362.6 106.916C362.6 105.329 361.322 104.052 359.733 104.052C358.145 104.052 356.867 105.329 356.867 106.916C356.867 108.503 358.145 109.779 359.733 109.779C361.322 109.779 362.6 108.503 362.6 106.916Z" fill="#263238" stroke="#64EBB6" stroke-width="2" stroke-linecap="round" stroke-linejoin="round"/>
<path d="M402.347 111.78H316.566V106.502H402.347V111.78Z" fill="#263238" stroke="#64EBB6" stroke-width="2" stroke-linecap="round" stroke-linejoin="round"/>
<path d="M409.668 40.1928H309.798V29.0493H409.668V40.1928Z" fill="#263238" stroke="#64EBB6" stroke-width="2" stroke-linecap="round" stroke-linejoin="round"/>
<path d="M409.668 174.501H309.798V163.358H409.668V174.501Z" fill="#263238" stroke="#64EBB6" stroke-width="2" stroke-linecap="round" stroke-linejoin="round"/>
<path d="M444.824 16.7669H274.091V13.4204H444.824V16.7669Z" fill="white" stroke="#263238" stroke-width="2" stroke-linecap="round" stroke-linejoin="round"/>
<path d="M286.626 186.749H283.345C281.619 186.749 280.237 185.369 280.237 183.678V13.7311C280.237 12.0406 281.619 10.6606 283.345 10.6606H286.626C288.353 10.6606 289.734 12.0406 289.734 13.7311V183.678C289.734 185.369 288.353 186.749 286.626 186.749Z" fill="white" stroke="#263238" stroke-width="2" stroke-linecap="round" stroke-linejoin="round"/>
<path d="M295.57 186.749H292.255C290.563 186.749 289.182 185.369 289.182 183.678V13.7311C289.182 12.0406 290.563 10.6606 292.255 10.6606H295.57C297.262 10.6606 298.644 12.0406 298.644 13.7311V183.678C298.644 185.369 297.262 186.749 295.57 186.749Z" fill="white" stroke="#263238" stroke-width="2" stroke-linecap="round" stroke-linejoin="round"/>
<path d="M304.48 186.749H301.2C299.473 186.749 298.092 185.369 298.092 183.678V13.7311C298.092 12.0406 299.473 10.6606 301.2 10.6606H304.48C306.207 10.6606 307.588 12.0406 307.588 13.7311V183.678C307.588 185.369 306.207 186.749 304.48 186.749Z" fill="white" stroke="#263238" stroke-width="2" stroke-linecap="round" stroke-linejoin="round"/>
<path d="M313.389 186.749H310.109C308.416 186.749 307.035 185.369 307.035 183.678V13.7311C307.035 12.0406 308.416 10.6606 310.109 10.6606H313.389C315.116 10.6606 316.497 12.0406 316.497 13.7311V183.678C316.497 185.369 315.116 186.749 313.389 186.749Z" fill="white" stroke="#263238" stroke-width="2" stroke-linecap="round" stroke-linejoin="round"/>
<path d="M409.357 186.749H406.077C404.35 186.749 402.969 185.369 402.969 183.678V13.7311C402.969 12.0406 404.35 10.6606 406.077 10.6606H409.357C411.084 10.6606 412.465 12.0406 412.465 13.7311V183.678C412.465 185.369 411.084 186.749 409.357 186.749Z" fill="white" stroke="#263238" stroke-width="2" stroke-linecap="round" stroke-linejoin="round"/>
<path d="M418.302 186.749H414.987C413.294 186.749 411.913 185.369 411.913 183.678V13.7311C411.913 12.0406 413.294 10.6606 414.987 10.6606H418.302C419.994 10.6606 421.375 12.0406 421.375 13.7311V183.678C421.375 185.369 419.994 186.749 418.302 186.749Z" fill="white" stroke="#263238" stroke-width="2" stroke-linecap="round" stroke-linejoin="round"/>
<path d="M427.212 186.749H423.931C422.205 186.749 420.823 185.369 420.823 183.678V13.7311C420.823 12.0406 422.205 10.6606 423.931 10.6606H427.212C428.939 10.6606 430.32 12.0406 430.32 13.7311V183.678C430.32 185.369 428.939 186.749 427.212 186.749Z" fill="white" stroke="#263238" stroke-width="2" stroke-linecap="round" stroke-linejoin="round"/>
<path d="M436.122 186.749H432.841C431.149 186.749 429.768 185.369 429.768 183.678V13.7311C429.768 12.0406 431.149 10.6606 432.841 10.6606H436.122C437.848 10.6606 439.23 12.0406 439.23 13.7311V183.678C439.23 185.369 437.848 186.749 436.122 186.749Z" fill="white" stroke="#263238" stroke-width="2" stroke-linecap="round" stroke-linejoin="round"/>
<path d="M464.818 199.858C464.818 199.824 464.818 199.789 464.783 199.755C464.749 199.755 464.714 199.755 464.714 199.789C462.78 204.205 461.468 208.828 460.328 213.486C459.258 218.143 458.464 222.904 457.911 227.665L457.566 231.253C457.531 231.84 457.462 232.426 457.428 233.047L457.324 234.841C457.255 236.049 457.186 237.256 457.151 238.429L457.186 242.052L457.22 243.846C457.266 244.444 457.313 245.042 457.359 245.64C457.428 246.847 457.497 248.02 457.635 249.228C457.842 251.608 458.222 253.989 458.567 256.369C458.567 256.404 458.602 256.404 458.636 256.404C458.671 256.404 458.705 256.369 458.705 256.335C458.705 255.162 458.636 253.954 458.636 252.747C458.602 251.574 458.498 250.366 458.498 249.193C458.498 247.986 458.464 246.778 458.464 245.605L458.429 243.811L458.464 242.017V238.464L458.567 234.91L458.602 233.116C458.636 232.53 458.671 231.909 458.705 231.322L458.913 227.769C459.361 223.008 459.983 218.281 460.95 213.624C461.882 208.932 463.057 204.309 464.818 199.858Z" fill="#263238"/>
<path d="M465.336 218.523C465.336 218.488 465.336 218.454 465.302 218.454C465.267 218.419 465.232 218.454 465.198 218.488C464.196 221.455 463.368 224.491 462.677 227.527C461.986 230.632 461.468 233.737 461.158 236.877C460.847 239.982 460.501 243.121 460.467 246.261C460.398 249.4 460.467 252.54 460.778 255.679C460.801 255.702 460.824 255.725 460.847 255.748C460.881 255.748 460.916 255.714 460.916 255.679C461.261 252.54 461.503 249.435 461.71 246.295C461.952 243.19 461.952 240.051 462.159 236.946C462.366 233.841 462.746 230.736 463.299 227.665C463.817 224.595 464.473 221.524 465.336 218.523Z" fill="#263238"/>
<path d="M475.696 225.078C475.661 225.044 475.627 225.044 475.592 225.078C473.002 226.7 470.689 228.77 468.686 231.081C467.684 232.289 466.752 233.531 465.958 234.876L465.405 235.911L464.956 237.015C464.818 237.36 464.714 237.74 464.576 238.119C464.473 238.464 464.369 238.844 464.265 239.223C463.471 242.225 462.953 245.295 462.815 248.366C462.711 251.436 462.746 254.507 463.16 257.543C463.16 257.566 463.183 257.589 463.229 257.612C463.264 257.612 463.299 257.577 463.299 257.543L464.093 248.435C464.404 245.433 464.576 242.397 465.232 239.465C465.301 239.085 465.44 238.74 465.509 238.395C465.612 238.016 465.716 237.636 465.819 237.291L466.199 236.256L466.683 235.256C467.373 233.945 468.237 232.703 469.169 231.495C470.999 229.115 473.175 226.941 475.661 225.182C475.696 225.147 475.696 225.113 475.696 225.078Z" fill="#263238"/>
<path d="M470.689 236.773C469.273 237.705 468.306 239.119 467.511 240.568C466.752 242.017 466.165 243.604 465.75 245.191C465.635 245.582 465.532 245.985 465.439 246.399L465.163 247.606C465.025 248.434 464.921 249.228 464.852 250.056C464.852 250.884 464.818 251.712 464.887 252.54C464.956 253.368 465.06 254.196 465.198 254.989C465.221 255.012 465.244 255.035 465.267 255.058C465.301 255.058 465.336 255.024 465.336 254.989C465.543 254.196 465.647 253.368 465.785 252.574C465.888 251.781 466.027 250.987 466.13 250.194C466.234 249.4 466.337 248.607 466.406 247.813C466.51 247.02 466.579 246.192 466.752 245.433C467.028 243.846 467.477 242.293 468.099 240.844C468.72 239.361 469.514 237.912 470.723 236.877H470.758C470.758 236.842 470.792 236.808 470.758 236.808C470.758 236.773 470.689 236.773 470.689 236.773Z" fill="#263238"/>
<path d="M456.15 245.882C455.805 241.845 455.148 237.843 454.492 233.841C453.871 229.874 453.18 225.872 452.455 221.904C451.695 217.902 450.901 213.935 450.038 210.002C450.038 209.967 450.003 209.933 449.968 209.933C449.934 209.967 449.899 210.002 449.899 210.036C450.59 214.004 451.246 218.006 451.833 222.008C452.42 225.975 453.007 229.977 453.491 234.014C454.009 238.016 454.389 242.018 454.872 246.02L456.357 258.06C456.357 258.095 456.392 258.095 456.426 258.095C456.461 258.129 456.495 258.095 456.495 258.06C456.53 257.025 456.53 256.025 456.564 255.024C456.564 253.989 456.53 252.989 456.495 251.954C456.461 249.953 456.288 247.917 456.15 245.882Z" fill="#263238"/>
<path d="M453.733 245.847C453.491 244.225 453.215 242.638 452.904 241.051L452.351 238.705C452.144 237.912 451.971 237.118 451.73 236.359C450.935 233.22 449.899 230.149 448.656 227.148L448.173 226.044L447.62 224.974C447.275 224.215 446.86 223.525 446.481 222.835C445.617 221.455 444.754 220.075 443.545 218.971C443.545 218.937 443.511 218.937 443.476 218.971C443.442 218.971 443.442 219.006 443.476 219.04C444.581 220.213 445.375 221.628 446.135 223.008C446.515 223.732 446.86 224.422 447.171 225.181L447.655 226.285L448.069 227.389C449.174 230.391 450.072 233.461 450.763 236.601C451.143 238.153 451.384 239.74 451.661 241.293L452.04 243.673C452.179 244.467 452.351 245.226 452.455 246.019C452.731 247.606 453.007 249.193 453.284 250.746C453.537 252.333 453.825 253.92 454.147 255.507C454.181 255.541 454.181 255.576 454.216 255.576C454.251 255.576 454.285 255.541 454.285 255.507C454.285 253.897 454.25 252.275 454.181 250.642C454.078 249.055 453.905 247.434 453.733 245.847Z" fill="#263238"/>
<path d="M450.383 246.054C449.623 243.915 448.76 241.845 447.827 239.809C446.826 237.774 445.79 235.807 444.581 233.91C444.581 233.875 444.547 233.875 444.512 233.875C444.478 233.91 444.478 233.944 444.478 233.979C445.548 235.945 446.411 237.981 447.24 240.051C448.069 242.121 448.794 244.225 449.416 246.364C450.037 248.469 450.486 250.642 451.073 252.781C451.66 254.92 452.144 257.094 452.8 259.233C452.8 259.279 452.823 259.302 452.869 259.302C452.904 259.302 452.938 259.267 452.938 259.233C452.973 256.99 452.731 254.713 452.282 252.505C451.902 250.297 451.108 248.158 450.383 246.054Z" fill="#263238"/>
<path d="M450.245 253.092C449.865 251.781 449.209 250.539 448.449 249.366C447.724 248.193 446.861 247.089 445.859 246.158C445.341 245.709 444.789 245.261 444.201 244.916C443.649 244.536 443.027 244.26 442.337 244.088C442.302 244.053 442.268 244.088 442.268 244.122C442.268 244.122 442.268 244.191 442.302 244.191C443.511 244.743 444.547 245.64 445.41 246.606C446.273 247.572 446.999 248.711 447.586 249.884C448.173 251.022 448.518 252.299 449.036 253.506C449.278 254.127 449.52 254.748 449.796 255.335C450.003 255.99 450.279 256.611 450.59 257.232C450.613 257.255 450.636 257.267 450.659 257.267C450.694 257.267 450.728 257.232 450.728 257.198C450.728 256.508 450.694 255.818 450.625 255.128C450.556 254.438 450.383 253.782 450.245 253.092Z" fill="#263238"/>
<path d="M450.487 215.797C450.487 215.797 443.856 214.245 442.337 207.138C440.783 199.996 445.721 203.032 441.301 191.854C436.88 180.642 437.916 178.089 439.436 174.88C440.955 171.637 441.819 172.672 443.166 176.916C444.547 181.159 449.451 187.783 451.35 200.169C453.215 212.554 450.487 215.797 450.487 215.797Z" fill="#92E3A9"/>
<path d="M463.575 203.722C463.575 203.722 459.155 202.204 458.982 193.89C458.809 185.575 462.194 187.266 462.712 176.916C463.23 166.566 463.92 159.252 465.785 159.079C467.65 158.907 472.588 164.185 474.28 175.708C475.972 187.266 472.07 194.89 468.651 198.306C465.267 201.687 463.575 203.722 463.575 203.722Z" fill="#92E3A9"/>
<path d="M448.105 225.802C448.105 225.802 447.103 219.696 445.031 216.798C442.994 213.9 438.573 211.381 435.707 205.758C432.806 200.169 429.595 197.443 429.767 205.413C429.94 213.417 433.497 217.488 437.917 220.179C442.338 222.904 448.105 225.802 448.105 225.802Z" fill="#92E3A9"/>
<path d="M446.239 236.325C446.239 236.325 442.164 228.528 436.225 222.732C430.25 216.97 425.519 214.072 427.211 216.97C428.904 219.868 430.941 219.696 433.842 224.767C436.708 229.873 435.879 233.599 439.954 236.497C444.029 239.395 446.239 236.325 446.239 236.325Z" fill="#92E3A9"/>
<path d="M445.721 246.33C445.548 245.812 445.376 242.086 439.609 239.05C433.841 235.98 428.385 237.187 429.076 238.705C429.767 240.223 433.323 242.776 436.88 244.294C440.472 245.812 445.721 246.33 445.721 246.33Z" fill="#92E3A9"/>
<path d="M463.23 226.147C463.23 226.147 460.675 222.904 462.056 216.108C463.403 209.346 466.442 211.036 469.861 207.448C473.245 203.895 472.589 203.377 475.973 199.651C479.357 195.925 482.431 193.89 483.778 195.408C485.159 196.926 483.121 201.687 481.084 204.412C479.046 207.138 475.8 208.483 474.281 211.864C472.761 215.28 473.418 220.696 469.515 223.249C465.613 225.802 463.23 226.147 463.23 226.147Z" fill="#92E3A9"/>
<path d="M471.725 228.01C471.725 228.01 477.837 221.041 482.257 215.935C486.678 210.864 488.37 206.965 488.542 210.346C488.715 213.727 490.062 216.453 486.505 220.869C482.948 225.285 471.725 228.01 471.725 228.01Z" fill="#92E3A9"/>
<path d="M468.513 239.223C468.513 239.223 468.34 236.497 478.01 230.218C487.713 223.939 491.788 222.732 490.752 225.285C489.751 227.838 485.503 230.391 480.91 234.979C476.317 239.533 468.513 239.223 468.513 239.223Z" fill="#92E3A9"/>
<path d="M450.901 215.073C450.901 215.073 448.622 202.894 446.239 194.235C443.856 185.575 442.337 180.297 442.337 180.297" stroke="#263238" stroke-width="2" stroke-linecap="round" stroke-linejoin="round"/>
<path d="M463.195 203.86C463.195 203.86 467.305 190.647 468.652 182.677C470.033 174.708 468.513 168.739 467.823 165.186" stroke="#263238" stroke-width="2" stroke-linecap="round" stroke-linejoin="round"/>
<path d="M447.586 225.526C447.586 225.526 445.031 221.041 441.301 216.625C437.571 212.209 434.671 209.829 432.979 205.585" stroke="#263238" stroke-width="2" stroke-linecap="round" stroke-linejoin="round"/>
<path d="M463.229 226.147C463.229 226.147 464.576 217.971 467.822 213.727C471.034 209.484 477.492 202.894 480.047 198.651" stroke="#263238" stroke-width="2" stroke-linecap="round" stroke-linejoin="round"/>
<path d="M445.342 246.158C445.342 246.158 439.609 242.431 435.534 240.396" stroke="#263238" stroke-width="2" stroke-linecap="round" stroke-linejoin="round"/>
<path d="M478.079 280.381C477.699 270.066 466.234 263.2 466.234 263.2H458.982H455.909H448.657C448.657 263.2 437.226 270.066 436.846 280.381C436.432 290.662 449.831 328.44 449.831 328.44H455.909H458.982H465.095C465.095 328.44 478.459 290.662 478.079 280.381Z" fill="#263238" stroke="#263238" stroke-width="2" stroke-linecap="round" stroke-linejoin="round"/>
<path d="M468.479 253.057H446.102L448.657 263.2H465.889L468.479 253.057Z" fill="#263238" stroke="#263238" stroke-width="2" stroke-linecap="round" stroke-linejoin="round"/>
<path d="M105.603 67.4132H72.5889V25.0127H105.603V67.4132Z" stroke="#42A5F5" stroke-opacity="0.6" stroke-width="2" stroke-linecap="round" stroke-linejoin="round"/>
<path d="M103.462 64.6875H74.6953V27.7725H103.462V64.6875Z" stroke="#42A5F5" stroke-opacity="0.6" stroke-width="2" stroke-linecap="round" stroke-linejoin="round"/>
<path d="M93.7231 52.1987H84.4336V40.2617H93.7231V52.1987Z" stroke="#42A5F5" stroke-opacity="0.6" stroke-width="2" stroke-linecap="round" stroke-linejoin="round"/>
<path d="M147.803 99.1188H114.789V56.7183H147.803V99.1188Z" stroke="#42A5F5" stroke-opacity="0.6" stroke-width="2" stroke-linecap="round" stroke-linejoin="round"/>
<path d="M145.696 96.3933H116.93V59.4438H145.696V96.3933Z" stroke="#42A5F5" stroke-opacity="0.6" stroke-width="2" stroke-linecap="round" stroke-linejoin="round"/>
<path d="M135.958 83.8698H126.669V71.9673H135.958V83.8698Z" stroke="#42A5F5" stroke-opacity="0.6" stroke-width="2" stroke-linecap="round" stroke-linejoin="round"/>
<path d="M105.603 98.877H72.5889V74.106H105.603V98.877Z" stroke="#42A5F5" stroke-opacity="0.6" stroke-width="2" stroke-linecap="round" stroke-linejoin="round"/>
<path d="M103.462 97.2899H74.6953V75.6929H103.462V97.2899Z" stroke="#42A5F5" stroke-opacity="0.6" stroke-width="2" stroke-linecap="round" stroke-linejoin="round"/>
<path d="M93.7231 89.9758H84.4336V83.0068H93.7231V89.9758Z" stroke="#42A5F5" stroke-opacity="0.6" stroke-width="2" stroke-linecap="round" stroke-linejoin="round"/>
<path d="M241.629 153.077L221.772 162.426L224.19 174.363L244.046 170.396L241.629 153.077Z" fill="white" stroke="#263238" stroke-width="2" stroke-linecap="round" stroke-linejoin="round"/>
<path d="M224.19 174.363C224.19 174.363 227.229 163.427 225.433 162.771C223.672 162.15 221.772 162.426 221.772 162.426C221.772 162.426 223.188 173.259 224.19 174.363Z" fill="white" stroke="#263238" stroke-width="2" stroke-linecap="round" stroke-linejoin="round"/>
<path d="M214.417 176.572C214.417 176.572 218.976 174.364 219.839 173.57C220.703 172.777 222.429 168.533 222.429 168.533C222.429 168.533 225.71 168.671 225.434 167.395C225.157 166.118 220.219 164.117 217.077 166.015C213.934 167.912 212.104 176.192 212.104 176.192C212.104 176.192 212.035 177.848 214.417 176.572Z" fill="white" stroke="#263238" stroke-width="2" stroke-linecap="round" stroke-linejoin="round"/>
<path d="M202.089 174.743L216.524 161.529C216.524 161.529 217.974 158.666 218.527 157.803C219.045 156.941 221.704 156.182 223.534 155.043C225.364 153.87 225.986 151.973 226.884 152.042C227.816 152.145 227.782 152.732 227.644 154.112C227.505 155.492 225.675 157.217 225.295 157.458C224.881 157.7 229.301 158.183 231.062 158.079C232.858 157.976 235.517 157.389 235.517 157.389C235.517 157.389 238.763 153.249 239.35 154.595C239.972 155.94 236.657 163.082 235.793 164.462C234.93 165.842 229.923 166.842 226.884 167.222C223.845 167.601 219.632 167.36 219.632 167.36L213.001 178.814L202.089 174.743Z" fill="white" stroke="#263238" stroke-width="2" stroke-linecap="round" stroke-linejoin="round"/>
<path d="M220.322 164.531C220.322 164.531 224.19 163.22 225.433 162.771C226.676 162.357 233.203 162.219 233.203 162.219C233.203 162.219 237.175 155.388 237.382 156.389C237.623 157.355 235.793 162.53 235.413 163.496C235.068 164.496 234.412 164.91 233.687 165.083" fill="white"/>
<path d="M220.322 164.531C220.322 164.531 224.19 163.22 225.433 162.771C226.676 162.357 233.203 162.219 233.203 162.219C233.203 162.219 237.175 155.388 237.382 156.389C237.623 157.355 235.793 162.53 235.413 163.496C235.068 164.496 234.412 164.91 233.687 165.083" stroke="#263238" stroke-width="2" stroke-linecap="round" stroke-linejoin="round"/>
<path d="M257.411 304.428C257.411 304.428 254.925 308.499 252.888 311.225C250.85 313.95 243.356 318.677 241.768 319.608C240.179 320.505 232.927 322.748 233.169 323.886C233.411 325.025 233.169 327.509 234.758 327.957C236.346 328.406 260.347 327.957 260.347 327.957H276.439C276.439 327.957 277.337 321.851 276.888 318.918C276.439 315.986 273.469 309.189 273.469 309.189L257.411 304.428Z" fill="white" stroke="#263238" stroke-width="2" stroke-linecap="round" stroke-linejoin="round"/>
<path d="M276.75 325.266H233.307C233.445 326.37 233.652 327.647 234.757 327.957C236.346 328.406 260.346 327.957 260.346 327.957H276.439C276.439 327.957 276.611 326.819 276.75 325.266Z" fill="white" stroke="#263238" stroke-width="2" stroke-linecap="round" stroke-linejoin="round"/>
<path d="M243.598 205.103C243.598 205.103 248.778 235.428 250.608 244.019C252.404 252.609 257.86 301.737 257.86 301.737L255.374 303.083L256.03 306.705C256.03 306.705 260.795 309.189 263.972 309.879C267.149 310.535 274.85 311.466 274.85 311.466L277.786 308.499C277.786 308.499 280.514 300.357 278.684 286.799C276.888 273.206 273.711 234.083 274.16 227.735C274.609 221.387 274.401 211.209 274.401 211.209C274.401 211.209 249.261 207.38 243.598 205.103Z" fill="white" stroke="#263238" stroke-width="2" stroke-linecap="round" stroke-linejoin="round"/>
<path d="M275.749 307.568C275.749 307.568 271.674 314.813 269.395 316.4C267.15 317.987 257.17 322.506 257.17 324.335C257.17 326.129 257.619 328.164 258.758 328.406C259.898 328.613 289.32 328.406 289.32 328.406C289.32 328.406 295.916 329.303 298.403 326.37C300.889 323.403 297.47 312.122 297.47 312.122L275.749 307.568Z" fill="white" stroke="#263238" stroke-width="2" stroke-linecap="round" stroke-linejoin="round"/>
<path d="M298.403 326.37C298.449 326.301 298.495 326.22 298.541 326.128H257.343C257.55 327.301 257.999 328.233 258.759 328.405C259.898 328.612 289.321 328.405 289.321 328.405C289.321 328.405 295.916 329.302 298.403 326.37Z" fill="white" stroke="#263238" stroke-width="2" stroke-linecap="round" stroke-linejoin="round"/>
<path d="M266.459 209.174C266.459 209.174 268.255 237.222 270.776 249.435C273.262 261.648 275.507 300.806 275.507 300.806C275.507 300.806 273.918 303.29 273.918 303.945C273.918 304.635 274.851 310.086 274.851 310.086C274.851 310.086 280.272 312.122 285.245 313.674C290.252 315.261 298.402 316.193 298.402 316.193C298.402 316.193 298.61 312.329 298.851 308.016C299.058 303.738 297.263 300.564 297.47 299.426C297.712 298.287 299.058 257.819 297.47 248.987C295.916 240.155 295.674 240.603 295.674 237.222C295.674 233.807 297.953 203.723 297.953 203.723C297.953 203.723 278.235 211.416 266.459 209.174Z" fill="white" stroke="#263238" stroke-width="2" stroke-linecap="round" stroke-linejoin="round"/>
<path d="M262.453 78.4879C262.453 78.4879 243.011 95.9794 242.562 97.9459C242.113 99.9124 238.314 205.586 238.314 205.586C238.314 205.586 257.688 212.382 274.644 212.382C291.599 212.382 303.686 205.586 303.686 205.586C303.686 205.586 308.244 98.0839 306.414 94.0129C304.584 89.9074 286.765 76.9699 282.586 75.8659C278.408 74.7964 266.908 76.4179 262.453 78.4879Z" fill="white" stroke="#263238" stroke-width="2" stroke-linecap="round" stroke-linejoin="round"/>
<path d="M264.975 159.08L289.908 160.667L289.666 165.187L265.216 163.151" stroke="#263238" stroke-width="2" stroke-linecap="round" stroke-linejoin="round"/>
<path d="M258.897 115.713C258.897 115.713 257.584 127.409 254.166 153.456C250.781 179.469 251.161 206.276 251.161 206.276" fill="white"/>
<path d="M258.897 115.713C258.897 115.713 257.584 127.409 254.166 153.456C250.781 179.469 251.161 206.276 251.161 206.276" stroke="#263238" stroke-width="2" stroke-linecap="round" stroke-linejoin="round"/>
<path d="M258.861 94.2199L257.515 104.639L259.414 113.126L265.319 105.191L271.363 96.5659L283.277 76.8319L272.571 74.7964L260.243 85.1809C260.243 85.1809 259 93.1504 258.861 94.2199Z" fill="white" stroke="#263238" stroke-width="2" stroke-linecap="round" stroke-linejoin="round"/>
<path d="M261.486 91.0804L262.867 96.4279L257.515 104.639L259.414 113.126L265.319 105.191V97.1179L268.876 92.0464L265.734 85.7329L261.486 91.0804Z" fill="white" stroke="#263238" stroke-width="2" stroke-linecap="round" stroke-linejoin="round"/>
<path d="M265.319 89.7003L258.862 94.2198C258.862 94.2198 258.724 90.1143 260.243 85.1808C261.762 80.2473 262.453 78.4878 262.453 78.4878L281.101 75.0723L282.586 75.8658L283.277 76.8318L271.363 96.5658L265.319 89.7003Z" fill="white" stroke="#263238" stroke-width="2" stroke-linecap="round" stroke-linejoin="round"/>
<path d="M251.748 43.6772C251.748 43.6772 250.919 51.9227 251.471 52.3367C252.024 52.7162 252.853 55.8902 252.853 55.8902C252.853 55.8902 250.228 64.5152 251.333 64.7912C252.438 65.0672 254.338 66.4127 254.338 66.4127C254.338 66.4127 257.1 76.8317 258.447 77.6597C259.828 78.4877 262.453 78.4877 262.453 78.4877L262.591 81.9032C262.591 81.9032 264.629 89.5622 265.319 89.7002C266.01 89.8382 282.586 75.8657 282.586 75.8657L281.239 61.8932C281.239 61.8932 284.796 61.0997 285.625 57.9257C286.419 54.7862 284.796 50.6807 284.796 50.6807C284.796 50.6807 284.865 40.5377 282.724 36.2942C280.134 31.0847 267.115 31.4987 260.105 32.7407C253.129 33.9482 249.676 38.3642 249.952 40.1237C250.228 41.9177 251.748 43.6772 251.748 43.6772Z" fill="white" stroke="#263238" stroke-width="2" stroke-linecap="round" stroke-linejoin="round"/>
<path d="M282.724 36.2942C280.134 31.0847 267.115 31.4987 260.105 32.7407C253.129 33.9482 249.676 38.3642 249.952 40.1237C250.228 41.9177 251.748 43.6772 251.748 43.6772C251.748 43.6772 253.923 44.7812 255.857 44.2292C257.791 43.6772 266.286 41.9177 268.462 42.7457C270.672 43.5392 268.462 45.7472 268.324 47.6792C268.185 49.5767 269.981 51.7847 271.777 51.9227C273.538 52.0607 275.058 55.8902 275.058 57.0977C275.058 58.3397 276.577 58.8917 277.509 58.0637C278.476 57.2357 277.786 53.4062 279.167 52.0607C280.548 50.6807 282.171 49.9907 284.796 50.6807C284.796 50.6807 284.865 40.5377 282.724 36.2942Z" fill="#263238" stroke="#263238" stroke-width="2" stroke-linecap="round" stroke-linejoin="round"/>
<path d="M262.453 78.4878C262.453 78.4878 265.596 76.9698 268.6 75.4863C271.639 73.9683 274.367 70.1388 274.643 69.7248C274.92 69.3108 273.124 74.7963 270.672 77.1078C268.186 79.4538 262.591 81.9033 262.591 81.9033L262.453 78.4878Z" fill="#263238" stroke="#263238" stroke-width="2" stroke-linecap="round" stroke-linejoin="round"/>
<path d="M259.69 67.9311C259.69 67.9311 263.524 67.9311 266.148 65.2056" stroke="#263238" stroke-width="2" stroke-linecap="round" stroke-linejoin="round"/>
<path d="M256.685 54.2344C256.685 54.2344 262.591 53.5444 264.352 53.5444C266.148 53.5444 266.838 53.6824 267.114 54.3724C267.391 55.0624 268.047 59.4439 266.838 61.5139C265.595 63.5494 260.519 63.4114 258.999 62.7214C257.514 62.0314 255.857 57.2359 256.685 54.2344Z" stroke="#263238" stroke-width="2" stroke-linecap="round" stroke-linejoin="round"/>
<path d="M267.115 54.3721L277.924 53.6821" stroke="#263238" stroke-width="2" stroke-linecap="round" stroke-linejoin="round"/>
<path d="M256.686 54.2342C256.686 54.2342 253.129 53.4062 252.438 54.6482C252.438 54.6482 248.191 54.2342 248.191 55.2002C248.191 56.1662 246.671 59.7197 251.195 61.0997" stroke="#263238" stroke-width="2" stroke-linecap="round" stroke-linejoin="round"/>
<path d="M259.275 53.4063C259.275 53.4063 261.624 51.9228 265.042 52.5783" stroke="#263238" stroke-width="2" stroke-linecap="round" stroke-linejoin="round"/>
<path d="M285.383 76.0039C285.383 76.0039 282.655 83.9734 280.721 96.5659" stroke="#263238" stroke-width="6" stroke-linecap="round" stroke-linejoin="round"/>
<path d="M278.856 124.89C278.2 124.994 277.302 124.821 276.197 124.097" stroke="#263238" stroke-width="6" stroke-linecap="round" stroke-linejoin="round"/>
<path d="M282.621 103.535C282.621 103.535 283.173 113.16 280.549 123.924C280.549 123.924 279.996 124.752 278.856 124.89" stroke="#263238" stroke-width="2" stroke-linecap="round" stroke-linejoin="round"/>
<path d="M280.548 124.89C281.204 124.994 282.102 124.821 283.207 124.097" stroke="#263238" stroke-width="6" stroke-linecap="round" stroke-linejoin="round"/>
<path d="M276.784 103.535C276.784 103.535 276.231 113.16 278.856 123.924C278.856 123.924 279.408 124.752 280.548 124.89" stroke="#263238" stroke-width="2" stroke-linecap="round" stroke-linejoin="round"/>
<path d="M276.784 105.398C276.784 105.398 276.612 99.2569 277.786 97.4629C278.925 95.6689 282.793 96.0484 283.035 99.2569C283.311 102.5 282.551 106.364 282.551 106.364" stroke="#263238" stroke-width="6" stroke-linecap="round" stroke-linejoin="round"/>
<path d="M258.447 81.2822C258.447 81.2822 251.403 96.8417 251.782 122.441" stroke="#263238" stroke-width="6" stroke-linecap="round" stroke-linejoin="round"/>
<path d="M257.066 119.991C257.066 119.991 246.948 118.197 246.015 118.197C245.118 118.197 241.492 118.197 240.905 118.335C240.283 118.508 231.511 122.268 230.89 123.165C230.303 124.097 232.409 131.342 232.72 131.79C233.031 132.239 239.972 131.963 240.732 131.963C241.492 131.963 241.492 129.686 241.492 129.686C241.492 129.686 243.322 129.375 244.531 128.616C245.739 127.857 247.259 126.512 247.259 126.512L255.409 128.03L257.066 119.991Z" fill="white" stroke="#263238" stroke-width="2" stroke-linecap="round" stroke-linejoin="round"/>
<path d="M241.492 129.686L237.935 129.513L237.417 126.926" stroke="#263238" stroke-width="2" stroke-linecap="round" stroke-linejoin="round"/>
<path d="M250.056 118.784L248.951 126.926L251.127 127.202L252.439 119.267L250.056 118.784Z" fill="#263238" stroke="#263238" stroke-width="2" stroke-linecap="round" stroke-linejoin="round"/>
<path d="M252.923 118.818C252.853 119.267 252.094 119.577 251.196 119.474C250.298 119.37 249.607 118.922 249.642 118.439C249.711 117.99 250.471 117.68 251.369 117.783C252.266 117.887 252.957 118.335 252.923 118.818Z" fill="white" stroke="#263238" stroke-width="2" stroke-linecap="round" stroke-linejoin="round"/>
<path d="M288.871 103.535L289.148 121.061L254.649 119.543L253.751 133.757C253.751 133.757 296.572 142.52 299.162 142.382C301.718 142.244 308.072 141.174 310.351 139.07C312.63 136.931 312.147 125.753 312.147 125.753C312.147 125.753 308.383 94.5991 306.414 90.2176C304.446 85.8361 289.148 80.6956 288.561 80.5576" fill="white"/>
<path d="M288.871 103.535L289.148 121.061L254.649 119.543L253.751 133.757C253.751 133.757 296.572 142.52 299.162 142.382C301.718 142.244 308.072 141.174 310.351 139.07C312.63 136.931 312.147 125.753 312.147 125.753C312.147 125.753 308.383 94.5991 306.414 90.2176C304.446 85.8361 289.148 80.6956 288.561 80.5576" stroke="#263238" stroke-width="2" stroke-linecap="round" stroke-linejoin="round"/>
<path d="M289.147 121.061L301.856 121.682" stroke="#263238" stroke-width="2" stroke-linecap="round" stroke-linejoin="round"/>
<path d="M185.686 234.531H100.147C95.6572 234.531 92.0312 230.909 92.0312 226.424V132.342C92.0312 127.857 95.6572 124.235 100.147 124.235H185.686C190.175 124.235 193.801 127.857 193.801 132.342V226.424C193.801 230.909 190.175 234.531 185.686 234.531Z" fill="#263238" stroke="#263238" stroke-width="2" stroke-linecap="round" stroke-linejoin="round"/>
<path d="M104.981 328.44H99.1106L97.1768 281.279H106.915L104.981 328.44Z" fill="#263238" stroke="#263238" stroke-width="2" stroke-linecap="round" stroke-linejoin="round"/>
<path d="M188.345 328.44H182.474L180.54 281.279H190.278L188.345 328.44Z" fill="#263238" stroke="#263238" stroke-width="2" stroke-linecap="round" stroke-linejoin="round"/>
<path d="M274.816 328.44H268.946L267.012 281.279H276.75L274.816 328.44Z" fill="#263238" stroke="#263238" stroke-width="2" stroke-linecap="round" stroke-linejoin="round"/>
<path d="M390.537 328.44H384.701L382.732 281.279H392.505L390.537 328.44Z" fill="#263238" stroke="#263238" stroke-width="2" stroke-linecap="round" stroke-linejoin="round"/>
<path d="M91.4102 283.487H405.353V267.997H91.4102V283.487Z" fill="white" stroke="#263238" stroke-width="2" stroke-linecap="round" stroke-linejoin="round"/>
<path d="M269.188 283.487H405.352V267.997H269.188V283.487Z" fill="white" stroke="#263238" stroke-width="2" stroke-linecap="round" stroke-linejoin="round"/>
<path d="M91.5136 244.053H405.491C407.425 244.053 408.979 242.466 408.979 240.534V220.524C408.979 218.558 407.425 217.005 405.491 217.005H91.5136C89.5797 217.005 87.9912 218.558 87.9912 220.524V240.534C87.9912 242.466 89.5797 244.053 91.5136 244.053Z" fill="white" stroke="#263238" stroke-width="2" stroke-linecap="round" stroke-linejoin="round"/>
<path d="M91.5136 271.274H405.491C407.425 271.274 408.979 269.721 408.979 267.789V247.745C408.979 245.813 407.425 244.26 405.491 244.26H91.5136C89.5797 244.26 87.9912 245.813 87.9912 247.745V267.789C87.9912 269.721 89.5797 271.274 91.5136 271.274Z" fill="white" stroke="#263238" stroke-width="2" stroke-linecap="round" stroke-linejoin="round"/>
<path d="M279.064 244.053H405.491C407.425 244.053 408.979 242.466 408.979 240.534V220.524C408.979 218.558 407.425 217.005 405.491 217.005H279.064C277.131 217.005 275.542 218.558 275.542 220.524V240.534C275.542 242.466 277.131 244.053 279.064 244.053Z" fill="white" stroke="#263238" stroke-width="2" stroke-linecap="round" stroke-linejoin="round"/>
<path d="M279.064 271.274H405.491C407.425 271.274 408.979 269.721 408.979 267.789V247.745C408.979 245.813 407.425 244.26 405.491 244.26H279.064C277.131 244.26 275.542 245.813 275.542 247.745V267.789C275.542 269.721 277.131 271.274 279.064 271.274Z" fill="white" stroke="#263238" stroke-width="2" stroke-linecap="round" stroke-linejoin="round"/>
<path d="M149.046 120.405C149.046 120.405 127.463 116.886 118.035 117.887C108.642 118.887 98.3168 118.37 99.2492 122.406C100.182 126.408 101.598 134.447 101.598 134.447C101.598 134.447 103.497 174.156 110.058 188.715C116.654 203.274 121.351 213.348 126.496 214.349C131.676 215.349 165.519 209.312 165.519 209.312C165.519 209.312 174.912 209.312 175.844 201.273C176.777 193.235 171.942 158.838 165.035 142.002C158.129 125.166 162.204 122.51 157.507 118.922C152.81 115.368 149.046 120.405 149.046 120.405Z" fill="white" stroke="#263238" stroke-width="2" stroke-linecap="round" stroke-linejoin="round"/>
<path d="M136.407 136.482C136.407 136.482 147.907 141.14 153.501 159.459" stroke="#263238" stroke-width="2" stroke-linecap="round" stroke-linejoin="round"/>
<path d="M140.137 124.684C140.137 124.684 146.664 128.41 153.501 151.076" stroke="#263238" stroke-width="2" stroke-linecap="round" stroke-linejoin="round"/>
<path d="M150.634 145.901C150.634 145.901 137.857 151.559 136.407 155.63C134.956 159.666 138.72 187.68 138.72 187.68C138.72 187.68 180.402 172.431 186.929 172.017C193.456 171.569 194.354 171.293 194.354 171.293C194.354 171.293 184.753 155.63 181.127 153.146C177.501 150.696 175.188 148.937 171.389 147.626C167.625 146.315 155.849 145.314 150.634 145.901Z" fill="white" stroke="#263238" stroke-width="2" stroke-linecap="round" stroke-linejoin="round"/>
<path d="M170.146 134.585L168.868 143.141L151.878 139.829L152.292 132.55C152.292 132.55 152.741 124.856 153.018 124.132C153.328 123.407 154.779 123.131 157.092 123.58C159.406 123.994 167.418 129.652 167.418 129.652L170.146 134.585Z" fill="white" stroke="#263238" stroke-width="2" stroke-linecap="round" stroke-linejoin="round"/>
<path d="M176.155 108.745C176.155 108.745 177.606 112.609 177.675 114.127C177.778 115.645 177.329 117.508 177.778 118.232C178.227 118.957 182.233 123.683 182.233 124.235C182.233 124.753 179.747 126.65 179.747 126.65C179.747 126.65 178.089 136.276 177.571 136.897C177.018 137.552 173.738 137.449 171.148 136.931C168.558 136.379 162.1 134.585 161.03 133.619C159.959 132.619 158.785 129.755 158.785 129.755C158.785 129.755 157.542 130.411 156.126 129.41C154.675 128.444 154.33 125.201 154.33 125.201C154.33 125.201 159.406 120.026 159.614 117.611C159.786 115.196 160.132 109.297 164.621 106.882C169.076 104.467 175.223 106.571 176.155 108.745Z" fill="white" stroke="#263238" stroke-width="2" stroke-linecap="round" stroke-linejoin="round"/>
<path d="M172.494 127.616C172.494 127.616 173.841 129.134 176.431 129.238" stroke="#263238" stroke-width="2" stroke-linecap="round" stroke-linejoin="round"/>
<path d="M172.046 116.162C172.046 116.162 173.22 114.92 175.361 115.196" stroke="#263238" stroke-width="2" stroke-linecap="round" stroke-linejoin="round"/>
<path d="M165.933 109.469C165.933 109.469 164.621 113.85 164.483 116.058C164.344 118.266 164.344 120.612 162.998 121.199C161.685 121.785 154.502 126.926 154.502 126.926C154.502 126.926 153.605 129.996 154.917 131.031C156.264 132.032 156.989 132.204 156.989 132.204C156.989 132.204 156.989 133.653 155.953 133.791C154.917 133.964 153.605 134.102 153.605 134.102L154.917 134.688C154.917 134.688 153.743 135.999 152.741 136.31C151.705 136.586 149.944 137.034 148.183 136.31C146.422 135.551 142.761 134.55 142.45 132.48C142.174 130.445 141.725 123.683 141.725 121.475C141.725 119.301 140.102 115.61 140.827 111.228C141.587 106.812 153.156 97.5664 156.54 96.7039C159.924 95.8069 170.215 98.1529 170.215 98.1529C170.215 98.1529 178.261 100.361 179.435 102.12C180.61 103.88 180.61 107.123 180.61 107.123L176.811 106.088C176.811 106.088 177.536 106.674 177.536 107.847C177.536 109.02 177.087 110.918 177.087 110.918L172.701 107.709C172.701 107.709 170.353 109.469 169.904 109.745C169.455 110.055 167.28 111.366 167.28 111.366L167.418 108.296L165.933 109.469Z" fill="#263238" stroke="#263238" stroke-width="2" stroke-linecap="round" stroke-linejoin="round"/>
<path d="M157.161 146.521L160.373 180.055L167.659 177.433C167.659 177.433 167.072 168.084 163.861 159.942C160.649 151.765 161.236 147.384 161.236 147.384L157.161 146.521Z" fill="#92E3A9" stroke="#263238" stroke-width="2" stroke-linecap="round" stroke-linejoin="round"/>
<path d="M159.371 145.659C159.371 145.659 166.071 156.458 168.143 161.978C170.18 167.532 174.531 188.508 174.531 188.508L190.313 185.024C190.313 185.024 180.091 164.324 175.705 157.907C171.354 151.49 167.555 146.246 167.555 146.246L159.371 145.659Z" fill="#92E3A9" stroke="#263238" stroke-width="2" stroke-linecap="round" stroke-linejoin="round"/>
<path d="M157.369 138.518C157.369 138.518 150.427 136.413 149.979 137.586C149.53 138.759 148.252 147.005 149.391 147.902C150.566 148.833 154.053 150.11 162.307 150.248C170.595 150.386 172.771 150.627 173.219 149.868C173.634 149.075 173.081 145.418 173.219 143.451C173.358 141.519 172.771 140.726 171.769 140.346C170.733 139.932 157.369 138.518 157.369 138.518Z" fill="#92E3A9" stroke="#263238" stroke-width="2" stroke-linecap="round" stroke-linejoin="round"/>
<path d="M224.675 179.262C224.675 179.262 206.062 175.295 199.397 173.604C192.732 171.948 164.484 180.918 156.852 182.574C149.185 184.265 136.235 188.232 126.566 200.204C116.931 212.141 117.277 279.761 116.931 281.417C116.586 283.073 132.886 291.387 144.523 290.732C156.161 290.076 164.829 287.075 174.775 288.42C184.755 289.731 205.371 299.702 218.01 297.045C230.649 294.389 239.973 292.733 247.294 292.733C254.581 292.733 255.583 295.389 265.563 292.733V216.798H360.011C360.011 216.798 349.03 198.203 342.365 195.546C335.734 192.89 313.115 197.202 305.138 195.201C297.161 193.235 274.887 189.233 270.225 186.921C265.563 184.575 255.583 179.607 246.949 177.606C238.316 175.605 224.675 179.262 224.675 179.262Z" fill="#92E3A9" stroke="#263238" stroke-width="2" stroke-linecap="round" stroke-linejoin="round"/>
<path d="M288.596 196.926C290.219 197.651 291.289 198.134 291.496 198.134" stroke="#263238" stroke-width="2" stroke-linecap="round" stroke-linejoin="round"/>
<path d="M240.56 200.825C247.432 195.305 258.275 187.404 263.904 187.853C269.291 188.267 278.27 192.165 284.521 195.029" stroke="#263238" stroke-width="2" stroke-linecap="round" stroke-linejoin="round"/>
<path d="M234.31 206.104C234.31 206.104 236.036 204.551 238.73 202.309" stroke="#263238" stroke-width="2" stroke-linecap="round" stroke-linejoin="round"/>
<path d="M197.808 173.432C189.14 173.087 163.965 181.022 156.851 182.574C149.185 184.265 136.235 188.232 126.565 200.204C116.931 212.141 117.276 279.761 116.931 281.417C116.908 281.532 116.954 281.67 117.069 281.831C122.18 275.31 136.235 273.723 136.235 272.136C136.235 270.135 137.202 210.174 137.892 205.172C138.548 200.204 172.46 178.917 172.46 178.917L197.808 173.432Z" fill="#92E3A9" stroke="#263238" stroke-width="2" stroke-linecap="round" stroke-linejoin="round"/>
<path d="M149.633 160.563L153.846 177.089C153.846 177.089 188.552 167.946 191.28 167.498C194.043 167.084 197.531 167.946 198.394 168.222C199.292 168.533 207.269 173.466 207.856 174.191C208.444 174.915 208.444 174.915 208.444 174.915C208.444 174.915 205.37 174.915 203.056 174.915C200.743 174.915 198.394 175.329 196.081 174.915C193.767 174.467 190.141 173.742 190.141 173.742C190.141 173.742 154.71 189.992 151.498 191.165C148.321 192.303 143.659 194.649 141.932 193.752C140.171 192.89 139.619 191.441 139.17 189.543C138.721 187.68 135.544 158.217 135.958 156.906C136.407 155.63 136.407 153.87 139.757 151.973C143.072 150.11 146.732 150.972 146.732 150.972" fill="white"/>
<path d="M149.633 160.563L153.846 177.089C153.846 177.089 188.552 167.946 191.28 167.498C194.043 167.084 197.531 167.946 198.394 168.222C199.292 168.533 207.269 173.466 207.856 174.191C208.444 174.915 208.444 174.915 208.444 174.915C208.444 174.915 205.37 174.915 203.056 174.915C200.743 174.915 198.394 175.329 196.081 174.915C193.767 174.467 190.141 173.742 190.141 173.742C190.141 173.742 154.71 189.992 151.498 191.165C148.321 192.303 143.659 194.649 141.932 193.752C140.171 192.89 139.619 191.441 139.17 189.543C138.721 187.68 135.544 158.217 135.958 156.906C136.407 155.63 136.407 153.87 139.757 151.973C143.072 150.11 146.732 150.972 146.732 150.972" stroke="#263238" stroke-width="2" stroke-linecap="round" stroke-linejoin="round"/>
<path d="M207.856 174.191C207.269 173.466 199.292 168.533 198.394 168.222C197.531 167.946 194.043 167.084 191.28 167.498C190.486 167.636 187.033 168.498 182.509 169.637L184.615 176.261C187.931 174.743 190.141 173.742 190.141 173.742C190.141 173.742 193.767 174.467 196.08 174.915C198.394 175.329 200.742 174.915 203.056 174.915C205.37 174.915 208.443 174.915 208.443 174.915C208.443 174.915 208.443 174.915 207.856 174.191Z" fill="white" stroke="#263238" stroke-width="2" stroke-linecap="round" stroke-linejoin="round"/>
<path d="M216.525 161.529C216.525 161.529 210.654 161.943 209.929 162.564C209.169 163.185 207.891 168.084 207.477 168.912C207.063 169.74 206.579 170.913 208.133 170.534C209.687 170.189 211.863 165.98 211.863 165.98L216.525 161.529Z" fill="white" stroke="#263238" stroke-width="2" stroke-linecap="round" stroke-linejoin="round"/>
<path d="M225.054 249.09C225.054 252.161 225.054 254.196 225.054 254.196" stroke="#263238" stroke-width="2" stroke-linecap="round" stroke-linejoin="round"/>
<path d="M228.99 213.245C228.99 213.245 225.054 214.349 225.054 216.039C225.054 217.143 225.054 233.289 225.054 244.226" stroke="#263238" stroke-width="2" stroke-linecap="round" stroke-linejoin="round"/>
<path d="M225.054 216.039C225.054 216.039 222.533 217.73 222.809 221.663C223.086 225.596 222.809 239.879 222.809 239.879" stroke="#263238" stroke-width="2" stroke-linecap="round" stroke-linejoin="round"/>
<path d="M178.744 251.954C178.744 253.368 178.744 254.196 178.744 254.196" stroke="#263238" stroke-width="2" stroke-linecap="round" stroke-linejoin="round"/>
<path d="M182.681 213.245C182.681 213.245 178.744 214.349 178.744 216.039C178.744 217.281 178.744 237.774 178.744 248.193" stroke="#263238" stroke-width="2" stroke-linecap="round" stroke-linejoin="round"/>
<path d="M178.744 216.039C178.744 216.039 176.223 217.73 176.5 221.663C176.776 225.596 176.5 239.879 176.5 239.879" stroke="#263238" stroke-width="2" stroke-linecap="round" stroke-linejoin="round"/>
<path d="M104.774 328.44H30.2168V219.869H104.774V328.44Z" fill="white" stroke="#263238" stroke-width="2" stroke-linecap="round" stroke-linejoin="round"/>
<path d="M104.774 328.44H56.9795V219.869H104.774V328.44Z" fill="white" stroke="#263238" stroke-width="2" stroke-linecap="round" stroke-linejoin="round"/>
<path d="M101.009 249.918H60.709V227.769H101.009V249.918Z" fill="white" stroke="#263238" stroke-width="2" stroke-linecap="round" stroke-linejoin="round"/>
<path d="M88.6468 240.948H73.0723V236.739H88.6468V240.948Z" fill="#263238" stroke="#263238" stroke-width="2" stroke-linecap="round" stroke-linejoin="round"/>
<path d="M101.009 280.244H60.709V258.095H101.009V280.244Z" fill="white" stroke="#263238" stroke-width="2" stroke-linecap="round" stroke-linejoin="round"/>
<path d="M88.6468 271.274H73.0723V267.065H88.6468V271.274Z" fill="#263238" stroke="#263238" stroke-width="2" stroke-linecap="round" stroke-linejoin="round"/>
<path d="M101.009 310.569H60.709V288.42H101.009V310.569Z" fill="white" stroke="#263238" stroke-width="2" stroke-linecap="round" stroke-linejoin="round"/>
<path d="M88.6468 301.599H73.0723V297.39H88.6468V301.599Z" fill="#263238" stroke="#263238" stroke-width="2" stroke-linecap="round" stroke-linejoin="round"/>
<path d="M107.157 223.008H27.2119V216.35H107.157V223.008Z" fill="white" stroke="#263238" stroke-width="2" stroke-linecap="round" stroke-linejoin="round"/>
<path d="M107.157 223.008H51.7998V216.35H107.157V223.008Z" fill="white" stroke="#263238" stroke-width="2" stroke-linecap="round" stroke-linejoin="round"/>
<path d="M72.7957 216.35C76.0073 216.35 79.0117 214.59 80.3931 211.692C81.7399 208.898 82.5341 205.62 82.5341 202.067C82.5341 197.858 81.3945 193.959 79.5297 190.854C76.3181 185.645 74.8332 179.538 74.8332 173.397V173.052H75.5239C76.3181 173.052 77.0088 172.5 77.0779 171.741C77.1815 170.844 76.4908 170.085 75.6275 170.085H61.2271C60.4328 170.085 59.7421 170.637 59.6731 171.431C59.5695 172.293 60.2601 173.052 61.1235 173.052H61.8832V173.397C61.8832 179.538 60.3983 185.645 57.2212 190.854C55.3219 193.959 54.2168 197.858 54.2168 202.067C54.2168 205.482 54.942 208.656 56.1852 211.382C57.6011 214.383 60.6055 216.35 63.9552 216.35H72.7957Z" fill="white" stroke="#263238" stroke-width="2" stroke-linecap="round" stroke-linejoin="round"/>
<path d="M87.4383 177.227H49.3135V133.032H87.4383V177.227Z" fill="white" stroke="#263238" stroke-width="2" stroke-linecap="round" stroke-linejoin="round"/>
<path d="M18.8203 328.44H494.793" stroke="#263238" stroke-width="2" stroke-linecap="round" stroke-linejoin="round"/>
</svg>
