<svg width="602" height="356" viewBox="0 0 602 356" fill="none" xmlns="http://www.w3.org/2000/svg">
<path d="M391.128 298.434C392.712 298.434 392.712 295.952 391.128 295.952C389.587 295.952 389.587 298.434 391.128 298.434Z" fill="#F4F8FC"/>
<path d="M57.9303 355.915C37.5147 353.347 17.8267 332.974 8.88147 315.897C-2.54613 294.111 -1.73292 268.132 6.22787 245.148C15.9435 217.114 43.5495 203.718 69.0583 192.162C90.1587 182.575 111.987 174.271 131.503 161.688C154.487 146.837 173.79 126.121 187.143 101.939C199.384 79.8118 206.789 54.731 222.496 35.0002C236.791 17.1098 258.191 4.82619 281.047 1.27379C305.528 -2.49261 328.726 3.92739 346.959 20.4054C350.896 23.9578 354.534 27.8526 357.958 31.9186C374.094 51.2214 386.506 74.205 406.237 89.6558C425.839 105.064 450.449 110.671 473.347 119.316C484.047 123.339 495.389 126.335 505.661 131.728C532.454 145.809 556.122 166.867 571.573 193.061C587.067 219.425 592.973 250.969 589.335 281.357C587.323 298.22 582.059 314.784 572.985 329.165C564.768 342.176 552.399 351.763 537.547 355.957C529.872 355.957 522.182 355.957 514.478 355.957C494.761 355.957 475.045 355.957 455.328 355.957C427.879 355.957 400.416 355.957 372.938 355.957C342.008 355.957 311.064 355.957 280.105 355.957C249.974 355.957 219.843 355.957 189.711 355.957C164.659 355.957 139.593 355.957 114.512 355.957C98.8185 355.957 83.1252 355.957 67.4319 355.957C64.4787 355.957 61.3115 356.3 58.4011 355.957C58.2584 355.929 58.1015 355.915 57.9303 355.915Z" fill="#DBEEFC"/>
<g style="mix-blend-mode:multiply" opacity="0.3">
<path d="M402.513 30.3779H337.157C335.103 30.3779 333.477 32.0471 333.477 34.1015V51.8635C333.477 53.9179 335.103 55.5871 337.157 55.5871H385.778L401.186 74.2051L396.906 55.5871H402.513C404.567 55.5871 406.237 53.9179 406.237 51.8635V34.1015C406.237 32.0471 404.567 30.3779 402.513 30.3779Z" fill="#2490BF"/>
<path d="M355.604 42.6186C355.604 44.5018 354.063 46.0426 352.18 46.0426C350.254 46.0426 348.713 44.5018 348.713 42.6186C348.713 40.6926 350.254 39.1519 352.18 39.1519C354.063 39.1519 355.604 40.6926 355.604 42.6186Z" fill="#2490BF"/>
<path d="M371.397 42.6186C371.397 44.5018 369.856 46.0426 367.973 46.0426C366.09 46.0426 364.549 44.5018 364.549 42.6186C364.549 40.6926 366.09 39.1519 367.973 39.1519C369.856 39.1519 371.397 40.6926 371.397 42.6186Z" fill="#2490BF"/>
<path d="M387.19 42.6186C387.19 44.5018 385.649 46.0426 383.766 46.0426C381.883 46.0426 380.342 44.5018 380.342 42.6186C380.342 40.6926 381.883 39.1519 383.766 39.1519C385.649 39.1519 387.19 40.6926 387.19 42.6186Z" fill="#2490BF"/>
</g>
<path d="M402.513 24.814H337.157C335.103 24.814 333.477 26.4832 333.477 28.5376V46.2996C333.477 48.354 335.103 50.0232 337.157 50.0232H385.778L401.186 68.6412L396.906 50.0232H402.513C404.567 50.0232 406.237 48.354 406.237 46.2996V28.5376C406.237 26.4832 404.567 24.814 402.513 24.814Z" fill="#64EBB6"/>
<path d="M355.604 37.0549C355.604 38.9381 354.063 40.4789 352.18 40.4789C350.254 40.4789 348.713 38.9381 348.713 37.0549C348.713 35.1289 350.254 33.6309 352.18 33.6309C354.063 33.6309 355.604 35.1289 355.604 37.0549Z" fill="white"/>
<path d="M371.397 37.0549C371.397 38.9381 369.856 40.4789 367.973 40.4789C366.09 40.4789 364.549 38.9381 364.549 37.0549C364.549 35.1289 366.09 33.6309 367.973 33.6309C369.856 33.6309 371.397 35.1289 371.397 37.0549Z" fill="white"/>
<path d="M387.19 37.0549C387.19 38.9381 385.649 40.4789 383.766 40.4789C381.883 40.4789 380.342 38.9381 380.342 37.0549C380.342 35.1289 381.883 33.6309 383.766 33.6309C385.649 33.6309 387.19 35.1289 387.19 37.0549Z" fill="white"/>
<g style="mix-blend-mode:multiply" opacity="0.3">
<path d="M546.021 30.3774H480.665C478.611 30.3774 476.941 32.0466 476.941 34.101V51.863C476.941 53.9174 478.611 55.5866 480.665 55.5866H529.243L525.733 74.2046L540.414 55.5866H546.021C548.075 55.5866 549.744 53.9174 549.744 51.863V34.101C549.744 32.0466 548.075 30.3774 546.021 30.3774Z" fill="#2490BF"/>
<path d="M500.952 43.5168C500.952 45.4 499.411 46.9408 497.528 46.9408C495.644 46.9408 494.104 45.4 494.104 43.5168C494.104 41.6336 495.644 40.0928 497.528 40.0928C499.411 40.0928 500.952 41.6336 500.952 43.5168Z" fill="#2490BF"/>
<path d="M516.787 43.5168C516.787 45.4 515.246 46.9408 513.32 46.9408C511.437 46.9408 509.896 45.4 509.896 43.5168C509.896 41.6336 511.437 40.0928 513.32 40.0928C515.246 40.0928 516.787 41.6336 516.787 43.5168Z" fill="#2490BF"/>
<path d="M532.582 43.5168C532.582 45.4 531.042 46.9408 529.158 46.9408C527.275 46.9408 525.734 45.4 525.734 43.5168C525.734 41.6336 527.275 40.0928 529.158 40.0928C531.042 40.0928 532.582 41.6336 532.582 43.5168Z" fill="#2490BF"/>
</g>
<path d="M546.021 24.8135H480.665C478.611 24.8135 476.941 26.4827 476.941 28.5371V46.2991C476.941 48.3535 478.611 50.0227 480.665 50.0227H529.243L525.733 68.6407L540.414 50.0227H546.021C548.075 50.0227 549.744 48.3535 549.744 46.2991V28.5371C549.744 26.4827 548.075 24.8135 546.021 24.8135Z" fill="#64EBB6"/>
<path d="M500.952 37.9533C500.952 39.8365 499.411 41.3773 497.528 41.3773C495.644 41.3773 494.104 39.8365 494.104 37.9533C494.104 36.0701 495.644 34.5293 497.528 34.5293C499.411 34.5293 500.952 36.0701 500.952 37.9533Z" fill="white"/>
<path d="M516.787 37.9533C516.787 39.8365 515.246 41.3773 513.32 41.3773C511.437 41.3773 509.896 39.8365 509.896 37.9533C509.896 36.0701 511.437 34.5293 513.32 34.5293C515.246 34.5293 516.787 36.0701 516.787 37.9533Z" fill="white"/>
<path d="M532.58 37.9533C532.58 39.8365 531.04 41.3773 529.156 41.3773C527.273 41.3773 525.732 39.8365 525.732 37.9533C525.732 36.0701 527.273 34.5293 529.156 34.5293C531.04 34.5293 532.58 36.0701 532.58 37.9533Z" fill="white"/>
<g style="mix-blend-mode:multiply" opacity="0.3">
<path d="M283.443 214.075H218.087C216.033 214.075 214.406 212.406 214.406 210.352V192.59C214.406 190.535 216.033 188.909 218.087 188.909H266.708L288.365 170.248L277.836 188.909H283.443C285.497 188.909 287.166 190.535 287.166 192.59V210.352C287.166 212.406 285.497 214.075 283.443 214.075Z" fill="#42A5F5"/>
<path d="M238.416 201.92C238.416 200.037 236.875 198.496 234.949 198.496C233.066 198.496 231.525 200.037 231.525 201.92C231.525 203.803 233.066 205.344 234.949 205.344C236.875 205.344 238.416 203.803 238.416 201.92Z" fill="#42A5F5"/>
<path d="M254.209 201.92C254.209 200.037 252.669 198.496 250.785 198.496C248.859 198.496 247.361 200.037 247.361 201.92C247.361 203.803 248.859 205.344 250.785 205.344C252.669 205.344 254.209 203.803 254.209 201.92Z" fill="#42A5F5"/>
<path d="M270.004 201.92C270.004 200.037 268.463 198.496 266.58 198.496C264.697 198.496 263.156 200.037 263.156 201.92C263.156 203.803 264.697 205.344 266.58 205.344C268.463 205.344 270.004 203.803 270.004 201.92Z" fill="#42A5F5"/>
</g>
<path d="M283.443 208.511H218.087C216.033 208.511 214.406 206.842 214.406 204.831V187.026C214.406 184.971 216.033 183.345 218.087 183.345H266.708L288.365 164.727L277.836 183.345H283.443C285.497 183.345 287.166 184.971 287.166 187.026V204.831C287.166 206.842 285.497 208.511 283.443 208.511Z" fill="#42A5F5"/>
<path d="M238.416 196.357C238.416 194.473 236.875 192.933 234.949 192.933C233.066 192.933 231.525 194.473 231.525 196.357C231.525 198.24 233.066 199.781 234.949 199.781C236.875 199.781 238.416 198.24 238.416 196.357Z" fill="white"/>
<path d="M254.209 196.357C254.209 194.473 252.669 192.933 250.785 192.933C248.859 192.933 247.361 194.473 247.361 196.357C247.361 198.24 248.859 199.781 250.785 199.781C252.669 199.781 254.209 198.24 254.209 196.357Z" fill="white"/>
<path d="M270.002 196.357C270.002 194.473 268.461 192.933 266.578 192.933C264.695 192.933 263.154 194.473 263.154 196.357C263.154 198.24 264.695 199.781 266.578 199.781C268.461 199.781 270.002 198.24 270.002 196.357Z" fill="white"/>
<path d="M429.006 251.354C428.62 261.669 428.107 274.424 427.465 284.696C429.648 284.696 430.76 284.696 432.943 284.696C433.542 274.424 434.056 261.669 434.484 251.397C432.301 251.354 431.188 251.354 429.006 251.354Z" fill="#808080"/>
<path d="M420.704 251.354C406.294 251.326 391.899 251.297 377.519 251.269C377.048 261.583 376.491 274.423 375.807 284.695C390.245 284.695 404.682 284.695 419.12 284.695C422.459 284.695 424.128 284.695 427.466 284.695C428.108 274.423 428.622 261.669 429.007 251.354C425.711 251.354 424.042 251.354 420.704 251.354Z" fill="#B0B0B0"/>
<path d="M515.848 242.066C520.556 246.732 521.112 247.502 525.82 252.167C531.298 202.348 535.621 152.4 541.87 102.667C543.026 94.4064 540.286 85.932 534.038 80.582C526.462 134.424 521.668 188.053 515.848 242.066Z" fill="#B0B0B0"/>
<path d="M515.848 242.066C520.556 246.732 525.82 252.167 525.82 252.167L307.112 251.782C307.112 251.782 302.918 246.86 298.852 242.066C371.184 242.366 443.516 241.81 515.848 242.066Z" fill="#969696"/>
<path d="M298.852 242.067C371.184 242.366 443.516 241.81 515.848 242.067C516.875 232.779 517.346 227.729 518.287 218.527C446.084 218.013 373.837 219.083 301.634 218.527C300.735 226.487 299.836 234.106 298.852 242.067Z" fill="#E3E3E3"/>
<path d="M318.753 80.5821C311.263 125.907 306.726 172.902 301.633 218.527C373.836 219.083 446.083 218.013 518.286 218.527C523.037 172.174 527.574 126.763 534.037 80.5821C462.304 80.6677 390.528 80.3681 318.753 80.5821Z" fill="#1A1A1A"/>
<path d="M524.322 88.7143C458.239 88.5431 392.113 88.6715 325.987 88.5859C325.43 92.1383 325.131 93.9359 324.617 97.5311C390.743 97.8735 456.869 98.0019 522.995 98.4727C523.552 94.5779 523.808 92.6091 524.322 88.7143Z" fill="#C9C9C9"/>
<path d="M327.484 95.2629C327.784 93.5081 327.912 92.6093 328.169 90.8545C384.708 90.9829 441.204 90.9401 497.743 91.0685C497.486 92.9945 497.358 93.9361 497.101 95.8621C440.562 95.6053 384.023 95.5197 327.484 95.2629Z" fill="white"/>
<path d="M324.617 97.5312C319.138 134.724 315.201 172.902 311.092 210.266C377.603 210.823 444.114 209.71 510.583 210.266C514.392 172.688 518.158 135.923 522.995 98.4728C456.869 98.002 390.743 97.8737 324.617 97.5312Z" fill="#373B4A"/>
<path d="M414.967 103.394C389.401 103.223 363.821 103.052 338.226 102.881C335.487 116.876 333.047 130.958 330.693 144.996C357.03 145.367 383.366 145.738 409.702 146.109C411.329 131.856 413.041 117.604 414.967 103.394Z" fill="#FFDF87"/>
<path d="M330.694 144.996C330.181 147.949 329.967 149.404 329.453 152.4C355.932 152.771 382.411 153.142 408.89 153.513C409.232 150.56 409.404 149.062 409.703 146.109C383.367 145.738 357.031 145.367 330.694 144.996Z" fill="#7FB8FA"/>
<path d="M505.361 116.363C504.034 123.896 495.817 129.118 488.198 129.203C481.051 129.332 473.732 123.168 474.802 116.064C475.915 108.402 484.304 103.095 492.008 103.181C498.599 103.224 506.645 109.087 505.361 116.363Z" fill="white"/>
<path d="M498.129 114.052C496.074 114.009 495.047 114.009 493.035 113.966C493.292 112.254 493.421 111.356 493.677 109.601C493.72 109.087 493.292 108.659 492.693 108.659C491.495 108.659 490.895 108.659 489.654 108.659C489.055 108.616 488.499 109.044 488.413 109.558C488.156 111.313 488.028 112.169 487.771 113.924C485.717 113.924 484.689 113.881 482.678 113.881C482.036 113.881 481.479 114.309 481.394 114.822C481.223 115.85 481.137 116.363 480.966 117.433C480.923 117.947 481.351 118.375 481.95 118.375C484.005 118.418 485.032 118.418 487.086 118.46C486.829 120.172 486.701 121.071 486.444 122.783C486.359 123.297 486.787 123.725 487.386 123.725C488.67 123.768 489.269 123.768 490.51 123.768C491.152 123.81 491.709 123.382 491.751 122.869C492.008 121.114 492.137 120.258 492.393 118.503C494.448 118.503 495.475 118.546 497.529 118.546C498.129 118.546 498.685 118.161 498.728 117.647C498.899 116.577 498.942 116.064 499.113 114.994C499.156 114.48 498.728 114.052 498.129 114.052Z" fill="#F45B5B"/>
<path d="M410.56 231.153C410.004 234.577 406.323 237.016 402.899 237.102C399.732 237.187 396.479 234.363 396.907 231.067C397.421 227.515 401.102 225.075 404.526 225.118C407.479 225.118 411.074 227.771 410.56 231.153Z" fill="#808080"/>
<path d="M511.396 141.615C485.745 141.244 460.094 140.887 434.442 140.545C432.088 155.011 429.862 169.478 427.68 183.987C454.073 184.272 480.466 184.572 506.86 184.886C508.315 170.462 509.813 156.039 511.396 141.615Z" fill="#FFDF87"/>
<path d="M427.679 183.987C427.251 186.983 426.994 188.481 426.566 191.477C453.074 191.762 479.581 192.062 506.089 192.376C506.431 189.38 506.56 187.882 506.859 184.886C480.466 184.572 454.073 184.272 427.679 183.987Z" fill="#7FB8FA"/>
<path d="M454.558 181.205C454.986 179.75 455.5 178.337 456.056 177.011C456.441 176.026 456.912 175.127 457.426 174.271C456.227 173.587 454.473 172.388 452.718 170.548C452.033 171.746 451.477 173.03 451.006 174.314C450.749 175.085 450.535 175.855 450.278 176.668C450.107 177.481 449.893 178.295 449.722 179.065C449.379 180.691 449.165 182.361 448.994 184.03C448.994 184.087 448.994 184.144 448.994 184.201C450.877 184.244 451.819 184.244 453.702 184.287C453.788 183.944 453.831 183.773 453.916 183.431C454.173 182.532 454.301 182.104 454.558 181.205Z" fill="#FFBD81"/>
<path d="M452.418 169.564C452.974 168.708 453.659 167.809 454.429 167.038C454.815 166.653 455.243 166.268 455.713 165.926C455.97 165.754 456.27 165.583 456.527 165.412C456.869 165.241 457.04 165.112 457.725 164.856C458.667 164.556 460.165 164.898 461.149 165.754C461.748 166.311 462.005 167.038 462.005 167.68C462.005 168.365 461.748 168.922 461.491 169.435C460.849 170.634 459.951 171.618 459.223 172.774C458.966 173.087 458.724 173.43 458.495 173.801C458.239 174.229 457.982 174.671 457.725 175.128C456.27 174.272 454.087 172.774 451.861 170.505C452.061 170.191 452.247 169.877 452.418 169.564Z" fill="#D8E6EA"/>
<path d="M461.79 164.299C461.533 164.427 461.319 164.556 461.062 164.684C461.405 172.559 461.576 176.497 461.919 184.415C465.771 184.458 467.654 184.458 471.506 184.501C471.377 176.454 471.292 172.431 471.206 164.427C468.039 162.929 464.358 163.058 461.79 164.299Z" fill="#00E3CC"/>
<path d="M454.9 172.431C453.616 175.769 454.215 180.563 453.787 184.286C457.04 184.329 458.666 184.372 461.919 184.415C461.577 176.497 461.406 172.559 461.063 164.684C458.153 166.396 456.141 169.306 454.9 172.431Z" fill="#D0E1E3"/>
<path d="M471.592 164.598C471.464 164.556 471.335 164.47 471.207 164.427C471.293 172.431 471.378 176.454 471.507 184.5C475.744 184.543 477.841 184.586 482.078 184.629C480.537 178.508 478.483 168.194 471.592 164.598Z" fill="#D0E1E3"/>
<path d="M483.534 183.858C483.406 183.045 483.277 182.232 483.192 181.418C483.021 180.562 482.849 179.749 482.678 178.936C482.336 177.566 481.951 176.154 481.437 174.742C479.682 175.598 477.97 175.897 476.857 175.983C477.243 177.01 477.585 178.037 477.885 179.064C478.313 180.562 478.655 182.061 478.955 183.601C479.04 183.987 479.083 184.2 479.169 184.586C480.923 184.586 481.822 184.586 483.577 184.628C483.577 184.372 483.534 184.115 483.534 183.858Z" fill="#FFBD81"/>
<path d="M481.737 173.972C481.309 172.944 480.752 171.831 480.11 170.804C479.768 170.248 479.425 169.692 478.997 169.178C478.826 168.878 478.569 168.622 478.313 168.322C478.013 168.022 477.885 167.808 477.285 167.295C476.429 166.567 475.06 166.225 474.118 166.567C473.519 166.738 473.219 167.295 473.177 167.894C473.134 168.493 473.305 169.135 473.519 169.734C473.99 171.104 474.76 172.431 475.317 173.758C475.545 174.186 475.744 174.614 475.916 175.042C476.115 175.555 476.329 176.083 476.558 176.625C477.927 176.497 479.982 176.154 482.165 175.084C482.022 174.713 481.879 174.342 481.737 173.972Z" fill="#D8E6EA"/>
<path d="M463.034 157.237C462.905 159.078 462.82 160.019 462.691 161.903C464.147 162.887 465.816 163.529 467.442 163.529C468.469 163.572 469.454 163.358 470.31 162.93C470.395 161.646 470.438 160.961 470.567 159.677C467.528 158.693 466.03 158.222 463.034 157.237Z" fill="#F78B4F"/>
<path d="M462.691 161.902C462.648 162.801 462.605 163.272 462.562 164.214C462.434 165.712 463.632 167.252 465.216 167.723C465.558 167.809 465.958 167.88 466.414 167.937C469.967 168.408 470.009 166.653 470.009 166.653C470.138 165.155 470.181 164.428 470.309 162.93C469.453 163.358 468.469 163.572 467.441 163.529C465.815 163.529 464.146 162.887 462.691 161.902Z" fill="#F79E6C"/>
<path d="M472.405 155.696C472.534 155.439 472.619 155.054 472.619 154.583C472.619 154.327 472.576 153.984 472.534 153.727C472.505 153.699 472.491 153.67 472.491 153.642C472.434 153.442 472.348 153.271 472.234 153.128C472.106 152.957 471.977 152.829 471.806 152.7C471.72 152.643 471.621 152.615 471.506 152.615C471.478 152.586 471.449 152.572 471.421 152.572C471.364 152.572 471.321 152.572 471.292 152.572C471.078 152.572 470.95 152.657 470.779 152.743C470.479 153 470.394 153.471 470.051 153.77C469.623 154.113 469.024 154.113 468.553 153.556C468.296 153.257 468.168 152.914 468.04 152.572C467.312 150.774 467.055 148.977 466.627 147.136C465.514 148.249 463.888 148.805 462.176 148.934C461.448 149.019 460.721 148.977 459.993 148.934C459.694 150.945 459.908 153.171 460.336 155.354C460.678 157.237 461.448 159.634 463.417 160.875C463.588 160.989 463.774 161.089 463.974 161.175C467.954 163.143 470.736 161.26 471.549 157.965C471.549 157.993 471.549 158.007 471.549 158.007C471.321 157.522 471.093 157.052 470.864 156.595C471.549 156.595 472.148 156.253 472.405 155.696Z" fill="#F79E6C"/>
<path d="M473.989 147.136C473.647 146.623 473.176 146.195 472.663 145.938C471.978 145.553 471.207 145.381 470.608 145.595C470.18 144.782 469.196 144.269 468.297 143.926C465.986 143.156 463.589 143.156 461.449 143.712C459.309 144.226 457.426 145.253 455.671 146.366C455.457 146.494 455.2 146.665 455.157 146.965C455.072 147.35 455.371 147.735 455.714 147.992C456.056 148.206 456.441 148.335 456.869 148.42C457.897 148.634 458.967 148.805 459.994 148.934C460.721 148.977 461.449 149.019 462.177 148.934C463.889 148.805 465.515 148.249 466.628 147.136C467.056 148.977 467.313 150.774 468.04 152.572C468.169 152.914 468.297 153.257 468.554 153.556C469.025 154.113 469.624 154.113 470.052 153.77C470.394 153.471 470.48 153 470.779 152.743C470.808 152.714 470.836 152.7 470.865 152.7C470.951 152.615 471.079 152.572 471.293 152.572C471.322 152.572 471.364 152.572 471.421 152.572C471.45 152.572 471.478 152.586 471.507 152.615C471.621 152.615 471.721 152.643 471.807 152.7C471.978 152.829 472.106 152.957 472.235 153.128C472.349 153.271 472.434 153.442 472.491 153.642C472.491 153.67 472.506 153.699 472.534 153.727C472.577 153.984 472.62 154.327 472.62 154.583C472.62 155.054 472.534 155.439 472.406 155.696C472.149 156.253 471.55 156.595 470.865 156.595C471.093 157.051 471.322 157.522 471.55 158.007C473.818 158.863 475.102 154.327 475.145 152.871C475.273 150.988 475.359 148.977 473.989 147.136Z" fill="#9B5B30"/>
<path d="M462.219 164.128C462.219 164.128 461.791 174.143 461.663 178.124C460.55 176.198 459.993 175.213 458.881 173.287C459.608 172.945 459.951 172.816 460.678 172.474C459.351 170.719 458.667 169.82 457.34 168.066C457.34 168.066 459.009 164 462.561 164.214" fill="#E6F1F2"/>
<path d="M471.207 164.428C471.207 164.428 471.464 174.614 471.421 178.595C472.619 177.182 473.219 176.497 474.374 175.128C473.689 174.443 473.347 174.143 472.619 173.459C474.032 172.346 474.759 171.789 476.172 170.677C476.172 170.677 474.717 165.883 471.207 164.428Z" fill="#E6F1F2"/>
<path d="M466.457 157.751C466.485 157.722 466.471 157.636 466.414 157.494C466.285 157.109 465.9 156.723 465.515 156.509C464.959 156.253 464.317 156.253 463.974 156.638C463.675 156.167 462.99 155.996 462.519 156.21C462.319 156.295 462.162 156.409 462.048 156.552C461.963 156.681 461.749 156.937 461.834 157.109C461.92 157.365 462.562 157.365 462.733 157.408C463.133 157.465 463.532 157.508 463.931 157.537C464.588 157.622 465.23 157.708 465.857 157.793C466.071 157.836 466.371 157.922 466.457 157.751Z" fill="#9B5B30"/>
<path d="M348.885 120.3C349.27 119.658 349.355 118.802 349.398 117.989C349.441 117.347 349.184 116.705 348.927 116.02C348.614 115.307 348.285 114.594 347.943 113.88C347.815 113.623 347.686 113.409 347.472 113.195C347.215 112.896 346.83 113.024 346.702 113.324C346.659 113.495 346.702 113.666 346.702 113.795C346.787 114.18 346.873 114.565 347.044 114.95C347.044 114.993 347.301 115.806 347.215 115.806C345.332 115.464 343.577 114.608 341.694 114.437C341.48 114.437 341.266 114.394 341.052 114.437C340.453 114.565 340.025 115.036 340.325 115.678C340.539 116.191 341.052 116.577 341.523 116.876C342.507 117.475 343.62 117.989 344.69 118.289C344.89 118.374 345.09 118.431 345.289 118.46C345.346 118.488 345.404 118.517 345.461 118.545C345.503 118.588 345.546 118.631 345.546 118.717C345.717 119.088 345.846 119.487 345.931 119.915C345.931 119.915 348.371 121.071 348.885 120.3Z" fill="#F79E6C"/>
<path d="M366.518 126.549C366.461 126.492 366.389 126.449 366.304 126.421C365.747 126.121 365.148 126.035 364.549 125.993C361.681 125.779 359.028 126.934 356.674 128.047C354.191 129.203 351.88 130.615 349.483 131.856C349.483 130.544 349.498 129.231 349.526 127.919C349.526 126.806 349.483 124.366 349.526 123.253C349.526 122.569 349.483 121.841 349.44 121.156C349.383 120.7 349.355 120.229 349.355 119.744C347.985 119.43 346.616 119.116 345.246 118.802C345.16 119.287 345.089 119.787 345.032 120.3C344.732 122.312 344.604 124.409 344.561 126.506C344.561 128.903 344.304 131.599 345.246 134.125C345.631 135.152 346.273 136.222 347.258 136.821C348.798 137.72 351.024 136.992 352.394 136.564C354.148 136.051 355.732 135.323 357.316 134.595C357.687 134.396 358.072 134.196 358.471 133.996C357.23 137.249 357.744 141.786 357.273 145.381C360.526 145.424 362.152 145.467 365.405 145.509C365.191 139.475 365.105 136.479 364.934 130.529C366.175 129.802 368.7 127.876 366.518 126.549Z" fill="#00C5AB"/>
<path d="M365.534 125.779C365.278 125.907 365.064 126.036 364.85 126.164C365.021 133.825 365.149 137.72 365.406 145.51C369.215 145.553 371.141 145.595 374.95 145.638C374.908 137.677 374.908 133.74 374.95 125.865C371.826 124.409 368.145 124.538 365.534 125.779Z" fill="#FFF7E0"/>
<path d="M375.335 126.035C375.207 125.993 375.078 125.95 374.95 125.864C374.907 133.739 374.907 137.677 374.95 145.638C379.187 145.681 381.284 145.723 385.522 145.766C384.024 139.689 382.14 129.588 375.335 126.035Z" fill="#00C5AB"/>
<path d="M367.503 119.701C367.331 121.242 367.289 122.012 367.16 123.51C368.316 124.366 369.728 124.837 371.055 124.88C371.954 124.88 372.767 124.709 373.495 124.366C373.58 123.296 373.666 122.783 373.751 121.713C371.226 120.9 369.985 120.514 367.503 119.701Z" fill="#F78B4F"/>
<path d="M375.977 117.86C376.277 117.261 376.363 115.678 375.507 115.207C374.608 114.693 374.137 115.635 373.623 116.02C373.538 116.106 373.452 116.148 373.367 116.148C373.153 116.191 372.896 115.977 372.81 115.763C372.725 115.506 372.725 115.292 372.767 115.078C372.81 113.752 373.067 112.425 372.382 111.141C370.328 107.374 365.106 110.413 365.106 110.413C364.379 112.553 364.464 115.121 364.892 117.561C365.235 119.273 365.877 121.413 367.631 122.483C367.803 122.597 367.988 122.697 368.188 122.782C371.74 124.494 374.351 122.825 375.121 119.915C375.15 119.915 375.164 119.915 375.164 119.915C374.964 119.487 374.765 119.073 374.565 118.674C375.164 118.631 375.721 118.331 375.977 117.86Z" fill="#F79E6C"/>
<path d="M376.406 109.044C375.25 107.717 373.709 107.075 372.083 106.733C371.826 106.647 368.873 106.733 368.873 106.733C368.873 106.733 368.188 105.149 367.375 104.892C366.776 104.678 366.176 105.021 365.877 105.492C365.62 105.877 365.534 106.476 365.877 106.904C364.935 106.562 363.994 106.134 363.009 106.176C362.795 106.176 362.581 106.176 362.41 106.305C362.153 106.519 362.153 106.904 362.282 107.204C362.41 107.546 362.667 107.846 362.924 108.102C363.095 108.274 365.106 110.328 365.106 110.414C365.106 110.414 370.328 107.375 372.382 111.141C373.067 112.425 372.81 113.752 372.768 115.079C372.725 115.293 372.725 115.507 372.81 115.764C372.896 115.978 373.153 116.192 373.367 116.149C373.452 116.149 373.538 116.106 373.624 116.02C374.137 115.635 374.608 114.694 375.507 115.207C376.363 115.678 376.277 117.262 375.978 117.861C375.721 118.332 375.164 118.631 374.565 118.674C374.765 119.073 374.965 119.487 375.164 119.915C377.219 120.686 378.46 116.62 378.546 115.336C378.717 113.238 378.032 110.842 376.406 109.044Z" fill="#6D5952"/>
<path d="M366.518 125.394C366.518 125.394 365.405 135.409 365.191 139.304C364.121 137.42 363.565 136.436 362.495 134.553C363.222 134.253 363.565 134.082 364.292 133.782C362.837 132.07 362.109 131.172 360.654 129.46C360.654 129.46 362.965 125.18 366.518 125.394Z" fill="#00DEC1"/>
<path d="M373.752 125.394C373.752 125.394 374.608 136.051 374.95 140.202C376.277 138.362 376.919 137.463 378.246 135.666C377.476 135.109 377.09 134.81 376.363 134.253C377.561 132.926 378.16 132.284 379.359 130.958C379.359 130.958 377.347 126.378 373.752 125.394Z" fill="#00DEC1"/>
<path d="M371.054 124.88C369.728 124.837 368.315 124.366 367.16 123.51L367.117 123.639C367.117 123.724 367.117 123.81 367.117 123.895C367.088 124.238 367.06 124.58 367.031 124.923C366.988 125.265 366.946 125.607 366.988 125.993C367.046 126.249 367.103 126.506 367.16 126.763C367.245 127.134 367.374 127.505 367.545 127.876C367.716 128.275 367.944 128.675 368.23 129.074C368.529 129.459 368.872 129.802 369.3 130.101C369.3 130.101 372.21 129.716 373.023 127.705C373.152 127.448 373.194 127.191 373.237 126.849C373.237 126.82 373.252 126.777 373.28 126.72C373.309 126.178 373.351 125.622 373.408 125.051C373.437 124.88 373.451 124.709 373.451 124.537C373.451 124.537 373.451 124.366 373.494 124.366C372.766 124.709 371.953 124.88 371.054 124.88Z" fill="#F79E6C"/>
<path d="M458.197 121.499C432.602 121.214 407.008 120.928 381.413 120.643C378.888 134.938 376.577 149.276 374.309 163.614C400.673 163.985 427.024 164.342 453.36 164.684C454.858 150.261 456.442 135.88 458.197 121.499Z" fill="#FFF7E0"/>
<path d="M374.308 163.614C373.837 166.61 373.623 168.108 373.152 171.104C399.631 171.447 426.11 171.789 452.589 172.131C452.889 169.135 453.017 167.68 453.36 164.684C427.023 164.342 400.673 163.985 374.308 163.614Z" fill="#7FB8FA"/>
<path d="M403.712 161.132C404.14 159.762 404.61 158.435 405.167 157.151C405.552 156.253 405.98 155.397 406.451 154.583C405.338 153.941 403.669 152.786 402 151.074C401.358 152.187 400.844 153.385 400.416 154.583C400.116 155.311 399.902 156.081 399.688 156.809C399.517 157.579 399.303 158.35 399.132 159.12C398.832 160.618 398.575 162.202 398.404 163.785C398.404 163.842 398.404 163.899 398.404 163.957C400.202 163.957 401.101 163.999 402.856 163.999C402.941 163.7 402.984 163.529 403.07 163.229C403.326 162.373 403.455 161.988 403.712 161.132Z" fill="#FFBD81"/>
<path d="M401.785 150.132C402.299 149.319 402.941 148.506 403.668 147.778C404.053 147.393 404.439 147.051 404.909 146.708C405.123 146.537 405.423 146.366 405.68 146.237C405.979 146.023 406.151 145.938 406.793 145.724C407.691 145.381 409.104 145.767 410.045 146.537C410.602 147.051 410.859 147.778 410.859 148.377C410.816 148.977 410.602 149.533 410.345 150.004C409.746 151.159 408.89 152.101 408.162 153.171C407.934 153.456 407.706 153.77 407.477 154.113C407.221 154.512 406.964 154.926 406.707 155.354C405.337 154.583 403.326 153.171 401.229 151.031C401.4 150.717 401.585 150.418 401.785 150.132Z" fill="#0090C9"/>
<path d="M424.641 133.483C425.326 137.035 425.197 140.716 424.384 143.969C424.384 144.055 424.341 144.14 424.299 144.183C424.242 144.211 424.184 144.24 424.127 144.269C421.602 144.825 419.163 145.21 416.423 144.911C415.525 144.825 414.583 144.697 413.684 144.525C412.828 144.354 411.972 143.969 411.116 143.798C410.303 143.627 409.575 143.455 408.762 143.113C408.548 143.027 406.408 142.214 406.408 142.043C406.665 138.705 407.093 135.452 407.221 132.113C407.307 130.187 407.478 128.475 408.591 126.977C409.105 126.25 409.832 125.608 410.688 125.223C411.887 124.709 413.898 124.452 415.097 125.736C415.011 125.651 417.194 125.394 417.365 125.437C418.349 125.479 419.334 125.651 420.318 126.121C423.057 127.491 423.999 130.401 424.555 132.969C424.584 133.141 424.612 133.312 424.641 133.483Z" fill="#FFDF87"/>
<path d="M419.504 145.596C419.376 145.553 419.248 145.51 419.162 145.467C416.209 144.055 412.742 144.183 410.345 145.339C410.088 145.467 409.874 145.596 409.66 145.724C406.921 147.308 405.038 150.004 403.84 152.914C402.598 156.039 403.155 160.533 402.77 164C405.808 164.042 407.306 164.085 410.345 164.128C413.94 164.171 415.738 164.171 419.333 164.214C423.271 164.299 425.282 164.299 429.22 164.342C427.765 158.607 425.924 148.977 419.504 145.596Z" fill="#0079A9"/>
<path d="M411.585 138.747C411.499 140.459 411.457 141.358 411.371 143.07C412.612 144.011 414.025 144.611 415.351 144.611C416.207 144.653 417.064 144.439 417.748 144.011C417.834 142.813 417.877 142.214 417.919 141.015C415.394 140.117 414.11 139.646 411.585 138.747Z" fill="#FFAB5E"/>
<path d="M411.372 143.07C411.329 144.011 411.115 144.996 411.415 145.98C411.885 147.478 412.57 148.976 413.469 150.389C413.512 150.474 415.652 149.319 415.866 149.19C416.465 148.848 416.936 148.291 417.235 147.649C417.535 146.965 417.621 146.408 417.663 145.638C417.692 145.124 417.721 144.611 417.749 144.097C417.749 144.068 417.749 144.04 417.749 144.011C417.064 144.439 416.208 144.653 415.352 144.611C414.025 144.611 412.613 144.011 411.372 143.07Z" fill="#FFBD81"/>
<path d="M409.746 135.28C409.832 137.206 410.303 139.175 411.287 140.887C412.357 142.813 415.482 143.626 417.151 142.899C418.007 142.556 418.606 141.829 419.034 141.058C419.291 140.673 419.505 140.245 419.59 139.774C419.719 139.432 419.933 139.004 419.804 138.619C420.318 139.218 420.917 139.047 421.302 138.619C421.645 138.234 421.688 137.549 421.73 136.992C421.73 136.778 421.688 136.564 421.645 136.35C421.388 135.623 420.874 135.152 420.19 135.409C419.205 135.794 419.505 136.693 419.077 137.463C418.991 137.592 418.82 137.763 418.606 137.677C418.392 137.592 418.349 137.335 418.306 137.121C418.249 136.864 418.207 136.593 418.178 136.308C418.135 136.179 418.135 136.008 418.05 135.88C417.878 135.366 417.365 134.938 417.022 134.51C416.594 133.996 416.252 133.397 415.91 132.841C415.696 132.456 413.984 129.545 414.24 129.374C413.342 130.059 412.357 130.744 411.159 130.958C410.988 131 410.217 131.043 410.174 131.214C409.832 132.413 409.661 133.825 409.746 135.28Z" fill="#FFBD81"/>
<path d="M430.034 163.614C429.948 162.758 429.82 161.945 429.734 161.089C429.563 160.233 429.392 159.419 429.221 158.563C428.878 157.194 428.493 155.739 427.98 154.326C426.182 155.182 424.427 155.482 423.314 155.567C423.7 156.595 424.042 157.622 424.342 158.692C424.727 160.233 425.112 161.773 425.412 163.314C425.497 163.699 425.497 163.913 425.583 164.299C427.38 164.341 428.279 164.341 430.12 164.384C430.077 164.127 430.077 163.871 430.034 163.614Z" fill="#FFBD81"/>
<path d="M428.279 153.513C427.851 152.486 427.295 151.33 426.653 150.26C426.31 149.747 425.968 149.19 425.54 148.634C425.326 148.334 425.069 148.078 424.855 147.778C424.555 147.436 424.427 147.264 423.785 146.751C422.929 145.98 421.559 145.638 420.575 145.98C419.976 146.194 419.633 146.751 419.591 147.35C419.548 147.949 419.719 148.591 419.933 149.19C420.404 150.603 421.174 151.93 421.731 153.299C421.959 153.727 422.159 154.155 422.33 154.583C422.558 155.125 422.772 155.667 422.972 156.21C424.384 156.081 426.524 155.739 428.75 154.669C428.607 154.298 428.45 153.913 428.279 153.513Z" fill="#0090C9"/>
<path d="M337.842 193.917C340.196 196.998 339.382 201.278 336.044 203.461C332.748 205.687 328.169 204.916 325.815 201.835C323.504 198.71 324.317 194.43 327.612 192.247C330.951 190.065 335.53 190.835 337.842 193.917Z" fill="#89C33F"/>
<path d="M334.203 196.955C334.245 196.399 334.288 196.142 334.374 195.629C332.833 195.586 329.923 195.543 328.382 195.543C328.082 197.383 327.954 198.282 327.654 200.123C329.281 200.123 332.191 200.165 333.775 200.165C333.86 199.609 333.903 199.352 333.946 198.839C334.588 199.352 334.888 199.652 335.53 200.165C335.701 198.368 335.786 197.426 336 195.629C335.273 196.142 334.93 196.442 334.203 196.955Z" fill="white"/>
<path d="M386.035 194.43C388.389 197.512 387.619 201.749 384.28 203.932C380.985 206.115 376.405 205.387 374.094 202.305C371.74 199.224 372.553 194.944 375.849 192.804C379.144 190.621 383.724 191.349 386.035 194.43Z" fill="#7FB8FA"/>
<path d="M380.001 199.481C380.943 199.481 381.713 198.882 381.713 198.154C381.713 197.212 381.713 196.784 381.713 195.843C381.67 195.115 380.943 194.473 380.044 194.473C379.145 194.473 378.375 195.072 378.375 195.8C378.375 196.742 378.332 197.212 378.332 198.111C378.332 198.882 379.06 199.481 380.001 199.481Z" fill="white"/>
<path d="M380.257 200.508C381.67 200.38 382.74 199.481 382.74 198.368C382.74 197.983 382.74 197.812 382.74 197.469C382.74 197.341 382.611 197.255 382.483 197.255C382.354 197.255 382.226 197.341 382.226 197.469C382.226 197.812 382.226 197.983 382.226 198.325C382.269 199.31 381.242 200.123 380 200.123C378.759 200.08 377.775 199.267 377.818 198.282C377.818 197.94 377.818 197.769 377.818 197.426C377.818 197.298 377.732 197.212 377.561 197.212C377.432 197.212 377.347 197.298 377.347 197.426C377.304 197.769 377.304 197.94 377.304 198.282C377.261 199.438 378.374 200.38 379.744 200.465C379.744 200.936 379.744 201.193 379.744 201.621C379.144 201.621 378.888 201.621 378.288 201.621C378.117 201.621 378.032 201.706 378.032 201.835C378.032 201.92 378.117 202.006 378.288 202.006C379.658 202.049 380.343 202.049 381.755 202.049C381.884 202.049 382.012 201.963 381.969 201.878C381.969 201.749 381.884 201.664 381.755 201.664C381.156 201.664 380.856 201.664 380.257 201.664C380.257 201.664 380.257 201.649 380.257 201.621C380.257 201.193 380.257 200.936 380.257 200.508Z" fill="white"/>
<path d="M361.982 194.173C364.293 197.255 363.48 201.535 360.185 203.718C356.889 205.901 352.309 205.173 349.955 202.049C347.644 198.967 348.457 194.687 351.753 192.547C355.049 190.364 359.628 191.092 361.982 194.173Z" fill="#F45B5B"/>
<path d="M358.815 198.796C358.387 198.582 358.173 198.497 357.788 198.283C357.446 198.154 357.103 198.283 357.061 198.582C356.975 198.882 356.932 199.053 356.847 199.353C356.333 199.181 355.648 198.839 354.878 198.197C354.236 197.64 353.851 197.084 353.637 196.613C353.936 196.485 354.065 196.399 354.364 196.271C354.664 196.142 354.707 195.757 354.493 195.458C354.236 195.073 354.107 194.901 353.851 194.516C353.637 194.217 353.251 194.088 352.995 194.259C352.823 194.345 352.666 194.431 352.524 194.516C352.267 194.687 352.053 194.858 351.967 195.115C351.882 195.329 351.882 195.543 351.925 195.8C352.224 197.084 352.952 198.325 354.022 199.224C355.691 200.679 357.103 200.979 357.959 201.022C358.43 201.065 358.815 200.808 358.987 200.337C359.072 200.037 359.115 199.909 359.201 199.609C359.286 199.31 359.115 198.967 358.815 198.796Z" fill="white"/>
<path d="M460.978 280.416H320.08V284.653H460.978V280.416Z" fill="#E3E3E3"/>
<path d="M334.504 277.933H323.504V280.416H334.504V277.933Z" fill="#292B33"/>
<path d="M348.199 277.933H337.156V280.416H348.199V277.933Z" fill="#292B33"/>
<path d="M403.583 277.933H350.854V280.416H403.583V277.933Z" fill="#292B33"/>
<path d="M416.636 277.933H405.594V280.416H416.636V277.933Z" fill="#292B33"/>
<path d="M430.291 277.933H419.291V280.416H430.291V277.933Z" fill="#292B33"/>
<path d="M443.986 277.933H432.943V280.416H443.986V277.933Z" fill="#292B33"/>
<path d="M457.681 277.933H446.639V280.416H457.681V277.933Z" fill="#292B33"/>
<path d="M469.795 277.933H460.336V280.416H469.795V277.933Z" fill="#292B33"/>
<path d="M481.564 277.933H472.062V280.416H481.564V277.933Z" fill="#292B33"/>
<path d="M483.363 284.653H460.979V280.416H483.363V284.653Z" fill="#B0B0B0"/>
<path d="M520.256 274.852H511.311C506.089 274.852 501.895 279.046 501.895 284.268V284.653H529.672V284.268C529.672 279.046 525.477 274.852 520.256 274.852Z" fill="#808080"/>
<path d="M594.985 284.695H547.862H216.847C213.209 284.695 210.256 287.606 210.256 291.201H547.862H601.576C601.576 287.606 598.623 284.695 594.985 284.695Z" fill="#7FB8FA"/>
<path d="M547.862 291.201H210.256C210.256 294.796 213.209 297.706 216.847 297.706H547.862H594.985C598.623 297.706 601.576 294.796 601.576 291.201H547.862Z" fill="#64EBB6"/>
<g style="mix-blend-mode:multiply" opacity="0.3">
<path d="M246.251 58.4116C224.081 61.964 208.373 81.3096 208.716 103.095L191.553 114.437L212.268 119.958C220.1 138.448 239.788 149.875 260.461 146.537C284.814 142.642 301.335 119.701 297.397 95.348C293.502 71.0376 270.562 54.474 246.251 58.4116Z" fill="#2490BF"/>
</g>
<path d="M246.251 53.8319C224.081 57.4271 208.373 76.7299 208.716 98.5151L191.553 109.857L212.268 115.421C220.1 133.868 239.788 145.296 260.461 141.957C284.814 138.062 301.335 115.122 297.397 90.8111C293.502 66.4579 270.562 49.8943 246.251 53.8319Z" fill="white"/>
<path d="M276.339 91.2391C276.339 84.0487 270.476 78.1851 263.285 78.1851C259.091 78.1851 255.367 80.1539 252.97 83.2355C250.574 80.1539 246.85 78.1851 242.656 78.1851C235.465 78.1851 229.602 84.0487 229.602 91.2391C229.602 91.2391 227.59 102.881 247.535 120.771C250.659 123.596 255.41 123.681 258.577 120.899C265.725 114.736 277.024 102.966 276.339 91.2391Z" fill="#F45B5B"/>
<path d="M236.92 101.382H245.865L247.449 94.5344L250.145 106.048L252.97 90.3828L255.795 106.048L258.32 94.406L260.075 101.382H268.464" stroke="white" stroke-width="1.9" stroke-linecap="round" stroke-linejoin="round"/>
<path d="M85.3645 355.829C85.3645 354.431 85.3503 353.019 85.3217 351.592C85.3217 351.107 85.3075 350.622 85.2789 350.137C85.2504 348.71 85.2219 347.298 85.1933 345.899C85.1648 345.414 85.1363 344.929 85.1077 344.444C85.0792 343.018 85.0364 341.605 84.9793 340.207C84.9508 339.693 84.9223 339.194 84.8937 338.709C84.8081 337.311 84.7368 335.913 84.6797 334.515C84.6512 334.001 84.6084 333.502 84.5513 333.017C84.4657 331.619 84.3801 330.22 84.2945 328.822C84.266 328.366 84.2375 327.909 84.2089 327.453C84.0948 326.026 83.9807 324.585 83.8665 323.13C83.8095 322.702 83.7667 322.274 83.7381 321.846C83.5955 320.391 83.4528 318.921 83.3101 317.437C83.2816 316.981 83.2388 316.524 83.1817 316.068C83.0391 314.641 82.8964 313.215 82.7537 311.788C82.6967 311.331 82.6396 310.875 82.5825 310.418C82.4113 308.992 82.2401 307.551 82.0689 306.095C82.0119 305.667 81.9548 305.239 81.8977 304.811C81.698 303.356 81.4983 301.901 81.2985 300.446C81.2415 300.018 81.1844 299.576 81.1273 299.119C80.9276 297.692 80.7136 296.266 80.4853 294.839C80.4283 294.354 80.3569 293.883 80.2713 293.427C80.0431 292.029 79.8148 290.616 79.5865 289.189C79.5295 288.761 79.4581 288.348 79.3725 287.948C79.1443 286.493 78.9017 285.038 78.6449 283.583C78.5308 283.069 78.4309 282.57 78.3453 282.085C78.0885 280.715 77.8317 279.345 77.5749 277.976C77.4608 277.405 77.3467 276.835 77.2325 276.264C76.9757 274.98 76.7189 273.696 76.4621 272.412C76.348 271.813 76.2196 271.228 76.0769 270.657C75.8201 269.373 75.5491 268.103 75.2637 266.848C75.1496 266.277 75.0212 265.707 74.8785 265.136C74.5932 263.852 74.3079 262.568 74.0225 261.284C73.8799 260.742 73.7372 260.2 73.5945 259.657C73.3092 258.345 72.9953 257.047 72.6529 255.763C72.5103 255.106 72.3533 254.464 72.1821 253.837C71.8683 252.638 71.5544 251.44 71.2405 250.241C71.0693 249.614 70.9124 248.986 70.7697 248.358C70.4273 247.16 70.0992 245.947 69.7853 244.72C69.5856 244.093 69.4001 243.451 69.2289 242.794C68.8865 241.624 68.5441 240.455 68.2017 239.285C68.002 238.6 67.8023 237.929 67.6025 237.273C67.2601 236.132 66.9177 234.976 66.5753 233.806C66.4041 233.207 66.2187 232.608 66.0189 232.009C65.648 230.81 65.2628 229.598 64.8633 228.371C64.6351 227.686 64.4068 227.001 64.1785 226.316C63.8361 225.203 63.4795 224.091 63.1085 222.978C62.7661 222.036 62.438 221.095 62.1241 220.153C61.8388 219.297 61.5535 218.455 61.2681 217.628C60.8972 216.629 60.5405 215.631 60.1981 214.632C59.9128 213.833 59.6275 213.048 59.3421 212.278C58.9997 211.365 58.6573 210.466 58.3149 209.581C58.0011 208.697 57.6729 207.812 57.3305 206.928C56.9596 205.958 56.5887 205.002 56.2177 204.06C55.9039 203.261 55.59 202.462 55.2761 201.663C54.8767 200.665 54.4772 199.68 54.0777 198.71C53.7639 197.94 53.45 197.169 53.1361 196.399C51.6809 192.889 50.1829 189.408 48.6421 185.956C39.2261 164.77 27.8413 143.755 25.9581 120.557C25.7013 117.005 25.6157 113.453 26.2149 109.943C26.4289 108.83 26.6857 107.717 27.0281 106.647C23.0905 108.402 19.3669 110.713 16.7989 114.009C8.66694 124.495 7.25454 136.094 9.69414 148.72C13.7173 169.692 24.4173 188.866 33.0629 208.554C47.5293 241.51 56.4317 276.435 61.3537 311.745C62.5949 320.562 63.5793 329.464 64.3497 338.367C64.7777 343.331 63.6221 351.378 66.1473 356.214H85.3645C85.3645 356.1 85.3645 355.972 85.3645 355.829Z" fill="#292B33"/>
<path d="M25.9576 120.557C27.8408 143.755 39.2256 164.77 48.6416 185.956C50.1824 189.408 51.6804 192.889 53.1356 196.399C53.4495 197.169 53.7633 197.94 54.0772 198.71C54.4767 199.68 54.8761 200.665 55.2756 201.663C55.5895 202.462 55.9033 203.261 56.2172 204.06C56.5881 205.002 56.9591 205.958 57.33 206.928C57.6724 207.812 58.0005 208.697 58.3144 209.581C58.6568 210.466 58.9992 211.365 59.3416 212.278C59.6269 213.048 59.9123 213.833 60.1976 214.632C60.54 215.63 60.8967 216.629 61.2676 217.628C61.5529 218.455 61.8383 219.297 62.1236 220.153C62.4375 221.094 62.7656 222.036 63.108 222.978C63.4789 224.09 63.8356 225.203 64.178 226.316C64.4063 227.001 64.6345 227.686 64.8628 228.37C65.2623 229.597 65.6475 230.81 66.0184 232.008C66.2181 232.608 66.4036 233.207 66.5748 233.806C66.9172 234.976 67.2596 236.132 67.602 237.273C67.8017 237.929 68.0015 238.6 68.2012 239.284C68.5436 240.454 68.886 241.624 69.2284 242.794C69.3996 243.45 69.5851 244.092 69.7848 244.72C70.0987 245.947 70.4268 247.16 70.7692 248.358C70.9119 248.986 71.0688 249.614 71.24 250.241C71.5539 251.44 71.8677 252.638 72.1816 253.836C72.3528 254.464 72.5097 255.106 72.6524 255.762C72.9948 257.046 73.3087 258.345 73.594 259.657C73.7367 260.199 73.8793 260.742 74.022 261.284C74.3073 262.568 74.5927 263.852 74.878 265.136C75.0207 265.706 75.1491 266.277 75.2632 266.848C75.5485 268.103 75.8196 269.373 76.0764 270.657C76.2191 271.228 76.3475 271.812 76.4616 272.412C76.7184 273.696 76.9752 274.98 77.232 276.264C77.3461 276.834 77.4603 277.405 77.5744 277.976C77.8312 279.345 78.088 280.715 78.3448 282.084C78.4304 282.57 78.5303 283.069 78.6444 283.582C78.9012 285.038 79.1437 286.493 79.372 287.948C79.4576 288.348 79.5289 288.761 79.586 289.189C79.8143 290.616 80.0425 292.028 80.2708 293.426C80.3564 293.883 80.4277 294.354 80.4848 294.839C80.7131 296.266 80.9271 297.692 81.1268 299.119C81.1839 299.575 81.2409 300.018 81.298 300.446C81.4977 301.901 81.6975 303.356 81.8972 304.811C81.9543 305.239 82.0113 305.667 82.0684 306.095C82.2396 307.551 82.4108 308.991 82.582 310.418C82.6391 310.875 82.6961 311.331 82.7532 311.788C82.8959 313.214 83.0385 314.641 83.1812 316.068C83.2383 316.524 83.2811 316.981 83.3096 317.437C83.4523 318.921 83.5949 320.39 83.7376 321.846C83.7661 322.274 83.8089 322.702 83.866 323.13C83.9801 324.585 84.0943 326.026 84.2084 327.452C84.2369 327.909 84.2655 328.366 84.294 328.822C84.3796 330.22 84.4652 331.618 84.5508 333.016C84.6079 333.502 84.6507 334.001 84.6792 334.514C84.7363 335.913 84.8076 337.311 84.8932 338.709C84.9217 339.194 84.9503 339.693 84.9788 340.207C85.0359 341.605 85.0787 343.017 85.1072 344.444C85.1357 344.929 85.1643 345.414 85.1928 345.899C85.2213 347.297 85.2499 348.71 85.2784 350.136C85.3069 350.622 85.3212 351.107 85.3212 351.592C85.3497 353.018 85.364 354.431 85.364 355.829C85.364 355.972 85.364 356.1 85.364 356.214H148.751C157.182 353.689 165.486 350.821 173.746 347.954C177.983 346.498 182.306 345 185.602 342.133C192.15 336.526 193.22 327.281 193.434 318.935C194.119 291.8 190.609 264.708 187.1 237.701C184.817 220.238 182.534 202.762 180.252 185.271C177.512 164.384 174.773 143.37 167.925 123.382C163.346 109.986 151.233 101.597 137.109 97.6165C124.74 94.1497 111.643 94.0641 98.7604 94.2353C83.3096 94.4921 67.6876 95.0913 52.7076 98.9005C46.1164 100.612 39.2256 102.324 32.8056 104.464C30.8796 105.106 28.9536 105.791 27.0276 106.647C26.6852 107.717 26.4284 108.83 26.2144 109.943C25.6152 113.452 25.7008 117.005 25.9576 120.557Z" fill="#373B4A"/>
<path d="M302.275 261.883C312.59 260.214 324.018 261.797 334.29 263.552C336.901 263.98 339.554 264.408 341.865 265.564C343.663 266.42 345.161 267.661 346.659 268.945C348.842 270.871 363.437 282.983 357.316 285.038C355.005 285.808 353.036 283.326 351.239 282.299C346.06 279.345 339.854 274.894 333.776 273.867C329.068 273.054 323.461 273.396 318.839 274.466C317.897 274.68 316.827 275.065 316.699 275.964C316.656 276.349 316.827 276.735 317.041 277.077C319.267 281.1 323.633 279.945 327.741 280.929C328.212 281.015 328.726 281.143 329.111 281.443C330.138 282.256 329.667 283.925 328.64 284.781C326.457 286.621 322.52 287.007 319.652 286.793C313.831 286.407 308.353 284.011 303.131 281.657" fill="#FFBD82"/>
<path d="M298.466 257.303C298.466 257.303 300.306 257.047 306.769 258.074C306.769 258.074 306.769 278.147 302.147 281.614L296.283 280.415L298.466 257.303Z" fill="#00E3CC"/>
<path d="M296.368 254.393C282.03 251.568 267.478 249.813 252.926 248.358C241.67 247.245 230.713 245.02 219.5 244.421C218.387 244.378 217.103 244.249 216.332 243.436C215.776 242.837 215.605 242.024 215.391 241.253C212.224 227.129 209.442 212.92 205.29 199.053C201.909 187.668 197.458 171.618 188.384 163.186C181.579 156.895 172.848 156.295 168.311 165.711C166.171 170.077 166.428 175.17 166.898 180.007C168.568 198.325 172.591 216.429 178.797 233.763C181.793 242.238 185.345 250.498 189.368 258.545C192.707 265.221 195.36 273.182 201.096 278.147C206.403 282.812 211.881 281.699 218.258 282.042C225.064 282.427 231.783 281.913 238.588 282.127C249.16 282.47 259.732 282.855 270.346 282.769C275.14 282.712 279.933 282.655 284.727 282.598C287.209 282.598 289.692 282.584 292.174 282.555C294.442 282.513 296.112 283.069 297.396 281.229C301.633 275.065 302.018 264.408 301.248 257.303C301.162 256.79 301.076 256.191 300.734 255.763C300.306 255.249 299.621 255.078 298.936 254.949C298.08 254.75 297.224 254.564 296.368 254.393Z" fill="#C5D7D9"/>
<path d="M161.25 310.889C161.25 310.889 270.39 326.811 302.276 356.214H84.2098L80.4434 338.666L161.25 310.889Z" fill="#525666"/>
<path d="M164.972 154.883C164.031 156.68 162.918 158.435 161.548 159.933C157.183 164.641 150.677 164.984 144.599 164.77C141.646 164.641 138.693 164.256 135.997 163.186C132.615 161.859 129.748 159.505 127.479 156.638L126.709 169.435L133.471 225.631L133.899 338.409C141.603 337.896 148.28 336.868 154.401 335.285C156.669 334.686 160.863 326.768 160.863 326.768C160.863 326.768 165.186 331.647 167.241 330.705C170.536 329.25 173.789 327.538 177.085 325.612C177.085 325.612 175.201 194.986 164.972 154.883Z" fill="#64EBB6"/>
<path d="M158.937 170.248L154.315 166.824H148.494L144.514 170.633L148.366 178.252L155.813 177.824L158.937 170.248Z" fill="#0079A9"/>
<path d="M155.813 177.824L148.365 178.252L138.992 260.214L155.385 274.209L170.407 259.871L155.813 177.824Z" fill="#42A5F5"/>
<path d="M124.783 142.728C124.783 142.728 124.997 140.074 146.526 139.133C146.526 139.133 162.49 138.619 165.743 142.856L162.148 160.404L150.891 164.642L125.81 149.191L124.783 142.728Z" fill="#05C9B1"/>
<path d="M162.019 139.818C161.419 134.81 160.906 129.289 161.291 126.122L124.654 126.592C124.654 126.592 126.195 131.343 127.179 137.378C131.588 141.059 137.366 143.199 143.144 143.584C149.607 144.012 156.069 142.471 162.019 139.818Z" fill="#E89C58"/>
<path d="M163.602 150.304C163.602 150.304 162.746 145.424 162.019 139.818C156.07 142.471 149.607 144.012 143.144 143.584C137.366 143.199 131.588 141.059 127.18 137.378C127.95 141.786 128.421 146.922 127.822 151.416L127.479 156.638C129.748 159.506 132.615 161.86 135.996 163.186C138.693 164.256 141.646 164.642 144.599 164.77C150.677 164.984 157.182 164.642 161.548 159.934C162.918 158.436 164.03 156.681 164.972 154.883C164.544 153.2 164.088 151.673 163.602 150.304Z" fill="#FFBD82"/>
<path d="M176.699 74.2479L176.528 73.9483C160.992 56.8711 138.393 55.6299 128.977 55.9295C126.837 56.0151 125.339 58.0695 125.896 60.1667C130.09 75.7031 125.125 87.0451 121.83 92.3095C120.931 93.7647 118.791 93.6363 118.021 92.0955C112.671 80.9247 106.679 89.5275 106.679 89.5275C104.282 95.3483 104.196 102.111 106.55 107.974C107.406 110.071 109.033 112.682 111.258 113.239C111.258 113.239 115.923 113.795 118.962 111.826C118.962 111.826 119.133 119.017 122.044 124.195C124.398 127.791 127.394 131.001 130.861 133.611C131.931 134.425 133.043 135.195 134.113 135.965C143.016 141.957 155.171 141.059 163.175 133.783C170.451 127.149 172.805 117.433 174.089 108.06C174.902 102.41 175.501 96.7607 175.929 91.0683C176.157 88.2435 176.314 85.4044 176.4 82.5511C176.443 81.3955 177.256 75.7887 176.699 74.2479Z" fill="#FFBD82"/>
<path d="M178.882 55.9295C180.251 55.8439 181.621 55.8581 182.99 55.9723C183.889 56.0151 185.387 56.1435 186.286 56.1435C187.099 56.1435 187.998 56.4003 188.854 56.2719C193.562 55.5871 187.998 49.1243 186.885 47.5835C185.216 45.1867 183.376 42.8755 181.407 40.7355C177.426 36.4555 172.89 32.6891 167.754 29.8643C167.44 29.6931 167.126 29.5361 166.812 29.3935C157.054 24.3003 146.054 23.4871 135.525 26.8683C129.619 28.7515 125.039 31.6191 120.074 35.2571C119.646 33.3168 119.204 31.3623 118.748 29.3935C118.534 28.4091 118.234 27.3391 117.378 26.8683C117.207 26.7399 116.95 26.6543 116.736 26.6971C116.351 26.7399 116.094 27.1679 115.923 27.5959C114.853 30.4207 115.752 33.5879 116.65 36.4983C115.923 34.7863 114.896 32.8175 113.012 32.5607C112.798 32.5607 112.499 32.5607 112.285 32.7319C111.985 32.9887 112.114 33.5023 112.242 33.8447C112.884 35.6851 113.74 36.8407 114.853 38.4243C108.946 39.1091 104.067 43.7315 101.585 49.1243C99.1453 54.5599 98.8029 60.6803 99.1453 66.6295C99.5733 75.0611 101.371 82.9791 106.678 89.5275C106.678 89.5275 112.67 80.9247 118.02 92.0955C118.79 93.6363 120.93 93.7647 121.829 92.3095C125.125 87.0451 130.09 75.7031 125.895 60.1667C125.339 58.0695 126.837 56.0151 128.977 55.9295C138.393 55.6299 160.991 56.8711 176.528 73.9483L179.524 76.6447C180.38 77.4151 181.792 77.3723 182.434 76.3451C182.776 75.8315 182.862 75.2323 182.948 74.6331C183.675 68.6411 183.418 60.4235 178.882 55.9295Z" fill="#9B5B30"/>
<path d="M111.258 113.239C111.515 114.523 111.771 115.821 112.028 117.133C112.542 119.787 113.569 123.853 116.351 125.009C118.491 125.865 120.117 125.351 121.915 124.024C121.944 124.081 121.986 124.138 122.043 124.195C119.133 119.017 118.962 111.826 118.962 111.826C115.923 113.795 111.258 113.239 111.258 113.239Z" fill="#9B5B30"/>
<path d="M155.469 89.6558C156.268 91.9955 157.01 94.3638 157.695 96.7606C158.408 99.1288 159.107 101.511 159.792 103.908L160.776 107.503C160.862 107.803 160.948 108.145 160.99 108.531C161.033 108.916 160.99 109.472 160.734 109.943C160.434 110.457 160.049 110.713 159.749 110.927C159.407 111.099 159.15 111.227 158.85 111.355C156.411 112.511 153.629 112.725 151.146 111.997L151.275 111.184C153.672 111.355 156.068 110.885 158.08 109.815C158.594 109.558 159.193 109.215 159.193 109.13C159.236 109.044 159.193 108.573 159.022 107.931L158.08 104.336C157.452 101.939 156.853 99.5426 156.282 97.1458C155.712 94.749 155.184 92.3236 154.699 89.8698L155.469 89.6558Z" fill="#C47149"/>
<path d="M166.64 73.6484C167.667 73.5628 168.609 73.8624 169.508 74.2904C170.364 74.7184 171.177 75.232 171.904 75.874C173.36 77.1152 174.472 78.6988 175.029 80.4108C175.114 80.6248 174.986 80.8816 174.772 80.9244C174.601 80.9672 174.43 80.9244 174.344 80.796C173.231 79.5548 171.947 78.5704 170.535 77.8856C169.85 77.5432 169.165 77.2436 168.438 77.0724C167.71 76.8584 166.982 76.73 166.298 76.3876L166.212 76.3448C165.484 76.0452 165.185 75.1892 165.484 74.5044C165.698 73.9908 166.169 73.6912 166.64 73.6484Z" fill="#7F3A17"/>
<path d="M148.151 74.5476C147.424 74.8044 146.696 74.8472 145.968 74.9328C145.241 75.0184 144.47 75.2324 143.743 75.4464C142.288 75.96 140.875 76.7732 139.634 77.886C139.463 78.0572 139.206 78.0144 139.035 77.8432C138.949 77.7148 138.906 77.5436 138.992 77.4152C139.762 75.7888 141.046 74.3336 142.673 73.3064C143.443 72.7928 144.342 72.3648 145.241 72.0224C146.182 71.7228 147.167 71.5516 148.151 71.8084C148.922 71.9796 149.392 72.7072 149.221 73.4776C149.093 73.9912 148.708 74.3764 148.237 74.5476H148.151Z" fill="#7F3A17"/>
<path d="M158.295 120.6C158.937 119.616 158.252 118.289 157.097 118.203C146.996 117.347 141.475 115.25 138.778 113.795C137.837 113.281 136.724 113.88 136.51 114.865C140.833 117.989 148.537 122.055 158.295 120.6Z" fill="white"/>
<path d="M136.51 114.865C136.481 114.979 136.467 115.108 136.467 115.25C136.552 116.962 136.938 119.06 138.179 120.943C140.19 120.686 142.288 120.857 144.256 121.499C146.739 122.27 149.007 123.725 150.89 125.608C154.7 124.923 157.011 122.526 158.252 120.686C158.281 120.658 158.295 120.629 158.295 120.6C148.536 122.056 140.832 117.99 136.51 114.865Z" fill="#663731"/>
<path d="M138.18 120.943C139.506 122.997 141.903 124.795 145.969 125.522C147.852 125.865 149.479 125.865 150.891 125.608C149.008 123.725 146.74 122.269 144.257 121.499C142.288 120.857 140.191 120.686 138.18 120.943Z" fill="#FF737D"/>
<path d="M115.066 107.803C114.253 107.675 113.44 107.29 112.798 106.733C112.156 106.134 111.685 105.449 111.257 104.636C110.444 103.052 110.059 101.298 109.973 99.4999C109.973 99.2146 109.973 98.9293 109.973 98.6439C111.214 100.356 112.969 101.64 114.895 102.239C115.066 102.325 115.28 102.239 115.323 102.068C115.451 101.854 115.366 101.64 115.152 101.554C113.868 100.912 112.712 99.9279 111.942 98.6867C111.542 98.0875 111.214 97.4313 110.957 96.7179C110.829 96.3755 110.701 95.9903 110.658 95.6479C110.572 95.2199 110.829 94.7919 111 94.4067C111.813 92.9087 113.097 92.0099 114.895 91.8815C115.066 91.8815 115.195 91.7531 115.237 91.6247C115.323 91.4107 115.195 91.1967 114.981 91.1111C114.039 90.8543 112.883 90.8971 111.899 91.4107C110.872 91.9243 110.101 92.7803 109.673 93.7219C109.16 94.6207 108.903 95.6051 108.732 96.5895C108.561 97.5882 108.489 98.5869 108.518 99.5855C108.603 101.554 109.203 103.523 110.187 105.235C111.129 106.947 112.926 108.488 115.023 108.531C115.237 108.574 115.409 108.402 115.409 108.231C115.451 108.017 115.28 107.803 115.066 107.803Z" fill="#C47149"/>
<path d="M139.42 339.137C139.121 351.806 94.6514 348.596 80.4846 347.269C78.0878 347.055 76.333 344.958 76.547 342.561L89.387 175.213C99.5734 160.918 127.821 151.416 127.821 151.416C127.821 151.416 142.502 210.908 139.42 339.137Z" fill="#D0E1E3"/>
<path d="M163.604 150.304C164.759 158.051 175.374 293.042 171.907 330.663C171.693 332.717 173.533 334.429 175.588 334.087C181.451 333.06 192.322 330.449 199.727 324.328C201.482 322.873 202.423 320.648 202.38 318.379C202.124 295.524 197.972 169.992 163.604 150.304Z" fill="#D0E1E3"/>
<path d="M186.715 296.722C186.843 296.294 190.096 295.438 190.695 295.181C192.236 294.454 193.948 294.026 195.532 293.512C198.87 292.485 202.251 291.629 205.718 291.329C207.002 291.201 208.414 291.201 209.484 291.971C213.893 295.138 203.963 298.776 202.251 299.804C201.481 300.232 200.71 300.702 200.24 301.43C199.769 302.2 199.683 303.228 200.282 303.87C200.668 304.298 201.224 304.426 201.78 304.597C206.103 306.138 210.212 306.01 214.663 306.266C219.5 306.566 223.994 305.068 228.744 304.597C229.772 304.512 230.927 304.512 231.655 305.196C232.939 306.309 232.254 308.492 231.056 309.348C229.344 310.546 227.118 310.803 225.149 311.36C219.5 313.029 213.636 313.928 207.815 314.869C209.484 314.57 211.624 315.083 213.336 315.126C218.344 315.34 223.352 314.784 228.402 314.612C229.087 314.57 229.814 314.57 230.456 314.869C233.495 316.367 230.713 318.85 228.916 319.791C227.246 320.604 225.363 321.075 223.523 321.46C218.301 322.445 212.866 322.659 207.558 322.017C210.64 323.301 213.936 323.857 217.274 324.157C218.9 324.328 220.57 324.414 222.196 324.542C223.523 324.628 225.577 324.456 226.176 325.997C226.262 326.226 226.305 326.454 226.305 326.682C226.219 328.052 224.165 328.993 223.052 329.464C221.212 330.234 219.072 330.448 217.103 330.534C211.453 330.705 205.761 329.635 200.539 327.367C203.107 329.892 206.232 331.347 209.57 332.546C212.01 333.402 214.578 334.001 217.188 334.343C218.13 334.472 219.756 334.985 219.114 336.269C218.644 337.211 216.718 337.553 215.776 337.724C208.842 338.837 202.123 336.098 196.388 332.374C189.582 327.966 182.82 322.744 179.268 315.468L186.715 296.722Z" fill="#FFBD82"/>
<path d="M179.311 291.715C179.311 291.715 181.152 291.8 187.272 294.154C187.272 294.154 183.249 313.8 178.027 316.282L172.549 313.885L179.311 291.715Z" fill="#00E3CC"/>
<path d="M177.813 288.462C151.534 277.163 123.928 267.533 95.7657 262.739C101.158 245.319 105.053 227.429 107.322 209.325C108.434 200.465 109.162 191.563 109.504 182.617C109.718 176.797 111.858 166.953 104.454 164.427C94.7385 161.175 86.0501 174.871 82.4549 181.933C73.8521 198.753 70.4281 217.414 66.9613 235.818C65.6773 242.751 64.6501 249.771 63.2377 256.704C61.8681 263.509 61.0121 270.443 61.3973 277.377C61.4829 278.703 61.6113 280.073 62.1249 281.271C63.8797 285.295 68.3309 288.676 72.0117 290.773C76.5057 293.341 81.3421 294.668 86.1357 296.508C91.6141 298.605 97.3921 299.889 103.17 301.174C117.679 304.383 132.146 308.236 146.655 311.018C151.363 311.931 156.071 312.844 160.779 313.757C163.204 314.242 165.644 314.713 168.098 315.169C170.323 315.64 171.821 316.496 173.448 314.955C178.84 309.776 181.366 299.376 182.008 292.271C182.05 291.757 182.093 291.158 181.836 290.688C181.537 290.088 180.852 289.746 180.253 289.489C179.425 289.147 178.612 288.804 177.813 288.462Z" fill="#E3F3F1"/>
<path d="M127.821 151.416C127.821 151.416 134.969 153.256 139.035 259.358L117.079 200.593L126.623 192.504L111.258 183.345C111.258 183.345 112.927 164.342 127.821 151.416Z" fill="#E3F3F1"/>
<path d="M163.773 150.304C163.773 150.304 167.454 188.738 170.835 258.63L182.648 196.998L171.863 190.621L182.991 178.252C182.991 178.252 177.983 153.428 163.773 150.304Z" fill="#E3F3F1"/>
<path d="M136.981 243.479L133.985 243.95C134.157 245.191 134.756 249.985 134.884 250.841C135.013 251.996 134.371 253.023 133.686 253.237L132.701 253.537C131.931 253.794 131.46 254.65 131.717 255.463C131.974 256.233 132.83 256.704 133.643 256.447L134.627 256.105C136.767 255.42 138.18 252.981 137.88 250.455C137.752 249.471 137.153 244.677 136.981 243.479Z" fill="#B8A9A9"/>
<path d="M133.044 257.175L130.476 257.731C129.234 258.031 128.079 257.432 127.908 256.405L127.694 255.206C127.48 254.222 128.378 253.152 129.62 252.852L132.145 252.296C133.386 252.039 134.542 252.638 134.756 253.623L134.97 254.821C135.141 255.848 134.285 256.875 133.044 257.175Z" fill="#1D2842"/>
<path d="M100.516 248.529L103.512 248.229C103.683 249.513 104.282 254.264 104.368 255.12C104.539 256.276 105.395 257.132 106.122 257.175L107.15 257.217C107.963 257.26 108.605 257.988 108.562 258.801C108.519 259.657 107.792 260.299 106.936 260.256L105.908 260.171C103.64 260.042 101.714 258.031 101.372 255.505C101.243 254.564 100.644 249.727 100.516 248.529Z" fill="#B8A9A9"/>
<path d="M107.706 260.813L110.317 260.727C111.601 260.685 112.585 259.829 112.5 258.801L112.414 257.603C112.371 256.576 111.259 255.763 109.975 255.805L107.364 255.848C106.123 255.891 105.138 256.79 105.181 257.817L105.267 259.015C105.352 260.043 106.465 260.856 107.706 260.813Z" fill="#1D2842"/>
<path d="M122.429 208.469C119.732 206.585 116.779 206.029 113.697 206.757C98.9743 210.223 98.5463 231.837 100.087 248.529C100.216 249.599 101.2 250.37 102.27 250.199C103.254 250.07 103.939 249.171 103.853 248.187C101.97 228.413 104.196 212.834 114.553 210.395C116.608 209.924 118.448 210.266 120.289 211.55C128.035 216.986 131.759 232.265 133.471 243.393C133.642 244.421 134.584 245.105 135.611 244.934C136.638 244.806 137.323 243.821 137.195 242.837C135.269 230.339 131.245 214.632 122.429 208.469Z" fill="#292B33"/>
<path d="M124.269 152.572C122.343 154.112 120.674 155.953 119.347 158.007C118.919 158.478 118.662 159.034 118.32 159.548C118.02 160.062 117.635 160.532 117.378 161.089C116.864 162.202 116.222 163.229 115.794 164.427C115.366 165.583 114.81 166.696 114.51 167.894L113.997 169.692L113.74 170.548L113.569 171.489L112.841 175.127L112.413 178.851C112.37 179.45 112.242 180.092 112.242 180.691L112.156 182.574L112.028 186.341L112.156 190.107L112.242 191.99V192.932L112.37 193.874C112.499 195.115 112.627 196.399 112.756 197.64L112.927 199.523L113.012 200.465L113.141 201.406C113.569 203.889 113.954 206.414 114.339 208.896V208.982C114.425 209.581 113.997 210.18 113.355 210.266C112.756 210.352 112.199 209.967 112.071 209.367C111.557 206.842 111.086 204.317 110.616 201.792C110.188 199.266 109.931 196.656 109.631 194.088L109.503 193.146L109.46 192.162L109.374 190.236L109.203 186.341L109.332 182.446C109.332 181.162 109.374 179.878 109.588 178.551L110.059 174.699L110.872 170.847L111.086 169.863L111.386 168.921L111.985 167.038C112.328 165.797 112.884 164.599 113.398 163.357C114.468 160.961 115.837 158.649 117.549 156.595C119.304 154.583 121.401 152.828 123.969 151.887C124.14 151.844 124.354 151.93 124.44 152.101C124.483 152.272 124.44 152.443 124.312 152.529L124.269 152.572Z" fill="#292B33"/>
<path d="M168.267 152.358C170.964 152.914 173.318 154.327 175.329 156.081C175.886 156.467 176.314 156.98 176.785 157.451C177.255 157.922 177.769 158.393 178.154 158.906L179.395 160.49L179.995 161.303L180.508 162.159C183.376 166.653 185.387 171.618 186.543 176.711C186.671 177.353 186.885 177.995 187.014 178.637L187.356 180.563L187.998 184.415L188.341 188.31L188.512 190.279C188.597 190.921 188.64 191.563 188.64 192.205C188.64 194.815 188.726 197.426 188.64 199.994C188.469 202.605 188.341 205.173 188.127 207.741C188.084 208.383 187.57 208.854 186.928 208.811C186.329 208.768 185.858 208.255 185.858 207.655V207.57C185.901 205.045 185.987 202.477 186.072 199.951C186.101 199.324 186.086 198.696 186.029 198.068L185.987 196.142C185.944 194.901 185.901 193.617 185.858 192.333C185.858 191.734 185.815 191.092 185.73 190.45L185.559 188.567L185.216 184.8L184.531 181.077L184.232 179.236C184.103 178.594 183.932 177.995 183.761 177.396C183.461 176.197 183.162 174.956 182.819 173.758L181.578 170.205C180.679 167.894 179.609 165.626 178.283 163.571L177.812 162.758L177.298 161.988L176.228 160.49C175.843 159.976 175.415 159.548 175.03 159.077C174.645 158.607 174.259 158.136 173.789 157.708C172.119 155.91 170.193 154.327 168.053 153.085L168.011 153.043C167.839 152.957 167.754 152.7 167.882 152.529C167.968 152.401 168.096 152.315 168.267 152.358Z" fill="#292B33"/>
<path d="M195.488 206.329C195.145 211.208 190.951 214.846 186.072 214.546C181.193 214.204 177.512 209.967 177.854 205.087C178.197 200.208 182.391 196.527 187.27 196.87C192.149 197.212 195.83 201.449 195.488 206.329Z" fill="#B0B0B0"/>
<path d="M193.519 206.157C193.262 209.966 189.966 212.791 186.2 212.534C182.433 212.277 179.566 208.982 179.823 205.215C180.079 201.449 183.375 198.581 187.141 198.838C190.908 199.138 193.775 202.391 193.519 206.157Z" fill="#E3E3E3"/>
<path d="M190.309 205.943C190.138 207.955 188.426 209.453 186.414 209.324C184.403 209.196 182.905 207.441 183.033 205.43C183.204 203.461 184.916 201.92 186.928 202.091C188.939 202.22 190.437 203.932 190.309 205.943Z" fill="black"/>
<path d="M124.784 142.728L122.9 153.599L138.565 175.427L150.892 164.641L124.784 142.728Z" fill="#64EBB6"/>
<path d="M150.891 164.642L162.19 172.132L169.765 153L165.742 142.856L150.891 164.642Z" fill="#64EBB6"/>
</svg>
