<svg width="77" height="64" viewBox="0 0 77 64" fill="none" xmlns="http://www.w3.org/2000/svg">
<path d="M7.83342 56.1673C5.93133 56.1673 4.30303 55.4901 2.94852 54.1355C1.59401 52.781 0.916748 51.1527 0.916748 49.2506V7.75065C0.916748 5.84857 1.59401 4.22027 2.94852 2.86576C4.30303 1.51124 5.93133 0.833984 7.83342 0.833984H63.1668C65.0688 0.833984 66.6971 1.51124 68.0517 2.86576C69.4062 4.22027 70.0834 5.84857 70.0834 7.75065V28.5007H7.83342V49.2506H42.4167V56.1673H7.83342ZM7.83342 14.6673H63.1668V7.75065H7.83342V14.6673ZM59.7084 63.084V52.709H49.3334V45.7923H59.7084V35.4173H66.6251V45.7923H77.0001V52.709H66.6251V63.084H59.7084Z" fill="#42A5F5"/>
</svg>
