<svg width="332" height="376" viewBox="0 0 332 376" fill="none" xmlns="http://www.w3.org/2000/svg">
<path d="M220.318 99.9146C226.979 98.9056 232.712 104.638 231.703 111.299L223.68 164.267C223.53 165.26 223.53 166.269 223.68 167.262L231.703 220.23C232.712 226.891 226.979 232.623 220.318 231.614L167.351 223.591C166.358 223.441 165.348 223.441 164.356 223.591L111.388 231.614C104.727 232.623 98.9943 226.891 100.003 220.23L108.026 167.262C108.177 166.269 108.177 165.26 108.026 164.267L100.003 111.299C98.9943 104.638 104.727 98.9056 111.388 99.9146L164.356 107.938C165.348 108.088 166.358 108.088 167.351 107.938L220.318 99.9146Z" fill="#42A5F5"/>
<path d="M235.32 85.3356C241.648 84.377 247.094 89.8231 246.135 96.1512L235.851 164.045C235.693 165.088 235.693 166.148 235.851 167.19L246.135 235.084C247.094 241.412 241.648 246.858 235.32 245.9L167.426 235.616C166.383 235.458 165.323 235.458 164.281 235.616L96.3866 245.9C90.0586 246.858 84.6125 241.412 85.571 235.084L95.8551 167.19C96.013 166.148 96.0129 165.088 95.8551 164.045L85.571 96.1512C84.6125 89.8231 90.0586 84.377 96.3866 85.3356L164.281 95.6196C165.323 95.7775 166.383 95.7775 167.426 95.6196L235.32 85.3356Z" stroke="#42A5F5" stroke-opacity="0.6"/>
<path d="M26.4772 299V276.44H41.0692V279.128H29.6772V286.2H40.3972V288.888H29.6772V296.312H41.0692V299H26.4772ZM45.385 299V276.44H48.169L56.521 292.024L64.841 276.44H67.561V299H64.585V282.456L57.513 295.544H55.497L48.393 282.52V299H45.385ZM72.8835 299V276.44H87.4755V279.128H76.0835V286.2H86.8035V288.888H76.0835V296.312H87.4755V299H72.8835ZM91.7272 299V276.44H101.071C103.503 276.44 105.381 277.027 106.703 278.2C108.026 279.352 108.687 280.973 108.687 283.064C108.687 284.749 108.239 286.136 107.343 287.224C106.447 288.291 105.178 289.005 103.535 289.368C104.559 289.709 105.423 290.531 106.127 291.832L110.031 299H106.383L102.479 291.8C102.031 290.968 101.509 290.413 100.911 290.136C100.335 289.837 99.5885 289.688 98.6712 289.688H95.0552V299H91.7272ZM95.0552 287.192H100.527C103.813 287.192 105.455 285.837 105.455 283.128C105.455 280.44 103.813 279.096 100.527 279.096H95.0552V287.192ZM123.787 299.288C121.334 299.288 119.265 298.829 117.579 297.912C115.894 296.973 114.614 295.64 113.739 293.912C112.886 292.184 112.459 290.125 112.459 287.736C112.459 285.368 112.897 283.32 113.771 281.592C114.646 279.843 115.915 278.499 117.579 277.56C119.243 276.621 121.238 276.152 123.563 276.152C125.163 276.152 126.646 276.387 128.011 276.856C129.377 277.325 130.518 277.997 131.435 278.872L130.251 281.464C129.227 280.611 128.182 280.003 127.115 279.64C126.049 279.256 124.865 279.064 123.563 279.064C121.067 279.064 119.169 279.821 117.867 281.336C116.566 282.829 115.915 284.963 115.915 287.736C115.915 290.573 116.577 292.728 117.899 294.2C119.243 295.672 121.249 296.408 123.915 296.408C125.537 296.408 127.147 296.141 128.747 295.608V289.56H123.243V287.064H131.531V297.688C130.571 298.157 129.377 298.541 127.947 298.84C126.539 299.139 125.153 299.288 123.787 299.288ZM136.633 299V276.44H151.225V279.128H139.833V286.2H150.553V288.888H139.833V296.312H151.225V299H136.633ZM155.477 299V276.44H158.005L170.933 293.496V276.44H174.005V299H171.541L158.549 281.88V299H155.477ZM189.37 299.288C187.088 299.288 185.136 298.819 183.514 297.88C181.893 296.941 180.645 295.608 179.77 293.88C178.917 292.131 178.49 290.072 178.49 287.704C178.49 285.336 178.917 283.288 179.77 281.56C180.645 279.832 181.893 278.499 183.514 277.56C185.136 276.621 187.088 276.152 189.37 276.152C190.906 276.152 192.336 276.397 193.658 276.888C195.002 277.357 196.122 278.04 197.018 278.936L195.866 281.592C194.885 280.717 193.872 280.088 192.826 279.704C191.802 279.299 190.682 279.096 189.466 279.096C187.034 279.096 185.178 279.843 183.898 281.336C182.618 282.829 181.978 284.952 181.978 287.704C181.978 290.456 182.618 292.589 183.898 294.104C185.178 295.597 187.034 296.344 189.466 296.344C190.682 296.344 191.802 296.152 192.826 295.768C193.872 295.363 194.885 294.723 195.866 293.848L197.018 296.504C196.122 297.379 195.002 298.061 193.658 298.552C192.336 299.043 190.906 299.288 189.37 299.288ZM205.791 299V288.472L197.151 276.44H200.991L207.519 285.56L214.047 276.44H217.727L209.087 288.504V299H205.791ZM228.196 299V276.44H231.524V286.168H244.164V276.44H247.46V299H244.164V288.952H231.524V299H228.196ZM252.727 299V276.44H267.319V279.128H255.927V286.2H266.647V288.888H255.927V296.312H267.319V299H252.727ZM271.571 299V276.44H274.899V296.152H286.067V299H271.571ZM289.227 299V276.44H298.571C301.003 276.44 302.881 277.048 304.203 278.264C305.526 279.459 306.187 281.144 306.187 283.32C306.187 285.517 305.526 287.224 304.203 288.44C302.881 289.635 301.003 290.232 298.571 290.232H292.555V299H289.227ZM292.555 287.576H298.091C301.334 287.576 302.955 286.157 302.955 283.32C302.955 280.504 301.334 279.096 298.091 279.096H292.555V287.576Z" fill="#3F3F3F"/>
<path d="M18.4232 339.162C16.7552 339.162 15.4892 338.724 14.6252 337.848C13.7612 336.96 13.3292 335.67 13.3292 333.978V326.31H14.8052V333.906C14.8052 336.534 16.0112 337.848 18.4232 337.848C20.8112 337.848 22.0052 336.534 22.0052 333.906V326.31H23.4812V333.978C23.4812 335.67 23.0492 336.96 22.1852 337.848C21.3332 338.724 20.0792 339.162 18.4232 339.162ZM26.3169 339V330.252H27.7389V331.818C28.2069 330.762 29.1669 330.18 30.6189 330.072L31.1409 330.018L31.2489 331.278L30.3309 331.386C29.5029 331.458 28.8729 331.722 28.4409 332.178C28.0089 332.622 27.7929 333.234 27.7929 334.014V339H26.3169ZM36.5326 342.402C35.7766 342.402 35.0626 342.3 34.3906 342.096C33.7306 341.904 33.1426 341.61 32.6266 341.214L33.1126 340.152C33.6526 340.536 34.1866 340.812 34.7146 340.98C35.2546 341.148 35.8366 341.232 36.4606 341.232C38.1886 341.232 39.0526 340.344 39.0526 338.568V337.02C38.8006 337.572 38.4046 338.01 37.8646 338.334C37.3366 338.646 36.7306 338.802 36.0466 338.802C35.2426 338.802 34.5466 338.616 33.9586 338.244C33.3706 337.872 32.9146 337.362 32.5906 336.714C32.2786 336.054 32.1226 335.292 32.1226 334.428C32.1226 333.564 32.2786 332.808 32.5906 332.16C32.9146 331.5 33.3706 330.99 33.9586 330.63C34.5466 330.27 35.2426 330.09 36.0466 330.09C36.7306 330.09 37.3366 330.246 37.8646 330.558C38.4046 330.87 38.8006 331.296 39.0526 331.836V330.252H40.4746V338.37C40.4746 339.714 40.1386 340.722 39.4666 341.394C38.8066 342.066 37.8286 342.402 36.5326 342.402ZM36.3166 337.614C37.1566 337.614 37.8226 337.326 38.3146 336.75C38.8066 336.174 39.0526 335.4 39.0526 334.428C39.0526 333.456 38.8066 332.688 38.3146 332.124C37.8226 331.548 37.1566 331.26 36.3166 331.26C35.4886 331.26 34.8286 331.548 34.3366 332.124C33.8446 332.688 33.5986 333.456 33.5986 334.428C33.5986 335.4 33.8446 336.174 34.3366 336.75C34.8286 337.326 35.4886 337.614 36.3166 337.614ZM47.1515 339.162C45.7715 339.162 44.6795 338.76 43.8755 337.956C43.0715 337.14 42.6695 336.036 42.6695 334.644C42.6695 333.744 42.8495 332.952 43.2095 332.268C43.5695 331.572 44.0615 331.038 44.6855 330.666C45.3215 330.282 46.0535 330.09 46.8815 330.09C48.0695 330.09 48.9995 330.474 49.6715 331.242C50.3435 331.998 50.6795 333.042 50.6795 334.374V334.932H44.0915C44.1395 335.928 44.4275 336.69 44.9555 337.218C45.4835 337.734 46.2155 337.992 47.1515 337.992C47.6795 337.992 48.1835 337.914 48.6635 337.758C49.1435 337.59 49.5995 337.32 50.0315 336.948L50.5355 337.974C50.1395 338.346 49.6355 338.64 49.0235 338.856C48.4115 339.06 47.7875 339.162 47.1515 339.162ZM46.9175 331.17C46.0895 331.17 45.4355 331.428 44.9555 331.944C44.4755 332.46 44.1935 333.138 44.1095 333.978H49.4195C49.3835 333.09 49.1495 332.4 48.7175 331.908C48.2975 331.416 47.6975 331.17 46.9175 331.17ZM52.7896 339V330.252H54.2116V331.746C54.4996 331.194 54.9076 330.78 55.4356 330.504C55.9636 330.228 56.5576 330.09 57.2176 330.09C59.2936 330.09 60.3316 331.242 60.3316 333.546V339H58.8736V333.636C58.8736 332.82 58.7116 332.226 58.3876 331.854C58.0756 331.47 57.5716 331.278 56.8756 331.278C56.0716 331.278 55.4296 331.53 54.9496 332.034C54.4816 332.526 54.2476 333.186 54.2476 334.014V339H52.7896ZM66.53 339.162C65.498 339.162 64.724 338.892 64.208 338.352C63.692 337.8 63.434 337.008 63.434 335.976V331.386H61.724V330.252H63.434V327.57H64.892V330.252H67.664V331.386H64.892V335.832C64.892 336.516 65.036 337.038 65.324 337.398C65.612 337.746 66.08 337.92 66.728 337.92C66.92 337.92 67.112 337.896 67.304 337.848C67.496 337.8 67.67 337.752 67.826 337.704L68.078 338.82C67.922 338.904 67.694 338.982 67.394 339.054C67.094 339.126 66.806 339.162 66.53 339.162ZM74.1341 339V326.31H75.6101V331.926H83.2241V326.31H84.7001V339H83.2241V333.204H75.6101V339H74.1341ZM91.5714 339.162C90.1914 339.162 89.0994 338.76 88.2954 337.956C87.4914 337.14 87.0894 336.036 87.0894 334.644C87.0894 333.744 87.2694 332.952 87.6294 332.268C87.9894 331.572 88.4814 331.038 89.1054 330.666C89.7414 330.282 90.4734 330.09 91.3014 330.09C92.4894 330.09 93.4194 330.474 94.0914 331.242C94.7634 331.998 95.0994 333.042 95.0994 334.374V334.932H88.5114C88.5594 335.928 88.8474 336.69 89.3754 337.218C89.9034 337.734 90.6354 337.992 91.5714 337.992C92.0994 337.992 92.6034 337.914 93.0834 337.758C93.5634 337.59 94.0194 337.32 94.4514 336.948L94.9554 337.974C94.5594 338.346 94.0554 338.64 93.4434 338.856C92.8314 339.06 92.2074 339.162 91.5714 339.162ZM91.3374 331.17C90.5094 331.17 89.8554 331.428 89.3754 331.944C88.8954 332.46 88.6134 333.138 88.5294 333.978H93.8394C93.8034 333.09 93.5694 332.4 93.1374 331.908C92.7174 331.416 92.1174 331.17 91.3374 331.17ZM99.8915 339.162C99.0035 339.162 98.3315 338.904 97.8755 338.388C97.4315 337.86 97.2095 337.098 97.2095 336.102V326.31H98.6675V335.994C98.6675 337.278 99.1775 337.92 100.197 337.92C100.497 337.92 100.767 337.884 101.007 337.812L100.971 339.036C100.599 339.12 100.239 339.162 99.8915 339.162ZM102.536 342.24V330.252H103.958V331.818C104.222 331.278 104.612 330.858 105.128 330.558C105.656 330.246 106.268 330.09 106.964 330.09C107.744 330.09 108.422 330.276 108.998 330.648C109.586 331.008 110.036 331.53 110.348 332.214C110.672 332.886 110.834 333.69 110.834 334.626C110.834 335.55 110.672 336.354 110.348 337.038C110.036 337.71 109.586 338.232 108.998 338.604C108.422 338.976 107.744 339.162 106.964 339.162C106.292 339.162 105.692 339.012 105.164 338.712C104.636 338.412 104.246 337.998 103.994 337.47V342.24H102.536ZM106.658 337.992C107.474 337.992 108.128 337.704 108.62 337.128C109.112 336.54 109.358 335.706 109.358 334.626C109.358 333.534 109.112 332.7 108.62 332.124C108.128 331.548 107.474 331.26 106.658 331.26C105.842 331.26 105.188 331.548 104.696 332.124C104.204 332.7 103.958 333.534 103.958 334.626C103.958 335.706 104.204 336.54 104.696 337.128C105.188 337.704 105.842 337.992 106.658 337.992ZM113.148 341.052L112.464 340.53C112.728 340.254 112.914 339.99 113.022 339.738C113.142 339.498 113.22 339.252 113.256 339H112.392V337.164H114.228V338.46C114.228 338.952 114.15 339.408 113.994 339.828C113.838 340.248 113.556 340.656 113.148 341.052ZM121.542 339V326.31H126.564C127.932 326.31 128.976 326.628 129.696 327.264C130.428 327.9 130.794 328.806 130.794 329.982C130.794 330.918 130.536 331.686 130.02 332.286C129.516 332.886 128.796 333.276 127.86 333.456C128.412 333.648 128.886 334.116 129.282 334.86L131.514 339H129.894L127.698 334.932C127.422 334.428 127.104 334.086 126.744 333.906C126.384 333.726 125.91 333.636 125.322 333.636H123.018V339H121.542ZM123.018 332.466H126.348C128.34 332.466 129.336 331.638 129.336 329.982C129.336 328.35 128.34 327.534 126.348 327.534H123.018V332.466ZM133.205 328.074V326.436H135.005V328.074H133.205ZM133.385 339V330.252H134.843V339H133.385ZM141.439 342.402C140.683 342.402 139.969 342.3 139.297 342.096C138.637 341.904 138.049 341.61 137.533 341.214L138.019 340.152C138.559 340.536 139.093 340.812 139.621 340.98C140.161 341.148 140.743 341.232 141.367 341.232C143.095 341.232 143.959 340.344 143.959 338.568V337.02C143.707 337.572 143.311 338.01 142.771 338.334C142.243 338.646 141.637 338.802 140.953 338.802C140.149 338.802 139.453 338.616 138.865 338.244C138.277 337.872 137.821 337.362 137.497 336.714C137.185 336.054 137.029 335.292 137.029 334.428C137.029 333.564 137.185 332.808 137.497 332.16C137.821 331.5 138.277 330.99 138.865 330.63C139.453 330.27 140.149 330.09 140.953 330.09C141.637 330.09 142.243 330.246 142.771 330.558C143.311 330.87 143.707 331.296 143.959 331.836V330.252H145.381V338.37C145.381 339.714 145.045 340.722 144.373 341.394C143.713 342.066 142.735 342.402 141.439 342.402ZM141.223 337.614C142.063 337.614 142.729 337.326 143.221 336.75C143.713 336.174 143.959 335.4 143.959 334.428C143.959 333.456 143.713 332.688 143.221 332.124C142.729 331.548 142.063 331.26 141.223 331.26C140.395 331.26 139.735 331.548 139.243 332.124C138.751 332.688 138.505 333.456 138.505 334.428C138.505 335.4 138.751 336.174 139.243 336.75C139.735 337.326 140.395 337.614 141.223 337.614ZM148.116 339V326.31H149.574V331.692C149.862 331.164 150.264 330.768 150.78 330.504C151.308 330.228 151.896 330.09 152.544 330.09C154.62 330.09 155.658 331.242 155.658 333.546V339H154.2V333.636C154.2 332.82 154.038 332.226 153.714 331.854C153.402 331.47 152.898 331.278 152.202 331.278C151.398 331.278 150.756 331.53 150.276 332.034C149.808 332.526 149.574 333.186 149.574 334.014V339H148.116ZM161.856 339.162C160.824 339.162 160.05 338.892 159.534 338.352C159.018 337.8 158.76 337.008 158.76 335.976V331.386H157.05V330.252H158.76V327.57H160.218V330.252H162.99V331.386H160.218V335.832C160.218 336.516 160.362 337.038 160.65 337.398C160.938 337.746 161.406 337.92 162.054 337.92C162.246 337.92 162.438 337.896 162.63 337.848C162.822 337.8 162.996 337.752 163.152 337.704L163.404 338.82C163.248 338.904 163.02 338.982 162.72 339.054C162.42 339.126 162.132 339.162 161.856 339.162ZM172.88 339L168.434 326.31H169.982L173.564 336.84L177.236 326.31H178.424L182.06 336.93L185.714 326.31H187.19L182.744 339H181.43L177.812 328.56L174.158 339H172.88ZM189.073 339V326.31H190.531V331.692C190.819 331.164 191.221 330.768 191.737 330.504C192.265 330.228 192.853 330.09 193.501 330.09C195.577 330.09 196.615 331.242 196.615 333.546V339H195.157V333.636C195.157 332.82 194.995 332.226 194.671 331.854C194.359 331.47 193.855 331.278 193.159 331.278C192.355 331.278 191.713 331.53 191.233 332.034C190.765 332.526 190.531 333.186 190.531 334.014V339H189.073ZM203.245 339.162C201.865 339.162 200.773 338.76 199.969 337.956C199.165 337.14 198.763 336.036 198.763 334.644C198.763 333.744 198.943 332.952 199.303 332.268C199.663 331.572 200.155 331.038 200.779 330.666C201.415 330.282 202.147 330.09 202.975 330.09C204.163 330.09 205.093 330.474 205.765 331.242C206.437 331.998 206.773 333.042 206.773 334.374V334.932H200.185C200.233 335.928 200.521 336.69 201.049 337.218C201.577 337.734 202.309 337.992 203.245 337.992C203.773 337.992 204.277 337.914 204.757 337.758C205.237 337.59 205.693 337.32 206.125 336.948L206.629 337.974C206.233 338.346 205.729 338.64 205.117 338.856C204.505 339.06 203.881 339.162 203.245 339.162ZM203.011 331.17C202.183 331.17 201.529 331.428 201.049 331.944C200.569 332.46 200.287 333.138 200.203 333.978H205.513C205.477 333.09 205.243 332.4 204.811 331.908C204.391 331.416 203.791 331.17 203.011 331.17ZM208.883 339V330.252H210.305V331.746C210.593 331.194 211.001 330.78 211.529 330.504C212.057 330.228 212.651 330.09 213.311 330.09C215.387 330.09 216.425 331.242 216.425 333.546V339H214.967V333.636C214.967 332.82 214.805 332.226 214.481 331.854C214.169 331.47 213.665 331.278 212.969 331.278C212.165 331.278 211.523 331.53 211.043 332.034C210.575 332.526 210.341 333.186 210.341 334.014V339H208.883ZM226.995 339V332.988L222.135 326.31H223.863L227.769 331.692L231.657 326.31H233.331L228.471 333.024V339H226.995ZM236.672 339.162C235.82 339.162 235.082 338.976 234.458 338.604C233.834 338.232 233.348 337.71 233 337.038C232.664 336.354 232.496 335.55 232.496 334.626C232.496 333.702 232.664 332.904 233 332.232C233.348 331.548 233.834 331.02 234.458 330.648C235.082 330.276 235.82 330.09 236.672 330.09C237.512 330.09 238.244 330.276 238.868 330.648C239.504 331.02 239.99 331.548 240.326 332.232C240.674 332.904 240.848 333.702 240.848 334.626C240.848 335.55 240.674 336.354 240.326 337.038C239.99 337.71 239.504 338.232 238.868 338.604C238.244 338.976 237.512 339.162 236.672 339.162ZM236.672 337.992C237.488 337.992 238.142 337.704 238.634 337.128C239.126 336.54 239.372 335.706 239.372 334.626C239.372 333.534 239.126 332.7 238.634 332.124C238.142 331.548 237.488 331.26 236.672 331.26C235.844 331.26 235.184 331.548 234.692 332.124C234.212 332.7 233.972 333.534 233.972 334.626C233.972 335.706 234.212 336.54 234.692 337.128C235.184 337.704 235.844 337.992 236.672 337.992ZM246.134 339.162C244.034 339.162 242.984 338.004 242.984 335.688V330.252H244.442V335.67C244.442 336.45 244.598 337.026 244.91 337.398C245.234 337.77 245.738 337.956 246.422 337.956C247.166 337.956 247.772 337.71 248.24 337.218C248.708 336.714 248.942 336.048 248.942 335.22V330.252H250.4V339H248.978V337.524C248.702 338.052 248.312 338.46 247.808 338.748C247.316 339.024 246.758 339.162 246.134 339.162ZM257.949 339V326.31H259.101L266.751 336.516V326.31H268.119V339H267.003L259.335 328.758V339H257.949ZM275.017 339.162C273.637 339.162 272.545 338.76 271.741 337.956C270.937 337.14 270.535 336.036 270.535 334.644C270.535 333.744 270.715 332.952 271.075 332.268C271.435 331.572 271.927 331.038 272.551 330.666C273.187 330.282 273.919 330.09 274.747 330.09C275.935 330.09 276.865 330.474 277.537 331.242C278.209 331.998 278.545 333.042 278.545 334.374V334.932H271.957C272.005 335.928 272.293 336.69 272.821 337.218C273.349 337.734 274.081 337.992 275.017 337.992C275.545 337.992 276.049 337.914 276.529 337.758C277.009 337.59 277.465 337.32 277.897 336.948L278.401 337.974C278.005 338.346 277.501 338.64 276.889 338.856C276.277 339.06 275.653 339.162 275.017 339.162ZM274.783 331.17C273.955 331.17 273.301 331.428 272.821 331.944C272.341 332.46 272.059 333.138 271.975 333.978H277.285C277.249 333.09 277.015 332.4 276.583 331.908C276.163 331.416 275.563 331.17 274.783 331.17ZM284.597 339.162C283.217 339.162 282.125 338.76 281.321 337.956C280.517 337.14 280.115 336.036 280.115 334.644C280.115 333.744 280.295 332.952 280.655 332.268C281.015 331.572 281.507 331.038 282.131 330.666C282.767 330.282 283.499 330.09 284.327 330.09C285.515 330.09 286.445 330.474 287.117 331.242C287.789 331.998 288.125 333.042 288.125 334.374V334.932H281.537C281.585 335.928 281.873 336.69 282.401 337.218C282.929 337.734 283.661 337.992 284.597 337.992C285.125 337.992 285.629 337.914 286.109 337.758C286.589 337.59 287.045 337.32 287.477 336.948L287.981 337.974C287.585 338.346 287.081 338.64 286.469 338.856C285.857 339.06 285.233 339.162 284.597 339.162ZM284.363 331.17C283.535 331.17 282.881 331.428 282.401 331.944C281.921 332.46 281.639 333.138 281.555 333.978H286.865C286.829 333.09 286.595 332.4 286.163 331.908C285.743 331.416 285.143 331.17 284.363 331.17ZM293.565 339.162C292.785 339.162 292.101 338.976 291.513 338.604C290.937 338.232 290.487 337.71 290.163 337.038C289.851 336.354 289.695 335.55 289.695 334.626C289.695 333.69 289.851 332.886 290.163 332.214C290.487 331.53 290.937 331.008 291.513 330.648C292.101 330.276 292.785 330.09 293.565 330.09C294.249 330.09 294.849 330.24 295.365 330.54C295.893 330.84 296.283 331.254 296.535 331.782V326.31H297.993V339H296.571V337.398C296.319 337.95 295.929 338.382 295.401 338.694C294.873 339.006 294.261 339.162 293.565 339.162ZM293.871 337.992C294.687 337.992 295.341 337.704 295.833 337.128C296.325 336.54 296.571 335.706 296.571 334.626C296.571 333.534 296.325 332.7 295.833 332.124C295.341 331.548 294.687 331.26 293.871 331.26C293.043 331.26 292.383 331.548 291.891 332.124C291.411 332.7 291.171 333.534 291.171 334.626C291.171 335.706 291.411 336.54 291.891 337.128C292.383 337.704 293.043 337.992 293.871 337.992ZM305.55 339V326.31H307.026V339H305.55ZM313.468 339.162C312.436 339.162 311.662 338.892 311.146 338.352C310.63 337.8 310.372 337.008 310.372 335.976V331.386H308.662V330.252H310.372V327.57H311.83V330.252H314.602V331.386H311.83V335.832C311.83 336.516 311.974 337.038 312.262 337.398C312.55 337.746 313.018 337.92 313.666 337.92C313.858 337.92 314.05 337.896 314.242 337.848C314.434 337.8 314.608 337.752 314.764 337.704L315.016 338.82C314.86 338.904 314.632 338.982 314.332 339.054C314.032 339.126 313.744 339.162 313.468 339.162ZM316.263 339V337.164H318.099V339H316.263Z" fill="#9099AB"/>
<path d="M55.4732 369V367.884L59.8112 363.204C60.4232 362.532 60.8612 361.92 61.1252 361.368C61.4012 360.816 61.5392 360.252 61.5392 359.676C61.5392 358.2 60.6812 357.462 58.9652 357.462C57.6812 357.462 56.5472 357.942 55.5632 358.902L55.0052 357.75C55.4732 357.27 56.0672 356.886 56.7872 356.598C57.5192 356.298 58.2872 356.148 59.0912 356.148C60.3632 356.148 61.3352 356.448 62.0072 357.048C62.6912 357.636 63.0332 358.476 63.0332 359.568C63.0332 360.324 62.8472 361.068 62.4752 361.8C62.1032 362.52 61.5332 363.288 60.7652 364.104L57.3632 367.74H63.5552V369H55.4732ZM71.4322 369V366.282H65.5822V365.166L71.6842 356.31H72.9262V365.022H74.8162V366.282H72.9262V369H71.4322ZM71.4322 365.022V358.74L67.1122 365.022H71.4322ZM76.2491 370.134L75.0971 369.792L79.7051 355.464L80.8751 355.806L76.2491 370.134ZM82.5528 369L88.4568 357.588H81.7428V356.31H90.1308V357.426L84.1908 369H82.5528ZM97.5188 369V356.31H105.529V357.552H98.9588V361.944H105.151V363.186H98.9588V367.758H105.529V369H97.5188ZM107.851 369V360.252H109.273V361.728C109.537 361.2 109.903 360.798 110.371 360.522C110.839 360.234 111.385 360.09 112.009 360.09C113.377 360.09 114.253 360.684 114.637 361.872C114.901 361.32 115.291 360.888 115.807 360.576C116.323 360.252 116.917 360.09 117.589 360.09C119.533 360.09 120.505 361.242 120.505 363.546V369H119.047V363.618C119.047 362.814 118.903 362.226 118.615 361.854C118.339 361.47 117.877 361.278 117.229 361.278C116.521 361.278 115.957 361.53 115.537 362.034C115.117 362.538 114.907 363.21 114.907 364.05V369H113.449V363.618C113.449 362.814 113.305 362.226 113.017 361.854C112.741 361.47 112.279 361.278 111.631 361.278C110.911 361.278 110.341 361.53 109.921 362.034C109.513 362.538 109.309 363.21 109.309 364.05V369H107.851ZM127.173 369.162C125.793 369.162 124.701 368.76 123.897 367.956C123.093 367.14 122.691 366.036 122.691 364.644C122.691 363.744 122.871 362.952 123.231 362.268C123.591 361.572 124.083 361.038 124.707 360.666C125.343 360.282 126.075 360.09 126.903 360.09C128.091 360.09 129.021 360.474 129.693 361.242C130.365 361.998 130.701 363.042 130.701 364.374V364.932H124.113C124.161 365.928 124.449 366.69 124.977 367.218C125.505 367.734 126.237 367.992 127.173 367.992C127.701 367.992 128.205 367.914 128.685 367.758C129.165 367.59 129.621 367.32 130.053 366.948L130.557 367.974C130.161 368.346 129.657 368.64 129.045 368.856C128.433 369.06 127.809 369.162 127.173 369.162ZM126.939 361.17C126.111 361.17 125.457 361.428 124.977 361.944C124.497 362.46 124.215 363.138 124.131 363.978H129.441C129.405 363.09 129.171 362.4 128.739 361.908C128.319 361.416 127.719 361.17 126.939 361.17ZM132.811 369V360.252H134.233V361.818C134.701 360.762 135.661 360.18 137.113 360.072L137.635 360.018L137.743 361.278L136.825 361.386C135.997 361.458 135.367 361.722 134.935 362.178C134.503 362.622 134.287 363.234 134.287 364.014V369H132.811ZM143.027 372.402C142.271 372.402 141.557 372.3 140.885 372.096C140.225 371.904 139.637 371.61 139.121 371.214L139.607 370.152C140.147 370.536 140.681 370.812 141.209 370.98C141.749 371.148 142.331 371.232 142.955 371.232C144.683 371.232 145.547 370.344 145.547 368.568V367.02C145.295 367.572 144.899 368.01 144.359 368.334C143.831 368.646 143.225 368.802 142.541 368.802C141.737 368.802 141.041 368.616 140.453 368.244C139.865 367.872 139.409 367.362 139.085 366.714C138.773 366.054 138.617 365.292 138.617 364.428C138.617 363.564 138.773 362.808 139.085 362.16C139.409 361.5 139.865 360.99 140.453 360.63C141.041 360.27 141.737 360.09 142.541 360.09C143.225 360.09 143.831 360.246 144.359 360.558C144.899 360.87 145.295 361.296 145.547 361.836V360.252H146.969V368.37C146.969 369.714 146.633 370.722 145.961 371.394C145.301 372.066 144.323 372.402 143.027 372.402ZM142.811 367.614C143.651 367.614 144.317 367.326 144.809 366.75C145.301 366.174 145.547 365.4 145.547 364.428C145.547 363.456 145.301 362.688 144.809 362.124C144.317 361.548 143.651 361.26 142.811 361.26C141.983 361.26 141.323 361.548 140.831 362.124C140.339 362.688 140.093 363.456 140.093 364.428C140.093 365.4 140.339 366.174 140.831 366.75C141.323 367.326 141.983 367.614 142.811 367.614ZM153.646 369.162C152.266 369.162 151.174 368.76 150.37 367.956C149.566 367.14 149.164 366.036 149.164 364.644C149.164 363.744 149.344 362.952 149.704 362.268C150.064 361.572 150.556 361.038 151.18 360.666C151.816 360.282 152.548 360.09 153.376 360.09C154.564 360.09 155.494 360.474 156.166 361.242C156.838 361.998 157.174 363.042 157.174 364.374V364.932H150.586C150.634 365.928 150.922 366.69 151.45 367.218C151.978 367.734 152.71 367.992 153.646 367.992C154.174 367.992 154.678 367.914 155.158 367.758C155.638 367.59 156.094 367.32 156.526 366.948L157.03 367.974C156.634 368.346 156.13 368.64 155.518 368.856C154.906 369.06 154.282 369.162 153.646 369.162ZM153.412 361.17C152.584 361.17 151.93 361.428 151.45 361.944C150.97 362.46 150.688 363.138 150.604 363.978H155.914C155.878 363.09 155.644 362.4 155.212 361.908C154.792 361.416 154.192 361.17 153.412 361.17ZM159.284 369V360.252H160.706V361.746C160.994 361.194 161.402 360.78 161.93 360.504C162.458 360.228 163.052 360.09 163.712 360.09C165.788 360.09 166.826 361.242 166.826 363.546V369H165.368V363.636C165.368 362.82 165.206 362.226 164.882 361.854C164.57 361.47 164.066 361.278 163.37 361.278C162.566 361.278 161.924 361.53 161.444 362.034C160.976 362.526 160.742 363.186 160.742 364.014V369H159.284ZM173.222 369.162C172.346 369.162 171.59 368.976 170.954 368.604C170.318 368.22 169.826 367.686 169.478 367.002C169.142 366.306 168.974 365.496 168.974 364.572C168.974 363.18 169.352 362.088 170.108 361.296C170.864 360.492 171.902 360.09 173.222 360.09C173.762 360.09 174.296 360.186 174.824 360.378C175.352 360.57 175.79 360.84 176.138 361.188L175.634 362.25C175.286 361.914 174.902 361.668 174.482 361.512C174.074 361.356 173.684 361.278 173.312 361.278C172.4 361.278 171.698 361.566 171.206 362.142C170.714 362.706 170.468 363.522 170.468 364.59C170.468 365.634 170.714 366.462 171.206 367.074C171.698 367.674 172.4 367.974 173.312 367.974C173.684 367.974 174.074 367.896 174.482 367.74C174.902 367.584 175.286 367.332 175.634 366.984L176.138 368.046C175.79 368.394 175.346 368.67 174.806 368.874C174.278 369.066 173.75 369.162 173.222 369.162ZM178.925 372.24L180.419 368.856L176.729 360.252H178.313L181.211 367.344L184.127 360.252H185.657L180.455 372.24H178.925ZM190.76 369L196.358 356.31H197.618L203.216 369H201.686L200.282 365.76H193.676L192.29 369H190.76ZM196.97 358.038L194.216 364.518H199.76L197.006 358.038H196.97ZM207.745 369.162C207.061 369.162 206.413 369.066 205.801 368.874C205.189 368.682 204.685 368.412 204.289 368.064L204.757 367.038C205.189 367.386 205.663 367.644 206.179 367.812C206.707 367.968 207.241 368.046 207.781 368.046C208.465 368.046 208.981 367.92 209.329 367.668C209.677 367.416 209.851 367.074 209.851 366.642C209.851 366.306 209.737 366.042 209.509 365.85C209.281 365.646 208.921 365.49 208.429 365.382L206.791 365.022C205.303 364.698 204.559 363.93 204.559 362.718C204.559 361.926 204.871 361.29 205.495 360.81C206.131 360.33 206.959 360.09 207.979 360.09C208.579 360.09 209.149 360.186 209.689 360.378C210.241 360.558 210.697 360.828 211.057 361.188L210.571 362.214C210.223 361.89 209.815 361.644 209.347 361.476C208.891 361.296 208.435 361.206 207.979 361.206C207.307 361.206 206.797 361.338 206.449 361.602C206.101 361.866 205.927 362.214 205.927 362.646C205.927 363.318 206.371 363.75 207.259 363.942L208.897 364.284C209.665 364.452 210.247 364.722 210.643 365.094C211.039 365.454 211.237 365.946 211.237 366.57C211.237 367.374 210.919 368.01 210.283 368.478C209.647 368.934 208.801 369.162 207.745 369.162ZM216.411 369.162C215.727 369.162 215.079 369.066 214.467 368.874C213.855 368.682 213.351 368.412 212.955 368.064L213.423 367.038C213.855 367.386 214.329 367.644 214.845 367.812C215.373 367.968 215.907 368.046 216.447 368.046C217.131 368.046 217.647 367.92 217.995 367.668C218.343 367.416 218.517 367.074 218.517 366.642C218.517 366.306 218.403 366.042 218.175 365.85C217.947 365.646 217.587 365.49 217.095 365.382L215.457 365.022C213.969 364.698 213.225 363.93 213.225 362.718C213.225 361.926 213.537 361.29 214.161 360.81C214.797 360.33 215.625 360.09 216.645 360.09C217.245 360.09 217.815 360.186 218.355 360.378C218.907 360.558 219.363 360.828 219.723 361.188L219.237 362.214C218.889 361.89 218.481 361.644 218.013 361.476C217.557 361.296 217.101 361.206 216.645 361.206C215.973 361.206 215.463 361.338 215.115 361.602C214.767 361.866 214.593 362.214 214.593 362.646C214.593 363.318 215.037 363.75 215.925 363.942L217.563 364.284C218.331 364.452 218.913 364.722 219.309 365.094C219.705 365.454 219.903 365.946 219.903 366.57C219.903 367.374 219.585 368.01 218.949 368.478C218.313 368.934 217.467 369.162 216.411 369.162ZM221.946 358.074V356.436H223.746V358.074H221.946ZM222.126 369V360.252H223.584V369H222.126ZM229.261 369.162C228.577 369.162 227.929 369.066 227.317 368.874C226.705 368.682 226.201 368.412 225.805 368.064L226.273 367.038C226.705 367.386 227.179 367.644 227.695 367.812C228.223 367.968 228.757 368.046 229.297 368.046C229.981 368.046 230.497 367.92 230.845 367.668C231.193 367.416 231.367 367.074 231.367 366.642C231.367 366.306 231.253 366.042 231.025 365.85C230.797 365.646 230.437 365.49 229.945 365.382L228.307 365.022C226.819 364.698 226.075 363.93 226.075 362.718C226.075 361.926 226.387 361.29 227.011 360.81C227.647 360.33 228.475 360.09 229.495 360.09C230.095 360.09 230.665 360.186 231.205 360.378C231.757 360.558 232.213 360.828 232.573 361.188L232.087 362.214C231.739 361.89 231.331 361.644 230.863 361.476C230.407 361.296 229.951 361.206 229.495 361.206C228.823 361.206 228.313 361.338 227.965 361.602C227.617 361.866 227.443 362.214 227.443 362.646C227.443 363.318 227.887 363.75 228.775 363.942L230.413 364.284C231.181 364.452 231.763 364.722 232.159 365.094C232.555 365.454 232.753 365.946 232.753 366.57C232.753 367.374 232.435 368.01 231.799 368.478C231.163 368.934 230.317 369.162 229.261 369.162ZM238.397 369.162C237.365 369.162 236.591 368.892 236.075 368.352C235.559 367.8 235.301 367.008 235.301 365.976V361.386H233.591V360.252H235.301V357.57H236.759V360.252H239.531V361.386H236.759V365.832C236.759 366.516 236.903 367.038 237.191 367.398C237.479 367.746 237.947 367.92 238.595 367.92C238.787 367.92 238.979 367.896 239.171 367.848C239.363 367.8 239.537 367.752 239.693 367.704L239.945 368.82C239.789 368.904 239.561 368.982 239.261 369.054C238.961 369.126 238.673 369.162 238.397 369.162ZM243.934 369.162C243.334 369.162 242.794 369.048 242.314 368.82C241.846 368.58 241.474 368.256 241.198 367.848C240.922 367.44 240.784 366.984 240.784 366.48C240.784 365.844 240.946 365.34 241.27 364.968C241.606 364.596 242.152 364.332 242.908 364.176C243.676 364.008 244.72 363.924 246.04 363.924H246.616V363.366C246.616 362.622 246.46 362.088 246.148 361.764C245.848 361.428 245.362 361.26 244.69 361.26C244.162 361.26 243.652 361.338 243.16 361.494C242.668 361.638 242.164 361.878 241.648 362.214L241.144 361.152C241.6 360.828 242.152 360.57 242.8 360.378C243.46 360.186 244.09 360.09 244.69 360.09C245.818 360.09 246.652 360.366 247.192 360.918C247.744 361.47 248.02 362.328 248.02 363.492V369H246.652V367.488C246.424 368.004 246.07 368.412 245.59 368.712C245.122 369.012 244.57 369.162 243.934 369.162ZM244.168 368.064C244.888 368.064 245.476 367.818 245.932 367.326C246.388 366.822 246.616 366.186 246.616 365.418V364.878H246.058C245.086 364.878 244.318 364.926 243.754 365.022C243.202 365.106 242.812 365.262 242.584 365.49C242.368 365.706 242.26 366.006 242.26 366.39C242.26 366.882 242.428 367.284 242.764 367.596C243.112 367.908 243.58 368.064 244.168 368.064ZM250.725 369V360.252H252.147V361.746C252.435 361.194 252.843 360.78 253.371 360.504C253.899 360.228 254.493 360.09 255.153 360.09C257.229 360.09 258.267 361.242 258.267 363.546V369H256.809V363.636C256.809 362.82 256.647 362.226 256.323 361.854C256.011 361.47 255.507 361.278 254.811 361.278C254.007 361.278 253.365 361.53 252.885 362.034C252.417 362.526 252.183 363.186 252.183 364.014V369H250.725ZM264.664 369.162C263.788 369.162 263.032 368.976 262.396 368.604C261.76 368.22 261.268 367.686 260.92 367.002C260.584 366.306 260.416 365.496 260.416 364.572C260.416 363.18 260.794 362.088 261.55 361.296C262.306 360.492 263.344 360.09 264.664 360.09C265.204 360.09 265.738 360.186 266.266 360.378C266.794 360.57 267.232 360.84 267.58 361.188L267.076 362.25C266.728 361.914 266.344 361.668 265.924 361.512C265.516 361.356 265.126 361.278 264.754 361.278C263.842 361.278 263.14 361.566 262.648 362.142C262.156 362.706 261.91 363.522 261.91 364.59C261.91 365.634 262.156 366.462 262.648 367.074C263.14 367.674 263.842 367.974 264.754 367.974C265.126 367.974 265.516 367.896 265.924 367.74C266.344 367.584 266.728 367.332 267.076 366.984L267.58 368.046C267.232 368.394 266.788 368.67 266.248 368.874C265.72 369.066 265.192 369.162 264.664 369.162ZM273.054 369.162C271.674 369.162 270.582 368.76 269.778 367.956C268.974 367.14 268.572 366.036 268.572 364.644C268.572 363.744 268.752 362.952 269.112 362.268C269.472 361.572 269.964 361.038 270.588 360.666C271.224 360.282 271.956 360.09 272.784 360.09C273.972 360.09 274.902 360.474 275.574 361.242C276.246 361.998 276.582 363.042 276.582 364.374V364.932H269.994C270.042 365.928 270.33 366.69 270.858 367.218C271.386 367.734 272.118 367.992 273.054 367.992C273.582 367.992 274.086 367.914 274.566 367.758C275.046 367.59 275.502 367.32 275.934 366.948L276.438 367.974C276.042 368.346 275.538 368.64 274.926 368.856C274.314 369.06 273.69 369.162 273.054 369.162ZM272.82 361.17C271.992 361.17 271.338 361.428 270.858 361.944C270.378 362.46 270.096 363.138 270.012 363.978H275.322C275.286 363.09 275.052 362.4 274.62 361.908C274.2 361.416 273.6 361.17 272.82 361.17Z" fill="#9099AB"/>
<mask id="mask0_1_139" style="mask-type:alpha" maskUnits="userSpaceOnUse" x="136" y="137" width="59" height="58">
<rect x="136.853" y="137" width="58" height="58" fill="#D9D9D9"/>
</mask>
<g mask="url(#mask0_1_139)">
<path d="M151.353 173.25V175.667C151.353 176.351 151.122 176.925 150.658 177.388C150.195 177.852 149.621 178.083 148.937 178.083H146.52C145.835 178.083 145.261 177.852 144.798 177.388C144.335 176.925 144.103 176.351 144.103 175.667V156.333L149.178 141.833C149.42 141.108 149.853 140.524 150.477 140.081C151.101 139.638 151.796 139.417 152.562 139.417H179.145C179.91 139.417 180.605 139.638 181.229 140.081C181.854 140.524 182.287 141.108 182.528 141.833L187.603 156.333V175.667C187.603 176.351 187.372 176.925 186.908 177.388C186.445 177.852 185.871 178.083 185.187 178.083H182.77C182.085 178.083 181.511 177.852 181.048 177.388C180.585 176.925 180.353 176.351 180.353 175.667V173.25H151.353ZM150.87 151.5H180.837L178.299 144.25H153.407L150.87 151.5ZM154.978 166C155.985 166 156.841 165.647 157.546 164.943C158.251 164.238 158.603 163.382 158.603 162.375C158.603 161.368 158.251 160.512 157.546 159.807C156.841 159.102 155.985 158.75 154.978 158.75C153.971 158.75 153.115 159.102 152.411 159.807C151.706 160.512 151.353 161.368 151.353 162.375C151.353 163.382 151.706 164.238 152.411 164.943C153.115 165.647 153.971 166 154.978 166ZM176.728 166C177.735 166 178.591 165.647 179.296 164.943C180.001 164.238 180.353 163.382 180.353 162.375C180.353 161.368 180.001 160.512 179.296 159.807C178.591 159.102 177.735 158.75 176.728 158.75C175.721 158.75 174.865 159.102 174.161 159.807C173.456 160.512 173.103 161.368 173.103 162.375C173.103 163.382 173.456 164.238 174.161 164.943C174.865 165.647 175.721 166 176.728 166ZM168.27 192.583L153.77 185.333H163.437V180.5L177.937 187.75H168.27V192.583ZM148.937 168.417H182.77V156.333H148.937V168.417Z" fill="#F0F6FF"/>
</g>
</svg>
