<svg width="333" height="376" viewBox="0 0 333 376" fill="none" xmlns="http://www.w3.org/2000/svg">
<path d="M220.936 99.9146C227.597 98.9056 233.33 104.638 232.321 111.299L224.298 164.267C224.147 165.26 224.147 166.269 224.298 167.262L232.321 220.23C233.33 226.891 227.597 232.623 220.936 231.614L167.969 223.591C166.976 223.441 165.966 223.441 164.973 223.591L112.006 231.614C105.345 232.623 99.612 226.891 100.621 220.23L108.644 167.262C108.794 166.269 108.794 165.26 108.644 164.267L100.621 111.299C99.6121 104.638 105.345 98.9056 112.006 99.9146L164.973 107.938C165.966 108.088 166.976 108.088 167.969 107.938L220.936 99.9146Z" fill="#42A5F5"/>
<path d="M235.938 85.3356C242.266 84.377 247.712 89.8231 246.753 96.1512L236.469 164.045C236.311 165.088 236.311 166.148 236.469 167.19L246.753 235.084C247.712 241.412 242.266 246.858 235.938 245.9L168.043 235.616C167.001 235.458 165.941 235.458 164.898 235.616L97.0044 245.9C90.6763 246.858 85.2302 241.412 86.1888 235.084L96.4728 167.19C96.6307 166.148 96.6307 165.088 96.4728 164.045L86.1888 96.1512C85.2302 89.8231 90.6763 84.377 97.0044 85.3356L164.898 95.6196C165.941 95.7775 167.001 95.7775 168.043 95.6196L235.938 85.3356Z" stroke="#42A5F5" stroke-opacity="0.6"/>
<path d="M19.0629 305.592L16.1829 300.952C15.5003 299.843 14.3909 299.288 12.8549 299.288C10.7216 299.288 8.86561 298.819 7.28695 297.88C5.70828 296.92 4.48161 295.576 3.60695 293.848C2.75361 292.099 2.32695 290.051 2.32695 287.704C2.32695 285.336 2.75361 283.288 3.60695 281.56C4.48161 279.832 5.70828 278.499 7.28695 277.56C8.86561 276.621 10.7323 276.152 12.8869 276.152C15.0203 276.152 16.8763 276.621 18.4549 277.56C20.0549 278.499 21.2816 279.832 22.1349 281.56C23.0096 283.288 23.4469 285.325 23.4469 287.672C23.4469 290.339 22.8923 292.611 21.7829 294.488C20.6949 296.344 19.1909 297.677 17.2709 298.488C18.1456 298.765 18.9243 299.491 19.6069 300.664L21.8469 304.216L19.0629 305.592ZM12.8869 296.408C15.1269 296.408 16.8656 295.651 18.1029 294.136C19.3616 292.6 19.9909 290.456 19.9909 287.704C19.9909 284.952 19.3723 282.819 18.1349 281.304C16.8976 279.789 15.1483 279.032 12.8869 279.032C10.6469 279.032 8.89761 279.789 7.63895 281.304C6.40161 282.819 5.78295 284.952 5.78295 287.704C5.78295 290.456 6.40161 292.6 7.63895 294.136C8.89761 295.651 10.6469 296.408 12.8869 296.408ZM37.0274 299.288C34.0194 299.288 31.7154 298.499 30.1154 296.92C28.5368 295.32 27.7474 292.984 27.7474 289.912V276.44H31.0754V289.848C31.0754 294.221 33.0594 296.408 37.0274 296.408C40.9954 296.408 42.9794 294.221 42.9794 289.848V276.44H46.2434V289.912C46.2434 292.984 45.4648 295.32 43.9074 296.92C42.3501 298.499 40.0568 299.288 37.0274 299.288ZM48.9479 299L58.9959 276.44H61.7479L71.8279 299H68.4359L66.0679 293.496H54.6439L52.3079 299H48.9479ZM60.3399 280.12L55.8279 290.808H64.9479L60.4039 280.12H60.3399ZM74.7824 299V276.44H78.1104V296.152H89.2784V299H74.7824ZM92.4387 299V276.44H95.7667V299H92.4387ZM100.97 299V276.44H115.306V279.128H104.298V286.328H114.634V289.016H104.298V299H100.97ZM118.689 299V276.44H122.017V299H118.689ZM127.22 299V276.44H141.812V279.128H130.42V286.2H141.14V288.888H130.42V296.312H141.812V299H127.22ZM146.064 299V276.44H154.032C157.744 276.44 160.602 277.411 162.608 279.352C164.634 281.293 165.648 284.077 165.648 287.704C165.648 291.331 164.634 294.125 162.608 296.088C160.602 298.029 157.744 299 154.032 299H146.064ZM149.392 296.216H153.84C159.408 296.216 162.192 293.379 162.192 287.704C162.192 282.051 159.408 279.224 153.84 279.224H149.392V296.216ZM178.501 299V276.44H186.469C190.181 276.44 193.04 277.411 195.045 279.352C197.072 281.293 198.085 284.077 198.085 287.704C198.085 291.331 197.072 294.125 195.045 296.088C193.04 298.029 190.181 299 186.469 299H178.501ZM181.829 296.216H186.277C191.845 296.216 194.629 293.379 194.629 287.704C194.629 282.051 191.845 279.224 186.277 279.224H181.829V296.216ZM212.324 299.288C210.17 299.288 208.303 298.819 206.724 297.88C205.146 296.92 203.919 295.576 203.044 293.848C202.191 292.099 201.764 290.051 201.764 287.704C201.764 285.336 202.191 283.288 203.044 281.56C203.919 279.832 205.146 278.499 206.724 277.56C208.303 276.621 210.17 276.152 212.324 276.152C214.458 276.152 216.314 276.621 217.892 277.56C219.492 278.499 220.719 279.832 221.572 281.56C222.447 283.288 222.884 285.325 222.884 287.672C222.884 290.04 222.447 292.099 221.572 293.848C220.719 295.576 219.492 296.92 217.892 297.88C216.314 298.819 214.458 299.288 212.324 299.288ZM212.324 296.408C214.564 296.408 216.303 295.651 217.54 294.136C218.799 292.6 219.428 290.456 219.428 287.704C219.428 284.952 218.81 282.819 217.572 281.304C216.335 279.789 214.586 279.032 212.324 279.032C210.084 279.032 208.335 279.789 207.076 281.304C205.839 282.819 205.22 284.952 205.22 287.704C205.22 290.456 205.839 292.6 207.076 294.136C208.335 295.651 210.084 296.408 212.324 296.408ZM237.457 299.288C235.174 299.288 233.222 298.819 231.601 297.88C229.98 296.941 228.732 295.608 227.857 293.88C227.004 292.131 226.577 290.072 226.577 287.704C226.577 285.336 227.004 283.288 227.857 281.56C228.732 279.832 229.98 278.499 231.601 277.56C233.222 276.621 235.174 276.152 237.457 276.152C238.993 276.152 240.422 276.397 241.745 276.888C243.089 277.357 244.209 278.04 245.105 278.936L243.953 281.592C242.972 280.717 241.958 280.088 240.913 279.704C239.889 279.299 238.769 279.096 237.553 279.096C235.121 279.096 233.265 279.843 231.985 281.336C230.705 282.829 230.065 284.952 230.065 287.704C230.065 290.456 230.705 292.589 231.985 294.104C233.265 295.597 235.121 296.344 237.553 296.344C238.769 296.344 239.889 296.152 240.913 295.768C241.958 295.363 242.972 294.723 243.953 293.848L245.105 296.504C244.209 297.379 243.089 298.061 241.745 298.552C240.422 299.043 238.993 299.288 237.457 299.288ZM254.161 299V279.224H246.161V276.44H265.457V279.224H257.457V299H254.161ZM276.606 299.288C274.451 299.288 272.584 298.819 271.006 297.88C269.427 296.92 268.2 295.576 267.326 293.848C266.472 292.099 266.046 290.051 266.046 287.704C266.046 285.336 266.472 283.288 267.326 281.56C268.2 279.832 269.427 278.499 271.006 277.56C272.584 276.621 274.451 276.152 276.606 276.152C278.739 276.152 280.595 276.621 282.174 277.56C283.774 278.499 285 279.832 285.854 281.56C286.728 283.288 287.166 285.325 287.166 287.672C287.166 290.04 286.728 292.099 285.854 293.848C285 295.576 283.774 296.92 282.174 297.88C280.595 298.819 278.739 299.288 276.606 299.288ZM276.606 296.408C278.846 296.408 280.584 295.651 281.822 294.136C283.08 292.6 283.71 290.456 283.71 287.704C283.71 284.952 283.091 282.819 281.854 281.304C280.616 279.789 278.867 279.032 276.606 279.032C274.366 279.032 272.616 279.789 271.358 281.304C270.12 282.819 269.502 284.952 269.502 287.704C269.502 290.456 270.12 292.6 271.358 294.136C272.616 295.651 274.366 296.408 276.606 296.408ZM291.626 299V276.44H300.97C303.402 276.44 305.28 277.027 306.602 278.2C307.925 279.352 308.586 280.973 308.586 283.064C308.586 284.749 308.138 286.136 307.242 287.224C306.346 288.291 305.077 289.005 303.434 289.368C304.458 289.709 305.322 290.531 306.026 291.832L309.93 299H306.282L302.378 291.8C301.93 290.968 301.408 290.413 300.81 290.136C300.234 289.837 299.488 289.688 298.57 289.688H294.954V299H291.626ZM294.954 287.192H300.426C303.712 287.192 305.354 285.837 305.354 283.128C305.354 280.44 303.712 279.096 300.426 279.096H294.954V287.192ZM320.771 299.288C319.001 299.288 317.379 299.064 315.907 298.616C314.435 298.147 313.187 297.496 312.163 296.664L313.219 294.04C314.286 294.851 315.427 295.459 316.643 295.864C317.859 296.269 319.235 296.472 320.771 296.472C322.585 296.472 323.918 296.152 324.771 295.512C325.646 294.851 326.083 293.997 326.083 292.952C326.083 292.099 325.774 291.427 325.155 290.936C324.537 290.424 323.502 290.019 322.051 289.72L318.627 289.016C316.601 288.589 315.086 287.885 314.083 286.904C313.102 285.923 312.611 284.6 312.611 282.936C312.611 281.592 312.963 280.408 313.667 279.384C314.393 278.36 315.395 277.571 316.675 277.016C317.955 276.44 319.427 276.152 321.091 276.152C322.627 276.152 324.046 276.387 325.347 276.856C326.67 277.304 327.79 277.965 328.707 278.84L327.619 281.368C325.806 279.768 323.619 278.968 321.059 278.968C319.481 278.968 318.222 279.32 317.283 280.024C316.366 280.728 315.907 281.667 315.907 282.84C315.907 283.736 316.195 284.451 316.771 284.984C317.347 285.517 318.307 285.923 319.651 286.2L323.043 286.904C325.177 287.352 326.766 288.045 327.811 288.984C328.857 289.901 329.379 291.149 329.379 292.728C329.379 294.051 329.027 295.203 328.323 296.184C327.619 297.165 326.627 297.933 325.347 298.488C324.067 299.021 322.542 299.288 320.771 299.288Z" fill="#3F3F3F"/>
<path d="M72.0369 339V326.31H80.0469V327.552H73.4769V331.944H79.6689V333.186H73.4769V337.758H80.0469V339H72.0369ZM81.2171 339L84.8531 334.482L81.4331 330.252H83.1611L85.6991 333.474L88.2551 330.252H89.9651L86.5451 334.482L90.1811 339H88.4531L85.6811 335.526L82.9451 339H81.2171ZM91.7901 342.24V330.252H93.2121V331.818C93.4761 331.278 93.8661 330.858 94.3821 330.558C94.9101 330.246 95.5221 330.09 96.2181 330.09C96.9981 330.09 97.6761 330.276 98.2521 330.648C98.8401 331.008 99.2901 331.53 99.6021 332.214C99.9261 332.886 100.088 333.69 100.088 334.626C100.088 335.55 99.9261 336.354 99.6021 337.038C99.2901 337.71 98.8401 338.232 98.2521 338.604C97.6761 338.976 96.9981 339.162 96.2181 339.162C95.5461 339.162 94.9461 339.012 94.4181 338.712C93.8901 338.412 93.5001 337.998 93.2481 337.47V342.24H91.7901ZM95.9121 337.992C96.7281 337.992 97.3821 337.704 97.8741 337.128C98.3661 336.54 98.6121 335.706 98.6121 334.626C98.6121 333.534 98.3661 332.7 97.8741 332.124C97.3821 331.548 96.7281 331.26 95.9121 331.26C95.0961 331.26 94.4421 331.548 93.9501 332.124C93.4581 332.7 93.2121 333.534 93.2121 334.626C93.2121 335.706 93.4581 336.54 93.9501 337.128C94.4421 337.704 95.0961 337.992 95.9121 337.992ZM106.226 339.162C104.846 339.162 103.754 338.76 102.95 337.956C102.146 337.14 101.744 336.036 101.744 334.644C101.744 333.744 101.924 332.952 102.284 332.268C102.644 331.572 103.136 331.038 103.76 330.666C104.396 330.282 105.128 330.09 105.956 330.09C107.144 330.09 108.074 330.474 108.746 331.242C109.418 331.998 109.754 333.042 109.754 334.374V334.932H103.166C103.214 335.928 103.502 336.69 104.03 337.218C104.558 337.734 105.29 337.992 106.226 337.992C106.754 337.992 107.258 337.914 107.738 337.758C108.218 337.59 108.674 337.32 109.106 336.948L109.61 337.974C109.214 338.346 108.71 338.64 108.098 338.856C107.486 339.06 106.862 339.162 106.226 339.162ZM105.992 331.17C105.164 331.17 104.51 331.428 104.03 331.944C103.55 332.46 103.268 333.138 103.184 333.978H108.494C108.458 333.09 108.224 332.4 107.792 331.908C107.372 331.416 106.772 331.17 105.992 331.17ZM111.864 339V330.252H113.286V331.818C113.754 330.762 114.714 330.18 116.166 330.072L116.688 330.018L116.796 331.278L115.878 331.386C115.05 331.458 114.42 331.722 113.988 332.178C113.556 332.622 113.34 333.234 113.34 334.014V339H111.864ZM122.3 339.162C121.268 339.162 120.494 338.892 119.978 338.352C119.462 337.8 119.204 337.008 119.204 335.976V331.386H117.494V330.252H119.204V327.57H120.662V330.252H123.434V331.386H120.662V335.832C120.662 336.516 120.806 337.038 121.094 337.398C121.382 337.746 121.85 337.92 122.498 337.92C122.69 337.92 122.882 337.896 123.074 337.848C123.266 337.8 123.44 337.752 123.596 337.704L123.848 338.82C123.692 338.904 123.464 338.982 123.164 339.054C122.864 339.126 122.576 339.162 122.3 339.162ZM124.903 328.074V326.436H126.703V328.074H124.903ZM125.083 339V330.252H126.541V339H125.083ZM132.219 339.162C131.535 339.162 130.887 339.066 130.275 338.874C129.663 338.682 129.159 338.412 128.763 338.064L129.231 337.038C129.663 337.386 130.137 337.644 130.653 337.812C131.181 337.968 131.715 338.046 132.255 338.046C132.939 338.046 133.455 337.92 133.803 337.668C134.151 337.416 134.325 337.074 134.325 336.642C134.325 336.306 134.211 336.042 133.983 335.85C133.755 335.646 133.395 335.49 132.903 335.382L131.265 335.022C129.777 334.698 129.033 333.93 129.033 332.718C129.033 331.926 129.345 331.29 129.969 330.81C130.605 330.33 131.433 330.09 132.453 330.09C133.053 330.09 133.623 330.186 134.163 330.378C134.715 330.558 135.171 330.828 135.531 331.188L135.045 332.214C134.697 331.89 134.289 331.644 133.821 331.476C133.365 331.296 132.909 331.206 132.453 331.206C131.781 331.206 131.271 331.338 130.923 331.602C130.575 331.866 130.401 332.214 130.401 332.646C130.401 333.318 130.845 333.75 131.733 333.942L133.371 334.284C134.139 334.452 134.721 334.722 135.117 335.094C135.513 335.454 135.711 335.946 135.711 336.57C135.711 337.374 135.393 338.01 134.757 338.478C134.121 338.934 133.275 339.162 132.219 339.162ZM141.875 339.162C140.495 339.162 139.403 338.76 138.599 337.956C137.795 337.14 137.393 336.036 137.393 334.644C137.393 333.744 137.573 332.952 137.933 332.268C138.293 331.572 138.785 331.038 139.409 330.666C140.045 330.282 140.777 330.09 141.605 330.09C142.793 330.09 143.723 330.474 144.395 331.242C145.067 331.998 145.403 333.042 145.403 334.374V334.932H138.815C138.863 335.928 139.151 336.69 139.679 337.218C140.207 337.734 140.939 337.992 141.875 337.992C142.403 337.992 142.907 337.914 143.387 337.758C143.867 337.59 144.323 337.32 144.755 336.948L145.259 337.974C144.863 338.346 144.359 338.64 143.747 338.856C143.135 339.06 142.511 339.162 141.875 339.162ZM141.641 331.17C140.813 331.17 140.159 331.428 139.679 331.944C139.199 332.46 138.917 333.138 138.833 333.978H144.143C144.107 333.09 143.873 332.4 143.441 331.908C143.021 331.416 142.421 331.17 141.641 331.17ZM155.394 339V332.988L150.534 326.31H152.262L156.168 331.692L160.056 326.31H161.73L156.87 333.024V339H155.394ZM165.071 339.162C164.219 339.162 163.481 338.976 162.857 338.604C162.233 338.232 161.747 337.71 161.399 337.038C161.063 336.354 160.895 335.55 160.895 334.626C160.895 333.702 161.063 332.904 161.399 332.232C161.747 331.548 162.233 331.02 162.857 330.648C163.481 330.276 164.219 330.09 165.071 330.09C165.911 330.09 166.643 330.276 167.267 330.648C167.903 331.02 168.389 331.548 168.725 332.232C169.073 332.904 169.247 333.702 169.247 334.626C169.247 335.55 169.073 336.354 168.725 337.038C168.389 337.71 167.903 338.232 167.267 338.604C166.643 338.976 165.911 339.162 165.071 339.162ZM165.071 337.992C165.887 337.992 166.541 337.704 167.033 337.128C167.525 336.54 167.771 335.706 167.771 334.626C167.771 333.534 167.525 332.7 167.033 332.124C166.541 331.548 165.887 331.26 165.071 331.26C164.243 331.26 163.583 331.548 163.091 332.124C162.611 332.7 162.371 333.534 162.371 334.626C162.371 335.706 162.611 336.54 163.091 337.128C163.583 337.704 164.243 337.992 165.071 337.992ZM174.533 339.162C172.433 339.162 171.383 338.004 171.383 335.688V330.252H172.841V335.67C172.841 336.45 172.997 337.026 173.309 337.398C173.633 337.77 174.137 337.956 174.821 337.956C175.565 337.956 176.171 337.71 176.639 337.218C177.107 336.714 177.341 336.048 177.341 335.22V330.252H178.799V339H177.377V337.524C177.101 338.052 176.711 338.46 176.207 338.748C175.715 339.024 175.157 339.162 174.533 339.162ZM191.837 339.162C190.589 339.162 189.521 338.898 188.633 338.37C187.745 337.842 187.061 337.092 186.581 336.12C186.113 335.148 185.879 333.99 185.879 332.646C185.879 331.314 186.113 330.162 186.581 329.19C187.061 328.218 187.745 327.468 188.633 326.94C189.521 326.412 190.589 326.148 191.837 326.148C192.713 326.148 193.517 326.286 194.249 326.562C194.993 326.838 195.623 327.24 196.139 327.768L195.563 328.974C195.011 328.458 194.435 328.086 193.835 327.858C193.247 327.618 192.593 327.498 191.873 327.498C190.445 327.498 189.353 327.948 188.597 328.848C187.841 329.748 187.463 331.014 187.463 332.646C187.463 334.29 187.841 335.562 188.597 336.462C189.353 337.362 190.445 337.812 191.873 337.812C192.593 337.812 193.247 337.698 193.835 337.47C194.435 337.23 195.011 336.852 195.563 336.336L196.139 337.542C195.623 338.058 194.993 338.46 194.249 338.748C193.517 339.024 192.713 339.162 191.837 339.162ZM200.734 339.162C200.134 339.162 199.594 339.048 199.114 338.82C198.646 338.58 198.274 338.256 197.998 337.848C197.722 337.44 197.584 336.984 197.584 336.48C197.584 335.844 197.746 335.34 198.07 334.968C198.406 334.596 198.952 334.332 199.708 334.176C200.476 334.008 201.52 333.924 202.84 333.924H203.416V333.366C203.416 332.622 203.26 332.088 202.948 331.764C202.648 331.428 202.162 331.26 201.49 331.26C200.962 331.26 200.452 331.338 199.96 331.494C199.468 331.638 198.964 331.878 198.448 332.214L197.944 331.152C198.4 330.828 198.952 330.57 199.6 330.378C200.26 330.186 200.89 330.09 201.49 330.09C202.618 330.09 203.452 330.366 203.992 330.918C204.544 331.47 204.82 332.328 204.82 333.492V339H203.452V337.488C203.224 338.004 202.87 338.412 202.39 338.712C201.922 339.012 201.37 339.162 200.734 339.162ZM200.968 338.064C201.688 338.064 202.276 337.818 202.732 337.326C203.188 336.822 203.416 336.186 203.416 335.418V334.878H202.858C201.886 334.878 201.118 334.926 200.554 335.022C200.002 335.106 199.612 335.262 199.384 335.49C199.168 335.706 199.06 336.006 199.06 336.39C199.06 336.882 199.228 337.284 199.564 337.596C199.912 337.908 200.38 338.064 200.968 338.064ZM207.524 339V330.252H208.946V331.746C209.234 331.194 209.642 330.78 210.17 330.504C210.698 330.228 211.292 330.09 211.952 330.09C214.028 330.09 215.066 331.242 215.066 333.546V339H213.608V333.636C213.608 332.82 213.446 332.226 213.122 331.854C212.81 331.47 212.306 331.278 211.61 331.278C210.806 331.278 210.164 331.53 209.684 332.034C209.216 332.526 208.982 333.186 208.982 334.014V339H207.524ZM225.69 339V327.588H221.082V326.31H231.792V327.588H227.184V339H225.69ZM231.835 339V330.252H233.257V331.818C233.725 330.762 234.685 330.18 236.137 330.072L236.659 330.018L236.767 331.278L235.849 331.386C235.021 331.458 234.391 331.722 233.959 332.178C233.527 332.622 233.311 333.234 233.311 334.014V339H231.835ZM241.382 339.162C239.282 339.162 238.232 338.004 238.232 335.688V330.252H239.69V335.67C239.69 336.45 239.846 337.026 240.158 337.398C240.482 337.77 240.986 337.956 241.67 337.956C242.414 337.956 243.02 337.71 243.488 337.218C243.956 336.714 244.19 336.048 244.19 335.22V330.252H245.648V339H244.226V337.524C243.95 338.052 243.56 338.46 243.056 338.748C242.564 339.024 242.006 339.162 241.382 339.162ZM251.328 339.162C250.644 339.162 249.996 339.066 249.384 338.874C248.772 338.682 248.268 338.412 247.872 338.064L248.34 337.038C248.772 337.386 249.246 337.644 249.762 337.812C250.29 337.968 250.824 338.046 251.364 338.046C252.048 338.046 252.564 337.92 252.912 337.668C253.26 337.416 253.434 337.074 253.434 336.642C253.434 336.306 253.32 336.042 253.092 335.85C252.864 335.646 252.504 335.49 252.012 335.382L250.374 335.022C248.886 334.698 248.142 333.93 248.142 332.718C248.142 331.926 248.454 331.29 249.078 330.81C249.714 330.33 250.542 330.09 251.562 330.09C252.162 330.09 252.732 330.186 253.272 330.378C253.824 330.558 254.28 330.828 254.64 331.188L254.154 332.214C253.806 331.89 253.398 331.644 252.93 331.476C252.474 331.296 252.018 331.206 251.562 331.206C250.89 331.206 250.38 331.338 250.032 331.602C249.684 331.866 249.51 332.214 249.51 332.646C249.51 333.318 249.954 333.75 250.842 333.942L252.48 334.284C253.248 334.452 253.83 334.722 254.226 335.094C254.622 335.454 254.82 335.946 254.82 336.57C254.82 337.374 254.502 338.01 253.866 338.478C253.23 338.934 252.384 339.162 251.328 339.162ZM260.464 339.162C259.432 339.162 258.658 338.892 258.142 338.352C257.626 337.8 257.368 337.008 257.368 335.976V331.386H255.658V330.252H257.368V327.57H258.826V330.252H261.598V331.386H258.826V335.832C258.826 336.516 258.97 337.038 259.258 337.398C259.546 337.746 260.014 337.92 260.662 337.92C260.854 337.92 261.046 337.896 261.238 337.848C261.43 337.8 261.604 337.752 261.76 337.704L262.012 338.82C261.856 338.904 261.628 338.982 261.328 339.054C261.028 339.126 260.74 339.162 260.464 339.162Z" fill="#9099AB"/>
<path d="M28.0729 369V356.31H29.3149L34.1929 365.472L39.0349 356.31H40.2769V369H38.9089V359.082L34.6789 367.038H33.7069L29.4229 359.1V369H28.0729ZM47.1794 369.162C45.7994 369.162 44.7074 368.76 43.9034 367.956C43.0994 367.14 42.6974 366.036 42.6974 364.644C42.6974 363.744 42.8774 362.952 43.2374 362.268C43.5974 361.572 44.0894 361.038 44.7134 360.666C45.3494 360.282 46.0814 360.09 46.9094 360.09C48.0974 360.09 49.0274 360.474 49.6994 361.242C50.3714 361.998 50.7074 363.042 50.7074 364.374V364.932H44.1194C44.1674 365.928 44.4554 366.69 44.9834 367.218C45.5114 367.734 46.2434 367.992 47.1794 367.992C47.7074 367.992 48.2114 367.914 48.6914 367.758C49.1714 367.59 49.6274 367.32 50.0594 366.948L50.5634 367.974C50.1674 368.346 49.6634 368.64 49.0514 368.856C48.4394 369.06 47.8154 369.162 47.1794 369.162ZM46.9454 361.17C46.1174 361.17 45.4634 361.428 44.9834 361.944C44.5034 362.46 44.2214 363.138 44.1374 363.978H49.4474C49.4114 363.09 49.1774 362.4 48.7454 361.908C48.3254 361.416 47.7254 361.17 46.9454 361.17ZM56.7595 369.162C55.3795 369.162 54.2875 368.76 53.4835 367.956C52.6795 367.14 52.2775 366.036 52.2775 364.644C52.2775 363.744 52.4575 362.952 52.8175 362.268C53.1775 361.572 53.6695 361.038 54.2935 360.666C54.9295 360.282 55.6615 360.09 56.4895 360.09C57.6775 360.09 58.6075 360.474 59.2795 361.242C59.9515 361.998 60.2875 363.042 60.2875 364.374V364.932H53.6995C53.7475 365.928 54.0355 366.69 54.5635 367.218C55.0915 367.734 55.8235 367.992 56.7595 367.992C57.2875 367.992 57.7915 367.914 58.2715 367.758C58.7515 367.59 59.2075 367.32 59.6395 366.948L60.1435 367.974C59.7475 368.346 59.2435 368.64 58.6315 368.856C58.0195 369.06 57.3955 369.162 56.7595 369.162ZM56.5255 361.17C55.6975 361.17 55.0435 361.428 54.5635 361.944C54.0835 362.46 53.8015 363.138 53.7175 363.978H59.0275C58.9915 363.09 58.7575 362.4 58.3255 361.908C57.9055 361.416 57.3055 361.17 56.5255 361.17ZM65.9075 369.162C64.8755 369.162 64.1015 368.892 63.5855 368.352C63.0695 367.8 62.8115 367.008 62.8115 365.976V361.386H61.1015V360.252H62.8115V357.57H64.2695V360.252H67.0415V361.386H64.2695V365.832C64.2695 366.516 64.4135 367.038 64.7015 367.398C64.9895 367.746 65.4575 367.92 66.1055 367.92C66.2975 367.92 66.4895 367.896 66.6815 367.848C66.8735 367.8 67.0475 367.752 67.2035 367.704L67.4555 368.82C67.2995 368.904 67.0715 368.982 66.7715 369.054C66.4715 369.126 66.1835 369.162 65.9075 369.162ZM78.8396 369.162C77.6636 369.162 76.6376 368.898 75.7616 368.37C74.8976 367.83 74.2256 367.074 73.7456 366.102C73.2776 365.13 73.0436 363.978 73.0436 362.646C73.0436 361.314 73.2776 360.162 73.7456 359.19C74.2136 358.218 74.8796 357.468 75.7436 356.94C76.6196 356.412 77.6516 356.148 78.8396 356.148C80.0396 356.148 81.0716 356.412 81.9356 356.94C82.8116 357.468 83.4836 358.218 83.9516 359.19C84.4316 360.15 84.6716 361.296 84.6716 362.628C84.6716 363.96 84.4316 365.118 83.9516 366.102C83.4716 367.074 82.7936 367.83 81.9176 368.37C81.0536 368.898 80.0276 369.162 78.8396 369.162ZM78.8396 367.848C80.1956 367.848 81.2456 367.392 81.9896 366.48C82.7336 365.568 83.1056 364.29 83.1056 362.646C83.1056 361.002 82.7336 359.73 81.9896 358.83C81.2456 357.918 80.1956 357.462 78.8396 357.462C77.5076 357.462 76.4696 357.918 75.7256 358.83C74.9816 359.73 74.6096 361.002 74.6096 362.646C74.6096 364.278 74.9816 365.556 75.7256 366.48C76.4696 367.392 77.5076 367.848 78.8396 367.848ZM90.2084 369.162C88.1084 369.162 87.0584 368.004 87.0584 365.688V360.252H88.5164V365.67C88.5164 366.45 88.6724 367.026 88.9844 367.398C89.3084 367.77 89.8124 367.956 90.4964 367.956C91.2404 367.956 91.8464 367.71 92.3144 367.218C92.7824 366.714 93.0164 366.048 93.0164 365.22V360.252H94.4744V369H93.0524V367.524C92.7764 368.052 92.3864 368.46 91.8824 368.748C91.3904 369.024 90.8324 369.162 90.2084 369.162ZM97.2022 369V360.252H98.6242V361.818C99.0922 360.762 100.052 360.18 101.504 360.072L102.026 360.018L102.134 361.278L101.216 361.386C100.388 361.458 99.7582 361.722 99.3262 362.178C98.8942 362.622 98.6782 363.234 98.6782 364.014V369H97.2022ZM121.935 372.618L120.423 370.188C120.015 369.504 119.349 369.162 118.425 369.162C117.249 369.162 116.223 368.898 115.347 368.37C114.483 367.83 113.811 367.074 113.331 366.102C112.863 365.13 112.629 363.978 112.629 362.646C112.629 361.314 112.863 360.162 113.331 359.19C113.799 358.218 114.465 357.468 115.329 356.94C116.205 356.412 117.237 356.148 118.425 356.148C119.625 356.148 120.657 356.412 121.521 356.94C122.397 357.468 123.069 358.218 123.537 359.19C124.017 360.15 124.257 361.296 124.257 362.628C124.257 364.176 123.939 365.484 123.303 366.552C122.667 367.608 121.785 368.352 120.657 368.784C121.137 368.94 121.575 369.354 121.971 370.026L123.177 371.97L121.935 372.618ZM118.425 367.848C119.781 367.848 120.831 367.392 121.575 366.48C122.319 365.568 122.691 364.29 122.691 362.646C122.691 361.002 122.319 359.73 121.575 358.83C120.831 357.918 119.781 357.462 118.425 357.462C117.093 357.462 116.055 357.918 115.311 358.83C114.567 359.73 114.195 361.002 114.195 362.646C114.195 364.278 114.567 365.556 115.311 366.48C116.055 367.392 117.093 367.848 118.425 367.848ZM129.794 369.162C127.694 369.162 126.644 368.004 126.644 365.688V360.252H128.102V365.67C128.102 366.45 128.258 367.026 128.57 367.398C128.894 367.77 129.398 367.956 130.082 367.956C130.826 367.956 131.432 367.71 131.9 367.218C132.368 366.714 132.602 366.048 132.602 365.22V360.252H134.06V369H132.638V367.524C132.362 368.052 131.972 368.46 131.468 368.748C130.976 369.024 130.418 369.162 129.794 369.162ZM139.542 369.162C138.942 369.162 138.402 369.048 137.922 368.82C137.454 368.58 137.082 368.256 136.806 367.848C136.53 367.44 136.392 366.984 136.392 366.48C136.392 365.844 136.554 365.34 136.878 364.968C137.214 364.596 137.76 364.332 138.516 364.176C139.284 364.008 140.328 363.924 141.648 363.924H142.224V363.366C142.224 362.622 142.068 362.088 141.756 361.764C141.456 361.428 140.97 361.26 140.298 361.26C139.77 361.26 139.26 361.338 138.768 361.494C138.276 361.638 137.772 361.878 137.256 362.214L136.752 361.152C137.208 360.828 137.76 360.57 138.408 360.378C139.068 360.186 139.698 360.09 140.298 360.09C141.426 360.09 142.26 360.366 142.8 360.918C143.352 361.47 143.628 362.328 143.628 363.492V369H142.26V367.488C142.032 368.004 141.678 368.412 141.198 368.712C140.73 369.012 140.178 369.162 139.542 369.162ZM139.776 368.064C140.496 368.064 141.084 367.818 141.54 367.326C141.996 366.822 142.224 366.186 142.224 365.418V364.878H141.666C140.694 364.878 139.926 364.926 139.362 365.022C138.81 365.106 138.42 365.262 138.192 365.49C137.976 365.706 137.868 366.006 137.868 366.39C137.868 366.882 138.036 367.284 138.372 367.596C138.72 367.908 139.188 368.064 139.776 368.064ZM149.015 369.162C148.127 369.162 147.455 368.904 146.999 368.388C146.555 367.86 146.333 367.098 146.333 366.102V356.31H147.791V365.994C147.791 367.278 148.301 367.92 149.321 367.92C149.621 367.92 149.891 367.884 150.131 367.812L150.095 369.036C149.723 369.12 149.363 369.162 149.015 369.162ZM151.479 358.074V356.436H153.279V358.074H151.479ZM151.659 369V360.252H153.117V369H151.659ZM156.311 369V361.386H154.583V360.252H156.311V359.946C156.311 358.782 156.599 357.9 157.175 357.3C157.763 356.7 158.663 356.364 159.875 356.292L160.541 356.256L160.631 357.39L159.875 357.426C159.131 357.474 158.591 357.696 158.255 358.092C157.931 358.476 157.769 359.034 157.769 359.766V360.252H163.169V369H161.711V361.386H157.769V369H156.311ZM161.549 358.074V356.436H163.331V358.074H161.549ZM169.84 369.162C168.46 369.162 167.368 368.76 166.564 367.956C165.76 367.14 165.358 366.036 165.358 364.644C165.358 363.744 165.538 362.952 165.898 362.268C166.258 361.572 166.75 361.038 167.374 360.666C168.01 360.282 168.742 360.09 169.57 360.09C170.758 360.09 171.688 360.474 172.36 361.242C173.032 361.998 173.368 363.042 173.368 364.374V364.932H166.78C166.828 365.928 167.116 366.69 167.644 367.218C168.172 367.734 168.904 367.992 169.84 367.992C170.368 367.992 170.872 367.914 171.352 367.758C171.832 367.59 172.288 367.32 172.72 366.948L173.224 367.974C172.828 368.346 172.324 368.64 171.712 368.856C171.1 369.06 170.476 369.162 169.84 369.162ZM169.606 361.17C168.778 361.17 168.124 361.428 167.644 361.944C167.164 362.46 166.882 363.138 166.798 363.978H172.108C172.072 363.09 171.838 362.4 171.406 361.908C170.986 361.416 170.386 361.17 169.606 361.17ZM178.808 369.162C178.028 369.162 177.344 368.976 176.756 368.604C176.18 368.232 175.73 367.71 175.406 367.038C175.094 366.354 174.938 365.55 174.938 364.626C174.938 363.69 175.094 362.886 175.406 362.214C175.73 361.53 176.18 361.008 176.756 360.648C177.344 360.276 178.028 360.09 178.808 360.09C179.492 360.09 180.092 360.24 180.608 360.54C181.136 360.84 181.526 361.254 181.778 361.782V356.31H183.236V369H181.814V367.398C181.562 367.95 181.172 368.382 180.644 368.694C180.116 369.006 179.504 369.162 178.808 369.162ZM179.114 367.992C179.93 367.992 180.584 367.704 181.076 367.128C181.568 366.54 181.814 365.706 181.814 364.626C181.814 363.534 181.568 362.7 181.076 362.124C180.584 361.548 179.93 361.26 179.114 361.26C178.286 361.26 177.626 361.548 177.134 362.124C176.654 362.7 176.414 363.534 176.414 364.626C176.414 365.706 176.654 366.54 177.134 367.128C177.626 367.704 178.286 367.992 179.114 367.992ZM190.793 369V356.31H195.077C197.129 356.31 198.713 356.856 199.829 357.948C200.945 359.028 201.503 360.594 201.503 362.646C201.503 364.698 200.945 366.27 199.829 367.362C198.713 368.454 197.129 369 195.077 369H190.793ZM192.269 367.74H194.969C198.281 367.74 199.937 366.042 199.937 362.646C199.937 359.262 198.281 357.57 194.969 357.57H192.269V367.74ZM207.59 369.162C206.738 369.162 206 368.976 205.376 368.604C204.752 368.232 204.266 367.71 203.918 367.038C203.582 366.354 203.414 365.55 203.414 364.626C203.414 363.702 203.582 362.904 203.918 362.232C204.266 361.548 204.752 361.02 205.376 360.648C206 360.276 206.738 360.09 207.59 360.09C208.43 360.09 209.162 360.276 209.786 360.648C210.422 361.02 210.908 361.548 211.244 362.232C211.592 362.904 211.766 363.702 211.766 364.626C211.766 365.55 211.592 366.354 211.244 367.038C210.908 367.71 210.422 368.232 209.786 368.604C209.162 368.976 208.43 369.162 207.59 369.162ZM207.59 367.992C208.406 367.992 209.06 367.704 209.552 367.128C210.044 366.54 210.29 365.706 210.29 364.626C210.29 363.534 210.044 362.7 209.552 362.124C209.06 361.548 208.406 361.26 207.59 361.26C206.762 361.26 206.102 361.548 205.61 362.124C205.13 362.7 204.89 363.534 204.89 364.626C204.89 365.706 205.13 366.54 205.61 367.128C206.102 367.704 206.762 367.992 207.59 367.992ZM217.664 369.162C216.788 369.162 216.032 368.976 215.396 368.604C214.76 368.22 214.268 367.686 213.92 367.002C213.584 366.306 213.416 365.496 213.416 364.572C213.416 363.18 213.794 362.088 214.55 361.296C215.306 360.492 216.344 360.09 217.664 360.09C218.204 360.09 218.738 360.186 219.266 360.378C219.794 360.57 220.232 360.84 220.58 361.188L220.076 362.25C219.728 361.914 219.344 361.668 218.924 361.512C218.516 361.356 218.126 361.278 217.754 361.278C216.842 361.278 216.14 361.566 215.648 362.142C215.156 362.706 214.91 363.522 214.91 364.59C214.91 365.634 215.156 366.462 215.648 367.074C216.14 367.674 216.842 367.974 217.754 367.974C218.126 367.974 218.516 367.896 218.924 367.74C219.344 367.584 219.728 367.332 220.076 366.984L220.58 368.046C220.232 368.394 219.788 368.67 219.248 368.874C218.72 369.066 218.192 369.162 217.664 369.162ZM225.798 369.162C224.766 369.162 223.992 368.892 223.476 368.352C222.96 367.8 222.702 367.008 222.702 365.976V361.386H220.992V360.252H222.702V357.57H224.16V360.252H226.932V361.386H224.16V365.832C224.16 366.516 224.304 367.038 224.592 367.398C224.88 367.746 225.348 367.92 225.996 367.92C226.188 367.92 226.38 367.896 226.572 367.848C226.764 367.8 226.938 367.752 227.094 367.704L227.346 368.82C227.19 368.904 226.962 368.982 226.662 369.054C226.362 369.126 226.074 369.162 225.798 369.162ZM232.129 369.162C231.277 369.162 230.539 368.976 229.915 368.604C229.291 368.232 228.805 367.71 228.457 367.038C228.121 366.354 227.953 365.55 227.953 364.626C227.953 363.702 228.121 362.904 228.457 362.232C228.805 361.548 229.291 361.02 229.915 360.648C230.539 360.276 231.277 360.09 232.129 360.09C232.969 360.09 233.701 360.276 234.325 360.648C234.961 361.02 235.447 361.548 235.783 362.232C236.131 362.904 236.305 363.702 236.305 364.626C236.305 365.55 236.131 366.354 235.783 367.038C235.447 367.71 234.961 368.232 234.325 368.604C233.701 368.976 232.969 369.162 232.129 369.162ZM232.129 367.992C232.945 367.992 233.599 367.704 234.091 367.128C234.583 366.54 234.829 365.706 234.829 364.626C234.829 363.534 234.583 362.7 234.091 362.124C233.599 361.548 232.945 361.26 232.129 361.26C231.301 361.26 230.641 361.548 230.149 362.124C229.669 362.7 229.429 363.534 229.429 364.626C229.429 365.706 229.669 366.54 230.149 367.128C230.641 367.704 231.301 367.992 232.129 367.992ZM238.495 369V360.252H239.917V361.818C240.385 360.762 241.345 360.18 242.797 360.072L243.319 360.018L243.427 361.278L242.509 361.386C241.681 361.458 241.051 361.722 240.619 362.178C240.187 362.622 239.971 363.234 239.971 364.014V369H238.495ZM247.81 369.162C247.126 369.162 246.478 369.066 245.866 368.874C245.254 368.682 244.75 368.412 244.354 368.064L244.822 367.038C245.254 367.386 245.728 367.644 246.244 367.812C246.772 367.968 247.306 368.046 247.846 368.046C248.53 368.046 249.046 367.92 249.394 367.668C249.742 367.416 249.916 367.074 249.916 366.642C249.916 366.306 249.802 366.042 249.574 365.85C249.346 365.646 248.986 365.49 248.494 365.382L246.856 365.022C245.368 364.698 244.624 363.93 244.624 362.718C244.624 361.926 244.936 361.29 245.56 360.81C246.196 360.33 247.024 360.09 248.044 360.09C248.644 360.09 249.214 360.186 249.754 360.378C250.306 360.558 250.762 360.828 251.122 361.188L250.636 362.214C250.288 361.89 249.88 361.644 249.412 361.476C248.956 361.296 248.5 361.206 248.044 361.206C247.372 361.206 246.862 361.338 246.514 361.602C246.166 361.866 245.992 362.214 245.992 362.646C245.992 363.318 246.436 363.75 247.324 363.942L248.962 364.284C249.73 364.452 250.312 364.722 250.708 365.094C251.104 365.454 251.302 365.946 251.302 366.57C251.302 367.374 250.984 368.01 250.348 368.478C249.712 368.934 248.866 369.162 247.81 369.162ZM261.46 369V357.588H256.852V356.31H267.562V357.588H262.954V369H261.46ZM271.241 369.162C270.389 369.162 269.651 368.976 269.027 368.604C268.403 368.232 267.917 367.71 267.569 367.038C267.233 366.354 267.065 365.55 267.065 364.626C267.065 363.702 267.233 362.904 267.569 362.232C267.917 361.548 268.403 361.02 269.027 360.648C269.651 360.276 270.389 360.09 271.241 360.09C272.081 360.09 272.813 360.276 273.437 360.648C274.073 361.02 274.559 361.548 274.895 362.232C275.243 362.904 275.417 363.702 275.417 364.626C275.417 365.55 275.243 366.354 274.895 367.038C274.559 367.71 274.073 368.232 273.437 368.604C272.813 368.976 272.081 369.162 271.241 369.162ZM271.241 367.992C272.057 367.992 272.711 367.704 273.203 367.128C273.695 366.54 273.941 365.706 273.941 364.626C273.941 363.534 273.695 362.7 273.203 362.124C272.711 361.548 272.057 361.26 271.241 361.26C270.413 361.26 269.753 361.548 269.261 362.124C268.781 362.7 268.541 363.534 268.541 364.626C268.541 365.706 268.781 366.54 269.261 367.128C269.753 367.704 270.413 367.992 271.241 367.992ZM280.937 369.162C280.157 369.162 279.473 368.976 278.885 368.604C278.309 368.232 277.859 367.71 277.535 367.038C277.223 366.354 277.067 365.55 277.067 364.626C277.067 363.69 277.223 362.886 277.535 362.214C277.859 361.53 278.309 361.008 278.885 360.648C279.473 360.276 280.157 360.09 280.937 360.09C281.621 360.09 282.221 360.24 282.737 360.54C283.265 360.84 283.655 361.254 283.907 361.782V356.31H285.365V369H283.943V367.398C283.691 367.95 283.301 368.382 282.773 368.694C282.245 369.006 281.633 369.162 280.937 369.162ZM281.243 367.992C282.059 367.992 282.713 367.704 283.205 367.128C283.697 366.54 283.943 365.706 283.943 364.626C283.943 363.534 283.697 362.7 283.205 362.124C282.713 361.548 282.059 361.26 281.243 361.26C280.415 361.26 279.755 361.548 279.263 362.124C278.783 362.7 278.543 363.534 278.543 364.626C278.543 365.706 278.783 366.54 279.263 367.128C279.755 367.704 280.415 367.992 281.243 367.992ZM290.855 369.162C290.255 369.162 289.715 369.048 289.235 368.82C288.767 368.58 288.395 368.256 288.119 367.848C287.843 367.44 287.705 366.984 287.705 366.48C287.705 365.844 287.867 365.34 288.191 364.968C288.527 364.596 289.073 364.332 289.829 364.176C290.597 364.008 291.641 363.924 292.961 363.924H293.537V363.366C293.537 362.622 293.381 362.088 293.069 361.764C292.769 361.428 292.283 361.26 291.611 361.26C291.083 361.26 290.573 361.338 290.081 361.494C289.589 361.638 289.085 361.878 288.569 362.214L288.065 361.152C288.521 360.828 289.073 360.57 289.721 360.378C290.381 360.186 291.011 360.09 291.611 360.09C292.739 360.09 293.573 360.366 294.113 360.918C294.665 361.47 294.941 362.328 294.941 363.492V369H293.573V367.488C293.345 368.004 292.991 368.412 292.511 368.712C292.043 369.012 291.491 369.162 290.855 369.162ZM291.089 368.064C291.809 368.064 292.397 367.818 292.853 367.326C293.309 366.822 293.537 366.186 293.537 365.418V364.878H292.979C292.007 364.878 291.239 364.926 290.675 365.022C290.123 365.106 289.733 365.262 289.505 365.49C289.289 365.706 289.181 366.006 289.181 366.39C289.181 366.882 289.349 367.284 289.685 367.596C290.033 367.908 290.501 368.064 291.089 368.064ZM298.566 372.24L300.06 368.856L296.37 360.252H297.954L300.852 367.344L303.768 360.252H305.298L300.096 372.24H298.566Z" fill="#9099AB"/>
<mask id="mask0_1_148" style="mask-type:alpha" maskUnits="userSpaceOnUse" x="137" y="137" width="59" height="58">
<rect x="137.471" y="137" width="58" height="58" fill="#D9D9D9"/>
</mask>
<g mask="url(#mask0_1_148)">
<path d="M142.304 158.75V151.5C142.304 150.171 142.778 149.033 143.724 148.086C144.671 147.14 145.808 146.667 147.138 146.667H185.804C187.133 146.667 188.271 147.14 189.218 148.086C190.164 149.033 190.638 150.171 190.638 151.5V166H185.804V151.5H147.138V158.75H142.304ZM147.138 185.333C145.808 185.333 144.671 184.86 143.724 183.913C142.778 182.967 142.304 181.829 142.304 180.5V173.25H147.138V180.5H164.054V185.333H147.138ZM180.971 191.375L177.286 188.233C173.741 185.212 171.455 183.027 170.428 181.678C169.401 180.329 168.888 178.929 168.888 177.479C168.888 175.667 169.532 174.106 170.821 172.797C172.11 171.488 173.681 170.833 175.533 170.833C176.581 170.833 177.578 171.075 178.524 171.558C179.471 172.042 180.286 172.746 180.971 173.673C181.615 172.746 182.411 172.042 183.357 171.558C184.304 171.075 185.321 170.833 186.408 170.833C188.221 170.833 189.782 171.488 191.091 172.797C192.4 174.106 193.054 175.667 193.054 177.479C193.054 178.929 192.531 180.329 191.483 181.678C190.436 183.027 188.14 185.212 184.596 188.233L180.971 191.375ZM180.971 184.971L182.663 183.581C184.918 181.648 186.408 180.288 187.133 179.503C187.858 178.718 188.221 178.043 188.221 177.479C188.221 176.996 188.04 176.573 187.677 176.21C187.315 175.848 186.892 175.667 186.408 175.667C186.086 175.667 185.794 175.737 185.532 175.878C185.271 176.019 184.958 176.251 184.596 176.573L180.971 180.017L177.286 176.573C176.923 176.251 176.611 176.019 176.349 175.878C176.087 175.737 175.815 175.667 175.533 175.667C175.01 175.667 174.577 175.848 174.234 176.21C173.892 176.573 173.721 176.996 173.721 177.479C173.721 178.043 174.073 178.718 174.778 179.503C175.483 180.288 176.963 181.648 179.219 183.581L180.971 184.971ZM154.388 178.083C153.904 178.083 153.471 177.972 153.089 177.751C152.706 177.529 152.414 177.197 152.213 176.754L148.044 168.417H142.304V163.583H149.554C149.997 163.583 150.41 163.704 150.793 163.946C151.175 164.187 151.467 164.51 151.669 164.912L154.388 170.289L161.879 155.246C162.081 154.843 162.383 154.541 162.786 154.339C163.188 154.138 163.611 154.037 164.054 154.037C164.497 154.037 164.92 154.138 165.323 154.339C165.726 154.541 166.028 154.843 166.229 155.246L170.338 163.583H178.554V168.417H168.888C168.404 168.417 167.971 168.306 167.589 168.084C167.206 167.863 166.914 167.53 166.713 167.087L164.054 161.771L156.502 176.754C156.301 177.197 156.009 177.529 155.626 177.751C155.244 177.972 154.831 178.083 154.388 178.083Z" fill="#F0F6FF"/>
</g>
</svg>
