<svg width="83" height="83" viewBox="0 0 83 83" fill="none" xmlns="http://www.w3.org/2000/svg">
<mask id="mask0_1_1048" style="mask-type:alpha" maskUnits="userSpaceOnUse" x="0" y="0" width="83" height="83">
<rect width="83" height="83" fill="#D9D9D9"/>
</mask>
<g mask="url(#mask0_1_1048)">
<path d="M6.91663 31.1257V20.7507C6.91663 18.8486 7.59388 17.2203 8.9484 15.8658C10.3029 14.5112 11.9312 13.834 13.8333 13.834H69.1666C71.0687 13.834 72.697 14.5112 74.0515 15.8658C75.406 17.2203 76.0833 18.8486 76.0833 20.7507V39.7715H69.1666V20.7507H13.8333V31.1257H6.91663ZM13.8333 69.1673C11.9312 69.1673 10.3029 68.4901 8.9484 67.1356C7.59388 65.781 6.91663 64.1527 6.91663 62.2507V51.8757H13.8333V62.2507H32.8541V69.1673H13.8333ZM24.2083 58.7923C23.5743 58.7923 22.9691 58.6338 22.3927 58.3168C21.8163 57.9998 21.384 57.5243 21.0958 56.8902L15.1302 44.959H6.91663V38.0423H17.2916C17.9257 38.0423 18.5309 38.2008 19.1073 38.5178C19.6836 38.8349 20.1159 39.3104 20.4041 39.9444L24.2083 47.5527L34.9291 26.1111C35.2173 25.5347 35.6496 25.1024 36.226 24.8142C36.8024 24.526 37.4076 24.3819 38.0416 24.3819C38.6757 24.3819 39.2809 24.526 39.8573 24.8142C40.4336 25.1024 40.8659 25.5347 41.1541 26.1111L47.9843 39.8579C46.7739 39.9732 45.6355 40.2326 44.5692 40.6361C43.5029 41.0395 42.5086 41.6159 41.5864 42.3652L38.0416 35.4486L27.3208 56.8902C27.0326 57.5243 26.6003 57.9998 26.0239 58.3168C25.4475 58.6338 24.8423 58.7923 24.2083 58.7923ZM43.2291 79.5423C41.7882 79.5423 40.5633 79.038 39.5546 78.0293C38.546 77.0206 38.0416 75.7958 38.0416 74.3548V61.6454L42.6239 49.4548C43.1427 48.1291 43.9928 47.0484 45.1744 46.2126C46.356 45.3769 47.6673 44.959 49.1083 44.959H55.3333V38.0423H62.25V44.959H68.475C69.9159 44.959 71.2272 45.3769 72.4088 46.2126C73.5904 47.0484 74.4406 48.1291 74.9593 49.4548L79.5416 61.6454V74.3548C79.5416 75.7958 79.0373 77.0206 78.0286 78.0293C77.0199 79.038 75.7951 79.5423 74.3541 79.5423H67.4375C65.9965 79.5423 64.7717 79.038 63.763 78.0293C62.7543 77.0206 62.25 75.7958 62.25 74.3548V69.1673H69.1666V72.6257H72.625V62.8559L68.475 51.8757H62.25V55.0746L67.9562 60.8673L63.1145 65.709L58.7916 61.3861L54.4687 65.709L49.627 60.8673L55.3333 55.0746V51.8757H49.1083L44.9583 62.8559V72.6257H48.4166V69.1673H55.3333V74.3548C55.3333 75.7958 54.829 77.0206 53.8203 78.0293C52.8116 79.038 51.5868 79.5423 50.1458 79.5423H43.2291Z" fill="#42A5F5"/>
</g>
</svg>
