<svg width="860" height="860" viewBox="0 0 860 860" fill="none" xmlns="http://www.w3.org/2000/svg">
<path d="M746.74 382.712C729.053 266.901 656.521 124.642 513.218 109.76C513.218 109.76 404.432 96.524 297.175 116.575C233.521 128.49 177.702 163.91 142.398 214.838C107.071 265.765 95.2722 327.866 109.598 387.093C118.893 425.526 125.175 465.327 123.46 504.85C120.446 573.627 122.185 637.814 188.922 678.82C248.519 715.446 323.508 747.736 395.044 753.392C443.677 757.24 498.197 751.028 545.068 738.371C783.898 673.86 764.45 498.499 746.74 382.712Z" fill="#64EBB6" fill-opacity="0.11"/>
<path d="M529.514 508.491C525.666 508.19 517.576 504.133 515.907 502.209C504.781 489.367 482.411 466.72 482.597 448.778C482.62 445.718 496.157 442.218 497.919 439.32C506.009 435.009 509.069 434.012 514.748 426.131C531.462 402.857 488.832 362.755 535.356 345.671C569.408 333.176 599.218 343.677 592.89 290.153C586.585 236.652 624.439 136.744 682.947 171.445C716.535 191.381 685.705 238.646 704.064 271.516C721.519 302.764 709.233 329.769 676.155 350.608C643.076 371.471 661.945 385.356 673.304 415.282C686.934 451.258 631.045 460.438 604.874 462.478C583.803 464.124 531.253 482.529 529.514 508.491Z" fill="url(#paint0_linear_1_1061)"/>
<mask id="mask0_1_1061" style="mask-type:luminance" maskUnits="userSpaceOnUse" x="473" y="164" width="239" height="357">
<path d="M473.73 444.572C483.116 469.343 491.649 494.934 500.967 519.932C516.074 520.426 533.856 520.637 536.295 501.974C539.681 476.028 583.861 463.96 604.923 462.43C630.992 460.539 686.957 451.211 673.308 415.283C661.945 385.374 643.083 371.449 676.157 350.607C709.231 329.766 721.522 302.758 704.071 271.513C685.707 238.633 716.531 191.398 682.954 171.454C624.446 136.701 586.571 236.698 592.902 290.138C599.232 343.581 569.35 333.4 535.365 345.617C488.969 362.293 531.165 403.832 514.853 425.627C502.066 442.713 491.218 440.23 473.73 444.572Z" fill="white"/>
</mask>
<g mask="url(#mask0_1_1061)">
<g style="mix-blend-mode:soft-light" opacity="0.8">
<path d="M499.82 477.034C555.569 446.459 600.47 399.611 629.608 341.59C657.355 286.397 670.591 222.163 667.879 155.844L666.998 155.89C672.701 295.808 610.067 415.582 499.403 476.269L499.82 477.034Z" fill="#FCFDFE"/>
<path d="M558.513 434.846C592.589 422.792 647.411 420.451 680.675 429.607L680.907 428.772C647.48 419.57 592.45 421.934 558.212 434.034L558.513 434.846Z" fill="#FCFDFE"/>
<path d="M521.424 464.865C534.915 451.443 541.128 431.74 539.853 406.31C538.926 387.766 534.104 366.648 525.527 343.561L524.716 343.862C533.246 366.88 538.045 387.905 538.972 406.357C540.247 431.508 534.127 451.003 520.798 464.239L521.424 464.865Z" fill="#FCFDFE"/>
<path d="M633.247 333.616C656.915 307.538 693.03 299.123 719.155 296.643L719.085 295.785C692.798 298.265 656.451 306.726 632.598 333.013L633.247 333.616Z" fill="#FCFDFE"/>
<path d="M659.488 256.725C660.462 216.484 635.728 182.293 620.892 165.51L620.243 166.089C634.986 182.779 659.581 216.762 658.63 256.702L659.488 256.725Z" fill="#FCFDFE"/>
</g>
</g>
<path d="M256.331 648.13C289.526 653.948 369.105 527.915 333.012 451.558C317.945 419.685 290.36 412.568 282.989 373.393C276.405 338.437 295.46 328.655 294.37 290.476C292.84 236.767 252.831 173.994 209.182 173.252C187.299 172.904 160.966 188.088 150.929 212.937C142.885 232.826 157.396 255.752 150.906 259.206C145.551 262.034 137.206 246.92 128.096 248.473C114.651 250.768 100.998 289.062 108.833 323.462C122.231 382.364 189.988 392.424 187.948 433.477C186.627 459.648 158.648 464.539 159.923 491.823C161.059 515.815 183.219 522.978 208.834 555.569C248.936 606.613 238.528 645 256.331 648.13Z" fill="url(#paint1_linear_1_1061)"/>
<mask id="mask1_1_1061" style="mask-type:luminance" maskUnits="userSpaceOnUse" x="106" y="173" width="237" height="476">
<path d="M256.324 648.126C289.533 653.939 369.095 527.913 333.012 451.554C317.954 419.69 290.369 412.576 282.996 373.401C276.415 338.444 295.469 328.66 294.377 290.465C292.845 236.76 252.824 173.99 209.191 173.264C187.299 172.9 160.957 188.095 150.92 212.933C142.883 232.827 157.401 255.755 150.899 259.206C145.558 262.041 137.201 246.923 128.087 248.474C114.642 250.762 101.007 289.061 108.831 323.467C122.227 382.374 189.995 392.42 187.941 433.483C186.634 459.658 158.65 464.542 159.928 491.819C161.052 515.82 183.226 522.987 208.829 555.57C248.934 606.609 238.519 645.01 256.324 648.126Z" fill="white"/>
</mask>
<g mask="url(#mask1_1_1061)">
<g style="mix-blend-mode:soft-light" opacity="0.5">
<path d="M244.37 676.481C245.019 676.759 245.807 676.62 246.294 676.04C246.734 675.554 246.827 674.881 246.595 674.325C246.711 673.305 247.777 670.106 248.983 666.444C255.821 645.836 273.971 591.107 273.137 500.447C272.094 386.468 241.82 258.674 183.15 120.61C182.779 119.753 181.782 119.358 180.925 119.729C180.067 120.077 179.673 121.074 180.044 121.932C243.072 270.241 305.636 484.94 245.784 665.401C243.072 673.56 242.585 675.02 243.929 676.203C244.069 676.326 244.215 676.419 244.37 676.481Z" fill="#F0F6FF"/>
<path d="M256.679 377.799C257.513 378.146 258.464 377.799 258.858 376.987C259.275 376.153 258.927 375.156 258.093 374.739C189.293 341.127 149.793 310.389 128.745 290.5C105.982 268.966 99.3753 255.22 99.3057 255.08C98.9116 254.246 97.9149 253.875 97.0804 254.269C96.2459 254.663 95.875 255.66 96.2691 256.518C96.524 257.074 103.084 270.797 126.195 292.703C147.405 312.8 187.23 343.885 256.609 377.775C256.64 377.775 256.663 377.783 256.679 377.799Z" fill="#F0F6FF"/>
<path d="M240.221 294.024C240.545 294.163 240.916 294.187 241.264 294.117C261.639 289.272 277.982 266.671 289.827 226.893C298.543 197.57 301.464 169.266 301.51 168.988C301.603 168.061 300.931 167.25 300.003 167.157C299.076 167.064 298.242 167.736 298.149 168.664C298.033 169.776 286.396 279.954 240.499 290.825C239.595 291.034 239.015 291.961 239.247 292.865C239.363 293.399 239.757 293.816 240.221 294.024Z" fill="#F0F6FF"/>
<path d="M270.657 522.26C271.12 522.445 271.653 522.445 272.117 522.19C301.371 506.682 318.316 475.504 327.38 452.092C337.162 426.848 340.129 404.896 340.152 404.688C340.268 403.76 339.619 402.903 338.692 402.787C337.764 402.671 336.93 403.32 336.814 404.247C336.768 404.456 333.847 426.06 324.204 450.956C315.349 473.812 298.844 504.202 270.541 519.223C269.706 519.663 269.405 520.683 269.845 521.495C270.031 521.842 270.309 522.121 270.657 522.26Z" fill="#F0F6FF"/>
</g>
</g>
<path fill-rule="evenodd" clip-rule="evenodd" d="M646.066 572.098C646.066 587.235 633.711 594.722 618.783 595.162L233.336 611.273L232.895 611.991L223.438 612.293C205.936 612.826 191.356 599.868 191.356 583.317V259.948C191.356 243.42 205.983 230.601 223.484 231.32L619.061 247.569C633.989 248.195 646.066 260.945 646.066 276.105V572.098ZM328.77 279.025C328.77 264.885 316.809 252.947 301.95 252.391C287.022 251.835 274.875 262.961 274.875 277.264C274.875 291.566 287.022 303.504 301.95 303.921C316.809 304.339 328.77 293.189 328.77 279.025ZM454.34 283.152C454.34 269.336 442.935 257.722 428.795 257.189C414.585 256.633 402.995 267.528 402.995 281.483C402.995 295.437 414.585 307.074 428.795 307.468C442.935 307.862 454.34 296.967 454.34 283.152ZM573.998 287.092C573.998 273.601 563.126 262.243 549.658 261.733C536.098 261.223 525.064 271.863 525.064 285.493C525.064 299.1 536.098 310.458 549.658 310.852C563.126 311.223 573.998 300.583 573.998 287.092Z" fill="url(#paint2_linear_1_1061)"/>
<path fill-rule="evenodd" clip-rule="evenodd" d="M201.926 334.335V259.994C201.926 250.467 206.748 242.308 214.142 237.161C219.543 233.36 226.405 231.413 233.753 231.714L627.545 247.917C642.404 248.52 654.156 260.945 654.156 276.058V330.857L201.926 334.335ZM533.733 285.748C533.733 299.355 544.767 310.69 558.258 311.061C571.703 311.432 582.528 300.839 582.528 287.371C582.528 273.879 571.703 262.544 558.258 262.057C544.767 261.547 533.733 272.141 533.733 285.748ZM412.105 281.761C412.105 295.692 423.648 307.306 437.812 307.7C451.906 308.094 463.287 297.222 463.287 283.43C463.287 269.637 451.906 258.024 437.812 257.491C423.648 256.958 412.105 267.806 412.105 281.761ZM284.449 277.565C284.449 291.844 296.572 303.736 311.431 304.153C326.22 304.571 338.158 293.467 338.158 279.327C338.158 265.187 326.22 253.295 311.431 252.716C296.572 252.159 284.449 263.286 284.449 277.565Z" fill="url(#paint3_linear_1_1061)"/>
<path d="M201.926 317.459V583.016C201.926 599.52 215.649 612.502 233.104 611.992L627.336 600.1C642.195 599.66 654.156 587.049 654.156 571.936V328.678L201.926 317.459Z" fill="#F0F6FF"/>
<path d="M497.571 367.69C497.571 364.073 494.952 361.106 491.289 361.037L452.462 360.364C448.73 360.295 444.117 363.216 444.117 366.878V403.828C444.117 407.491 448.915 410.504 452.624 410.527L490.409 410.805C494.048 410.829 497.571 407.908 497.571 404.292V367.69Z" fill="#BFC8D6"/>
<path d="M564.981 368.802C564.981 365.232 561.99 362.288 558.444 362.219L522.375 361.593C518.758 361.523 516 364.421 516 368.037V404.5C516 408.116 518.712 411.06 522.328 411.084L558.56 411.362C562.106 411.385 564.981 408.487 564.981 404.918V368.802Z" fill="#BFC8D6"/>
<path d="M631.926 369.914C631.926 366.391 628.866 363.47 625.389 363.401L589.9 362.775C586.376 362.705 583.293 365.533 583.293 369.08V405.056C583.293 408.626 586.237 411.547 589.761 411.593L625.343 411.871C628.82 411.894 631.926 409.066 631.926 405.543V369.914Z" fill="#BFC8D6"/>
<path d="M497.571 434.636C497.571 430.997 494.952 428.076 491.289 428.053L452.462 427.867C448.73 427.867 444.117 430.811 444.117 434.474V471.447C444.117 475.109 448.915 478.053 452.624 478.03L490.409 477.821C494.048 477.821 497.571 474.854 497.571 471.238V434.636Z" fill="url(#paint4_linear_1_1061)"/>
<path d="M564.981 434.868C564.981 431.275 561.99 428.377 558.444 428.354L522.375 428.215C518.758 428.192 516 431.113 516 434.729V471.192C516 474.808 518.712 477.706 522.328 477.682L558.56 477.497C562.106 477.474 564.981 474.553 564.981 470.96V434.868Z" fill="url(#paint5_linear_1_1061)"/>
<path d="M631.926 435.076C631.926 431.552 628.866 428.678 625.389 428.655L589.9 428.492C586.376 428.469 583.293 431.32 583.293 434.89V470.866C583.293 474.413 586.237 477.311 589.761 477.311L625.343 477.125C628.82 477.102 631.926 474.251 631.926 470.704V435.076Z" fill="url(#paint6_linear_1_1061)"/>
<path d="M284.032 433.986C284.032 430.208 280.531 427.125 276.568 427.101L236.396 426.893C232.362 426.87 229.372 429.929 229.372 433.731V472.28C229.372 476.082 232.223 479.188 236.257 479.165L276.776 478.98C280.74 478.956 284.032 475.896 284.032 472.118V433.986Z" fill="#BFC8D6"/>
<path d="M357.12 434.171C357.12 430.439 354.292 427.425 350.444 427.402L310.55 427.217C306.633 427.217 302.878 430.23 302.878 434.009V472.002C302.878 475.757 306.795 478.794 310.713 478.794L350.073 478.562C353.944 478.562 357.12 475.502 357.12 471.793V434.171Z" fill="#BFC8D6"/>
<path d="M427.589 434.472C427.589 430.81 424.738 427.773 420.983 427.773L381.692 427.564C377.867 427.564 373.741 430.532 373.741 434.24V471.723C373.741 475.432 377.96 478.423 381.784 478.4L420.426 478.237C424.182 478.214 427.589 475.247 427.589 471.584V434.472Z" fill="#BFC8D6"/>
<path d="M497.571 501.557C497.571 497.941 494.952 495.043 491.289 495.067L452.462 495.391C448.73 495.414 444.117 498.428 444.117 502.09V539.04C444.117 542.703 448.915 545.6 452.624 545.554L490.409 544.858C494.048 544.789 497.571 541.775 497.571 538.159V501.557Z" fill="#BFC8D6"/>
<path d="M564.981 500.909C564.981 497.34 561.99 494.465 558.444 494.488L522.375 494.813C518.758 494.836 516 497.803 516 501.419V537.882C516 541.499 518.712 544.373 522.328 544.304L558.56 543.631C562.106 543.562 564.981 540.595 564.981 537.025V500.909Z" fill="#BFC8D6"/>
<path d="M284.032 503.737C284.032 499.959 280.531 496.922 276.568 496.945L236.396 497.27C232.362 497.316 229.372 500.399 229.372 504.224V542.75C229.372 546.575 232.223 549.635 236.257 549.565L276.776 548.824C280.74 548.754 284.032 545.671 284.032 541.893V503.737Z" fill="#BFC8D6"/>
<path d="M357.12 502.971C357.12 499.239 354.292 496.249 350.444 496.295L310.55 496.62C306.633 496.666 302.878 499.726 302.878 503.505V541.498C302.878 545.253 306.795 548.243 310.713 548.174L350.073 547.455C353.944 547.385 357.12 544.302 357.12 540.57V502.971Z" fill="#BFC8D6"/>
<path d="M427.589 502.345C427.589 498.659 424.738 495.669 420.983 495.715L381.692 496.017C377.867 496.063 373.741 499.077 373.741 502.785V540.268C373.741 543.977 377.96 546.945 381.784 546.852L420.426 546.18C424.182 546.11 427.589 543.12 427.589 539.434V502.345Z" fill="#BFC8D6"/>
<path d="M308.951 183.66C283.916 182.385 263.146 202.923 261.129 232.849L282.34 233.73C284.055 215.858 295.576 202.621 308.951 203.247C323.392 203.943 335.516 220.795 335.516 240.151C335.516 259.53 323.392 275.455 308.951 274.968C301.417 274.713 294.486 270.007 289.549 262.821C286.698 266.809 281.737 275.942 286.419 287.254C293.165 291.658 300.838 294.278 308.951 294.509C335.052 295.297 356.077 271.329 356.077 240.985C356.077 210.665 335.052 185.004 308.951 183.66Z" fill="#BFC8D6"/>
<path d="M435.239 190.034C411.386 188.805 391.59 208.88 389.689 238.087L409.879 238.922C411.525 221.467 422.489 208.555 435.239 209.158C448.985 209.807 460.552 226.242 460.552 245.157C460.552 264.05 448.985 279.604 435.239 279.14C428.053 278.908 421.446 274.319 416.741 267.318C414.029 271.189 409.323 280.137 413.774 291.148C420.195 295.459 427.496 298.009 435.239 298.241C460.088 298.983 480.14 275.547 480.14 245.945C480.14 216.321 460.088 191.286 435.239 190.034Z" fill="#BFC8D6"/>
<path d="M556.01 196.246C533.27 195.087 514.424 214.675 512.592 243.187L531.832 243.998C533.409 226.96 543.863 214.327 556.01 214.906C569.107 215.532 580.141 231.573 580.141 250.025C580.141 268.5 569.107 283.683 556.01 283.243C549.171 283.011 542.866 278.537 538.393 271.699C535.796 275.501 531.299 284.216 535.541 294.972C541.661 299.168 548.638 301.648 556.01 301.88C579.7 302.575 598.824 279.696 598.824 250.79C598.824 221.861 579.7 197.451 556.01 196.246Z" fill="#BFC8D6"/>
<g style="mix-blend-mode:multiply" opacity="0.3">
<path d="M654.156 561.99V571.934C654.156 587.048 642.404 599.658 627.545 600.099L233.336 611.991C215.904 612.5 201.926 599.519 201.926 583.015V259.993C201.926 250.466 206.632 242.144 214.003 236.998C230.021 242.7 250.629 258.741 261.153 302.251C279.697 378.84 295.622 411.409 366.671 408.952C411.803 407.399 446.273 409.091 467.692 428.841C479.166 439.434 486.978 455.243 490.687 478.609C492.843 492.286 502.532 500.863 516.325 507.029C529.839 513.079 547.34 516.834 565.537 520.868C598.824 528.239 635.983 536.561 654.156 561.99Z" fill="#BFC8D6"/>
</g>
<path d="M264.143 496.203C264.143 496.203 277.704 500.77 279.141 524.414C276.915 524.228 271.746 524.414 271.746 524.414C271.746 524.414 272.72 507.214 263.077 503.876C263.842 501.882 264.143 496.203 264.143 496.203Z" fill="url(#paint7_linear_1_1061)"/>
<path d="M214.397 494.79C214.737 499.086 215.077 503.39 215.417 507.701C222.116 505.754 229.442 503.506 237.323 503.112C247.546 502.578 256.934 503.761 265.302 505.824C265.673 505.291 266.461 503.992 266.832 501.86C267.411 498.429 266.438 495.578 266.252 495.068C261.987 493.492 257.374 492.17 252.413 491.266C238.227 488.67 225.408 491.243 214.397 494.79Z" fill="url(#paint8_linear_1_1061)"/>
<path d="M213.771 498.498C213.771 496.945 213.887 494.998 214.397 494.789C214.861 494.557 215.487 495.971 215.765 496.759C215.881 497.084 216.136 497.872 216.275 500.376C216.484 503.621 216.252 505.197 216.043 506.194C215.904 506.773 215.719 507.677 215.417 507.701C215.162 507.701 214.954 507.144 214.652 506.055C214.212 504.571 213.725 502.137 213.771 498.498Z" fill="url(#paint9_linear_1_1061)"/>
<path d="M201.416 525.712C204.221 526.268 211.059 527.937 211.059 527.937C211.059 527.937 206.609 512.801 215 505.823C215.209 504.687 215.44 502.879 215.162 500.7C214.954 499.008 214.536 497.664 214.166 496.736C210.596 498.846 202.83 506.032 201.416 525.712Z" fill="url(#paint10_linear_1_1061)"/>
<path d="M143.302 529.699C143.302 529.699 143.65 521.748 155.379 521.748C157.211 523.185 157.303 529.699 157.303 529.699H143.302Z" fill="url(#paint11_linear_1_1061)"/>
<path d="M132.918 685.799L164.976 706.708L184.402 629.864L152.389 526.826L143.302 529.701L129.533 677.662C129.232 681.023 130.576 684.269 132.918 685.799Z" fill="url(#paint12_linear_1_1061)"/>
<path style="mix-blend-mode:multiply" opacity="0.3" d="M184.402 629.864L152.389 526.826L143.302 529.701C145.551 538.787 146.617 553.6 147.127 561.829C149.26 596.924 156.399 606.683 152.946 631.162C150.071 651.515 143.812 654.273 144.346 667.95C144.948 682.878 153.015 695.349 162.612 705.178L164.976 706.708L184.402 629.864Z" fill="url(#paint13_linear_1_1061)"/>
<path d="M152.389 526.826H328.423L356.147 690.157L164.976 706.708L152.389 526.826Z" fill="url(#paint14_linear_1_1061)"/>
<g style="mix-blend-mode:multiply" opacity="0.2">
<path d="M328.423 526.826H269.127C268.037 530.164 266.368 534.8 263.934 540.039C237.392 597.04 176.682 604.226 177.795 613.591C179.418 627.615 314.63 607.726 318.084 626.966C319.73 636.262 291.195 657.379 261.361 665.377C225.64 674.95 199.399 662.873 181.921 684.385C176.01 691.663 173.414 700.194 172.139 705.966L356.147 690.157L328.423 526.826Z" fill="url(#paint15_linear_1_1061)"/>
</g>
<path d="M155.379 521.75C153.386 521.75 150.604 521.495 147.591 523.395C146.965 523.79 146.385 524.253 145.899 524.694L147.266 524.16C149.515 523.465 152.598 524.415 153.734 526.826C155.148 529.793 155.658 536.655 155.982 540.062C156.84 549.752 162.241 609.975 162.241 609.975C162.658 615.052 166.228 618.9 170.47 618.807L334.218 609.627C335.446 609.604 336.675 609.187 337.718 608.329C339.851 606.567 340.824 603.484 340.314 600.564L332.016 528.843C331.32 524.717 328.307 521.75 324.83 521.75H155.379Z" fill="url(#paint16_linear_1_1061)"/>
<path d="M157.118 521.748C155.148 521.748 152.783 521.447 150.164 522.212C149.468 522.42 148.333 522.791 147.823 523.255C147.823 523.255 153.386 521.817 155.495 526.825C156.77 529.884 157.419 536.653 157.721 540.061C158.602 549.75 164.003 609.973 164.003 609.973C164.42 615.05 167.99 618.898 172.209 618.805L337.811 614.957C339.039 614.934 340.268 614.517 341.311 613.682C343.444 611.897 344.417 608.837 343.907 605.917L333.777 528.841C333.082 524.715 330.068 521.748 326.591 521.748H157.118Z" fill="url(#paint17_linear_1_1061)"/>
<path style="mix-blend-mode:multiply" opacity="0.1" d="M343.907 605.917L333.777 528.841C333.082 524.715 330.068 521.748 326.591 521.748H157.118C155.148 521.748 152.783 521.447 150.164 522.212C149.468 522.42 148.333 522.791 147.823 523.255C147.823 523.255 153.386 521.817 155.495 526.825C155.704 527.311 155.89 527.891 156.052 528.517C172.139 529.212 188.226 528.702 204.337 529.838C236.141 531.994 268.315 531.994 298.334 545.786C307.931 550.214 314.514 566.069 311.918 573.417C310.04 578.703 303.619 578.262 301.394 585.216C299.03 592.495 304.686 597.456 302.321 602.579C299.841 607.933 292.307 605.384 280.114 609.208C273.392 611.318 268.246 614.447 265.024 616.649L337.811 614.957C339.039 614.934 340.268 614.517 341.311 613.682C343.444 611.897 344.417 608.837 343.907 605.917Z" fill="url(#paint18_linear_1_1061)"/>
<path d="M264.676 629.331L243.929 634.686L241.75 634.871C239.548 635.057 237.647 633.017 237.532 630.328L236.627 604.806C236.535 602.117 238.273 599.868 240.499 599.845L242.701 599.799L263.54 602.65C265.534 602.627 267.203 601.491 267.295 604.018L268.153 627.94C268.246 630.467 266.646 629.145 264.676 629.331Z" fill="url(#paint19_linear_1_1061)"/>
<path d="M266.252 632.853L243.28 634.87C241.055 635.056 239.177 633.016 239.061 630.327L238.157 604.805C238.065 602.116 239.803 599.867 242.029 599.844L265.047 599.473C267.04 599.427 268.733 601.49 268.825 604.017L269.683 627.939C269.776 630.466 268.223 632.668 266.252 632.853Z" fill="url(#paint20_linear_1_1061)"/>
<path d="M145.064 245.922C138.597 264.768 134.54 286.651 134.54 308.811C134.54 381.32 172.325 440.848 222.001 457.376C222.348 457.213 223.925 457.909 224.272 457.746C271.097 436.513 302.646 378.098 302.646 311.732C302.646 291.31 298.705 273.878 293.142 255.913L223.832 241.842L221.236 235.027L145.064 245.922Z" fill="url(#paint21_linear_1_1061)"/>
<path d="M146.965 247.336C140.521 266.182 136.928 287.137 136.928 309.298C136.928 381.76 174.666 441.242 224.272 457.746C271.607 436.907 304.825 379.002 304.825 312.196C304.825 291.773 301.742 272.209 296.202 254.244L221.236 235.027L146.965 247.336Z" fill="url(#paint22_linear_1_1061)"/>
<path d="M243.767 390.175H208.788V289.27H243.767V390.175Z" fill="#F0F6FF"/>
<path d="M269.822 351.928H182.733V320.193H269.822V351.928Z" fill="#F0F6FF"/>
<path style="mix-blend-mode:multiply" opacity="0.3" fill-rule="evenodd" clip-rule="evenodd" d="M224.272 451.046L224.04 450.976C201.509 443.419 180.832 425.849 166.043 401.393C150.535 375.778 142.259 344.717 142.259 311.87C142.259 291.633 145.412 272.115 151.624 253.918L151.74 253.547L221.421 241.771L221.56 241.818L292.052 259.621L292.168 259.991C297.546 277.377 300.258 295.666 300.258 314.419C300.258 344.856 293.095 373.831 279.419 398.449C265.974 422.65 246.549 441.333 224.527 450.953L224.272 451.046ZM152.83 254.776C146.78 272.718 143.697 291.957 143.697 311.87C143.697 376.891 177.563 433.707 224.272 449.586C268.941 429.952 299.007 374.689 299.007 314.373C299.007 295.898 296.341 277.864 291.056 260.71L221.421 243.162L152.83 254.776Z" fill="url(#paint23_linear_1_1061)"/>
<path style="mix-blend-mode:multiply" opacity="0.3" d="M304.825 312.195C304.825 291.773 301.742 272.208 296.202 254.243L223.646 235.652C231.018 249.816 237.555 264.095 238.992 280.6C240.684 300.025 231.18 312.148 222.093 335.862C218.616 344.972 207.605 374.435 209.414 406.795C210.665 429.326 217.782 446.781 223.136 457.352C223.507 457.467 223.901 457.607 224.272 457.746C271.607 436.906 304.825 379.001 304.825 312.195Z" fill="url(#paint24_linear_1_1061)"/>
<path d="M580.883 401.557V650.493C580.883 663.358 607.702 673.813 640.758 673.813C673.837 673.813 700.633 663.358 700.633 650.493V401.557H580.883Z" fill="url(#paint25_linear_1_1061)"/>
<g style="mix-blend-mode:multiply" opacity="0.5">
<path d="M658.584 540.756C647.944 501.21 612.246 498.428 604.643 464.886C601.49 450.885 602.974 430.44 623.164 401.557H580.883V650.493C580.883 663.358 607.702 673.813 640.758 673.813C653.507 673.813 665.306 672.26 674.996 669.617C663.405 656.868 655.339 642.612 652.186 626.687C645.139 591.174 667.926 575.527 658.584 540.756Z" fill="url(#paint26_linear_1_1061)"/>
</g>
<path opacity="0.6" d="M700.633 603.413C679.725 610.738 652.974 613.612 620.382 606.31V424.25H700.633V603.413Z" fill="#F0F6FF"/>
<path d="M703.531 408.697H578.008C577.174 408.697 576.478 408.001 576.478 407.167V377.403C576.478 376.568 577.174 375.873 578.008 375.873H703.531C704.366 375.873 705.038 376.568 705.038 377.403V407.167C705.038 408.001 704.366 408.697 703.531 408.697Z" fill="url(#paint27_linear_1_1061)"/>
<path d="M694.212 402.624H687.467C687.003 402.624 686.632 402.253 686.632 401.79V382.782C686.632 382.318 687.003 381.947 687.467 381.947H694.212C694.676 381.947 695.047 382.318 695.047 382.782V401.79C695.047 402.253 694.676 402.624 694.212 402.624Z" fill="#D8DEE8"/>
<path d="M679.562 402.624H672.817C672.353 402.624 671.982 402.253 671.982 401.79V382.782C671.982 382.318 672.353 381.947 672.817 381.947H679.562C680.026 381.947 680.397 382.318 680.397 382.782V401.79C680.397 402.253 680.026 402.624 679.562 402.624Z" fill="#D8DEE8"/>
<path d="M664.935 402.624H658.167C657.703 402.624 657.355 402.253 657.355 401.79V382.782C657.355 382.318 657.703 381.947 658.167 381.947H664.935C665.376 381.947 665.747 382.318 665.747 382.782V401.79C665.747 402.253 665.376 402.624 664.935 402.624Z" fill="#D8DEE8"/>
<path d="M650.285 402.624H643.517C643.076 402.624 642.705 402.253 642.705 401.79V382.782C642.705 382.318 643.076 381.947 643.517 381.947H650.285C650.726 381.947 651.097 382.318 651.097 382.782V401.79C651.097 402.253 650.726 402.624 650.285 402.624Z" fill="#D8DEE8"/>
<path d="M635.635 402.624H628.866C628.426 402.624 628.055 402.253 628.055 401.79V382.782C628.055 382.318 628.426 381.947 628.866 381.947H635.635C636.076 381.947 636.446 382.318 636.446 382.782V401.79C636.446 402.253 636.076 402.624 635.635 402.624Z" fill="#D8DEE8"/>
<path d="M620.985 402.624H614.216C613.776 402.624 613.405 402.253 613.405 401.79V382.782C613.405 382.318 613.776 381.947 614.216 381.947H620.985C621.425 381.947 621.796 382.318 621.796 382.782V401.79C621.796 402.253 621.425 402.624 620.985 402.624Z" fill="#D8DEE8"/>
<path d="M606.335 402.624H599.566C599.126 402.624 598.755 402.253 598.755 401.79V382.782C598.755 382.318 599.126 381.947 599.566 381.947H606.335C606.775 381.947 607.146 382.318 607.146 382.782V401.79C607.146 402.253 606.775 402.624 606.335 402.624Z" fill="#D8DEE8"/>
<path d="M591.685 402.624H584.916C584.476 402.624 584.105 402.253 584.105 401.79V382.782C584.105 382.318 584.476 381.947 584.916 381.947H591.685C592.148 381.947 592.496 382.318 592.496 382.782V401.79C592.496 402.253 592.148 402.624 591.685 402.624Z" fill="#D8DEE8"/>
<path d="M540.062 645.557C533.084 644.653 525.458 644.143 517.437 644.143C509.417 644.143 501.767 644.653 494.813 645.557H458.605V662.571C458.605 672.747 484.938 681 517.437 681C549.913 681 576.246 672.747 576.246 662.571V645.557H540.062Z" fill="url(#paint28_linear_1_1061)"/>
<path d="M576.246 645.557C576.246 655.734 549.913 663.986 517.437 663.986C484.938 663.986 458.605 655.734 458.605 645.557C458.605 635.381 484.938 627.129 517.437 627.129C549.913 627.129 576.246 635.381 576.246 645.557Z" fill="#F0F6FF"/>
<g style="mix-blend-mode:multiply" opacity="0.3">
<path d="M517.437 658.955C502.208 658.955 487.975 657.124 477.335 653.786C466.162 650.285 463.635 646.576 463.635 645.557C463.635 644.537 466.162 640.828 477.335 637.327C487.975 633.989 502.208 632.158 517.437 632.158C532.644 632.158 546.877 633.989 557.516 637.327C568.713 640.828 571.216 644.537 571.216 645.557C571.216 646.576 568.713 650.285 557.516 653.786C546.877 657.124 532.644 658.955 517.437 658.955Z" fill="#D8DEE8"/>
</g>
<g style="mix-blend-mode:multiply" opacity="0.3">
<path d="M517.437 658.957C502.208 658.957 487.975 656.986 477.335 653.393C466.162 649.638 463.635 645.674 463.635 644.585C463.635 643.472 466.162 639.508 477.335 635.753C487.975 632.16 502.208 630.189 517.437 630.189C532.644 630.189 546.877 632.16 557.516 635.753C568.713 639.508 571.216 643.472 571.216 644.585C571.216 645.674 568.713 649.638 557.516 653.393C546.877 656.986 532.644 658.957 517.437 658.957Z" fill="#D8DEE8"/>
</g>
<path d="M484.984 651.724C483.547 651.724 482.295 650.866 482.017 649.637C481.716 648.247 482.805 646.925 484.451 646.694L545.718 637.259C547.34 637.004 548.917 637.931 549.218 639.299C549.519 640.69 548.43 642.011 546.784 642.266L485.541 651.677C485.355 651.708 485.17 651.724 484.984 651.724Z" fill="#D8DEE8"/>
<path d="M540.062 626.107C533.084 625.18 525.458 624.693 517.437 624.693C509.417 624.693 501.767 625.18 494.813 626.107H458.605V643.099C458.605 653.275 484.938 661.527 517.437 661.527C549.913 661.527 576.246 653.275 576.246 643.099V626.107H540.062Z" fill="url(#paint29_linear_1_1061)"/>
<path d="M576.246 626.108C576.246 636.285 549.913 644.514 517.437 644.514C484.938 644.514 458.605 636.285 458.605 626.108C458.605 615.932 484.938 607.68 517.437 607.68C549.913 607.68 576.246 615.932 576.246 626.108Z" fill="#F0F6FF"/>
<g style="mix-blend-mode:multiply" opacity="0.3">
<path d="M517.437 639.483C502.208 639.483 487.975 637.651 477.335 634.313C466.162 630.813 463.635 627.127 463.635 626.107C463.635 625.087 466.162 621.379 477.335 617.878C487.975 614.54 502.208 612.709 517.437 612.709C532.644 612.709 546.877 614.54 557.516 617.878C568.713 621.379 571.216 625.087 571.216 626.107C571.216 627.127 568.713 630.813 557.516 634.313C546.877 637.651 532.644 639.483 517.437 639.483Z" fill="#D8DEE8"/>
</g>
<g style="mix-blend-mode:multiply" opacity="0.3">
<path d="M517.437 639.484C502.208 639.484 487.975 637.514 477.335 633.944C466.162 630.189 463.635 626.202 463.635 625.112C463.635 624.023 466.162 620.059 477.335 616.28C487.975 612.711 502.208 610.74 517.437 610.74C532.644 610.74 546.877 612.711 557.516 616.28C568.713 620.059 571.216 624.023 571.216 625.112C571.216 626.202 568.713 630.189 557.516 633.944C546.877 637.514 532.644 639.484 517.437 639.484Z" fill="#D8DEE8"/>
</g>
<path d="M484.984 632.275C483.547 632.275 482.295 631.417 482.017 630.188C481.716 628.797 482.805 627.476 484.451 627.221L545.718 617.81C547.34 617.555 548.917 618.482 549.218 619.85C549.519 621.241 548.43 622.562 546.784 622.817L485.541 632.228C485.355 632.259 485.17 632.275 484.984 632.275Z" fill="#D8DEE8"/>
<path d="M651.977 643.1C656.312 668.182 634.731 689.392 609.232 691.803C583.293 694.236 558.305 675.275 553.831 649.382C549.38 623.489 568.272 596.53 594.374 594.908C619.988 593.308 647.643 618.019 651.977 643.1Z" fill="url(#paint30_linear_1_1061)"/>
<path d="M653.391 636.841C657.703 661.922 640.874 684.153 615.375 686.563C589.436 688.997 564.448 670.036 559.974 644.143C555.5 618.25 573.372 595.927 599.473 594.305C625.111 592.705 649.057 611.76 653.391 636.841Z" fill="#F0F6FF"/>
<g style="mix-blend-mode:multiply" opacity="0.3">
<path d="M610.855 682.692C600.007 682.692 589.228 678.705 580.512 671.449C571.726 664.147 565.862 654.203 564.007 643.447C562.06 632.158 564.679 621.24 571.402 612.733C578.17 604.202 588.208 599.102 599.728 598.384C600.632 598.337 601.56 598.291 602.464 598.291C624.972 598.291 645.556 615.537 649.358 637.536C651.259 648.57 648.732 659.326 642.265 667.786C635.821 676.224 626.131 681.44 615.004 682.483C613.637 682.622 612.246 682.692 610.855 682.692Z" fill="#D8DEE8"/>
</g>
<path d="M600.795 601.977C598.453 602.139 596.854 604.133 597.271 606.451L608.885 673.791C609.279 676.086 611.504 677.801 613.822 677.592C616.163 677.384 617.74 675.321 617.346 673.026L605.755 605.895C605.361 603.577 603.136 601.815 600.795 601.977Z" fill="#D8DEE8"/>
<g style="mix-blend-mode:multiply" opacity="0.3">
<path d="M617.346 673.026L605.755 605.895C605.361 603.577 603.136 601.815 600.795 601.977C599.983 602.024 599.265 602.302 598.708 602.719C598.832 602.704 598.971 602.688 599.126 602.673C601.467 602.533 603.669 604.272 604.086 606.59L615.653 673.721C615.932 675.274 615.306 676.711 614.17 677.546C616.302 677.175 617.716 675.228 617.346 673.026Z" fill="#D8DEE8"/>
</g>
<path d="M555.639 696.091L518.735 694.746C524.113 709.906 524.971 725.97 522.259 741.779L553.9 742.939C566.789 743.402 577.707 733.249 578.194 720.384C578.657 707.495 568.504 696.577 555.639 696.091Z" fill="#F0F6FF"/>
<g style="mix-blend-mode:multiply" opacity="0.5">
<path d="M547.595 724.278C542.101 727.987 535.333 726.272 531.044 723.676C521.54 717 509.185 708.747 499.287 712.758C487.465 717.672 475.735 719.179 463.774 714.427C463.728 714.983 463.658 715.562 463.658 716.165C463.171 729.03 473.325 739.972 486.213 740.435L553.9 742.939C566.789 743.402 577.707 733.249 578.194 720.384C578.286 717.996 577.985 715.678 577.405 713.476C567.02 714.612 556.937 718.066 547.595 724.278Z" fill="#D8DEE8"/>
</g>
<path d="M518.735 694.746L487.928 693.611C475.04 693.124 464.122 703.277 463.658 716.165C463.171 729.031 473.325 739.972 486.213 740.435L522.259 741.78C524.971 725.971 524.113 709.907 518.735 694.746Z" fill="url(#paint31_linear_1_1061)"/>
<path style="mix-blend-mode:multiply" opacity="0.3" d="M523.557 718.646C515.583 713.662 506.728 709.722 499.287 712.758C487.465 717.672 475.735 719.179 463.774 714.427C463.759 714.69 463.736 714.953 463.705 715.215C463.674 715.524 463.658 715.841 463.658 716.166C463.171 729.031 473.325 739.972 486.213 740.436L522.259 741.78C523.58 734.084 524.044 726.319 523.557 718.646Z" fill="url(#paint32_linear_1_1061)"/>
<path d="M394.905 648.871L430.162 648.338C424.738 662.71 423.579 678.009 425.827 693.169L395.577 693.633C383.268 693.818 373.045 683.897 372.86 671.588C372.674 659.279 382.596 649.057 394.905 648.871Z" fill="#F0F6FF"/>
<g style="mix-blend-mode:multiply" opacity="0.5">
<path d="M401.998 675.945C407.167 679.585 413.658 678.101 417.807 675.713C427.01 669.524 438.994 661.898 448.359 665.931C459.555 670.869 470.705 672.561 482.226 668.249C482.272 668.806 482.319 669.362 482.319 669.918C482.504 682.227 472.606 692.45 460.297 692.635L395.577 693.632C383.268 693.818 373.045 683.896 372.86 671.587C372.837 669.292 373.138 667.09 373.764 665.004C383.662 666.302 393.189 669.802 401.998 675.945Z" fill="#D8DEE8"/>
</g>
<path d="M430.162 648.337L459.602 647.874C471.91 647.688 482.133 657.61 482.319 669.918C482.504 682.227 472.606 692.45 460.297 692.635L425.827 693.169C423.579 678.008 424.738 662.709 430.162 648.337Z" fill="url(#paint33_linear_1_1061)"/>
<path style="mix-blend-mode:multiply" opacity="0.3" d="M425.062 671.055C432.782 666.465 441.312 662.895 448.359 665.932C459.555 670.869 470.705 672.561 482.226 668.25C482.257 668.513 482.28 668.768 482.295 669.015C482.311 669.324 482.319 669.625 482.319 669.919C482.504 682.228 472.606 692.45 460.297 692.636L425.827 693.169C424.738 685.798 424.437 678.38 425.062 671.055Z" fill="url(#paint34_linear_1_1061)"/>
<defs>
<linearGradient id="paint0_linear_1_1061" x1="452.874" y1="-53.286" x2="-51.9614" y2="496.921" gradientUnits="userSpaceOnUse">
<stop stop-color="#42A5F5"/>
<stop offset="0.004" stop-color="#42A5F5"/>
<stop offset="1" stop-color="#9571F6"/>
</linearGradient>
<linearGradient id="paint1_linear_1_1061" x1="793.572" y1="414.607" x2="622.753" y2="856.258" gradientUnits="userSpaceOnUse">
<stop stop-color="#FFC444"/>
<stop offset="0.996" stop-color="#F36F56"/>
</linearGradient>
<linearGradient id="paint2_linear_1_1061" x1="191.356" y1="231.282" x2="646.077" y2="231.282" gradientUnits="userSpaceOnUse">
<stop stop-color="#311944"/>
<stop offset="1" stop-color="#893976"/>
</linearGradient>
<linearGradient id="paint3_linear_1_1061" x1="201.931" y1="231.683" x2="654.149" y2="231.683" gradientUnits="userSpaceOnUse">
<stop stop-color="#FF9085"/>
<stop offset="1" stop-color="#FB6FBB"/>
</linearGradient>
<linearGradient id="paint4_linear_1_1061" x1="446.279" y1="413.71" x2="732.613" y2="498.082" gradientUnits="userSpaceOnUse">
<stop stop-color="#FF9085"/>
<stop offset="1" stop-color="#FB6FBB"/>
</linearGradient>
<linearGradient id="paint5_linear_1_1061" x1="448.336" y1="393.688" x2="734.891" y2="478.125" gradientUnits="userSpaceOnUse">
<stop stop-color="#FF9085"/>
<stop offset="1" stop-color="#FB6FBB"/>
</linearGradient>
<linearGradient id="paint6_linear_1_1061" x1="450.124" y1="374.859" x2="736.754" y2="459.319" gradientUnits="userSpaceOnUse">
<stop stop-color="#FF9085"/>
<stop offset="1" stop-color="#FB6FBB"/>
</linearGradient>
<linearGradient id="paint7_linear_1_1061" x1="240.822" y1="578.344" x2="247.044" y2="485.71" gradientUnits="userSpaceOnUse">
<stop stop-color="#444B8C"/>
<stop offset="0.996" stop-color="#26264F"/>
</linearGradient>
<linearGradient id="paint8_linear_1_1061" x1="233.866" y1="548.754" x2="238.329" y2="482.311" gradientUnits="userSpaceOnUse">
<stop offset="0.1" stop-color="#311944"/>
<stop offset="1" stop-color="#893976"/>
</linearGradient>
<linearGradient id="paint9_linear_1_1061" x1="226.562" y1="483.703" x2="279.704" y2="512.194" gradientUnits="userSpaceOnUse">
<stop offset="0.1" stop-color="#311944"/>
<stop offset="1" stop-color="#893976"/>
</linearGradient>
<linearGradient id="paint10_linear_1_1061" x1="167.249" y1="586.433" x2="174.074" y2="484.818" gradientUnits="userSpaceOnUse">
<stop stop-color="#444B8C"/>
<stop offset="0.996" stop-color="#26264F"/>
</linearGradient>
<linearGradient id="paint11_linear_1_1061" x1="154.166" y1="585.519" x2="124.779" y2="316.902" gradientUnits="userSpaceOnUse">
<stop offset="0.1" stop-color="#311944"/>
<stop offset="1" stop-color="#893976"/>
</linearGradient>
<linearGradient id="paint12_linear_1_1061" x1="192.523" y1="890.651" x2="-26.7566" y2="768.552" gradientUnits="userSpaceOnUse">
<stop stop-color="#311944"/>
<stop offset="1" stop-color="#893976"/>
</linearGradient>
<linearGradient id="paint13_linear_1_1061" x1="447.713" y1="342.342" x2="503.341" y2="435.627" gradientUnits="userSpaceOnUse">
<stop stop-color="#311944"/>
<stop offset="1" stop-color="#893976"/>
</linearGradient>
<linearGradient id="paint14_linear_1_1061" x1="326.325" y1="428.086" x2="346.77" y2="702.485" gradientUnits="userSpaceOnUse">
<stop offset="0.1" stop-color="#311944"/>
<stop offset="1" stop-color="#893976"/>
</linearGradient>
<linearGradient id="paint15_linear_1_1061" x1="247.913" y1="447.119" x2="433.951" y2="590.461" gradientUnits="userSpaceOnUse">
<stop stop-color="#311944"/>
<stop offset="1" stop-color="#893976"/>
</linearGradient>
<linearGradient id="paint16_linear_1_1061" x1="170.955" y1="523.602" x2="229.309" y2="521.335" gradientUnits="userSpaceOnUse">
<stop offset="0.1" stop-color="#311944"/>
<stop offset="1" stop-color="#893976"/>
</linearGradient>
<linearGradient id="paint17_linear_1_1061" x1="236.294" y1="780.528" x2="214.981" y2="541.006" gradientUnits="userSpaceOnUse">
<stop offset="0.1" stop-color="#311944"/>
<stop offset="1" stop-color="#893976"/>
</linearGradient>
<linearGradient id="paint18_linear_1_1061" x1="246.354" y1="830.529" x2="210.898" y2="506.428" gradientUnits="userSpaceOnUse">
<stop stop-color="#311944"/>
<stop offset="1" stop-color="#893976"/>
</linearGradient>
<linearGradient id="paint19_linear_1_1061" x1="273.142" y1="655.937" x2="159.437" y2="596.5" gradientUnits="userSpaceOnUse">
<stop stop-color="#444B8C"/>
<stop offset="0.996" stop-color="#26264F"/>
</linearGradient>
<linearGradient id="paint20_linear_1_1061" x1="559.415" y1="532.442" x2="176.395" y2="669.83" gradientUnits="userSpaceOnUse">
<stop stop-color="#444B8C"/>
<stop offset="0.996" stop-color="#26264F"/>
</linearGradient>
<linearGradient id="paint21_linear_1_1061" x1="284.669" y1="525.815" x2="113.034" y2="471.143" gradientUnits="userSpaceOnUse">
<stop stop-color="#444B8C"/>
<stop offset="0.996" stop-color="#3E4177"/>
</linearGradient>
<linearGradient id="paint22_linear_1_1061" x1="81.962" y1="507.378" x2="38.909" y2="264.514" gradientUnits="userSpaceOnUse">
<stop stop-color="#42A5F5"/>
<stop offset="0.996" stop-color="#6165D7"/>
</linearGradient>
<linearGradient id="paint23_linear_1_1061" x1="89.3014" y1="488.454" x2="48.5176" y2="258.39" gradientUnits="userSpaceOnUse">
<stop stop-color="#AA80F9"/>
<stop offset="0.996" stop-color="#6165D7"/>
</linearGradient>
<linearGradient id="paint24_linear_1_1061" x1="209.214" y1="235.656" x2="304.816" y2="235.656" gradientUnits="userSpaceOnUse">
<stop stop-color="#AA80F9"/>
<stop offset="0.996" stop-color="#6165D7"/>
</linearGradient>
<linearGradient id="paint25_linear_1_1061" x1="580.892" y1="401.564" x2="700.64" y2="401.564" gradientUnits="userSpaceOnUse">
<stop stop-color="#FFC444"/>
<stop offset="0.996" stop-color="#F36F56"/>
</linearGradient>
<linearGradient id="paint26_linear_1_1061" x1="580.892" y1="401.564" x2="700.64" y2="401.564" gradientUnits="userSpaceOnUse">
<stop stop-color="#FFC444"/>
<stop offset="0.996" stop-color="#F36F56"/>
</linearGradient>
<linearGradient id="paint27_linear_1_1061" x1="687.589" y1="390.778" x2="608.224" y2="424.124" gradientUnits="userSpaceOnUse">
<stop stop-color="#EBEFF2"/>
<stop offset="1" stop-color="white"/>
</linearGradient>
<linearGradient id="paint28_linear_1_1061" x1="522.718" y1="641.006" x2="543.833" y2="777.89" gradientUnits="userSpaceOnUse">
<stop stop-color="#D8DEE8"/>
<stop offset="0.996" stop-color="#97A6B7"/>
</linearGradient>
<linearGradient id="paint29_linear_1_1061" x1="493.902" y1="632.585" x2="623.296" y2="575.036" gradientUnits="userSpaceOnUse">
<stop stop-color="#D8DEE8"/>
<stop offset="0.996" stop-color="#97A6B7"/>
</linearGradient>
<linearGradient id="paint30_linear_1_1061" x1="553.183" y1="594.828" x2="652.525" y2="594.828" gradientUnits="userSpaceOnUse">
<stop stop-color="#D8DEE8"/>
<stop offset="0.996" stop-color="#97A6B7"/>
</linearGradient>
<linearGradient id="paint31_linear_1_1061" x1="468.157" y1="647.748" x2="579.894" y2="764.626" gradientUnits="userSpaceOnUse">
<stop stop-color="#FF9085"/>
<stop offset="1" stop-color="#FB6FBB"/>
</linearGradient>
<linearGradient id="paint32_linear_1_1061" x1="463.868" y1="710.178" x2="524.263" y2="712.402" gradientUnits="userSpaceOnUse">
<stop stop-color="#FF9085"/>
<stop offset="1" stop-color="#FB6FBB"/>
</linearGradient>
<linearGradient id="paint33_linear_1_1061" x1="479.433" y1="604.504" x2="370.326" y2="713.801" gradientUnits="userSpaceOnUse">
<stop stop-color="#FF9085"/>
<stop offset="1" stop-color="#FB6FBB"/>
</linearGradient>
<linearGradient id="paint34_linear_1_1061" x1="482.24" y1="664.204" x2="424.523" y2="665.082" gradientUnits="userSpaceOnUse">
<stop stop-color="#FF9085"/>
<stop offset="1" stop-color="#FB6FBB"/>
</linearGradient>
</defs>
</svg>
