<svg width="20" height="21" viewBox="0 0 20 21" fill="none" xmlns="http://www.w3.org/2000/svg">
<path d="M4.79001 16.3809H7.0715L13.59 10.3601L11.2542 8.18448L4.79001 14.2053V16.3809ZM14.3505 9.65174L15.4912 8.53864C15.5999 8.43745 15.6542 8.3194 15.6542 8.18448C15.6542 8.04956 15.5999 7.9315 15.4912 7.83031L13.9703 6.41364C13.8616 6.31245 13.7349 6.26186 13.59 6.26186C13.4452 6.26186 13.3184 6.31245 13.2098 6.41364L12.0147 7.47614L14.3505 9.65174ZM2.61718 20.4285C2.01964 20.4285 1.50812 20.2304 1.08261 19.834C0.657093 19.4377 0.444336 18.9613 0.444336 18.4047V4.23805C0.444336 3.6815 0.657093 3.20506 1.08261 2.80873C1.50812 2.4124 2.01964 2.21424 2.61718 2.21424H7.18014C7.41553 1.6071 7.80936 1.11801 8.36162 0.746977C8.91388 0.375946 9.53405 0.19043 10.2221 0.19043C10.9102 0.19043 11.5303 0.375946 12.0826 0.746977C12.6349 1.11801 13.0287 1.6071 13.2641 2.21424H17.8271C18.4246 2.21424 18.9361 2.4124 19.3616 2.80873C19.7871 3.20506 19.9999 3.6815 19.9999 4.23805V18.4047C19.9999 18.9613 19.7871 19.4377 19.3616 19.834C18.9361 20.2304 18.4246 20.4285 17.8271 20.4285H2.61718ZM2.61718 18.4047H17.8271V4.23805H2.61718V18.4047ZM10.2221 3.47912C10.4575 3.47912 10.6522 3.40744 10.8061 3.26409C10.96 3.12074 11.0369 2.93944 11.0369 2.72019C11.0369 2.50095 10.96 2.31965 10.8061 2.17629C10.6522 2.03294 10.4575 1.96126 10.2221 1.96126C9.98672 1.96126 9.79207 2.03294 9.63816 2.17629C9.48425 2.31965 9.4073 2.50095 9.4073 2.72019C9.4073 2.93944 9.48425 3.12074 9.63816 3.26409C9.79207 3.40744 9.98672 3.47912 10.2221 3.47912Z" fill="#9099AB"/>
</svg>
