<svg width="16" height="21" viewBox="0 0 16 21" fill="none" xmlns="http://www.w3.org/2000/svg">
<path d="M7 18H9V15H12V13H9V10H7V13H4V15H7V18ZM2 21C1.45 21 0.979167 20.8042 0.5875 20.4125C0.195833 20.0208 0 19.55 0 19V9C0 8.45 0.195833 7.97917 0.5875 7.5875C0.979167 7.19583 1.45 7 2 7H3V5C3 3.61667 3.4875 2.4375 4.4625 1.4625C5.4375 0.4875 6.61667 0 8 0C9.38333 0 10.5625 0.4875 11.5375 1.4625C12.5125 2.4375 13 3.61667 13 5V7H14C14.55 7 15.0208 7.19583 15.4125 7.5875C15.8042 7.97917 16 8.45 16 9V19C16 19.55 15.8042 20.0208 15.4125 20.4125C15.0208 20.8042 14.55 21 14 21H2ZM2 19H14V9H2V19ZM5 7H11V5C11 4.16667 10.7083 3.45833 10.125 2.875C9.54167 2.29167 8.83333 2 8 2C7.16667 2 6.45833 2.29167 5.875 2.875C5.29167 3.45833 5 4.16667 5 5V7Z" fill="#9099AB"/>
</svg>
