<svg width="16" height="20" viewBox="0 0 16 20" fill="none" xmlns="http://www.w3.org/2000/svg">
<path d="M8 10C9.35 10 10.7583 9.8625 12.225 9.5875C13.6917 9.3125 14.95 8.95 16 8.5V18.5C15 18.95 13.7833 19.3125 12.35 19.5875C10.9167 19.8625 9.46667 20 8 20C6.53333 20 5.08333 19.8625 3.65 19.5875C2.21667 19.3125 1 18.95 0 18.5V8.5C1.05 8.95 2.30833 9.3125 3.775 9.5875C5.24167 9.8625 6.65 10 8 10ZM14 17V11.25C13.1667 11.4833 12.2042 11.6667 11.1125 11.8C10.0208 11.9333 8.98333 12 8 12C7.01667 12 5.97917 11.9333 4.8875 11.8C3.79583 11.6667 2.83333 11.4833 2 11.25V17C2.83333 17.3 3.79167 17.5417 4.875 17.725C5.95833 17.9083 7 18 8 18C9 18 10.0417 17.9083 11.125 17.725C12.2083 17.5417 13.1667 17.3 14 17ZM8 0C9.1 0 10.0417 0.391667 10.825 1.175C11.6083 1.95833 12 2.9 12 4C12 5.1 11.6083 6.04167 10.825 6.825C10.0417 7.60833 9.1 8 8 8C6.9 8 5.95833 7.60833 5.175 6.825C4.39167 6.04167 4 5.1 4 4C4 2.9 4.39167 1.95833 5.175 1.175C5.95833 0.391667 6.9 0 8 0ZM8 6C8.55 6 9.02083 5.80417 9.4125 5.4125C9.80417 5.02083 10 4.55 10 4C10 3.45 9.80417 2.97917 9.4125 2.5875C9.02083 2.19583 8.55 2 8 2C7.45 2 6.97917 2.19583 6.5875 2.5875C6.19583 2.97917 6 3.45 6 4C6 4.55 6.19583 5.02083 6.5875 5.4125C6.97917 5.80417 7.45 6 8 6Z" fill="#8E999A"/>
</svg>
