<svg width="71" height="64" viewBox="0 0 71 64" fill="none" xmlns="http://www.w3.org/2000/svg">
<path d="M0.916626 18.1257V7.75065C0.916626 5.84857 1.59388 4.22027 2.9484 2.86576C4.30291 1.51124 5.93121 0.833984 7.83329 0.833984H63.1666C65.0687 0.833984 66.697 1.51124 68.0515 2.86576C69.406 4.22027 70.0833 5.84857 70.0833 7.75065V26.7715H63.1666V7.75065H7.83329V18.1257H0.916626ZM18.2083 45.7923C17.5743 45.7923 16.9691 45.6338 16.3927 45.3168C15.8163 44.9998 15.384 44.5243 15.0958 43.8902L9.13017 31.959H0.916626V25.0423H11.2916C11.9257 25.0423 12.5309 25.2008 13.1073 25.5178C13.6836 25.8349 14.1159 26.3104 14.4041 26.9444L18.2083 34.5527L28.9291 13.1111C29.2173 12.5347 29.6496 12.1024 30.226 11.8142C30.8024 11.526 31.4076 11.3819 32.0416 11.3819C32.6757 11.3819 33.2809 11.526 33.8573 11.8142C34.4336 12.1024 34.8659 12.5347 35.1541 13.1111L40.9468 24.6965C39.9093 25.3305 38.9151 25.9934 37.964 26.685C37.013 27.3767 36.134 28.1548 35.327 29.0194L32.0416 22.4486L21.3208 43.8902C21.0326 44.5243 20.6003 44.9998 20.0239 45.3168C19.4475 45.6338 18.8423 45.7923 18.2083 45.7923ZM30.9177 56.1673H7.83329C5.93121 56.1673 4.30291 55.4901 2.9484 54.1355C1.59388 52.781 0.916626 51.1527 0.916626 49.2506V38.8756H7.83329V49.2506H28.8427C29.0156 50.4611 29.275 51.6427 29.6208 52.7954C29.9666 53.9482 30.3989 55.0722 30.9177 56.1673ZM52.7916 63.084C48.0076 63.084 43.9296 61.398 40.5578 58.0262C37.1859 54.6543 35.5 50.5763 35.5 45.7923C35.5 41.0083 37.1859 36.9303 40.5578 33.5585C43.9296 30.1866 48.0076 28.5007 52.7916 28.5007C57.5757 28.5007 61.6536 30.1866 65.0255 33.5585C68.3974 36.9303 70.0833 41.0083 70.0833 45.7923C70.0833 50.5763 68.3974 54.6543 65.0255 58.0262C61.6536 61.398 57.5757 63.084 52.7916 63.084ZM53.4833 47.5215L61.351 39.6538L58.9302 37.2329L51.0625 45.1007L53.4833 47.5215Z" fill="#42A5F5"/>
</svg>
