<svg width="83" height="83" viewBox="0 0 83 83" fill="none" xmlns="http://www.w3.org/2000/svg">
<mask id="mask0_1_1051" style="mask-type:alpha" maskUnits="userSpaceOnUse" x="0" y="0" width="83" height="83">
<rect width="83" height="83" fill="#D9D9D9"/>
</mask>
<g mask="url(#mask0_1_1051)">
<path d="M17.2917 76.0827C15.3896 76.0827 13.7613 75.4054 12.4068 74.0509C11.0523 72.6964 10.375 71.0681 10.375 69.166V20.7493C10.375 18.8473 11.0523 17.219 12.4068 15.8645C13.7613 14.5099 15.3896 13.8327 17.2917 13.8327H20.75V6.91602H27.6667V13.8327H55.3333V6.91602H62.25V13.8327H65.7083C67.6104 13.8327 69.2387 14.5099 70.5932 15.8645C71.9477 17.219 72.625 18.8473 72.625 20.7493V69.166C72.625 71.0681 71.9477 72.6964 70.5932 74.0509C69.2387 75.4054 67.6104 76.0827 65.7083 76.0827H17.2917ZM17.2917 69.166H65.7083V34.5827H17.2917V69.166ZM17.2917 27.666H65.7083V20.7493H17.2917V27.666ZM41.5 48.416C40.5201 48.416 39.6988 48.0846 39.0359 47.4217C38.3731 46.7589 38.0417 45.9375 38.0417 44.9577C38.0417 43.9778 38.3731 43.1565 39.0359 42.4936C39.6988 41.8308 40.5201 41.4993 41.5 41.4993C42.4799 41.4993 43.3012 41.8308 43.9641 42.4936C44.6269 43.1565 44.9583 43.9778 44.9583 44.9577C44.9583 45.9375 44.6269 46.7589 43.9641 47.4217C43.3012 48.0846 42.4799 48.416 41.5 48.416ZM27.6667 48.416C26.6868 48.416 25.8655 48.0846 25.2026 47.4217C24.5398 46.7589 24.2083 45.9375 24.2083 44.9577C24.2083 43.9778 24.5398 43.1565 25.2026 42.4936C25.8655 41.8308 26.6868 41.4993 27.6667 41.4993C28.6465 41.4993 29.4679 41.8308 30.1307 42.4936C30.7936 43.1565 31.125 43.9778 31.125 44.9577C31.125 45.9375 30.7936 46.7589 30.1307 47.4217C29.4679 48.0846 28.6465 48.416 27.6667 48.416ZM55.3333 48.416C54.3535 48.416 53.5321 48.0846 52.8693 47.4217C52.2064 46.7589 51.875 45.9375 51.875 44.9577C51.875 43.9778 52.2064 43.1565 52.8693 42.4936C53.5321 41.8308 54.3535 41.4993 55.3333 41.4993C56.3132 41.4993 57.1345 41.8308 57.7974 42.4936C58.4602 43.1565 58.7917 43.9778 58.7917 44.9577C58.7917 45.9375 58.4602 46.7589 57.7974 47.4217C57.1345 48.0846 56.3132 48.416 55.3333 48.416ZM41.5 62.2493C40.5201 62.2493 39.6988 61.9179 39.0359 61.2551C38.3731 60.5922 38.0417 59.7709 38.0417 58.791C38.0417 57.8112 38.3731 56.9898 39.0359 56.327C39.6988 55.6641 40.5201 55.3327 41.5 55.3327C42.4799 55.3327 43.3012 55.6641 43.9641 56.327C44.6269 56.9898 44.9583 57.8112 44.9583 58.791C44.9583 59.7709 44.6269 60.5922 43.9641 61.2551C43.3012 61.9179 42.4799 62.2493 41.5 62.2493ZM27.6667 62.2493C26.6868 62.2493 25.8655 61.9179 25.2026 61.2551C24.5398 60.5922 24.2083 59.7709 24.2083 58.791C24.2083 57.8112 24.5398 56.9898 25.2026 56.327C25.8655 55.6641 26.6868 55.3327 27.6667 55.3327C28.6465 55.3327 29.4679 55.6641 30.1307 56.327C30.7936 56.9898 31.125 57.8112 31.125 58.791C31.125 59.7709 30.7936 60.5922 30.1307 61.2551C29.4679 61.9179 28.6465 62.2493 27.6667 62.2493ZM55.3333 62.2493C54.3535 62.2493 53.5321 61.9179 52.8693 61.2551C52.2064 60.5922 51.875 59.7709 51.875 58.791C51.875 57.8112 52.2064 56.9898 52.8693 56.327C53.5321 55.6641 54.3535 55.3327 55.3333 55.3327C56.3132 55.3327 57.1345 55.6641 57.7974 56.327C58.4602 56.9898 58.7917 57.8112 58.7917 58.791C58.7917 59.7709 58.4602 60.5922 57.7974 61.2551C57.1345 61.9179 56.3132 62.2493 55.3333 62.2493Z" fill="#42A5F5"/>
</g>
</svg>
