<svg width="332" height="376" viewBox="0 0 332 376" fill="none" xmlns="http://www.w3.org/2000/svg">
<path d="M220.171 99.9146C226.833 98.9056 232.565 104.638 231.556 111.299L223.533 164.267C223.383 165.26 223.383 166.269 223.533 167.262L231.556 220.23C232.565 226.891 226.833 232.623 220.171 231.614L167.204 223.591C166.211 223.441 165.201 223.441 164.209 223.591L111.241 231.614C104.58 232.623 98.8475 226.891 99.8564 220.23L107.88 167.262C108.03 166.269 108.03 165.26 107.88 164.267L99.8564 111.299C98.8475 104.638 104.58 98.9056 111.241 99.9146L164.209 107.938C165.201 108.088 166.211 108.088 167.204 107.938L220.171 99.9146Z" fill="#42A5F5"/>
<path d="M235.173 85.3356C241.501 84.377 246.947 89.8231 245.989 96.1512L235.705 164.045C235.547 165.088 235.547 166.148 235.705 167.19L245.989 235.084C246.947 241.412 241.501 246.858 235.173 245.9L167.279 235.616C166.236 235.458 165.176 235.458 164.134 235.616L96.2398 245.9C89.9117 246.858 84.4656 241.412 85.4242 235.084L95.7082 167.19C95.8661 166.148 95.8661 165.088 95.7082 164.045L85.4242 96.1512C84.4657 89.8231 89.9117 84.377 96.2398 85.3356L164.134 95.6196C165.176 95.7775 166.236 95.7775 167.279 95.6196L235.173 85.3356Z" stroke="#42A5F5" stroke-opacity="0.6"/>
<path d="M14.8344 299V279.224H6.83436V276.44H26.1304V279.224H18.1304V299H14.8344ZM37.2786 299.288C35.1239 299.288 33.2573 298.819 31.6786 297.88C30.0999 296.92 28.8733 295.576 27.9986 293.848C27.1453 292.099 26.7186 290.051 26.7186 287.704C26.7186 285.336 27.1453 283.288 27.9986 281.56C28.8733 279.832 30.0999 278.499 31.6786 277.56C33.2573 276.621 35.1239 276.152 37.2786 276.152C39.4119 276.152 41.2679 276.621 42.8466 277.56C44.4466 278.499 45.6733 279.832 46.5266 281.56C47.4013 283.288 47.8386 285.325 47.8386 287.672C47.8386 290.04 47.4013 292.099 46.5266 293.848C45.6733 295.576 44.4466 296.92 42.8466 297.88C41.2679 298.819 39.4119 299.288 37.2786 299.288ZM37.2786 296.408C39.5186 296.408 41.2573 295.651 42.4946 294.136C43.7533 292.6 44.3826 290.456 44.3826 287.704C44.3826 284.952 43.7639 282.819 42.5266 281.304C41.2893 279.789 39.5399 279.032 37.2786 279.032C35.0386 279.032 33.2893 279.789 32.0306 281.304C30.7933 282.819 30.1746 284.952 30.1746 287.704C30.1746 290.456 30.7933 292.6 32.0306 294.136C33.2893 295.651 35.0386 296.408 37.2786 296.408ZM52.2991 299V276.44H61.6431C64.0751 276.44 65.9524 277.048 67.2751 278.264C68.5978 279.459 69.2591 281.144 69.2591 283.32C69.2591 285.517 68.5978 287.224 67.2751 288.44C65.9524 289.635 64.0751 290.232 61.6431 290.232H55.6271V299H52.2991ZM55.6271 287.576H61.1631C64.4058 287.576 66.0271 286.157 66.0271 283.32C66.0271 280.504 64.4058 279.096 61.1631 279.096H55.6271V287.576ZM81.3006 299V276.44H84.0846L92.4366 292.024L100.757 276.44H103.477V299H100.501V282.456L93.4286 295.544H91.4126L84.3086 282.52V299H81.3006ZM108.799 299V276.44H123.391V279.128H111.999V286.2H122.719V288.888H111.999V296.312H123.391V299H108.799ZM127.643 299V276.44H135.611C139.323 276.44 142.182 277.411 144.187 279.352C146.214 281.293 147.227 284.077 147.227 287.704C147.227 291.331 146.214 294.125 144.187 296.088C142.182 298.029 139.323 299 135.611 299H127.643ZM130.971 296.216H135.419C140.987 296.216 143.771 293.379 143.771 287.704C143.771 282.051 140.987 279.224 135.419 279.224H130.971V296.216ZM151.674 299V276.44H155.002V299H151.674ZM170.317 299.288C168.035 299.288 166.083 298.819 164.461 297.88C162.84 296.941 161.592 295.608 160.717 293.88C159.864 292.131 159.437 290.072 159.437 287.704C159.437 285.336 159.864 283.288 160.717 281.56C161.592 279.832 162.84 278.499 164.461 277.56C166.083 276.621 168.035 276.152 170.317 276.152C171.853 276.152 173.283 276.397 174.605 276.888C175.949 277.357 177.069 278.04 177.965 278.936L176.813 281.592C175.832 280.717 174.819 280.088 173.773 279.704C172.749 279.299 171.629 279.096 170.413 279.096C167.981 279.096 166.125 279.843 164.845 281.336C163.565 282.829 162.925 284.952 162.925 287.704C162.925 290.456 163.565 292.589 164.845 294.104C166.125 295.597 167.981 296.344 170.413 296.344C171.629 296.344 172.749 296.152 173.773 295.768C174.819 295.363 175.832 294.723 176.813 293.848L177.965 296.504C177.069 297.379 175.949 298.061 174.605 298.552C173.283 299.043 171.853 299.288 170.317 299.288ZM179.058 299L189.106 276.44H191.858L201.938 299H198.546L196.178 293.496H184.754L182.418 299H179.058ZM190.45 280.12L185.938 290.808H195.058L190.514 280.12H190.45ZM204.893 299V276.44H208.221V296.152H219.389V299H204.893ZM238.475 299.288C236.705 299.288 235.083 299.064 233.611 298.616C232.139 298.147 230.891 297.496 229.867 296.664L230.923 294.04C231.99 294.851 233.131 295.459 234.347 295.864C235.563 296.269 236.939 296.472 238.475 296.472C240.289 296.472 241.622 296.152 242.475 295.512C243.35 294.851 243.787 293.997 243.787 292.952C243.787 292.099 243.478 291.427 242.859 290.936C242.241 290.424 241.206 290.019 239.755 289.72L236.331 289.016C234.305 288.589 232.79 287.885 231.787 286.904C230.806 285.923 230.315 284.6 230.315 282.936C230.315 281.592 230.667 280.408 231.371 279.384C232.097 278.36 233.099 277.571 234.379 277.016C235.659 276.44 237.131 276.152 238.795 276.152C240.331 276.152 241.75 276.387 243.051 276.856C244.374 277.304 245.494 277.965 246.411 278.84L245.323 281.368C243.51 279.768 241.323 278.968 238.763 278.968C237.185 278.968 235.926 279.32 234.987 280.024C234.07 280.728 233.611 281.667 233.611 282.84C233.611 283.736 233.899 284.451 234.475 284.984C235.051 285.517 236.011 285.923 237.355 286.2L240.747 286.904C242.881 287.352 244.47 288.045 245.515 288.984C246.561 289.901 247.083 291.149 247.083 292.728C247.083 294.051 246.731 295.203 246.027 296.184C245.323 297.165 244.331 297.933 243.051 298.488C241.771 299.021 240.246 299.288 238.475 299.288ZM255.897 299V279.224H247.897V276.44H267.193V279.224H259.193V299H255.897ZM265.215 299L275.263 276.44H278.015L288.095 299H284.703L282.335 293.496H270.911L268.575 299H265.215ZM276.607 280.12L272.095 290.808H281.215L276.671 280.12H276.607ZM291.049 299V276.44H305.385V279.128H294.377V286.328H304.713V289.016H294.377V299H291.049ZM308.768 299V276.44H323.104V279.128H312.096V286.328H322.432V289.016H312.096V299H308.768Z" fill="#3F3F3F"/>
<path d="M13.2724 339V326.31H17.5564C19.6084 326.31 21.1924 326.856 22.3084 327.948C23.4244 329.028 23.9824 330.594 23.9824 332.646C23.9824 334.698 23.4244 336.27 22.3084 337.362C21.1924 338.454 19.6084 339 17.5564 339H13.2724ZM14.7484 337.74H17.4484C20.7604 337.74 22.4164 336.042 22.4164 332.646C22.4164 329.262 20.7604 327.57 17.4484 327.57H14.7484V337.74ZM26.2537 328.074V326.436H28.0537V328.074H26.2537ZM26.4337 339V330.252H27.8917V339H26.4337ZM33.5693 339.162C32.8853 339.162 32.2373 339.066 31.6253 338.874C31.0133 338.682 30.5093 338.412 30.1133 338.064L30.5813 337.038C31.0133 337.386 31.4873 337.644 32.0033 337.812C32.5313 337.968 33.0653 338.046 33.6053 338.046C34.2893 338.046 34.8053 337.92 35.1533 337.668C35.5013 337.416 35.6753 337.074 35.6753 336.642C35.6753 336.306 35.5613 336.042 35.3333 335.85C35.1053 335.646 34.7453 335.49 34.2533 335.382L32.6153 335.022C31.1273 334.698 30.3833 333.93 30.3833 332.718C30.3833 331.926 30.6953 331.29 31.3193 330.81C31.9553 330.33 32.7833 330.09 33.8033 330.09C34.4033 330.09 34.9733 330.186 35.5133 330.378C36.0653 330.558 36.5213 330.828 36.8813 331.188L36.3953 332.214C36.0473 331.89 35.6393 331.644 35.1713 331.476C34.7153 331.296 34.2593 331.206 33.8033 331.206C33.1313 331.206 32.6213 331.338 32.2733 331.602C31.9253 331.866 31.7513 332.214 31.7513 332.646C31.7513 333.318 32.1953 333.75 33.0833 333.942L34.7213 334.284C35.4893 334.452 36.0713 334.722 36.4673 335.094C36.8633 335.454 37.0613 335.946 37.0613 336.57C37.0613 337.374 36.7433 338.01 36.1073 338.478C35.4713 338.934 34.6253 339.162 33.5693 339.162ZM42.9913 339.162C42.1153 339.162 41.3593 338.976 40.7233 338.604C40.0873 338.22 39.5953 337.686 39.2473 337.002C38.9113 336.306 38.7433 335.496 38.7433 334.572C38.7433 333.18 39.1213 332.088 39.8773 331.296C40.6333 330.492 41.6713 330.09 42.9913 330.09C43.5313 330.09 44.0653 330.186 44.5933 330.378C45.1213 330.57 45.5593 330.84 45.9073 331.188L45.4033 332.25C45.0553 331.914 44.6713 331.668 44.2513 331.512C43.8433 331.356 43.4533 331.278 43.0813 331.278C42.1693 331.278 41.4673 331.566 40.9753 332.142C40.4833 332.706 40.2373 333.522 40.2373 334.59C40.2373 335.634 40.4833 336.462 40.9753 337.074C41.4673 337.674 42.1693 337.974 43.0813 337.974C43.4533 337.974 43.8433 337.896 44.2513 337.74C44.6713 337.584 45.0553 337.332 45.4033 336.984L45.9073 338.046C45.5593 338.394 45.1153 338.67 44.5753 338.874C44.0473 339.066 43.5193 339.162 42.9913 339.162ZM51.0756 339.162C50.2236 339.162 49.4856 338.976 48.8616 338.604C48.2376 338.232 47.7516 337.71 47.4036 337.038C47.0676 336.354 46.8996 335.55 46.8996 334.626C46.8996 333.702 47.0676 332.904 47.4036 332.232C47.7516 331.548 48.2376 331.02 48.8616 330.648C49.4856 330.276 50.2236 330.09 51.0756 330.09C51.9156 330.09 52.6476 330.276 53.2716 330.648C53.9076 331.02 54.3936 331.548 54.7296 332.232C55.0776 332.904 55.2516 333.702 55.2516 334.626C55.2516 335.55 55.0776 336.354 54.7296 337.038C54.3936 337.71 53.9076 338.232 53.2716 338.604C52.6476 338.976 51.9156 339.162 51.0756 339.162ZM51.0756 337.992C51.8916 337.992 52.5456 337.704 53.0376 337.128C53.5296 336.54 53.7756 335.706 53.7756 334.626C53.7756 333.534 53.5296 332.7 53.0376 332.124C52.5456 331.548 51.8916 331.26 51.0756 331.26C50.2476 331.26 49.5876 331.548 49.0956 332.124C48.6156 332.7 48.3756 333.534 48.3756 334.626C48.3756 335.706 48.6156 336.54 49.0956 337.128C49.5876 337.704 50.2476 337.992 51.0756 337.992ZM59.8925 339L56.1305 330.252H57.7145L60.6125 337.344L63.5465 330.252H65.0405L61.2605 339H59.8925ZM70.4011 339.162C69.0211 339.162 67.9291 338.76 67.1251 337.956C66.3211 337.14 65.9191 336.036 65.9191 334.644C65.9191 333.744 66.0991 332.952 66.4591 332.268C66.8191 331.572 67.3111 331.038 67.9351 330.666C68.5711 330.282 69.3031 330.09 70.1311 330.09C71.3191 330.09 72.2491 330.474 72.9211 331.242C73.5931 331.998 73.9291 333.042 73.9291 334.374V334.932H67.3411C67.3891 335.928 67.6771 336.69 68.2051 337.218C68.7331 337.734 69.4651 337.992 70.4011 337.992C70.9291 337.992 71.4331 337.914 71.9131 337.758C72.3931 337.59 72.8491 337.32 73.2811 336.948L73.7851 337.974C73.3891 338.346 72.8851 338.64 72.2731 338.856C71.6611 339.06 71.0371 339.162 70.4011 339.162ZM70.1671 331.17C69.3391 331.17 68.6851 331.428 68.2051 331.944C67.7251 332.46 67.4431 333.138 67.3591 333.978H72.6691C72.6331 333.09 72.3991 332.4 71.9671 331.908C71.5471 331.416 70.9471 331.17 70.1671 331.17ZM76.0392 339V330.252H77.4612V331.818C77.9292 330.762 78.8892 330.18 80.3412 330.072L80.8632 330.018L80.9712 331.278L80.0532 331.386C79.2252 331.458 78.5952 331.722 78.1632 332.178C77.7312 332.622 77.5152 333.234 77.5152 334.014V339H76.0392ZM92.6394 339.162C91.4634 339.162 90.4374 338.898 89.5614 338.37C88.6974 337.83 88.0254 337.074 87.5454 336.102C87.0774 335.13 86.8434 333.978 86.8434 332.646C86.8434 331.314 87.0774 330.162 87.5454 329.19C88.0134 328.218 88.6794 327.468 89.5434 326.94C90.4194 326.412 91.4514 326.148 92.6394 326.148C93.8394 326.148 94.8714 326.412 95.7354 326.94C96.6114 327.468 97.2834 328.218 97.7514 329.19C98.2314 330.15 98.4714 331.296 98.4714 332.628C98.4714 333.96 98.2314 335.118 97.7514 336.102C97.2714 337.074 96.5934 337.83 95.7174 338.37C94.8534 338.898 93.8274 339.162 92.6394 339.162ZM92.6394 337.848C93.9954 337.848 95.0454 337.392 95.7894 336.48C96.5334 335.568 96.9054 334.29 96.9054 332.646C96.9054 331.002 96.5334 329.73 95.7894 328.83C95.0454 327.918 93.9954 327.462 92.6394 327.462C91.3074 327.462 90.2694 327.918 89.5254 328.83C88.7814 329.73 88.4094 331.002 88.4094 332.646C88.4094 334.278 88.7814 335.556 89.5254 336.48C90.2694 337.392 91.3074 337.848 92.6394 337.848ZM104.008 339.162C101.908 339.162 100.858 338.004 100.858 335.688V330.252H102.316V335.67C102.316 336.45 102.472 337.026 102.784 337.398C103.108 337.77 103.612 337.956 104.296 337.956C105.04 337.956 105.646 337.71 106.114 337.218C106.582 336.714 106.816 336.048 106.816 335.22V330.252H108.274V339H106.852V337.524C106.576 338.052 106.186 338.46 105.682 338.748C105.19 339.024 104.632 339.162 104.008 339.162ZM111.002 339V330.252H112.424V331.818C112.892 330.762 113.852 330.18 115.304 330.072L115.826 330.018L115.934 331.278L115.016 331.386C114.188 331.458 113.558 331.722 113.126 332.178C112.694 332.622 112.478 333.234 112.478 334.014V339H111.002ZM122.274 339V326.31H126.558C128.61 326.31 130.194 326.856 131.31 327.948C132.426 329.028 132.984 330.594 132.984 332.646C132.984 334.698 132.426 336.27 131.31 337.362C130.194 338.454 128.61 339 126.558 339H122.274ZM123.75 337.74H126.45C129.762 337.74 131.418 336.042 131.418 332.646C131.418 329.262 129.762 327.57 126.45 327.57H123.75V337.74ZM139.378 339.162C137.998 339.162 136.906 338.76 136.102 337.956C135.298 337.14 134.896 336.036 134.896 334.644C134.896 333.744 135.076 332.952 135.436 332.268C135.796 331.572 136.288 331.038 136.912 330.666C137.548 330.282 138.28 330.09 139.108 330.09C140.296 330.09 141.226 330.474 141.898 331.242C142.57 331.998 142.906 333.042 142.906 334.374V334.932H136.318C136.366 335.928 136.654 336.69 137.182 337.218C137.71 337.734 138.442 337.992 139.378 337.992C139.906 337.992 140.41 337.914 140.89 337.758C141.37 337.59 141.826 337.32 142.258 336.948L142.762 337.974C142.366 338.346 141.862 338.64 141.25 338.856C140.638 339.06 140.014 339.162 139.378 339.162ZM139.144 331.17C138.316 331.17 137.662 331.428 137.182 331.944C136.702 332.46 136.42 333.138 136.336 333.978H141.646C141.61 333.09 141.376 332.4 140.944 331.908C140.524 331.416 139.924 331.17 139.144 331.17ZM148.346 339.162C147.566 339.162 146.882 338.976 146.294 338.604C145.718 338.232 145.268 337.71 144.944 337.038C144.632 336.354 144.476 335.55 144.476 334.626C144.476 333.69 144.632 332.886 144.944 332.214C145.268 331.53 145.718 331.008 146.294 330.648C146.882 330.276 147.566 330.09 148.346 330.09C149.03 330.09 149.63 330.24 150.146 330.54C150.674 330.84 151.064 331.254 151.316 331.782V326.31H152.774V339H151.352V337.398C151.1 337.95 150.71 338.382 150.182 338.694C149.654 339.006 149.042 339.162 148.346 339.162ZM148.652 337.992C149.468 337.992 150.122 337.704 150.614 337.128C151.106 336.54 151.352 335.706 151.352 334.626C151.352 333.534 151.106 332.7 150.614 332.124C150.122 331.548 149.468 331.26 148.652 331.26C147.824 331.26 147.164 331.548 146.672 332.124C146.192 332.7 145.952 333.534 145.952 334.626C145.952 335.706 146.192 336.54 146.672 337.128C147.164 337.704 147.824 337.992 148.652 337.992ZM155.33 328.074V326.436H157.13V328.074H155.33ZM155.51 339V330.252H156.968V339H155.51ZM163.402 339.162C162.526 339.162 161.77 338.976 161.134 338.604C160.498 338.22 160.006 337.686 159.658 337.002C159.322 336.306 159.154 335.496 159.154 334.572C159.154 333.18 159.532 332.088 160.288 331.296C161.044 330.492 162.082 330.09 163.402 330.09C163.942 330.09 164.476 330.186 165.004 330.378C165.532 330.57 165.97 330.84 166.318 331.188L165.814 332.25C165.466 331.914 165.082 331.668 164.662 331.512C164.254 331.356 163.864 331.278 163.492 331.278C162.58 331.278 161.878 331.566 161.386 332.142C160.894 332.706 160.648 333.522 160.648 334.59C160.648 335.634 160.894 336.462 161.386 337.074C161.878 337.674 162.58 337.974 163.492 337.974C163.864 337.974 164.254 337.896 164.662 337.74C165.082 337.584 165.466 337.332 165.814 336.984L166.318 338.046C165.97 338.394 165.526 338.67 164.986 338.874C164.458 339.066 163.93 339.162 163.402 339.162ZM170.709 339.162C170.109 339.162 169.569 339.048 169.089 338.82C168.621 338.58 168.249 338.256 167.973 337.848C167.697 337.44 167.559 336.984 167.559 336.48C167.559 335.844 167.721 335.34 168.045 334.968C168.381 334.596 168.927 334.332 169.683 334.176C170.451 334.008 171.495 333.924 172.815 333.924H173.391V333.366C173.391 332.622 173.235 332.088 172.923 331.764C172.623 331.428 172.137 331.26 171.465 331.26C170.937 331.26 170.427 331.338 169.935 331.494C169.443 331.638 168.939 331.878 168.423 332.214L167.919 331.152C168.375 330.828 168.927 330.57 169.575 330.378C170.235 330.186 170.865 330.09 171.465 330.09C172.593 330.09 173.427 330.366 173.967 330.918C174.519 331.47 174.795 332.328 174.795 333.492V339H173.427V337.488C173.199 338.004 172.845 338.412 172.365 338.712C171.897 339.012 171.345 339.162 170.709 339.162ZM170.943 338.064C171.663 338.064 172.251 337.818 172.707 337.326C173.163 336.822 173.391 336.186 173.391 335.418V334.878H172.833C171.861 334.878 171.093 334.926 170.529 335.022C169.977 335.106 169.587 335.262 169.359 335.49C169.143 335.706 169.035 336.006 169.035 336.39C169.035 336.882 169.203 337.284 169.539 337.596C169.887 337.908 170.355 338.064 170.943 338.064ZM181.01 339.162C179.978 339.162 179.204 338.892 178.688 338.352C178.172 337.8 177.914 337.008 177.914 335.976V331.386H176.204V330.252H177.914V327.57H179.372V330.252H182.144V331.386H179.372V335.832C179.372 336.516 179.516 337.038 179.804 337.398C180.092 337.746 180.56 337.92 181.208 337.92C181.4 337.92 181.592 337.896 181.784 337.848C181.976 337.8 182.15 337.752 182.306 337.704L182.558 338.82C182.402 338.904 182.174 338.982 181.874 339.054C181.574 339.126 181.286 339.162 181.01 339.162ZM187.647 339.162C186.267 339.162 185.175 338.76 184.371 337.956C183.567 337.14 183.165 336.036 183.165 334.644C183.165 333.744 183.345 332.952 183.705 332.268C184.065 331.572 184.557 331.038 185.181 330.666C185.817 330.282 186.549 330.09 187.377 330.09C188.565 330.09 189.495 330.474 190.167 331.242C190.839 331.998 191.175 333.042 191.175 334.374V334.932H184.587C184.635 335.928 184.923 336.69 185.451 337.218C185.979 337.734 186.711 337.992 187.647 337.992C188.175 337.992 188.679 337.914 189.159 337.758C189.639 337.59 190.095 337.32 190.527 336.948L191.031 337.974C190.635 338.346 190.131 338.64 189.519 338.856C188.907 339.06 188.283 339.162 187.647 339.162ZM187.413 331.17C186.585 331.17 185.931 331.428 185.451 331.944C184.971 332.46 184.689 333.138 184.605 333.978H189.915C189.879 333.09 189.645 332.4 189.213 331.908C188.793 331.416 188.193 331.17 187.413 331.17ZM196.615 339.162C195.835 339.162 195.151 338.976 194.563 338.604C193.987 338.232 193.537 337.71 193.213 337.038C192.901 336.354 192.745 335.55 192.745 334.626C192.745 333.69 192.901 332.886 193.213 332.214C193.537 331.53 193.987 331.008 194.563 330.648C195.151 330.276 195.835 330.09 196.615 330.09C197.299 330.09 197.899 330.24 198.415 330.54C198.943 330.84 199.333 331.254 199.585 331.782V326.31H201.043V339H199.621V337.398C199.369 337.95 198.979 338.382 198.451 338.694C197.923 339.006 197.311 339.162 196.615 339.162ZM196.921 337.992C197.737 337.992 198.391 337.704 198.883 337.128C199.375 336.54 199.621 335.706 199.621 334.626C199.621 333.534 199.375 332.7 198.883 332.124C198.391 331.548 197.737 331.26 196.921 331.26C196.093 331.26 195.433 331.548 194.941 332.124C194.461 332.7 194.221 333.534 194.221 334.626C194.221 335.706 194.461 336.54 194.941 337.128C195.433 337.704 196.093 337.992 196.921 337.992ZM208.636 339V326.31H209.878L214.756 335.472L219.598 326.31H220.84V339H219.472V329.082L215.242 337.038H214.27L209.986 329.1V339H208.636ZM227.743 339.162C226.363 339.162 225.271 338.76 224.467 337.956C223.663 337.14 223.261 336.036 223.261 334.644C223.261 333.744 223.441 332.952 223.801 332.268C224.161 331.572 224.653 331.038 225.277 330.666C225.913 330.282 226.645 330.09 227.473 330.09C228.661 330.09 229.591 330.474 230.263 331.242C230.935 331.998 231.271 333.042 231.271 334.374V334.932H224.683C224.731 335.928 225.019 336.69 225.547 337.218C226.075 337.734 226.807 337.992 227.743 337.992C228.271 337.992 228.775 337.914 229.255 337.758C229.735 337.59 230.191 337.32 230.623 336.948L231.127 337.974C230.731 338.346 230.227 338.64 229.615 338.856C229.003 339.06 228.379 339.162 227.743 339.162ZM227.509 331.17C226.681 331.17 226.027 331.428 225.547 331.944C225.067 332.46 224.785 333.138 224.701 333.978H230.011C229.975 333.09 229.741 332.4 229.309 331.908C228.889 331.416 228.289 331.17 227.509 331.17ZM236.711 339.162C235.931 339.162 235.247 338.976 234.659 338.604C234.083 338.232 233.633 337.71 233.309 337.038C232.997 336.354 232.841 335.55 232.841 334.626C232.841 333.69 232.997 332.886 233.309 332.214C233.633 331.53 234.083 331.008 234.659 330.648C235.247 330.276 235.931 330.09 236.711 330.09C237.395 330.09 237.995 330.24 238.511 330.54C239.039 330.84 239.429 331.254 239.681 331.782V326.31H241.139V339H239.717V337.398C239.465 337.95 239.075 338.382 238.547 338.694C238.019 339.006 237.407 339.162 236.711 339.162ZM237.017 337.992C237.833 337.992 238.487 337.704 238.979 337.128C239.471 336.54 239.717 335.706 239.717 334.626C239.717 333.534 239.471 332.7 238.979 332.124C238.487 331.548 237.833 331.26 237.017 331.26C236.189 331.26 235.529 331.548 235.037 332.124C234.557 332.7 234.317 333.534 234.317 334.626C234.317 335.706 234.557 336.54 235.037 337.128C235.529 337.704 236.189 337.992 237.017 337.992ZM243.695 328.074V326.436H245.495V328.074H243.695ZM243.875 339V330.252H245.333V339H243.875ZM251.767 339.162C250.891 339.162 250.135 338.976 249.499 338.604C248.863 338.22 248.371 337.686 248.023 337.002C247.687 336.306 247.519 335.496 247.519 334.572C247.519 333.18 247.897 332.088 248.653 331.296C249.409 330.492 250.447 330.09 251.767 330.09C252.307 330.09 252.841 330.186 253.369 330.378C253.897 330.57 254.335 330.84 254.683 331.188L254.179 332.25C253.831 331.914 253.447 331.668 253.027 331.512C252.619 331.356 252.229 331.278 251.857 331.278C250.945 331.278 250.243 331.566 249.751 332.142C249.259 332.706 249.013 333.522 249.013 334.59C249.013 335.634 249.259 336.462 249.751 337.074C250.243 337.674 250.945 337.974 251.857 337.974C252.229 337.974 252.619 337.896 253.027 337.74C253.447 337.584 253.831 337.332 254.179 336.984L254.683 338.046C254.335 338.394 253.891 338.67 253.351 338.874C252.823 339.066 252.295 339.162 251.767 339.162ZM259.074 339.162C258.474 339.162 257.934 339.048 257.454 338.82C256.986 338.58 256.614 338.256 256.338 337.848C256.062 337.44 255.924 336.984 255.924 336.48C255.924 335.844 256.086 335.34 256.41 334.968C256.746 334.596 257.292 334.332 258.048 334.176C258.816 334.008 259.86 333.924 261.18 333.924H261.756V333.366C261.756 332.622 261.6 332.088 261.288 331.764C260.988 331.428 260.502 331.26 259.83 331.26C259.302 331.26 258.792 331.338 258.3 331.494C257.808 331.638 257.304 331.878 256.788 332.214L256.284 331.152C256.74 330.828 257.292 330.57 257.94 330.378C258.6 330.186 259.23 330.09 259.83 330.09C260.958 330.09 261.792 330.366 262.332 330.918C262.884 331.47 263.16 332.328 263.16 333.492V339H261.792V337.488C261.564 338.004 261.21 338.412 260.73 338.712C260.262 339.012 259.71 339.162 259.074 339.162ZM259.308 338.064C260.028 338.064 260.616 337.818 261.072 337.326C261.528 336.822 261.756 336.186 261.756 335.418V334.878H261.198C260.226 334.878 259.458 334.926 258.894 335.022C258.342 335.106 257.952 335.262 257.724 335.49C257.508 335.706 257.4 336.006 257.4 336.39C257.4 336.882 257.568 337.284 257.904 337.596C258.252 337.908 258.72 338.064 259.308 338.064ZM268.547 339.162C267.659 339.162 266.987 338.904 266.531 338.388C266.087 337.86 265.865 337.098 265.865 336.102V326.31H267.323V335.994C267.323 337.278 267.833 337.92 268.853 337.92C269.153 337.92 269.423 337.884 269.663 337.812L269.627 339.036C269.255 339.12 268.895 339.162 268.547 339.162ZM279.127 339V327.588H274.519V326.31H285.229V327.588H280.621V339H279.127ZM289.214 339.162C287.834 339.162 286.742 338.76 285.938 337.956C285.134 337.14 284.732 336.036 284.732 334.644C284.732 333.744 284.912 332.952 285.272 332.268C285.632 331.572 286.124 331.038 286.748 330.666C287.384 330.282 288.116 330.09 288.944 330.09C290.132 330.09 291.062 330.474 291.734 331.242C292.406 331.998 292.742 333.042 292.742 334.374V334.932H286.154C286.202 335.928 286.49 336.69 287.018 337.218C287.546 337.734 288.278 337.992 289.214 337.992C289.742 337.992 290.246 337.914 290.726 337.758C291.206 337.59 291.662 337.32 292.094 336.948L292.598 337.974C292.202 338.346 291.698 338.64 291.086 338.856C290.474 339.06 289.85 339.162 289.214 339.162ZM288.98 331.17C288.152 331.17 287.498 331.428 287.018 331.944C286.538 332.46 286.256 333.138 286.172 333.978H291.482C291.446 333.09 291.212 332.4 290.78 331.908C290.36 331.416 289.76 331.17 288.98 331.17ZM297.606 339.162C297.006 339.162 296.466 339.048 295.986 338.82C295.518 338.58 295.146 338.256 294.87 337.848C294.594 337.44 294.456 336.984 294.456 336.48C294.456 335.844 294.618 335.34 294.942 334.968C295.278 334.596 295.824 334.332 296.58 334.176C297.348 334.008 298.392 333.924 299.712 333.924H300.288V333.366C300.288 332.622 300.132 332.088 299.82 331.764C299.52 331.428 299.034 331.26 298.362 331.26C297.834 331.26 297.324 331.338 296.832 331.494C296.34 331.638 295.836 331.878 295.32 332.214L294.816 331.152C295.272 330.828 295.824 330.57 296.472 330.378C297.132 330.186 297.762 330.09 298.362 330.09C299.49 330.09 300.324 330.366 300.864 330.918C301.416 331.47 301.692 332.328 301.692 333.492V339H300.324V337.488C300.096 338.004 299.742 338.412 299.262 338.712C298.794 339.012 298.242 339.162 297.606 339.162ZM297.84 338.064C298.56 338.064 299.148 337.818 299.604 337.326C300.06 336.822 300.288 336.186 300.288 335.418V334.878H299.73C298.758 334.878 297.99 334.926 297.426 335.022C296.874 335.106 296.484 335.262 296.256 335.49C296.04 335.706 295.932 336.006 295.932 336.39C295.932 336.882 296.1 337.284 296.436 337.596C296.784 337.908 297.252 338.064 297.84 338.064ZM304.433 339V330.252H305.855V331.728C306.119 331.2 306.485 330.798 306.953 330.522C307.421 330.234 307.967 330.09 308.591 330.09C309.959 330.09 310.835 330.684 311.219 331.872C311.483 331.32 311.873 330.888 312.389 330.576C312.905 330.252 313.499 330.09 314.171 330.09C316.115 330.09 317.087 331.242 317.087 333.546V339H315.629V333.618C315.629 332.814 315.485 332.226 315.197 331.854C314.921 331.47 314.459 331.278 313.811 331.278C313.103 331.278 312.539 331.53 312.119 332.034C311.699 332.538 311.489 333.21 311.489 334.05V339H310.031V333.618C310.031 332.814 309.887 332.226 309.599 331.854C309.323 331.47 308.861 331.278 308.213 331.278C307.493 331.278 306.923 331.53 306.503 332.034C306.095 332.538 305.891 333.21 305.891 334.05V339H304.433Z" fill="#9099AB"/>
<path d="M27.3324 369V362.988L22.4724 356.31H24.2004L28.1064 361.692L31.9944 356.31H33.6684L28.8084 363.024V369H27.3324ZM37.0092 369.162C36.1572 369.162 35.4192 368.976 34.7952 368.604C34.1712 368.232 33.6852 367.71 33.3372 367.038C33.0012 366.354 32.8332 365.55 32.8332 364.626C32.8332 363.702 33.0012 362.904 33.3372 362.232C33.6852 361.548 34.1712 361.02 34.7952 360.648C35.4192 360.276 36.1572 360.09 37.0092 360.09C37.8492 360.09 38.5812 360.276 39.2052 360.648C39.8412 361.02 40.3272 361.548 40.6632 362.232C41.0112 362.904 41.1852 363.702 41.1852 364.626C41.1852 365.55 41.0112 366.354 40.6632 367.038C40.3272 367.71 39.8412 368.232 39.2052 368.604C38.5812 368.976 37.8492 369.162 37.0092 369.162ZM37.0092 367.992C37.8252 367.992 38.4792 367.704 38.9712 367.128C39.4632 366.54 39.7092 365.706 39.7092 364.626C39.7092 363.534 39.4632 362.7 38.9712 362.124C38.4792 361.548 37.8252 361.26 37.0092 361.26C36.1812 361.26 35.5212 361.548 35.0292 362.124C34.5492 362.7 34.3092 363.534 34.3092 364.626C34.3092 365.706 34.5492 366.54 35.0292 367.128C35.5212 367.704 36.1812 367.992 37.0092 367.992ZM46.4711 369.162C44.3711 369.162 43.3211 368.004 43.3211 365.688V360.252H44.7791V365.67C44.7791 366.45 44.9351 367.026 45.2471 367.398C45.5711 367.77 46.0751 367.956 46.7591 367.956C47.5031 367.956 48.1091 367.71 48.5771 367.218C49.0451 366.714 49.2791 366.048 49.2791 365.22V360.252H50.7371V369H49.3151V367.524C49.0391 368.052 48.6491 368.46 48.1451 368.748C47.6531 369.024 47.0951 369.162 46.4711 369.162ZM53.465 369V360.252H54.887V361.818C55.355 360.762 56.315 360.18 57.767 360.072L58.289 360.018L58.397 361.278L57.479 361.386C56.651 361.458 56.021 361.722 55.589 362.178C55.157 362.622 54.941 363.234 54.941 364.014V369H53.465ZM68.1572 369L63.7112 356.31H65.2592L68.8412 366.84L72.5132 356.31H73.7012L77.3372 366.93L80.9912 356.31H82.4672L78.0212 369H76.7072L73.0892 358.56L69.4352 369H68.1572ZM87.2371 369.162C85.8571 369.162 84.7651 368.76 83.9611 367.956C83.1571 367.14 82.7551 366.036 82.7551 364.644C82.7551 363.744 82.9351 362.952 83.2951 362.268C83.6551 361.572 84.1471 361.038 84.7711 360.666C85.4071 360.282 86.1391 360.09 86.9671 360.09C88.1551 360.09 89.0851 360.474 89.7571 361.242C90.4291 361.998 90.7651 363.042 90.7651 364.374V364.932H84.1771C84.2251 365.928 84.5131 366.69 85.0411 367.218C85.5691 367.734 86.3011 367.992 87.2371 367.992C87.7651 367.992 88.2691 367.914 88.7491 367.758C89.2291 367.59 89.6851 367.32 90.1171 366.948L90.6211 367.974C90.2251 368.346 89.7211 368.64 89.1091 368.856C88.4971 369.06 87.8731 369.162 87.2371 369.162ZM87.0031 361.17C86.1751 361.17 85.5211 361.428 85.0411 361.944C84.5611 362.46 84.2791 363.138 84.1951 363.978H89.5051C89.4691 363.09 89.2351 362.4 88.8031 361.908C88.3831 361.416 87.7831 361.17 87.0031 361.17ZM95.5571 369.162C94.6691 369.162 93.9971 368.904 93.5411 368.388C93.0971 367.86 92.8751 367.098 92.8751 366.102V356.31H94.3331V365.994C94.3331 367.278 94.8431 367.92 95.8631 367.92C96.1631 367.92 96.4331 367.884 96.6731 367.812L96.6371 369.036C96.2651 369.12 95.9051 369.162 95.5571 369.162ZM100.883 369.162C99.9953 369.162 99.3233 368.904 98.8673 368.388C98.4233 367.86 98.2013 367.098 98.2013 366.102V356.31H99.6593V365.994C99.6593 367.278 100.169 367.92 101.189 367.92C101.489 367.92 101.759 367.884 101.999 367.812L101.963 369.036C101.591 369.12 101.231 369.162 100.883 369.162ZM103.527 369V360.252H104.949V361.746C105.237 361.194 105.645 360.78 106.173 360.504C106.701 360.228 107.295 360.09 107.955 360.09C110.031 360.09 111.069 361.242 111.069 363.546V369H109.611V363.636C109.611 362.82 109.449 362.226 109.125 361.854C108.813 361.47 108.309 361.278 107.613 361.278C106.809 361.278 106.167 361.53 105.687 362.034C105.219 362.526 104.985 363.186 104.985 364.014V369H103.527ZM117.7 369.162C116.32 369.162 115.228 368.76 114.424 367.956C113.62 367.14 113.218 366.036 113.218 364.644C113.218 363.744 113.398 362.952 113.758 362.268C114.118 361.572 114.61 361.038 115.234 360.666C115.87 360.282 116.602 360.09 117.43 360.09C118.618 360.09 119.548 360.474 120.22 361.242C120.892 361.998 121.228 363.042 121.228 364.374V364.932H114.64C114.688 365.928 114.976 366.69 115.504 367.218C116.032 367.734 116.764 367.992 117.7 367.992C118.228 367.992 118.732 367.914 119.212 367.758C119.692 367.59 120.148 367.32 120.58 366.948L121.084 367.974C120.688 368.346 120.184 368.64 119.572 368.856C118.96 369.06 118.336 369.162 117.7 369.162ZM117.466 361.17C116.638 361.17 115.984 361.428 115.504 361.944C115.024 362.46 114.742 363.138 114.658 363.978H119.968C119.932 363.09 119.698 362.4 119.266 361.908C118.846 361.416 118.246 361.17 117.466 361.17ZM126.29 369.162C125.606 369.162 124.958 369.066 124.346 368.874C123.734 368.682 123.23 368.412 122.834 368.064L123.302 367.038C123.734 367.386 124.208 367.644 124.724 367.812C125.252 367.968 125.786 368.046 126.326 368.046C127.01 368.046 127.526 367.92 127.874 367.668C128.222 367.416 128.396 367.074 128.396 366.642C128.396 366.306 128.282 366.042 128.054 365.85C127.826 365.646 127.466 365.49 126.974 365.382L125.336 365.022C123.848 364.698 123.104 363.93 123.104 362.718C123.104 361.926 123.416 361.29 124.04 360.81C124.676 360.33 125.504 360.09 126.524 360.09C127.124 360.09 127.694 360.186 128.234 360.378C128.786 360.558 129.242 360.828 129.602 361.188L129.116 362.214C128.768 361.89 128.36 361.644 127.892 361.476C127.436 361.296 126.98 361.206 126.524 361.206C125.852 361.206 125.342 361.338 124.994 361.602C124.646 361.866 124.472 362.214 124.472 362.646C124.472 363.318 124.916 363.75 125.804 363.942L127.442 364.284C128.21 364.452 128.792 364.722 129.188 365.094C129.584 365.454 129.782 365.946 129.782 366.57C129.782 367.374 129.464 368.01 128.828 368.478C128.192 368.934 127.346 369.162 126.29 369.162ZM134.956 369.162C134.272 369.162 133.624 369.066 133.012 368.874C132.4 368.682 131.896 368.412 131.5 368.064L131.968 367.038C132.4 367.386 132.874 367.644 133.39 367.812C133.918 367.968 134.452 368.046 134.992 368.046C135.676 368.046 136.192 367.92 136.54 367.668C136.888 367.416 137.062 367.074 137.062 366.642C137.062 366.306 136.948 366.042 136.72 365.85C136.492 365.646 136.132 365.49 135.64 365.382L134.002 365.022C132.514 364.698 131.77 363.93 131.77 362.718C131.77 361.926 132.082 361.29 132.706 360.81C133.342 360.33 134.17 360.09 135.19 360.09C135.79 360.09 136.36 360.186 136.9 360.378C137.452 360.558 137.908 360.828 138.268 361.188L137.782 362.214C137.434 361.89 137.026 361.644 136.558 361.476C136.102 361.296 135.646 361.206 135.19 361.206C134.518 361.206 134.008 361.338 133.66 361.602C133.312 361.866 133.138 362.214 133.138 362.646C133.138 363.318 133.582 363.75 134.47 363.942L136.108 364.284C136.876 364.452 137.458 364.722 137.854 365.094C138.25 365.454 138.448 365.946 138.448 366.57C138.448 367.374 138.13 368.01 137.494 368.478C136.858 368.934 136.012 369.162 134.956 369.162ZM143.853 369.126L143.745 367.884L144.825 367.812C145.437 367.764 145.905 367.554 146.229 367.182C146.553 366.798 146.715 366.276 146.715 365.616V356.31H148.191V365.634C148.191 366.678 147.921 367.494 147.381 368.082C146.841 368.658 146.055 368.982 145.023 369.054L143.853 369.126ZM154.765 369.162C153.913 369.162 153.175 368.976 152.551 368.604C151.927 368.232 151.441 367.71 151.093 367.038C150.757 366.354 150.589 365.55 150.589 364.626C150.589 363.702 150.757 362.904 151.093 362.232C151.441 361.548 151.927 361.02 152.551 360.648C153.175 360.276 153.913 360.09 154.765 360.09C155.605 360.09 156.337 360.276 156.961 360.648C157.597 361.02 158.083 361.548 158.419 362.232C158.767 362.904 158.941 363.702 158.941 364.626C158.941 365.55 158.767 366.354 158.419 367.038C158.083 367.71 157.597 368.232 156.961 368.604C156.337 368.976 155.605 369.162 154.765 369.162ZM154.765 367.992C155.581 367.992 156.235 367.704 156.727 367.128C157.219 366.54 157.465 365.706 157.465 364.626C157.465 363.534 157.219 362.7 156.727 362.124C156.235 361.548 155.581 361.26 154.765 361.26C153.937 361.26 153.277 361.548 152.785 362.124C152.305 362.7 152.065 363.534 152.065 364.626C152.065 365.706 152.305 366.54 152.785 367.128C153.277 367.704 153.937 367.992 154.765 367.992ZM164.227 369.162C162.127 369.162 161.077 368.004 161.077 365.688V360.252H162.535V365.67C162.535 366.45 162.691 367.026 163.003 367.398C163.327 367.77 163.831 367.956 164.515 367.956C165.259 367.956 165.865 367.71 166.333 367.218C166.801 366.714 167.035 366.048 167.035 365.22V360.252H168.493V369H167.071V367.524C166.795 368.052 166.405 368.46 165.901 368.748C165.409 369.024 164.851 369.162 164.227 369.162ZM171.221 369V360.252H172.643V361.818C173.111 360.762 174.071 360.18 175.523 360.072L176.045 360.018L176.153 361.278L175.235 361.386C174.407 361.458 173.777 361.722 173.345 362.178C172.913 362.622 172.697 363.234 172.697 364.014V369H171.221ZM177.672 369V360.252H179.094V361.746C179.382 361.194 179.79 360.78 180.318 360.504C180.846 360.228 181.44 360.09 182.1 360.09C184.176 360.09 185.214 361.242 185.214 363.546V369H183.756V363.636C183.756 362.82 183.594 362.226 183.27 361.854C182.958 361.47 182.454 361.278 181.758 361.278C180.954 361.278 180.312 361.53 179.832 362.034C179.364 362.526 179.13 363.186 179.13 364.014V369H177.672ZM191.844 369.162C190.464 369.162 189.372 368.76 188.568 367.956C187.764 367.14 187.362 366.036 187.362 364.644C187.362 363.744 187.542 362.952 187.902 362.268C188.262 361.572 188.754 361.038 189.378 360.666C190.014 360.282 190.746 360.09 191.574 360.09C192.762 360.09 193.692 360.474 194.364 361.242C195.036 361.998 195.372 363.042 195.372 364.374V364.932H188.784C188.832 365.928 189.12 366.69 189.648 367.218C190.176 367.734 190.908 367.992 191.844 367.992C192.372 367.992 192.876 367.914 193.356 367.758C193.836 367.59 194.292 367.32 194.724 366.948L195.228 367.974C194.832 368.346 194.328 368.64 193.716 368.856C193.104 369.06 192.48 369.162 191.844 369.162ZM191.61 361.17C190.782 361.17 190.128 361.428 189.648 361.944C189.168 362.46 188.886 363.138 188.802 363.978H194.112C194.076 363.09 193.842 362.4 193.41 361.908C192.99 361.416 192.39 361.17 191.61 361.17ZM198.385 372.24L199.879 368.856L196.189 360.252H197.773L200.671 367.344L203.587 360.252H205.117L199.915 372.24H198.385ZM211.444 369V356.31H216.52C217.828 356.31 218.836 356.604 219.544 357.192C220.264 357.768 220.624 358.578 220.624 359.622C220.624 360.318 220.444 360.912 220.084 361.404C219.724 361.896 219.226 362.256 218.59 362.484C219.322 362.676 219.892 363.03 220.3 363.546C220.72 364.062 220.93 364.716 220.93 365.508C220.93 366.636 220.564 367.5 219.832 368.1C219.1 368.7 218.068 369 216.736 369H211.444ZM212.884 361.98H216.304C218.212 361.98 219.166 361.236 219.166 359.748C219.166 358.248 218.212 357.498 216.304 357.498H212.884V361.98ZM212.884 367.812H216.592C218.512 367.812 219.472 367.038 219.472 365.49C219.472 363.942 218.512 363.168 216.592 363.168H212.884V367.812ZM227.352 369.162C225.972 369.162 224.88 368.76 224.076 367.956C223.272 367.14 222.87 366.036 222.87 364.644C222.87 363.744 223.05 362.952 223.41 362.268C223.77 361.572 224.262 361.038 224.886 360.666C225.522 360.282 226.254 360.09 227.082 360.09C228.27 360.09 229.2 360.474 229.872 361.242C230.544 361.998 230.88 363.042 230.88 364.374V364.932H224.292C224.34 365.928 224.628 366.69 225.156 367.218C225.684 367.734 226.416 367.992 227.352 367.992C227.88 367.992 228.384 367.914 228.864 367.758C229.344 367.59 229.8 367.32 230.232 366.948L230.736 367.974C230.34 368.346 229.836 368.64 229.224 368.856C228.612 369.06 227.988 369.162 227.352 369.162ZM227.118 361.17C226.29 361.17 225.636 361.428 225.156 361.944C224.676 362.46 224.394 363.138 224.31 363.978H229.62C229.584 363.09 229.35 362.4 228.918 361.908C228.498 361.416 227.898 361.17 227.118 361.17ZM236.86 372.402C236.104 372.402 235.39 372.3 234.718 372.096C234.058 371.904 233.47 371.61 232.954 371.214L233.44 370.152C233.98 370.536 234.514 370.812 235.042 370.98C235.582 371.148 236.164 371.232 236.788 371.232C238.516 371.232 239.38 370.344 239.38 368.568V367.02C239.128 367.572 238.732 368.01 238.192 368.334C237.664 368.646 237.058 368.802 236.374 368.802C235.57 368.802 234.874 368.616 234.286 368.244C233.698 367.872 233.242 367.362 232.918 366.714C232.606 366.054 232.45 365.292 232.45 364.428C232.45 363.564 232.606 362.808 232.918 362.16C233.242 361.5 233.698 360.99 234.286 360.63C234.874 360.27 235.57 360.09 236.374 360.09C237.058 360.09 237.664 360.246 238.192 360.558C238.732 360.87 239.128 361.296 239.38 361.836V360.252H240.802V368.37C240.802 369.714 240.466 370.722 239.794 371.394C239.134 372.066 238.156 372.402 236.86 372.402ZM236.644 367.614C237.484 367.614 238.15 367.326 238.642 366.75C239.134 366.174 239.38 365.4 239.38 364.428C239.38 363.456 239.134 362.688 238.642 362.124C238.15 361.548 237.484 361.26 236.644 361.26C235.816 361.26 235.156 361.548 234.664 362.124C234.172 362.688 233.926 363.456 233.926 364.428C233.926 365.4 234.172 366.174 234.664 366.75C235.156 367.326 235.816 367.614 236.644 367.614ZM243.357 358.074V356.436H245.157V358.074H243.357ZM243.537 369V360.252H244.995V369H243.537ZM247.721 369V360.252H249.143V361.746C249.431 361.194 249.839 360.78 250.367 360.504C250.895 360.228 251.489 360.09 252.149 360.09C254.225 360.09 255.263 361.242 255.263 363.546V369H253.805V363.636C253.805 362.82 253.643 362.226 253.319 361.854C253.007 361.47 252.503 361.278 251.807 361.278C251.003 361.278 250.361 361.53 249.881 362.034C249.413 362.526 249.179 363.186 249.179 364.014V369H247.721ZM260.903 369.162C260.219 369.162 259.571 369.066 258.959 368.874C258.347 368.682 257.843 368.412 257.447 368.064L257.915 367.038C258.347 367.386 258.821 367.644 259.337 367.812C259.865 367.968 260.399 368.046 260.939 368.046C261.623 368.046 262.139 367.92 262.487 367.668C262.835 367.416 263.009 367.074 263.009 366.642C263.009 366.306 262.895 366.042 262.667 365.85C262.439 365.646 262.079 365.49 261.587 365.382L259.949 365.022C258.461 364.698 257.717 363.93 257.717 362.718C257.717 361.926 258.029 361.29 258.653 360.81C259.289 360.33 260.117 360.09 261.137 360.09C261.737 360.09 262.307 360.186 262.847 360.378C263.399 360.558 263.855 360.828 264.215 361.188L263.729 362.214C263.381 361.89 262.973 361.644 262.505 361.476C262.049 361.296 261.593 361.206 261.137 361.206C260.465 361.206 259.955 361.338 259.607 361.602C259.259 361.866 259.085 362.214 259.085 362.646C259.085 363.318 259.529 363.75 260.417 363.942L262.055 364.284C262.823 364.452 263.405 364.722 263.801 365.094C264.197 365.454 264.395 365.946 264.395 366.57C264.395 367.374 264.077 368.01 263.441 368.478C262.805 368.934 261.959 369.162 260.903 369.162ZM271.438 369V356.31H272.59L280.24 366.516V356.31H281.608V369H280.492L272.824 358.758V369H271.438ZM288.201 369.162C287.349 369.162 286.611 368.976 285.987 368.604C285.363 368.232 284.877 367.71 284.529 367.038C284.193 366.354 284.025 365.55 284.025 364.626C284.025 363.702 284.193 362.904 284.529 362.232C284.877 361.548 285.363 361.02 285.987 360.648C286.611 360.276 287.349 360.09 288.201 360.09C289.041 360.09 289.773 360.276 290.397 360.648C291.033 361.02 291.519 361.548 291.855 362.232C292.203 362.904 292.377 363.702 292.377 364.626C292.377 365.55 292.203 366.354 291.855 367.038C291.519 367.71 291.033 368.232 290.397 368.604C289.773 368.976 289.041 369.162 288.201 369.162ZM288.201 367.992C289.017 367.992 289.671 367.704 290.163 367.128C290.655 366.54 290.901 365.706 290.901 364.626C290.901 363.534 290.655 362.7 290.163 362.124C289.671 361.548 289.017 361.26 288.201 361.26C287.373 361.26 286.713 361.548 286.221 362.124C285.741 362.7 285.501 363.534 285.501 364.626C285.501 365.706 285.741 366.54 286.221 367.128C286.713 367.704 287.373 367.992 288.201 367.992ZM296.766 369L293.508 360.252H295.038L297.504 367.29L300.06 360.252H301.302L303.822 367.308L306.324 360.252H307.782L304.506 369H303.12L300.654 362.214L298.17 369H296.766Z" fill="#9099AB"/>
<mask id="mask0_1_157" style="mask-type:alpha" maskUnits="userSpaceOnUse" x="136" y="137" width="59" height="58">
<rect x="136.706" y="137" width="58" height="58" fill="#D9D9D9"/>
</mask>
<g mask="url(#mask0_1_157)">
<path d="M166.371 174.519C169.19 174.519 171.587 173.613 173.561 171.8C175.534 169.988 176.521 167.793 176.521 165.215C176.521 162.919 175.786 160.976 174.316 159.385C172.846 157.794 171.063 156.998 168.969 156.998C167.076 156.998 165.475 157.602 164.166 158.811C162.857 160.019 162.202 161.509 162.202 163.281C162.202 164.047 162.353 164.792 162.655 165.517C162.957 166.242 163.39 166.906 163.954 167.511L167.398 164.067C167.277 163.986 167.187 163.886 167.126 163.765C167.066 163.644 167.036 163.503 167.036 163.342C167.036 162.899 167.217 162.546 167.579 162.285C167.942 162.023 168.405 161.892 168.969 161.892C169.774 161.892 170.439 162.224 170.963 162.889C171.486 163.553 171.748 164.349 171.748 165.275C171.748 166.524 171.234 167.581 170.207 168.447C169.18 169.313 167.922 169.746 166.431 169.746C164.538 169.746 162.937 168.981 161.628 167.45C160.319 165.92 159.665 164.047 159.665 161.831C159.665 160.663 159.886 159.546 160.329 158.478C160.772 157.411 161.397 156.474 162.202 155.669L158.758 152.225C157.47 153.474 156.483 154.924 155.798 156.575C155.113 158.227 154.771 159.958 154.771 161.771C154.771 165.315 155.899 168.326 158.154 170.803C160.41 173.28 163.149 174.519 166.371 174.519ZM151.206 190.167V179.775C148.911 177.681 147.128 175.234 145.859 172.435C144.591 169.635 143.956 166.685 143.956 163.583C143.956 157.542 146.071 152.406 150.3 148.177C154.529 143.948 159.665 141.833 165.706 141.833C170.741 141.833 175.202 143.314 179.089 146.274C182.975 149.235 185.503 153.091 186.671 157.844L189.813 170.229C190.014 170.995 189.873 171.689 189.39 172.314C188.906 172.938 188.262 173.25 187.456 173.25H182.623V180.5C182.623 181.829 182.15 182.967 181.203 183.914C180.257 184.86 179.119 185.333 177.79 185.333H172.956V190.167H168.123V180.5H177.79V168.417H184.315L182.019 159.052C181.092 155.387 179.119 152.406 176.098 150.111C173.077 147.815 169.613 146.667 165.706 146.667C161.034 146.667 157.047 148.298 153.744 151.561C150.441 154.823 148.79 158.79 148.79 163.463C148.79 165.879 149.283 168.175 150.27 170.35C151.257 172.525 152.656 174.458 154.469 176.15L156.04 177.6V190.167H151.206Z" fill="#F0F6FF"/>
</g>
</svg>
