<svg width="332" height="376" viewBox="0 0 332 376" fill="none" xmlns="http://www.w3.org/2000/svg">
<path d="M220.083 99.9146C226.744 98.9056 232.477 104.638 231.468 111.299L223.445 164.267C223.294 165.26 223.294 166.269 223.445 167.262L231.468 220.23C232.477 226.891 226.744 232.623 220.083 231.614L167.115 223.591C166.123 223.441 165.113 223.441 164.12 223.591L111.153 231.614C104.492 232.623 98.7588 226.891 99.7678 220.23L107.791 167.262C107.941 166.269 107.941 165.26 107.791 164.267L99.7678 111.299C98.7588 104.638 104.492 98.9056 111.153 99.9146L164.12 107.938C165.113 108.088 166.123 108.088 167.115 107.938L220.083 99.9146Z" fill="#42A5F5"/>
<path d="M235.084 85.3356C241.412 84.377 246.858 89.8231 245.9 96.1512L235.616 164.045C235.458 165.088 235.458 166.148 235.616 167.19L245.9 235.084C246.858 241.412 241.412 246.858 235.084 245.9L167.19 235.616C166.148 235.458 165.088 235.458 164.045 235.616L96.1512 245.9C89.8231 246.858 84.377 241.412 85.3356 235.084L95.6196 167.19C95.7775 166.148 95.7775 165.088 95.6196 164.045L85.3355 96.1512C84.377 89.8231 89.8231 84.377 96.1512 85.3356L164.045 95.6196C165.088 95.7775 166.148 95.7775 167.19 95.6196L235.084 85.3356Z" stroke="#42A5F5" stroke-opacity="0.6"/>
<path d="M29.2418 299V276.44H38.6498C40.9965 276.44 42.8098 276.963 44.0898 278.008C45.3911 279.032 46.0418 280.472 46.0418 282.328C46.0418 283.544 45.7218 284.589 45.0818 285.464C44.4418 286.339 43.5671 286.979 42.4578 287.384C43.7591 287.725 44.7725 288.355 45.4978 289.272C46.2231 290.189 46.5858 291.352 46.5858 292.76C46.5858 294.765 45.9138 296.312 44.5698 297.4C43.2471 298.467 41.4018 299 39.0338 299H29.2418ZM32.4418 286.296H38.1378C41.2525 286.296 42.8098 285.08 42.8098 282.648C42.8098 280.216 41.2525 279 38.1378 279H32.4418V286.296ZM32.4418 296.44H38.6498C41.7858 296.44 43.3538 295.171 43.3538 292.632C43.3538 290.115 41.7858 288.856 38.6498 288.856H32.4418V296.44ZM51.0543 299V276.44H65.6463V279.128H54.2543V286.2H64.9743V288.888H54.2543V296.312H65.6463V299H51.0543ZM77.1055 299.288C75.3349 299.288 73.7135 299.064 72.2415 298.616C70.7695 298.147 69.5215 297.496 68.4975 296.664L69.5535 294.04C70.6202 294.851 71.7615 295.459 72.9775 295.864C74.1935 296.269 75.5695 296.472 77.1055 296.472C78.9189 296.472 80.2522 296.152 81.1055 295.512C81.9802 294.851 82.4175 293.997 82.4175 292.952C82.4175 292.099 82.1082 291.427 81.4895 290.936C80.8709 290.424 79.8362 290.019 78.3855 289.72L74.9615 289.016C72.9349 288.589 71.4202 287.885 70.4175 286.904C69.4362 285.923 68.9455 284.6 68.9455 282.936C68.9455 281.592 69.2975 280.408 70.0015 279.384C70.7269 278.36 71.7295 277.571 73.0095 277.016C74.2895 276.44 75.7615 276.152 77.4255 276.152C78.9615 276.152 80.3802 276.387 81.6815 276.856C83.0042 277.304 84.1242 277.965 85.0415 278.84L83.9535 281.368C82.1402 279.768 79.9535 278.968 77.3935 278.968C75.8149 278.968 74.5562 279.32 73.6175 280.024C72.7002 280.728 72.2415 281.667 72.2415 282.84C72.2415 283.736 72.5295 284.451 73.1055 284.984C73.6815 285.517 74.6415 285.923 75.9855 286.2L79.3775 286.904C81.5109 287.352 83.1002 288.045 84.1455 288.984C85.1909 289.901 85.7135 291.149 85.7135 292.728C85.7135 294.051 85.3615 295.203 84.6575 296.184C83.9535 297.165 82.9615 297.933 81.6815 298.488C80.4015 299.021 78.8762 299.288 77.1055 299.288ZM94.527 299V279.224H86.527V276.44H105.823V279.224H97.823V299H94.527ZM122.496 299V279.224H114.496V276.44H133.792V279.224H125.792V299H122.496ZM136.554 299V276.44H145.898C148.33 276.44 150.208 277.027 151.53 278.2C152.853 279.352 153.514 280.973 153.514 283.064C153.514 284.749 153.066 286.136 152.17 287.224C151.274 288.291 150.005 289.005 148.362 289.368C149.386 289.709 150.25 290.531 150.954 291.832L154.858 299H151.21L147.306 291.8C146.858 290.968 146.336 290.413 145.738 290.136C145.162 289.837 144.416 289.688 143.498 289.688H139.882V299H136.554ZM139.882 287.192H145.354C148.64 287.192 150.282 285.837 150.282 283.128C150.282 280.44 148.64 279.096 145.354 279.096H139.882V287.192ZM158.211 299V276.44H172.803V279.128H161.411V286.2H172.131V288.888H161.411V296.312H172.803V299H158.211ZM174.345 299L184.393 276.44H187.145L197.225 299H193.833L191.465 293.496H180.041L177.705 299H174.345ZM185.737 280.12L181.225 290.808H190.345L185.801 280.12H185.737ZM203.215 299V279.224H195.215V276.44H214.511V279.224H206.511V299H203.215ZM217.337 299V276.44H220.121L228.473 292.024L236.793 276.44H239.513V299H236.537V282.456L229.465 295.544H227.449L220.345 282.52V299H217.337ZM244.836 299V276.44H259.428V279.128H248.036V286.2H258.756V288.888H248.036V296.312H259.428V299H244.836ZM263.679 299V276.44H266.207L279.135 293.496V276.44H282.207V299H279.743L266.751 281.88V299H263.679ZM292.965 299V279.224H284.965V276.44H304.261V279.224H296.261V299H292.965Z" fill="#3F3F3F"/>
<path d="M34.1838 339V326.31H42.1938V327.552H35.6238V331.944H41.8158V333.186H35.6238V337.758H42.1938V339H34.1838ZM43.3639 339L46.9999 334.482L43.5799 330.252H45.3079L47.8459 333.474L50.4019 330.252H52.1119L48.6919 334.482L52.3279 339H50.5999L47.8279 335.526L45.0919 339H43.3639ZM53.937 342.24V330.252H55.359V331.818C55.623 331.278 56.013 330.858 56.529 330.558C57.057 330.246 57.669 330.09 58.365 330.09C59.145 330.09 59.823 330.276 60.399 330.648C60.987 331.008 61.437 331.53 61.749 332.214C62.073 332.886 62.235 333.69 62.235 334.626C62.235 335.55 62.073 336.354 61.749 337.038C61.437 337.71 60.987 338.232 60.399 338.604C59.823 338.976 59.145 339.162 58.365 339.162C57.693 339.162 57.093 339.012 56.565 338.712C56.037 338.412 55.647 337.998 55.395 337.47V342.24H53.937ZM58.059 337.992C58.875 337.992 59.529 337.704 60.021 337.128C60.513 336.54 60.759 335.706 60.759 334.626C60.759 333.534 60.513 332.7 60.021 332.124C59.529 331.548 58.875 331.26 58.059 331.26C57.243 331.26 56.589 331.548 56.097 332.124C55.605 332.7 55.359 333.534 55.359 334.626C55.359 335.706 55.605 336.54 56.097 337.128C56.589 337.704 57.243 337.992 58.059 337.992ZM68.3731 339.162C66.9931 339.162 65.9011 338.76 65.0971 337.956C64.2931 337.14 63.8911 336.036 63.8911 334.644C63.8911 333.744 64.0711 332.952 64.4311 332.268C64.7911 331.572 65.2831 331.038 65.9071 330.666C66.5431 330.282 67.2751 330.09 68.1031 330.09C69.2911 330.09 70.2211 330.474 70.8931 331.242C71.5651 331.998 71.9011 333.042 71.9011 334.374V334.932H65.3131C65.3611 335.928 65.6491 336.69 66.1771 337.218C66.7051 337.734 67.4371 337.992 68.3731 337.992C68.9011 337.992 69.4051 337.914 69.8851 337.758C70.3651 337.59 70.8211 337.32 71.2531 336.948L71.7571 337.974C71.3611 338.346 70.8571 338.64 70.2451 338.856C69.6331 339.06 69.0091 339.162 68.3731 339.162ZM68.1391 331.17C67.3111 331.17 66.6571 331.428 66.1771 331.944C65.6971 332.46 65.4151 333.138 65.3311 333.978H70.6411C70.6051 333.09 70.3711 332.4 69.9391 331.908C69.5191 331.416 68.9191 331.17 68.1391 331.17ZM74.0112 339V330.252H75.4332V331.818C75.9012 330.762 76.8612 330.18 78.3132 330.072L78.8352 330.018L78.9432 331.278L78.0252 331.386C77.1972 331.458 76.5672 331.722 76.1352 332.178C75.7032 332.622 75.4872 333.234 75.4872 334.014V339H74.0112ZM80.2824 328.074V326.436H82.0824V328.074H80.2824ZM80.4624 339V330.252H81.9204V339H80.4624ZM88.588 339.162C87.208 339.162 86.116 338.76 85.312 337.956C84.508 337.14 84.106 336.036 84.106 334.644C84.106 333.744 84.286 332.952 84.646 332.268C85.006 331.572 85.498 331.038 86.122 330.666C86.758 330.282 87.49 330.09 88.318 330.09C89.506 330.09 90.436 330.474 91.108 331.242C91.78 331.998 92.116 333.042 92.116 334.374V334.932H85.528C85.576 335.928 85.864 336.69 86.392 337.218C86.92 337.734 87.652 337.992 88.588 337.992C89.116 337.992 89.62 337.914 90.1 337.758C90.58 337.59 91.036 337.32 91.468 336.948L91.972 337.974C91.576 338.346 91.072 338.64 90.46 338.856C89.848 339.06 89.224 339.162 88.588 339.162ZM88.354 331.17C87.526 331.17 86.872 331.428 86.392 331.944C85.912 332.46 85.63 333.138 85.546 333.978H90.856C90.82 333.09 90.586 332.4 90.154 331.908C89.734 331.416 89.134 331.17 88.354 331.17ZM94.226 339V330.252H95.648V331.746C95.936 331.194 96.344 330.78 96.872 330.504C97.4 330.228 97.994 330.09 98.654 330.09C100.73 330.09 101.768 331.242 101.768 333.546V339H100.31V333.636C100.31 332.82 100.148 332.226 99.824 331.854C99.512 331.47 99.008 331.278 98.312 331.278C97.508 331.278 96.866 331.53 96.386 332.034C95.918 332.526 95.684 333.186 95.684 334.014V339H94.226ZM108.165 339.162C107.289 339.162 106.533 338.976 105.897 338.604C105.261 338.22 104.769 337.686 104.421 337.002C104.085 336.306 103.917 335.496 103.917 334.572C103.917 333.18 104.295 332.088 105.051 331.296C105.807 330.492 106.845 330.09 108.165 330.09C108.705 330.09 109.239 330.186 109.767 330.378C110.295 330.57 110.733 330.84 111.081 331.188L110.577 332.25C110.229 331.914 109.845 331.668 109.425 331.512C109.017 331.356 108.627 331.278 108.255 331.278C107.343 331.278 106.641 331.566 106.149 332.142C105.657 332.706 105.411 333.522 105.411 334.59C105.411 335.634 105.657 336.462 106.149 337.074C106.641 337.674 107.343 337.974 108.255 337.974C108.627 337.974 109.017 337.896 109.425 337.74C109.845 337.584 110.229 337.332 110.577 336.984L111.081 338.046C110.733 338.394 110.289 338.67 109.749 338.874C109.221 339.066 108.693 339.162 108.165 339.162ZM116.555 339.162C115.175 339.162 114.083 338.76 113.279 337.956C112.475 337.14 112.073 336.036 112.073 334.644C112.073 333.744 112.253 332.952 112.613 332.268C112.973 331.572 113.465 331.038 114.089 330.666C114.725 330.282 115.457 330.09 116.285 330.09C117.473 330.09 118.403 330.474 119.075 331.242C119.747 331.998 120.083 333.042 120.083 334.374V334.932H113.495C113.543 335.928 113.831 336.69 114.359 337.218C114.887 337.734 115.619 337.992 116.555 337.992C117.083 337.992 117.587 337.914 118.067 337.758C118.547 337.59 119.003 337.32 119.435 336.948L119.939 337.974C119.543 338.346 119.039 338.64 118.427 338.856C117.815 339.06 117.191 339.162 116.555 339.162ZM116.321 331.17C115.493 331.17 114.839 331.428 114.359 331.944C113.879 332.46 113.597 333.138 113.513 333.978H118.823C118.787 333.09 118.553 332.4 118.121 331.908C117.701 331.416 117.101 331.17 116.321 331.17ZM130.128 339V327.588H125.52V326.31H136.23V327.588H131.622V339H130.128ZM137.644 339V326.31H139.102V331.692C139.39 331.164 139.792 330.768 140.308 330.504C140.836 330.228 141.424 330.09 142.072 330.09C144.148 330.09 145.186 331.242 145.186 333.546V339H143.728V333.636C143.728 332.82 143.566 332.226 143.242 331.854C142.93 331.47 142.426 331.278 141.73 331.278C140.926 331.278 140.284 331.53 139.804 332.034C139.336 332.526 139.102 333.186 139.102 334.014V339H137.644ZM151.816 339.162C150.436 339.162 149.344 338.76 148.54 337.956C147.736 337.14 147.334 336.036 147.334 334.644C147.334 333.744 147.514 332.952 147.874 332.268C148.234 331.572 148.726 331.038 149.35 330.666C149.986 330.282 150.718 330.09 151.546 330.09C152.734 330.09 153.664 330.474 154.336 331.242C155.008 331.998 155.344 333.042 155.344 334.374V334.932H148.756C148.804 335.928 149.092 336.69 149.62 337.218C150.148 337.734 150.88 337.992 151.816 337.992C152.344 337.992 152.848 337.914 153.328 337.758C153.808 337.59 154.264 337.32 154.696 336.948L155.2 337.974C154.804 338.346 154.3 338.64 153.688 338.856C153.076 339.06 152.452 339.162 151.816 339.162ZM151.582 331.17C150.754 331.17 150.1 331.428 149.62 331.944C149.14 332.46 148.858 333.138 148.774 333.978H154.084C154.048 333.09 153.814 332.4 153.382 331.908C152.962 331.416 152.362 331.17 151.582 331.17ZM162.276 339V326.31H167.298C168.666 326.31 169.71 326.64 170.43 327.3C171.162 327.96 171.528 328.902 171.528 330.126C171.528 331.338 171.162 332.28 170.43 332.952C169.71 333.612 168.666 333.942 167.298 333.942H163.752V339H162.276ZM163.752 332.7H167.118C169.086 332.7 170.07 331.842 170.07 330.126C170.07 328.398 169.086 327.534 167.118 327.534H163.752V332.7ZM173.288 328.074V326.436H175.088V328.074H173.288ZM173.468 339V330.252H174.926V339H173.468ZM177.652 339V330.252H179.074V331.746C179.362 331.194 179.77 330.78 180.298 330.504C180.826 330.228 181.42 330.09 182.08 330.09C184.156 330.09 185.194 331.242 185.194 333.546V339H183.736V333.636C183.736 332.82 183.574 332.226 183.25 331.854C182.938 331.47 182.434 331.278 181.738 331.278C180.934 331.278 180.292 331.53 179.812 332.034C179.344 332.526 179.11 333.186 179.11 334.014V339H177.652ZM187.882 339V330.252H189.304V331.746C189.592 331.194 190 330.78 190.528 330.504C191.056 330.228 191.65 330.09 192.31 330.09C194.386 330.09 195.424 331.242 195.424 333.546V339H193.966V333.636C193.966 332.82 193.804 332.226 193.48 331.854C193.168 331.47 192.664 331.278 191.968 331.278C191.164 331.278 190.522 331.53 190.042 332.034C189.574 332.526 189.34 333.186 189.34 334.014V339H187.882ZM200.867 339.162C200.267 339.162 199.727 339.048 199.247 338.82C198.779 338.58 198.407 338.256 198.131 337.848C197.855 337.44 197.717 336.984 197.717 336.48C197.717 335.844 197.879 335.34 198.203 334.968C198.539 334.596 199.085 334.332 199.841 334.176C200.609 334.008 201.653 333.924 202.973 333.924H203.549V333.366C203.549 332.622 203.393 332.088 203.081 331.764C202.781 331.428 202.295 331.26 201.623 331.26C201.095 331.26 200.585 331.338 200.093 331.494C199.601 331.638 199.097 331.878 198.581 332.214L198.077 331.152C198.533 330.828 199.085 330.57 199.733 330.378C200.393 330.186 201.023 330.09 201.623 330.09C202.751 330.09 203.585 330.366 204.125 330.918C204.677 331.47 204.953 332.328 204.953 333.492V339H203.585V337.488C203.357 338.004 203.003 338.412 202.523 338.712C202.055 339.012 201.503 339.162 200.867 339.162ZM201.101 338.064C201.821 338.064 202.409 337.818 202.865 337.326C203.321 336.822 203.549 336.186 203.549 335.418V334.878H202.991C202.019 334.878 201.251 334.926 200.687 335.022C200.135 335.106 199.745 335.262 199.517 335.49C199.301 335.706 199.193 336.006 199.193 336.39C199.193 336.882 199.361 337.284 199.697 337.596C200.045 337.908 200.513 338.064 201.101 338.064ZM211.366 339.162C210.49 339.162 209.734 338.976 209.098 338.604C208.462 338.22 207.97 337.686 207.622 337.002C207.286 336.306 207.118 335.496 207.118 334.572C207.118 333.18 207.496 332.088 208.252 331.296C209.008 330.492 210.046 330.09 211.366 330.09C211.906 330.09 212.44 330.186 212.968 330.378C213.496 330.57 213.934 330.84 214.282 331.188L213.778 332.25C213.43 331.914 213.046 331.668 212.626 331.512C212.218 331.356 211.828 331.278 211.456 331.278C210.544 331.278 209.842 331.566 209.35 332.142C208.858 332.706 208.612 333.522 208.612 334.59C208.612 335.634 208.858 336.462 209.35 337.074C209.842 337.674 210.544 337.974 211.456 337.974C211.828 337.974 212.218 337.896 212.626 337.74C213.046 337.584 213.43 337.332 213.778 336.984L214.282 338.046C213.934 338.394 213.49 338.67 212.95 338.874C212.422 339.066 211.894 339.162 211.366 339.162ZM218.672 339.162C217.784 339.162 217.112 338.904 216.656 338.388C216.212 337.86 215.99 337.098 215.99 336.102V326.31H217.448V335.994C217.448 337.278 217.958 337.92 218.978 337.92C219.278 337.92 219.548 337.884 219.788 337.812L219.752 339.036C219.38 339.12 219.02 339.162 218.672 339.162ZM225.17 339.162C223.79 339.162 222.698 338.76 221.894 337.956C221.09 337.14 220.688 336.036 220.688 334.644C220.688 333.744 220.868 332.952 221.228 332.268C221.588 331.572 222.08 331.038 222.704 330.666C223.34 330.282 224.072 330.09 224.9 330.09C226.088 330.09 227.018 330.474 227.69 331.242C228.362 331.998 228.698 333.042 228.698 334.374V334.932H222.11C222.158 335.928 222.446 336.69 222.974 337.218C223.502 337.734 224.234 337.992 225.17 337.992C225.698 337.992 226.202 337.914 226.682 337.758C227.162 337.59 227.618 337.32 228.05 336.948L228.554 337.974C228.158 338.346 227.654 338.64 227.042 338.856C226.43 339.06 225.806 339.162 225.17 339.162ZM224.936 331.17C224.108 331.17 223.454 331.428 222.974 331.944C222.494 332.46 222.212 333.138 222.128 333.978H227.438C227.402 333.09 227.168 332.4 226.736 331.908C226.316 331.416 225.716 331.17 224.936 331.17ZM240.957 339.162C239.781 339.162 238.755 338.898 237.879 338.37C237.015 337.83 236.343 337.074 235.863 336.102C235.395 335.13 235.161 333.978 235.161 332.646C235.161 331.314 235.395 330.162 235.863 329.19C236.331 328.218 236.997 327.468 237.861 326.94C238.737 326.412 239.769 326.148 240.957 326.148C242.157 326.148 243.189 326.412 244.053 326.94C244.929 327.468 245.601 328.218 246.069 329.19C246.549 330.15 246.789 331.296 246.789 332.628C246.789 333.96 246.549 335.118 246.069 336.102C245.589 337.074 244.911 337.83 244.035 338.37C243.171 338.898 242.145 339.162 240.957 339.162ZM240.957 337.848C242.313 337.848 243.363 337.392 244.107 336.48C244.851 335.568 245.223 334.29 245.223 332.646C245.223 331.002 244.851 329.73 244.107 328.83C243.363 327.918 242.313 327.462 240.957 327.462C239.625 327.462 238.587 327.918 237.843 328.83C237.099 329.73 236.727 331.002 236.727 332.646C236.727 334.278 237.099 335.556 237.843 336.48C238.587 337.392 239.625 337.848 240.957 337.848ZM249.698 339V331.386H247.97V330.252H249.698V329.946C249.698 328.782 249.986 327.9 250.562 327.3C251.15 326.7 252.05 326.364 253.262 326.292L253.964 326.256L254.09 327.372L253.262 327.426C252.518 327.486 251.978 327.708 251.642 328.092C251.318 328.476 251.156 329.034 251.156 329.766V330.252H253.676V331.386H251.156V339H249.698ZM265.535 339.162C264.287 339.162 263.219 338.898 262.331 338.37C261.443 337.842 260.759 337.092 260.279 336.12C259.811 335.148 259.577 333.99 259.577 332.646C259.577 331.314 259.811 330.162 260.279 329.19C260.759 328.218 261.443 327.468 262.331 326.94C263.219 326.412 264.287 326.148 265.535 326.148C266.411 326.148 267.215 326.286 267.947 326.562C268.691 326.838 269.321 327.24 269.837 327.768L269.261 328.974C268.709 328.458 268.133 328.086 267.533 327.858C266.945 327.618 266.291 327.498 265.571 327.498C264.143 327.498 263.051 327.948 262.295 328.848C261.539 329.748 261.161 331.014 261.161 332.646C261.161 334.29 261.539 335.562 262.295 336.462C263.051 337.362 264.143 337.812 265.571 337.812C266.291 337.812 266.945 337.698 267.533 337.47C268.133 337.23 268.709 336.852 269.261 336.336L269.837 337.542C269.321 338.058 268.691 338.46 267.947 338.748C267.215 339.024 266.411 339.162 265.535 339.162ZM274.431 339.162C273.831 339.162 273.291 339.048 272.811 338.82C272.343 338.58 271.971 338.256 271.695 337.848C271.419 337.44 271.281 336.984 271.281 336.48C271.281 335.844 271.443 335.34 271.767 334.968C272.103 334.596 272.649 334.332 273.405 334.176C274.173 334.008 275.217 333.924 276.537 333.924H277.113V333.366C277.113 332.622 276.957 332.088 276.645 331.764C276.345 331.428 275.859 331.26 275.187 331.26C274.659 331.26 274.149 331.338 273.657 331.494C273.165 331.638 272.661 331.878 272.145 332.214L271.641 331.152C272.097 330.828 272.649 330.57 273.297 330.378C273.957 330.186 274.587 330.09 275.187 330.09C276.315 330.09 277.149 330.366 277.689 330.918C278.241 331.47 278.517 332.328 278.517 333.492V339H277.149V337.488C276.921 338.004 276.567 338.412 276.087 338.712C275.619 339.012 275.067 339.162 274.431 339.162ZM274.665 338.064C275.385 338.064 275.973 337.818 276.429 337.326C276.885 336.822 277.113 336.186 277.113 335.418V334.878H276.555C275.583 334.878 274.815 334.926 274.251 335.022C273.699 335.106 273.309 335.262 273.081 335.49C272.865 335.706 272.757 336.006 272.757 336.39C272.757 336.882 272.925 337.284 273.261 337.596C273.609 337.908 274.077 338.064 274.665 338.064ZM281.222 339V330.252H282.644V331.818C283.112 330.762 284.072 330.18 285.524 330.072L286.046 330.018L286.154 331.278L285.236 331.386C284.408 331.458 283.778 331.722 283.346 332.178C282.914 332.622 282.698 333.234 282.698 334.014V339H281.222ZM291.51 339.162C290.13 339.162 289.038 338.76 288.234 337.956C287.43 337.14 287.028 336.036 287.028 334.644C287.028 333.744 287.208 332.952 287.568 332.268C287.928 331.572 288.42 331.038 289.044 330.666C289.68 330.282 290.412 330.09 291.24 330.09C292.428 330.09 293.358 330.474 294.03 331.242C294.702 331.998 295.038 333.042 295.038 334.374V334.932H288.45C288.498 335.928 288.786 336.69 289.314 337.218C289.842 337.734 290.574 337.992 291.51 337.992C292.038 337.992 292.542 337.914 293.022 337.758C293.502 337.59 293.958 337.32 294.39 336.948L294.894 337.974C294.498 338.346 293.994 338.64 293.382 338.856C292.77 339.06 292.146 339.162 291.51 339.162ZM291.276 331.17C290.448 331.17 289.794 331.428 289.314 331.944C288.834 332.46 288.552 333.138 288.468 333.978H293.778C293.742 333.09 293.508 332.4 293.076 331.908C292.656 331.416 292.056 331.17 291.276 331.17Z" fill="#9099AB"/>
<path d="M13.1838 369V356.31H17.4678C19.5198 356.31 21.1038 356.856 22.2198 357.948C23.3358 359.028 23.8938 360.594 23.8938 362.646C23.8938 364.698 23.3358 366.27 22.2198 367.362C21.1038 368.454 19.5198 369 17.4678 369H13.1838ZM14.6598 367.74H17.3598C20.6718 367.74 22.3278 366.042 22.3278 362.646C22.3278 359.262 20.6718 357.57 17.3598 357.57H14.6598V367.74ZM26.1652 358.074V356.436H27.9652V358.074H26.1652ZM26.3452 369V360.252H27.8032V369H26.3452ZM33.4808 369.162C32.7968 369.162 32.1488 369.066 31.5368 368.874C30.9248 368.682 30.4208 368.412 30.0248 368.064L30.4928 367.038C30.9248 367.386 31.3988 367.644 31.9148 367.812C32.4428 367.968 32.9768 368.046 33.5168 368.046C34.2008 368.046 34.7168 367.92 35.0648 367.668C35.4128 367.416 35.5868 367.074 35.5868 366.642C35.5868 366.306 35.4728 366.042 35.2448 365.85C35.0168 365.646 34.6568 365.49 34.1648 365.382L32.5268 365.022C31.0388 364.698 30.2948 363.93 30.2948 362.718C30.2948 361.926 30.6068 361.29 31.2308 360.81C31.8668 360.33 32.6948 360.09 33.7148 360.09C34.3148 360.09 34.8848 360.186 35.4248 360.378C35.9768 360.558 36.4328 360.828 36.7928 361.188L36.3068 362.214C35.9588 361.89 35.5508 361.644 35.0828 361.476C34.6268 361.296 34.1708 361.206 33.7148 361.206C33.0428 361.206 32.5328 361.338 32.1848 361.602C31.8368 361.866 31.6628 362.214 31.6628 362.646C31.6628 363.318 32.1068 363.75 32.9948 363.942L34.6328 364.284C35.4008 364.452 35.9828 364.722 36.3788 365.094C36.7748 365.454 36.9728 365.946 36.9728 366.57C36.9728 367.374 36.6548 368.01 36.0188 368.478C35.3828 368.934 34.5368 369.162 33.4808 369.162ZM42.9028 369.162C42.0268 369.162 41.2708 368.976 40.6348 368.604C39.9988 368.22 39.5068 367.686 39.1588 367.002C38.8228 366.306 38.6548 365.496 38.6548 364.572C38.6548 363.18 39.0328 362.088 39.7888 361.296C40.5448 360.492 41.5828 360.09 42.9028 360.09C43.4428 360.09 43.9768 360.186 44.5048 360.378C45.0328 360.57 45.4708 360.84 45.8188 361.188L45.3148 362.25C44.9668 361.914 44.5828 361.668 44.1628 361.512C43.7548 361.356 43.3648 361.278 42.9928 361.278C42.0808 361.278 41.3788 361.566 40.8868 362.142C40.3948 362.706 40.1488 363.522 40.1488 364.59C40.1488 365.634 40.3948 366.462 40.8868 367.074C41.3788 367.674 42.0808 367.974 42.9928 367.974C43.3648 367.974 43.7548 367.896 44.1628 367.74C44.5828 367.584 44.9668 367.332 45.3148 366.984L45.8188 368.046C45.4708 368.394 45.0268 368.67 44.4868 368.874C43.9588 369.066 43.4308 369.162 42.9028 369.162ZM50.987 369.162C50.135 369.162 49.397 368.976 48.773 368.604C48.149 368.232 47.663 367.71 47.315 367.038C46.979 366.354 46.811 365.55 46.811 364.626C46.811 363.702 46.979 362.904 47.315 362.232C47.663 361.548 48.149 361.02 48.773 360.648C49.397 360.276 50.135 360.09 50.987 360.09C51.827 360.09 52.559 360.276 53.183 360.648C53.819 361.02 54.305 361.548 54.641 362.232C54.989 362.904 55.163 363.702 55.163 364.626C55.163 365.55 54.989 366.354 54.641 367.038C54.305 367.71 53.819 368.232 53.183 368.604C52.559 368.976 51.827 369.162 50.987 369.162ZM50.987 367.992C51.803 367.992 52.457 367.704 52.949 367.128C53.441 366.54 53.687 365.706 53.687 364.626C53.687 363.534 53.441 362.7 52.949 362.124C52.457 361.548 51.803 361.26 50.987 361.26C50.159 361.26 49.499 361.548 49.007 362.124C48.527 362.7 48.287 363.534 48.287 364.626C48.287 365.706 48.527 366.54 49.007 367.128C49.499 367.704 50.159 367.992 50.987 367.992ZM59.8039 369L56.0419 360.252H57.6259L60.5239 367.344L63.4579 360.252H64.9519L61.1719 369H59.8039ZM70.3126 369.162C68.9326 369.162 67.8406 368.76 67.0366 367.956C66.2326 367.14 65.8306 366.036 65.8306 364.644C65.8306 363.744 66.0106 362.952 66.3706 362.268C66.7306 361.572 67.2226 361.038 67.8466 360.666C68.4826 360.282 69.2146 360.09 70.0426 360.09C71.2306 360.09 72.1606 360.474 72.8326 361.242C73.5046 361.998 73.8406 363.042 73.8406 364.374V364.932H67.2526C67.3006 365.928 67.5886 366.69 68.1166 367.218C68.6446 367.734 69.3766 367.992 70.3126 367.992C70.8406 367.992 71.3446 367.914 71.8246 367.758C72.3046 367.59 72.7606 367.32 73.1926 366.948L73.6966 367.974C73.3006 368.346 72.7966 368.64 72.1846 368.856C71.5726 369.06 70.9486 369.162 70.3126 369.162ZM70.0786 361.17C69.2506 361.17 68.5966 361.428 68.1166 361.944C67.6366 362.46 67.3546 363.138 67.2706 363.978H72.5806C72.5446 363.09 72.3106 362.4 71.8786 361.908C71.4586 361.416 70.8586 361.17 70.0786 361.17ZM75.9506 369V360.252H77.3726V361.818C77.8406 360.762 78.8006 360.18 80.2526 360.072L80.7746 360.018L80.8826 361.278L79.9646 361.386C79.1366 361.458 78.5066 361.722 78.0746 362.178C77.6426 362.622 77.4266 363.234 77.4266 364.014V369H75.9506ZM90.3369 369V357.588H85.7289V356.31H96.4389V357.588H91.8309V369H90.3369ZM97.853 369V356.31H99.311V361.692C99.599 361.164 100.001 360.768 100.517 360.504C101.045 360.228 101.633 360.09 102.281 360.09C104.357 360.09 105.395 361.242 105.395 363.546V369H103.937V363.636C103.937 362.82 103.775 362.226 103.451 361.854C103.139 361.47 102.635 361.278 101.939 361.278C101.135 361.278 100.493 361.53 100.013 362.034C99.545 362.526 99.311 363.186 99.311 364.014V369H97.853ZM112.025 369.162C110.645 369.162 109.553 368.76 108.749 367.956C107.945 367.14 107.543 366.036 107.543 364.644C107.543 363.744 107.723 362.952 108.083 362.268C108.443 361.572 108.935 361.038 109.559 360.666C110.195 360.282 110.927 360.09 111.755 360.09C112.943 360.09 113.873 360.474 114.545 361.242C115.217 361.998 115.553 363.042 115.553 364.374V364.932H108.965C109.013 365.928 109.301 366.69 109.829 367.218C110.357 367.734 111.089 367.992 112.025 367.992C112.553 367.992 113.057 367.914 113.537 367.758C114.017 367.59 114.473 367.32 114.905 366.948L115.409 367.974C115.013 368.346 114.509 368.64 113.897 368.856C113.285 369.06 112.661 369.162 112.025 369.162ZM111.791 361.17C110.963 361.17 110.309 361.428 109.829 361.944C109.349 362.46 109.067 363.138 108.983 363.978H114.293C114.257 363.09 114.023 362.4 113.591 361.908C113.171 361.416 112.571 361.17 111.791 361.17ZM127.108 369V356.31H132.184C133.492 356.31 134.5 356.604 135.208 357.192C135.928 357.768 136.288 358.578 136.288 359.622C136.288 360.318 136.108 360.912 135.748 361.404C135.388 361.896 134.89 362.256 134.254 362.484C134.986 362.676 135.556 363.03 135.964 363.546C136.384 364.062 136.594 364.716 136.594 365.508C136.594 366.636 136.228 367.5 135.496 368.1C134.764 368.7 133.732 369 132.4 369H127.108ZM128.548 361.98H131.968C133.876 361.98 134.83 361.236 134.83 359.748C134.83 358.248 133.876 357.498 131.968 357.498H128.548V361.98ZM128.548 367.812H132.256C134.176 367.812 135.136 367.038 135.136 365.49C135.136 363.942 134.176 363.168 132.256 363.168H128.548V367.812ZM143.016 369.162C141.636 369.162 140.544 368.76 139.74 367.956C138.936 367.14 138.534 366.036 138.534 364.644C138.534 363.744 138.714 362.952 139.074 362.268C139.434 361.572 139.926 361.038 140.55 360.666C141.186 360.282 141.918 360.09 142.746 360.09C143.934 360.09 144.864 360.474 145.536 361.242C146.208 361.998 146.544 363.042 146.544 364.374V364.932H139.956C140.004 365.928 140.292 366.69 140.82 367.218C141.348 367.734 142.08 367.992 143.016 367.992C143.544 367.992 144.048 367.914 144.528 367.758C145.008 367.59 145.464 367.32 145.896 366.948L146.4 367.974C146.004 368.346 145.5 368.64 144.888 368.856C144.276 369.06 143.652 369.162 143.016 369.162ZM142.782 361.17C141.954 361.17 141.3 361.428 140.82 361.944C140.34 362.46 140.058 363.138 139.974 363.978H145.284C145.248 363.09 145.014 362.4 144.582 361.908C144.162 361.416 143.562 361.17 142.782 361.17ZM151.606 369.162C150.922 369.162 150.274 369.066 149.662 368.874C149.05 368.682 148.546 368.412 148.15 368.064L148.618 367.038C149.05 367.386 149.524 367.644 150.04 367.812C150.568 367.968 151.102 368.046 151.642 368.046C152.326 368.046 152.842 367.92 153.19 367.668C153.538 367.416 153.712 367.074 153.712 366.642C153.712 366.306 153.598 366.042 153.37 365.85C153.142 365.646 152.782 365.49 152.29 365.382L150.652 365.022C149.164 364.698 148.42 363.93 148.42 362.718C148.42 361.926 148.732 361.29 149.356 360.81C149.992 360.33 150.82 360.09 151.84 360.09C152.44 360.09 153.01 360.186 153.55 360.378C154.102 360.558 154.558 360.828 154.918 361.188L154.432 362.214C154.084 361.89 153.676 361.644 153.208 361.476C152.752 361.296 152.296 361.206 151.84 361.206C151.168 361.206 150.658 361.338 150.31 361.602C149.962 361.866 149.788 362.214 149.788 362.646C149.788 363.318 150.232 363.75 151.12 363.942L152.758 364.284C153.526 364.452 154.108 364.722 154.504 365.094C154.9 365.454 155.098 365.946 155.098 366.57C155.098 367.374 154.78 368.01 154.144 368.478C153.508 368.934 152.662 369.162 151.606 369.162ZM160.742 369.162C159.71 369.162 158.936 368.892 158.42 368.352C157.904 367.8 157.646 367.008 157.646 365.976V361.386H155.936V360.252H157.646V357.57H159.104V360.252H161.876V361.386H159.104V365.832C159.104 366.516 159.248 367.038 159.536 367.398C159.824 367.746 160.292 367.92 160.94 367.92C161.132 367.92 161.324 367.896 161.516 367.848C161.708 367.8 161.882 367.752 162.038 367.704L162.29 368.82C162.134 368.904 161.906 368.982 161.606 369.054C161.306 369.126 161.018 369.162 160.742 369.162ZM171.46 369V357.588H166.852V356.31H177.562V357.588H172.954V369H171.46ZM177.605 369V360.252H179.027V361.818C179.495 360.762 180.455 360.18 181.907 360.072L182.429 360.018L182.537 361.278L181.619 361.386C180.791 361.458 180.161 361.722 179.729 362.178C179.297 362.622 179.081 363.234 179.081 364.014V369H177.605ZM187.893 369.162C186.513 369.162 185.421 368.76 184.617 367.956C183.813 367.14 183.411 366.036 183.411 364.644C183.411 363.744 183.591 362.952 183.951 362.268C184.311 361.572 184.803 361.038 185.427 360.666C186.063 360.282 186.795 360.09 187.623 360.09C188.811 360.09 189.741 360.474 190.413 361.242C191.085 361.998 191.421 363.042 191.421 364.374V364.932H184.833C184.881 365.928 185.169 366.69 185.697 367.218C186.225 367.734 186.957 367.992 187.893 367.992C188.421 367.992 188.925 367.914 189.405 367.758C189.885 367.59 190.341 367.32 190.773 366.948L191.277 367.974C190.881 368.346 190.377 368.64 189.765 368.856C189.153 369.06 188.529 369.162 187.893 369.162ZM187.659 361.17C186.831 361.17 186.177 361.428 185.697 361.944C185.217 362.46 184.935 363.138 184.851 363.978H190.161C190.125 363.09 189.891 362.4 189.459 361.908C189.039 361.416 188.439 361.17 187.659 361.17ZM196.285 369.162C195.685 369.162 195.145 369.048 194.665 368.82C194.197 368.58 193.825 368.256 193.549 367.848C193.273 367.44 193.135 366.984 193.135 366.48C193.135 365.844 193.297 365.34 193.621 364.968C193.957 364.596 194.503 364.332 195.259 364.176C196.027 364.008 197.071 363.924 198.391 363.924H198.967V363.366C198.967 362.622 198.811 362.088 198.499 361.764C198.199 361.428 197.713 361.26 197.041 361.26C196.513 361.26 196.003 361.338 195.511 361.494C195.019 361.638 194.515 361.878 193.999 362.214L193.495 361.152C193.951 360.828 194.503 360.57 195.151 360.378C195.811 360.186 196.441 360.09 197.041 360.09C198.169 360.09 199.003 360.366 199.543 360.918C200.095 361.47 200.371 362.328 200.371 363.492V369H199.003V367.488C198.775 368.004 198.421 368.412 197.941 368.712C197.473 369.012 196.921 369.162 196.285 369.162ZM196.519 368.064C197.239 368.064 197.827 367.818 198.283 367.326C198.739 366.822 198.967 366.186 198.967 365.418V364.878H198.409C197.437 364.878 196.669 364.926 196.105 365.022C195.553 365.106 195.163 365.262 194.935 365.49C194.719 365.706 194.611 366.006 194.611 366.39C194.611 366.882 194.779 367.284 195.115 367.596C195.463 367.908 195.931 368.064 196.519 368.064ZM206.586 369.162C205.554 369.162 204.78 368.892 204.264 368.352C203.748 367.8 203.49 367.008 203.49 365.976V361.386H201.78V360.252H203.49V357.57H204.948V360.252H207.72V361.386H204.948V365.832C204.948 366.516 205.092 367.038 205.38 367.398C205.668 367.746 206.136 367.92 206.784 367.92C206.976 367.92 207.168 367.896 207.36 367.848C207.552 367.8 207.726 367.752 207.882 367.704L208.134 368.82C207.978 368.904 207.75 368.982 207.45 369.054C207.15 369.126 206.862 369.162 206.586 369.162ZM209.405 369V360.252H210.827V361.728C211.091 361.2 211.457 360.798 211.925 360.522C212.393 360.234 212.939 360.09 213.563 360.09C214.931 360.09 215.807 360.684 216.191 361.872C216.455 361.32 216.845 360.888 217.361 360.576C217.877 360.252 218.471 360.09 219.143 360.09C221.087 360.09 222.059 361.242 222.059 363.546V369H220.601V363.618C220.601 362.814 220.457 362.226 220.169 361.854C219.893 361.47 219.431 361.278 218.783 361.278C218.075 361.278 217.511 361.53 217.091 362.034C216.671 362.538 216.461 363.21 216.461 364.05V369H215.003V363.618C215.003 362.814 214.859 362.226 214.571 361.854C214.295 361.47 213.833 361.278 213.185 361.278C212.465 361.278 211.895 361.53 211.475 362.034C211.067 362.538 210.863 363.21 210.863 364.05V369H209.405ZM228.727 369.162C227.347 369.162 226.255 368.76 225.451 367.956C224.647 367.14 224.245 366.036 224.245 364.644C224.245 363.744 224.425 362.952 224.785 362.268C225.145 361.572 225.637 361.038 226.261 360.666C226.897 360.282 227.629 360.09 228.457 360.09C229.645 360.09 230.575 360.474 231.247 361.242C231.919 361.998 232.255 363.042 232.255 364.374V364.932H225.667C225.715 365.928 226.003 366.69 226.531 367.218C227.059 367.734 227.791 367.992 228.727 367.992C229.255 367.992 229.759 367.914 230.239 367.758C230.719 367.59 231.175 367.32 231.607 366.948L232.111 367.974C231.715 368.346 231.211 368.64 230.599 368.856C229.987 369.06 229.363 369.162 228.727 369.162ZM228.493 361.17C227.665 361.17 227.011 361.428 226.531 361.944C226.051 362.46 225.769 363.138 225.685 363.978H230.995C230.959 363.09 230.725 362.4 230.293 361.908C229.873 361.416 229.273 361.17 228.493 361.17ZM234.365 369V360.252H235.787V361.746C236.075 361.194 236.483 360.78 237.011 360.504C237.539 360.228 238.133 360.09 238.793 360.09C240.869 360.09 241.907 361.242 241.907 363.546V369H240.449V363.636C240.449 362.82 240.287 362.226 239.963 361.854C239.651 361.47 239.147 361.278 238.451 361.278C237.647 361.278 237.005 361.53 236.525 362.034C236.057 362.526 235.823 363.186 235.823 364.014V369H234.365ZM248.105 369.162C247.073 369.162 246.299 368.892 245.783 368.352C245.267 367.8 245.009 367.008 245.009 365.976V361.386H243.299V360.252H245.009V357.57H246.467V360.252H249.239V361.386H246.467V365.832C246.467 366.516 246.611 367.038 246.899 367.398C247.187 367.746 247.655 367.92 248.303 367.92C248.495 367.92 248.687 367.896 248.879 367.848C249.071 367.8 249.245 367.752 249.401 367.704L249.653 368.82C249.497 368.904 249.269 368.982 248.969 369.054C248.669 369.126 248.381 369.162 248.105 369.162ZM261.037 369.162C259.861 369.162 258.835 368.898 257.959 368.37C257.095 367.83 256.423 367.074 255.943 366.102C255.475 365.13 255.241 363.978 255.241 362.646C255.241 361.314 255.475 360.162 255.943 359.19C256.411 358.218 257.077 357.468 257.941 356.94C258.817 356.412 259.849 356.148 261.037 356.148C262.237 356.148 263.269 356.412 264.133 356.94C265.009 357.468 265.681 358.218 266.149 359.19C266.629 360.15 266.869 361.296 266.869 362.628C266.869 363.96 266.629 365.118 266.149 366.102C265.669 367.074 264.991 367.83 264.115 368.37C263.251 368.898 262.225 369.162 261.037 369.162ZM261.037 367.848C262.393 367.848 263.443 367.392 264.187 366.48C264.931 365.568 265.303 364.29 265.303 362.646C265.303 361.002 264.931 359.73 264.187 358.83C263.443 357.918 262.393 357.462 261.037 357.462C259.705 357.462 258.667 357.918 257.923 358.83C257.179 359.73 256.807 361.002 256.807 362.646C256.807 364.278 257.179 365.556 257.923 366.48C258.667 367.392 259.705 367.848 261.037 367.848ZM269.31 372.24V360.252H270.732V361.818C270.996 361.278 271.386 360.858 271.902 360.558C272.43 360.246 273.042 360.09 273.738 360.09C274.518 360.09 275.196 360.276 275.772 360.648C276.36 361.008 276.81 361.53 277.122 362.214C277.446 362.886 277.608 363.69 277.608 364.626C277.608 365.55 277.446 366.354 277.122 367.038C276.81 367.71 276.36 368.232 275.772 368.604C275.196 368.976 274.518 369.162 273.738 369.162C273.066 369.162 272.466 369.012 271.938 368.712C271.41 368.412 271.02 367.998 270.768 367.47V372.24H269.31ZM273.432 367.992C274.248 367.992 274.902 367.704 275.394 367.128C275.886 366.54 276.132 365.706 276.132 364.626C276.132 363.534 275.886 362.7 275.394 362.124C274.902 361.548 274.248 361.26 273.432 361.26C272.616 361.26 271.962 361.548 271.47 362.124C270.978 362.7 270.732 363.534 270.732 364.626C270.732 365.706 270.978 366.54 271.47 367.128C271.962 367.704 272.616 367.992 273.432 367.992ZM283.226 369.162C282.194 369.162 281.42 368.892 280.904 368.352C280.388 367.8 280.13 367.008 280.13 365.976V361.386H278.42V360.252H280.13V357.57H281.588V360.252H284.36V361.386H281.588V365.832C281.588 366.516 281.732 367.038 282.02 367.398C282.308 367.746 282.776 367.92 283.424 367.92C283.616 367.92 283.808 367.896 284 367.848C284.192 367.8 284.366 367.752 284.522 367.704L284.774 368.82C284.618 368.904 284.39 368.982 284.09 369.054C283.79 369.126 283.502 369.162 283.226 369.162ZM285.829 358.074V356.436H287.629V358.074H285.829ZM286.009 369V360.252H287.467V369H286.009ZM293.829 369.162C292.977 369.162 292.239 368.976 291.615 368.604C290.991 368.232 290.505 367.71 290.157 367.038C289.821 366.354 289.653 365.55 289.653 364.626C289.653 363.702 289.821 362.904 290.157 362.232C290.505 361.548 290.991 361.02 291.615 360.648C292.239 360.276 292.977 360.09 293.829 360.09C294.669 360.09 295.401 360.276 296.025 360.648C296.661 361.02 297.147 361.548 297.483 362.232C297.831 362.904 298.005 363.702 298.005 364.626C298.005 365.55 297.831 366.354 297.483 367.038C297.147 367.71 296.661 368.232 296.025 368.604C295.401 368.976 294.669 369.162 293.829 369.162ZM293.829 367.992C294.645 367.992 295.299 367.704 295.791 367.128C296.283 366.54 296.529 365.706 296.529 364.626C296.529 363.534 296.283 362.7 295.791 362.124C295.299 361.548 294.645 361.26 293.829 361.26C293.001 361.26 292.341 361.548 291.849 362.124C291.369 362.7 291.129 363.534 291.129 364.626C291.129 365.706 291.369 366.54 291.849 367.128C292.341 367.704 293.001 367.992 293.829 367.992ZM300.195 369V360.252H301.617V361.746C301.905 361.194 302.313 360.78 302.841 360.504C303.369 360.228 303.963 360.09 304.623 360.09C306.699 360.09 307.737 361.242 307.737 363.546V369H306.279V363.636C306.279 362.82 306.117 362.226 305.793 361.854C305.481 361.47 304.977 361.278 304.281 361.278C303.477 361.278 302.835 361.53 302.355 362.034C301.887 362.526 301.653 363.186 301.653 364.014V369H300.195ZM313.377 369.162C312.693 369.162 312.045 369.066 311.433 368.874C310.821 368.682 310.317 368.412 309.921 368.064L310.389 367.038C310.821 367.386 311.295 367.644 311.811 367.812C312.339 367.968 312.873 368.046 313.413 368.046C314.097 368.046 314.613 367.92 314.961 367.668C315.309 367.416 315.483 367.074 315.483 366.642C315.483 366.306 315.369 366.042 315.141 365.85C314.913 365.646 314.553 365.49 314.061 365.382L312.423 365.022C310.935 364.698 310.191 363.93 310.191 362.718C310.191 361.926 310.503 361.29 311.127 360.81C311.763 360.33 312.591 360.09 313.611 360.09C314.211 360.09 314.781 360.186 315.321 360.378C315.873 360.558 316.329 360.828 316.689 361.188L316.203 362.214C315.855 361.89 315.447 361.644 314.979 361.476C314.523 361.296 314.067 361.206 313.611 361.206C312.939 361.206 312.429 361.338 312.081 361.602C311.733 361.866 311.559 362.214 311.559 362.646C311.559 363.318 312.003 363.75 312.891 363.942L314.529 364.284C315.297 364.452 315.879 364.722 316.275 365.094C316.671 365.454 316.869 365.946 316.869 366.57C316.869 367.374 316.551 368.01 315.915 368.478C315.279 368.934 314.433 369.162 313.377 369.162Z" fill="#9099AB"/>
<mask id="mask0_1_129" style="mask-type:alpha" maskUnits="userSpaceOnUse" x="136" y="137" width="59" height="58">
<rect x="136.618" y="137" width="58" height="58" fill="#D9D9D9"/>
</mask>
<g mask="url(#mask0_1_129)">
<path d="M161.993 174.458H169.243V168.417H175.284V161.167H169.243V155.125H161.993V161.167H155.951V168.417H161.993V174.458ZM165.618 190.167C160.019 188.757 155.397 185.545 151.752 180.53C148.107 175.516 146.284 169.947 146.284 163.825V149.083L165.618 141.833L184.951 149.083V163.825C184.951 169.947 183.129 175.516 179.483 180.53C175.838 185.545 171.216 188.757 165.618 190.167ZM165.618 185.092C169.807 183.763 173.271 181.104 176.009 177.117C178.748 173.129 180.118 168.699 180.118 163.825V152.406L165.618 146.969L151.118 152.406V163.825C151.118 168.699 152.487 173.129 155.226 177.117C157.965 181.104 161.429 183.763 165.618 185.092Z" fill="white"/>
</g>
</svg>
