<svg width="24" height="24" viewBox="0 0 24 24" fill="none" xmlns="http://www.w3.org/2000/svg">
<g clip-path="url(#clip0_1_6)">
<path fill-rule="evenodd" clip-rule="evenodd" d="M9.14654 1.57068C8.85792 1.81664 8.7136 1.93964 8.55947 2.04294C8.20616 2.27974 7.80937 2.44409 7.39211 2.52647C7.21007 2.56242 7.02106 2.57749 6.64304 2.60766C5.69326 2.68346 5.21836 2.72135 4.82216 2.8613C3.90578 3.18497 3.18497 3.90578 2.8613 4.82216C2.72135 5.21836 2.68346 5.69326 2.60766 6.64304C2.57749 7.02106 2.56242 7.21007 2.52647 7.39211C2.44409 7.80937 2.27974 8.20616 2.04294 8.55947C1.93964 8.7136 1.81665 8.85791 1.57068 9.14654C0.952675 9.87175 0.643661 10.2343 0.46247 10.6134C0.043353 11.4904 0.043353 12.5096 0.46247 13.3865C0.643673 13.7657 0.952675 14.1282 1.57068 14.8534C1.81662 15.142 1.93964 15.2864 2.04294 15.4405C2.27974 15.7938 2.44409 16.1906 2.52647 16.6079C2.56242 16.7899 2.57749 16.979 2.60766 17.3569C2.68346 18.3067 2.72135 18.7816 2.8613 19.1778C3.18497 20.0942 3.90578 20.815 4.82216 21.1387C5.21836 21.2786 5.69326 21.3165 6.64304 21.3923C7.02106 21.4224 7.21007 21.4376 7.39211 21.4735C7.80937 21.5559 8.20616 21.7203 8.55947 21.9571C8.7136 22.0603 8.85791 22.1833 9.14654 22.4293C9.87175 23.0473 10.2343 23.3563 10.6134 23.5375C11.4904 23.9566 12.5096 23.9566 13.3865 23.5375C13.7657 23.3563 14.1282 23.0473 14.8534 22.4293C15.142 22.1833 15.2864 22.0603 15.4405 21.9571C15.7938 21.7203 16.1906 21.5559 16.6079 21.4735C16.7899 21.4376 16.979 21.4224 17.3569 21.3923C18.3067 21.3165 18.7816 21.2786 19.1778 21.1387C20.0942 20.815 20.815 20.0942 21.1387 19.1778C21.2786 18.7816 21.3165 18.3067 21.3923 17.3569C21.4224 16.979 21.4376 16.7899 21.4735 16.6079C21.5559 16.1906 21.7203 15.7938 21.9571 15.4405C22.0603 15.2864 22.1833 15.142 22.4293 14.8534C23.0473 14.1282 23.3563 13.7657 23.5375 13.3865C23.9566 12.5096 23.9566 11.4904 23.5375 10.6134C23.3563 10.2343 23.0473 9.87175 22.4293 9.14654C22.1833 8.85791 22.0603 8.7136 21.9571 8.55947C21.7203 8.20616 21.5559 7.80937 21.4735 7.39211C21.4376 7.21007 21.4224 7.02106 21.3923 6.64304C21.3165 5.69326 21.2786 5.21836 21.1387 4.82216C20.815 3.90578 20.0942 3.18497 19.1778 2.8613C18.7816 2.72135 18.3067 2.68346 17.3569 2.60766C16.979 2.57749 16.7899 2.56242 16.6079 2.52647C16.1906 2.44409 15.7938 2.27974 15.4405 2.04294C15.2864 1.93964 15.142 1.81665 14.8534 1.57068C14.1282 0.952675 13.7657 0.643673 13.3865 0.46247C12.5096 0.043353 11.4904 0.043353 10.6134 0.46247C10.2343 0.643661 9.87175 0.952675 9.14654 1.57068ZM17.1834 9.46741C17.56 9.09071 17.56 8.47999 17.1834 8.10329C16.8067 7.7266 16.1959 7.7266 15.8192 8.10329L10.0709 13.8517L8.18068 11.9616C7.80399 11.5849 7.19326 11.5849 6.81657 11.9616C6.43988 12.3382 6.43988 12.949 6.81657 13.3257L9.38876 15.8979C9.76544 16.2746 10.3762 16.2746 10.7529 15.8979L17.1834 9.46741Z" fill="#16409B"/>
</g>
<defs>
<clipPath id="clip0_1_6">
<rect width="24" height="24" fill="white"/>
</clipPath>
</defs>
</svg>
