<svg width="208" height="449" viewBox="0 0 208 449" fill="none" xmlns="http://www.w3.org/2000/svg">
<path fill-rule="evenodd" clip-rule="evenodd" d="M5.09746 393.4C3.79746 389.8 2.69746 386.2 1.99746 382.5C-1.20254 366.4 1.49746 350.2 4.99746 334.4C8.79746 317 12.8975 299.8 11.5975 281.9C10.1975 263.4 5.79746 245.3 4.29746 226.9C2.89746 209.4 3.59746 191.6 9.09746 174.8C13.4975 161.2 20.6974 148.7 28.3974 136.6C37.9975 121.5 48.9974 106.5 56.8974 90.1999C64.4974 48.8999 67.9975 3.69987 106.097 0.999866C137.397 -1.10013 154.897 11.9999 164.497 26.0999C166.297 28.4332 167.964 30.8665 169.497 33.3999C176.897 45.6999 180.897 59.5998 182.497 73.7999C184.597 91.1999 183.297 108.8 181.797 126.2C180.197 144.2 178.797 162.2 177.997 180.2C177.131 197.8 176.531 215.4 176.197 233C187.797 265 202.397 296.7 206.797 330.8C208.897 347.6 208.397 364.9 202.797 381C201.897 383.8 200.697 386.6 199.397 389.3C172.497 426.6 138.097 449 100.697 449C64.6975 449 31.4975 428.3 5.09746 393.4ZM172.397 41.9999C175.097 50.4999 176.097 59.5999 175.397 68.6999C175.397 68.6999 171.797 212.8 175.597 231.1C175.597 229.967 175.597 228.867 175.597 227.8C175.197 209.9 175.797 192.1 176.697 174.3C177.597 156.6 179.197 139 180.597 121.4C181.997 104.2 182.997 86.6999 180.397 69.4999C178.997 59.9999 176.397 50.6999 172.397 41.9999Z" fill="#371116"/>
<path d="M162.498 196.5C151.898 183.8 102.198 134.9 82.998 120.4C81.6646 119.4 80.3647 118.6 79.098 118C77.598 122.9 69.898 144.6 43.998 151C40.798 159.8 37.898 171.2 37.798 183.9C37.598 198.1 54.998 286.2 57.298 297.8C47.598 314.4 29.198 348.2 30.998 363.1C32.698 377.1 35.698 405.8 37.798 426.6C56.998 441 78.298 449 100.698 449C117.198 449 132.998 444.7 147.898 436.7L143.198 298.3H142.998L145.798 223.6C167.298 215.6 163.498 197.7 162.498 196.5Z" fill="#64EBB6"/>
<path d="M153.797 297.1C151.797 296.3 149.697 295.5 147.697 294.7C149.297 294.9 150.897 295 152.597 295.1C154.797 295.2 159.597 295.8 159.697 294.7C159.997 292.4 144.297 288.1 140.797 286.9C142.531 285.234 144.231 283.567 145.897 281.9C146.397 281.4 147.597 280.6 146.797 279.8C146.097 279.2 145.097 279.6 144.297 279.9C143.197 280.3 142.197 280.9 141.097 281.5C140.031 282.1 138.964 282.667 137.897 283.2C135.631 284.267 133.364 285.267 131.097 286.2C129.997 286.6 124.897 287.6 123.197 288.3L49.3972 252.6L66.7972 202.2L30.2972 203.4C30.2972 203.4 13.1972 264.3 18.1972 274.1C23.2972 284 122.797 300.3 122.797 300.3C126.464 301.767 130.164 303.167 133.897 304.5C136.231 305.3 138.597 306.1 140.997 306.9C142.197 307.3 143.364 307.7 144.497 308.1C145.697 308.5 146.897 308.9 148.097 309.4C148.197 309.4 148.297 309.4 148.297 309.3C148.497 308 147.697 307.1 146.797 306.2C145.731 305.134 144.664 304.034 143.597 302.9C147.897 303.4 155.697 306.8 156.397 305.4C156.997 304.2 153.097 302.4 152.097 301.9C150.631 301.1 149.197 300.333 147.797 299.6C149.931 300.2 152.131 300.734 154.397 301.2C155.697 301.5 157.097 301.8 158.597 301.9C159.697 302 161.697 301.4 161.497 300.4C161.097 298.8 156.397 298.2 153.797 297.1Z" fill="#FFB4BA"/>
<path fill-rule="evenodd" clip-rule="evenodd" d="M65.9 262.7C65.9667 262.7 66.0333 262.733 66.1 262.8C66.7667 263.133 67.4 263.5 68 263.9C68.6 264.3 69.1667 264.733 69.7 265.2C70.1667 265.733 70.6333 266.267 71.1 266.8C71.5667 267.4 71.9667 268 72.3 268.6C72.6333 269.067 72.9 269.6 73.1 270.2L73.2 270.3C73.2 270.4 73.1 270.3 73.1 270.3H73C73 270.3 72.9667 270.3 72.9 270.3C74.6333 271.3 76.3 272.4 77.9 273.6C79.6 274.9 81.2 276.2 82.7 277.6C84.8333 277.8 86.9333 278.067 89 278.4C91.3 278.7 93.5 279.1 95.8 279.7C95.8 279.7 95.8 279.8 95.7 279.8C95.4333 279.733 95.1667 279.667 94.9 279.6C92.6333 279.133 90.3667 278.733 88.1 278.4C86.3667 278.133 84.6333 277.9 82.9 277.7C82.9667 277.767 83.0333 277.833 83.1 277.9C84.5667 278.5 86.0333 279.133 87.5 279.8C90.3667 281.067 93.1667 282.5 95.9 284.1C96 284.1 95.9 284.2 95.9 284.2C95.5667 284 95.2333 283.8 94.9 283.6C92.1 282.1 89.2 280.7 86.3 279.4C85.3667 279 84.4 278.6 83.4 278.2C84 278.667 84.5667 279.167 85.1 279.7C87.3 281.7 89.5 283.7 91.6 285.9C93.6 288.1 95.6 290.4 97.2 292.9C97.2 292.9 97.2 293 97.1 292.9C96.9 292.633 96.7 292.333 96.5 292C94.7 289.6 92.8 287.4 90.7 285.3C88.7 283.1 86.4 281.1 84.2 279.1C83.8 278.767 83.4 278.4 83 278C82.6667 277.867 82.3333 277.767 82 277.7C81.9333 277.633 81.8667 277.6 81.8 277.6C81.8 277.667 81.8 277.7 81.8 277.7L81.7 277.8C81.1667 278.333 80.6333 278.8 80.1 279.2C79.5 279.6 78.9 279.967 78.3 280.3C77.6333 280.633 76.9667 280.9 76.3 281.1C75.7 281.3 75.0333 281.467 74.3 281.6C73.6333 281.733 72.9333 281.833 72.2 281.9C72.2 281.9 72.2 281.8 72.2 281.7C72.2667 281.633 72.3333 281.6 72.4 281.6C72.9333 281.067 73.5 280.6 74.1 280.2C74.7 279.8 75.3 279.433 75.9 279.1C76.5667 278.767 77.2333 278.5 77.9 278.3C78.5667 278.033 79.2667 277.833 80 277.7C80.4 277.633 80.7667 277.6 81.1 277.6C78.8333 277.4 76.5667 277.333 74.3 277.4C71.9667 277.4 69.6667 277.5 67.4 277.7C65.4 277.9 63.4 278.133 61.4 278.4C61.4 278.4 61.3667 278.433 61.3 278.5C61.2333 278.5 61.2 278.533 61.2 278.6C61.1333 278.667 61.0667 278.733 61 278.8C61.1 279.3 60.9 279.7 60.7 280.1C60.5 280.433 60.2667 280.733 60 281C59.6667 281.267 59.3667 281.533 59.1 281.8C58.5 282.333 57.8333 282.8 57.1 283.2L57 283.1C57.1333 282.633 57.3 282.167 57.5 281.7C57.2333 281.7 56.9667 281.733 56.7 281.8C56.4333 281.8 56.1667 281.833 55.9 281.9C55.7667 281.9 55.6667 281.867 55.6 281.8C55.5 281.8 55.3 281.8 55.3 281.7C55.2 281.6 55.2 281.5 55.3 281.4C55.3667 281.333 55.4667 281.233 55.6 281.1C55.7333 280.967 55.8667 280.8 56 280.6C56 280.6 55.9667 280.6 55.9 280.6C55.9 280.667 55.9 280.7 55.9 280.7C55.8333 280.7 55.7667 280.733 55.7 280.8C55.7 280.8 55.6667 280.8 55.6 280.8C55.4667 280.867 55.3333 280.9 55.2 280.9C54.8 281.033 54.4 281.133 54 281.2C53.6667 281.267 53.3333 281.333 53 281.4C53.0667 281.467 53.1 281.5 53.1 281.5C53.1 281.567 53.0667 281.633 53 281.7C52.9333 281.7 52.9 281.733 52.9 281.8C52.9 281.8 52.8667 281.8 52.8 281.8C52.8 281.8 52.7667 281.8 52.7 281.8C52.6333 281.8 52.5667 281.767 52.5 281.7C52.5 281.633 52.5 281.567 52.5 281.5C52.5 281.433 52.5333 281.4 52.6 281.4C52.6667 281.333 52.7333 281.3 52.8 281.3C52.8667 281.3 52.9333 281.3 53 281.3C53 281.3 53 281.333 53 281.4C53.1333 281.333 53.3 281.267 53.5 281.2C53.9 281.133 54.3 281.033 54.7 280.9C54.9 280.9 55.1 280.867 55.3 280.8C55.3667 280.733 55.4667 280.7 55.6 280.7C55.6667 280.633 55.7 280.6 55.7 280.6C55.7667 280.6 55.8 280.6 55.8 280.6C55.2667 280.533 54.7667 280.4 54.3 280.2C54.2333 280.2 54.1667 280.2 54.1 280.2C54 280.2 54 280.1 54.1 280.1C54.1667 279.967 54.2333 279.867 54.3 279.8C54.6333 279.4 55 279.067 55.4 278.8C55.4 278.8 55.3667 278.8 55.3 278.8C55.2333 278.8 55.1667 278.8 55.1 278.8C54.9667 278.8 54.8333 278.833 54.7 278.9C54.5 278.967 54.2667 279.033 54 279.1C53.5333 279.233 53.0333 279.333 52.5 279.4C52.5 279.467 52.4667 279.533 52.4 279.6C52.4 279.667 52.3667 279.7 52.3 279.7C52.2 279.8 52 279.7 51.9 279.6C51.9 279.533 51.9 279.467 51.9 279.4C51.9667 279.333 52.0333 279.3 52.1 279.3C52.1667 279.233 52.2667 279.233 52.4 279.3C52.4667 279.3 52.5 279.333 52.5 279.4C52.7 279.333 52.9 279.267 53.1 279.2C53.5 279.067 53.9 278.967 54.3 278.9C54.5 278.833 54.7 278.767 54.9 278.7C54.9667 278.7 55.0667 278.7 55.2 278.7C55.2667 278.7 55.3 278.7 55.3 278.7C55.1667 278.567 55 278.467 54.8 278.4C54.6667 278.333 54.5667 278.267 54.5 278.2C54.4 278.2 54.3 278.1 54.3 278.1V278C54.3 277.9 54.4 277.9 54.5 277.8C54.6333 277.8 54.7333 277.767 54.8 277.7C55 277.633 55.2 277.567 55.4 277.5C55.5333 277.5 55.6667 277.467 55.8 277.4C55.8 277.4 55.8333 277.4 55.9 277.4C55.5 277.2 55.1333 277 54.8 276.8C54.7 276.8 54.7 276.7 54.8 276.7C55.3 276.5 55.8 276.2 56.4 276.1C56.8667 275.967 57.3333 275.9 57.8 275.9C58.2667 275.967 58.7 276.1 59.1 276.3C60 276.7 60.7 277.3 61.2 278C61.2 278 61.2333 278.033 61.3 278.1C61.3667 278.1 61.4 278.133 61.4 278.2C61.4667 278.2 61.5 278.233 61.5 278.3C63.7 277.9 65.9667 277.633 68.3 277.5C70.5667 277.3 72.8667 277.2 75.2 277.2C77.3333 277.2 79.4667 277.3 81.6 277.5C80.2667 276.967 78.9 276.5 77.5 276.1C74.5 275.1 71.4667 274.267 68.4 273.6C65.2667 272.933 62.1333 272.433 59 272.1C58.6667 272.033 58.3333 271.967 58 271.9C57.8667 271.967 57.7667 272 57.7 272C57.7 272 57.6667 272 57.6 272C57.7 272.1 57.6 272.1 57.5 272.1C57.5 272.167 57.5 272.2 57.5 272.2C57.0333 272.667 56.5 273.1 55.9 273.5C55.3667 273.9 54.7667 274.267 54.1 274.6C53.5 274.933 52.8667 275.2 52.2 275.4C51.5333 275.667 50.8667 275.867 50.2 276C49.5333 276.133 48.8333 276.2 48.1 276.2C48 276.2 48 276.1 48.1 276.1C48.1667 276.033 48.2333 275.967 48.3 275.9C48.8333 275.367 49.3667 274.9 49.9 274.5C50.5 274.1 51.1333 273.733 51.8 273.4C52.4667 273.133 53.1333 272.867 53.8 272.6C54.4667 272.4 55.1667 272.233 55.9 272.1C56.3667 271.967 56.8667 271.9 57.4 271.9C56.3333 271.767 55.2667 271.667 54.2 271.6C54.2 271.6 54.1667 271.6 54.1 271.6C53.0333 271.533 51.9333 271.5 50.8 271.5C50.7 271.5 50.6 271.5 50.6 271.5C49.9333 271.9 49.2 272.233 48.4 272.5C47.6667 272.7 46.9333 272.867 46.2 273C45.4 273.133 44.6 273.233 43.8 273.3C43.0667 273.3 42.3 273.267 41.5 273.2C40.7 273.067 39.9333 272.9 39.2 272.7C39.1 272.7 39.1 272.6 39.2 272.6C39.2667 272.533 39.3667 272.467 39.5 272.4C40.1667 272.067 40.9 271.767 41.7 271.5C42.4333 271.3 43.2 271.133 44 271C44.8 270.867 45.6 270.8 46.4 270.8C47.2 270.8 48 270.833 48.8 270.9C49.4667 270.967 50.1333 271.1 50.8 271.3H50.9C50.9667 271.367 51.0667 271.4 51.2 271.4C52 271.4 52.8333 271.433 53.7 271.5C53.1 271.3 52.5 271.067 51.9 270.8C51.3 270.467 50.7 270.1 50.1 269.7C49.5667 269.3 49.0333 268.867 48.5 268.4C47.9667 267.933 47.5 267.4 47.1 266.8C46.6333 266.267 46.2333 265.7 45.9 265.1C45.9 265 45.9 265 46 265C46.0667 265.067 46.1333 265.1 46.2 265.1C46.9333 265.367 47.6 265.633 48.2 265.9C48.8667 266.233 49.5 266.633 50.1 267.1C50.6333 267.5 51.1667 267.933 51.7 268.4C52.2333 268.933 52.7333 269.467 53.2 270C53.5333 270.467 53.8333 270.967 54.1 271.5C54.1667 271.5 54.2 271.5 54.2 271.5C56.2 271.633 58.2 271.833 60.2 272.1C63.2667 272.433 66.3 272.967 69.3 273.7C68.7 273.5 68.1 273.233 67.5 272.9C66.8333 272.633 66.2333 272.3 65.7 271.9C65.1 271.5 64.5667 271.067 64.1 270.6C63.5667 270.067 63.0667 269.533 62.6 269C62.2 268.467 61.8333 267.9 61.5 267.3C61.4 267.2 61.5 267.2 61.6 267.2C61.6667 267.2 61.7333 267.233 61.8 267.3C62.4667 267.5 63.1333 267.767 63.8 268.1C64.4 268.433 65 268.8 65.6 269.2C66.2 269.667 66.7667 270.133 67.3 270.6C67.8333 271.133 68.3 271.667 68.7 272.2C69.1 272.667 69.4333 273.133 69.7 273.6L69.8 273.8C72.8 274.467 75.7667 275.3 78.7 276.3C79.8333 276.7 80.9667 277.1 82.1 277.5C82.2333 277.5 82.3667 277.533 82.5 277.6C80.7 276 78.9 274.5 77 273.1C74.4667 271.3 71.8333 269.7 69.1 268.3C66.5 267.033 63.8 265.933 61 265C60.9333 265.067 60.9 265.1 60.9 265.1C60.8333 265.1 60.7667 265.1 60.7 265.1C60.6333 265.167 60.5333 265.2 60.4 265.2C60.4 265.7 60 266 59.6 266.2C59.2667 266.4 58.9 266.567 58.5 266.7C58.1667 266.9 57.8 267.033 57.4 267.1C56.6 267.3 55.8 267.433 55 267.5C55 267.5 55 267.4 55 267.3C55.3333 266.967 55.7 266.633 56.1 266.3C55.8333 266.233 55.5667 266.133 55.3 266C55.0333 265.933 54.7667 265.867 54.5 265.8C54.4333 265.733 54.3333 265.667 54.2 265.6C54.1 265.5 54.1 265.4 54 265.3C54 265.2 54.1 265.1 54.2 265.1C54.2667 265.033 54.3667 264.967 54.5 264.9C54.7 264.833 54.9333 264.767 55.2 264.7C55.1333 264.7 55.1 264.667 55.1 264.6C55.1 264.667 55.0667 264.7 55 264.7C54.9333 264.7 54.9 264.7 54.9 264.7C54.8333 264.7 54.7667 264.7 54.7 264.7C54.5667 264.633 54.4333 264.6 54.3 264.6C53.9 264.533 53.5 264.467 53.1 264.4C52.7667 264.267 52.4333 264.167 52.1 264.1C52.1 264.1 52.1 264.133 52.1 264.2C52.1 264.267 52.0667 264.3 52 264.3C51.9333 264.3 51.9 264.3 51.9 264.3C51.8333 264.367 51.8 264.367 51.8 264.3C51.7333 264.3 51.7 264.3 51.7 264.3C51.6333 264.233 51.6 264.2 51.6 264.2C51.5333 264.067 51.5333 264 51.6 264C51.6 263.933 51.6667 263.867 51.8 263.8C51.8 263.8 51.8333 263.833 51.9 263.9C51.9667 263.9 52.0333 263.933 52.1 264C52.3 264.067 52.4667 264.1 52.6 264.1C53 264.233 53.4 264.333 53.8 264.4C54 264.4 54.2333 264.433 54.5 264.5C54.5667 264.5 54.6667 264.5 54.8 264.5C54.8 264.567 54.8333 264.6 54.9 264.6C54.5 264.333 54.1333 263.967 53.8 263.5C53.7333 263.5 53.6667 263.5 53.6 263.5C53.6 263.4 53.6 263.3 53.7 263.3C53.7667 263.233 53.8667 263.2 54 263.2C54.4667 263 54.9333 262.867 55.4 262.8C55.4 262.733 55.3667 262.7 55.3 262.7C55.2333 262.7 55.1667 262.7 55.1 262.7C55.0333 262.633 54.9333 262.6 54.8 262.6C54.5333 262.533 54.2667 262.467 54 262.4C53.5333 262.333 53.0667 262.233 52.6 262.1C52.5333 262.167 52.4667 262.2 52.4 262.2C52.3333 262.267 52.2667 262.267 52.2 262.2C52.1 262.2 52 262.1 52 262C52 261.933 52 261.867 52 261.8C52.0667 261.733 52.1333 261.7 52.2 261.7C52.3333 261.7 52.4333 261.767 52.5 261.9C52.5667 261.9 52.6 261.933 52.6 262C52.8 262.067 53 262.1 53.2 262.1C53.6 262.167 54 262.267 54.4 262.4C54.6 262.4 54.8 262.433 55 262.5C55.0667 262.5 55.1667 262.533 55.3 262.6C55.3 262.6 55.3333 262.6 55.4 262.6C55.2667 262.467 55.1667 262.3 55.1 262.1C54.9667 262.033 54.8667 261.933 54.8 261.8C54.8 261.8 54.8 261.7 54.8 261.6C54.8 261.5 55 261.5 55 261.5C55.1333 261.5 55.2667 261.5 55.4 261.5C55.6 261.567 55.8 261.6 56 261.6C56.1333 261.667 56.2333 261.7 56.3 261.7C56.3667 261.7 56.4333 261.7 56.5 261.7C56.2333 261.367 55.9667 261.033 55.7 260.7C55.7 260.7 55.7 260.6 55.8 260.6C56.3 260.6 56.9 260.7 57.5 260.8C57.9667 260.867 58.4333 261.033 58.9 261.3C59.2333 261.5 59.5667 261.8 59.9 262.2C60.5 262.9 60.8 263.7 61 264.6C61 264.667 61 264.7 61 264.7C61.0667 264.767 61.1 264.833 61.1 264.9C61.1 264.9 61.1 264.933 61.1 265C61.3 265 61.4667 265.033 61.6 265.1C64.6 266.1 67.4 267.3 70.1 268.7C70.4333 268.833 70.7333 268.967 71 269.1C70.4 268.767 69.8667 268.367 69.4 267.9C68.8667 267.433 68.3667 266.9 67.9 266.3C67.5 265.767 67.1 265.2 66.7 264.6C66.3667 264 66.0667 263.367 65.8 262.7C65.8 262.7 65.9 262.6 65.9 262.7ZM57.2 261.3C58 261.7 58.8 262.2 59.5 262.8C59.8333 263.067 60.1333 263.367 60.4 263.7C60.5333 263.9 60.6667 264.1 60.8 264.3C60.6667 263.967 60.5333 263.6 60.4 263.2C60 262.4 59.4 261.7 58.6 261.3C57.8 260.9 56.9 260.8 56.1 260.8C56.5 260.933 56.8667 261.1 57.2 261.3ZM57 262.2C57.1333 262.4 57.3 262.533 57.5 262.6C57.5667 262.6 57.6667 262.6 57.8 262.6C58.1 262.7 58.3 262.8 58.6 262.9C59.1333 263.1 59.6333 263.4 60.1 263.8C60.2333 263.867 60.3667 263.967 60.5 264.1C60.3667 263.967 60.2667 263.8 60.2 263.6C59.6 263 58.9 262.4 58.2 262C57.8 261.733 57.4 261.5 57 261.3C56.6667 261.167 56.3 261 55.9 260.8C56.1667 261.133 56.4 261.433 56.6 261.7C56.7333 261.9 56.8667 262.067 57 262.2ZM56 262.1C56.2 262.233 56.4 262.333 56.6 262.4C56.8 262.467 57 262.567 57.2 262.7C57.2667 262.7 57.3 262.7 57.3 262.7C57.1667 262.633 57.0667 262.533 57 262.4C56.8667 262.267 56.7333 262.1 56.6 261.9C56.4667 261.9 56.3667 261.867 56.3 261.8C56.1667 261.8 56.0333 261.767 55.9 261.7C55.7667 261.7 55.6 261.7 55.4 261.7C55.2667 261.633 55.1667 261.6 55.1 261.6C55.0333 261.6 54.9667 261.6 54.9 261.6C55.2333 261.8 55.6 261.967 56 262.1ZM55.6 262.7C55.8 262.7 56 262.7 56.2 262.7C56.3333 262.7 56.4667 262.7 56.6 262.7C56.7333 262.767 56.8667 262.767 57 262.7C56.8667 262.633 56.7 262.567 56.5 262.5C56.3 262.433 56.1 262.367 55.9 262.3C55.5667 262.1 55.2333 261.933 54.9 261.8C55.0333 261.933 55.1333 262.067 55.2 262.2C55.3333 262.4 55.4667 262.567 55.6 262.7ZM60.5 264.8C60.5667 264.8 60.6 264.8 60.6 264.8C60.7333 264.8 60.8667 264.833 61 264.9C61 264.833 61 264.8 61 264.8C60.9333 264.867 60.9 264.867 60.9 264.8C60.8333 264.733 60.8 264.667 60.8 264.6C60.4 264.2 60 263.867 59.6 263.6C59.1 263.3 58.6 263 58.1 262.8C57.8 262.7 57.6 262.7 57.3 262.8C57.2333 262.867 57.1333 262.9 57 262.9C56.8667 262.9 56.7333 262.9 56.6 262.9C55.6 262.8 54.7 263 53.9 263.4C54.3 263.533 54.7333 263.667 55.2 263.8C56.2 264.1 57.1 264.3 58.1 264.4C58.9 264.533 59.7 264.667 60.5 264.8ZM60.7 265C60.2333 264.933 59.7667 264.867 59.3 264.8C58.3 264.6 57.4 264.5 56.4 264.3C55.5333 264.1 54.7 263.867 53.9 263.6C53.9667 263.6 54 263.633 54 263.7C54.4 264.1 54.8667 264.4 55.4 264.6C55.6 264.733 55.8333 264.833 56.1 264.9C56.3 264.9 56.4 265 56.5 265C56.6 265.1 56.6 265.2 56.7 265.3C57 265.8 57.7 265.8 58.2 265.7C58.7333 265.633 59.2333 265.533 59.7 265.4C59.9 265.333 60.0667 265.267 60.2 265.2C60.2667 265.2 60.3 265.2 60.3 265.2C60.3667 265.133 60.4333 265.1 60.5 265.1C60.5667 265.033 60.6333 265 60.7 265ZM56.2 266.2C56.4 266 56.6 265.833 56.8 265.7C56.6 265.7 56.3667 265.667 56.1 265.6C55.9 265.6 55.7 265.567 55.5 265.5C55.0333 265.433 54.6 265.367 54.2 265.3C54.2 265.367 54.2 265.4 54.2 265.4C54.4 265.6 54.6 265.7 54.8 265.7C55.2667 265.9 55.7333 266.067 56.2 266.2ZM60.4 265.2C60.4 265.267 60.3667 265.3 60.3 265.3C59.9 265.5 59.5333 265.667 59.2 265.8C58.5333 266.133 57.8667 266.433 57.2 266.7C56.8667 266.767 56.5333 266.867 56.2 267C56 267.067 55.8 267.133 55.6 267.2C55.4667 267.267 55.3333 267.3 55.2 267.3C55.6 267.3 55.9667 267.267 56.3 267.2C57.1 267.133 57.8667 266.933 58.6 266.6C58.9333 266.467 59.2667 266.3 59.6 266.1C60 265.9 60.3 265.6 60.4 265.2ZM55.3 267.2C55.4333 267.133 55.5667 267.1 55.7 267.1C55.9 267.033 56.1 266.967 56.3 266.9C57 266.6 57.7 266.4 58.3 266.1C58.7 265.967 59.1 265.8 59.5 265.6C58.9 265.7 58.4 265.9 57.9 265.9C57.6 265.9 57.3 265.9 57.1 265.8C57.0333 265.8 56.9667 265.767 56.9 265.7C56.3667 266.167 55.8333 266.667 55.3 267.2ZM54.1 265.3C54.5667 265.3 55.0333 265.333 55.5 265.4C55.7 265.467 55.9333 265.5 56.2 265.5C56.4 265.567 56.6 265.6 56.8 265.6C56.8 265.6 56.7667 265.6 56.7 265.6C56.7 265.533 56.6667 265.467 56.6 265.4C56.6 265.333 56.5667 265.267 56.5 265.2C56.4 265.1 56.3 265.1 56.1 265C55.9667 265 55.8333 264.967 55.7 264.9C55.5667 264.833 55.4 264.767 55.2 264.7C55 264.833 54.7667 264.967 54.5 265.1C54.4333 265.1 54.3333 265.133 54.2 265.2C54.2 265.2 54.1667 265.233 54.1 265.3ZM69.2 273.5C68.8 273.033 68.3333 272.633 67.8 272.3C67.3333 271.833 66.8 271.4 66.2 271C65.6667 270.6 65.1333 270.2 64.6 269.8C64.0667 269.4 63.5333 269 63 268.6C62.7333 268.4 62.5 268.2 62.3 268C62.1 267.8 61.9 267.6 61.7 267.4C62.1 268 62.5 268.567 62.9 269.1C63.3667 269.633 63.8667 270.133 64.4 270.6C64.8667 271.067 65.4 271.5 66 271.9C66.6 272.3 67.2 272.633 67.8 272.9C68.2667 273.1 68.7333 273.3 69.2 273.5ZM69.6 273.6C69.2667 273.067 68.9 272.567 68.5 272.1C68.0333 271.5 67.5333 270.967 67 270.5C66.4667 270.033 65.9 269.6 65.3 269.2C64.7 268.8 64.1 268.433 63.5 268.1C62.9 267.833 62.3333 267.6 61.8 267.4C62.2667 267.867 62.7667 268.3 63.3 268.7C63.8333 269.1 64.3667 269.5 64.9 269.9C65.4333 270.3 65.9667 270.7 66.5 271.1C67.1 271.5 67.6333 271.9 68.1 272.3C68.5667 272.7 69.0333 273.133 69.5 273.6C69.5 273.6 69.5333 273.6 69.6 273.6ZM53.6 271.3C53.2 270.9 52.7667 270.5 52.3 270.1C51.7667 269.633 51.2333 269.233 50.7 268.9C50.1667 268.5 49.6 268.1 49 267.7C48.4667 267.3 47.9667 266.867 47.5 266.4C47.2333 266.2 46.9667 266 46.7 265.8C46.5 265.6 46.3 265.433 46.1 265.3C46.5 265.9 46.9 266.467 47.3 267C47.7667 267.533 48.2667 268.033 48.8 268.5C49.3333 268.967 49.8667 269.367 50.4 269.7C51 270.1 51.6333 270.467 52.3 270.8C52.7 271 53.1333 271.167 53.6 271.3ZM54 271.4C53.6667 270.867 53.3 270.367 52.9 269.9C52.4333 269.367 51.9333 268.833 51.4 268.3C50.8667 267.833 50.3 267.4 49.7 267C49.1667 266.6 48.5667 266.233 47.9 265.9C47.3667 265.633 46.8 265.4 46.2 265.2C46.6667 265.667 47.1667 266.1 47.7 266.5C48.2333 266.9 48.7667 267.3 49.3 267.7C49.9 268.1 50.4667 268.5 51 268.9C51.5333 269.3 52.0667 269.7 52.6 270.1C53.0667 270.5 53.5 270.933 53.9 271.4C53.9667 271.4 54 271.4 54 271.4ZM57.2 272.2C56.6 272.4 56.0333 272.633 55.5 272.9C54.9 273.167 54.3 273.433 53.7 273.7C53.1 274.033 52.5 274.333 51.9 274.6C51.2333 274.867 50.6 275.133 50 275.4C49.7333 275.533 49.4333 275.667 49.1 275.8C48.8333 275.867 48.6 275.933 48.4 276C49.0667 276 49.7333 275.933 50.4 275.8C51.1333 275.667 51.8 275.467 52.4 275.2C53.0667 274.933 53.7 274.633 54.3 274.3C54.9 273.967 55.5 273.6 56.1 273.2C56.5 272.933 56.8667 272.6 57.2 272.2ZM57.5 272C56.8333 272.067 56.2 272.133 55.6 272.2C54.9333 272.4 54.2667 272.6 53.6 272.8C52.8667 273.067 52.2 273.367 51.6 273.7C50.9333 274.033 50.3333 274.4 49.8 274.8C49.2667 275.133 48.8 275.533 48.4 276C49 275.733 49.6 275.467 50.2 275.2C50.8 274.933 51.4 274.667 52 274.4C52.6 274.067 53.2333 273.767 53.9 273.5C54.5 273.167 55.1 272.9 55.7 272.7C56.2333 272.433 56.8 272.2 57.4 272C57.4667 272 57.5 272 57.5 272ZM39.5 272.6C40.2333 272.533 41 272.467 41.8 272.4C42.5333 272.333 43.2667 272.233 44 272.1C44.7333 271.967 45.4667 271.833 46.2 271.7C46.9333 271.633 47.7 271.567 48.5 271.5C48.8333 271.433 49.1667 271.4 49.5 271.4C49.5 271.4 49.5333 271.4 49.6 271.4C49.7333 271.4 49.9 271.4 50.1 271.4C50.2333 271.4 50.3667 271.4 50.5 271.4C50.5667 271.4 50.6 271.367 50.6 271.3C49.9333 271.167 49.2333 271.067 48.5 271C47.7 270.933 46.9 270.9 46.1 270.9C45.3 270.967 44.5 271.067 43.7 271.2C42.9667 271.333 42.2 271.533 41.4 271.8C40.8 272 40.1667 272.267 39.5 272.6ZM50.2 271.5C49.5333 271.5 48.8667 271.533 48.2 271.6C47.4667 271.667 46.7 271.767 45.9 271.9C45.1667 272.033 44.4333 272.167 43.7 272.3C42.9667 272.367 42.2333 272.433 41.5 272.5C41.1 272.567 40.7333 272.6 40.4 272.6C40.0667 272.6 39.7667 272.6 39.5 272.6C40.2333 272.8 41 272.933 41.8 273C42.6 273.067 43.3667 273.1 44.1 273.1C44.9 273.033 45.6667 272.933 46.4 272.8C47.2 272.667 47.9667 272.467 48.7 272.2C49.2333 272 49.7333 271.767 50.2 271.5ZM55.1 276.7C55.5 276.7 55.9333 276.7 56.4 276.7C57.3 276.7 58.2 276.8 59.1 277C59.5 277.133 59.8667 277.3 60.2 277.5C60.4667 277.567 60.7 277.667 60.9 277.8C60.6333 277.533 60.3667 277.267 60.1 277C59.4 276.5 58.5 276.1 57.6 276.1C56.8 276 55.9 276.4 55.1 276.7ZM57.2 277.8C57.2667 277.733 57.3667 277.667 57.5 277.6C57.7 277.5 58 277.5 58.3 277.5C58.9 277.433 59.4667 277.467 60 277.6C60.2 277.667 60.4 277.733 60.6 277.8C60.4 277.667 60.2 277.567 60 277.5C59.3 277.1 58.4 277 57.6 276.9C57.1333 276.833 56.6667 276.8 56.2 276.8C55.8 276.8 55.4 276.8 55 276.8C55.3333 277 55.6667 277.167 56 277.3C56.2 277.433 56.4 277.533 56.6 277.6C56.8 277.667 57 277.733 57.2 277.8ZM54.5 278C54.8333 278 55.2 278 55.6 278C55.8667 278 56.1 278 56.3 278C56.5 277.933 56.7 277.9 56.9 277.9C56.9667 277.9 57 277.933 57 278C57 277.933 57.0333 277.867 57.1 277.8C56.9667 277.867 56.8333 277.867 56.7 277.8C56.5 277.667 56.3 277.567 56.1 277.5C55.9667 277.5 55.8333 277.533 55.7 277.6C55.6333 277.6 55.5333 277.6 55.4 277.6C55.2 277.667 55.0333 277.733 54.9 277.8C54.7667 277.867 54.6667 277.9 54.6 277.9C54.5333 277.967 54.5 278 54.5 278ZM54.3 280C54.7667 280 55.2333 279.933 55.7 279.8C56.7 279.6 57.6 279.4 58.5 279.1C59.1667 278.9 59.8333 278.7 60.5 278.5C60.5 278.5 60.5 278.467 60.5 278.4C60.6333 278.4 60.7667 278.4 60.9 278.4C61.0333 278.333 61.1667 278.267 61.3 278.2C61.3 278.267 61.2667 278.267 61.2 278.2C61.1333 278.2 61.0667 278.167 61 278.1C60.5333 277.9 60.0333 277.767 59.5 277.7C58.9 277.6 58.4 277.6 57.8 277.7C57.6 277.7 57.3 277.8 57.1 278C57.0333 278.067 56.9333 278.133 56.8 278.2C56.7333 278.267 56.6333 278.333 56.5 278.4C55.6 278.7 54.8 279.3 54.3 280ZM61.2 278.5C60.7333 278.633 60.2667 278.767 59.8 278.9C58.8 279.2 57.9 279.5 56.9 279.7C56.1 279.9 55.2667 280.067 54.4 280.2C54.4667 280.2 54.5333 280.2 54.6 280.2C55.0667 280.4 55.6 280.5 56.2 280.5C56.4667 280.5 56.7333 280.467 57 280.4C57.1 280.4 57.2 280.3 57.4 280.4C57.5 280.4 57.6 280.5 57.7 280.5C58.2 280.8 58.8 280.5 59.2 280.3C59.6667 279.967 60.0667 279.6 60.4 279.2C60.5333 279.133 60.6667 279.033 60.8 278.9C60.8 278.9 60.8 278.867 60.8 278.8C60.8667 278.733 60.9333 278.667 61 278.6C61.0667 278.533 61.1333 278.5 61.2 278.5ZM55.5 278.7C55.7 278.567 55.9 278.467 56.1 278.4C56.2333 278.333 56.3667 278.267 56.5 278.2C56.6333 278.2 56.7333 278.167 56.8 278.1C56.6667 278.1 56.5 278.1 56.3 278.1C56.0333 278.1 55.8 278.1 55.6 278.1C55.2667 278.1 54.9 278.1 54.5 278.1C54.7 278.167 54.8667 278.267 55 278.4C55.2 278.467 55.3667 278.567 55.5 278.7ZM55.4 281.6C55.8 281.467 56.2 281.333 56.6 281.2C56.8 281.067 57.0333 280.967 57.3 280.9C57.5 280.833 57.7 280.767 57.9 280.7C57.8333 280.7 57.8 280.7 57.8 280.7C57.7333 280.7 57.6667 280.667 57.6 280.6C57.5333 280.6 57.5 280.567 57.5 280.5C57.3 280.4 57.2 280.5 57 280.5C56.8667 280.567 56.7333 280.6 56.6 280.6C56.4667 280.6 56.3 280.6 56.1 280.6C55.9667 280.8 55.8 281 55.6 281.2C55.5333 281.333 55.4667 281.433 55.4 281.5C55.3333 281.5 55.3333 281.533 55.4 281.6ZM57.6 281.5C57.6667 281.3 57.7667 281.067 57.9 280.8C57.7 280.867 57.5 280.933 57.3 281C57.1 281.067 56.8667 281.167 56.6 281.3C56.2 281.433 55.8 281.533 55.4 281.6C55.4 281.667 55.4333 281.7 55.5 281.7C55.7 281.8 56 281.7 56.2 281.7C56.6667 281.7 57.1333 281.633 57.6 281.5ZM61 278.8C60.9333 278.867 60.9 278.9 60.9 278.9C60.6333 279.233 60.4 279.567 60.2 279.9C59.7333 280.433 59.2333 280.967 58.7 281.5C58.4333 281.767 58.1667 282.033 57.9 282.3C57.7667 282.433 57.6333 282.567 57.5 282.7C57.4333 282.767 57.3333 282.867 57.2 283C57.5333 282.8 57.8667 282.6 58.2 282.4C58.8 281.933 59.3667 281.433 59.9 280.9C60.1667 280.567 60.4333 280.267 60.7 280C60.9 279.6 61.1 279.2 61 278.8ZM57.3 282.8C57.3667 282.733 57.4333 282.633 57.5 282.5C57.6333 282.367 57.8 282.233 58 282.1C58.5 281.6 59 281.1 59.5 280.5C59.7667 280.167 60.0333 279.833 60.3 279.5C59.9 279.9 59.4 280.3 59 280.5C58.7 280.7 58.5 280.8 58.2 280.8C58.1333 280.8 58.1 280.8 58.1 280.8C57.7667 281.467 57.5 282.133 57.3 282.8ZM81.4 277.9C80.8 278.1 80.2 278.333 79.6 278.6C79 278.8 78.4 279.067 77.8 279.4C77.2 279.667 76.6 279.967 76 280.3C75.4 280.567 74.7667 280.833 74.1 281.1C73.8333 281.233 73.5333 281.367 73.2 281.5C73 281.567 72.7667 281.633 72.5 281.7C73.1667 281.7 73.8667 281.6 74.6 281.4C75.2667 281.267 75.9333 281.1 76.6 280.9C77.2 280.633 77.8333 280.333 78.5 280C79.1 279.667 79.6667 279.3 80.2 278.9C80.6 278.567 81 278.233 81.4 277.9ZM81.6 277.7C81 277.7 80.3667 277.767 79.7 277.9C79.0333 278.033 78.3667 278.233 77.7 278.5C77.0333 278.7 76.3667 278.967 75.7 279.3C75.1 279.633 74.5 280.033 73.9 280.5C73.4333 280.833 72.9667 281.2 72.5 281.6C73.1 281.4 73.7 281.167 74.3 280.9C74.9667 280.633 75.6 280.333 76.2 280C76.8 279.733 77.4 279.467 78 279.2C78.6 278.867 79.2 278.567 79.8 278.3C80.4 278.1 81 277.9 81.6 277.7ZM82.6 277.7C82.6 277.7 82.6333 277.7 82.7 277.7C82.7 277.7 82.6667 277.7 82.6 277.7ZM71.3 269.2C71.7667 269.467 72.2333 269.7 72.7 269.9C72.3 269.433 71.9 268.967 71.5 268.5C71.0333 268.033 70.5333 267.567 70 267.1C69.5333 266.633 69.0667 266.167 68.6 265.7C68.1333 265.233 67.6667 264.767 67.2 264.3C66.9333 264.033 66.7 263.767 66.5 263.5C66.3 263.3 66.1333 263.1 66 262.9C66.2667 263.567 66.6 264.2 67 264.8C67.3333 265.4 67.7333 265.967 68.2 266.5C68.6667 267.033 69.1667 267.5 69.7 267.9C70.2333 268.367 70.7667 268.8 71.3 269.2ZM66.1 262.9C66.5 263.433 66.9333 263.933 67.4 264.4C67.8667 264.867 68.3667 265.333 68.9 265.8C69.3667 266.267 69.8333 266.733 70.3 267.2C70.7667 267.667 71.2333 268.133 71.7 268.6C72.1667 269.067 72.5667 269.567 72.9 270.1C72.9 270.1 72.9333 270.1 73 270.1C72.7333 269.5 72.4333 268.933 72.1 268.4C71.7 267.8 71.2667 267.233 70.8 266.7C70.4 266.167 69.9333 265.633 69.4 265.1C68.8667 264.633 68.3 264.2 67.7 263.8C67.1667 263.467 66.6333 263.167 66.1 262.9Z" fill="#64EBB6"/>
<path fill-rule="evenodd" clip-rule="evenodd" d="M110.099 284.1C110.699 284.5 111.232 284.933 111.699 285.4C112.799 286.4 113.499 287.6 114.099 288.9C114.366 289.567 114.599 290.233 114.799 290.9C114.799 291.1 114.832 291.3 114.899 291.5C114.966 291.633 114.999 291.8 114.999 292C114.999 292.133 114.932 292.267 114.799 292.4C114.666 292.467 114.499 292.533 114.299 292.6C112.899 293.3 111.399 294 109.999 294.5C108.499 294.9 106.999 295.2 105.499 295.1C104.299 295 102.999 294.7 102.099 293.8C101.699 293.3 101.399 292.8 101.299 292.2C101.232 291.8 101.266 291.433 101.399 291.1C101.532 290.767 101.732 290.467 101.999 290.2C102.699 289.3 103.699 288.8 104.799 288.6C104.732 288.4 104.666 288.2 104.599 288C104.299 287.4 104.199 286.8 104.299 286.1C104.299 285.5 104.499 284.8 104.999 284.2C105.799 283.3 107.099 283.1 108.299 283.4C108.899 283.5 109.499 283.8 110.099 284.1ZM109.099 291.3C108.566 291.3 107.899 291.2 107.099 291C106.966 290.933 106.832 290.9 106.699 290.9C106.499 290.833 106.366 290.8 106.299 290.8C106.166 290.733 106.032 290.7 105.899 290.7C105.766 290.7 105.699 290.767 105.699 290.9C105.632 290.967 105.632 291 105.699 291C106.232 291.267 106.966 291.733 107.899 292.4C107.699 292.467 107.466 292.467 107.199 292.4C106.999 292.4 106.799 292.4 106.599 292.4C106.466 292.333 106.266 292.3 105.999 292.3C105.732 292.233 105.566 292.2 105.499 292.2C105.432 292.2 105.366 292.267 105.299 292.4C105.299 292.467 105.332 292.5 105.399 292.5C105.466 292.567 105.499 292.6 105.499 292.6C106.099 292.867 106.532 293.1 106.799 293.3C107.466 293.7 107.866 293.933 107.999 294C108.132 294.133 108.232 294.2 108.299 294.2C108.366 294.267 108.432 294.233 108.499 294.1C108.632 294.033 108.666 293.967 108.599 293.9C108.266 293.633 107.766 293.3 107.099 292.9C107.166 292.9 107.332 292.9 107.599 292.9C107.866 292.9 108.032 292.9 108.099 292.9C108.299 292.833 108.466 292.7 108.599 292.5C108.599 292.433 108.566 292.367 108.499 292.3C108.432 292.233 108.332 292.167 108.199 292.1C107.866 291.9 107.632 291.733 107.499 291.6C107.632 291.6 107.832 291.633 108.099 291.7C108.299 291.767 108.466 291.8 108.599 291.8C108.799 291.8 108.932 291.767 108.999 291.7C109.066 291.633 109.132 291.567 109.199 291.5C109.199 291.367 109.166 291.3 109.099 291.3ZM108.199 288.7C107.999 288.633 107.766 288.633 107.499 288.7C107.299 288.7 107.166 288.8 107.099 289C106.966 289.2 106.866 289.3 106.799 289.3C106.732 289.367 106.699 289.433 106.699 289.5C106.632 289.567 106.632 289.7 106.699 289.9C106.766 290.033 106.866 290.133 106.999 290.2C107.266 290.467 107.532 290.633 107.799 290.7C108.066 290.767 108.299 290.767 108.499 290.7C108.766 290.5 108.932 290.3 108.999 290.1C108.999 290.1 108.999 290.067 108.999 290C109.066 289.6 108.866 289.2 108.399 288.8C108.332 288.733 108.266 288.7 108.199 288.7ZM110.599 286.2C109.999 286.2 109.332 286.1 108.599 285.9C108.466 285.833 108.332 285.8 108.199 285.8C107.999 285.733 107.866 285.7 107.799 285.7C107.666 285.633 107.532 285.6 107.399 285.6C107.266 285.533 107.199 285.567 107.199 285.7C107.132 285.833 107.132 285.9 107.199 285.9C107.732 286.167 108.432 286.633 109.299 287.3C109.166 287.367 108.966 287.367 108.699 287.3C108.499 287.3 108.266 287.3 107.999 287.3C107.932 287.233 107.766 287.167 107.499 287.1C107.232 287.1 107.066 287.1 106.999 287.1C106.932 287.1 106.866 287.167 106.799 287.3C106.799 287.367 106.832 287.4 106.899 287.4C106.966 287.467 106.999 287.5 106.999 287.5C107.599 287.767 108.032 287.967 108.299 288.1C108.966 288.567 109.332 288.833 109.399 288.9C109.599 289.033 109.732 289.1 109.799 289.1C109.866 289.167 109.932 289.133 109.999 289C110.132 288.933 110.166 288.867 110.099 288.8C109.766 288.533 109.232 288.2 108.499 287.8C108.632 287.8 108.832 287.8 109.099 287.8C109.299 287.8 109.466 287.8 109.599 287.8C109.799 287.733 109.932 287.6 109.999 287.4C110.066 287.333 110.032 287.267 109.899 287.2C109.899 287.133 109.832 287.067 109.699 287C109.366 286.733 109.132 286.567 108.999 286.5C109.132 286.5 109.332 286.533 109.599 286.6C109.799 286.667 109.966 286.7 110.099 286.7C110.299 286.7 110.432 286.667 110.499 286.6C110.566 286.533 110.632 286.467 110.699 286.4C110.699 286.267 110.666 286.2 110.599 286.2Z" fill="#64EBB6"/>
<path d="M107.398 289.2C107.398 289.267 107.398 289.3 107.398 289.3C107.398 289.3 107.432 289.367 107.498 289.5C107.565 289.567 107.598 289.633 107.598 289.7C107.598 289.7 107.565 289.733 107.498 289.8C107.432 289.8 107.398 289.833 107.398 289.9C107.465 290.033 107.632 290.133 107.898 290.2C108.032 290.267 108.165 290.267 108.298 290.2C108.498 290.2 108.598 290.167 108.598 290.1C108.665 289.9 108.598 289.7 108.398 289.5C108.265 289.3 108.132 289.2 107.998 289.2C107.665 289.133 107.465 289.133 107.398 289.2Z" fill="#64EBB6"/>
<path d="M74.3937 143.2C108.394 155.6 72.2937 218.3 72.2937 218.3L28.5938 204.6C28.5938 204.6 29.8937 127.1 74.3937 143.2Z" fill="#64EBB6"/>
<path d="M74.3937 143.2C108.394 155.6 72.2937 218.3 72.2937 218.3L28.5938 204.6" stroke="#371116" stroke-width="2" stroke-linecap="round" stroke-linejoin="round"/>
<path d="M135.397 9.49993C118.297 0.899925 96.8972 5.69994 84.9972 20.6999C73.8972 34.4999 73.3972 52.8999 81.4972 66.9999C82.0305 68.3333 82.6638 69.6666 83.3972 70.9999C58.2972 141.8 112.597 146.3 112.597 146.3C106.097 140.1 93.6972 125.9 92.8972 122.1C91.5972 116.1 95.4972 104.3 97.8972 97.7999L100.897 91.1999C110.197 98.4999 119.897 103 125.797 105.3C129.097 106.5 132.797 105.4 134.897 102.6C138.397 97.8999 156.997 58.8999 157.597 53.8999C160.797 36.5999 152.697 18.1999 135.397 9.49993Z" fill="#FFB4BA"/>
<path d="M137.494 7.59991C121.094 -4.10009 87.7937 8.19991 75.8937 23.0999C75.5937 23.4999 55.5938 128.6 55.5938 128.6C55.5938 128.6 74.7937 126.3 77.2937 122C79.7937 117.7 121.294 23.9999 121.294 23.9999C130.694 46.1999 143.494 58.6999 154.294 65.5999C155.794 60.9999 159.094 54.8999 159.494 51.3999C162.694 34.0999 153.294 18.8999 137.494 7.59991Z" fill="#371116"/>
<path d="M88.7969 54.4001C88.7969 47.9001 94.0969 42.6001 100.597 42.6001C107.097 42.6001 112.397 47.9001 112.397 54.4001C112.397 60.9001 107.097 66.2001 100.597 66.2001C94.0969 66.2001 88.7969 60.9001 88.7969 54.4001Z" fill="#FFB4BA"/>
<path d="M100.9 61.1998C100.5 60.6665 100.1 60.1332 99.7001 59.5998C101.3 55.4998 101.5 50.8998 99.7001 46.7998C99.6001 46.6998 99.3001 46.6998 99.3001 46.8998C100.3 50.7998 100.3 54.7998 99.1001 58.5998C98.2001 57.1998 97.4001 55.5998 97.1001 53.7998C96.5001 50.7998 97.0001 47.5998 98.1001 44.7998C98.2001 44.5998 97.9001 44.4998 97.8001 44.6998C96.2001 47.3998 95.7001 50.5998 96.3001 53.7998C96.8001 56.6998 98.1001 59.6998 100.4 61.5998C100.6 61.7998 101.2 61.5998 100.9 61.1998Z" fill="#371116"/>
<path d="M136.49 100.7C136.49 100.7 128.39 99.5997 129.59 90.6997" stroke="#371116" stroke-width="1.5" stroke-linecap="round" stroke-linejoin="round"/>
<path d="M149.592 70.1997L144.292 94.3997C144.292 94.3997 137.492 94.0997 137.892 90.0997L149.592 70.1997Z" fill="#FE7880"/>
<path d="M119.699 24C118.399 29 118.099 34.3 116.999 39.4C115.899 44.5 114.299 49.6 111.799 54.2C109.299 58.8 105.799 62.7 102.399 66.6C98.8994 70.6 95.4994 74.6 92.2994 78.8C86.0994 87.1 80.6994 96.1 77.0994 105.9C73.3994 116 71.1994 126.9 65.7994 136.3C60.1994 146 50.1994 154.3 38.3994 152.5C37.9994 152.4 37.6994 153 38.1994 153.1C47.9994 155.2 57.4994 149.8 63.4994 142.4C70.2994 133.9 73.2994 123.2 76.4994 113.1C78.1994 107.7 80.0994 102.5 82.5994 97.4C84.9994 92.5 87.8994 87.9 90.9994 83.4C93.9994 79 97.3994 74.8 100.899 70.7C104.499 66.5 108.299 62.6 111.399 58C114.599 53 116.799 47.4 118.099 41.7C118.766 38.9 119.299 36.0667 119.699 33.2C120.099 30.2 120.499 27.1 120.399 24.1C120.399 23.7 119.799 23.7 119.699 24Z" fill="#490B14"/>
</svg>
