<svg width="209" height="449" viewBox="0 0 209 449" fill="none" xmlns="http://www.w3.org/2000/svg">
<path fill-rule="evenodd" clip-rule="evenodd" d="M5.09746 393.4C3.79746 389.8 2.79746 386.2 1.99746 382.5C-1.20254 366.4 1.49746 350.2 4.99746 334.4C8.79746 317 12.9975 299.8 11.5975 281.9C10.1975 263.4 5.79744 245.3 4.29744 226.9C2.99744 209.4 3.69746 191.6 9.09746 174.8C13.5975 161.2 20.6974 148.7 28.3974 136.6C37.9975 121.5 48.9975 106.5 56.8975 90.1999C64.4975 48.8999 68.0974 3.69987 106.097 0.999866C137.497 -1.10013 154.897 11.9999 164.597 26.0999C166.397 28.4332 168.031 30.8665 169.497 33.3999C176.897 45.6999 180.897 59.5998 182.597 73.7999C184.597 91.1999 183.297 108.8 181.797 126.2C180.297 144.2 178.897 162.2 177.997 180.2C177.131 197.8 176.531 215.4 176.197 233C187.797 265 202.397 296.7 206.797 330.8C208.997 347.6 208.497 364.9 202.897 381C201.897 383.8 200.697 386.6 199.397 389.3C172.497 426.6 138.197 449 100.697 449C64.6975 449 31.4975 428.3 5.09746 393.4ZM172.397 41.9999C175.197 50.4999 176.197 59.5999 175.397 68.6999C175.397 68.6999 171.897 212.8 175.697 231.1C175.631 229.967 175.597 228.867 175.597 227.8C175.297 209.9 175.797 192.1 176.797 174.3C177.697 156.6 179.197 139 180.697 121.4C182.097 104.2 182.997 86.6999 180.497 69.4999C179.097 59.9999 176.397 50.6999 172.397 41.9999Z" fill="#371116"/>
<path d="M145.3 238.2L145.8 223.6C167.3 215.6 163.5 197.7 162.6 196.5C151.9 183.8 102.2 134.9 83.0002 120.4C81.6668 119.4 80.3668 118.6 79.1001 118C77.7001 122.9 69.9002 144.6 44.0002 151C40.8002 159.8 37.9001 171.2 37.8001 183.9C37.6001 198.1 55.0001 286.2 57.3001 297.8C47.6001 314.4 29.3002 348.2 31.1002 363.1C32.7002 377.1 35.7001 405.8 37.8001 426.6C57.0001 441 78.3002 449 100.7 449C117.2 449 133.1 444.7 148 436.7L144.2 325C152.5 314.6 157.8 299.9 157.8 283.6C157.8 269.9 154.1 257.4 147.9 247.5C146.1 244.7 145.2 241.5 145.3 238.2Z" fill="#42A5F5"/>
<path d="M153.797 297.1C151.797 296.3 149.797 295.5 147.697 294.7C149.397 294.9 150.997 295 152.597 295.1C154.797 295.2 159.597 295.8 159.697 294.7C159.997 292.4 144.297 288.1 140.897 286.9C142.564 285.234 144.264 283.567 145.997 281.9C146.397 281.4 147.597 280.6 146.797 279.8C146.197 279.2 145.097 279.6 144.397 279.9C143.197 280.3 142.197 280.9 141.097 281.5C140.031 282.1 138.964 282.667 137.897 283.2C135.697 284.267 133.431 285.267 131.097 286.2C129.997 286.6 124.897 287.6 123.197 288.3L49.3972 252.6L66.7972 202.2L30.2972 203.4C30.2972 203.4 13.1972 264.3 18.1972 274.1C23.2972 284 122.897 300.3 122.897 300.3C126.564 301.767 130.231 303.167 133.897 304.5C136.297 305.3 138.664 306.1 140.997 306.9C142.197 307.3 143.397 307.7 144.597 308.1C145.697 308.5 146.997 308.9 148.097 309.4C148.197 309.4 148.397 309.4 148.397 309.3C148.497 308 147.697 307.1 146.897 306.2C145.831 305.134 144.731 304.034 143.597 302.9C147.897 303.4 155.797 306.8 156.497 305.4C156.997 304.2 153.097 302.4 152.097 301.9C150.697 301.1 149.264 300.333 147.797 299.6C149.997 300.2 152.197 300.734 154.397 301.2C155.797 301.5 157.197 301.8 158.597 301.9C159.697 302 161.797 301.4 161.497 300.4C161.097 298.8 156.397 298.2 153.797 297.1Z" fill="#FFB4BA"/>
<path fill-rule="evenodd" clip-rule="evenodd" d="M65.9007 262.7C66.034 262.7 66.134 262.733 66.2007 262.8C66.8007 263.133 67.4007 263.5 68.0007 263.9C68.6007 264.3 69.1674 264.733 69.7007 265.2C70.234 265.733 70.734 266.267 71.2007 266.8C71.6007 267.4 72.0007 268 72.4007 268.6C72.6674 269.067 72.934 269.6 73.2007 270.2V270.3C73.2007 270.4 73.1007 270.3 73.1007 270.3C73.1007 270.3 73.1007 270.3 73.0007 270.3C74.734 271.3 76.4007 272.4 78.0007 273.6C79.6007 274.9 81.2007 276.2 82.7007 277.6C84.834 277.8 86.934 278.067 89.0007 278.4C91.3007 278.7 93.6007 279.1 95.8007 279.7C95.9007 279.7 95.8007 279.8 95.8007 279.8C95.534 279.733 95.234 279.667 94.9007 279.6C92.7007 279.133 90.434 278.733 88.1007 278.4C86.3673 278.133 84.634 277.9 82.9007 277.7C82.9674 277.767 83.034 277.833 83.1007 277.9C84.634 278.5 86.134 279.133 87.6007 279.8C90.4673 281.067 93.2673 282.5 96.0007 284.1C96.0007 284.1 96.0007 284.2 95.9007 284.2C95.5674 284 95.234 283.8 94.9007 283.6C92.1007 282.1 89.3007 280.7 86.4007 279.4C85.4007 279 84.4007 278.6 83.4007 278.2C84.0007 278.667 84.5673 279.167 85.1007 279.7C87.4007 281.7 89.5007 283.7 91.6007 285.9C93.6007 288.1 95.6007 290.4 97.2007 292.9C97.2007 293 97.3007 292.9 97.2007 292.9C96.934 292.633 96.7007 292.333 96.5007 292C94.8007 289.6 92.8007 287.4 90.8007 285.3C88.7007 283.1 86.5007 281.1 84.2007 279.1C83.8007 278.767 83.4007 278.4 83.0007 278C82.734 277.867 82.434 277.767 82.1007 277.7C82.034 277.633 81.9674 277.6 81.9007 277.6C81.834 277.667 81.8007 277.7 81.8007 277.7L81.7007 277.8C81.1674 278.333 80.634 278.8 80.1007 279.2C79.5007 279.6 78.9007 279.967 78.3007 280.3C77.7007 280.633 77.0674 280.9 76.4007 281.1C75.734 281.3 75.0674 281.467 74.4007 281.6C73.6674 281.733 72.9673 281.833 72.3007 281.9C72.2007 281.9 72.2007 281.8 72.2007 281.7C72.2674 281.633 72.334 281.6 72.4007 281.6C72.934 281.067 73.5007 280.6 74.1007 280.2C74.7007 279.8 75.334 279.433 76.0007 279.1C76.6007 278.767 77.234 278.5 77.9007 278.3C78.634 278.033 79.334 277.833 80.0007 277.7C80.4007 277.633 80.8007 277.6 81.2007 277.6C78.8674 277.4 76.5673 277.333 74.3007 277.4C71.9673 277.4 69.6674 277.5 67.4007 277.7C65.4007 277.9 63.4007 278.133 61.4007 278.4C61.4007 278.4 61.4007 278.433 61.4007 278.5C61.334 278.5 61.2674 278.533 61.2007 278.6C61.134 278.667 61.0674 278.733 61.0007 278.8C61.2007 279.3 61.0007 279.7 60.7007 280.1C60.5007 280.433 60.2673 280.733 60.0007 281C59.734 281.267 59.434 281.533 59.1007 281.8C58.5007 282.333 57.8674 282.8 57.2007 283.2C57.1007 283.2 57.1007 283.1 57.1007 283.1C57.234 282.633 57.4007 282.167 57.6007 281.7C57.2673 281.7 56.9674 281.733 56.7007 281.8C56.434 281.8 56.1674 281.833 55.9007 281.9C55.834 281.9 55.734 281.867 55.6007 281.8C55.5007 281.8 55.4007 281.8 55.3007 281.7C55.3007 281.6 55.3007 281.5 55.3007 281.4C55.434 281.333 55.534 281.233 55.6007 281.1C55.734 280.967 55.8673 280.8 56.0007 280.6C56.0007 280.667 55.9674 280.7 55.9007 280.7C55.9007 280.7 55.8673 280.733 55.8007 280.8C55.734 280.8 55.6673 280.8 55.6007 280.8C55.4673 280.867 55.3673 280.9 55.3007 280.9C54.9007 281.033 54.5007 281.133 54.1007 281.2C53.7673 281.267 53.434 281.333 53.1007 281.4C53.1007 281.467 53.1007 281.5 53.1007 281.5C53.1007 281.567 53.0673 281.633 53.0007 281.7C53.0007 281.7 53.0007 281.733 53.0007 281.8C52.934 281.8 52.9007 281.8 52.9007 281.8C52.834 281.8 52.7674 281.8 52.7007 281.8C52.634 281.8 52.6007 281.767 52.6007 281.7C52.534 281.633 52.5007 281.567 52.5007 281.5C52.5007 281.433 52.534 281.4 52.6007 281.4C52.6673 281.333 52.734 281.3 52.8007 281.3C52.8673 281.3 52.934 281.3 53.0007 281.3C53.0007 281.3 53.0007 281.333 53.0007 281.4C53.2007 281.333 53.3673 281.267 53.5007 281.2C53.9007 281.133 54.3007 281.033 54.7007 280.9C54.9007 280.9 55.1007 280.867 55.3007 280.8C55.434 280.733 55.534 280.7 55.6007 280.7C55.6673 280.633 55.734 280.6 55.8007 280.6C55.2673 280.533 54.7673 280.4 54.3007 280.2C54.234 280.2 54.1673 280.2 54.1007 280.2V280.1C54.1673 279.967 54.234 279.867 54.3007 279.8C54.634 279.4 55.034 279.067 55.5007 278.8C55.434 278.8 55.3673 278.8 55.3007 278.8C55.234 278.8 55.1673 278.8 55.1007 278.8C54.9673 278.8 54.8673 278.833 54.8007 278.9C54.534 278.967 54.2673 279.033 54.0007 279.1C53.534 279.233 53.0673 279.333 52.6007 279.4C52.6007 279.467 52.5673 279.533 52.5007 279.6C52.434 279.667 52.3673 279.7 52.3007 279.7C52.2007 279.8 52.0007 279.7 52.0007 279.6C51.934 279.533 51.934 279.467 52.0007 279.4C52.0007 279.333 52.034 279.3 52.1007 279.3C52.234 279.233 52.334 279.233 52.4007 279.3C52.4674 279.3 52.5007 279.333 52.5007 279.4C52.7007 279.333 52.934 279.267 53.2007 279.2C53.6007 279.067 54.0007 278.967 54.4007 278.9C54.534 278.833 54.7007 278.767 54.9007 278.7C55.034 278.7 55.134 278.7 55.2007 278.7C55.2674 278.7 55.334 278.7 55.4007 278.7C55.2007 278.567 55.0007 278.467 54.8007 278.4C54.734 278.333 54.634 278.267 54.5007 278.2C54.4007 278.2 54.4007 278.1 54.3007 278.1V278C54.4007 277.9 54.5007 277.9 54.6007 277.8C54.6673 277.8 54.734 277.767 54.8007 277.7C55.0673 277.633 55.3007 277.567 55.5007 277.5C55.5674 277.5 55.6673 277.467 55.8007 277.4C55.8673 277.4 55.9007 277.4 55.9007 277.4C55.5674 277.2 55.2007 277 54.8007 276.8C54.7007 276.8 54.8007 276.7 54.8007 276.7C55.3007 276.5 55.9007 276.2 56.4007 276.1C56.8674 275.967 57.3674 275.9 57.9007 275.9C58.3674 275.967 58.8007 276.1 59.2007 276.3C60.0007 276.7 60.7007 277.3 61.2007 278C61.2674 278 61.3007 278.033 61.3007 278.1C61.3673 278.1 61.434 278.133 61.5007 278.2C61.5007 278.2 61.5007 278.233 61.5007 278.3C63.7673 277.9 66.034 277.633 68.3007 277.5C70.634 277.3 72.934 277.2 75.2007 277.2C77.334 277.2 79.4673 277.3 81.6007 277.5C80.2673 276.967 78.9007 276.5 77.5007 276.1C74.5007 275.1 71.4674 274.267 68.4007 273.6C65.334 272.933 62.234 272.433 59.1007 272.1C58.7007 272.033 58.334 271.967 58.0007 271.9C57.934 271.967 57.8673 272 57.8007 272C57.8007 272 57.7674 272 57.7007 272C57.7007 272.1 57.6007 272.1 57.6007 272.1C57.6007 272.167 57.6007 272.2 57.6007 272.2C57.0673 272.667 56.534 273.1 56.0007 273.5C55.4007 273.9 54.8007 274.267 54.2007 274.6C53.534 274.933 52.9007 275.2 52.3007 275.4C51.634 275.667 50.934 275.867 50.2007 276C49.534 276.133 48.834 276.2 48.1007 276.2V276.1C48.1673 276.033 48.234 275.967 48.3007 275.9C48.834 275.367 49.4007 274.9 50.0007 274.5C50.6007 274.1 51.2007 273.733 51.8007 273.4C52.4673 273.133 53.134 272.867 53.8007 272.6C54.4673 272.4 55.1674 272.233 55.9007 272.1C56.434 271.967 56.934 271.9 57.4007 271.9C56.4007 271.767 55.3673 271.667 54.3007 271.6C54.234 271.6 54.2007 271.6 54.2007 271.6C53.0674 271.533 51.934 271.5 50.8007 271.5H50.7007C50.634 271.5 50.6007 271.5 50.6007 271.5C49.934 271.9 49.234 272.233 48.5007 272.5C47.7673 272.7 47.0007 272.867 46.2007 273C45.4007 273.133 44.634 273.233 43.9007 273.3C43.1007 273.3 42.3007 273.267 41.5007 273.2C40.7673 273.067 40.0007 272.9 39.2007 272.7C39.1007 272.7 39.2007 272.6 39.2007 272.6C39.334 272.533 39.434 272.467 39.5007 272.4C40.234 272.067 40.9674 271.767 41.7007 271.5C42.5007 271.3 43.3007 271.133 44.1007 271C44.9007 270.867 45.7007 270.8 46.5007 270.8C47.3007 270.8 48.1007 270.833 48.9007 270.9C49.5007 270.967 50.134 271.1 50.8007 271.3C50.8007 271.3 51.0007 271.3 50.9007 271.3C51.034 271.367 51.134 271.4 51.2007 271.4C52.0674 271.4 52.9007 271.433 53.7007 271.5C53.1007 271.3 52.534 271.067 52.0007 270.8C51.334 270.467 50.7007 270.1 50.1007 269.7C49.5673 269.3 49.034 268.867 48.5007 268.4C47.9673 267.933 47.5007 267.4 47.1007 266.8C46.634 266.267 46.234 265.7 45.9007 265.1C45.9007 265 46.0007 265 46.0007 265C46.0673 265.067 46.1673 265.1 46.3007 265.1C46.9673 265.367 47.634 265.633 48.3007 265.9C48.9007 266.233 49.5007 266.633 50.1007 267.1C50.7007 267.5 51.234 267.933 51.7007 268.4C52.234 268.933 52.734 269.467 53.2007 270C53.534 270.467 53.8674 270.967 54.2007 271.5C56.2007 271.633 58.2007 271.833 60.2007 272.1C63.2674 272.433 66.3007 272.967 69.3007 273.7C68.7007 273.5 68.1007 273.233 67.5007 272.9C66.9007 272.633 66.3007 272.3 65.7007 271.9C65.1674 271.5 64.634 271.067 64.1007 270.6C63.5673 270.067 63.1007 269.533 62.7007 269C62.234 268.467 61.834 267.9 61.5007 267.3C61.5007 267.2 61.5007 267.2 61.6007 267.2C61.6673 267.2 61.734 267.233 61.8007 267.3C62.534 267.5 63.2007 267.767 63.8007 268.1C64.4673 268.433 65.1007 268.8 65.7007 269.2C66.234 269.667 66.7673 270.133 67.3007 270.6C67.834 271.133 68.334 271.667 68.8007 272.2C69.134 272.667 69.434 273.133 69.7007 273.6C69.8007 273.6 69.8007 273.8 69.8007 273.8C72.8007 274.467 75.7674 275.3 78.7007 276.3C79.834 276.7 80.9673 277.1 82.1007 277.5C82.234 277.5 82.3673 277.533 82.5007 277.6C80.7007 276 78.9007 274.5 77.0007 273.1C74.534 271.3 71.934 269.7 69.2007 268.3C66.534 267.033 63.834 265.933 61.1007 265C61.1007 265 61.0674 265 61.0007 265C61.0007 265.067 60.9674 265.1 60.9007 265.1C60.834 265.1 60.7674 265.1 60.7007 265.1C60.634 265.167 60.5674 265.2 60.5007 265.2C60.4007 265.7 60.0007 266 59.7007 266.2C59.3007 266.4 58.934 266.567 58.6007 266.7C58.2007 266.9 57.8007 267.033 57.4007 267.1C56.6674 267.3 55.9007 267.433 55.1007 267.5C55.0007 267.5 55.0007 267.4 55.1007 267.3C55.3673 266.967 55.7007 266.633 56.1007 266.3C55.834 266.233 55.5673 266.133 55.3007 266C55.034 265.933 54.8007 265.867 54.6007 265.8C54.4673 265.733 54.3673 265.667 54.3007 265.6C54.2007 265.5 54.1007 265.4 54.1007 265.3C54.0007 265.2 54.1007 265.1 54.2007 265.1C54.334 265.033 54.4673 264.967 54.6007 264.9C54.8007 264.833 55.0007 264.767 55.2007 264.7C55.2007 264.7 55.1673 264.667 55.1007 264.6C55.1007 264.667 55.1007 264.7 55.1007 264.7C55.034 264.7 54.9674 264.7 54.9007 264.7C54.834 264.7 54.7674 264.7 54.7007 264.7C54.5674 264.633 54.4674 264.6 54.4007 264.6C54.0007 264.533 53.6007 264.467 53.2007 264.4C52.8674 264.267 52.534 264.167 52.2007 264.1C52.2007 264.1 52.2007 264.133 52.2007 264.2C52.134 264.267 52.0673 264.3 52.0007 264.3C52.0007 264.3 51.9674 264.3 51.9007 264.3C51.9007 264.367 51.8673 264.367 51.8007 264.3C51.8007 264.3 51.7674 264.3 51.7007 264.3C51.634 264.233 51.6007 264.2 51.6007 264.2C51.6007 264.067 51.6007 264 51.6007 264C51.6673 263.933 51.734 263.867 51.8007 263.8C51.8673 263.8 51.934 263.833 52.0007 263.9C52.0673 263.9 52.1007 263.933 52.1007 264C52.1007 264 52.134 264 52.2007 264C52.334 264.067 52.5007 264.1 52.7007 264.1C53.1007 264.233 53.5007 264.333 53.9007 264.4C54.1007 264.4 54.3007 264.433 54.5007 264.5C54.5673 264.5 54.6673 264.5 54.8007 264.5C54.8673 264.567 54.934 264.6 55.0007 264.6C54.534 264.333 54.134 263.967 53.8007 263.5C53.734 263.5 53.7007 263.5 53.7007 263.5C53.6007 263.4 53.6007 263.3 53.7007 263.3C53.834 263.233 53.934 263.2 54.0007 263.2C54.4673 263 54.9673 262.867 55.5007 262.8C55.434 262.733 55.3673 262.7 55.3007 262.7C55.3007 262.7 55.2674 262.7 55.2007 262.7C55.0674 262.633 54.934 262.6 54.8007 262.6C54.534 262.533 54.2673 262.467 54.0007 262.4C53.534 262.333 53.0673 262.233 52.6007 262.1C52.534 262.167 52.4674 262.2 52.4007 262.2C52.4007 262.267 52.334 262.267 52.2007 262.2C52.1007 262.2 52.0007 262.1 52.0007 262C52.0007 261.933 52.034 261.867 52.1007 261.8C52.1673 261.733 52.234 261.7 52.3007 261.7C52.3673 261.7 52.4673 261.767 52.6007 261.9C52.6007 261.9 52.6007 261.933 52.6007 262C52.8007 262.067 53.0007 262.1 53.2007 262.1C53.6007 262.167 54.0007 262.267 54.4007 262.4C54.6007 262.4 54.8007 262.433 55.0007 262.5C55.134 262.5 55.234 262.533 55.3007 262.6C55.3673 262.6 55.4007 262.6 55.4007 262.6C55.334 262.467 55.234 262.3 55.1007 262.1C55.034 262.033 54.9674 261.933 54.9007 261.8C54.8007 261.8 54.8007 261.7 54.8007 261.6C54.9007 261.5 55.0007 261.5 55.1007 261.5C55.1673 261.5 55.2674 261.5 55.4007 261.5C55.6007 261.567 55.8007 261.6 56.0007 261.6C56.134 261.667 56.2674 261.7 56.4007 261.7C56.4007 261.7 56.434 261.7 56.5007 261.7C56.234 261.367 55.9674 261.033 55.7007 260.7C55.7007 260.7 55.7007 260.6 55.8007 260.6C56.4007 260.6 56.9007 260.7 57.5007 260.8C57.9674 260.867 58.434 261.033 58.9007 261.3C59.3007 261.5 59.634 261.8 59.9007 262.2C60.5007 262.9 60.9007 263.7 61.0007 264.6C61.0007 264.667 61.034 264.7 61.1007 264.7C61.1007 264.767 61.1007 264.833 61.1007 264.9C61.1007 264.9 61.1007 264.933 61.1007 265C61.3007 265 61.5007 265.033 61.7007 265.1C64.6007 266.1 67.5007 267.3 70.2007 268.7C70.4674 268.833 70.734 268.967 71.0007 269.1C70.4674 268.767 69.934 268.367 69.4007 267.9C68.8674 267.433 68.4007 266.9 68.0007 266.3C67.534 265.767 67.134 265.2 66.8007 264.6C66.4007 264 66.0673 263.367 65.8007 262.7C65.8007 262.7 65.9007 262.6 65.9007 262.7ZM57.3007 261.3C58.1007 261.7 58.9007 262.2 59.5007 262.8C59.834 263.067 60.134 263.367 60.4007 263.7C60.534 263.9 60.6673 264.1 60.8007 264.3C60.734 263.967 60.6007 263.6 60.4007 263.2C60.0007 262.4 59.4007 261.7 58.7007 261.3C57.9007 260.9 57.0007 260.8 56.1007 260.8C56.5007 260.933 56.9007 261.1 57.3007 261.3ZM57.1007 262.2C57.234 262.4 57.3673 262.533 57.5007 262.6C57.634 262.6 57.734 262.6 57.8007 262.6C58.1007 262.7 58.4007 262.8 58.6007 262.9C59.134 263.1 59.634 263.4 60.1007 263.8C60.234 263.867 60.3673 263.967 60.5007 264.1C60.434 263.967 60.334 263.8 60.2007 263.6C59.6007 263 59.0007 262.4 58.3007 262C57.9007 261.733 57.4674 261.5 57.0007 261.3C56.6673 261.167 56.3007 261 55.9007 260.8C56.1674 261.133 56.434 261.433 56.7007 261.7C56.834 261.9 56.9673 262.067 57.1007 262.2ZM56.0007 262.1C56.2007 262.233 56.4007 262.333 56.6007 262.4C56.8007 262.467 57.0007 262.567 57.2007 262.7C57.2674 262.7 57.334 262.7 57.4007 262.7C57.2674 262.633 57.134 262.533 57.0007 262.4C56.8673 262.267 56.734 262.1 56.6007 261.9C56.4673 261.9 56.3673 261.867 56.3007 261.8C56.1673 261.8 56.0674 261.767 56.0007 261.7C55.8007 261.7 55.6007 261.7 55.4007 261.7C55.334 261.633 55.234 261.6 55.1007 261.6C55.034 261.6 55.0007 261.6 55.0007 261.6C55.0007 261.6 54.9674 261.6 54.9007 261.6C55.3007 261.8 55.6673 261.967 56.0007 262.1ZM55.6007 262.7C55.8007 262.7 56.034 262.7 56.3007 262.7C56.434 262.7 56.5674 262.7 56.7007 262.7C56.834 262.767 56.9673 262.767 57.1007 262.7C56.9007 262.633 56.7007 262.567 56.5007 262.5C56.3007 262.433 56.1007 262.367 55.9007 262.3C55.5674 262.1 55.2673 261.933 55.0007 261.8C55.0673 261.933 55.1673 262.067 55.3007 262.2C55.434 262.4 55.534 262.567 55.6007 262.7ZM60.6007 264.8C60.6007 264.8 60.634 264.8 60.7007 264.8C60.7674 264.8 60.8673 264.833 61.0007 264.9C61.0007 264.833 61.0007 264.8 61.0007 264.8C60.934 264.867 60.9007 264.867 60.9007 264.8C60.9007 264.733 60.8673 264.667 60.8007 264.6C60.4673 264.2 60.0673 263.867 59.6007 263.6C59.1007 263.3 58.6007 263 58.1007 262.8C57.9007 262.7 57.6007 262.7 57.4007 262.8C57.2674 262.867 57.134 262.9 57.0007 262.9C56.8673 262.9 56.734 262.9 56.6007 262.9C55.7007 262.8 54.7007 263 53.9007 263.4C54.3674 263.533 54.834 263.667 55.3007 263.8C56.2007 264.1 57.2007 264.3 58.1007 264.4C58.9007 264.533 59.734 264.667 60.6007 264.8ZM60.8007 265C60.2673 264.933 59.7673 264.867 59.3007 264.8C58.4007 264.6 57.4007 264.5 56.4007 264.3C55.6007 264.1 54.8007 263.867 54.0007 263.6C54.0007 263.6 54.034 263.633 54.1007 263.7C54.434 264.1 54.8674 264.4 55.4007 264.6C55.6674 264.733 55.934 264.833 56.2007 264.9C56.3007 264.9 56.4007 265 56.5007 265C56.6007 265.1 56.7007 265.2 56.7007 265.3C57.1007 265.8 57.7007 265.8 58.2007 265.7C58.734 265.633 59.2673 265.533 59.8007 265.4C59.934 265.333 60.0674 265.267 60.2007 265.2C60.2007 265.2 60.234 265.2 60.3007 265.2C60.3673 265.133 60.434 265.1 60.5007 265.1C60.634 265.033 60.734 265 60.8007 265ZM56.2007 266.2C56.4007 266 56.6007 265.833 56.8007 265.7C56.6007 265.7 56.4007 265.667 56.2007 265.6C55.934 265.6 55.7007 265.567 55.5007 265.5C55.034 265.433 54.6007 265.367 54.2007 265.3C54.2007 265.367 54.234 265.4 54.3007 265.4C54.4007 265.6 54.7007 265.7 54.9007 265.7C55.3007 265.9 55.734 266.067 56.2007 266.2ZM60.4007 265.2C60.4007 265.267 60.3673 265.3 60.3007 265.3C59.9673 265.5 59.6007 265.667 59.2007 265.8C58.6007 266.133 57.9673 266.433 57.3007 266.7C56.9007 266.767 56.534 266.867 56.2007 267C56.0007 267.067 55.834 267.133 55.7007 267.2C55.5007 267.267 55.334 267.3 55.2007 267.3C55.6007 267.3 56.0007 267.267 56.4007 267.2C57.134 267.133 57.8673 266.933 58.6007 266.6C59.0007 266.467 59.3674 266.3 59.7007 266.1C60.0007 265.9 60.3007 265.6 60.4007 265.2ZM55.4007 267.2C55.4674 267.133 55.5674 267.1 55.7007 267.1C55.9007 267.033 56.1007 266.967 56.3007 266.9C57.0007 266.6 57.7007 266.4 58.4007 266.1C58.734 265.967 59.1007 265.8 59.5007 265.6C59.0007 265.7 58.4007 265.9 57.9007 265.9C57.6007 265.9 57.3007 265.9 57.1007 265.8C57.034 265.8 57.0007 265.767 57.0007 265.7C56.4007 266.167 55.8674 266.667 55.4007 267.2ZM54.2007 265.3C54.6007 265.3 55.034 265.333 55.5007 265.4C55.7007 265.467 55.934 265.5 56.2007 265.5C56.4007 265.567 56.6007 265.6 56.8007 265.6C56.734 265.533 56.6673 265.467 56.6007 265.4C56.6007 265.333 56.5674 265.267 56.5007 265.2C56.5007 265.1 56.3007 265.1 56.2007 265C56.0674 265 55.934 264.967 55.8007 264.9C55.6007 264.833 55.434 264.767 55.3007 264.7C55.034 264.833 54.8007 264.967 54.6007 265.1C54.4673 265.1 54.3673 265.133 54.3007 265.2C54.234 265.2 54.2007 265.233 54.2007 265.3ZM55.5007 262.8C55.5007 262.8 55.534 262.8 55.6007 262.8C55.534 262.733 55.5007 262.7 55.5007 262.7C55.5007 262.7 55.5007 262.733 55.5007 262.8ZM69.3007 273.5C68.834 273.033 68.3674 272.633 67.9007 272.3C67.3674 271.833 66.834 271.4 66.3007 271C65.7673 270.6 65.234 270.2 64.7007 269.8C64.1007 269.4 63.5673 269 63.1007 268.6C62.834 268.4 62.5673 268.2 62.3007 268C62.1007 267.8 61.9007 267.6 61.7007 267.4C62.1007 268 62.534 268.567 63.0007 269.1C63.4007 269.633 63.8674 270.133 64.4007 270.6C64.934 271.067 65.4674 271.5 66.0007 271.9C66.6007 272.3 67.234 272.633 67.9007 272.9C68.3007 273.1 68.7673 273.3 69.3007 273.5ZM69.6007 273.6C69.2673 273.067 68.9007 272.567 68.5007 272.1C68.034 271.5 67.534 270.967 67.0007 270.5C66.4674 270.033 65.9007 269.6 65.3007 269.2C64.7673 268.8 64.1673 268.433 63.5007 268.1C62.9674 267.833 62.4007 267.6 61.8007 267.4C62.2673 267.867 62.7673 268.3 63.3007 268.7C63.834 269.1 64.3674 269.5 64.9007 269.9C65.5007 270.3 66.0673 270.7 66.6007 271.1C67.134 271.5 67.6674 271.9 68.2007 272.3C68.6674 272.7 69.1007 273.133 69.5007 273.6C69.5674 273.6 69.6007 273.6 69.6007 273.6ZM53.7007 271.3C53.234 270.9 52.7673 270.5 52.3007 270.1C51.7673 269.633 51.234 269.233 50.7007 268.9C50.1674 268.5 49.634 268.1 49.1007 267.7C48.5673 267.3 48.034 266.867 47.5007 266.4C47.234 266.2 46.9674 266 46.7007 265.8C46.5007 265.6 46.334 265.433 46.2007 265.3C46.534 265.9 46.934 266.467 47.4007 267C47.8674 267.533 48.334 268.033 48.8007 268.5C49.334 268.967 49.9007 269.367 50.5007 269.7C51.034 270.1 51.634 270.467 52.3007 270.8C52.7673 271 53.234 271.167 53.7007 271.3ZM54.0007 271.4C53.6673 270.867 53.3007 270.367 52.9007 269.9C52.434 269.367 51.9673 268.833 51.5007 268.3C50.9673 267.833 50.4007 267.4 49.8007 267C49.2007 266.6 48.5674 266.233 47.9007 265.9C47.3674 265.633 46.8007 265.4 46.2007 265.2C46.734 265.667 47.2673 266.1 47.8007 266.5C48.334 266.9 48.8674 267.3 49.4007 267.7C49.934 268.1 50.4673 268.5 51.0007 268.9C51.534 269.3 52.0673 269.7 52.6007 270.1C53.0673 270.5 53.534 270.933 54.0007 271.4ZM57.3007 272.2C56.7007 272.4 56.1007 272.633 55.5007 272.9C54.9007 273.167 54.3007 273.433 53.7007 273.7C53.1007 274.033 52.5007 274.333 51.9007 274.6C51.3007 274.867 50.7007 275.133 50.1007 275.4C49.7673 275.533 49.434 275.667 49.1007 275.8C48.9007 275.867 48.6674 275.933 48.4007 276C49.0674 276 49.7673 275.933 50.5007 275.8C51.1673 275.667 51.834 275.467 52.5007 275.2C53.1007 274.933 53.734 274.633 54.4007 274.3C55.0007 273.967 55.5673 273.6 56.1007 273.2C56.5007 272.933 56.9007 272.6 57.3007 272.2ZM57.5007 272C56.9007 272.067 56.3007 272.133 55.7007 272.2C54.9674 272.4 54.2673 272.6 53.6007 272.8C52.934 273.067 52.2673 273.367 51.6007 273.7C51.0007 274.033 50.4007 274.4 49.8007 274.8C49.334 275.133 48.8674 275.533 48.4007 276C49.0007 275.733 49.634 275.467 50.3007 275.2C50.9007 274.933 51.5007 274.667 52.1007 274.4C52.7007 274.067 53.3007 273.767 53.9007 273.5C54.5007 273.167 55.1007 272.9 55.7007 272.7C56.3007 272.433 56.9007 272.2 57.5007 272ZM39.6007 272.6C40.334 272.533 41.0673 272.467 41.8007 272.4C42.534 272.333 43.2673 272.233 44.0007 272.1C44.734 271.967 45.5007 271.833 46.3007 271.7C47.034 271.633 47.7673 271.567 48.5007 271.5C48.834 271.433 49.2007 271.4 49.6007 271.4C49.734 271.4 49.9007 271.4 50.1007 271.4C50.234 271.4 50.4007 271.4 50.6007 271.4C50.6007 271.4 50.6007 271.367 50.6007 271.3C49.934 271.167 49.2673 271.067 48.6007 271C47.8007 270.933 47.0007 270.9 46.2007 270.9C45.4007 270.967 44.6007 271.067 43.8007 271.2C43.0007 271.333 42.234 271.533 41.5007 271.8C40.834 272 40.2007 272.267 39.6007 272.6ZM50.3007 271.5C49.5673 271.5 48.8674 271.533 48.2007 271.6C47.4674 271.667 46.734 271.767 46.0007 271.9C45.2673 272.033 44.5007 272.167 43.7007 272.3C42.9674 272.367 42.234 272.433 41.5007 272.5C41.1007 272.567 40.734 272.6 40.4007 272.6C40.134 272.6 39.834 272.6 39.5007 272.6C40.3007 272.8 41.0673 272.933 41.8007 273C42.6007 273.067 43.4007 273.1 44.2007 273.1C44.934 273.033 45.7007 272.933 46.5007 272.8C47.234 272.667 47.9674 272.467 48.7007 272.2C49.234 272 49.7673 271.767 50.3007 271.5ZM55.2007 276.7C55.6007 276.7 56.0007 276.7 56.4007 276.7C57.3007 276.7 58.2007 276.8 59.1007 277C59.5007 277.133 59.9007 277.3 60.3007 277.5C60.5007 277.567 60.7007 277.667 60.9007 277.8C60.7007 277.533 60.434 277.267 60.1007 277C59.4007 276.5 58.6007 276.1 57.7007 276.1C56.8007 276 56.0007 276.4 55.2007 276.7ZM57.2007 277.8C57.334 277.733 57.434 277.667 57.5007 277.6C57.8007 277.5 58.1007 277.5 58.3007 277.5C58.9007 277.433 59.5007 277.467 60.1007 277.6C60.234 277.667 60.4007 277.733 60.6007 277.8C60.4673 277.667 60.3007 277.567 60.1007 277.5C59.3007 277.1 58.5007 277 57.6007 276.9C57.134 276.833 56.6674 276.8 56.2007 276.8C55.8007 276.8 55.4007 276.8 55.0007 276.8C55.334 277 55.7007 277.167 56.1007 277.3C56.3007 277.433 56.5007 277.533 56.7007 277.6C56.834 277.667 57.0007 277.733 57.2007 277.8ZM54.5007 278C54.9007 278 55.3007 278 55.7007 278C55.9007 278 56.1007 278 56.3007 278C56.5007 277.933 56.734 277.9 57.0007 277.9C57.0007 277.9 57.0007 277.933 57.0007 278C57.0674 277.933 57.1007 277.867 57.1007 277.8C56.9673 277.867 56.834 277.867 56.7007 277.8C56.5007 277.667 56.3007 277.567 56.1007 277.5C55.9673 277.5 55.8673 277.533 55.8007 277.6C55.6673 277.6 55.5674 277.6 55.5007 277.6C55.3007 277.667 55.1007 277.733 54.9007 277.8C54.834 277.867 54.734 277.9 54.6007 277.9C54.6007 277.967 54.5673 278 54.5007 278ZM54.3007 280C54.7673 280 55.234 279.933 55.7007 279.8C56.7007 279.6 57.6007 279.4 58.6007 279.1C59.2007 278.9 59.834 278.7 60.5007 278.5C60.5007 278.5 60.5007 278.467 60.5007 278.4C60.634 278.4 60.7674 278.4 60.9007 278.4C61.034 278.333 61.1673 278.267 61.3007 278.2C61.3007 278.267 61.2674 278.267 61.2007 278.2C61.2007 278.2 61.1673 278.167 61.1007 278.1C60.5673 277.9 60.034 277.767 59.5007 277.7C59.0007 277.6 58.4007 277.6 57.8007 277.7C57.6007 277.7 57.4007 277.8 57.2007 278C57.0674 278.067 56.9674 278.133 56.9007 278.2C56.7674 278.267 56.634 278.333 56.5007 278.4C55.6007 278.7 54.9007 279.3 54.3007 280ZM61.2007 278.5C60.734 278.633 60.2673 278.767 59.8007 278.9C58.9007 279.2 57.9007 279.5 57.0007 279.7C56.134 279.9 55.3007 280.067 54.5007 280.2C54.5007 280.2 54.534 280.2 54.6007 280.2C55.134 280.4 55.6674 280.5 56.2007 280.5C56.4674 280.5 56.734 280.467 57.0007 280.4C57.1007 280.4 57.3007 280.3 57.4007 280.4C57.5007 280.4 57.6007 280.5 57.7007 280.5C58.2007 280.8 58.8007 280.5 59.2007 280.3C59.6674 279.967 60.1007 279.6 60.5007 279.2C60.5674 279.133 60.6673 279.033 60.8007 278.9C60.8007 278.9 60.8007 278.867 60.8007 278.8C60.8007 278.8 60.834 278.8 60.9007 278.8C60.9007 278.733 60.934 278.667 61.0007 278.6C61.0674 278.533 61.134 278.5 61.2007 278.5ZM55.6007 278.7C55.8007 278.567 56.0007 278.467 56.2007 278.4C56.2674 278.333 56.3673 278.267 56.5007 278.2C56.634 278.2 56.7674 278.167 56.9007 278.1C56.7007 278.1 56.5007 278.1 56.3007 278.1C56.1007 278.1 55.9007 278.1 55.7007 278.1C55.3007 278.1 54.934 278.1 54.6007 278.1C54.734 278.167 54.8673 278.267 55.0007 278.4C55.2007 278.467 55.4007 278.567 55.6007 278.7ZM55.4007 281.6C55.8007 281.467 56.2007 281.333 56.6007 281.2C56.8673 281.067 57.1007 280.967 57.3007 280.9C57.5007 280.833 57.7007 280.767 57.9007 280.7C57.9007 280.7 57.8673 280.7 57.8007 280.7C57.734 280.7 57.7007 280.667 57.7007 280.6C57.634 280.6 57.5674 280.567 57.5007 280.5C57.4007 280.4 57.2007 280.5 57.1007 280.5C56.9673 280.567 56.834 280.6 56.7007 280.6C56.5007 280.6 56.3007 280.6 56.1007 280.6C55.9673 280.8 55.8007 281 55.6007 281.2C55.534 281.333 55.4674 281.433 55.4007 281.5C55.4007 281.5 55.4007 281.533 55.4007 281.6ZM57.6007 281.5C57.734 281.3 57.834 281.067 57.9007 280.8C57.7007 280.867 57.5007 280.933 57.3007 281C57.1007 281.067 56.9007 281.167 56.7007 281.3C56.3007 281.433 55.8674 281.533 55.4007 281.6C55.4674 281.667 55.5007 281.7 55.5007 281.7C55.8007 281.8 56.0007 281.7 56.2007 281.7C56.6674 281.7 57.134 281.633 57.6007 281.5ZM61.0007 278.8C61.0007 278.867 60.9674 278.9 60.9007 278.9C60.7007 279.233 60.4674 279.567 60.2007 279.9C59.734 280.433 59.2673 280.967 58.8007 281.5C58.534 281.767 58.2673 282.033 58.0007 282.3C57.8673 282.433 57.734 282.567 57.6007 282.7C57.4673 282.767 57.334 282.867 57.2007 283C57.534 282.8 57.8674 282.6 58.2007 282.4C58.8674 281.933 59.4674 281.433 60.0007 280.9C60.2673 280.567 60.5007 280.267 60.7007 280C60.9007 279.6 61.1007 279.2 61.0007 278.8ZM57.3007 282.8C57.3673 282.733 57.4673 282.633 57.6007 282.5C57.734 282.367 57.8673 282.233 58.0007 282.1C58.5007 281.6 59.0007 281.1 59.5007 280.5C59.7673 280.167 60.034 279.833 60.3007 279.5C59.9007 279.9 59.5007 280.3 59.0007 280.5C58.8007 280.7 58.5007 280.8 58.2007 280.8C58.2007 280.8 58.1673 280.8 58.1007 280.8C57.7673 281.467 57.5007 282.133 57.3007 282.8ZM81.4007 277.9C80.8007 278.1 80.234 278.333 79.7007 278.6C79.034 278.8 78.4007 279.067 77.8007 279.4C77.2007 279.667 76.6007 279.967 76.0007 280.3C75.4007 280.567 74.8007 280.833 74.2007 281.1C73.8674 281.233 73.534 281.367 73.2007 281.5C73.0007 281.567 72.7673 281.633 72.5007 281.7C73.234 281.7 73.934 281.6 74.6007 281.4C75.2673 281.267 75.934 281.1 76.6007 280.9C77.2673 280.633 77.9007 280.333 78.5007 280C79.1007 279.667 79.6674 279.3 80.2007 278.9C80.6007 278.567 81.0007 278.233 81.4007 277.9ZM81.6007 277.7C81.0007 277.7 80.4007 277.767 79.8007 277.9C79.0673 278.033 78.3674 278.233 77.7007 278.5C77.034 278.7 76.4007 278.967 75.8007 279.3C75.134 279.633 74.5007 280.033 73.9007 280.5C73.434 280.833 72.9674 281.2 72.5007 281.6C73.1674 281.4 73.8007 281.167 74.4007 280.9C75.0007 280.633 75.6007 280.333 76.2007 280C76.8007 279.733 77.4007 279.467 78.0007 279.2C78.6007 278.867 79.234 278.567 79.9007 278.3C80.434 278.1 81.0007 277.9 81.6007 277.7ZM82.7007 277.7C82.634 277.7 82.6007 277.7 82.6007 277.7C82.6673 277.7 82.7007 277.7 82.7007 277.7ZM71.4007 269.2C71.8007 269.467 72.234 269.7 72.7007 269.9C72.3007 269.433 71.9007 268.967 71.5007 268.5C71.034 268.033 70.5673 267.567 70.1007 267.1C69.5673 266.633 69.0673 266.167 68.6007 265.7C68.134 265.233 67.6674 264.767 67.2007 264.3C67.0007 264.033 66.7673 263.767 66.5007 263.5C66.3673 263.3 66.234 263.1 66.1007 262.9C66.3673 263.567 66.6673 264.2 67.0007 264.8C67.4007 265.4 67.834 265.967 68.3007 266.5C68.7007 267.033 69.1674 267.5 69.7007 267.9C70.234 268.367 70.8007 268.8 71.4007 269.2ZM66.1007 262.9C66.5673 263.433 67.034 263.933 67.5007 264.4C67.9674 264.867 68.434 265.333 68.9007 265.8C69.3674 266.267 69.8674 266.733 70.4007 267.2C70.8674 267.667 71.334 268.133 71.8007 268.6C72.2007 269.067 72.5674 269.567 72.9007 270.1C72.9674 270.1 73.0007 270.1 73.0007 270.1C72.734 269.5 72.434 268.933 72.1007 268.4C71.7673 267.8 71.3674 267.233 70.9007 266.7C70.434 266.167 69.934 265.633 69.4007 265.1C68.8674 264.633 68.3007 264.2 67.7007 263.8C67.1674 263.467 66.634 263.167 66.1007 262.9Z" fill="#42A5F5"/>
<path fill-rule="evenodd" clip-rule="evenodd" d="M110.099 284.1C110.699 284.5 111.266 284.933 111.799 285.4C112.799 286.4 113.499 287.6 114.099 288.9C114.366 289.567 114.599 290.233 114.799 290.9C114.866 291.1 114.899 291.3 114.899 291.5C114.966 291.633 114.999 291.8 114.999 292C115.066 292.133 115.032 292.267 114.899 292.4C114.699 292.467 114.499 292.533 114.299 292.6C112.899 293.3 111.499 294 109.999 294.5C108.599 294.9 107.099 295.2 105.599 295.1C104.299 295 103.099 294.7 102.199 293.8C101.699 293.3 101.399 292.8 101.299 292.2C101.232 291.8 101.266 291.433 101.399 291.1C101.599 290.767 101.799 290.467 101.999 290.2C102.699 289.3 103.799 288.8 104.899 288.6C104.766 288.4 104.666 288.2 104.599 288C104.399 287.4 104.299 286.8 104.299 286.1C104.399 285.5 104.599 284.8 104.999 284.2C105.799 283.3 107.099 283.1 108.299 283.4C108.899 283.5 109.599 283.8 110.099 284.1ZM109.099 291.3C108.566 291.3 107.899 291.2 107.099 291C107.032 290.933 106.899 290.9 106.699 290.9C106.566 290.833 106.466 290.8 106.399 290.8C106.199 290.733 106.032 290.7 105.899 290.7C105.832 290.7 105.766 290.767 105.699 290.9C105.699 290.967 105.732 291 105.799 291C106.332 291.267 107.032 291.733 107.899 292.4C107.699 292.467 107.466 292.467 107.199 292.4C106.999 292.4 106.799 292.4 106.599 292.4C106.466 292.333 106.266 292.3 105.999 292.3C105.799 292.233 105.632 292.2 105.499 292.2C105.432 292.2 105.399 292.267 105.399 292.4C105.332 292.467 105.332 292.5 105.399 292.5C105.466 292.567 105.499 292.6 105.499 292.6C106.166 292.867 106.599 293.1 106.799 293.3C107.532 293.7 107.932 293.933 107.999 294C108.199 294.133 108.299 294.2 108.299 294.2C108.432 294.267 108.532 294.233 108.599 294.1C108.666 294.033 108.699 293.967 108.699 293.9C108.366 293.633 107.832 293.3 107.099 292.9C107.166 292.9 107.332 292.9 107.599 292.9C107.866 292.9 108.066 292.9 108.199 292.9C108.332 292.833 108.466 292.7 108.599 292.5C108.599 292.433 108.566 292.367 108.499 292.3C108.499 292.233 108.399 292.167 108.199 292.1C107.932 291.9 107.732 291.733 107.599 291.6C107.666 291.6 107.832 291.633 108.099 291.7C108.366 291.767 108.566 291.8 108.699 291.8C108.832 291.8 108.932 291.767 108.999 291.7C109.132 291.633 109.199 291.567 109.199 291.5C109.199 291.367 109.166 291.3 109.099 291.3ZM108.199 288.7C107.999 288.633 107.766 288.633 107.499 288.7C107.366 288.7 107.232 288.8 107.099 289C106.966 289.2 106.866 289.3 106.799 289.3C106.732 289.367 106.699 289.433 106.699 289.5C106.699 289.567 106.732 289.7 106.799 289.9C106.866 290.033 106.932 290.133 106.999 290.2C107.266 290.467 107.566 290.633 107.899 290.7C108.099 290.767 108.299 290.767 108.499 290.7C108.832 290.5 108.999 290.3 108.999 290.1C109.066 290.1 109.099 290.067 109.099 290C109.099 289.6 108.899 289.2 108.499 288.8C108.432 288.733 108.332 288.7 108.199 288.7ZM110.599 286.2C110.066 286.2 109.399 286.1 108.599 285.9C108.532 285.833 108.399 285.8 108.199 285.8C107.999 285.733 107.899 285.7 107.899 285.7C107.699 285.633 107.532 285.6 107.399 285.6C107.332 285.533 107.266 285.567 107.199 285.7C107.199 285.833 107.199 285.9 107.199 285.9C107.799 286.167 108.532 286.633 109.399 287.3C109.199 287.367 108.966 287.367 108.699 287.3C108.499 287.3 108.299 287.3 108.099 287.3C107.966 287.233 107.766 287.167 107.499 287.1C107.299 287.1 107.132 287.1 106.999 287.1C106.932 287.1 106.866 287.167 106.799 287.3C106.799 287.367 106.832 287.4 106.899 287.4C106.966 287.467 106.999 287.5 106.999 287.5C107.666 287.767 108.099 287.967 108.299 288.1C109.032 288.567 109.432 288.833 109.499 288.9C109.632 289.033 109.732 289.1 109.799 289.1C109.866 289.167 109.966 289.133 110.099 289C110.166 288.933 110.166 288.867 110.099 288.8C109.832 288.533 109.332 288.2 108.599 287.8C108.666 287.8 108.832 287.8 109.099 287.8C109.366 287.8 109.566 287.8 109.699 287.8C109.832 287.733 109.966 287.6 110.099 287.4C110.099 287.333 110.066 287.267 109.999 287.2C109.932 287.133 109.832 287.067 109.699 287C109.432 286.733 109.199 286.567 108.999 286.5C109.132 286.5 109.332 286.533 109.599 286.6C109.799 286.667 109.999 286.7 110.199 286.7C110.332 286.7 110.432 286.667 110.499 286.6C110.632 286.533 110.699 286.467 110.699 286.4C110.699 286.267 110.666 286.2 110.599 286.2Z" fill="#42A5F5"/>
<path d="M107.498 289.2C107.432 289.267 107.398 289.3 107.398 289.3C107.398 289.3 107.432 289.367 107.498 289.5C107.565 289.567 107.598 289.633 107.598 289.7C107.598 289.7 107.565 289.733 107.498 289.8C107.498 289.8 107.465 289.833 107.398 289.9C107.398 289.9 107.432 289.9 107.498 289.9C107.565 290.033 107.698 290.133 107.898 290.2C108.032 290.267 108.165 290.267 108.298 290.2C108.498 290.2 108.598 290.167 108.598 290.1C108.665 289.9 108.632 289.7 108.498 289.5C108.365 289.3 108.198 289.2 107.998 289.2C107.732 289.133 107.565 289.133 107.498 289.2Z" fill="#42A5F5"/>
<path d="M74.3938 143.2C108.394 155.6 72.2937 218.3 72.2937 218.3L28.5938 204.6C28.5938 204.6 29.8938 127.1 74.3938 143.2Z" fill="#42A5F5"/>
<path d="M74.3938 143.2C108.394 155.6 72.2937 218.3 72.2937 218.3L28.5938 204.6" stroke="#371116" stroke-width="2" stroke-linecap="round" stroke-linejoin="round"/>
<path d="M135.394 9.49993C118.294 0.899925 96.894 5.69994 84.994 20.6999C73.994 34.4999 73.394 52.8999 81.594 66.9999C82.1273 68.3333 82.7273 69.6666 83.394 70.9999C58.294 141.8 112.594 146.3 112.594 146.3C106.094 140.1 93.694 125.9 92.894 122.1C91.694 116.1 95.494 104.3 97.894 97.7999L100.894 91.1999C110.194 98.4999 119.894 103 125.794 105.3C129.094 106.5 132.794 105.4 134.894 102.6C138.394 97.8999 157.094 58.8999 157.594 53.8999C160.794 36.5999 152.794 18.1999 135.394 9.49993Z" fill="#FFB4BA"/>
<path d="M137.494 7.59991C121.094 -4.10009 87.7938 8.19991 75.8938 23.0999C75.5938 23.4999 55.5938 128.6 55.5938 128.6C55.5938 128.6 74.7938 126.3 77.2938 122C79.8938 117.7 121.294 23.9999 121.294 23.9999C130.694 46.1999 143.494 58.6999 154.394 65.5999C155.894 60.9999 159.194 54.8999 159.494 51.3999C162.694 34.0999 153.294 18.8999 137.494 7.59991Z" fill="#371116"/>
<path d="M88.7969 54.4001C88.7969 47.9001 94.0969 42.6001 100.597 42.6001C107.197 42.6001 112.397 47.9001 112.397 54.4001C112.397 60.9001 107.197 66.2001 100.597 66.2001C94.0969 66.2001 88.7969 60.9001 88.7969 54.4001Z" fill="#FFB4BA"/>
<path d="M100.995 61.1998C100.529 60.6665 100.095 60.1332 99.6954 59.5998C101.295 55.4998 101.495 50.8998 99.6954 46.7998C99.5954 46.6998 99.2954 46.6998 99.3954 46.8998C100.295 50.7998 100.395 54.7998 99.0953 58.5998C98.1953 57.1998 97.4953 55.5998 97.0953 53.7998C96.4953 50.7998 96.9953 47.5998 98.0953 44.7998C98.1953 44.5998 97.8954 44.4998 97.8954 44.6998C96.2954 47.3998 95.7953 50.5998 96.2953 53.7998C96.7953 56.6998 98.1954 59.6998 100.395 61.5998C100.595 61.7998 101.195 61.5998 100.995 61.1998Z" fill="#371116"/>
<path d="M136.597 100.7C136.597 100.7 128.397 99.5997 129.597 90.6997" stroke="#371116" stroke-width="1.5" stroke-linecap="round" stroke-linejoin="round"/>
<path d="M149.592 70.1997L144.292 94.3997C144.292 94.3997 137.492 94.0997 137.892 90.0997L149.592 70.1997Z" fill="#FE7880"/>
<path d="M119.694 24C118.494 29 118.094 34.3 116.994 39.4C115.894 44.5 114.294 49.6 111.794 54.2C109.294 58.8 105.894 62.7 102.394 66.6C98.8938 70.6 95.4938 74.6 92.2938 78.8C86.0938 87.1 80.7938 96.1 77.1938 105.9C73.3938 116 71.1938 126.9 65.7938 136.3C60.2938 146 50.2938 154.3 38.4938 152.5C37.9938 152.4 37.6938 153 38.2938 153.1C47.9938 155.2 57.5938 149.8 63.4938 142.4C70.3938 133.9 73.2938 123.2 76.5938 113.1C78.2938 107.7 80.1938 102.5 82.6938 97.4C85.0938 92.5 87.8938 87.9 90.9938 83.4C94.0938 79 97.3938 74.8 100.894 70.7C104.494 66.5 108.394 62.6 111.394 58C114.694 53 116.794 47.4 118.094 41.7C118.76 38.9 119.294 36.0667 119.694 33.2C120.094 30.2 120.494 27.1 120.394 24.1C120.394 23.7 119.794 23.7 119.694 24Z" fill="#490B14"/>
</svg>
