<svg width="209" height="449" viewBox="0 0 209 449" fill="none" xmlns="http://www.w3.org/2000/svg">
<path fill-rule="evenodd" clip-rule="evenodd" d="M5.09959 393.4C3.89959 389.8 2.79959 386.2 2.09959 382.5C-1.20041 366.4 1.59961 350.2 4.99961 334.4C8.89961 317 12.9996 299.8 11.6996 281.9C10.2996 263.4 5.79963 245.3 4.39963 226.9C2.99963 209.4 3.69962 191.6 9.19962 174.8C13.5996 161.2 20.7996 148.7 28.3996 136.6C37.9996 121.5 49.0996 106.5 56.9996 90.1999C64.5996 48.8999 68.0996 3.69987 106.1 0.999866C137.5 -1.10013 154.9 11.9999 164.6 26.0999C166.4 28.4332 168.066 30.8665 169.6 33.3999C176.9 45.6999 180.9 59.5998 182.6 73.7999C184.6 91.1999 183.4 108.8 181.9 126.2C180.3 144.2 178.9 162.2 178 180.2C177.2 197.8 176.633 215.4 176.3 233C187.9 265 202.5 296.7 206.9 330.8C209 347.6 208.5 364.9 202.9 381C201.9 383.8 200.7 386.6 199.4 389.3C172.6 426.6 138.2 449 100.8 449C64.6996 449 31.4996 428.3 5.09959 393.4ZM172.4 41.9999C175.2 50.4999 176.2 59.5999 175.5 68.6999C175.5 68.6999 171.9 212.8 175.7 231.1C175.7 229.967 175.666 228.867 175.6 227.8C175.3 209.9 175.9 192.1 176.8 174.3C177.7 156.6 179.2 139 180.7 121.4C182.1 104.2 183.1 86.6999 180.5 69.4999C179.1 59.9999 176.4 50.6999 172.4 41.9999Z" fill="#371116"/>
<path d="M186.004 283.6C186.004 253.7 168.404 229.1 145.804 226.3L145.904 223.6C167.404 215.6 163.604 197.7 162.604 196.5C152.004 183.8 102.304 134.9 83.0044 120.4C81.6711 119.4 80.371 118.6 79.1044 118C77.7044 122.9 70.0044 144.6 44.0044 151C40.9044 159.8 38.0044 171.2 37.8044 183.9C37.7044 198.1 55.1044 286.2 57.4044 297.8C47.7044 314.4 24.5044 324.9 25.9044 357.8C26.5044 372 35.7044 405.8 37.8044 426.6C57.1044 441 78.4044 449 100.804 449C117.204 449 133.104 444.7 148.004 436.7L146.004 376.6C145.404 359.2 153.204 342.9 166.304 331.5C178.204 321.1 186.004 303.6 186.004 283.6Z" fill="#FF3333"/>
<path d="M153.901 297.1C151.801 296.3 149.801 295.5 147.801 294.7C149.401 294.9 151.001 295 152.601 295.1C154.901 295.2 159.601 295.8 159.801 294.7C160.101 292.4 144.301 288.1 140.901 286.9C142.635 285.234 144.335 283.567 146.001 281.9C146.501 281.4 147.601 280.6 146.901 279.8C146.201 279.2 145.101 279.6 144.401 279.9C143.301 280.3 142.201 280.9 141.201 281.5C140.135 282.1 139.035 282.667 137.901 283.2C135.701 284.267 133.435 285.267 131.101 286.2C130.001 286.6 125.001 287.6 123.301 288.3L49.4014 252.6L66.9014 202.2L30.3014 203.4C30.3014 203.4 13.2014 264.3 18.3014 274.1C23.3014 284 122.901 300.3 122.901 300.3C126.568 301.767 130.268 303.167 134.001 304.5C136.335 305.3 138.668 306.1 141.001 306.9C142.201 307.3 143.401 307.7 144.601 308.1C145.801 308.5 147.001 308.9 148.201 309.4C148.201 309.4 148.401 309.4 148.401 309.3C148.501 308 147.701 307.1 146.901 306.2C145.835 305.134 144.768 304.034 143.701 302.9C148.001 303.4 155.801 306.8 156.501 305.4C157.101 304.2 153.201 302.4 152.101 301.9C150.701 301.1 149.268 300.333 147.801 299.6C150.001 300.2 152.201 300.734 154.401 301.2C155.801 301.5 157.201 301.8 158.601 301.9C159.801 302 161.801 301.4 161.501 300.4C161.101 298.8 156.401 298.2 153.901 297.1Z" fill="#FFB4BA"/>
<path fill-rule="evenodd" clip-rule="evenodd" d="M66.0016 262.7C66.0682 262.7 66.1349 262.733 66.2016 262.8C66.8683 263.133 67.5016 263.5 68.1016 263.9C68.6349 264.3 69.1683 264.733 69.7016 265.2C70.2349 265.733 70.7349 266.267 71.2016 266.8C71.6683 267.4 72.0683 268 72.4016 268.6C72.7349 269.067 73.0016 269.6 73.2016 270.2V270.3C73.3016 270.4 73.2015 270.3 73.1016 270.3C73.0349 270.3 73.0016 270.3 73.0016 270.3C74.7349 271.3 76.4016 272.4 78.0016 273.6C79.7016 274.9 81.2016 276.2 82.8016 277.6C84.8682 277.8 86.9349 278.067 89.0016 278.4C91.3016 278.7 93.6016 279.1 95.8016 279.7C95.9016 279.7 95.9016 279.8 95.8016 279.8C95.5349 279.733 95.2682 279.667 95.0016 279.6C92.7349 279.133 90.4683 278.733 88.2016 278.4C86.4683 278.133 84.7349 277.9 83.0016 277.7C83.0016 277.767 83.0349 277.833 83.1016 277.9C84.6349 278.5 86.1349 279.133 87.6016 279.8C90.4682 281.067 93.2682 282.5 96.0016 284.1C96.0016 284.1 96.0016 284.2 95.9016 284.2C95.5683 284 95.2349 283.8 94.9016 283.6C92.1016 282.1 89.3016 280.7 86.4016 279.4C85.4016 279 84.4349 278.6 83.5016 278.2C84.0349 278.667 84.6016 279.167 85.2016 279.7C87.4016 281.7 89.6016 283.7 91.6016 285.9C93.7015 288.1 95.6016 290.4 97.3016 292.9C97.3016 292.9 97.2016 293 97.2016 292.9C97.0016 292.633 96.8016 292.333 96.6016 292C94.8016 289.6 92.9016 287.4 90.8016 285.3C88.7016 283.1 86.5016 281.1 84.3016 279.1C83.9016 278.767 83.5016 278.4 83.1016 278C82.7682 277.867 82.4349 277.767 82.1016 277.7C82.0349 277.633 81.9683 277.6 81.9016 277.6C81.9016 277.667 81.8682 277.7 81.8016 277.7C81.9016 277.7 81.8016 277.8 81.7016 277.8C81.2349 278.333 80.7015 278.8 80.1016 279.2C79.5682 279.6 78.9682 279.967 78.3016 280.3C77.7016 280.633 77.0683 280.9 76.4016 281.1C75.7349 281.3 75.0683 281.467 74.4016 281.6C73.7349 281.733 73.0349 281.833 72.3016 281.9C72.2016 281.9 72.2016 281.8 72.3016 281.7C72.3682 281.633 72.4349 281.6 72.5016 281.6C73.0349 281.067 73.5682 280.6 74.1016 280.2C74.7015 279.8 75.3349 279.433 76.0016 279.1C76.6682 278.767 77.3349 278.5 78.0016 278.3C78.6682 278.033 79.3682 277.833 80.1016 277.7C80.4349 277.633 80.8016 277.6 81.2016 277.6C78.9349 277.4 76.6349 277.333 74.3016 277.4C72.0349 277.4 69.7349 277.5 67.4016 277.7C65.4016 277.9 63.4349 278.133 61.5016 278.4C61.4349 278.4 61.4016 278.433 61.4016 278.5C61.3349 278.5 61.2683 278.533 61.2016 278.6C61.2016 278.667 61.1682 278.733 61.1016 278.8C61.2016 279.3 61.0016 279.7 60.8016 280.1C60.5349 280.433 60.2682 280.733 60.0016 281C59.7349 281.267 59.4683 281.533 59.2016 281.8C58.6016 282.333 57.9349 282.8 57.2016 283.2C57.1016 283.2 57.1016 283.1 57.1016 283.1C57.2349 282.633 57.4016 282.167 57.6016 281.7C57.3349 281.7 57.0682 281.733 56.8016 281.8C56.5349 281.8 56.2682 281.833 56.0016 281.9C55.8682 281.9 55.7349 281.867 55.6016 281.8C55.5016 281.8 55.4016 281.8 55.4016 281.7C55.3016 281.6 55.3016 281.5 55.4016 281.4C55.4683 281.333 55.5349 281.233 55.6016 281.1C55.7349 280.967 55.9016 280.8 56.1016 280.6C56.0349 280.6 56.0016 280.6 56.0016 280.6C56.0016 280.667 56.0016 280.7 56.0016 280.7C55.9349 280.7 55.8682 280.733 55.8016 280.8C55.7349 280.8 55.6682 280.8 55.6016 280.8C55.5349 280.867 55.4349 280.9 55.3016 280.9C54.9016 281.033 54.5015 281.133 54.1016 281.2C53.7682 281.267 53.4349 281.333 53.1016 281.4C53.1016 281.467 53.1016 281.5 53.1016 281.5C53.1016 281.567 53.0682 281.633 53.0016 281.7C53.0016 281.7 53.0016 281.733 53.0016 281.8C52.9349 281.8 52.9016 281.8 52.9016 281.8C52.8349 281.8 52.8016 281.8 52.8016 281.8C52.7349 281.8 52.6682 281.767 52.6016 281.7C52.5349 281.633 52.5016 281.567 52.5016 281.5C52.5682 281.433 52.6016 281.4 52.6016 281.4C52.6682 281.333 52.7349 281.3 52.8016 281.3C52.8682 281.3 52.9349 281.3 53.0016 281.3C53.0016 281.3 53.0349 281.333 53.1016 281.4C53.2349 281.333 53.4016 281.267 53.6016 281.2C54.0015 281.133 54.4016 281.033 54.8016 280.9C55.0016 280.9 55.2016 280.867 55.4016 280.8C55.4683 280.733 55.5683 280.7 55.7016 280.7C55.7016 280.633 55.7349 280.6 55.8016 280.6C55.2682 280.533 54.7682 280.4 54.3016 280.2C54.3016 280.2 54.2683 280.2 54.2016 280.2C54.1016 280.2 54.1016 280.1 54.1016 280.1C54.1682 279.967 54.2683 279.867 54.4016 279.8C54.7349 279.4 55.1016 279.067 55.5016 278.8C55.4349 278.8 55.3682 278.8 55.3016 278.8C55.3016 278.8 55.2683 278.8 55.2016 278.8C55.0683 278.8 54.9349 278.833 54.8016 278.9C54.5349 278.967 54.2682 279.033 54.0016 279.1C53.5349 279.233 53.0682 279.333 52.6016 279.4C52.6016 279.467 52.5682 279.533 52.5016 279.6C52.5016 279.667 52.4349 279.7 52.3016 279.7C52.2016 279.8 52.1016 279.7 52.0016 279.6C52.0016 279.533 52.0016 279.467 52.0016 279.4C52.0682 279.333 52.1016 279.3 52.1016 279.3C52.2349 279.233 52.3682 279.233 52.5016 279.3C52.5016 279.3 52.5349 279.333 52.6016 279.4C52.8015 279.333 53.0016 279.267 53.2016 279.2C53.6016 279.067 54.0016 278.967 54.4016 278.9C54.6016 278.833 54.8016 278.767 55.0016 278.7C55.0682 278.7 55.1682 278.7 55.3016 278.7C55.3016 278.7 55.3349 278.7 55.4016 278.7C55.2016 278.567 55.0349 278.467 54.9016 278.4C54.7683 278.333 54.6349 278.267 54.5016 278.2L54.4016 278.1V278C54.4016 277.9 54.5015 277.9 54.6016 277.8C54.6682 277.8 54.7683 277.767 54.9016 277.7C55.1016 277.633 55.3016 277.567 55.5016 277.5C55.6349 277.5 55.7349 277.467 55.8016 277.4C55.8682 277.4 55.9349 277.4 56.0016 277.4C55.6016 277.2 55.2016 277 54.8016 276.8V276.7C55.4016 276.5 55.9016 276.2 56.5016 276.1C56.9682 275.967 57.4349 275.9 57.9016 275.9C58.3683 275.967 58.8016 276.1 59.2016 276.3C60.0016 276.7 60.7016 277.3 61.3016 278C61.3016 278 61.3349 278.033 61.4016 278.1C61.4683 278.1 61.5016 278.133 61.5016 278.2C61.5016 278.2 61.5016 278.233 61.5016 278.3C63.7682 277.9 66.0349 277.633 68.3016 277.5C70.6349 277.3 72.9682 277.2 75.3016 277.2C77.4349 277.2 79.5683 277.3 81.7016 277.5C80.3016 276.967 78.9349 276.5 77.6016 276.1C74.6016 275.1 71.5349 274.267 68.4016 273.6C65.3349 272.933 62.2349 272.433 59.1016 272.1C58.7682 272.033 58.4016 271.967 58.0016 271.9C57.9349 271.967 57.8682 272 57.8016 272C57.8016 272 57.7683 272 57.7016 272C57.7016 272.1 57.6016 272.1 57.6016 272.1C57.6016 272.167 57.6016 272.2 57.6016 272.2C57.0682 272.667 56.5349 273.1 56.0016 273.5C55.4016 273.9 54.8016 274.267 54.2016 274.6C53.6016 274.933 52.9682 275.2 52.3016 275.4C51.6349 275.667 50.9682 275.867 50.3016 276C49.5682 276.133 48.8683 276.2 48.2016 276.2C48.1016 276.2 48.1016 276.1 48.1016 276.1C48.1682 276.033 48.2349 275.967 48.3016 275.9C48.8349 275.367 49.4016 274.9 50.0016 274.5C50.6016 274.1 51.2349 273.733 51.9016 273.4C52.5016 273.133 53.1349 272.867 53.8016 272.6C54.5349 272.4 55.2349 272.233 55.9016 272.1C56.4349 271.967 56.9682 271.9 57.5016 271.9C56.4349 271.767 55.3682 271.667 54.3016 271.6C54.3016 271.6 54.2683 271.6 54.2016 271.6C53.0683 271.533 51.9349 271.5 50.8016 271.5H50.7016C49.9683 271.9 49.2349 272.233 48.5016 272.5C47.7682 272.7 47.0016 272.867 46.2016 273C45.4683 273.133 44.7016 273.233 43.9016 273.3C43.1016 273.3 42.3349 273.267 41.6016 273.2C40.8016 273.067 40.0349 272.9 39.3016 272.7C39.2016 272.7 39.2016 272.6 39.3016 272.6C39.3682 272.533 39.4349 272.467 39.5016 272.4C40.2349 272.067 41.0016 271.767 41.8016 271.5C42.5349 271.3 43.3015 271.133 44.1016 271C44.9016 270.867 45.7016 270.8 46.5016 270.8C47.3016 270.8 48.1016 270.833 48.9016 270.9C49.5683 270.967 50.2016 271.1 50.8016 271.3H51.0016C51.0682 271.367 51.1349 271.4 51.2016 271.4C52.0683 271.4 52.9016 271.433 53.7016 271.5C53.1016 271.3 52.5349 271.067 52.0016 270.8C51.3349 270.467 50.7349 270.1 50.2016 269.7C49.6016 269.3 49.0682 268.867 48.6016 268.4C48.0682 267.933 47.5682 267.4 47.1016 266.8C46.7016 266.267 46.3349 265.7 46.0016 265.1C45.9016 265 46.0016 265 46.1016 265C46.1682 265.067 46.2349 265.1 46.3016 265.1C46.9682 265.367 47.6349 265.633 48.3016 265.9C48.9016 266.233 49.5015 266.633 50.1016 267.1C50.7016 267.5 51.2682 267.933 51.8016 268.4C52.3349 268.933 52.8016 269.467 53.2016 270C53.6016 270.467 53.9349 270.967 54.2016 271.5C56.2016 271.633 58.2016 271.833 60.2016 272.1C63.2683 272.433 66.3016 272.967 69.3016 273.7C68.7016 273.5 68.1349 273.233 67.6016 272.9C66.9349 272.633 66.3349 272.3 65.8016 271.9C65.2016 271.5 64.6349 271.067 64.1016 270.6C63.6349 270.067 63.1683 269.533 62.7016 269C62.2349 268.467 61.8349 267.9 61.5016 267.3C61.5016 267.2 61.6016 267.2 61.6016 267.2C61.6682 267.2 61.7683 267.233 61.9016 267.3C62.5683 267.5 63.2349 267.767 63.9016 268.1C64.5016 268.433 65.1016 268.8 65.7016 269.2C66.3016 269.667 66.8349 270.133 67.3016 270.6C67.8349 271.133 68.3349 271.667 68.8016 272.2C69.1349 272.667 69.4682 273.133 69.8016 273.6C69.8016 273.6 69.9016 273.8 69.8016 273.8C69.8682 273.8 69.9016 273.8 69.9016 273.8C72.9016 274.467 75.8349 275.3 78.7016 276.3C79.9016 276.7 81.0683 277.1 82.2016 277.5C82.3349 277.5 82.4349 277.533 82.5016 277.6C80.8016 276 79.0016 274.5 77.1016 273.1C74.5682 271.3 71.9349 269.7 69.2016 268.3C66.6016 267.033 63.9016 265.933 61.1016 265C61.1016 265 61.0682 265 61.0016 265C61.0016 265.067 60.9683 265.1 60.9016 265.1C60.8349 265.1 60.8016 265.1 60.8016 265.1C60.6682 265.167 60.5682 265.2 60.5016 265.2C60.4016 265.7 60.1016 266 59.7016 266.2C59.3683 266.4 59.0016 266.567 58.6016 266.7C58.2682 266.9 57.9016 267.033 57.5016 267.1C56.7016 267.3 55.9016 267.433 55.1016 267.5C55.0015 267.5 55.1016 267.4 55.1016 267.3C55.4349 266.967 55.7682 266.633 56.1016 266.3C55.8349 266.233 55.5682 266.133 55.3016 266C55.1016 265.933 54.8682 265.867 54.6016 265.8C54.4682 265.733 54.3682 265.667 54.3016 265.6C54.2016 265.5 54.1016 265.4 54.1016 265.3C54.1016 265.2 54.2016 265.1 54.2016 265.1C54.3349 265.033 54.4682 264.967 54.6016 264.9C54.8015 264.833 55.0016 264.767 55.2016 264.7C55.2016 264.7 55.2016 264.667 55.2016 264.6C55.1349 264.667 55.1016 264.7 55.1016 264.7C55.0349 264.7 54.9683 264.7 54.9016 264.7C54.8349 264.7 54.8016 264.7 54.8016 264.7C54.6682 264.633 54.5349 264.6 54.4016 264.6C54.0016 264.533 53.6016 264.467 53.2016 264.4C52.8683 264.267 52.5349 264.167 52.2016 264.1C52.2016 264.1 52.2016 264.133 52.2016 264.2C52.1349 264.267 52.0682 264.3 52.0016 264.3C51.9349 264.367 51.9016 264.367 51.9016 264.3C51.8349 264.3 51.8016 264.3 51.8016 264.3C51.7349 264.233 51.6682 264.2 51.6016 264.2C51.6016 264.067 51.6016 264 51.6016 264C51.6682 263.933 51.7349 263.867 51.8016 263.8C51.8682 263.8 51.9349 263.833 52.0016 263.9C52.0682 263.9 52.1349 263.933 52.2016 264C52.3349 264.067 52.5016 264.1 52.7016 264.1C53.1016 264.233 53.5016 264.333 53.9016 264.4C54.1016 264.4 54.3016 264.433 54.5016 264.5C54.6349 264.5 54.7349 264.5 54.8016 264.5C54.8682 264.567 54.9349 264.6 55.0016 264.6C54.5349 264.333 54.1683 263.967 53.9016 263.5C53.8349 263.5 53.7683 263.5 53.7016 263.5C53.7016 263.4 53.7016 263.3 53.7016 263.3C53.8349 263.233 53.9682 263.2 54.1016 263.2C54.5682 263 55.0349 262.867 55.5016 262.8C55.4349 262.733 55.4016 262.7 55.4016 262.7C55.3349 262.7 55.2683 262.7 55.2016 262.7C55.0683 262.633 54.9349 262.6 54.8016 262.6C54.6016 262.533 54.3682 262.467 54.1016 262.4C53.5682 262.333 53.0682 262.233 52.6016 262.1C52.6016 262.167 52.5682 262.2 52.5016 262.2C52.4349 262.267 52.3682 262.267 52.3016 262.2C52.1016 262.2 52.0016 262.1 52.0016 262C52.0016 261.933 52.0349 261.867 52.1016 261.8C52.1682 261.733 52.2349 261.7 52.3016 261.7C52.4349 261.7 52.5349 261.767 52.6016 261.9C52.6016 261.9 52.6016 261.933 52.6016 262C52.8015 262.067 53.0349 262.1 53.3016 262.1C53.7016 262.167 54.1016 262.267 54.5016 262.4C54.7016 262.4 54.9016 262.433 55.1016 262.5C55.1682 262.5 55.2349 262.533 55.3016 262.6C55.3682 262.6 55.4349 262.6 55.5016 262.6C55.3682 262.467 55.2349 262.3 55.1016 262.1C55.0349 262.033 54.9683 261.933 54.9016 261.8C54.9016 261.8 54.8016 261.7 54.8016 261.6C54.9016 261.5 55.0015 261.5 55.1016 261.5C55.2349 261.5 55.3349 261.5 55.4016 261.5C55.6683 261.567 55.9016 261.6 56.1016 261.6C56.1682 261.667 56.2683 261.7 56.4016 261.7C56.4683 261.7 56.5016 261.7 56.5016 261.7C56.2349 261.367 56.0016 261.033 55.8016 260.7C55.7016 260.7 55.8016 260.6 55.8016 260.6C56.4016 260.6 57.0016 260.7 57.6016 260.8C58.0682 260.867 58.5016 261.033 58.9016 261.3C59.3016 261.5 59.6349 261.8 59.9016 262.2C60.5016 262.9 60.9016 263.7 61.0016 264.6C61.0682 264.667 61.1016 264.7 61.1016 264.7C61.1682 264.767 61.2016 264.833 61.2016 264.9C61.2016 264.9 61.2016 264.933 61.2016 265C61.3349 265 61.5016 265.033 61.7016 265.1C64.6016 266.1 67.5016 267.3 70.2016 268.7C70.4683 268.833 70.7682 268.967 71.1016 269.1C70.5016 268.767 69.9349 268.367 69.4016 267.9C68.9349 267.433 68.4682 266.9 68.0016 266.3C67.5349 265.767 67.1349 265.2 66.8016 264.6C66.4682 264 66.1683 263.367 65.9016 262.7C65.8016 262.7 65.9016 262.6 66.0016 262.7ZM57.3016 261.3C58.1016 261.7 58.9016 262.2 59.6016 262.8C59.8682 263.067 60.1349 263.367 60.4016 263.7C60.5349 263.9 60.6682 264.1 60.8016 264.3C60.7349 263.967 60.6349 263.6 60.5016 263.2C60.1016 262.4 59.5016 261.7 58.7016 261.3C57.9016 260.9 57.0016 260.8 56.1016 260.8C56.5016 260.933 56.9016 261.1 57.3016 261.3ZM57.1016 262.2C57.2349 262.4 57.4016 262.533 57.6016 262.6C57.6682 262.6 57.7683 262.6 57.9016 262.6C58.1016 262.7 58.4016 262.8 58.6016 262.9C59.2016 263.1 59.7349 263.4 60.2016 263.8C60.3349 263.867 60.4682 263.967 60.6016 264.1C60.4682 263.967 60.3349 263.8 60.2016 263.6C59.7016 263 59.0016 262.4 58.3016 262C57.9016 261.733 57.5016 261.5 57.1016 261.3C56.7016 261.167 56.3349 261 56.0016 260.8C56.2016 261.133 56.4349 261.433 56.7016 261.7C56.8349 261.9 56.9682 262.067 57.1016 262.2ZM56.0016 262.1C56.2016 262.233 56.4016 262.333 56.6016 262.4C56.8016 262.467 57.0016 262.567 57.2016 262.7C57.2683 262.7 57.3016 262.7 57.3016 262.7C57.3016 262.7 57.3349 262.7 57.4016 262.7C57.2683 262.633 57.1682 262.533 57.1016 262.4C56.9682 262.267 56.8349 262.1 56.7016 261.9C56.7016 261.9 56.6682 261.9 56.6016 261.9C56.5349 261.9 56.4349 261.867 56.3016 261.8C56.2349 261.8 56.1349 261.767 56.0016 261.7C55.8016 261.7 55.6016 261.7 55.4016 261.7C55.3349 261.633 55.2349 261.6 55.1016 261.6C55.1016 261.6 55.0682 261.6 55.0016 261.6C55.3349 261.8 55.6682 261.967 56.0016 262.1ZM55.6016 262.7C55.8682 262.7 56.1016 262.7 56.3016 262.7C56.4349 262.7 56.5683 262.7 56.7016 262.7C56.8349 262.767 56.9682 262.767 57.1016 262.7C56.9016 262.633 56.7349 262.567 56.6016 262.5C56.4016 262.433 56.2016 262.367 56.0016 262.3C55.6682 262.1 55.3349 261.933 55.0016 261.8C55.1349 261.933 55.2349 262.067 55.3016 262.2C55.4349 262.4 55.5349 262.567 55.6016 262.7ZM60.6016 264.8C60.6016 264.8 60.6349 264.8 60.7016 264.8C60.8349 264.8 60.9349 264.833 61.0016 264.9C61.0016 264.833 61.0016 264.8 61.0016 264.8C61.0016 264.867 60.9683 264.867 60.9016 264.8C60.9016 264.733 60.9016 264.667 60.9016 264.6C60.5016 264.2 60.0682 263.867 59.6016 263.6C59.2016 263.3 58.7016 263 58.1016 262.8C57.9016 262.7 57.6016 262.7 57.4016 262.8C57.2683 262.867 57.1349 262.9 57.0016 262.9C56.8682 262.9 56.7349 262.9 56.6016 262.9C55.7016 262.8 54.8016 263 53.9016 263.4C54.3683 263.533 54.8349 263.667 55.3016 263.8C56.2016 264.1 57.2016 264.3 58.1016 264.4C58.9682 264.533 59.8016 264.667 60.6016 264.8ZM60.8016 265C60.3349 264.933 59.8683 264.867 59.4016 264.8C58.4016 264.6 57.4016 264.5 56.5016 264.3C55.6349 264.1 54.8016 263.867 54.0016 263.6C54.0682 263.6 54.1016 263.633 54.1016 263.7C54.5015 264.1 54.9349 264.4 55.4016 264.6C55.6683 264.733 55.9349 264.833 56.2016 264.9C56.3016 264.9 56.5016 265 56.6016 265C56.7016 265.1 56.7016 265.2 56.8016 265.3C57.1016 265.8 57.7016 265.8 58.2016 265.7C58.8016 265.633 59.3349 265.533 59.8016 265.4C59.9349 265.333 60.1016 265.267 60.3016 265.2C60.3016 265.2 60.3349 265.2 60.4016 265.2C60.4683 265.133 60.5349 265.1 60.6016 265.1C60.6682 265.033 60.7349 265 60.8016 265ZM56.2016 266.2C56.4016 266 56.6016 265.833 56.8016 265.7C56.6016 265.7 56.4016 265.667 56.2016 265.6C56.0016 265.6 55.7682 265.567 55.5016 265.5C55.1016 265.433 54.6683 265.367 54.2016 265.3C54.2683 265.367 54.3016 265.4 54.3016 265.4C54.5016 265.6 54.7016 265.7 54.9016 265.7C55.3683 265.9 55.8016 266.067 56.2016 266.2ZM60.5016 265.2C60.4349 265.267 60.4016 265.3 60.4016 265.3C60.0016 265.5 59.6349 265.667 59.3016 265.8C58.6349 266.133 57.9682 266.433 57.3016 266.7C56.9682 266.767 56.6016 266.867 56.2016 267C56.0683 267.067 55.9016 267.133 55.7016 267.2C55.5683 267.267 55.4349 267.3 55.3016 267.3C55.6349 267.3 56.0016 267.267 56.4016 267.2C57.2016 267.133 57.9349 266.933 58.6016 266.6C59.0016 266.467 59.3683 266.3 59.7016 266.1C60.0016 265.9 60.4016 265.6 60.5016 265.2ZM55.4016 267.2C55.5349 267.133 55.6682 267.1 55.8016 267.1C56.0016 267.033 56.1682 266.967 56.3016 266.9C57.0016 266.6 57.7016 266.4 58.4016 266.1C58.8016 265.967 59.1682 265.8 59.5016 265.6C59.0016 265.7 58.5016 265.9 57.9016 265.9C57.7016 265.9 57.4016 265.9 57.1016 265.8C57.1016 265.8 57.0682 265.767 57.0016 265.7C56.4682 266.167 55.9349 266.667 55.4016 267.2ZM54.2016 265.3C54.6683 265.3 55.1016 265.333 55.5016 265.4C55.7682 265.467 56.0016 265.5 56.2016 265.5C56.4016 265.567 56.6016 265.6 56.8016 265.6C56.7349 265.533 56.7016 265.467 56.7016 265.4C56.6349 265.333 56.6016 265.267 56.6016 265.2C56.5016 265.1 56.3016 265.1 56.2016 265C56.0683 265 55.9349 264.967 55.8016 264.9C55.6016 264.833 55.4349 264.767 55.3016 264.7C55.1016 264.833 54.8682 264.967 54.6016 265.1C54.5349 265.1 54.4349 265.133 54.3016 265.2C54.2349 265.2 54.2016 265.233 54.2016 265.3ZM69.3016 273.5C68.8349 273.033 68.3683 272.633 67.9016 272.3C67.3683 271.833 66.8349 271.4 66.3016 271C65.7682 270.6 65.2349 270.2 64.7016 269.8C64.1683 269.4 63.6349 269 63.1016 268.6C62.8349 268.4 62.5682 268.2 62.3016 268C62.1016 267.8 61.9349 267.6 61.8016 267.4C62.1349 268 62.5349 268.567 63.0016 269.1C63.4682 269.633 63.9349 270.133 64.4016 270.6C64.9349 271.067 65.5016 271.5 66.1016 271.9C66.6349 272.3 67.2349 272.633 67.9016 272.9C68.3683 273.1 68.8349 273.3 69.3016 273.5ZM69.6016 273.6C69.2682 273.067 68.9016 272.567 68.5016 272.1C68.0349 271.5 67.5682 270.967 67.1016 270.5C66.5682 270.033 66.0016 269.6 65.4016 269.2C64.8016 268.8 64.1682 268.433 63.5016 268.1C62.9682 267.833 62.4016 267.6 61.8016 267.4C62.3349 267.867 62.8683 268.3 63.4016 268.7C63.9349 269.1 64.4682 269.5 65.0016 269.9C65.5349 270.3 66.0682 270.7 66.6016 271.1C67.1349 271.5 67.6683 271.9 68.2016 272.3C68.6683 272.7 69.1349 273.133 69.6016 273.6ZM53.7016 271.3C53.3016 270.9 52.8349 270.5 52.3016 270.1C51.8349 269.633 51.3016 269.233 50.7016 268.9C50.1683 268.5 49.6349 268.1 49.1016 267.7C48.5682 267.3 48.0349 266.867 47.5016 266.4C47.2349 266.2 47.0016 266 46.8016 265.8C46.6016 265.6 46.4016 265.433 46.2016 265.3C46.6016 265.9 47.0016 266.467 47.4016 267C47.8683 267.533 48.3683 268.033 48.9016 268.5C49.3683 268.967 49.9016 269.367 50.5016 269.7C51.1016 270.1 51.7016 270.467 52.3016 270.8C52.7682 271 53.2349 271.167 53.7016 271.3ZM54.1016 271.4C53.7682 270.867 53.4016 270.367 53.0016 269.9C52.5349 269.367 52.0349 268.833 51.5016 268.3C50.9682 267.833 50.4016 267.4 49.8016 267C49.2016 266.6 48.6016 266.233 48.0016 265.9C47.4016 265.633 46.8349 265.4 46.3016 265.2C46.7682 265.667 47.2682 266.1 47.8016 266.5C48.3349 266.9 48.8683 267.3 49.4016 267.7C49.9349 268.1 50.4682 268.5 51.0016 268.9C51.6016 269.3 52.1349 269.7 52.6016 270.1C53.0682 270.5 53.5349 270.933 54.0016 271.4C54.0016 271.4 54.0349 271.4 54.1016 271.4ZM57.3016 272.2C56.7016 272.4 56.1349 272.633 55.6016 272.9C54.9349 273.167 54.3016 273.433 53.7016 273.7C53.1016 274.033 52.5016 274.333 51.9016 274.6C51.3016 274.867 50.7016 275.133 50.1016 275.4C49.7682 275.533 49.4349 275.667 49.1016 275.8C48.9016 275.867 48.6683 275.933 48.4016 276C49.1349 276 49.8349 275.933 50.5016 275.8C51.1682 275.667 51.8349 275.467 52.5016 275.2C53.1682 274.933 53.8016 274.633 54.4016 274.3C55.0016 273.967 55.5682 273.6 56.1016 273.2C56.5016 272.933 56.9016 272.6 57.3016 272.2ZM57.6016 272C56.9349 272.067 56.3016 272.133 55.7016 272.2C54.9683 272.4 54.2682 272.6 53.6016 272.8C52.9349 273.067 52.3016 273.367 51.7016 273.7C51.0349 274.033 50.4016 274.4 49.8016 274.8C49.3349 275.133 48.8683 275.533 48.4016 276C49.0683 275.733 49.7016 275.467 50.3016 275.2C50.9016 274.933 51.5015 274.667 52.1016 274.4C52.7016 274.067 53.3016 273.767 53.9016 273.5C54.5016 273.167 55.1349 272.9 55.8016 272.7C56.3349 272.433 56.9016 272.2 57.5016 272C57.5016 272 57.5349 272 57.6016 272ZM39.6016 272.6C40.3349 272.533 41.0682 272.467 41.8016 272.4C42.5349 272.333 43.3015 272.233 44.1016 272.1C44.8349 271.967 45.5682 271.833 46.3016 271.7C47.0349 271.633 47.7682 271.567 48.5016 271.5C48.9016 271.433 49.2682 271.4 49.6016 271.4C49.8015 271.4 49.9682 271.4 50.1016 271.4C50.3015 271.4 50.4682 271.4 50.6016 271.4C50.6016 271.4 50.6349 271.367 50.7016 271.3C49.9683 271.167 49.2682 271.067 48.6016 271C47.8015 270.933 47.0016 270.9 46.2016 270.9C45.4016 270.967 44.6016 271.067 43.8016 271.2C43.0016 271.333 42.2349 271.533 41.5016 271.8C40.8349 272 40.2016 272.267 39.6016 272.6ZM50.3016 271.5C49.6349 271.5 48.9682 271.533 48.3016 271.6C47.5016 271.667 46.7349 271.767 46.0016 271.9C45.2682 272.033 44.5349 272.167 43.8016 272.3C43.0682 272.367 42.3016 272.433 41.5016 272.5C41.1682 272.567 40.8016 272.6 40.4016 272.6C40.1349 272.6 39.8682 272.6 39.6016 272.6C40.3349 272.8 41.1016 272.933 41.9016 273C42.6349 273.067 43.4016 273.1 44.2016 273.1C45.0016 273.033 45.7682 272.933 46.5016 272.8C47.3016 272.667 48.0682 272.467 48.8016 272.2C49.3349 272 49.8349 271.767 50.3016 271.5ZM55.2016 276.7C55.6016 276.7 56.0016 276.7 56.4016 276.7C57.4016 276.7 58.3016 276.8 59.1016 277C59.5682 277.133 59.9682 277.3 60.3016 277.5C60.5016 277.567 60.7016 277.667 60.9016 277.8C60.7016 277.533 60.4683 277.267 60.2016 277C59.5016 276.5 58.6016 276.1 57.7016 276.1C56.8016 276 56.0016 276.4 55.2016 276.7ZM57.3016 277.8C57.3682 277.733 57.4682 277.667 57.6016 277.6C57.8016 277.5 58.1016 277.5 58.4016 277.5C58.9349 277.433 59.5016 277.467 60.1016 277.6C60.3016 277.667 60.5016 277.733 60.7016 277.8C60.5016 277.667 60.3016 277.567 60.1016 277.5C59.3016 277.1 58.5016 277 57.6016 276.9C57.1349 276.833 56.6683 276.8 56.2016 276.8C55.8016 276.8 55.4016 276.8 55.0016 276.8C55.4016 277 55.7682 277.167 56.1016 277.3C56.3016 277.433 56.5016 277.533 56.7016 277.6C56.9016 277.667 57.1016 277.733 57.3016 277.8ZM54.5016 278C54.9016 278 55.3016 278 55.7016 278C55.9016 278 56.1349 278 56.4016 278C56.6016 277.933 56.8016 277.9 57.0016 277.9C57.0016 277.9 57.0016 277.933 57.0016 278C57.0682 277.933 57.1349 277.867 57.2016 277.8C57.0016 277.867 56.8349 277.867 56.7016 277.8C56.5016 277.667 56.3016 277.567 56.1016 277.5C56.0349 277.5 55.9349 277.533 55.8016 277.6C55.6682 277.6 55.5682 277.6 55.5016 277.6C55.3016 277.667 55.1016 277.733 54.9016 277.8C54.8349 277.867 54.7683 277.9 54.7016 277.9C54.6349 277.967 54.5682 278 54.5016 278ZM54.3016 280C54.8349 280 55.3349 279.933 55.8016 279.8C56.7016 279.6 57.7016 279.4 58.6016 279.1C59.2682 278.9 59.9016 278.7 60.5016 278.5C60.5016 278.5 60.5349 278.467 60.6016 278.4C60.7349 278.4 60.8682 278.4 61.0016 278.4C61.1349 278.333 61.2683 278.267 61.4016 278.2C61.3349 278.267 61.3016 278.267 61.3016 278.2C61.2349 278.2 61.1682 278.167 61.1016 278.1C60.6349 277.9 60.1016 277.767 59.5016 277.7C59.0016 277.6 58.4016 277.6 57.9016 277.7C57.6016 277.7 57.4016 277.8 57.2016 278C57.1349 278.067 57.0349 278.133 56.9016 278.2C56.7683 278.267 56.6349 278.333 56.5016 278.4C55.7016 278.7 54.9016 279.3 54.3016 280ZM61.2016 278.5C60.7349 278.633 60.2682 278.767 59.8016 278.9C58.9016 279.2 58.0016 279.5 57.0016 279.7C56.2016 279.9 55.3682 280.067 54.5016 280.2C54.5682 280.2 54.6016 280.2 54.6016 280.2C55.1349 280.4 55.6683 280.5 56.2016 280.5C56.4683 280.5 56.7349 280.467 57.0016 280.4C57.2016 280.4 57.3016 280.3 57.4016 280.4C57.6016 280.4 57.7016 280.5 57.8016 280.5C58.3016 280.8 58.8016 280.5 59.3016 280.3C59.7016 279.967 60.1016 279.6 60.5016 279.2C60.6349 279.133 60.7349 279.033 60.8016 278.9C60.8016 278.9 60.8349 278.867 60.9016 278.8C60.9683 278.733 61.0349 278.667 61.1016 278.6C61.1016 278.533 61.1349 278.5 61.2016 278.5ZM55.6016 278.7C55.8016 278.567 56.0016 278.467 56.2016 278.4C56.3349 278.333 56.4349 278.267 56.5016 278.2C56.6349 278.2 56.7683 278.167 56.9016 278.1C56.7016 278.1 56.5016 278.1 56.3016 278.1C56.1016 278.1 55.9016 278.1 55.7016 278.1C55.3016 278.1 54.9349 278.1 54.6016 278.1C54.7349 278.167 54.9016 278.267 55.1016 278.4C55.2349 278.467 55.4016 278.567 55.6016 278.7ZM55.4016 281.6C55.8016 281.467 56.2349 281.333 56.7016 281.2C56.9016 281.067 57.1016 280.967 57.3016 280.9C57.5016 280.833 57.7016 280.767 57.9016 280.7C57.8349 280.7 57.7683 280.667 57.7016 280.6C57.6349 280.6 57.5682 280.567 57.5016 280.5C57.4016 280.4 57.3016 280.5 57.1016 280.5C56.9682 280.567 56.8349 280.6 56.7016 280.6C56.5016 280.6 56.3349 280.6 56.2016 280.6C56.0016 280.8 55.8349 281 55.7016 281.2C55.6349 281.333 55.5682 281.433 55.5016 281.5C55.4349 281.5 55.4016 281.533 55.4016 281.6ZM57.6016 281.5C57.7349 281.3 57.8682 281.067 58.0016 280.8C57.8016 280.867 57.6016 280.933 57.4016 281C57.1349 281.067 56.9016 281.167 56.7016 281.3C56.3016 281.433 55.9016 281.533 55.5016 281.6C55.5016 281.667 55.5349 281.7 55.6016 281.7C55.8016 281.8 56.0016 281.7 56.2016 281.7C56.6683 281.7 57.1349 281.633 57.6016 281.5ZM61.0016 278.8C61.0016 278.867 61.0016 278.9 61.0016 278.9C60.7349 279.233 60.4683 279.567 60.2016 279.9C59.8016 280.433 59.3349 280.967 58.8016 281.5C58.5349 281.767 58.2682 282.033 58.0016 282.3C57.8682 282.433 57.7349 282.567 57.6016 282.7C57.4682 282.767 57.3682 282.867 57.3016 283C57.6349 282.8 57.9682 282.6 58.3016 282.4C58.9016 281.933 59.4682 281.433 60.0016 280.9C60.2682 280.567 60.5016 280.267 60.7016 280C60.9016 279.6 61.1016 279.2 61.0016 278.8ZM57.3016 282.8C57.4349 282.733 57.5349 282.633 57.6016 282.5C57.7349 282.367 57.8682 282.233 58.0016 282.1C58.6016 281.6 59.1016 281.1 59.5016 280.5C59.8349 280.167 60.1016 279.833 60.3016 279.5C59.9016 279.9 59.5016 280.3 59.0016 280.5C58.8016 280.7 58.5016 280.8 58.3016 280.8C58.2349 280.8 58.1682 280.8 58.1016 280.8C57.8349 281.467 57.5682 282.133 57.3016 282.8ZM81.4016 277.9C80.8016 278.1 80.2349 278.333 79.7016 278.6C79.1016 278.8 78.5016 279.067 77.9016 279.4C77.3016 279.667 76.6682 279.967 76.0016 280.3C75.4016 280.567 74.8016 280.833 74.2016 281.1C73.9349 281.233 73.6349 281.367 73.3016 281.5C73.0349 281.567 72.8016 281.633 72.6016 281.7C73.2682 281.7 73.9349 281.6 74.6016 281.4C75.2682 281.267 75.9349 281.1 76.6016 280.9C77.2682 280.633 77.9016 280.333 78.5016 280C79.1016 279.667 79.7016 279.3 80.3016 278.9C80.7016 278.567 81.0683 278.233 81.4016 277.9ZM81.7016 277.7C81.0349 277.7 80.4016 277.767 79.8016 277.9C79.1349 278.033 78.4349 278.233 77.7016 278.5C77.0349 278.7 76.4016 278.967 75.8016 279.3C75.1349 279.633 74.5349 280.033 74.0016 280.5C73.4682 280.833 73.0016 281.2 72.6016 281.6C73.2015 281.4 73.8016 281.167 74.4016 280.9C75.0016 280.633 75.6016 280.333 76.2016 280C76.8016 279.733 77.4349 279.467 78.1016 279.2C78.7015 278.867 79.3016 278.567 79.9016 278.3C80.4349 278.1 81.0016 277.9 81.6016 277.7C81.6682 277.7 81.7016 277.7 81.7016 277.7ZM82.7016 277.7C82.7016 277.7 82.6682 277.7 82.6016 277.7C82.6682 277.7 82.7349 277.7 82.8016 277.7C82.7349 277.7 82.7016 277.7 82.7016 277.7ZM71.4016 269.2C71.8016 269.467 72.2349 269.7 72.7016 269.9C72.3683 269.433 71.9682 268.967 71.5016 268.5C71.0349 268.033 70.5682 267.567 70.1016 267.1C69.6349 266.633 69.1349 266.167 68.6016 265.7C68.1349 265.233 67.6683 264.767 67.2016 264.3C67.0016 264.033 66.8016 263.767 66.6016 263.5C66.4016 263.3 66.2349 263.1 66.1016 262.9C66.3682 263.567 66.7016 264.2 67.1016 264.8C67.4349 265.4 67.8349 265.967 68.3016 266.5C68.7682 267.033 69.2682 267.5 69.8016 267.9C70.2682 268.367 70.8016 268.8 71.4016 269.2ZM66.2016 262.9C66.6016 263.433 67.0349 263.933 67.5016 264.4C67.9682 264.867 68.4349 265.333 68.9016 265.8C69.4349 266.267 69.9349 266.733 70.4016 267.2C70.8683 267.667 71.3349 268.133 71.8016 268.6C72.2016 269.067 72.6016 269.567 73.0016 270.1C73.0016 270.1 73.0349 270.1 73.1016 270.1C72.8349 269.5 72.5349 268.933 72.2016 268.4C71.8016 267.8 71.3683 267.233 70.9016 266.7C70.4349 266.167 69.9349 265.633 69.4016 265.1C68.8683 264.633 68.3016 264.2 67.7016 263.8C67.2349 263.467 66.7349 263.167 66.2016 262.9Z" fill="#FF3333"/>
<path fill-rule="evenodd" clip-rule="evenodd" d="M110.201 284.1C110.801 284.5 111.334 284.933 111.8 285.4C112.8 286.4 113.6 287.6 114.1 288.9C114.367 289.567 114.6 290.233 114.8 290.9C114.867 291.1 114.934 291.3 115.001 291.5C115.001 291.633 115.034 291.8 115.1 292C115.1 292.133 115.034 292.267 114.901 292.4C114.701 292.467 114.534 292.533 114.401 292.6C112.901 293.3 111.501 294 110.001 294.5C108.601 294.9 107.1 295.2 105.6 295.1C104.4 295 103.101 294.7 102.201 293.8C101.801 293.3 101.401 292.8 101.401 292.2C101.334 291.8 101.367 291.433 101.501 291.1C101.634 290.767 101.834 290.467 102.1 290.2C102.8 289.3 103.801 288.8 104.901 288.6C104.767 288.4 104.667 288.2 104.6 288C104.4 287.4 104.3 286.8 104.3 286.1C104.4 285.5 104.6 284.8 105.1 284.2C105.8 283.3 107.2 283.1 108.3 283.4C109 283.5 109.601 283.8 110.201 284.1ZM109.201 291.3C108.601 291.3 107.9 291.2 107.1 291C107.034 290.933 106.934 290.9 106.8 290.9C106.6 290.833 106.467 290.8 106.401 290.8C106.267 290.733 106.101 290.7 105.901 290.7C105.834 290.7 105.767 290.767 105.701 290.9C105.701 290.967 105.734 291 105.8 291C106.334 291.267 107.034 291.733 107.901 292.4C107.701 292.467 107.5 292.467 107.3 292.4C107.1 292.4 106.867 292.4 106.6 292.4C106.467 292.333 106.3 292.3 106.1 292.3C105.834 292.233 105.634 292.2 105.501 292.2C105.501 292.2 105.467 292.267 105.401 292.4C105.401 292.467 105.401 292.5 105.401 292.5C105.467 292.567 105.501 292.6 105.501 292.6C106.167 292.867 106.634 293.1 106.901 293.3C107.567 293.7 107.934 293.933 108.001 294C108.201 294.133 108.334 294.2 108.401 294.2C108.467 294.267 108.534 294.233 108.6 294.1C108.734 294.033 108.767 293.967 108.701 293.9C108.367 293.633 107.834 293.3 107.1 292.9C107.234 292.9 107.434 292.9 107.701 292.9C107.901 292.9 108.067 292.9 108.201 292.9C108.401 292.833 108.534 292.7 108.6 292.5C108.667 292.433 108.634 292.367 108.501 292.3C108.501 292.233 108.434 292.167 108.3 292.1C107.967 291.9 107.734 291.733 107.6 291.6C107.667 291.6 107.834 291.633 108.1 291.7C108.367 291.767 108.567 291.8 108.701 291.8C108.834 291.8 108.967 291.767 109.1 291.7C109.167 291.633 109.201 291.567 109.201 291.5C109.267 291.367 109.267 291.3 109.201 291.3ZM108.201 288.7C108.067 288.633 107.867 288.633 107.6 288.7C107.4 288.7 107.234 288.8 107.1 289C106.967 289.2 106.901 289.3 106.901 289.3C106.834 289.367 106.767 289.433 106.701 289.5C106.701 289.567 106.734 289.7 106.8 289.9C106.867 290.033 106.967 290.133 107.1 290.2C107.367 290.467 107.634 290.633 107.901 290.7C108.167 290.767 108.4 290.767 108.6 290.7C108.867 290.5 109.034 290.3 109.1 290.1C109.1 290.1 109.1 290.067 109.1 290C109.1 289.6 108.901 289.2 108.501 288.8C108.434 288.733 108.334 288.7 108.201 288.7ZM110.6 286.2C110.067 286.2 109.4 286.1 108.6 285.9C108.534 285.833 108.434 285.8 108.3 285.8C108.1 285.733 107.967 285.7 107.901 285.7C107.701 285.633 107.534 285.6 107.401 285.6C107.334 285.533 107.267 285.567 107.201 285.7C107.201 285.833 107.234 285.9 107.3 285.9C107.834 286.167 108.534 286.633 109.401 287.3C109.201 287.367 109 287.367 108.8 287.3C108.534 287.3 108.3 287.3 108.1 287.3C107.967 287.233 107.8 287.167 107.6 287.1C107.334 287.1 107.134 287.1 107.001 287.1C106.934 287.1 106.901 287.167 106.901 287.3C106.901 287.367 106.901 287.4 106.901 287.4C106.967 287.467 107.001 287.5 107.001 287.5C107.667 287.767 108.134 287.967 108.401 288.1C109.067 288.567 109.434 288.833 109.501 288.9C109.701 289.033 109.8 289.1 109.8 289.1C109.934 289.167 110.034 289.133 110.1 289C110.167 288.933 110.201 288.867 110.201 288.8C109.867 288.533 109.334 288.2 108.6 287.8C108.734 287.8 108.9 287.8 109.1 287.8C109.367 287.8 109.567 287.8 109.701 287.8C109.901 287.733 110.034 287.6 110.1 287.4C110.167 287.333 110.134 287.267 110.001 287.2C110.001 287.133 109.901 287.067 109.701 287C109.434 286.733 109.234 286.567 109.1 286.5C109.167 286.5 109.334 286.533 109.6 286.6C109.867 286.667 110.067 286.7 110.201 286.7C110.334 286.7 110.434 286.667 110.501 286.6C110.634 286.533 110.701 286.467 110.701 286.4C110.767 286.267 110.734 286.2 110.6 286.2Z" fill="#FF3333"/>
<path d="M107.503 289.2C107.503 289.267 107.503 289.3 107.503 289.3C107.436 289.3 107.436 289.367 107.503 289.5C107.57 289.567 107.603 289.633 107.603 289.7C107.603 289.7 107.603 289.733 107.603 289.8C107.536 289.8 107.503 289.833 107.503 289.9C107.57 290.033 107.703 290.133 107.903 290.2C108.103 290.267 108.27 290.267 108.403 290.2C108.536 290.2 108.636 290.167 108.703 290.1C108.703 289.9 108.636 289.7 108.503 289.5C108.37 289.3 108.203 289.2 108.003 289.2C107.736 289.133 107.57 289.133 107.503 289.2Z" fill="#FF3333"/>
<path d="M74.4016 143.2C108.502 155.6 72.4016 218.3 72.4016 218.3L28.6016 204.6C28.6016 204.6 30.0016 127.1 74.4016 143.2Z" fill="#FF3333"/>
<path d="M74.4016 143.2C108.502 155.6 72.4016 218.3 72.4016 218.3L28.6016 204.6" stroke="#64EBB6" stroke-width="2" stroke-linecap="round" stroke-linejoin="round"/>
<path d="M135.402 9.49993C118.302 0.899925 97.0018 5.69994 85.0018 20.6999C74.0018 34.4999 73.4018 52.8999 81.6018 66.9999C82.1351 68.3333 82.7352 69.6666 83.4018 70.9999C58.3018 141.8 112.602 146.3 112.602 146.3C106.102 140.1 93.8018 125.9 92.9018 122.1C91.7018 116.1 95.5018 104.3 98.0018 97.7999L100.902 91.1999C110.202 98.4999 120.002 103 125.802 105.3C129.102 106.5 132.802 105.4 135.002 102.6C138.402 97.8999 157.102 58.8999 157.702 53.8999C160.902 36.5999 152.802 18.1999 135.402 9.49993Z" fill="#FFB4BA"/>
<path d="M137.603 7.59991C121.203 -4.10009 87.8031 8.19991 75.9031 23.0999C75.6031 23.4999 55.7031 128.6 55.7031 128.6C55.7031 128.6 74.9031 126.3 77.4031 122C79.9031 117.7 121.303 23.9999 121.303 23.9999C130.703 46.1999 143.503 58.6999 154.403 65.5999C155.903 60.9999 159.203 54.8999 159.603 51.3999C162.803 34.0999 153.403 18.8999 137.603 7.59991Z" fill="#371116"/>
<path d="M88.8047 54.4001C88.8047 47.9001 94.1047 42.6001 100.705 42.6001C107.205 42.6001 112.505 47.9001 112.505 54.4001C112.505 60.9001 107.205 66.2001 100.705 66.2001C94.1047 66.2001 88.8047 60.9001 88.8047 54.4001Z" fill="#FFB4BA"/>
<path d="M101.003 61.1998C100.536 60.6665 100.136 60.1332 99.8031 59.5998C101.403 55.4998 101.603 50.8998 99.7032 46.7998C99.7032 46.6998 99.3032 46.6998 99.4032 46.8998C100.303 50.7998 100.403 54.7998 99.2032 58.5998C98.2032 57.1998 97.5031 55.5998 97.1031 53.7998C96.5031 50.7998 97.0032 47.5998 98.2032 44.7998C98.2032 44.5998 97.9032 44.4998 97.9032 44.6998C96.3032 47.3998 95.8031 50.5998 96.3031 53.7998C96.8031 56.6998 98.2032 59.6998 100.403 61.5998C100.703 61.7998 101.303 61.5998 101.003 61.1998Z" fill="#371116"/>
<path d="M136.599 100.7C136.599 100.7 128.499 99.5997 129.699 90.6997" stroke="#64EBB6" stroke-width="1.5" stroke-linecap="round" stroke-linejoin="round"/>
<path d="M149.702 70.1997L144.302 94.3997C144.302 94.3997 137.602 94.0997 138.002 90.0997L149.702 70.1997Z" fill="#FE7880"/>
<path d="M119.797 24C118.497 29 118.097 34.3 116.997 39.4C115.897 44.5 114.397 49.6 111.897 54.2C109.397 58.8 105.897 62.7 102.497 66.6C98.9974 70.6 95.4975 74.6 92.3975 78.8C86.0975 87.1 80.7975 96.1 77.1975 105.9C73.3975 116 71.2974 126.9 65.7974 136.3C60.2974 146 50.2974 154.3 38.4974 152.5C37.9974 152.4 37.7974 153 38.2974 153.1C47.9974 155.2 57.5974 149.8 63.5974 142.4C70.3974 133.9 73.2974 123.2 76.5974 113.1C78.2974 107.7 80.1975 102.5 82.6975 97.4C85.0975 92.5 87.8974 87.9 90.9974 83.4C94.0974 79 97.3974 74.8 100.997 70.7C104.497 66.5 108.397 62.6 111.397 58C114.697 53 116.797 47.4 118.197 41.7C118.864 38.9 119.364 36.0667 119.697 33.2C120.097 30.2 120.497 27.1 120.497 24.1C120.497 23.7 119.797 23.7 119.797 24Z" fill="#490B14"/>
</svg>
