<svg width="216" height="449" viewBox="0 0 216 449" fill="none" xmlns="http://www.w3.org/2000/svg">
<path fill-rule="evenodd" clip-rule="evenodd" d="M5.09743 393.4C3.79743 389.8 2.69746 386.2 1.99746 382.5C-1.20254 366.4 1.49746 350.2 4.99746 334.4C8.79746 317 12.8974 299.8 11.5974 281.9C10.1974 263.4 5.7975 245.3 4.2975 226.9C2.8975 209.4 3.59743 191.6 9.09743 174.8C13.4974 161.2 20.6975 148.7 28.3975 136.6C37.9975 121.5 48.9975 106.5 56.8975 90.1999C64.4975 48.8999 68.0974 3.69987 106.097 0.999866C137.397 -1.10013 154.897 11.9999 164.497 26.0999C166.297 28.4332 167.964 30.8665 169.497 33.3999C176.897 45.6999 180.897 59.5998 182.497 73.7999C184.597 91.1999 183.298 108.8 181.798 126.2C180.197 144.2 178.797 162.2 177.997 180.2C177.131 197.8 176.531 215.4 176.198 233C187.798 265 202.398 296.7 206.798 330.8C208.898 347.6 208.398 364.9 202.798 381C201.898 383.8 200.697 386.6 199.397 389.3C172.497 426.6 138.198 449 100.698 449C64.6975 449 31.4974 428.3 5.09743 393.4ZM172.397 41.9999C175.197 50.4999 176.097 59.5999 175.397 68.6999C175.397 68.6999 171.897 212.8 175.597 231.1C175.597 229.967 175.597 228.867 175.597 227.8C175.197 209.9 175.798 192.1 176.698 174.3C177.698 156.6 179.197 139 180.597 121.4C181.997 104.2 182.997 86.6999 180.397 69.4999C178.997 59.9999 176.397 50.6999 172.397 41.9999Z" fill="#371116"/>
<path d="M162.498 196.5C151.898 183.8 102.198 134.9 82.998 120.4C81.6646 119.4 80.3646 118.6 79.098 118C77.598 122.9 69.898 144.6 43.998 151C40.798 159.8 37.898 171.2 37.798 183.9C37.598 198.1 54.998 286.2 57.298 297.8C47.598 314.4 29.198 348.2 30.998 363.1C32.698 377.1 35.698 405.8 37.798 426.6C56.998 441 78.2981 449 100.698 449C117.198 449 132.998 444.7 147.998 436.7L143.198 298.3H142.998L145.798 223.6C167.298 215.6 163.498 197.7 162.498 196.5Z" fill="#FFBB22"/>
<path d="M153.403 21.0999C137.503 10.4999 115.703 12.6999 102.103 26.1999C89.4026 38.5999 86.7026 56.7999 93.1026 71.7999C93.5026 73.1999 93.936 74.5999 94.4026 75.9999C61.1026 143.2 120.003 153.9 120.003 153.9C114.303 147 98.1027 131.7 97.8027 127.8C97.3027 121.7 102.503 110.5 105.703 104.3L109.403 98.0999C117.803 106.5 126.903 112.1 132.503 115C135.603 116.7 139.403 116 141.803 113.5C145.903 109.2 169.103 72.6999 170.203 67.8999C175.403 51.0999 169.603 31.7999 153.403 21.0999Z" fill="#FFB4BA"/>
<path d="M155.8 19.5C140.9 5.89998 106.3 14.1 92.7001 27.5C92.4001 27.9 60 129.8 60 129.8C60 129.8 79.3 129.9 82.4 125.9C85.4 121.9 137.7 33.9 137.7 33.9C144.4 57 155.6 70.9 165.6 79.1C167.6 74.7 171.6 69 172.4 65.6C177.6 48.8 170.1 32.6 155.8 19.5Z" fill="#371116"/>
<path d="M101.8 60.0999C102.6 53.5999 108.5 48.9998 115 49.7998C121.4 50.5998 126.1 56.4998 125.3 62.8998C124.5 69.3998 118.6 73.9998 112.1 73.2998C105.7 72.4998 101 66.5999 101.8 60.0999Z" fill="#FFB4BA"/>
<path d="M113.097 68.3997C112.697 67.7997 112.331 67.1997 111.997 66.5997C114.097 62.6997 114.897 58.0997 113.497 53.8997C113.497 53.6997 113.197 53.6997 113.197 53.8997C113.697 57.8997 113.197 61.8997 111.497 65.5997C110.797 63.9997 110.297 62.3997 110.097 60.4997C109.897 57.3997 110.697 54.2997 112.197 51.6997C112.297 51.4997 111.997 51.3997 111.897 51.4997C109.997 54.0997 109.197 57.1997 109.297 60.3997C109.497 63.2997 110.497 66.4997 112.397 68.6997C112.597 68.8997 113.297 68.6997 113.097 68.3997Z" fill="#371116"/>
<path d="M143.696 111.7C143.696 111.7 135.796 109.7 137.996 101" stroke="#371116" stroke-width="1.5" stroke-linecap="round" stroke-linejoin="round"/>
<path d="M160.302 83.1001L152.102 106.4C152.102 106.4 145.402 105.4 146.302 101.5L160.302 83.1001Z" fill="#F99780"/>
<path d="M135.398 34.4997C134.098 39.4997 133.798 44.7997 132.698 49.8997C131.598 54.9997 129.998 59.9997 127.498 64.5997C124.998 69.1997 121.598 73.1997 118.098 77.0997C114.598 80.9997 111.198 84.9997 107.998 89.2997C101.798 97.5997 96.4976 106.6 92.7976 116.4C89.0976 126.5 86.8975 137.4 81.4975 146.8C75.9975 156.4 65.8976 164.8 54.1976 163C53.6976 162.9 53.3976 163.5 53.8976 163.6C63.6976 165.6 73.2976 160.3 79.1976 152.9C85.9976 144.4 88.9976 133.7 92.1976 123.5C93.8976 118.2 95.8976 112.9 98.2976 107.9C100.698 103 103.598 98.3997 106.698 93.8997C109.698 89.4997 113.098 85.1997 116.598 81.1997C120.198 76.9997 123.998 72.9997 127.098 68.4997C130.398 63.4997 132.498 57.8997 133.798 52.1997C134.464 49.3997 134.998 46.5663 135.398 43.6997C135.798 40.6997 136.198 37.5997 136.098 34.4997C136.098 34.1997 135.498 34.0997 135.398 34.4997Z" fill="#490B14"/>
<path d="M179.797 145.6C179.797 145.6 216.197 148.8 215.297 182.3C214.497 215.8 176.697 231.9 176.697 231.9C176.697 231.9 65.797 305.7 56.697 271.3C47.697 236.8 91.3969 217.7 112.097 214.2C112.097 214.2 117.997 193.7 145.397 188.4L179.797 145.6Z" fill="#1C4188"/>
<path d="M201.997 169.6C201.197 157 190.297 147.3 177.597 148.1C172.597 148.4 167.997 150.3 164.397 153.3C164.33 153.3 164.297 153.3 164.297 153.3L164.197 153.5C159.097 157.8 155.897 164.4 155.997 171.5C150.997 172.3 143.897 178.1 143.797 183.4C143.797 190.4 161.397 212.7 191.797 191.1C197.797 186.9 200.397 182.8 200.597 179.1C201.697 176.1 202.197 173 201.997 169.6Z" fill="#FFB4BA"/>
<path fill-rule="evenodd" clip-rule="evenodd" d="M190.199 157C190.299 161.3 186.099 165.4 181.799 163.8C180.699 163.5 179.899 162.7 179.299 161.8C178.832 161.933 178.332 162 177.799 162C176.199 161.9 174.599 160.8 173.899 159.3C171.799 155.3 175.099 151.2 177.899 148.7C177.999 148.7 177.999 148.7 177.999 148.7C175.499 151.2 172.799 154.9 174.299 158.6C174.899 159.9 176.199 161.1 177.699 161.2C178.099 161.266 178.466 161.233 178.799 161.1C178.666 160.766 178.566 160.433 178.499 160.1C178.199 158.2 178.999 155.7 180.199 154.3C181.099 153.3 182.999 152.9 183.899 154.1C184.399 154.9 184.099 156 183.799 156.8C183.399 157.7 182.899 158.7 182.299 159.5C181.699 160.3 180.899 161 180.099 161.5C180.099 161.5 180.099 161.533 180.099 161.6C180.999 162.8 182.399 163.5 183.899 163.4C187.299 163.2 189.099 160 189.699 157C189.699 156.7 190.199 156.8 190.199 157ZM179.699 160.8C180.399 160.4 180.999 159.7 181.499 159.1C182.032 158.366 182.433 157.6 182.699 156.8C182.999 156.2 183.399 155.3 183.099 154.7C182.599 153.7 181.399 154.3 180.899 154.8C180.399 155.4 180.099 156.1 179.899 156.8C179.399 158.1 179.199 159.5 179.699 160.8Z" fill="#490B14"/>
<path d="M164.294 177.3C158.694 175.9 159.694 172.3 159.694 172.3L164.294 177.3Z" fill="#1C4188"/>
<path d="M152.695 176.5C153.095 177.2 155.895 185.3 165.495 184.5C165.495 184.5 165.195 187.4 167.195 188.3" stroke="#371116" stroke-linecap="round" stroke-linejoin="round"/>
<path d="M172.9 186.3C169.4 183.9 167.8 180.4 169.2 178.3C170.6 176.3 174.5 176.6 178 179C181.4 181.4 183 185 181.6 187C180.2 189 176.3 188.7 172.9 186.3Z" fill="#1C4188"/>
<path d="M190.398 185.8C190.398 181.7 193.698 178.3 197.798 178.3C201.898 178.3 205.198 181.7 205.198 185.8C205.198 189.9 201.898 193.2 197.798 193.2C193.698 193.2 190.398 189.9 190.398 185.8Z" fill="#FFB4BA"/>
<path d="M180.8 218.599L90.4 248.799L67.8 200.5L42.5 226.9C42.5 226.9 72.6 282.4 83.1 286C93.6 289.5 171.7 235.5 171.7 235.5C172.3 235.3 196.8 223.199 180.8 218.599Z" fill="#FFB4BA"/>
<path fill-rule="evenodd" clip-rule="evenodd" d="M109.3 244.499C109.367 244.499 109.467 244.466 109.6 244.399C110.267 244.199 110.967 244.033 111.7 243.899C112.367 243.833 113.067 243.766 113.8 243.699C114.533 243.699 115.267 243.733 116 243.799C116.667 243.933 117.367 244.099 118.1 244.299C118.633 244.433 119.167 244.599 119.7 244.799L119.8 244.899C119.9 244.899 119.8 244.999 119.8 244.999H119.7C121.633 244.533 123.6 244.199 125.6 243.999C127.6 243.699 129.7 243.599 131.8 243.499C133.4 242.166 135.067 240.899 136.8 239.699C138.7 238.299 140.6 236.999 142.6 235.899C142.7 235.899 142.7 235.999 142.7 235.999C142.433 236.133 142.167 236.266 141.9 236.399C139.967 237.599 138.067 238.899 136.2 240.299C134.733 241.299 133.333 242.366 132 243.499C132.067 243.499 132.133 243.466 132.2 243.399C133.733 242.799 135.233 242.233 136.7 241.699C139.7 240.633 142.733 239.699 145.8 238.899C145.8 238.899 145.9 238.999 145.8 239.099C145.467 239.166 145.1 239.266 144.7 239.399C141.6 240.199 138.6 241.099 135.6 242.299C134.6 242.633 133.633 242.999 132.7 243.399C133.433 243.399 134.2 243.366 135 243.299C137.9 243.199 140.9 243.199 143.9 243.299C146.9 243.399 149.9 243.699 152.8 244.299C152.9 244.299 152.9 244.399 152.8 244.399C152.467 244.333 152.1 244.266 151.7 244.199C148.8 243.699 145.8 243.499 142.9 243.399C139.9 243.299 136.9 243.399 133.9 243.499C133.367 243.566 132.833 243.599 132.3 243.599C131.967 243.733 131.633 243.866 131.3 243.999C131.3 244.066 131.267 244.099 131.2 244.099C131.2 244.166 131.2 244.199 131.2 244.199C131.2 244.199 131.2 244.299 131.2 244.399C131.2 245.066 131.133 245.766 131 246.499C130.867 247.166 130.7 247.833 130.5 248.499C130.233 249.166 129.967 249.799 129.7 250.399C129.367 251.066 129 251.666 128.6 252.199C128.2 252.799 127.733 253.333 127.2 253.799C127.2 253.899 127.1 253.799 127.1 253.799C127.1 253.666 127.1 253.566 127.1 253.499C127.167 252.766 127.267 252.066 127.4 251.399C127.533 250.666 127.733 249.966 128 249.299C128.2 248.633 128.467 247.966 128.8 247.299C129.133 246.699 129.5 246.099 129.9 245.499C130.167 245.166 130.4 244.866 130.6 244.599C128.867 246.066 127.2 247.599 125.6 249.199C123.933 250.799 122.333 252.466 120.8 254.199C119.533 255.733 118.3 257.299 117.1 258.899C117.033 258.899 117 258.899 117 258.899C117 258.966 117 258.999 117 258.999C117 259.066 117 259.133 117 259.199C117.067 259.333 117.1 259.433 117.1 259.499C117.5 259.699 117.6 260.199 117.7 260.599C117.767 260.999 117.8 261.399 117.8 261.799C117.8 262.199 117.8 262.599 117.8 262.999C117.733 263.799 117.567 264.566 117.3 265.299C117.3 265.399 117.2 265.299 117.2 265.299C116.933 264.899 116.733 264.466 116.6 263.999C116.4 264.199 116.2 264.399 116 264.599C115.867 264.799 115.7 264.999 115.5 265.199C115.433 265.333 115.367 265.433 115.3 265.499C115.2 265.499 115.1 265.599 115 265.599C114.9 265.499 114.8 265.399 114.8 265.299C114.8 265.166 114.8 265.066 114.8 264.999C114.8 264.733 114.767 264.499 114.7 264.299C114.7 264.366 114.7 264.399 114.7 264.399C114.7 264.466 114.667 264.533 114.6 264.599C114.6 264.599 114.6 264.633 114.6 264.699C114.533 264.833 114.467 264.933 114.4 264.999C114.2 265.399 114 265.766 113.8 266.099C113.6 266.366 113.4 266.633 113.2 266.899C113.2 266.899 113.2 266.933 113.2 266.999C113.267 266.999 113.3 267.066 113.3 267.199C113.3 267.266 113.3 267.299 113.3 267.299C113.233 267.366 113.2 267.399 113.2 267.399C113.133 267.466 113.067 267.499 113 267.499C112.933 267.499 112.867 267.466 112.8 267.399C112.8 267.333 112.8 267.266 112.8 267.199C112.8 267.133 112.833 267.066 112.9 266.999C112.967 266.933 113.033 266.899 113.1 266.899C113.167 266.766 113.267 266.633 113.4 266.499C113.6 266.099 113.8 265.733 114 265.399C114.133 265.199 114.233 265.033 114.3 264.899C114.367 264.766 114.433 264.666 114.5 264.599C114.5 264.533 114.5 264.499 114.5 264.499C114.567 264.433 114.6 264.399 114.6 264.399C114.133 264.733 113.667 264.999 113.2 265.199C113.133 265.199 113.1 265.233 113.1 265.299C113 265.299 113 265.299 113 265.199C112.933 265.066 112.9 264.966 112.9 264.899C112.9 264.366 112.933 263.866 113 263.399C113 263.399 112.967 263.433 112.9 263.499C112.9 263.499 112.867 263.533 112.8 263.599C112.733 263.733 112.667 263.833 112.6 263.899C112.467 264.166 112.333 264.399 112.2 264.599C111.933 264.999 111.667 265.399 111.4 265.799C111.467 265.866 111.5 265.933 111.5 265.999C111.5 266.066 111.467 266.133 111.4 266.199C111.4 266.299 111.2 266.399 111.1 266.399C111.033 266.333 111 266.266 111 266.199C110.933 266.133 110.933 266.066 111 265.999C111 265.933 111.067 265.866 111.2 265.799C111.267 265.799 111.333 265.799 111.4 265.799C111.467 265.599 111.567 265.433 111.7 265.299C111.9 264.899 112.1 264.533 112.3 264.199C112.433 263.999 112.533 263.833 112.6 263.699C112.667 263.633 112.733 263.533 112.8 263.399C112.8 263.399 112.833 263.366 112.9 263.299C112.7 263.366 112.5 263.433 112.3 263.499C112.167 263.566 112.033 263.599 111.9 263.599C111.9 263.599 111.8 263.599 111.7 263.599C111.6 263.499 111.7 263.399 111.7 263.299C111.767 263.233 111.833 263.133 111.9 262.999C111.967 262.799 112.067 262.599 112.2 262.399C112.2 262.333 112.233 262.266 112.3 262.199C112.367 262.133 112.4 262.066 112.4 261.999C112 262.133 111.6 262.266 111.2 262.399C111.2 262.399 111.1 262.399 111.1 262.299C111.3 261.799 111.6 261.299 111.8 260.799C112.067 260.333 112.4 259.933 112.8 259.599C113.133 259.333 113.533 259.133 114 258.999C114.8 258.699 115.8 258.599 116.6 258.799C116.667 258.799 116.7 258.799 116.7 258.799C116.833 258.733 116.933 258.733 117 258.799C118.4 256.933 119.833 255.166 121.3 253.499C122.833 251.766 124.433 250.099 126.1 248.499C127.633 246.966 129.233 245.533 130.9 244.199C129.567 244.799 128.267 245.399 127 245.999C124.133 247.399 121.367 248.933 118.7 250.599C116.033 252.266 113.433 254.066 110.9 255.999C110.633 256.266 110.367 256.499 110.1 256.699C110.033 256.766 109.967 256.833 109.9 256.899C109.9 256.899 109.9 256.933 109.9 256.999C110 256.999 109.9 257.099 109.9 257.099C109.9 257.833 109.833 258.533 109.7 259.199C109.567 259.933 109.4 260.633 109.2 261.299C109 261.966 108.733 262.599 108.4 263.199C108.067 263.799 107.7 264.399 107.3 264.999C106.9 265.533 106.467 266.066 106 266.599C105.9 266.699 105.9 266.599 105.9 266.499C105.9 266.433 105.9 266.366 105.9 266.299C105.9 265.566 105.967 264.833 106.1 264.099C106.3 263.433 106.5 262.766 106.7 262.099C106.967 261.366 107.267 260.699 107.6 260.099C107.933 259.433 108.3 258.833 108.7 258.299C108.967 257.833 109.3 257.399 109.7 256.999C108.833 257.666 108 258.366 107.2 259.099C107.2 259.099 107.167 259.099 107.1 259.099C106.233 259.833 105.4 260.599 104.6 261.399C104.6 261.399 104.6 261.499 104.5 261.499C104.3 262.299 104 263.033 103.6 263.699C103.267 264.366 102.867 265.033 102.4 265.699C101.933 266.366 101.433 266.966 100.9 267.499C100.367 268.033 99.7666 268.566 99.0999 269.099C98.4999 269.566 97.8667 269.966 97.2 270.299C97.1 270.399 97.0999 270.299 97.0999 270.199C97.0999 270.133 97.1333 270.033 97.2 269.899C97.4667 269.166 97.8 268.433 98.2 267.699C98.5333 267.033 98.9333 266.366 99.4 265.699C99.9333 265.033 100.467 264.433 101 263.899C101.6 263.299 102.2 262.766 102.8 262.299C103.333 261.899 103.9 261.533 104.5 261.199C104.5 261.199 104.6 261.099 104.6 261.199C104.667 261.133 104.733 261.066 104.8 260.999C105.4 260.466 106.033 259.899 106.7 259.299C106.1 259.633 105.5 259.899 104.9 260.099C104.233 260.299 103.567 260.433 102.9 260.499C102.233 260.633 101.533 260.699 100.8 260.699C100.133 260.766 99.4333 260.733 98.7 260.599C98.0333 260.533 97.3667 260.399 96.7 260.199C96.6 260.199 96.6 260.099 96.7 260.099C96.7667 260.033 96.8333 259.999 96.9 259.999C97.5666 259.666 98.2333 259.399 98.9 259.199C99.6333 258.999 100.333 258.833 101 258.699C101.733 258.566 102.467 258.499 103.2 258.499C103.867 258.499 104.567 258.566 105.3 258.699C105.9 258.766 106.467 258.866 107 258.999C107 258.999 107.033 258.999 107.1 258.999C108.567 257.733 110.1 256.466 111.7 255.199C114.167 253.399 116.733 251.666 119.4 249.999C118.8 250.333 118.2 250.599 117.6 250.799C116.933 250.999 116.267 251.166 115.6 251.299C114.867 251.366 114.167 251.399 113.5 251.399C112.767 251.466 112.067 251.433 111.4 251.299C110.733 251.233 110.033 251.099 109.3 250.899C109.3 250.899 109.3 250.799 109.4 250.799C109.467 250.733 109.533 250.699 109.6 250.699C110.267 250.366 110.933 250.099 111.6 249.899C112.267 249.699 112.967 249.533 113.7 249.399C114.433 249.266 115.133 249.199 115.8 249.199C116.533 249.199 117.267 249.266 118 249.399C118.6 249.466 119.167 249.566 119.7 249.699L119.8 249.799C122.467 248.199 125.2 246.733 128 245.399C129.067 244.866 130.167 244.366 131.3 243.899C131.367 243.766 131.467 243.666 131.6 243.599C129.2 243.699 126.9 243.899 124.5 244.199C121.5 244.666 118.533 245.366 115.6 246.299C112.8 247.166 110.1 248.266 107.5 249.599C107.5 249.599 107.467 249.599 107.4 249.599C107.4 249.666 107.4 249.699 107.4 249.699C107.333 249.766 107.3 249.833 107.3 249.899C107.233 249.966 107.2 250.033 107.2 250.099C107.2 250.099 107.2 250.133 107.2 250.199C107.5 250.499 107.4 250.999 107.3 251.399C107.167 251.799 107.033 252.199 106.9 252.599C106.7 252.933 106.5 253.266 106.3 253.599C105.9 254.266 105.433 254.899 104.9 255.499C104.8 255.499 104.8 255.499 104.8 255.399C104.733 254.933 104.733 254.466 104.8 253.999C104.533 254.133 104.267 254.233 104 254.299C103.8 254.433 103.567 254.533 103.3 254.599C103.167 254.666 103.067 254.699 103 254.699C102.9 254.799 102.8 254.799 102.7 254.699C102.6 254.599 102.6 254.499 102.6 254.399C102.667 254.266 102.7 254.166 102.7 254.099C102.833 253.899 102.933 253.666 103 253.399C103 253.466 102.967 253.499 102.9 253.499C102.967 253.499 102.967 253.499 102.9 253.499C102.9 253.566 102.867 253.599 102.8 253.599C102.733 253.666 102.7 253.699 102.7 253.699C102.567 253.833 102.467 253.933 102.4 253.999C102.067 254.199 101.7 254.399 101.3 254.599C101.033 254.799 100.733 254.966 100.4 255.099C100.467 255.099 100.5 255.133 100.5 255.199C100.5 255.266 100.5 255.333 100.5 255.399C100.5 255.399 100.467 255.433 100.4 255.499C100.333 255.566 100.3 255.599 100.3 255.599C100.233 255.599 100.167 255.599 100.1 255.599C100.033 255.533 99.9666 255.466 99.9 255.399C99.9 255.333 99.9333 255.266 99.9999 255.199C100.067 255.133 100.1 255.099 100.1 255.099C100.167 255.033 100.233 255.033 100.3 255.099C100.367 255.099 100.4 255.099 100.4 255.099C100.533 254.966 100.667 254.866 100.8 254.799C101.2 254.599 101.567 254.366 101.9 254.099C102.033 254.033 102.2 253.933 102.4 253.799C102.467 253.733 102.533 253.666 102.6 253.599C102.667 253.599 102.733 253.566 102.8 253.499C102.267 253.633 101.733 253.666 101.2 253.599C101.133 253.599 101.1 253.599 101.1 253.599C101 253.599 101 253.599 101 253.499C101 253.366 101.033 253.266 101.1 253.199C101.3 252.733 101.567 252.299 101.9 251.899C101.833 251.899 101.8 251.899 101.8 251.899C101.733 251.966 101.667 251.999 101.6 251.999C101.467 252.066 101.367 252.133 101.3 252.199C101.033 252.333 100.8 252.466 100.6 252.599C100.2 252.866 99.7666 253.133 99.3 253.399C99.3666 253.466 99.3666 253.533 99.3 253.599C99.3 253.666 99.2667 253.699 99.2 253.699C99.1 253.799 98.9 253.799 98.8 253.699C98.8 253.699 98.8 253.633 98.8 253.499C98.8 253.433 98.8333 253.399 98.9 253.399C98.9666 253.266 99.0667 253.233 99.2 253.299C99.2 253.299 99.2333 253.299 99.3 253.299C99.5 253.233 99.6666 253.133 99.8 252.999C100.133 252.733 100.5 252.499 100.9 252.299C101.033 252.166 101.2 252.066 101.4 251.999C101.467 251.933 101.533 251.866 101.6 251.799C101.667 251.799 101.733 251.799 101.8 251.799C101.6 251.733 101.4 251.699 101.2 251.699C101.067 251.633 100.933 251.599 100.8 251.599C100.7 251.599 100.7 251.599 100.6 251.499C100.6 251.399 100.7 251.299 100.7 251.299C100.767 251.166 100.867 251.066 101 250.999C101.133 250.866 101.3 250.766 101.5 250.699C101.567 250.633 101.667 250.566 101.8 250.499C101.8 250.499 101.833 250.466 101.9 250.399C101.5 250.333 101.067 250.266 100.6 250.199V250.099C101 249.699 101.5 249.299 102 248.999C102.4 248.733 102.833 248.533 103.3 248.399C103.767 248.333 104.2 248.299 104.6 248.299C105.5 248.399 106.4 248.799 107.1 249.299C107.167 249.366 107.2 249.399 107.2 249.399C107.333 249.399 107.4 249.433 107.4 249.499C107.467 249.499 107.5 249.499 107.5 249.499C107.633 249.433 107.8 249.333 108 249.199C110.7 247.899 113.6 246.699 116.5 245.899C116.833 245.766 117.167 245.666 117.5 245.599C116.833 245.733 116.133 245.799 115.4 245.799C114.733 245.799 114.033 245.766 113.3 245.699C112.633 245.633 111.967 245.499 111.3 245.299C110.633 245.166 109.967 244.933 109.3 244.599C109.2 244.599 109.3 244.499 109.3 244.499ZM102.1 249.599C103 249.299 103.9 249.099 104.8 249.099C105.2 249.033 105.633 249.033 106.1 249.099C106.3 249.166 106.533 249.233 106.8 249.299C106.467 249.099 106.133 248.933 105.8 248.799C104.9 248.499 104 248.399 103.2 248.599C102.3 248.899 101.6 249.399 100.9 249.999C101.3 249.866 101.7 249.733 102.1 249.599ZM102.7 250.399C102.9 250.399 103.1 250.366 103.3 250.299C103.3 250.233 103.367 250.166 103.5 250.099C103.7 249.899 103.9 249.799 104.2 249.699C104.733 249.499 105.3 249.366 105.9 249.299C106.1 249.299 106.3 249.299 106.5 249.299C106.3 249.233 106.1 249.199 105.9 249.199C105 249.099 104.2 249.199 103.3 249.399C102.9 249.466 102.467 249.566 102 249.699C101.6 249.833 101.2 249.966 100.8 250.099C101.2 250.166 101.6 250.233 102 250.299C102.2 250.299 102.433 250.333 102.7 250.399ZM101.8 251.099C102 250.966 102.233 250.866 102.5 250.799C102.633 250.733 102.8 250.666 103 250.599C103.067 250.599 103.1 250.599 103.1 250.599C103.1 250.533 103.133 250.499 103.2 250.499C103.067 250.499 102.9 250.499 102.7 250.499C102.5 250.499 102.3 250.466 102.1 250.399C102.1 250.399 102.1 250.433 102.1 250.499C102.033 250.499 101.933 250.533 101.8 250.599C101.733 250.666 101.633 250.733 101.5 250.799C101.367 250.866 101.233 250.966 101.1 251.099C100.967 251.166 100.867 251.233 100.8 251.299C100.8 251.366 100.767 251.399 100.7 251.399C101.1 251.266 101.467 251.166 101.8 251.099ZM102 251.799C102.133 251.599 102.267 251.433 102.4 251.299C102.533 251.166 102.633 251.066 102.7 250.999C102.833 250.933 102.933 250.833 103 250.699C102.8 250.833 102.633 250.933 102.5 250.999C102.3 251.066 102.1 251.133 101.9 251.199C101.567 251.333 101.2 251.433 100.8 251.499C101 251.566 101.167 251.599 101.3 251.599C101.567 251.666 101.8 251.733 102 251.799ZM107.2 249.799C106.8 250.066 106.4 250.333 106 250.599C105.2 251.199 104.5 251.799 103.6 252.299C102.867 252.766 102.133 253.166 101.4 253.499C101.467 253.499 101.5 253.499 101.5 253.499C102.1 253.499 102.633 253.433 103.1 253.299C103.367 253.166 103.633 253.033 103.9 252.899C104 252.899 104.1 252.799 104.2 252.799C104.4 252.699 104.5 252.799 104.6 252.799C105.2 252.899 105.6 252.499 105.9 252.099C106.233 251.633 106.533 251.166 106.8 250.699C106.867 250.566 106.933 250.433 107 250.299C107 250.299 107 250.266 107 250.199C107.067 250.133 107.1 250.066 107.1 249.999C107.167 249.933 107.2 249.866 107.2 249.799ZM102.7 254.599C103.033 254.333 103.4 254.066 103.8 253.799C103.933 253.599 104.1 253.433 104.3 253.299C104.5 253.166 104.667 253.066 104.8 252.999C104.733 252.999 104.667 252.966 104.6 252.899C104.533 252.899 104.467 252.899 104.4 252.899C104.2 252.899 104.1 252.899 104 252.999C103.867 253.066 103.733 253.133 103.6 253.199C103.467 253.266 103.3 253.333 103.1 253.399C103.033 253.666 102.933 253.899 102.8 254.099C102.8 254.233 102.767 254.366 102.7 254.499C102.7 254.499 102.7 254.533 102.7 254.599ZM104.8 253.799C104.8 253.533 104.833 253.266 104.9 252.999C104.7 253.133 104.533 253.266 104.4 253.399C104.2 253.533 104 253.666 103.8 253.799C103.467 254.066 103.133 254.333 102.8 254.599C102.8 254.599 102.833 254.599 102.9 254.599C103.1 254.599 103.3 254.499 103.5 254.399C103.967 254.199 104.4 253.999 104.8 253.799ZM104.9 255.099C104.967 254.966 105.033 254.866 105.1 254.799C105.167 254.599 105.233 254.399 105.3 254.199C105.7 253.599 106 252.899 106.3 252.299C106.433 251.899 106.567 251.499 106.7 251.099C106.5 251.599 106.2 251.999 105.8 252.399C105.6 252.599 105.4 252.799 105.1 252.899C105.1 252.899 105.067 252.899 105 252.899C104.933 253.633 104.9 254.366 104.9 255.099ZM107.2 250.199C107.2 250.199 107.167 250.233 107.1 250.299C106.967 250.699 106.833 251.099 106.7 251.499C106.5 252.166 106.233 252.799 105.9 253.399C105.7 253.733 105.533 254.066 105.4 254.399C105.267 254.599 105.167 254.766 105.1 254.899C105.033 255.033 104.967 255.166 104.9 255.299C105.167 255.033 105.4 254.733 105.6 254.399C106.067 253.799 106.467 253.133 106.8 252.399C107 252.066 107.133 251.733 107.2 251.399C107.3 250.999 107.4 250.499 107.2 250.199ZM106.9 249.799C106.9 249.799 106.933 249.799 107 249.799C107 249.733 107 249.699 107 249.699C107.133 249.633 107.233 249.566 107.3 249.499C107.3 249.566 107.267 249.599 107.2 249.599C107.133 249.533 107.067 249.499 107 249.499C106.467 249.433 105.933 249.466 105.4 249.599C104.8 249.699 104.3 249.799 103.8 250.099C103.6 250.199 103.4 250.299 103.3 250.599C103.233 250.666 103.167 250.766 103.1 250.899C102.967 250.966 102.867 251.066 102.8 251.199C102 251.799 101.5 252.499 101.2 253.399C101.6 253.199 102.033 252.999 102.5 252.799C103.3 252.299 104.1 251.799 104.9 251.199C105.567 250.733 106.233 250.266 106.9 249.799ZM119.2 249.899C118.6 249.899 118 249.933 117.4 249.999C116.733 250.066 116.067 250.166 115.4 250.299C114.733 250.366 114.067 250.433 113.4 250.499C112.733 250.633 112.067 250.733 111.4 250.799C111.067 250.799 110.733 250.799 110.4 250.799C110.133 250.866 109.867 250.866 109.6 250.799C110.267 250.999 110.967 251.133 111.7 251.199C112.367 251.266 113.067 251.299 113.8 251.299C114.467 251.233 115.133 251.166 115.8 251.099C116.533 250.966 117.2 250.766 117.8 250.499C118.333 250.366 118.8 250.166 119.2 249.899ZM119.6 249.799C118.933 249.666 118.3 249.566 117.7 249.499C116.967 249.366 116.267 249.333 115.6 249.399C114.867 249.399 114.133 249.466 113.4 249.599C112.733 249.733 112.067 249.899 111.4 250.099C110.8 250.299 110.233 250.533 109.7 250.799C110.367 250.733 111 250.666 111.6 250.599C112.267 250.533 112.933 250.466 113.6 250.399C114.267 250.266 114.933 250.166 115.6 250.099C116.267 250.033 116.933 249.966 117.6 249.899C118.267 249.833 118.9 249.799 119.5 249.799C119.5 249.799 119.533 249.799 119.6 249.799ZM106.6 259.199C105.933 259.199 105.3 259.233 104.7 259.299C104.033 259.366 103.367 259.466 102.7 259.599C102.033 259.666 101.367 259.733 100.7 259.799C100.033 259.933 99.3667 260.033 98.7 260.099C98.3667 260.099 98.0333 260.099 97.7 260.099C97.4333 260.166 97.1999 260.166 96.9999 260.099C97.6666 260.299 98.3333 260.433 98.9999 260.499C99.6666 260.566 100.367 260.599 101.1 260.599C101.767 260.533 102.467 260.433 103.2 260.299C103.867 260.233 104.533 260.066 105.2 259.799C105.667 259.666 106.133 259.466 106.6 259.199ZM106.9 259.099C106.3 258.966 105.667 258.866 105 258.799C104.333 258.666 103.633 258.633 102.9 258.699C102.167 258.699 101.467 258.766 100.8 258.899C100.067 259.033 99.3667 259.199 98.7 259.399C98.1 259.599 97.5333 259.833 96.9999 260.099C97.6666 260.033 98.3333 259.966 98.9999 259.899C99.6666 259.833 100.333 259.766 101 259.699C101.667 259.566 102.333 259.466 103 259.399C103.667 259.266 104.333 259.199 105 259.199C105.6 259.133 106.2 259.099 106.8 259.099C106.867 259.099 106.9 259.099 106.9 259.099ZM109.8 257.399C109.467 257.933 109.2 258.499 109 259.099C108.733 259.699 108.467 260.333 108.2 260.999C108 261.599 107.8 262.233 107.6 262.899C107.333 263.499 107.067 264.099 106.8 264.699C106.667 265.033 106.533 265.366 106.4 265.699C106.333 265.899 106.233 266.099 106.1 266.299C106.567 265.766 107 265.233 107.4 264.699C107.733 264.099 108.067 263.499 108.4 262.899C108.667 262.233 108.933 261.566 109.2 260.899C109.4 260.233 109.533 259.566 109.6 258.899C109.667 258.433 109.733 257.933 109.8 257.399ZM109.8 257.099C109.4 257.566 109 258.033 108.6 258.499C108.2 259.099 107.833 259.733 107.5 260.399C107.233 261.066 106.967 261.733 106.7 262.399C106.5 263.066 106.333 263.733 106.2 264.399C106.133 264.999 106.067 265.633 106 266.299C106.333 265.699 106.6 265.066 106.8 264.399C107.067 263.799 107.3 263.199 107.5 262.599C107.767 261.933 108 261.299 108.2 260.699C108.467 260.033 108.733 259.399 109 258.799C109.2 258.199 109.467 257.633 109.8 257.099ZM97.3 269.999C97.8333 269.466 98.3333 268.899 98.8 268.299C99.2666 267.699 99.7333 267.099 100.2 266.499C100.6 265.899 101.033 265.299 101.5 264.699C101.967 264.099 102.433 263.533 102.9 262.999C103.167 262.733 103.433 262.466 103.7 262.199C103.833 262.066 103.933 261.933 104 261.799C104.133 261.666 104.267 261.566 104.4 261.499C104.4 261.433 104.4 261.399 104.4 261.399C103.8 261.733 103.233 262.133 102.7 262.599C102.033 263.066 101.433 263.599 100.9 264.199C100.367 264.799 99.8666 265.433 99.4 266.099C98.9333 266.699 98.4999 267.366 98.0999 268.099C97.8332 268.699 97.5666 269.333 97.3 269.999ZM104.3 261.799C103.767 262.266 103.3 262.766 102.9 263.299C102.367 263.833 101.9 264.399 101.5 264.999C101.033 265.599 100.567 266.199 100.1 266.799C99.6332 267.399 99.1667 267.999 98.7 268.599C98.4333 268.866 98.1666 269.166 97.9 269.499C97.7666 269.699 97.6 269.866 97.4 269.999C98.0666 269.666 98.7 269.233 99.3 268.699C99.9 268.233 100.467 267.699 101 267.099C101.533 266.566 102 265.966 102.4 265.299C102.867 264.699 103.267 264.033 103.6 263.299C103.867 262.833 104.1 262.333 104.3 261.799ZM111.4 262.099C111.667 261.766 111.967 261.466 112.3 261.199C112.9 260.599 113.6 259.999 114.4 259.499C114.8 259.299 115.2 259.166 115.6 259.099C115.8 258.966 116.033 258.899 116.3 258.899C115.9 258.833 115.533 258.833 115.2 258.899C114.3 258.899 113.4 259.299 112.8 259.899C112.1 260.499 111.7 261.299 111.4 262.099ZM113.6 261.399C113.6 261.266 113.633 261.166 113.7 261.099C113.8 260.799 114 260.599 114.2 260.399C114.6 259.999 115.067 259.633 115.6 259.299C115.733 259.233 115.867 259.166 116 259.099C115.8 259.099 115.633 259.133 115.5 259.199C114.6 259.499 113.9 259.999 113.2 260.499C112.867 260.766 112.533 261.066 112.2 261.399C111.933 261.666 111.633 261.933 111.3 262.199C111.7 262.133 112.067 262.033 112.4 261.899C112.667 261.833 112.9 261.766 113.1 261.699C113.3 261.633 113.467 261.533 113.6 261.399ZM111.8 263.499C112.067 263.233 112.333 262.966 112.6 262.699C112.8 262.499 112.967 262.333 113.1 262.199C113.233 261.999 113.367 261.833 113.5 261.699C113.5 261.699 113.533 261.699 113.6 261.699C113.6 261.633 113.6 261.566 113.6 261.499C113.467 261.633 113.333 261.733 113.2 261.799C113 261.866 112.8 261.933 112.6 261.999C112.533 262.066 112.467 262.166 112.4 262.299C112.333 262.366 112.267 262.433 112.2 262.499C112.133 262.699 112.067 262.899 112 263.099C111.933 263.166 111.9 263.233 111.9 263.299C111.833 263.366 111.8 263.433 111.8 263.499ZM113.1 263.199C113.1 262.999 113.167 262.799 113.3 262.599C113.3 262.466 113.333 262.333 113.4 262.199C113.467 262.066 113.533 261.933 113.6 261.799C113.467 261.999 113.333 262.166 113.2 262.299C113 262.433 112.833 262.566 112.7 262.699C112.433 262.966 112.167 263.233 111.9 263.499C112.1 263.433 112.267 263.399 112.4 263.399C112.6 263.333 112.833 263.266 113.1 263.199ZM113.1 265.099C113.367 264.699 113.667 264.299 114 263.899C114.5 263.099 115 262.299 115.5 261.399C115.833 260.799 116.167 260.199 116.5 259.599C116.433 259.599 116.4 259.599 116.4 259.599C116.533 259.466 116.633 259.366 116.7 259.299C116.767 259.166 116.833 259.033 116.9 258.899C116.9 258.899 116.867 258.899 116.8 258.899C116.733 258.966 116.667 258.999 116.6 258.999C116.067 259.199 115.6 259.466 115.2 259.799C114.7 260.099 114.3 260.499 114 260.899C113.8 261.099 113.7 261.299 113.7 261.599C113.7 261.733 113.7 261.866 113.7 261.999C113.633 262.133 113.567 262.233 113.5 262.299C113.1 263.199 113 264.099 113.1 265.099ZM115 265.399C115.133 264.999 115.3 264.599 115.5 264.199C115.633 263.999 115.767 263.799 115.9 263.599C115.967 263.399 116.067 263.233 116.2 263.099C116.133 263.099 116.1 263.099 116.1 263.099C116.033 263.099 115.967 263.133 115.9 263.199C115.833 263.199 115.767 263.199 115.7 263.199C115.6 263.199 115.5 263.399 115.4 263.499C115.333 263.633 115.267 263.733 115.2 263.799C115.067 263.933 114.933 264.066 114.8 264.199C114.867 264.466 114.9 264.733 114.9 264.999C114.9 265.133 114.9 265.233 114.9 265.299C114.9 265.366 114.933 265.399 115 265.399ZM116.5 263.799C116.433 263.599 116.333 263.366 116.2 263.099C116.133 263.299 116.067 263.499 116 263.699C115.867 263.899 115.733 264.099 115.6 264.299C115.4 264.699 115.2 265.066 115 265.399C115.067 265.399 115.1 265.399 115.1 265.399C115.3 265.299 115.5 265.099 115.6 264.899C115.933 264.566 116.233 264.199 116.5 263.799ZM117.1 264.999C117.1 264.866 117.133 264.733 117.2 264.599C117.2 264.399 117.2 264.199 117.2 263.999C117.2 263.199 117.2 262.499 117.2 261.799C117.133 261.399 117.067 260.966 117 260.499C117 261.099 117 261.599 116.8 262.099C116.7 262.399 116.6 262.699 116.4 262.899C116.4 262.899 116.367 262.899 116.3 262.899C116.567 263.633 116.833 264.333 117.1 264.999ZM117.1 259.499C117.1 259.566 117.1 259.599 117.1 259.599C117.1 259.599 117.1 259.633 117.1 259.699C117.1 260.099 117.133 260.499 117.2 260.899C117.267 261.566 117.3 262.266 117.3 262.999C117.3 263.399 117.3 263.766 117.3 264.099C117.3 264.299 117.3 264.499 117.3 264.699C117.3 264.833 117.267 264.966 117.2 265.099C117.333 264.766 117.433 264.399 117.5 263.999C117.7 263.266 117.767 262.499 117.7 261.699C117.7 261.299 117.667 260.933 117.6 260.599C117.5 260.199 117.4 259.799 117.1 259.499ZM116.9 259.099C116.7 259.566 116.467 259.999 116.2 260.399C115.8 261.299 115.3 262.099 114.8 262.999C114.333 263.733 113.833 264.399 113.3 264.999C113.367 264.999 113.4 264.999 113.4 264.999C113.933 264.799 114.4 264.499 114.8 264.099C115 263.899 115.167 263.666 115.3 263.399C115.4 263.299 115.4 263.199 115.5 263.099C115.6 263.099 115.8 263.099 115.9 262.999C116.4 262.899 116.7 262.299 116.8 261.799C116.867 261.266 116.9 260.733 116.9 260.199C116.9 260.066 116.9 259.899 116.9 259.699C116.9 259.633 116.9 259.599 116.9 259.599C116.9 259.533 116.9 259.466 116.9 259.399C116.9 259.333 116.9 259.233 116.9 259.099ZM131 244.699C130.733 245.233 130.467 245.766 130.2 246.299C129.933 246.899 129.7 247.533 129.5 248.199C129.3 248.799 129.067 249.433 128.8 250.099C128.6 250.699 128.367 251.333 128.1 251.999C127.967 252.266 127.833 252.566 127.7 252.899C127.567 253.099 127.433 253.333 127.3 253.599C127.767 253.066 128.2 252.499 128.6 251.899C129 251.366 129.333 250.766 129.6 250.099C129.933 249.499 130.2 248.866 130.4 248.199C130.6 247.533 130.767 246.866 130.9 246.199C130.967 245.666 131 245.166 131 244.699ZM131 244.299C130.6 244.766 130.233 245.266 129.9 245.799C129.5 246.399 129.133 246.999 128.8 247.599C128.467 248.266 128.2 248.933 128 249.599C127.733 250.266 127.567 250.966 127.5 251.699C127.367 252.299 127.3 252.899 127.3 253.499C127.567 252.899 127.833 252.299 128.1 251.699C128.367 251.099 128.6 250.466 128.8 249.799C129 249.133 129.233 248.499 129.5 247.899C129.7 247.299 129.933 246.666 130.2 245.999C130.467 245.466 130.733 244.933 131 244.399C131 244.333 131 244.299 131 244.299ZM131.8 243.599C131.8 243.599 131.767 243.633 131.7 243.699C131.767 243.633 131.833 243.599 131.9 243.599C131.833 243.599 131.8 243.599 131.8 243.599ZM117.8 245.399C118.267 245.266 118.733 245.133 119.2 244.999C118.6 244.933 118 244.866 117.4 244.799C116.733 244.799 116.067 244.799 115.4 244.799C114.733 244.799 114.067 244.799 113.4 244.799C112.667 244.799 111.967 244.799 111.3 244.799C110.967 244.799 110.633 244.766 110.3 244.699C110.1 244.699 109.867 244.666 109.6 244.599C110.267 244.866 110.933 245.099 111.6 245.299C112.267 245.433 112.933 245.533 113.6 245.599C114.333 245.666 115.033 245.666 115.7 245.599C116.367 245.599 117.067 245.533 117.8 245.399ZM109.6 244.499C110.267 244.566 110.933 244.633 111.6 244.699C112.267 244.699 112.933 244.699 113.6 244.699C114.267 244.699 114.933 244.699 115.6 244.699C116.267 244.699 116.967 244.699 117.7 244.699C118.3 244.766 118.9 244.833 119.5 244.899C119.5 244.899 119.533 244.899 119.6 244.899C119 244.699 118.4 244.499 117.8 244.299C117.067 244.166 116.367 244.033 115.7 243.899C114.967 243.833 114.233 243.833 113.5 243.899C112.767 243.899 112.067 243.966 111.4 244.099C110.8 244.233 110.2 244.366 109.6 244.499Z" fill="#FFBB22"/>
<path fill-rule="evenodd" clip-rule="evenodd" d="M155.999 229.099C156.666 228.899 157.332 228.799 157.999 228.799C159.399 228.799 160.799 229.199 162.099 229.699C162.766 230.033 163.399 230.366 163.999 230.699C164.199 230.833 164.366 230.933 164.499 230.999C164.632 231.066 164.799 231.166 164.999 231.299C165.132 231.366 165.166 231.499 165.099 231.699C165.032 231.899 164.966 232.066 164.899 232.199C164.299 233.699 163.799 235.199 163.099 236.599C162.399 237.899 161.499 239.199 160.399 240.099C159.399 240.899 158.199 241.499 156.999 241.499C156.399 241.499 155.699 241.299 155.199 240.999C154.932 240.733 154.732 240.433 154.599 240.099C154.466 239.766 154.399 239.433 154.399 239.099C154.299 237.999 154.599 236.799 155.299 235.899C155.099 235.899 154.899 235.833 154.699 235.699C154.099 235.499 153.599 235.099 153.199 234.599C152.699 234.099 152.399 233.399 152.399 232.699C152.299 231.499 153.099 230.399 154.099 229.799C154.699 229.499 155.299 229.199 155.999 229.099ZM160.299 234.899C159.832 235.299 159.266 235.699 158.599 236.099C158.466 236.166 158.332 236.233 158.199 236.299C158.066 236.366 157.966 236.399 157.899 236.399C157.766 236.533 157.632 236.633 157.499 236.699C157.432 236.766 157.432 236.866 157.499 236.999C157.566 237.066 157.599 237.099 157.599 237.099C158.199 236.899 159.032 236.733 160.099 236.599C160.032 236.733 159.899 236.866 159.699 236.999C159.499 237.133 159.332 237.266 159.199 237.399C159.066 237.466 158.899 237.566 158.699 237.699C158.499 237.899 158.332 237.999 158.199 237.999C158.199 238.133 158.232 238.233 158.299 238.299C158.299 238.366 158.332 238.399 158.399 238.399C158.466 238.399 158.532 238.399 158.599 238.399C159.199 238.133 159.666 237.966 159.999 237.899C160.799 237.766 161.232 237.666 161.299 237.599C161.566 237.599 161.699 237.599 161.699 237.599C161.766 237.533 161.799 237.433 161.799 237.299C161.799 237.166 161.766 237.099 161.699 237.099C161.299 237.099 160.699 237.233 159.899 237.499C159.966 237.433 160.099 237.299 160.299 237.099C160.432 236.966 160.532 236.833 160.599 236.699C160.732 236.499 160.766 236.333 160.699 236.199C160.699 236.066 160.632 235.999 160.499 235.999C160.432 235.999 160.299 236.033 160.099 236.099C159.766 236.166 159.499 236.199 159.299 236.199C159.366 236.133 159.532 236.033 159.799 235.899C159.999 235.766 160.166 235.666 160.299 235.599C160.366 235.466 160.432 235.366 160.499 235.299C160.499 235.166 160.499 235.066 160.499 234.999C160.432 234.933 160.366 234.899 160.299 234.899ZM157.799 233.699C157.599 233.766 157.432 233.933 157.299 234.199C157.166 234.333 157.132 234.466 157.199 234.599C157.199 234.866 157.199 235.033 157.199 235.099C157.199 235.166 157.199 235.233 157.199 235.299C157.266 235.366 157.399 235.433 157.599 235.499C157.732 235.566 157.866 235.599 157.999 235.599C158.332 235.599 158.632 235.533 158.899 235.399C159.166 235.266 159.332 235.099 159.399 234.899C159.466 234.566 159.466 234.299 159.399 234.099C159.332 234.099 159.299 234.066 159.299 233.999C159.032 233.666 158.599 233.533 157.999 233.599C157.932 233.599 157.866 233.633 157.799 233.699ZM157.799 230.199C157.332 230.599 156.766 230.999 156.099 231.399C155.966 231.466 155.832 231.533 155.699 231.599C155.566 231.666 155.466 231.699 155.399 231.699C155.266 231.833 155.132 231.933 154.999 231.999C154.932 232.066 154.932 232.166 154.999 232.299C155.066 232.366 155.099 232.399 155.099 232.399C155.699 232.199 156.532 232.033 157.599 231.899C157.532 232.033 157.399 232.199 157.199 232.399C156.999 232.466 156.832 232.566 156.699 232.699C156.566 232.766 156.399 232.899 156.199 233.099C155.999 233.233 155.832 233.333 155.699 233.399C155.699 233.466 155.732 233.533 155.799 233.599C155.799 233.666 155.832 233.699 155.899 233.699C155.966 233.699 156.032 233.699 156.099 233.699C156.699 233.433 157.166 233.266 157.499 233.199C158.299 233.066 158.732 232.966 158.799 232.899C159.066 232.899 159.199 232.899 159.199 232.899C159.266 232.833 159.299 232.733 159.299 232.599C159.299 232.466 159.266 232.399 159.199 232.399C158.799 232.399 158.199 232.533 157.399 232.799C157.466 232.733 157.599 232.599 157.799 232.399C157.932 232.266 158.032 232.133 158.099 231.999C158.232 231.866 158.266 231.699 158.199 231.499C158.199 231.433 158.132 231.399 157.999 231.399C157.932 231.399 157.799 231.399 157.599 231.399C157.266 231.466 156.999 231.499 156.799 231.499C156.932 231.433 157.099 231.333 157.299 231.199C157.499 231.133 157.666 231.033 157.799 230.899C157.866 230.766 157.932 230.666 157.999 230.599C157.999 230.466 157.999 230.366 157.999 230.299C157.932 230.233 157.866 230.199 157.799 230.199Z" fill="#FFBB22"/>
<path d="M157.602 234.599C157.602 234.666 157.668 234.699 157.802 234.699C157.935 234.766 158.002 234.799 158.002 234.799C158.002 234.866 158.002 234.899 158.002 234.899C158.002 234.966 158.002 235.033 158.002 235.099C158.002 235.099 158.035 235.099 158.102 235.099C158.235 235.166 158.402 235.133 158.602 234.999C158.735 234.933 158.835 234.833 158.902 234.699C159.035 234.566 159.068 234.466 159.002 234.399C158.935 234.199 158.768 234.099 158.502 234.099C158.235 234.033 158.035 234.066 157.902 234.199C157.702 234.333 157.602 234.466 157.602 234.599Z" fill="#FFBB22"/>
<path d="M32.0984 153C65.0984 138.1 82.8985 208.2 82.8985 208.2L41.9985 228.9C41.9985 228.9 -11.0016 172.4 32.0984 153Z" fill="#FFBB22"/>
<path d="M32.1016 153C65.1016 138.1 82.9016 208.2 82.9016 208.2L42.0016 228.9" stroke="#371116" stroke-width="2" stroke-linecap="round" stroke-linejoin="round"/>
<path d="M203.097 212.7C203.497 212.1 178.697 202.8 171.797 204.9C171.197 205.1 171.197 206.1 171.797 206.3L179.397 209.1C179.397 209.1 155.497 223.5 158.197 234.7C158.397 235.5 187.397 233.9 203.097 212.7Z" fill="#FFB4BA"/>
<path d="M170.4 220.7L158.5 230.5" stroke="#1C4188" stroke-linecap="round" stroke-linejoin="round"/>
<path d="M173.795 222.8L159.195 234.1" stroke="#1C4188" stroke-linecap="round" stroke-linejoin="round"/>
<path d="M177.8 225.2L167 233.7" stroke="#1C4188" stroke-linecap="round" stroke-linejoin="round"/>
</svg>
