<svg width="115" height="95" viewBox="0 0 115 95" fill="none" xmlns="http://www.w3.org/2000/svg">
<path d="M10.8346 84.182C7.97005 84.182 5.5178 83.162 3.47786 81.1221C1.43793 79.0822 0.417969 76.6299 0.417969 73.7653V11.2653C0.417969 8.40075 1.43793 5.94849 3.47786 3.90856C5.5178 1.86863 7.97005 0.848663 10.8346 0.848663H94.168C97.0326 0.848663 99.4848 1.86863 101.525 3.90856C103.565 5.94849 104.585 8.40075 104.585 11.2653V42.5153H10.8346V73.7653H62.918V84.182H10.8346ZM10.8346 21.682H94.168V11.2653H10.8346V21.682ZM88.9596 94.5987V78.9737H73.3346V68.557H88.9596V52.932H99.3763V68.557H115.001V78.9737H99.3763V94.5987H88.9596Z" fill="#DBEEFC"/>
</svg>
