<svg width="105" height="85" viewBox="0 0 105 85" fill="none" xmlns="http://www.w3.org/2000/svg">
<path d="M21.2513 63.3487H62.918V46.682L83.7513 63.3487V21.682L62.918 38.3487V21.682H21.2513V63.3487ZM10.8346 84.182C7.97005 84.182 5.5178 83.162 3.47786 81.1221C1.43793 79.0822 0.417969 76.6299 0.417969 73.7653V11.2653C0.417969 8.40075 1.43793 5.94849 3.47786 3.90856C5.5178 1.86863 7.97005 0.848663 10.8346 0.848663H94.168C97.0325 0.848663 99.4848 1.86863 101.525 3.90856C103.565 5.94849 104.585 8.40075 104.585 11.2653V73.7653C104.585 76.6299 103.565 79.0822 101.525 81.1221C99.4848 83.162 97.0325 84.182 94.168 84.182H10.8346ZM10.8346 73.7653H94.168V11.2653H10.8346V73.7653Z" fill="#DBEEFC"/>
</svg>
