<svg width="115" height="90" viewBox="0 0 115 90" fill="none" xmlns="http://www.w3.org/2000/svg">
<path d="M21.0404 89.1823V78.7656H29.3737L39.6602 44.5209C40.3546 42.2639 41.635 40.4627 43.5013 39.1172C45.3676 37.7717 47.4293 37.099 49.6862 37.099H65.3112C67.5681 37.099 69.6298 37.7717 71.4961 39.1172C73.3624 40.4627 74.6428 42.2639 75.3372 44.5209L85.6237 78.7656H93.957V89.1823H21.0404ZM40.3112 78.7656H74.6862L65.3112 47.5157H49.6862L40.3112 78.7656ZM52.2904 26.6823V0.640656H62.707V26.6823H52.2904ZM83.28 39.5729L75.8581 32.1511L94.3477 13.7917L101.639 21.0834L83.28 39.5729ZM88.7487 63.1407V52.724H114.79V63.1407H88.7487ZM31.7174 39.5729L13.3581 21.0834L20.6497 13.7917L39.1393 32.1511L31.7174 39.5729ZM0.207031 63.1407V52.724H26.2487V63.1407H0.207031Z" fill="white"/>
</svg>
