<svg width="105" height="115" viewBox="0 0 105 115" fill="none" xmlns="http://www.w3.org/2000/svg">
<path d="M11.0417 104.39C8.17708 104.39 5.72483 103.37 3.6849 101.33C1.64497 99.2905 0.625 96.8382 0.625 93.9737V21.057C0.625 18.1924 1.64497 15.7402 3.6849 13.7002C5.72483 11.6603 8.17708 10.6403 11.0417 10.6403H32.9167C34.0451 7.51533 35.9332 4.99797 38.5807 3.08825C41.2283 1.17852 44.2014 0.223663 47.5 0.223663C50.7986 0.223663 53.7717 1.17852 56.4193 3.08825C59.0668 4.99797 60.9549 7.51533 62.0833 10.6403H83.9583C86.8229 10.6403 89.2752 11.6603 91.3151 13.7002C93.355 15.7402 94.375 18.1924 94.375 21.057V55.9528C92.7257 55.1716 91.033 54.4988 89.2969 53.9346C87.5608 53.3704 85.7812 52.958 83.9583 52.6976V21.057H11.0417V93.9737H42.5521C42.8125 95.8834 43.2248 97.7063 43.7891 99.4424C44.3533 101.179 45.026 102.828 45.8073 104.39H11.0417ZM11.0417 93.9737V21.057V52.6976V52.307V93.9737ZM21.4583 83.557H42.6823C42.9427 81.7341 43.355 79.9546 43.9193 78.2185C44.4835 76.4823 45.1128 74.7896 45.8073 73.1403H21.4583V83.557ZM21.4583 62.7237H53.2292C56.0069 60.1195 59.1102 57.9494 62.5391 56.2132C65.9679 54.4771 69.6354 53.3053 73.5417 52.6976V52.307H21.4583V62.7237ZM21.4583 41.8903H73.5417V31.4737H21.4583V41.8903ZM47.5 17.1507C48.6285 17.1507 49.5616 16.7818 50.2995 16.044C51.0373 15.3061 51.4062 14.373 51.4062 13.2445C51.4062 12.116 51.0373 11.1829 50.2995 10.445C49.5616 9.70717 48.6285 9.33825 47.5 9.33825C46.3715 9.33825 45.4384 9.70717 44.7005 10.445C43.9627 11.1829 43.5937 12.116 43.5937 13.2445C43.5937 14.373 43.9627 15.3061 44.7005 16.044C45.4384 16.7818 46.3715 17.1507 47.5 17.1507ZM78.75 114.807C71.5451 114.807 65.4036 112.268 60.3255 107.19C55.2474 102.112 52.7083 95.9702 52.7083 88.7653C52.7083 81.5605 55.2474 75.419 60.3255 70.3409C65.4036 65.2627 71.5451 62.7237 78.75 62.7237C85.9549 62.7237 92.0964 65.2627 97.1745 70.3409C102.253 75.419 104.792 81.5605 104.792 88.7653C104.792 95.9702 102.253 102.112 97.1745 107.19C92.0964 112.268 85.9549 114.807 78.75 114.807ZM76.1458 104.39H81.3542V91.3695H94.375V86.1612H81.3542V73.1403H76.1458V86.1612H63.125V91.3695H76.1458V104.39Z" fill="#DBEEFC"/>
</svg>
